<svg version="1.1" xmlns="http://www.w3.org/2000/svg" xmlns:xlink="http://www.w3.org/1999/xlink" width="91.1493" height="88.29416" viewBox="0,0,91.1493,88.29416"><defs><linearGradient x1="223.27133" y1="135.47793" x2="244.72056" y2="134.26192" gradientUnits="userSpaceOnUse" id="color-1"><stop offset="0" stop-color="#fff8ad"/><stop offset="1" stop-color="#c9c388"/></linearGradient><linearGradient x1="234.54568" y1="195.59048" x2="254.1851" y2="192.88953" gradientUnits="userSpaceOnUse" id="color-2"><stop offset="0" stop-color="#2fe500"/><stop offset="1" stop-color="#51b800"/></linearGradient><linearGradient x1="231.51414" y1="139.48013" x2="269.65194" y2="137.31799" gradientUnits="userSpaceOnUse" id="color-3"><stop offset="0" stop-color="#fff8ad"/><stop offset="1" stop-color="#c9c388"/></linearGradient><linearGradient x1="225.39729" y1="144.18344" x2="270.34857" y2="141.63502" gradientUnits="userSpaceOnUse" id="color-4"><stop offset="0" stop-color="#fff8ad"/><stop offset="1" stop-color="#c9c388"/></linearGradient><linearGradient x1="202.7179" y1="138.00523" x2="224.00072" y2="136.79864" gradientUnits="userSpaceOnUse" id="color-5"><stop offset="0" stop-color="#fff8ad"/><stop offset="1" stop-color="#c9c388"/></linearGradient><linearGradient x1="180.63935" y1="141.368" x2="226.40257" y2="138.77355" gradientUnits="userSpaceOnUse" id="color-6"><stop offset="0" stop-color="#fff8ad"/><stop offset="1" stop-color="#c9c388"/></linearGradient><linearGradient x1="187.89007" y1="152.43442" x2="223.64302" y2="150.40749" gradientUnits="userSpaceOnUse" id="color-7"><stop offset="0" stop-color="#fff8ad"/><stop offset="1" stop-color="#c9c388"/></linearGradient><linearGradient x1="237.70916" y1="144.88908" x2="241.57934" y2="213.15474" gradientUnits="userSpaceOnUse" id="color-8"><stop offset="0" stop-color="#3dff00"/><stop offset="1" stop-color="#ebffd8"/></linearGradient><linearGradient x1="224.52944" y1="128.91582" x2="228.92217" y2="151.48639" gradientUnits="userSpaceOnUse" id="color-9"><stop offset="0" stop-color="#00e0ff"/><stop offset="1" stop-color="#00bcc4"/></linearGradient><linearGradient x1="203.87681" y1="156.50749" x2="226.42491" y2="155.22917" gradientUnits="userSpaceOnUse" id="color-10"><stop offset="0" stop-color="#fff8ad"/><stop offset="1" stop-color="#c9c388"/></linearGradient><linearGradient x1="229.9652" y1="151.06252" x2="259.31748" y2="149.39845" gradientUnits="userSpaceOnUse" id="color-11"><stop offset="0" stop-color="#fff8ad"/><stop offset="1" stop-color="#c9c388"/></linearGradient><linearGradient x1="218.44659" y1="157.26939" x2="233.72379" y2="156.40328" gradientUnits="userSpaceOnUse" id="color-12"><stop offset="0" stop-color="#fff8ad"/><stop offset="1" stop-color="#c9c388"/></linearGradient><linearGradient x1="211.03874" y1="197.52546" x2="230.53491" y2="197.52546" gradientUnits="userSpaceOnUse" id="color-13"><stop offset="0" stop-color="#2fe500"/><stop offset="1" stop-color="#51b800"/></linearGradient><linearGradient x1="228.70902" y1="199.36945" x2="249.25529" y2="198.01677" gradientUnits="userSpaceOnUse" id="color-14"><stop offset="0" stop-color="#2fe500"/><stop offset="1" stop-color="#51b800"/></linearGradient></defs><g transform="translate(-180.17054,-116.33279)"><g data-paper-data="{&quot;isPaintingLayer&quot;:true}" fill-rule="nonzero" stroke-linejoin="miter" stroke-miterlimit="10" stroke-dasharray="" stroke-dashoffset="0" style="mix-blend-mode: normal"><path d="M231.49183,192.74202c0.26308,-3.59629 4.49395,-6.33963 9.4499,-6.12746c4.95595,0.21218 9.57242,3.83143 9.30933,7.42773c-0.26308,3.59627 -19.02231,2.296 -18.75923,-1.30028z" data-paper-data="{&quot;origPos&quot;:null,&quot;origRot&quot;:0,&quot;index&quot;:null}" fill="#25b800" stroke="#000000" stroke-width="2" stroke-linecap="butt"/><path d="M233.48486,194.81008c0.39393,3.58432 -18.30546,5.56719 -18.6994,1.98289c-0.39393,-3.58432 4.0876,-7.36937 9.03253,-7.76197c4.94493,-0.3926 9.27293,2.19477 9.66686,5.77909z" data-paper-data="{&quot;origPos&quot;:null,&quot;origRot&quot;:0}" fill="#25b800" stroke="#000000" stroke-width="2" stroke-linecap="butt"/><path d="M235.47124,130.91138c0,0 -7.32757,5.09745 -7.63494,5.17481c-4.75331,1.19631 -5.95166,0.9844 -3.07383,-9.67786c2.22157,-4.9076 7.33821,-10.36509 11.3627,-9.15498c5.75348,1.73 8.80321,21.17496 8.80271,21.5553c-0.00646,4.81829 1.71254,7.5984 -2.38517,12.99625c-2.69575,3.55106 -7.07147,-20.89352 -7.07147,-20.89352z" data-paper-data="{&quot;origPos&quot;:null,&quot;origRot&quot;:0,&quot;index&quot;:null}" fill="url(#color-1)" stroke="#666349" stroke-width="1.5" stroke-linecap="butt"/><path d="M234.69142,196.60254c-0.10101,-3.79486 4.06609,-7.11735 9.30752,-7.421c5.24142,-0.30365 10.48351,2.99749 10.58452,6.79235c0.10101,3.79484 -19.79103,4.4235 -19.89204,0.62863z" data-paper-data="{&quot;origPos&quot;:null,&quot;origRot&quot;:0,&quot;index&quot;:null}" fill="url(#color-2)" stroke="#000000" stroke-width="2" stroke-linecap="butt"/><path d="M260.16418,131.26127c-3.30801,-0.45797 -11.74361,-0.78099 -11.74361,-0.78099c-6.41618,7.52479 -9.88435,18.53017 -9.89922,19.0913c-0.23021,8.67783 -7.30272,11.25897 -6.12305,0.48692c0.82248,-7.51045 0.86228,-12.26513 2.19856,-19.70136c0.54989,-3.06003 -0.90561,-4.34913 1.11162,-6.71492c3.86467,-4.53243 29.29245,-4.01969 32.87575,3.47563c2.67323,5.59169 -4.06069,4.74694 -8.42004,4.14343z" data-paper-data="{&quot;origPos&quot;:null,&quot;index&quot;:null,&quot;origRot&quot;:0}" fill="url(#color-3)" stroke="#666349" stroke-width="1.5" stroke-linecap="butt"/><path d="M261.18867,145.85307c-2.81343,-1.79925 -10.34108,-5.61999 -10.34108,-5.61999c-8.97479,4.15245 -16.72707,12.69929 -16.97523,13.2028c-3.83774,7.78649 -11.34155,7.17379 -5.76566,-2.11803c3.8876,-6.47842 5.91191,-10.78083 10.23522,-16.97699c1.77904,-2.54973 0.99594,-4.32934 3.81759,-5.63486c5.40581,-2.50116 28.28947,8.59718 28.41033,16.90411c0.09016,6.19717 -5.67358,2.61406 -9.38116,0.24297z" data-paper-data="{&quot;origPos&quot;:null,&quot;index&quot;:null,&quot;origRot&quot;:0}" fill="url(#color-4)" stroke="#666349" stroke-width="1.5" stroke-linecap="butt"/><path d="M206.86609,155.21697c-4.68153,-4.90013 -3.28775,-7.8567 -3.83876,-12.6434c-0.04348,-0.37784 0.78897,-20.04292 6.31007,-22.41209c3.86194,-1.65722 8.47,1.96945 12.06953,7.82654c4.06446,10.26867 3.15282,10.60022 -1.70524,9.9488c-0.31413,-0.04211 -8.17089,-4.27872 -8.17089,-4.27872c0,0 -1.58489,24.78251 -4.66472,21.55888z" data-paper-data="{&quot;origPos&quot;:null,&quot;origRot&quot;:0}" fill="url(#color-5)" stroke="#666349" stroke-width="1.5" stroke-linecap="butt"/><path d="M182.0242,150.80166c-4.31225,-8.37625 4.72039,-22.27498 14.82637,-22.84792c10.10599,-0.57294 15.94168,4.57333 25.13842,10.09031c9.29266,5.57451 2.96006,9.64648 -4.09052,4.5822c-0.4559,-0.32747 -11.3183,-4.22042 -21.19131,-3.66069c0,0 -4.84388,6.91378 -6.47956,9.82536c-2.15551,3.83693 -5.36652,7.52121 -8.20341,2.01075z" data-paper-data="{&quot;origPos&quot;:null,&quot;origRot&quot;:0}" fill="url(#color-6)" stroke="#666349" stroke-width="1.5" stroke-linecap="butt"/><path d="M194.5431,169.44232c-8.16341,-4.70273 -5.53508,-7.7293 -6.30718,-12.50346c-0.06094,-0.37684 2.31122,-20.12922 12.30384,-22.75189c6.98973,-1.83454 11.96353,3.30679 19.1862,3.07278c6.81777,10.11259 3.31192,10.0794 -5.35803,9.6441c-0.56062,-0.02814 -2.51124,-5.1051 -10.50547,0.71573c-7.09323,5.16476 -3.94889,24.91653 -9.31934,21.82276z" data-paper-data="{&quot;origPos&quot;:null,&quot;origRot&quot;:0}" fill="url(#color-7)" stroke="#666349" stroke-width="1.5" stroke-linecap="butt"/><path d="M227.85628,194.48436c-1.86627,-3.30124 -30.98062,-48.8369 -3.86375,-50.09716c25.75028,-1.19675 -16.72467,3.92894 10.49679,0.17261c17.8119,-2.4579 10.37487,33.3297 5.47576,46.93497c-4.89911,13.60526 -10.24253,6.29082 -12.1088,2.98959z" data-paper-data="{&quot;origPos&quot;:null,&quot;origRot&quot;:0}" fill="url(#color-8)" stroke="#244b00" stroke-width="1.5" stroke-linecap="butt"/><path d="M244.10311,137.20953c1.53845,5.35703 -6.24048,12.13584 -14.61999,13.76667c-8.37951,1.63083 -20.95641,-0.16583 -22.02117,-5.63673c-1.06476,-5.47091 6.85475,-13.90623 15.23426,-15.53706c8.37951,-1.63083 19.79176,1.78304 21.40689,7.40713z" data-paper-data="{&quot;origPos&quot;:null,&quot;origRot&quot;:0}" fill="url(#color-9)" stroke="#244b00" stroke-width="1.5" stroke-linecap="butt"/><path d="M208.02312,173.68613c-4.68153,-4.90013 -3.28775,-7.8567 -3.83876,-12.6434c-0.04348,-0.37784 0.78897,-20.04292 6.31007,-22.41209c3.86194,-1.65722 9.59154,3.69717 13.62372,3.64403c4.06446,10.26867 1.59863,14.78272 -3.25942,14.13131c-0.31413,-0.04211 -8.17089,-4.27872 -8.17089,-4.27872c0,0 -1.58489,24.78251 -4.66472,21.55888z" data-paper-data="{&quot;origPos&quot;:null,&quot;origRot&quot;:0}" fill="url(#color-10)" stroke="#666349" stroke-width="1.5" stroke-linecap="butt"/><path d="M244.27831,152.89527c-1.78844,-1.01472 -6.79214,-8.74522 -6.79214,-8.74522l2.98698,4.35562c0,0 -3.72558,4.37303 -6.71388,4.86582c-8.56521,1.41241 -0.5404,-15.06439 2.4995,-16.5206c6.28522,-3.01079 11.62905,4.20933 15.97254,9.65937c4.53032,5.68446 8.13635,9.99147 7.79437,17.25234c0,0 -10.83497,-4.8478 -15.74735,-10.86732z" data-paper-data="{&quot;origPos&quot;:null,&quot;origRot&quot;:0,&quot;index&quot;:null}" fill="url(#color-11)" stroke="#666349" stroke-width="1.5" stroke-linecap="butt"/><path d="M224.33363,174.44276c-4.68153,-4.90013 -5.07331,-7.75548 -5.6243,-12.54217c-0.04348,-0.37784 -2.70984,-18.56507 2.81126,-20.93423c3.86194,-1.65722 8.31091,-0.83642 9.51352,3.36525c4.06446,10.26867 3.10019,14.1858 -1.75787,13.53437c-0.31413,-0.04211 -0.00833,-4.74148 -0.00833,-4.74148c0,0 -1.85443,24.54188 -4.93427,21.31826z" data-paper-data="{&quot;origPos&quot;:null,&quot;origRot&quot;:0}" fill="url(#color-12)" stroke="#666349" stroke-width="1.5" stroke-linecap="butt"/><path d="M232.81512,173.13772c0.37927,2.62523 -0.37499,5.01294 -1.68467,5.333c-1.30966,0.32012 -2.67881,-1.54863 -3.05805,-4.17386c-0.37927,-2.62523 0.37499,-5.01294 1.68467,-5.333c1.30966,-0.32012 2.6788,1.54864 3.05803,4.17388z" data-paper-data="{&quot;origPos&quot;:null,&quot;origRot&quot;:0}" fill="#000000" stroke="none" stroke-width="0" stroke-linecap="butt"/><path d="M238.53768,170.72144c0.26495,1.98113 -0.32217,3.77113 -1.31141,3.99805c-0.98926,0.22693 -2.00598,-1.19511 -2.27098,-3.17626c-0.26495,-1.98113 0.32216,-3.77114 1.31141,-3.99805c0.98926,-0.22693 2.00603,1.19511 2.271,3.17624z" data-paper-data="{&quot;origPos&quot;:null,&quot;origRot&quot;:0}" fill="#000000" stroke="none" stroke-width="0" stroke-linecap="butt"/><path d="M230.99064,172.56134c0.17203,1.19092 -0.17012,2.27405 -0.76424,2.41929c-0.59411,0.1452 -1.2152,-0.70253 -1.38724,-1.89343c-0.17203,-1.19092 0.17012,-2.27405 0.76424,-2.41929c0.59411,-0.1452 1.2152,0.70253 1.38724,1.89342z" data-paper-data="{&quot;origPos&quot;:null,&quot;origRot&quot;:0}" fill="#ffffff" stroke="none" stroke-width="0" stroke-linecap="butt"/><path d="M236.93462,169.91404c0.09037,0.67562 -0.10986,1.28606 -0.44721,1.36345c-0.33733,0.07739 -0.68407,-0.40755 -0.77446,-1.08317c-0.09037,-0.67562 0.10986,-1.28606 0.44721,-1.36345c0.33733,-0.07739 0.68408,0.40756 0.77445,1.08317z" data-paper-data="{&quot;origPos&quot;:null,&quot;origRot&quot;:0}" fill="#ffffff" stroke="none" stroke-width="0" stroke-linecap="butt"/><path d="M236.42149,185.76645c0,0 -2.43924,0.67746 -3.3885,-0.05668c-0.89877,-0.6951 -2.32162,-2.29174 -2.32162,-2.29174" data-paper-data="{&quot;origPos&quot;:null,&quot;origRot&quot;:0}" fill="none" stroke="#244b00" stroke-width="1" stroke-linecap="round"/><path d="M230.52852,198.49673c0.41006,3.58431 -19.05457,5.56719 -19.46463,1.98289c-0.41006,-3.58431 4.25488,-7.36937 9.40217,-7.76197c5.14729,-0.3926 9.6524,2.19478 10.06246,5.77909z" data-paper-data="{&quot;origPos&quot;:null,&quot;origRot&quot;:0}" fill="url(#color-13)" stroke="#000000" stroke-width="2" stroke-linecap="butt"/><path d="M228.78293,200.38928c0.18427,-3.79354 4.7531,-6.82398 10.20477,-6.76871c5.45169,0.05528 10.62964,3.70757 10.44538,7.5011c-0.18427,3.79352 -20.83442,3.06113 -20.65015,-0.73241z" data-paper-data="{&quot;origPos&quot;:null,&quot;origRot&quot;:0,&quot;index&quot;:null}" fill="url(#color-14)" stroke="#000000" stroke-width="2" stroke-linecap="butt"/></g></g></svg>