<svg version="1.1" xmlns="http://www.w3.org/2000/svg" xmlns:xlink="http://www.w3.org/1999/xlink" width="504" height="369.1875" viewBox="0,0,504,369.1875"><defs><radialGradient cx="236" cy="317" r="252" gradientUnits="userSpaceOnUse" id="color-1"><stop offset="0" stop-color="#9e9e9e"/><stop offset="1" stop-color="#000000"/></radialGradient><linearGradient x1="242.00001" y1="178.17841" x2="242.00001" y2="304.82159" gradientUnits="userSpaceOnUse" id="color-2"><stop offset="0" stop-color="#f5b5ff"/><stop offset="1" stop-color="#cc8ad6"/></linearGradient></defs><g transform="translate(19,8.1874)"><g data-paper-data="{&quot;isPaintingLayer&quot;:true}" fill-rule="nonzero" stroke-linecap="butt" stroke-linejoin="miter" stroke-miterlimit="10" stroke-dasharray="" stroke-dashoffset="0" style="mix-blend-mode: normal"><path d="M-19,361.0001v-369.1875h504v369.1875z" data-paper-data="{&quot;origPos&quot;:null}" fill="url(#color-1)" stroke="none" stroke-width="0"/><path d="M377,289c0,19.88225 -61.11313,36 -136.5,36c-75.38687,0 -136.5,-16.11775 -136.5,-36c0,-19.88225 61.11313,-36 136.5,-36c75.38687,0 136.5,16.11775 136.5,36z" data-paper-data="{&quot;origPos&quot;:null}" fill="#ececec" stroke="#000000" stroke-width="6"/><path d="M354.00001,267.72866c0,49.45724 -224,49.45724 -224,0c0,-49.45724 50.14411,-89.55025 112,-89.55025c61.85589,0 112,40.09301 112,89.55025z" data-paper-data="{&quot;origPos&quot;:null}" fill="url(#color-2)" stroke="#000000" stroke-width="7"/><g font-family="Handwriting" font-weight="normal" font-size="40" text-anchor="start"><text transform="translate(149.96002,51.2954) scale(0.87265,0.87265)" font-size="40" xml:space="preserve" data-paper-data="{&quot;origPos&quot;:null}" fill="#adff00" fill-rule="nonzero" stroke="#000000" stroke-width="11" stroke-linecap="butt" stroke-linejoin="miter" stroke-miterlimit="10" stroke-dasharray="" stroke-dashoffset="0" font-family="Handwriting" font-weight="normal" text-anchor="start" style="mix-blend-mode: normal"><tspan x="0" dy="0">The Zombies</tspan><tspan x="0" dy="46.15px">   Ate Your</tspan><tspan x="0" dy="46.15px">   Brains :&lt;</tspan></text><text transform="translate(149.96002,51.2954) scale(0.87265,0.87265)" font-size="40" xml:space="preserve" data-paper-data="{&quot;origPos&quot;:null}" fill="#adff00" fill-rule="nonzero" stroke="#adff00" stroke-width="2" stroke-linecap="butt" stroke-linejoin="miter" stroke-miterlimit="10" stroke-dasharray="" stroke-dashoffset="0" font-family="Handwriting" font-weight="normal" text-anchor="start" style="mix-blend-mode: normal"><tspan x="0" dy="0">The Zombies</tspan><tspan x="0" dy="46.150000000000006px">   Ate Your</tspan><tspan x="0" dy="46.150000000000006px">   Brains :&lt;</tspan></text></g></g></g></svg>