<svg version="1.1" xmlns="http://www.w3.org/2000/svg" xmlns:xlink="http://www.w3.org/1999/xlink" width="221.20096" height="355.96456" viewBox="0,0,221.20096,355.96456"><defs><linearGradient x1="241.89988" y1="162.8125" x2="241.89988" y2="371.81252" gradientUnits="userSpaceOnUse" id="color-1"><stop offset="0" stop-color="#88641d"/><stop offset="1" stop-color="#c08517"/></linearGradient><linearGradient x1="159.92062" y1="172.00003" x2="318.07938" y2="172.00003" gradientUnits="userSpaceOnUse" id="color-2"><stop offset="0" stop-color="#9a7609"/><stop offset="1" stop-color="#b28b48"/></linearGradient><linearGradient x1="224.25002" y1="40.26093" x2="224.25002" y2="162.59422" gradientUnits="userSpaceOnUse" id="color-3"><stop offset="0" stop-color="#7a5a1f"/><stop offset="1" stop-color="#5c3911"/></linearGradient><linearGradient x1="240.19005" y1="111.24884" x2="240.19005" y2="147.63244" gradientUnits="userSpaceOnUse" id="color-4"><stop offset="0" stop-color="#909090"/><stop offset="1" stop-color="#6e6e6e"/></linearGradient><linearGradient x1="182.5" y1="158" x2="182.5" y2="308" gradientUnits="userSpaceOnUse" id="color-5"><stop offset="0" stop-color="#1fa4ff"/><stop offset="1" stop-color="#1fa4ff" stop-opacity="0"/></linearGradient><linearGradient x1="205" y1="275.8125" x2="294" y2="275.8125" gradientUnits="userSpaceOnUse" id="color-6"><stop offset="0" stop-color="#000000"/><stop offset="1" stop-color="#000000" stop-opacity="0"/></linearGradient><linearGradient x1="201.52172" y1="56.64551" x2="264.37393" y2="56.64551" gradientUnits="userSpaceOnUse" id="color-7"><stop offset="0" stop-color="#909090"/><stop offset="1" stop-color="#676767"/></linearGradient><linearGradient x1="129.75" y1="72" x2="162.75" y2="72" gradientUnits="userSpaceOnUse" id="color-8"><stop offset="0" stop-color="#000000"/><stop offset="1" stop-color="#696969"/></linearGradient><radialGradient cx="205.59787" cy="268.64616" r="14.267" gradientUnits="userSpaceOnUse" id="color-9"><stop offset="0" stop-color="#a0d1ff"/><stop offset="1" stop-color="#58a7f0"/></radialGradient><linearGradient x1="206.80283" y1="275.52245" x2="206.80283" y2="287.19561" gradientUnits="userSpaceOnUse" id="color-10"><stop offset="0" stop-color="#a8cdf0"/><stop offset="1" stop-color="#f0f0f0"/></linearGradient></defs><g transform="translate(-112.93717,-3.6798)"><g data-paper-data="{&quot;isPaintingLayer&quot;:true}" fill-rule="nonzero" stroke-linejoin="miter" stroke-miterlimit="10" stroke-dasharray="" stroke-dashoffset="0" style="mix-blend-mode: normal"><path d="M162.87804,162.8125l38.69928,27.00358l116.4445,-3.00358l-16.71896,35.70764l-5.82277,17.10757l-7.12995,9.54978l-17.87672,23.8347l-9.79215,25.54743l-11.76206,19.06413l-8.43362,22.18874l-7.64548,-26.1953l-9.1007,-16.76887l-8.7149,-10.88197l-6.13459,-16.38243l-4.14853,-12.60787l-14.5573,-27.83757l-8.92782,-21.68552z" data-paper-data="{&quot;origPos&quot;:null}" fill="url(#color-1)" stroke="#000000" stroke-width="4" stroke-linecap="butt"/><path d="M187.20566,184.03156c-10.22967,-9.55439 -20.7915,-19.41902 -26.21224,-24.48193c-1.80692,-1.68764 -1.22575,-4.34387 0.95314,-4.35636c43.57973,-0.24974 106.06478,-0.60783 111.66762,-0.63993c1.86761,-0.0107 6.23164,1.08203 7.15722,1.79215c2.77675,2.13034 21.86379,16.774 35.85773,27.51022c2.51229,1.92745 1.43038,4.96577 -0.74088,4.97746c0,0 -103.78871,0.55829 -114.06065,0.61355c-3.42398,0.01842 -12.33951,-3.2834 -14.62193,-5.41515z" data-paper-data="{&quot;origPos&quot;:null}" fill="url(#color-2)" stroke="#000000" stroke-width="4" stroke-linecap="butt"/><path d="M170,155.8125l-3.10961,-17.44669l-6.99449,-2.39287l-0.07554,-10.02195l-7.82605,-2.99407c0,0 1.50587,-5.91432 0.37435,-6.95498c-4.48316,-4.1232 -31.86865,-21.18945 -31.86865,-21.18945l53.56973,2.50951l34.43027,9.49049l10.24192,-66.55156l41.26824,63.24697l33.26716,7.18115l34.72269,-9.87655l-50,55.5c0,0 -25.77357,3.25 -42.75,3.25c0,0 -13.60669,5.55241 -34.18172,1.62902c-6.85834,-1.30779 -31.06828,-5.37902 -31.06828,-5.37902z" fill="url(#color-3)" stroke="#000000" stroke-width="4" stroke-linecap="butt"/><path d="M211.3691,163.7106l0.13579,-36.76907l11.97517,7.47568l50.02351,-1.35697l-1.57969,40.14913c0,0 -46.47619,1.23474 -48.95739,1.30066c-0.82706,0.02197 -11.5974,-10.79943 -11.5974,-10.79943z" data-paper-data="{&quot;index&quot;:null}" fill="#cfa754" stroke="#000000" stroke-width="4" stroke-linecap="butt"/><path d="M206.06989,141.23791l0.98595,-12.16161l-20.05585,3.0198c0,0 13.42857,-5.17953 15.39626,-7.60469c2.06463,-2.54464 18.24452,-6.82195 18.24452,-6.82195l18.20062,-6.42062l25.55057,7.06365l28.98815,20.06844l-22.19093,2.1559l-12.07353,7.09561l-16.87045,-12.78221z" data-paper-data="{&quot;index&quot;:null}" fill="url(#color-4)" stroke="#000000" stroke-width="4" stroke-linecap="butt"/><path d="M243.48947,173.69755v-20.35451l11.05783,-0.45231v20.80683z" data-paper-data="{&quot;index&quot;:null}" fill="#cf951d" stroke="#000000" stroke-width="3" stroke-linecap="butt"/><path d="M227.86809,153.11688c0,-3.37244 2.12176,-6.10635 4.73908,-6.10635c2.61731,0 4.73907,2.7339 4.73907,6.10635c0,3.37244 -2.12175,6.10636 -4.73907,6.10636c-2.61731,0 -4.73908,-2.73391 -4.73908,-6.10636z" data-paper-data="{&quot;index&quot;:null}" fill="#e2feff" stroke="#000000" stroke-width="2" stroke-linecap="butt"/><path d="M258.93532,152.4384c0,-3.37244 2.12175,-6.10636 4.73908,-6.10636c2.61732,0 4.73907,2.73391 4.73907,6.10636c0,3.37244 -2.12175,6.10635 -4.73907,6.10635c-2.61732,0 -4.73908,-2.7339 -4.73908,-6.10635z" data-paper-data="{&quot;index&quot;:null}" fill="#e2feff" stroke="#000000" stroke-width="2" stroke-linecap="butt"/><path d="M170.75,314l-13,-157c0,0 49.94943,10.22612 56.83233,15.51857c6.7626,5.19996 14.61053,15.96356 14.61053,15.96356c0,0 30.62877,3.42876 40.19903,1.10133c7.92937,-1.92838 12.28266,-4.80451 21.24014,-7.92237c10.82898,-3.76928 4.61797,-16.66109 4.61797,-16.66109c0,0 37.61993,13.76358 31.95796,23.7594c-3.70885,6.54771 -3.30969,84.91267 -3.30969,84.91267c0,0 -5.21363,-19.21741 -6.16238,-1.53867c-1.6821,31.34399 -5.48589,65.86659 -5.48589,65.86659c0,0 -29.30614,-72.22756 -40.98639,-80.29586c-6.27326,-4.33334 -18.933,83.70874 -18.933,83.70874l-44.03006,-31.02445l-11.2458,49.25594l-12.42848,-109.80234z" fill="url(#color-5)" stroke="none" stroke-width="0" stroke-linecap="butt"/><path d="M213.65089,149.4983v-7.68949l4.73907,3.16625l-0.17552,7.91564z" data-paper-data="{&quot;index&quot;:null}" fill="#e2feff" stroke="#000000" stroke-width="1.5" stroke-linecap="butt"/><path d="M205,286.8125v-22h89v22z" data-paper-data="{&quot;origPos&quot;:null}" fill="url(#color-6)" stroke="#000000" stroke-width="0" stroke-linecap="butt"/><text transform="translate(238,282.8125) scale(0.5,0.5)" font-size="40" xml:space="preserve" fill="#ffffff" fill-rule="nonzero" stroke="none" stroke-width="1" stroke-linecap="butt" stroke-linejoin="miter" stroke-miterlimit="10" stroke-dasharray="" stroke-dashoffset="0" font-family="Sans Serif" font-weight="normal" text-anchor="start" style="mix-blend-mode: normal"><tspan x="0" dy="0">9</tspan></text><path d="M202.63153,47.70051c4.55514,-16.42393 21.82087,-25.73339 38.56411,-20.79321c16.74324,4.94018 26.62364,22.25926 22.0685,38.68322c-4.55514,16.42394 -21.82089,25.73339 -38.56413,20.79321c-16.74324,-4.94018 -26.62364,-22.25926 -22.0685,-38.68322z" data-paper-data="{&quot;index&quot;:null}" fill="url(#color-7)" stroke="#000000" stroke-width="5" stroke-linecap="butt"/><path d="M230.59236,45.81857c3.12431,0.92185 4.71799,5.0552 3.55955,9.23206c-1.15847,4.17683 -4.63034,6.81558 -7.75468,5.89373c-3.12431,-0.92185 -4.71799,-5.05521 -3.55955,-9.23207c1.15847,-4.17683 4.63034,-6.81558 7.75468,-5.89372z" data-paper-data="{&quot;index&quot;:null}" fill="#000000" stroke="none" stroke-width="0" stroke-linecap="butt"/><path d="M248.20976,47.41617c2.72378,0.80365 4.09055,4.48846 3.05279,8.23026c-1.03777,3.7418 -4.0871,6.1236 -6.8109,5.31994c-2.72378,-0.80365 -4.09055,-4.48846 -3.05278,-8.23025c1.03777,-3.7418 4.0871,-6.1236 6.8109,-5.31994z" data-paper-data="{&quot;index&quot;:null}" fill="#ff0000" stroke="none" stroke-width="0" stroke-linecap="butt"/><path d="M298.91611,37.33583c0,0 -9.0639,10.0313 -42.49909,7.2424c-15.30652,-1.27674 -49.72104,-2.5854 -49.72104,-2.5854l-42.10486,-18.36999c0,0 46.10162,-2.92802 79.53681,-0.13912c33.43519,2.7889 54.78818,13.85211 54.78818,13.85211z" fill="#3f3f3f" stroke="#000000" stroke-width="4" stroke-linecap="butt"/><path d="M217.96784,33.34333l3.03306,-24.33208c0,0 14.33827,-3.82138 20.84467,-3.27867c6.92122,0.57731 19.51517,6.64516 19.51517,6.64516l-1.53825,24.45678c0,0 -13.17389,0.90808 -21.59184,0.20593c-8.41795,-0.70215 -20.26281,-3.69711 -20.26281,-3.69711z" fill="#3f3f3f" stroke="#000000" stroke-width="4" stroke-linecap="butt"/><path d="M161.75,77v18.5" fill="none" stroke="#000000" stroke-width="4" stroke-linecap="round"/><path d="M134.25,88l-3.5,-18.5c0,0 6.78984,-4.77762 10.87655,-5.60773c2.91537,-0.59219 9.10792,5.18302 13.61502,5.10712c4.61328,-0.07769 7.50843,-5.99938 7.50843,-5.99938v18c0,0 -4.61012,3.53258 -8.26397,2.80867c-3.21746,-0.63746 -5.35653,-5.58609 -7.66491,-5.01912c-4.53758,1.11449 -12.57112,9.21045 -12.57112,9.21045z" fill="url(#color-8)" stroke="#000000" stroke-width="2" stroke-linecap="butt"/><path d="M152.83155,72.20616c0.58848,2.12181 -0.68797,4.35926 -2.85103,4.99748c-2.16306,0.63822 -4.39362,-0.56446 -4.9821,-2.68627c-0.58848,-2.12181 0.68797,-4.35926 2.85103,-4.99748c2.16306,-0.63822 4.39362,0.56446 4.98209,2.68627z" data-paper-data="{&quot;index&quot;:null}" fill="#ffffff" stroke="#000000" stroke-width="1" stroke-linecap="butt"/><path d="M151.45686,72.88419c0.05893,0.78049 -0.36814,1.45689 -0.95389,1.51077c-0.58575,0.05388 -1.10837,-0.53516 -1.16731,-1.31564c-0.05893,-0.78049 0.36814,-1.45689 0.95389,-1.51077c0.58575,-0.05388 1.10837,0.53516 1.16731,1.31564z" data-paper-data="{&quot;index&quot;:null}" fill="#000000" stroke="none" stroke-width="0" stroke-linecap="butt"/><path d="M148.91693,72.5916c0.05787,0.76648 -0.34901,1.42958 -0.90881,1.48107c-0.55981,0.0515 -1.06053,-0.52811 -1.1184,-1.29459c-0.05787,-0.76648 0.34901,-1.42958 0.90881,-1.48107c0.55981,-0.0515 1.06053,0.52811 1.1184,1.29459z" data-paper-data="{&quot;index&quot;:null}" fill="#000000" stroke="none" stroke-width="0" stroke-linecap="butt"/><g stroke="#000000" stroke-linecap="butt"><path d="M220.66965,278.1026c0,13.07506 -28.53395,13.07506 -28.53395,0c0,-8.08147 6.38755,-14.63281 14.26698,-14.63281c7.87943,0 14.26696,6.55132 14.26696,14.63281z" fill="url(#color-9)" stroke-width="2.5"/><path d="M193.37414,275.92865c2.71468,1.31356 6.99833,2.86229 12.10575,2.86229c6.42173,0 11.44806,-2.19277 14.31173,-3.83481c1.71396,-0.98279 3.48136,-0.11195 4.06342,1.05217c0.56809,1.13618 1.90842,3.59461 2.8,5.37778c0.59328,1.18656 0.07466,2.50408 -1.36488,3.13515c-3.96926,1.74005 -12.41082,5.009 -19.8103,5.009c-6.40982,0 -13.90038,-2.92195 -17.72572,-4.62701c-1.5759,-0.70242 -2.00933,-2.19529 -1.35968,-3.43979c0.74881,-1.43446 1.6693,-3.19779 2.16238,-4.14235c0.65191,-1.24883 2.81837,-2.35966 4.8173,-1.39243z" fill="url(#color-10)" stroke-width="3"/></g><g fill="#ffffff" stroke-linecap="butt" font-family="Handwriting" font-weight="normal" font-size="40" text-anchor="start"><text transform="translate(189,234.0625) scale(0.56501,0.56501)" font-size="40" xml:space="preserve" fill="#ffffff" fill-rule="nonzero" stroke="#000000" stroke-width="10" stroke-linecap="butt" stroke-linejoin="miter" stroke-miterlimit="10" stroke-dasharray="" stroke-dashoffset="0" font-family="Handwriting" font-weight="normal" text-anchor="start" style="mix-blend-mode: normal"><tspan x="0" dy="0">Pirate Seas</tspan></text><text transform="translate(189,234.0625) scale(0.56501,0.56501)" font-size="40" xml:space="preserve" fill="#ffffff" fill-rule="nonzero" stroke="#ffffff" stroke-width="1" stroke-linecap="butt" stroke-linejoin="miter" stroke-miterlimit="10" stroke-dasharray="" stroke-dashoffset="0" font-family="Handwriting" font-weight="normal" text-anchor="start" style="mix-blend-mode: normal"><tspan x="0" dy="0">Pirate Seas</tspan></text></g></g></g></svg>