<svg version="1.1" xmlns="http://www.w3.org/2000/svg" xmlns:xlink="http://www.w3.org/1999/xlink" width="79.17151" height="89.7432" viewBox="0,0,79.17151,89.7432"><defs><linearGradient x1="251.9032" y1="142.39049" x2="272.70049" y2="147.7776" gradientUnits="userSpaceOnUse" id="color-1"><stop offset="0" stop-color="#fff8ad"/><stop offset="1" stop-color="#c9c388"/></linearGradient><linearGradient x1="235.21972" y1="195.51745" x2="255.044" y2="195.51745" gradientUnits="userSpaceOnUse" id="color-2"><stop offset="0" stop-color="#2fe500"/><stop offset="1" stop-color="#51b800"/></linearGradient><linearGradient x1="245.59626" y1="146.64536" x2="276.88002" y2="168.56551" gradientUnits="userSpaceOnUse" id="color-3"><stop offset="0" stop-color="#fff8ad"/><stop offset="1" stop-color="#c9c388"/></linearGradient><linearGradient x1="237.2564" y1="131.27792" x2="257.89235" y2="136.62321" gradientUnits="userSpaceOnUse" id="color-4"><stop offset="0" stop-color="#fff8ad"/><stop offset="1" stop-color="#c9c388"/></linearGradient><linearGradient x1="223.08759" y1="119.5254" x2="262.18367" y2="143.45238" gradientUnits="userSpaceOnUse" id="color-5"><stop offset="0" stop-color="#fff8ad"/><stop offset="1" stop-color="#c9c388"/></linearGradient><linearGradient x1="207.42314" y1="130.96762" x2="242.08939" y2="139.94717" gradientUnits="userSpaceOnUse" id="color-6"><stop offset="0" stop-color="#fff8ad"/><stop offset="1" stop-color="#c9c388"/></linearGradient><linearGradient x1="243.43919" y1="128.29914" x2="240.73512" y2="151.13365" gradientUnits="userSpaceOnUse" id="color-7"><stop offset="0" stop-color="#00e0ff"/><stop offset="1" stop-color="#00bcc4"/></linearGradient><linearGradient x1="236.56551" y1="142.4207" x2="273.11449" y2="168.71299" gradientUnits="userSpaceOnUse" id="color-8"><stop offset="0" stop-color="#fff8ad"/><stop offset="1" stop-color="#c9c388"/></linearGradient><linearGradient x1="251.11617" y1="147.53227" x2="233.97087" y2="213.72306" gradientUnits="userSpaceOnUse" id="color-9"><stop offset="0" stop-color="#3dff00"/><stop offset="1" stop-color="#ebffd8"/></linearGradient><linearGradient x1="214.21746" y1="141.20888" x2="236.08025" y2="146.87197" gradientUnits="userSpaceOnUse" id="color-10"><stop offset="0" stop-color="#fff8ad"/><stop offset="1" stop-color="#c9c388"/></linearGradient><linearGradient x1="211.03874" y1="197.52546" x2="230.53491" y2="197.52546" gradientUnits="userSpaceOnUse" id="color-11"><stop offset="0" stop-color="#2fe500"/><stop offset="1" stop-color="#51b800"/></linearGradient><linearGradient x1="228.68678" y1="198.69311" x2="249.27753" y2="198.69311" gradientUnits="userSpaceOnUse" id="color-12"><stop offset="0" stop-color="#2fe500"/><stop offset="1" stop-color="#51b800"/></linearGradient><linearGradient x1="231.38451" y1="150.61442" x2="259.84464" y2="157.98641" gradientUnits="userSpaceOnUse" id="color-13"><stop offset="0" stop-color="#fff8ad"/><stop offset="1" stop-color="#c9c388"/></linearGradient><linearGradient x1="220.19159" y1="147.09256" x2="235.00444" y2="150.92951" gradientUnits="userSpaceOnUse" id="color-14"><stop offset="0" stop-color="#fff8ad"/><stop offset="1" stop-color="#c9c388"/></linearGradient></defs><g transform="translate(-204.05644,-115.05257)"><g data-paper-data="{&quot;isPaintingLayer&quot;:true}" fill-rule="nonzero" stroke-linejoin="miter" stroke-miterlimit="10" stroke-dasharray="" stroke-dashoffset="0" style="mix-blend-mode: normal"><path d="M231.26445,193.16737c0.39393,-3.58432 4.72194,-6.17169 9.66687,-5.77909c4.94493,0.3926 9.42647,4.17765 9.03253,7.76197c-0.39393,3.5843 -19.09333,1.60142 -18.6994,-1.98289z" data-paper-data="{&quot;origPos&quot;:null,&quot;origRot&quot;:0,&quot;index&quot;:null}" fill="#25b800" stroke="#000000" stroke-width="2" stroke-linecap="butt"/><path d="M233.48486,194.81008c0.39393,3.58432 -18.30546,5.56719 -18.6994,1.98289c-0.39393,-3.58432 4.0876,-7.36937 9.03253,-7.76197c4.94493,-0.3926 9.27293,2.19477 9.66686,5.77909z" data-paper-data="{&quot;origPos&quot;:null,&quot;origRot&quot;:0}" fill="#25b800" stroke="#000000" stroke-width="2" stroke-linecap="butt"/><path d="M264.91469,141.76448c0,0 -8.53355,2.61836 -8.84986,2.59825c-4.89165,-0.3112 -5.96817,-0.87867 0.02592,-10.15425c3.61315,-3.99563 10.15109,-7.63153 13.61436,-5.25107c4.95119,3.40313 1.92193,22.8513 1.80539,23.21335c-1.47644,4.58651 -0.68775,7.75858 -6.23714,11.64858c-3.65077,2.55911 -0.35868,-22.05484 -0.35868,-22.05484z" data-paper-data="{&quot;origPos&quot;:null,&quot;origRot&quot;:0,&quot;index&quot;:null}" fill="url(#color-1)" stroke="#666349" stroke-width="1.5" stroke-linecap="butt"/><path d="M235.22622,196.53993c0.41696,-3.77324 4.99788,-6.497 10.2318,-6.0837c5.23392,0.4133 9.97736,4.39786 9.5604,8.1711c-0.41696,3.77322 -20.20916,1.68583 -19.7922,-2.08741z" data-paper-data="{&quot;origPos&quot;:null,&quot;origRot&quot;:0,&quot;index&quot;:null}" fill="url(#color-2)" stroke="#000000" stroke-width="2" stroke-linecap="butt"/><path d="M273.18126,157.9344c-2.31376,-2.40815 -8.73713,-7.88574 -8.73713,-7.88574c-9.69773,1.93488 -19.2362,8.42828 -19.59538,8.85965c-5.55473,6.67104 -12.70631,4.31786 -5.10921,-3.40954c5.29682,-5.38768 8.27253,-9.09628 13.92681,-14.10748c2.32675,-2.06213 1.98224,-3.97564 5.03119,-4.58398c5.84126,-1.16546 25.48896,14.98393 23.66081,23.08812c-1.36384,6.04591 -6.12799,1.21249 -9.17712,-1.96101z" data-paper-data="{&quot;origPos&quot;:null,&quot;index&quot;:null,&quot;origRot&quot;:0}" fill="url(#color-3)" stroke="#666349" stroke-width="1.5" stroke-linecap="butt"/><path d="M235.9547,148.93458c-2.963,-6.09496 -0.73352,-8.48523 0.20239,-13.21176c0.07389,-0.37309 6.86734,-18.84624 12.84804,-19.41769c4.18344,-0.39973 7.46506,4.46009 9.10567,11.13621c0.73718,11.01917 -0.23214,11.05672 -4.65974,8.95395c-0.2863,-0.13596 -6.47556,-6.56795 -6.47556,-6.56795c0,0 -9.07155,23.11692 -11.02082,19.10724z" data-paper-data="{&quot;origPos&quot;:null,&quot;origRot&quot;:0}" fill="url(#color-4)" stroke="#666349" stroke-width="1.5" stroke-linecap="butt"/><path d="M218.85402,128.06876c1.22502,-9.34111 16.56469,-15.62267 25.19836,-10.33883c8.63367,5.28384 10.50026,12.83734 14.91862,22.60951c4.46444,9.87408 -3.05989,9.61528 -5.97184,1.43737c-0.18829,-0.5288 -6.90068,-9.91447 -15.33532,-15.0765c0,0 -7.91884,2.92499 -10.92139,4.38697c-3.95681,1.92662 -8.69436,3.1267 -7.88844,-3.0185z" data-paper-data="{&quot;origPos&quot;:null,&quot;origRot&quot;:0}" fill="url(#color-5)" stroke="#666349" stroke-width="1.5" stroke-linecap="butt"/><path d="M208.56899,149.19449c-6.33906,-6.96945 -2.91254,-9.04966 -2.19101,-13.83172c0.05697,-0.37747 8.34331,-18.46392 18.65963,-17.91233c7.21616,0.38584 10.38388,6.79968 17.33349,8.78079c3.40681,11.71068 0.0783,10.60929 -8.04534,7.54916c-0.52529,-0.19787 -0.83367,-5.6279 -10.22283,-2.52409c-8.33092,2.75397 -11.3637,22.52318 -15.53396,17.93821z" data-paper-data="{&quot;origPos&quot;:null,&quot;origRot&quot;:0}" fill="url(#color-6)" stroke="#666349" stroke-width="1.5" stroke-linecap="butt"/><path d="M259.54852,142.17008c-0.16961,5.57098 -9.64602,9.65279 -18.12354,8.64887c-8.4775,-1.0039 -19.90631,-6.55264 -19.25088,-12.08753c0.65543,-5.5349 10.77123,-11.1513 19.24871,-10.14739c8.4775,1.0039 18.30373,7.73735 18.12567,13.58604z" data-paper-data="{&quot;origPos&quot;:null,&quot;origRot&quot;:0}" fill="url(#color-7)" stroke="#244b00" stroke-width="1.5" stroke-linecap="butt"/><path d="M263.34033,166.23078c-1.05553,-3.16836 -4.5045,-10.87344 -4.5045,-10.87344c-9.58902,-2.41676 -20.99159,-0.6483 -21.50121,-0.41296c-7.88108,3.63952 -13.32934,-1.55656 -3.15014,-5.27308c7.09711,-2.59123 11.37698,-4.66277 18.63527,-6.76052c2.9868,-0.86324 3.49734,-2.73929 6.5121,-1.97947c5.77578,1.4557 16.58537,24.47716 11.45442,31.01114c-3.82781,4.87451 -6.05495,-1.53634 -7.44593,-5.71166z" data-paper-data="{&quot;origPos&quot;:null,&quot;index&quot;:null,&quot;origRot&quot;:0}" fill="url(#color-8)" stroke="#666349" stroke-width="1.5" stroke-linecap="butt"/><path d="M226.59949,191.75563c-0.76991,-3.71327 -14.60073,-55.96123 11.6074,-48.88683c24.88733,6.71789 -17.1259,-1.36186 9.94349,3.36741c17.71238,3.09454 -0.29032,34.90591 -9.10735,46.36736c-8.81702,11.46144 -11.67363,2.86534 -12.44353,-0.84794z" data-paper-data="{&quot;origPos&quot;:null,&quot;origRot&quot;:0}" fill="url(#color-9)" stroke="#244b00" stroke-width="1.5" stroke-linecap="butt"/><path d="M212.92407,158.83343c-2.963,-6.09496 -0.73352,-8.48523 0.20239,-13.21176c0.07389,-0.37309 6.86734,-18.84624 12.84804,-19.41769c4.18344,-0.39973 8.00591,6.44763 11.86199,7.62743c0.73718,11.01917 -2.98848,14.56549 -7.41606,12.46273c-0.2863,-0.13596 -6.47556,-6.56795 -6.47556,-6.56795c0,0 -9.07155,23.11692 -11.02082,19.10724z" data-paper-data="{&quot;origPos&quot;:null,&quot;origRot&quot;:0}" fill="url(#color-10)" stroke="#666349" stroke-width="1.5" stroke-linecap="butt"/><path d="M237.83562,172.94026c-0.43989,2.61576 -1.88678,4.65943 -3.23165,4.56458c-1.34488,-0.09479 -2.07849,-2.29219 -1.63857,-4.90794c0.43989,-2.61576 1.88678,-4.65943 3.23165,-4.56458c1.34488,0.09479 2.07848,2.2922 1.63855,4.90794z" data-paper-data="{&quot;origPos&quot;:null,&quot;origRot&quot;:0}" fill="#000000" stroke="none" stroke-width="0" stroke-linecap="butt"/><path d="M244.02256,172.38542c-0.35222,1.96749 -1.45753,3.49296 -2.46884,3.40719c-1.01132,-0.08575 -1.54563,-1.75021 -1.19345,-3.71776c0.35222,-1.96749 1.45752,-3.49297 2.46884,-3.40719c1.01132,0.08575 1.54567,1.75024 1.19349,3.71774z" data-paper-data="{&quot;origPos&quot;:null,&quot;origRot&quot;:0}" fill="#000000" stroke="none" stroke-width="0" stroke-linecap="butt"/><path d="M236.27404,171.83464c-0.19957,1.18662 -0.85591,2.11368 -1.46602,2.07069c-0.61009,-0.04301 -0.94287,-1.03985 -0.74331,-2.22644c0.19957,-1.18662 0.85591,-2.11368 1.46602,-2.07069c0.61009,0.04301 0.94287,1.03985 0.74331,2.22643z" data-paper-data="{&quot;origPos&quot;:null,&quot;origRot&quot;:0}" fill="#ffffff" stroke="none" stroke-width="0" stroke-linecap="butt"/><path d="M242.74234,171.12738c-0.1201,0.67097 -0.49704,1.19121 -0.84193,1.16195c-0.34486,-0.02923 -0.52709,-0.59684 -0.40701,-1.26783c0.1201,-0.67097 0.49704,-1.19121 0.84193,-1.16195c0.34486,0.02923 0.5271,0.59685 0.407,1.26783z" data-paper-data="{&quot;origPos&quot;:null,&quot;origRot&quot;:0}" fill="#ffffff" stroke="none" stroke-width="0" stroke-linecap="butt"/><path d="M237.50329,185.90856c0,0 -2.53111,-0.04807 -3.2309,-1.02294c-0.66256,-0.92301 -1.56964,-2.85976 -1.56964,-2.85976" data-paper-data="{&quot;origPos&quot;:null,&quot;origRot&quot;:0}" fill="none" stroke="#244b00" stroke-width="1" stroke-linecap="round"/><path d="M230.52852,198.49673c0.41006,3.58431 -19.05457,5.56719 -19.46463,1.98289c-0.41006,-3.58431 4.25488,-7.36937 9.40217,-7.76197c5.14729,-0.3926 9.6524,2.19478 10.06246,5.77909z" data-paper-data="{&quot;origPos&quot;:null,&quot;origRot&quot;:0}" fill="url(#color-11)" stroke="#000000" stroke-width="2" stroke-linecap="butt"/><path d="M228.69353,199.71559c0.43308,-3.77324 5.19112,-6.49699 10.62739,-6.0837c5.43628,0.4133 10.36312,4.39786 9.93004,8.17109c-0.43308,3.77322 -20.99051,1.68583 -20.55743,-2.08741z" data-paper-data="{&quot;origPos&quot;:null,&quot;origRot&quot;:0,&quot;index&quot;:null}" fill="url(#color-12)" stroke="#000000" stroke-width="2" stroke-linecap="butt"/><path d="M244.45573,156.72734c-1.39351,-1.51207 -3.79965,-10.40071 -3.79965,-10.40071l1.51542,5.05935c0,0 -4.8823,3.02763 -7.87845,2.58505c-8.58769,-1.26858 4.08219,-14.51081 7.42145,-14.96995c6.90418,-0.9493 9.78995,7.55712 12.26325,14.0726c2.57967,6.79575 4.69946,11.9977 2.15817,18.80791c0,0 -8.83893,-7.92282 -11.68021,-15.15424z" data-paper-data="{&quot;origPos&quot;:null,&quot;origRot&quot;:0,&quot;index&quot;:null}" fill="url(#color-13)" stroke="#666349" stroke-width="1.5" stroke-linecap="butt"/><path d="M220.5575,165.24327c-2.963,-6.09496 -2.4648,-8.93368 -1.52889,-13.66021c0.07389,-0.37309 3.08444,-18.50652 9.06514,-19.07796c4.18344,-0.39973 8.16977,1.7395 8.03289,6.10775c0.73718,11.01917 -1.37638,14.45522 -5.80397,12.35247c-0.2863,-0.13596 1.43891,-4.51789 1.43891,-4.51789c0,0 -9.25481,22.80551 -11.20408,18.79584z" data-paper-data="{&quot;origPos&quot;:null,&quot;origRot&quot;:0}" fill="url(#color-14)" stroke="#666349" stroke-width="1.5" stroke-linecap="butt"/></g></g></svg>