<svg version="1.1" xmlns="http://www.w3.org/2000/svg" xmlns:xlink="http://www.w3.org/1999/xlink" width="66.35637" height="48.02222" viewBox="0,0,66.35637,48.02222"><defs><linearGradient x1="211.03506" y1="183.0885" x2="233.36977" y2="184.18956" gradientUnits="userSpaceOnUse" id="color-1"><stop offset="0" stop-color="#cfff65"/><stop offset="1" stop-color="#5eff00"/></linearGradient><linearGradient x1="238.70708" y1="166.39437" x2="238.70708" y2="198.62305" gradientUnits="userSpaceOnUse" id="color-2"><stop offset="0" stop-color="#cfff65"/><stop offset="1" stop-color="#5eff00"/></linearGradient><linearGradient x1="224.28229" y1="187.5998" x2="251.62536" y2="187.5998" gradientUnits="userSpaceOnUse" id="color-3"><stop offset="0" stop-color="#7c35ff"/><stop offset="1" stop-color="#c066ff"/></linearGradient><linearGradient x1="233.96301" y1="173.51377" x2="240.9458" y2="175.81834" gradientUnits="userSpaceOnUse" id="color-4"><stop offset="0" stop-color="#492181"/><stop offset="1" stop-color="#6b2283"/></linearGradient><linearGradient x1="241.76443" y1="176.4733" x2="246.90819" y2="173.98857" gradientUnits="userSpaceOnUse" id="color-5"><stop offset="0" stop-color="#492181"/><stop offset="1" stop-color="#6b2283"/></linearGradient><linearGradient x1="235.94445" y1="159.43047" x2="235.94445" y2="198.42596" gradientUnits="userSpaceOnUse" id="color-6"><stop offset="0" stop-color="#000000"/><stop offset="1" stop-color="#000000" stop-opacity="0"/></linearGradient><linearGradient x1="234.9881" y1="199.76795" x2="205.40691" y2="190.15255" gradientUnits="userSpaceOnUse" id="color-7"><stop offset="0" stop-color="#cfff65"/><stop offset="1" stop-color="#5eff00"/></linearGradient></defs><g transform="translate(-199.78695,-154.50691)"><g data-paper-data="{&quot;isPaintingLayer&quot;:true}" fill-rule="nonzero" stroke-linecap="butt" stroke-linejoin="miter" stroke-miterlimit="10" stroke-dasharray="" stroke-dashoffset="0" style="mix-blend-mode: normal"><path d="M232.84069,192.50927l-21.27656,-17.74048c0,0 16.97116,-3.3711 22.33471,1.10106c5.36355,4.47215 -1.05816,16.63942 -1.05816,16.63942z" data-paper-data="{&quot;index&quot;:null}" fill="url(#color-1)" stroke="#000000" stroke-width="2"/><path d="M228.89445,195.12836c0,-4.95314 0.22051,-28.73399 0.22051,-28.73399h19.18425c0,0 0,23.78084 0,28.73399c0,1.72738 -1.17729,3.49468 -2.64611,3.49468c-4.20809,0 -12.39843,0 -14.55356,0c-0.98758,0 -2.20508,-1.7673 -2.20508,-3.49468z" fill="url(#color-2)" stroke="#000000" stroke-width="2"/><path d="M265.46351,168.82445c0,0 -4.11801,3.47131 -18.09523,1.54088c-6.39873,-0.88374 -12.99707,-0.18274 -20.83299,-2.2923c-7.83592,-2.10956 -17.14842,-7.93294 -17.14842,-7.93294c0,0 19.47883,0.15348 33.45605,2.0839c13.97722,1.93041 22.62057,6.60048 22.62057,6.60048z" data-paper-data="{&quot;index&quot;:null}" fill="#3f3f3f" stroke="#000000" stroke-width="2"/><path d="M231.5398,165.17269l2.01763,-8.92888c0,0 6.14696,-1.03013 8.86689,-0.65448c2.89335,0.39961 8.00511,2.98468 8.00511,2.98468l-1.39273,9.01517c0,0 -5.56839,-0.01742 -9.08743,-0.50344c-3.51904,-0.48601 -8.40946,-1.91308 -8.40946,-1.91308z" data-paper-data="{&quot;index&quot;:null}" fill="#3f3f3f" stroke="#000000" stroke-width="2"/><path d="M225.38484,181.48412c0,0 11.64416,1.39455 15.84628,0.91278c6.95589,-0.79749 10.39424,-4.40746 10.39424,-4.40746c0,0 -0.46528,9.77121 -1.46843,13.69275c-0.77477,3.02873 -4.04429,7.85774 -4.04429,7.85774c0,0 -10.32857,-2.82775 -13.49912,-5.58959c-3.66641,-3.19378 -7.22868,-12.46622 -7.22868,-12.46622z" data-paper-data="{&quot;index&quot;:null}" fill="url(#color-3)" stroke="#000000" stroke-width="2"/><path d="M234.83406,177.26124c0.14085,-1.69444 1.45054,-2.93685 2.92526,-2.77503c1.47474,0.16183 2.55606,1.66665 2.41522,3.36107c-0.14085,1.69444 -1.45054,2.93685 -2.92526,2.77503c-1.47474,-0.16183 -2.55606,-1.66665 -2.41521,-3.36107z" fill="#ffffff" stroke="#000000" stroke-width="0.6"/><path d="M237.97579,177.32725c0.03784,-0.34883 0.38969,-0.60461 0.78588,-0.57128c0.39619,0.03331 0.68669,0.34311 0.64885,0.69193c-0.03784,0.34883 -0.38969,0.6046 -0.78588,0.57128c-0.39619,-0.03331 -0.68669,-0.3431 -0.64885,-0.69193z" fill="#000000" stroke="none" stroke-width="0.5"/><path d="M233.62322,174.31188l0.92321,-1.40284l1.04662,-0.29215l3.20591,1.26728l0.29873,-0.64115l0.8853,1.11145l1.35295,0.5475l-1.09256,2.34403l-3.90712,-1.13361z" fill="url(#color-4)" stroke="#000000" stroke-width="0.6"/><path d="M242.30346,177.32597c0.11081,-1.33312 1.14122,-2.3106 2.30148,-2.18328c1.16027,0.12732 2.011,1.31125 1.90019,2.64435c-0.11081,1.33312 -1.14122,2.3106 -2.30148,2.18329c-1.16027,-0.12732 -2.011,-1.31125 -1.90019,-2.64436z" fill="#ffffff" stroke="#000000" stroke-width="0.5"/><path d="M243.82163,177.07259c0.02976,-0.27443 0.30659,-0.47567 0.61829,-0.44947c0.3117,0.0262 0.54026,0.26994 0.51049,0.54438c-0.02976,0.27443 -0.30659,0.47568 -0.61829,0.44947c-0.3117,-0.0262 -0.54026,-0.26995 -0.51049,-0.54438z" fill="#000000" stroke="none" stroke-width="0.5"/><path d="M242.13078,177.06122l-0.47669,-1.20457l0.33905,-0.69952l2.50331,-1.03345l-0.28109,-0.48582l1.20715,0.1053l1.06503,-0.42963l1.02742,1.77637l-2.7725,1.47027z" fill="url(#color-5)" stroke="#000000" stroke-width="0.5"/><path d="M201.7719,193.99263l5.35334,-34.56214c0,0 13.06057,8.17117 21.32473,8.98359c5.80627,0.57079 23.73609,3.96189 32.44351,2.7129c5.97188,-0.85662 4.45009,-2.50867 4.45009,-2.50867l-17.55334,31.2164z" fill="url(#color-6)" stroke="#000000" stroke-width="0"/><path d="M210.02729,179.13351c9.78652,-3.1316 29.58119,9.6154 29.58119,9.6154l-38.82195,12.42268c0,0 -0.54576,-18.90648 9.24076,-22.03808z" fill="url(#color-7)" stroke="#000000" stroke-width="2"/></g></g></svg>