<svg version="1.1" xmlns="http://www.w3.org/2000/svg" xmlns:xlink="http://www.w3.org/1999/xlink" width="91.1125" height="87.86462" viewBox="0,0,91.1125,87.86462"><defs><linearGradient x1="226.15773" y1="135.6418" x2="247.63702" y2="135.20807" gradientUnits="userSpaceOnUse" id="color-1"><stop offset="0" stop-color="#fff8ad"/><stop offset="1" stop-color="#c9c388"/></linearGradient><linearGradient x1="235.05666" y1="196.35695" x2="254.69608" y2="193.656" gradientUnits="userSpaceOnUse" id="color-2"><stop offset="0" stop-color="#2fe500"/><stop offset="1" stop-color="#51b800"/></linearGradient><linearGradient x1="234.24925" y1="139.94166" x2="272.4405" y2="139.17046" gradientUnits="userSpaceOnUse" id="color-3"><stop offset="0" stop-color="#fff8ad"/><stop offset="1" stop-color="#c9c388"/></linearGradient><linearGradient x1="227.9651" y1="144.41898" x2="272.97938" y2="143.51001" gradientUnits="userSpaceOnUse" id="color-4"><stop offset="0" stop-color="#fff8ad"/><stop offset="1" stop-color="#c9c388"/></linearGradient><linearGradient x1="205.52586" y1="137.41857" x2="226.83851" y2="136.9882" gradientUnits="userSpaceOnUse" id="color-5"><stop offset="0" stop-color="#fff8ad"/><stop offset="1" stop-color="#c9c388"/></linearGradient><linearGradient x1="183.33945" y1="139.9747" x2="229.16682" y2="139.04931" gradientUnits="userSpaceOnUse" id="color-6"><stop offset="0" stop-color="#fff8ad"/><stop offset="1" stop-color="#c9c388"/></linearGradient><linearGradient x1="190.18217" y1="151.29795" x2="225.98523" y2="150.57498" gradientUnits="userSpaceOnUse" id="color-7"><stop offset="0" stop-color="#fff8ad"/><stop offset="1" stop-color="#c9c388"/></linearGradient><linearGradient x1="239.22113" y1="145.57272" x2="240.60155" y2="213.93407" gradientUnits="userSpaceOnUse" id="color-8"><stop offset="0" stop-color="#3dff00"/><stop offset="1" stop-color="#ebffd8"/></linearGradient><linearGradient x1="226.63213" y1="129.12988" x2="230.1996" y2="151.84551" gradientUnits="userSpaceOnUse" id="color-9"><stop offset="0" stop-color="#00e0ff"/><stop offset="1" stop-color="#00bcc4"/></linearGradient><linearGradient x1="206.00989" y1="155.95077" x2="228.5896" y2="155.49482" gradientUnits="userSpaceOnUse" id="color-10"><stop offset="0" stop-color="#fff8ad"/><stop offset="1" stop-color="#c9c388"/></linearGradient><linearGradient x1="232.27935" y1="151.45992" x2="261.67277" y2="150.86638" gradientUnits="userSpaceOnUse" id="color-11"><stop offset="0" stop-color="#fff8ad"/><stop offset="1" stop-color="#c9c388"/></linearGradient><linearGradient x1="220.54224" y1="157.243" x2="235.84085" y2="156.93408" gradientUnits="userSpaceOnUse" id="color-12"><stop offset="0" stop-color="#fff8ad"/><stop offset="1" stop-color="#c9c388"/></linearGradient><linearGradient x1="211.03874" y1="197.52546" x2="230.53491" y2="197.52546" gradientUnits="userSpaceOnUse" id="color-13"><stop offset="0" stop-color="#2fe500"/><stop offset="1" stop-color="#51b800"/></linearGradient><linearGradient x1="228.68678" y1="198.69311" x2="249.27753" y2="198.69311" gradientUnits="userSpaceOnUse" id="color-14"><stop offset="0" stop-color="#2fe500"/><stop offset="1" stop-color="#51b800"/></linearGradient></defs><g transform="translate(-182.69427,-116.93116)"><g data-paper-data="{&quot;isPaintingLayer&quot;:true}" fill-rule="nonzero" stroke-linejoin="miter" stroke-miterlimit="10" stroke-dasharray="" stroke-dashoffset="0" style="mix-blend-mode: normal"><path d="M231.26445,193.16737c0.39393,-3.58432 4.72194,-6.17169 9.66687,-5.77909c4.94493,0.3926 9.42647,4.17765 9.03253,7.76197c-0.39393,3.5843 -19.09333,1.60142 -18.6994,-1.98289z" data-paper-data="{&quot;origPos&quot;:null,&quot;origRot&quot;:0,&quot;index&quot;:null}" fill="#25b800" stroke="#000000" stroke-width="2" stroke-linecap="butt"/><path d="M233.48486,194.81008c0.39393,3.58432 -18.30546,5.56719 -18.6994,1.98289c-0.39393,-3.58432 4.0876,-7.36937 9.03253,-7.76197c4.94493,-0.3926 9.27293,2.19477 9.66686,5.77909z" data-paper-data="{&quot;origPos&quot;:null,&quot;origRot&quot;:0}" fill="#25b800" stroke="#000000" stroke-width="2" stroke-linecap="butt"/><path d="M238.51591,131.52277c0,0 -7.50843,4.82709 -7.81841,4.8932c-4.79374,1.02233 -5.98357,0.7669 -2.71919,-9.78343c2.3989,-4.8234 7.71098,-10.09085 11.68871,-8.73491c5.68663,1.93847 8.02588,21.48164 8.01152,21.86171c-0.18201,4.81486 1.43456,7.65575 -2.85709,12.90072c-2.82334,3.45049 -6.30554,-21.13729 -6.30554,-21.13729z" data-paper-data="{&quot;origPos&quot;:null,&quot;origRot&quot;:0,&quot;index&quot;:null}" fill="url(#color-1)" stroke="#666349" stroke-width="1.5" stroke-linecap="butt"/><path d="M235.2024,197.36901c-0.10101,-3.79486 4.06609,-7.11735 9.30752,-7.421c5.24142,-0.30365 10.48351,2.99749 10.58452,6.79235c0.10101,3.79484 -19.79103,4.4235 -19.89204,0.62863z" data-paper-data="{&quot;origPos&quot;:null,&quot;origRot&quot;:0,&quot;index&quot;:null}" fill="url(#color-2)" stroke="#000000" stroke-width="2" stroke-linecap="butt"/><path d="M263.17971,132.77209c-3.28913,-0.57819 -11.70736,-1.20834 -11.70736,-1.20834c-6.68608,7.28603 -10.55291,18.15774 -10.58822,18.71796c-0.54622,8.66368 -7.70808,10.98543 -6.13673,0.26351c1.09557,-7.4755 1.30857,-12.22557 2.9149,-19.60818c0.66101,-3.03796 -0.74655,-4.37924 1.35553,-6.66996c4.02724,-4.38862 29.41945,-2.94978 32.72729,4.67112c2.46773,5.68537 -4.23094,4.59584 -8.56541,3.8339z" data-paper-data="{&quot;origPos&quot;:null,&quot;index&quot;:null,&quot;origRot&quot;:0}" fill="url(#color-3)" stroke="#666349" stroke-width="1.5" stroke-linecap="butt"/><path d="M263.67189,147.39152c-2.74601,-1.90056 -10.12946,-5.99303 -10.12946,-5.99303c-9.12012,3.82271 -17.17865,12.08143 -17.44499,12.57556c-4.11888,7.6415 -11.59539,6.75581 -5.68466,-2.32669c4.12105,-6.33248 6.30077,-10.55828 10.84696,-16.59281c1.87076,-2.48322 1.15301,-4.29018 4.02036,-5.49203c5.49335,-2.30254 27.95746,9.62217 27.77558,17.92799c-0.13569,6.19634 -5.76505,2.40561 -9.38378,-0.09898z" data-paper-data="{&quot;origPos&quot;:null,&quot;index&quot;:null,&quot;origRot&quot;:0}" fill="url(#color-4)" stroke="#666349" stroke-width="1.5" stroke-linecap="butt"/><path d="M209.04421,154.77002c-4.49989,-5.06744 -2.99932,-7.97127 -3.37556,-12.77487c-0.02969,-0.37917 1.51869,-20.00087 7.12244,-22.16731c3.91975,-1.51541 8.39262,2.27674 11.77637,8.26108c3.68763,10.40994 2.76452,10.70805 -2.06658,9.88007c-0.31239,-0.05353 -8.00957,-4.57358 -8.00957,-4.57358c0,0 -2.48676,24.70831 -5.4471,21.37461z" data-paper-data="{&quot;origPos&quot;:null,&quot;origRot&quot;:0}" fill="url(#color-5)" stroke="#666349" stroke-width="1.5" stroke-linecap="butt"/><path d="M184.37968,149.45256c-4.00421,-8.5278 5.52882,-22.08821 15.64897,-22.29257c10.12015,-0.20436 15.76447,5.15111 24.7541,10.9995c9.08339,5.90938 2.60664,9.74792 -4.25475,4.43012c-0.44367,-0.34386 -11.15702,-4.62999 -21.04387,-4.43034c0,0 -5.09256,6.73271 -6.83323,9.58276c-2.29387,3.75585 -5.63698,7.32069 -8.27122,1.71053z" data-paper-data="{&quot;origPos&quot;:null,&quot;origRot&quot;:0}" fill="url(#color-6)" stroke="#666349" stroke-width="1.5" stroke-linecap="butt"/><path d="M196.21111,168.53695c-7.98665,-4.99703 -5.2498,-7.92583 -5.84744,-12.72495c-0.04717,-0.37881 3.04307,-20.03165 13.12461,-22.28851c7.05193,-1.57866 11.83511,3.74047 19.06151,3.76977c6.4448,10.35427 2.94249,10.19337 -5.70585,9.44248c-0.55922,-0.04855 -2.32357,-5.1932 -10.52457,0.3325c-7.27669,4.9029 -4.85408,24.75611 -10.10824,21.46873z" data-paper-data="{&quot;origPos&quot;:null,&quot;origRot&quot;:0}" fill="url(#color-7)" stroke="#666349" stroke-width="1.5" stroke-linecap="butt"/><path d="M227.56784,194.7761c-1.74475,-3.36704 -29.18073,-49.93322 -2.03595,-50.20467c25.77679,-0.25777 -16.85671,3.31699 10.48353,0.55493c17.88962,-1.80731 9.15365,33.68557 3.7621,47.10331c-5.39155,13.41773 -10.46493,5.91347 -12.20968,2.54643z" data-paper-data="{&quot;origPos&quot;:null,&quot;origRot&quot;:0}" fill="url(#color-8)" stroke="#244b00" stroke-width="1.5" stroke-linecap="butt"/><path d="M245.89063,138.13123c1.34225,5.40953 -6.67849,11.90042 -15.11186,13.22487c-8.43336,1.32445 -20.93645,-0.92924 -21.80118,-6.43531c-0.86473,-5.50607 7.35686,-13.64725 15.79022,-14.9717c8.43336,-1.32445 19.71366,2.50295 21.12281,8.18215z" data-paper-data="{&quot;origPos&quot;:null,&quot;origRot&quot;:0}" fill="url(#color-9)" stroke="#244b00" stroke-width="1.5" stroke-linecap="butt"/><path d="M209.52757,173.26907c-4.49989,-5.06744 -2.99932,-7.97127 -3.37556,-12.77487c-0.02969,-0.37917 1.51869,-20.00087 7.12244,-22.16731c3.91975,-1.51541 9.45047,4.04417 13.48191,4.13798c3.68763,10.40994 1.05898,14.83115 -3.77212,14.00317c-0.31239,-0.05353 -8.00957,-4.57358 -8.00957,-4.57358c0,0 -2.48676,24.70831 -5.4471,21.37461z" data-paper-data="{&quot;origPos&quot;:null,&quot;origRot&quot;:0}" fill="url(#color-10)" stroke="#666349" stroke-width="1.5" stroke-linecap="butt"/><path d="M246.51618,153.81294c-1.75028,-1.07921 -6.46901,-8.98688 -6.46901,-8.98688l2.8263,4.46156c0,0 -3.88243,4.23439 -6.8867,4.61798c-8.61098,1.09941 0.00881,-15.07408 3.09975,-16.41856c6.39074,-2.7798 11.46797,4.63023 15.61001,10.2349c4.32021,5.84574 7.76692,10.28128 7.16062,17.52486c0,0 -10.65115,-5.23934 -15.34096,-11.43384z" data-paper-data="{&quot;origPos&quot;:null,&quot;origRot&quot;:0,&quot;index&quot;:null}" fill="url(#color-11)" stroke="#666349" stroke-width="1.5" stroke-linecap="butt"/><path d="M225.79968,174.61946c-4.49989,-5.06744 -4.78738,-7.93517 -5.16361,-12.73876c-0.02969,-0.37917 -2.03164,-18.65147 3.57211,-20.81791c3.91975,-1.51541 8.33587,-0.53307 9.38459,3.70963c3.68763,10.40994 2.58129,14.28933 -2.24981,13.46134c-0.31239,-0.05353 0.16443,-4.73864 0.16443,-4.73864c0,0 -2.74736,24.45802 -5.7077,21.12433z" data-paper-data="{&quot;origPos&quot;:null,&quot;origRot&quot;:0}" fill="url(#color-12)" stroke="#666349" stroke-width="1.5" stroke-linecap="butt"/><path d="M233.30113,173.6243c0.28337,2.63731 -0.55738,4.99595 -1.87785,5.26808c-1.32045,0.27219 -2.62061,-1.6452 -2.90395,-4.28251c-0.28337,-2.63731 0.55738,-4.99595 1.87785,-5.26808c1.32045,-0.27219 2.6206,1.64521 2.90393,4.28252z" data-paper-data="{&quot;origPos&quot;:null,&quot;origRot&quot;:0}" fill="#000000" stroke="none" stroke-width="0" stroke-linecap="butt"/><path d="M239.10792,171.41812c0.19259,1.98947 -0.45935,3.75689 -1.4562,3.94762c-0.99687,0.19074 -1.96111,-1.2674 -2.15375,-3.25689c-0.19259,-1.98947 0.45934,-3.7569 1.4562,-3.94762c0.99687,-0.19074 1.96116,1.2674 2.15377,3.25687z" data-paper-data="{&quot;origPos&quot;:null,&quot;origRot&quot;:0}" fill="#000000" stroke="none" stroke-width="0" stroke-linecap="butt"/><path d="M231.49886,172.98183c0.12853,1.1964 -0.25286,2.26634 -0.85188,2.38984c-0.59901,0.12346 -1.1888,-0.74634 -1.31733,-1.94272c-0.12853,-1.1964 0.25286,-2.26634 0.85188,-2.38984c0.59901,-0.12346 1.1888,0.74634 1.31733,1.94271z" data-paper-data="{&quot;origPos&quot;:null,&quot;origRot&quot;:0}" fill="#ffffff" stroke="none" stroke-width="0" stroke-linecap="butt"/><path d="M237.53534,170.55285c0.06569,0.67846 -0.15664,1.2812 -0.49659,1.34625c-0.33993,0.06505 -0.66877,-0.4322 -0.73448,-1.11067c-0.06569,-0.67846 0.15664,-1.2812 0.49659,-1.34625c0.33993,-0.06505 0.66878,0.43221 0.73447,1.11067z" data-paper-data="{&quot;origPos&quot;:null,&quot;origRot&quot;:0}" fill="#ffffff" stroke="none" stroke-width="0" stroke-linecap="butt"/><path d="M236.44499,186.37604c0,0 -2.4623,0.58814 -3.38419,-0.1801c-0.87285,-0.72738 -2.23658,-2.3748 -2.23658,-2.3748" data-paper-data="{&quot;origPos&quot;:null}" fill="none" stroke="#244b00" stroke-width="1" stroke-linecap="round"/><path d="M230.52852,198.49673c0.41006,3.58431 -19.05457,5.56719 -19.46463,1.98289c-0.41006,-3.58431 4.25488,-7.36937 9.40217,-7.76197c5.14729,-0.3926 9.6524,2.19478 10.06246,5.77909z" data-paper-data="{&quot;origPos&quot;:null,&quot;origRot&quot;:0}" fill="url(#color-13)" stroke="#000000" stroke-width="2" stroke-linecap="butt"/><path d="M228.69353,199.71559c0.43308,-3.77324 5.19112,-6.49699 10.62739,-6.0837c5.43628,0.4133 10.36312,4.39786 9.93004,8.17109c-0.43308,3.77322 -20.99051,1.68583 -20.55743,-2.08741z" data-paper-data="{&quot;origPos&quot;:null,&quot;origRot&quot;:0,&quot;index&quot;:null}" fill="url(#color-14)" stroke="#000000" stroke-width="2" stroke-linecap="butt"/></g></g></svg>