<svg version="1.1" xmlns="http://www.w3.org/2000/svg" xmlns:xlink="http://www.w3.org/1999/xlink" width="17.27778" height="17.27778" viewBox="0,0,17.27778,17.27778"><defs><linearGradient x1="240" y1="172.11111" x2="240" y2="187.88889" gradientUnits="userSpaceOnUse" id="color-1"><stop offset="0" stop-color="#b0b0b0"/><stop offset="1" stop-color="#ffffff"/></linearGradient></defs><g transform="translate(-231.36111,-171.36111)"><g data-paper-data="{&quot;isPaintingLayer&quot;:true}" fill-rule="nonzero" stroke-linecap="butt" stroke-linejoin="miter" stroke-miterlimit="10" stroke-dasharray="" stroke-dashoffset="0" style="mix-blend-mode: normal"><path d="M232.11111,185.29514c0,-3.00235 0,-8.44296 0,-10.33333c0,-1.52701 0.54258,-2.85069 2.3289,-2.85069c1.81309,0 7.76492,0 11.11111,0c1.39546,0 2.33777,1.34843 2.33777,2.51736c0,1.81324 0,7.23276 0,10.55556c0,1.59355 -1.04135,2.70486 -2.55999,2.70486c-3.43993,0 -9.32877,0 -11.11111,0c-1.00854,0 -2.10668,-1.06817 -2.10668,-2.59375z" fill="url(#color-1)" stroke="#000000" stroke-width="1.5"/><g fill="#313131" stroke="#343434"><path d="M237.87655,187.29573c-0.74929,0.04198 -1.21273,-0.2731 -1.21273,-0.2731c0,0 0.57102,-0.68371 1.3203,-0.72568c0.74929,-0.04198 1.39308,0.81415 1.39308,0.81415c0,0 -0.75137,0.14265 -1.50066,0.18463z" data-paper-data="{&quot;origRot&quot;:0,&quot;index&quot;:null}" stroke-width="0.5"/><path d="M236.36414,187.02214c0,0 0.03663,-1.12133 0.15734,-1.80972c0.0953,-0.54346 0.39618,-1.34677 0.39618,-1.34677l0.69857,0.1225c0,0 -0.37602,0.62349 -0.45735,1.08726c-0.1347,0.7681 -0.09618,1.949 -0.09618,1.949z" data-paper-data="{&quot;index&quot;:null}" stroke-width="1.5"/><path d="M235.16974,178.64707c0.5257,0.37819 0.80504,0.88885 0.62393,1.14059c-0.18111,0.25173 -0.75408,0.14923 -1.27978,-0.22896c-0.5257,-0.37819 -0.62393,-1.14059 -0.62393,-1.14059c0,0 0.75408,-0.14923 1.27978,0.22896z" data-paper-data="{&quot;origRot&quot;:0,&quot;index&quot;:null}" stroke-width="1.5"/><path d="M240.65603,182.06878c-0.23907,1.36327 -1.70873,2.24469 -3.28258,1.96869c-1.57384,-0.276 -2.65591,-1.60488 -2.41684,-2.96815c0.23907,-1.36327 1.70873,-2.24469 3.28258,-1.96869c1.57384,0.276 2.65591,1.60488 2.41684,2.96815z" data-paper-data="{&quot;index&quot;:null}" stroke-width="1.5"/><path d="M241.85519,183.13275c-0.24209,0.86689 -0.91722,1.43803 -1.50794,1.27565c-0.59072,-0.16238 -0.87335,-0.99677 -0.63126,-1.86367c0.24209,-0.86689 0.91722,-1.43803 1.50794,-1.27565c0.59072,0.16238 0.87335,0.99677 0.63126,1.86367z" data-paper-data="{&quot;origRot&quot;:0,&quot;index&quot;:null}" stroke-width="1.5"/><path d="M240.63456,182.77626c-0.11218,0.42906 -0.37512,0.73254 -0.5873,0.67783c-0.21218,-0.05471 -0.29324,-0.44687 -0.18106,-0.87593c0.11218,-0.42906 0.37512,-0.73254 0.5873,-0.67783c0.21218,0.05471 0.29325,0.44687 0.18107,0.87594z" data-paper-data="{&quot;origRot&quot;:0,&quot;index&quot;:null}" stroke-width="1.5"/><path d="M235.28236,185.862c0.74497,0.09054 1.31375,0.45313 1.2704,0.80988c-0.04336,0.35675 -0.68242,0.57256 -1.4274,0.48202c-0.74497,-0.09054 -1.2704,-0.80988 -1.2704,-0.80988c0,0 0.68242,-0.57256 1.4274,-0.48202z" data-paper-data="{&quot;origRot&quot;:0,&quot;index&quot;:null}" stroke-width="0.5"/><path d="M234.97991,186.63736c0.79302,-0.21509 1.51938,-0.08161 1.62237,0.29815c0.04887,0.18021 -0.05141,0.32338 -0.25504,0.51024c-0.63957,-0.31131 -1.37742,-0.17117 -2.07248,-0.16786c0.19017,-0.16954 0.42694,-0.56508 0.70516,-0.64054z" data-paper-data="{&quot;origRot&quot;:0,&quot;index&quot;:null}" stroke-width="0.5"/></g><text transform="translate(241.68518,180.32895) scale(0.21493,0.21493)" font-size="40" xml:space="preserve" fill="#313131" fill-rule="nonzero" stroke="#313131" stroke-width="2" stroke-linecap="butt" stroke-linejoin="miter" stroke-miterlimit="10" stroke-dasharray="" stroke-dashoffset="0" font-family="Handwriting" font-weight="normal" text-anchor="start" style="mix-blend-mode: normal"><tspan x="0" dy="0">?</tspan></text></g></g></svg>