<svg version="1.1" xmlns="http://www.w3.org/2000/svg" xmlns:xlink="http://www.w3.org/1999/xlink" width="48.91575" height="45.89368" viewBox="0,0,48.91575,45.89368"><defs><linearGradient x1="240.79448" y1="158.11019" x2="240.79448" y2="195.88503" gradientUnits="userSpaceOnUse" id="color-1"><stop offset="0" stop-color="#ffabf2"/><stop offset="1" stop-color="#f3ffd9"/></linearGradient><linearGradient x1="241.07111" y1="159.71408" x2="241.07111" y2="196.22952" gradientUnits="userSpaceOnUse" id="color-2"><stop offset="0" stop-color="#ffabf2"/><stop offset="1" stop-color="#f3ffd9"/></linearGradient><linearGradient x1="250.97592" y1="195.24907" x2="264.81834" y2="195.24907" gradientUnits="userSpaceOnUse" id="color-3"><stop offset="0" stop-color="#2fe500"/><stop offset="1" stop-color="#51b800"/></linearGradient><linearGradient x1="225.79245" y1="196.46674" x2="239.40576" y2="196.46674" gradientUnits="userSpaceOnUse" id="color-4"><stop offset="0" stop-color="#2fe500"/><stop offset="1" stop-color="#51b800"/></linearGradient><linearGradient x1="240.6972" y1="197.09764" x2="255.07481" y2="197.09764" gradientUnits="userSpaceOnUse" id="color-5"><stop offset="0" stop-color="#2fe500"/><stop offset="1" stop-color="#51b800"/></linearGradient></defs><g transform="translate(-216.90259,-155.76693)"><g data-paper-data="{&quot;isPaintingLayer&quot;:true}" fill-rule="nonzero" stroke-linejoin="miter" stroke-miterlimit="10" stroke-dasharray="" stroke-dashoffset="0" style="mix-blend-mode: normal"><path d="M229.25549,175.18181c1.58579,0.20342 13.54815,4.45335 22.36496,0.10438c6.2908,-3.10299 2.79828,-16.30279 2.79828,-16.30279c0,0 13.31327,14.23249 9.8093,21.83148c-4.06238,8.81 -16.67997,15.07015 -23.43357,15.07015c-6.7167,0 -18.62351,-6.35926 -21.79161,-15.24764c-2.76503,-7.75756 6.72174,-16.40567 8.11397,-20.20813c0,0 -0.48834,14.41555 2.13867,14.75255z" fill="url(#color-1)" stroke="#244b00" stroke-width="1.5" stroke-linecap="butt"/><path d="M253.24292,177.9718c0,10.08345 -6.16248,18.25772 -12.17181,18.25772c-6.00933,0 -11.98739,-8.17426 -11.98739,-18.25772c0,-10.08345 11.98739,-18.25772 11.98739,-18.25772c0,0 12.17181,8.17426 12.17181,18.25772z" fill="url(#color-2)" stroke="#244b00" stroke-width="1.5" stroke-linecap="butt"/><path d="M230.95356,195.86166c0.27506,2.50277 -12.78189,3.88732 -13.05696,1.38456c-0.27506,-2.50277 2.85419,-5.1457 6.30702,-5.41984c3.45283,-0.27414 6.47488,1.53251 6.74994,4.03528z" data-paper-data="{&quot;origRot&quot;:0}" fill="#25b800" stroke="#000000" stroke-width="2" stroke-linecap="butt"/><path d="M250.98046,195.96302c0.29114,-2.63469 3.4898,-4.53657 7.14441,-4.24798c3.65461,0.28859 6.96675,3.07083 6.6756,5.70552c-0.29114,2.63467 -14.11116,1.17714 -13.82002,-1.45755z" data-paper-data="{&quot;origRot&quot;:0,&quot;index&quot;:null}" fill="url(#color-3)" stroke="#000000" stroke-width="2" stroke-linecap="butt"/><path d="M239.4013,197.14494c0.28633,2.50276 -13.30496,3.88732 -13.59129,1.38456c-0.28633,-2.50276 2.97099,-5.1457 6.56512,-5.41984c3.59412,-0.27414 6.73984,1.53252 7.02617,4.03528z" data-paper-data="{&quot;origRot&quot;:0}" fill="url(#color-4)" stroke="#000000" stroke-width="2" stroke-linecap="butt"/><path d="M248.12255,193.56362c3.79591,0.28859 7.23611,3.07083 6.93371,5.70551c-0.3024,2.63467 -14.65674,1.17714 -14.35434,-1.45755c0,0 3.62472,-4.53654 7.42063,-4.24796z" data-paper-data="{&quot;origRot&quot;:0,&quot;index&quot;:null}" fill="url(#color-5)" stroke="#000000" stroke-width="2" stroke-linecap="butt"/><path d="M235.72289,183.87328l2.46376,2.78478l-1.54165,3.1167" fill="none" stroke="#000000" stroke-width="1" stroke-linecap="round"/><path d="M244.75953,189.40592l-1.54746,-3.48851l2.28515,-1.85971" fill="none" stroke="#000000" stroke-width="1" stroke-linecap="round"/></g></g></svg>