<svg version="1.1" xmlns="http://www.w3.org/2000/svg" xmlns:xlink="http://www.w3.org/1999/xlink" width="91.1853" height="87.52865" viewBox="0,0,91.1853,87.52865"><defs><linearGradient x1="228.97386" y1="134.75351" x2="250.4235" y2="135.96214" gradientUnits="userSpaceOnUse" id="color-1"><stop offset="0" stop-color="#fff8ad"/><stop offset="1" stop-color="#c9c388"/></linearGradient><linearGradient x1="235.21972" y1="195.51745" x2="255.044" y2="195.51745" gradientUnits="userSpaceOnUse" id="color-2"><stop offset="0" stop-color="#2fe500"/><stop offset="1" stop-color="#51b800"/></linearGradient><linearGradient x1="236.7132" y1="139.65902" x2="274.85175" y2="141.80802" gradientUnits="userSpaceOnUse" id="color-3"><stop offset="0" stop-color="#fff8ad"/><stop offset="1" stop-color="#c9c388"/></linearGradient><linearGradient x1="230.10534" y1="143.64313" x2="275.05749" y2="146.17605" gradientUnits="userSpaceOnUse" id="color-4"><stop offset="0" stop-color="#fff8ad"/><stop offset="1" stop-color="#c9c388"/></linearGradient><linearGradient x1="208.26654" y1="134.94874" x2="229.54977" y2="136.148" gradientUnits="userSpaceOnUse" id="color-5"><stop offset="0" stop-color="#fff8ad"/><stop offset="1" stop-color="#c9c388"/></linearGradient><linearGradient x1="185.94968" y1="135.80229" x2="231.7138" y2="138.38096" gradientUnits="userSpaceOnUse" id="color-6"><stop offset="0" stop-color="#fff8ad"/><stop offset="1" stop-color="#c9c388"/></linearGradient><linearGradient x1="191.90726" y1="147.61525" x2="227.66091" y2="149.62986" gradientUnits="userSpaceOnUse" id="color-7"><stop offset="0" stop-color="#fff8ad"/><stop offset="1" stop-color="#c9c388"/></linearGradient><linearGradient x1="242.2593" y1="145.73157" x2="238.41265" y2="213.99857" gradientUnits="userSpaceOnUse" id="color-8"><stop offset="0" stop-color="#3dff00"/><stop offset="1" stop-color="#ebffd8"/></linearGradient><linearGradient x1="230.96337" y1="128.37496" x2="232.78486" y2="151.29676" gradientUnits="userSpaceOnUse" id="color-9"><stop offset="0" stop-color="#00e0ff"/><stop offset="1" stop-color="#00bcc4"/></linearGradient><linearGradient x1="207.33324" y1="153.46377" x2="229.88179" y2="154.73431" gradientUnits="userSpaceOnUse" id="color-10"><stop offset="0" stop-color="#fff8ad"/><stop offset="1" stop-color="#c9c388"/></linearGradient><linearGradient x1="233.86902" y1="150.99311" x2="263.22188" y2="152.64706" gradientUnits="userSpaceOnUse" id="color-11"><stop offset="0" stop-color="#fff8ad"/><stop offset="1" stop-color="#c9c388"/></linearGradient><linearGradient x1="221.72438" y1="155.86253" x2="237.00188" y2="156.72338" gradientUnits="userSpaceOnUse" id="color-12"><stop offset="0" stop-color="#fff8ad"/><stop offset="1" stop-color="#c9c388"/></linearGradient><linearGradient x1="211.04887" y1="196.55393" x2="230.54371" y2="196.32614" gradientUnits="userSpaceOnUse" id="color-13"><stop offset="0" stop-color="#2fe500"/><stop offset="1" stop-color="#51b800"/></linearGradient><linearGradient x1="228.68678" y1="198.43762" x2="249.27753" y2="198.43762" gradientUnits="userSpaceOnUse" id="color-14"><stop offset="0" stop-color="#2fe500"/><stop offset="1" stop-color="#51b800"/></linearGradient></defs><g transform="translate(-184.88209,-117.01163)"><g data-paper-data="{&quot;isPaintingLayer&quot;:true}" fill-rule="nonzero" stroke-linejoin="miter" stroke-miterlimit="10" stroke-dasharray="" stroke-dashoffset="0" style="mix-blend-mode: normal"><path d="M231.26445,193.16737c0.39393,-3.58432 4.72194,-6.17169 9.66687,-5.77909c4.94493,0.3926 9.42647,4.17765 9.03253,7.76197c-0.39393,3.5843 -19.09333,1.60142 -18.6994,-1.98289z" data-paper-data="{&quot;origPos&quot;:null,&quot;origRot&quot;:0,&quot;index&quot;:null}" fill="#25b800" stroke="#000000" stroke-width="2" stroke-linecap="butt"/><path d="M233.48486,193.53263c0.39393,3.58432 -18.30546,5.56719 -18.6994,1.98289c-0.39393,-3.58432 4.0876,-7.36937 9.03253,-7.76197c4.94493,-0.3926 9.27293,2.19477 9.66686,5.77909z" data-paper-data="{&quot;origPos&quot;:null,&quot;origRot&quot;:0}" fill="#25b800" stroke="#000000" stroke-width="2" stroke-linecap="butt"/><path d="M241.61062,131.59074c0,0 -7.85529,4.23931 -8.16941,4.28155c-4.85783,0.65309 -6.02467,0.30749 -1.96376,-9.96258c2.76041,-4.62602 8.45942,-9.47221 12.32192,-7.81632c5.52191,2.36728 6.36115,22.03206 6.31779,22.40992c-0.54935,4.78688 0.84545,7.74298 -3.83439,12.64472c-3.07872,3.2247 -4.67216,-21.55727 -4.67216,-21.55727z" data-paper-data="{&quot;origPos&quot;:null,&quot;origRot&quot;:0,&quot;index&quot;:null}" fill="url(#color-1)" stroke="#666349" stroke-width="1.5" stroke-linecap="butt"/><path d="M235.22622,196.53993c0.41696,-3.77324 4.99788,-6.497 10.2318,-6.0837c5.23392,0.4133 9.97736,4.39786 9.5604,8.1711c-0.41696,3.77322 -20.20916,1.68583 -19.7922,-2.08741z" data-paper-data="{&quot;origPos&quot;:null,&quot;origRot&quot;:0,&quot;index&quot;:null}" fill="url(#color-2)" stroke="#000000" stroke-width="2" stroke-linecap="butt"/><path d="M266.10687,134.72079c-3.23534,-0.8278 -11.58082,-2.09928 -11.58082,-2.09928c-7.22321,6.75389 -11.90937,17.29839 -11.98739,17.85427c-1.20656,8.59663 -8.52487,10.36439 -6.13893,-0.20613c1.66353,-7.36995 2.23882,-12.08986 4.40451,-19.32816c0.89119,-2.97858 -0.40978,-4.42348 1.86117,-6.5469c4.35077,-4.0681 29.55883,-0.69341 32.27474,7.15793c2.02614,5.85729 -4.5697,4.25916 -8.8333,3.16826z" data-paper-data="{&quot;origPos&quot;:null,&quot;index&quot;:null,&quot;origRot&quot;:0}" fill="url(#color-3)" stroke="#666349" stroke-width="1.5" stroke-linecap="butt"/><path d="M265.48064,149.33509c-2.59277,-2.1048 -9.64196,-6.74943 -9.64196,-6.74943c-9.38553,3.11473 -18.05149,10.73361 -18.35481,11.20595c-4.69067,7.30447 -12.07766,5.85014 -5.49028,-2.75422c4.59284,-5.99911 7.08904,-10.04601 12.08299,-15.71556c2.05501,-2.33303 1.47742,-4.18955 4.42822,-5.16881c5.65322,-1.87611 27.14058,11.73009 26.32463,19.99773c-0.60871,6.16786 -5.93199,1.95811 -9.34879,-0.81564z" data-paper-data="{&quot;origPos&quot;:null,&quot;index&quot;:null,&quot;origRot&quot;:0}" fill="url(#color-4)" stroke="#666349" stroke-width="1.5" stroke-linecap="butt"/><path d="M210.4489,152.51829c-4.09957,-5.39643 -2.38153,-8.17713 -2.38965,-12.99543c-0.00063,-0.38033 3.04239,-19.82637 8.79528,-21.55834c4.02408,-1.2115 8.19413,2.9113 11.11078,9.13669c2.8815,10.66126 1.93831,10.88797 -2.81542,9.69329c-0.3074,-0.07725 -7.63672,-5.17217 -7.63672,-5.17217c0,0 -4.36729,24.44609 -7.06427,20.89596z" data-paper-data="{&quot;origPos&quot;:null,&quot;origRot&quot;:0}" fill="url(#color-5)" stroke="#666349" stroke-width="1.5" stroke-linecap="butt"/><path d="M186.26274,145.33192c-3.34095,-8.80881 7.20027,-21.60122 17.30645,-21.03178c10.10618,0.56945 15.32482,6.34051 23.84135,12.85865c8.60533,6.5861 1.85425,9.91859 -4.58079,4.09209c-0.4161,-0.37676 -10.77066,-5.46889 -20.64387,-6.02521c0,0 -5.59208,6.32393 -7.54541,9.03267c-2.57412,3.56961 -6.17983,6.86861 -8.37774,1.07357z" data-paper-data="{&quot;origPos&quot;:null,&quot;origRot&quot;:0}" fill="url(#color-6)" stroke="#666349" stroke-width="1.5" stroke-linecap="butt"/><path d="M196.60148,165.2645c-7.58152,-5.59263 -4.6289,-8.30376 -4.85813,-13.13452c-0.01808,-0.38131 4.56466,-19.7406 14.78916,-21.2206c7.15193,-1.03526 11.51473,4.63378 18.71777,5.21511c5.63487,10.8164 2.15509,10.38839 -6.41061,8.97894c-0.55388,-0.09114 -1.92,-5.35554 -10.51921,-0.47259c-7.63002,4.3326 -6.73134,24.31288 -11.71897,20.63367z" data-paper-data="{&quot;origPos&quot;:null,&quot;origRot&quot;:0}" fill="url(#color-7)" stroke="#666349" stroke-width="1.5" stroke-linecap="butt"/><path d="M226.88076,193.90078c-1.4824,-3.49051 -25.28038,-52.01677 1.8058,-50.21348c25.72114,1.71241 -17.06086,2.01939 10.41049,1.35428c17.97541,-0.4352 6.5532,34.28648 0.15225,47.25306c-6.40095,12.96659 -10.88615,5.09663 -12.36855,1.60613z" data-paper-data="{&quot;origPos&quot;:null,&quot;origRot&quot;:0}" fill="url(#color-8)" stroke="#244b00" stroke-width="1.5" stroke-linecap="butt"/><path d="M249.47785,138.82141c0.92502,5.49627 -7.56819,11.35538 -16.07811,12.03161c-8.5099,0.67625 -20.80426,-2.52614 -21.24577,-8.08218c-0.44152,-5.55604 8.37804,-13.04527 16.88795,-13.72151c8.5099,-0.67625 19.4648,4.00182 20.43593,9.77209z" data-paper-data="{&quot;origPos&quot;:null,&quot;origRot&quot;:0}" fill="url(#color-9)" stroke="#244b00" stroke-width="1.5" stroke-linecap="butt"/><path d="M209.51746,171.00021c-4.09957,-5.39643 -2.38153,-8.17713 -2.38965,-12.99543c-0.00063,-0.38033 3.04239,-19.82637 8.79528,-21.55834c4.02408,-1.2115 9.11386,4.75439 13.12635,5.15595c2.8815,10.66126 -0.07726,14.86871 -4.83098,13.67403c-0.3074,-0.07725 -7.63672,-5.17217 -7.63672,-5.17217c0,0 -4.36729,24.44609 -7.06427,20.89596z" data-paper-data="{&quot;origPos&quot;:null,&quot;origRot&quot;:0}" fill="url(#color-10)" stroke="#666349" stroke-width="1.5" stroke-linecap="butt"/><path d="M247.88446,154.42699c-1.66271,-1.20979 -5.76348,-9.45486 -5.76348,-9.45486l2.47716,4.66446c0,0 -4.19461,3.92539 -7.2194,4.07831c-8.66981,0.43829 1.1605,-15.02934 4.34512,-16.13374c6.58445,-2.2834 11.08068,5.49288 14.7824,11.39764c3.86095,6.15873 6.9587,10.84464 5.80073,18.02072c0,0 -10.21971,-6.03781 -14.42254,-12.57252z" data-paper-data="{&quot;origPos&quot;:null,&quot;origRot&quot;:0,&quot;index&quot;:null}" fill="url(#color-11)" stroke="#666349" stroke-width="1.5" stroke-linecap="butt"/><path d="M225.63884,173.58988c-4.09957,-5.39643 -4.16711,-8.27774 -4.17524,-13.09604c-0.00063,-0.38033 -0.60066,-18.75217 5.15222,-20.48413c4.02408,-1.2115 8.35223,0.10537 9.07373,4.41581c2.8815,10.66126 1.482,14.44478 -3.27173,13.2501c-0.3074,-0.07725 0.52599,-4.71223 0.52599,-4.71223c0,0 -4.608,24.17662 -7.30498,20.62649z" data-paper-data="{&quot;origPos&quot;:null,&quot;origRot&quot;:0}" fill="url(#color-12)" stroke="#666349" stroke-width="1.5" stroke-linecap="butt"/><path d="M234.21336,173.24886c0.08105,2.65124 -0.93746,4.93876 -2.27486,5.1092c-1.33739,0.17051 -2.48725,-1.84061 -2.56827,-4.49186c-0.08105,-2.65124 0.93746,-4.93876 2.27486,-5.1092c1.33739,-0.17051 2.48724,1.84062 2.56824,4.49187z" data-paper-data="{&quot;origPos&quot;:null,&quot;origRot&quot;:0}" fill="#000000" stroke="none" stroke-width="0" stroke-linecap="butt"/><path d="M240.17174,171.49278c0.04003,1.99837 -0.74504,3.71081 -1.75355,3.82483c-1.00854,0.11403 -1.85854,-1.41352 -1.89862,-3.41192c-0.04003,-1.99837 0.74503,-3.71082 1.75355,-3.82483c1.00854,-0.11403 1.85859,1.41354 1.89864,3.4119z" data-paper-data="{&quot;origPos&quot;:null,&quot;origRot&quot;:0}" fill="#000000" stroke="none" stroke-width="0" stroke-linecap="butt"/><path d="M232.46544,172.47056c0.03675,1.20272 -0.42528,2.24039 -1.03198,2.31776c-0.60669,0.07734 -1.12831,-0.83499 -1.16505,-2.03769c-0.03675,-1.20272 0.42528,-2.24039 1.03198,-2.31776c0.60669,-0.07734 1.12831,0.83499 1.16505,2.03768z" data-paper-data="{&quot;origPos&quot;:null,&quot;origRot&quot;:0}" fill="#ffffff" stroke="none" stroke-width="0" stroke-linecap="butt"/><path d="M238.66986,170.50989c0.01367,0.6815 -0.25407,1.26549 -0.598,1.30437c-0.3439,0.03888 -0.63379,-0.48203 -0.64748,-1.16354c-0.01367,-0.6815 0.25407,-1.26549 0.598,-1.30437c0.3439,-0.03888 0.6338,0.48204 0.64747,1.16354z" data-paper-data="{&quot;origPos&quot;:null,&quot;origRot&quot;:0}" fill="#ffffff" stroke="none" stroke-width="0" stroke-linecap="butt"/><path d="M236.42789,186.03099c0,0 -2.49149,0.44868 -3.3687,-0.3702c-0.83054,-0.77533 -2.09943,-2.49686 -2.09943,-2.49686" data-paper-data="{&quot;origPos&quot;:null,&quot;origRot&quot;:0}" fill="none" stroke="#244b00" stroke-width="1" stroke-linecap="round"/><path d="M230.54867,197.29742c0.45191,3.57927 -18.98822,5.78944 -19.44013,2.21017c-0.45191,-3.57927 4.16849,-7.41858 9.31084,-7.87129c5.14235,-0.45271 9.67738,2.08185 10.12929,5.66113z" data-paper-data="{&quot;origPos&quot;:null,&quot;origRot&quot;:0}" fill="url(#color-13)" stroke="#000000" stroke-width="2" stroke-linecap="butt"/><path d="M228.69353,199.4601c0.43308,-3.77324 5.19112,-6.49699 10.62739,-6.0837c5.43628,0.4133 10.36312,4.39786 9.93004,8.17109c-0.43308,3.77322 -20.99051,1.68583 -20.55743,-2.08741z" data-paper-data="{&quot;origPos&quot;:null,&quot;origRot&quot;:0,&quot;index&quot;:null}" fill="url(#color-14)" stroke="#000000" stroke-width="2" stroke-linecap="butt"/></g></g></svg>