<svg version="1.1" xmlns="http://www.w3.org/2000/svg" xmlns:xlink="http://www.w3.org/1999/xlink" width="83.68461" height="72.86522" viewBox="0,0,83.68461,72.86522"><defs><linearGradient x1="284.42185" y1="172.03606" x2="218.0924" y2="193.30169" gradientUnits="userSpaceOnUse" id="color-1"><stop offset="0" stop-color="#6fe640"/><stop offset="1" stop-color="#dfffd2"/></linearGradient><linearGradient x1="284.65278" y1="174.96159" x2="270.39545" y2="179.53257" gradientUnits="userSpaceOnUse" id="color-2"><stop offset="0" stop-color="#389920"/><stop offset="1" stop-color="#48c42a"/></linearGradient><linearGradient x1="279.8743" y1="173.87927" x2="272.9057" y2="176.11345" gradientUnits="userSpaceOnUse" id="color-3"><stop offset="0" stop-color="#3faa24"/><stop offset="1" stop-color="#50ca3f"/></linearGradient><linearGradient x1="207.21756" y1="196.76445" x2="247.1676" y2="193.05941" gradientUnits="userSpaceOnUse" id="color-4"><stop offset="0" stop-color="#6fe640"/><stop offset="1" stop-color="#dfffd2"/></linearGradient><linearGradient x1="207.75563" y1="198.36687" x2="216.34278" y2="197.57047" gradientUnits="userSpaceOnUse" id="color-5"><stop offset="0" stop-color="#389920"/><stop offset="1" stop-color="#48c42a"/></linearGradient><linearGradient x1="210.04352" y1="196.71458" x2="214.24066" y2="196.32534" gradientUnits="userSpaceOnUse" id="color-6"><stop offset="0" stop-color="#3faa24"/><stop offset="1" stop-color="#50ca3f"/></linearGradient><linearGradient x1="231.53197" y1="141.23889" x2="233.78025" y2="174.49554" gradientUnits="userSpaceOnUse" id="color-7"><stop offset="0" stop-color="#26a200"/><stop offset="1" stop-color="#a3b196"/></linearGradient><linearGradient x1="230.90305" y1="135.95849" x2="233.15134" y2="169.21514" gradientUnits="userSpaceOnUse" id="color-8"><stop offset="0" stop-color="#34e000"/><stop offset="1" stop-color="#c9dab9"/></linearGradient><radialGradient cx="241.0248" cy="182.60117" r="22.28066" gradientUnits="userSpaceOnUse" id="color-9"><stop offset="0" stop-color="#e5ffd9"/><stop offset="1" stop-color="#d7ffca"/></radialGradient><linearGradient x1="230.53709" y1="135.13905" x2="232.3585" y2="162.08133" gradientUnits="userSpaceOnUse" id="color-10"><stop offset="0" stop-color="#3dff00"/><stop offset="1" stop-color="#ebffd8"/></linearGradient><linearGradient x1="220.12324" y1="183.85036" x2="257.8212" y2="183.85036" gradientUnits="userSpaceOnUse" id="color-11"><stop offset="0" stop-color="#b1e49c" stop-opacity="0"/><stop offset="1" stop-color="#b1e49c"/></linearGradient></defs><g transform="translate(-202.2406,-133.16814)"><g data-paper-data="{&quot;isPaintingLayer&quot;:true}" fill-rule="nonzero" stroke-linejoin="miter" stroke-miterlimit="10" stroke-dasharray="" stroke-dashoffset="0" style="mix-blend-mode: normal"><path d="M267.20003,196.89324c-14.31909,7.44183 -20.05874,7.55481 -20.05874,7.55481l1.0933,-2.51928c0,0 7.29551,-0.92392 15.35481,-4.92315c8.32232,-4.12972 6.71563,-14.71873 6.71563,-14.71873l-10.71683,-12.39999c0,0 -0.0409,-7.27112 1.7898,-9.33685c0.72678,-0.82008 2.94373,-0.30708 3.69827,-1.1017c1.56628,-1.6495 -1.48751,-6.97137 6.28026,-2.08522c1.64081,1.03213 3.56327,3.08371 4.79116,4.58366c0.53668,0.65559 -1.09975,1.85376 -1.09975,1.85376c0,0 1.54046,-1.49654 2.1399,-0.79043c1.32706,1.56316 2.42859,2.19122 3.61121,3.86631c1.70603,2.41645 3.82144,6.59212 3.82144,6.59212c0,0 4.05797,3.88951 -6.05115,12.41501c0.02506,-3.28086 -3.801,7.0763 -11.36932,11.00967z" data-paper-data="{&quot;origPos&quot;:null,&quot;origRot&quot;:0,&quot;index&quot;:null}" fill="url(#color-1)" stroke="#244b00" stroke-width="1" stroke-linecap="butt"/><path d="M271.9232,176.22335l3.1219,-7.18938c4.32304,-1.38599 7.48296,-0.69967 9.297,4.95848c1.81404,5.65811 -2.25235,10.79872 -6.57539,12.18472c-4.32304,1.38599 -5.69037,-1.40182 -7.50441,-7.05994c-1.81404,-5.65811 1.6609,-2.89389 1.6609,-2.89389z" data-paper-data="{&quot;origPos&quot;:null,&quot;index&quot;:null,&quot;origRot&quot;:0}" fill="url(#color-2)" stroke="#244b00" stroke-width="1" stroke-linecap="butt"/><path d="M277.62239,180.37557l-4.76212,-4.40377l2.29733,-6.35461l5.17532,5.69263z" data-paper-data="{&quot;origPos&quot;:null,&quot;origRot&quot;:0,&quot;index&quot;:null}" fill="url(#color-3)" stroke="#244b00" stroke-width="0.5" stroke-linecap="butt"/><path d="M279.48502,175.13203c1.32906,-0.42611 1.45128,1.23309 1.18574,2.6033c-0.29634,1.52919 -0.52633,3.09369 -2.00958,3.56922c-0.06278,0.02012 -1.67134,-0.61553 -2.14607,-2.0962c-0.55223,-1.72247 1.41147,-3.5767 2.96988,-4.07631z" data-paper-data="{&quot;origPos&quot;:null,&quot;index&quot;:null,&quot;origRot&quot;:0}" fill="#244b00" stroke="#244b00" stroke-width="0" stroke-linecap="butt"/><path d="M266.99201,169.1997c0,0 0.77689,-4.08912 3.32988,-5.45602c1.42176,-0.76122 5.96005,-0.30676 5.96005,-0.30676" data-paper-data="{&quot;origPos&quot;:null,&quot;index&quot;:null,&quot;origRot&quot;:0}" fill="none" stroke="#244b00" stroke-width="1" stroke-linecap="round"/><path d="M213.44503,202.78128c-7.28168,-2.23566 -6.00936,-5.21289 -6.00936,-5.21289c0,0 0.17833,-2.69034 0.53687,-4.356c0.24853,-1.15465 0.69048,-1.73615 1.04082,-2.86406c0.15826,-0.5095 1.31242,-0.06423 1.31242,-0.06423c0,0 -1.13765,-0.26551 -1.00129,-0.73407c0.31207,-1.07204 0.86765,-2.59322 1.50414,-3.5106c3.01322,-4.34287 2.59638,-0.8333 3.79876,-0.3128c0.57921,0.25074 1.63823,-0.52159 2.2085,-0.25108c1.43647,0.68139 3.05627,4.54372 3.05627,4.54372l-2.87972,8.99036c0,0 0.68639,1.12755 1.75855,1.30134c4.9831,2.13904 8.272,3.0196 13.61444,3.32922c5.17361,0.29985 13.20397,-0.27174 13.20397,-0.27174l2.70512,1.8427c0,0 -14.03291,0.16175 -23.30087,-0.54925c-4.89859,-0.3758 -5.51197,-0.02721 -11.54865,-1.88059z" data-paper-data="{&quot;origPos&quot;:null,&quot;origRot&quot;:0}" fill="url(#color-4)" stroke="#244b00" stroke-width="1" stroke-linecap="butt"/><path d="M216.31959,197.32032c0.31606,3.40786 0.22083,5.19386 -2.38293,5.43536c-2.60375,0.24147 -5.91912,-1.56464 -6.23517,-4.9725c-0.31606,-3.40786 1.20351,-4.48493 3.80725,-4.72644l3.27737,3.10501c0,0 1.2174,-2.24931 1.53346,1.15856z" data-paper-data="{&quot;origPos&quot;:null,&quot;origRot&quot;:0}" fill="url(#color-5)" stroke="#244b00" stroke-width="1" stroke-linecap="butt"/><path d="M210.12342,197.57618l1.45739,-4.18497l2.65197,2.84879l-1.52937,3.40871z" data-paper-data="{&quot;origPos&quot;:null,&quot;origRot&quot;:0}" fill="url(#color-6)" stroke="#244b00" stroke-width="0.5" stroke-linecap="butt"/><path d="M213.02665,198.78022c0.08272,0.89182 -0.62619,1.5918 -0.664,1.59529c-0.89336,0.08285 -1.36844,-0.69429 -1.87068,-1.43774c-0.45005,-0.66615 -0.75984,-1.57298 0.04065,-1.64722c0.93863,-0.08705 2.39782,0.45223 2.49404,1.48965z" data-paper-data="{&quot;origPos&quot;:null,&quot;origRot&quot;:0}" fill="#244b00" stroke="#244b00" stroke-width="0" stroke-linecap="butt"/><path d="M209.58977,190.36999c0,0 2.30233,-1.26536 3.2276,-1.18295c1.66145,0.148 2.99628,2.1395 2.99628,2.1395" data-paper-data="{&quot;origPos&quot;:null,&quot;origRot&quot;:0}" fill="none" stroke="#244b00" stroke-width="1" stroke-linecap="round"/><path d="M246.9437,171.1159l-18.42096,2.37977c0,0 -11.33256,-2.36242 -14.14066,-4.20939c-3.071,-2.01988 -1.05302,-3.65261 -4.35374,-5.27009c-2.00399,-0.98204 -3.03995,0.49473 -4.81086,-0.86327c-1.69371,-1.29881 -2.76501,-3.34303 0.62212,-5.68006c2.16192,-1.49167 4.57833,-1.92625 4.57833,-1.92625c0,0 -6.55143,-3.76166 0.37169,-5.17978c1.67881,-0.34389 9.18813,1.65307 9.18813,1.65307c0,0 -9.80992,-1.99234 -7.39829,-4.17515c3.03838,-2.75008 2.44411,-1.87357 6.24268,-1.50242c4.0787,0.39852 8.56541,2.44167 8.56541,2.44167c0,0 -4.31321,-2.07546 -7.34222,-3.95857c1.42184,-1.3744 3.74342,-2.49181 5.71369,-2.32253c3.27302,0.28122 7.5863,3.82326 7.5863,3.82326c0,0 -10.59843,-5.60476 -7.77308,-6.4626c0.62102,-0.18856 5.12923,-0.02541 7.18206,0.74519c2.05283,0.7706 6.77493,6.34599 6.77493,6.34599c0,0 -2.47713,-1.70395 -4.29702,-3.71909c-3.53425,-3.91346 2.1909,-2.21057 5.46151,-1.05131c2.99511,1.06161 6.36077,6.90188 6.36077,6.90188l-3.7705,-5.49247c0,0 1.58944,-1.2901 2.8537,-0.56753c1.30688,0.74692 3.73451,4.3329 3.73451,4.3329l1.18424,7.59346c0,0 6.00742,-0.84907 6.31071,3.63712c0.25877,3.8277 -2.90668,6.06048 -5.05979,7.62302c-2.28595,1.65895 -5.36361,4.90316 -5.36361,4.90316z" data-paper-data="{&quot;origPos&quot;:null,&quot;origRot&quot;:0}" fill="url(#color-7)" stroke="#244b00" stroke-width="1.5" stroke-linecap="butt"/><path d="M246.31478,165.83549l-18.42096,2.37976c0,0 -4.64374,-3.84252 -8.49461,-4.94338c-2.35686,-0.67377 -5.30205,-0.13411 -7.48705,-1.2452c-1.10832,-0.56359 -1.60931,-2.49974 -2.72584,-3.04687c-2.00399,-0.98204 -2.82686,0.25073 -4.59778,-1.10728c-1.69371,-1.29881 -2.76501,-3.34303 0.62212,-5.68006c2.16192,-1.49167 4.57833,-1.92625 4.57833,-1.92625c0,0 -6.55143,-3.76166 0.37169,-5.17978c1.67881,-0.34389 9.18813,1.65307 9.18813,1.65307c0,0 -9.80992,-1.99234 -7.39829,-4.17515c3.03838,-2.75008 2.44411,-1.87357 6.24268,-1.50242c4.0787,0.39852 8.56541,2.44167 8.56541,2.44167c0,0 -4.31321,-2.07545 -7.34222,-3.95857c1.42184,-1.3744 3.74342,-2.49181 5.71369,-2.32253c3.27302,0.28122 7.58629,3.82326 7.58629,3.82326c0,0 -10.59843,-5.60476 -7.77308,-6.46261c0.62102,-0.18856 5.12923,-0.02541 7.18206,0.74519c2.05283,0.7706 6.77493,6.34599 6.77493,6.34599c0,0 -2.47713,-1.70395 -4.29702,-3.71909c-3.53425,-3.91346 2.1909,-2.21057 5.46151,-1.0513c2.99511,1.06161 6.36077,6.90188 6.36077,6.90188l-3.77051,-5.49248c0,0 1.58944,-1.2901 2.8537,-0.56752c1.30688,0.74692 6.99597,5.03077 6.99597,5.03077c0,0 -1.09904,5.04057 2.30487,4.93654c2.65607,-0.08117 4.37006,6.07417 3.01054,8.35737c-1.09928,1.84615 -5.92604,-1.19867 -7.3221,0.43464c-3.04577,3.56332 -4.18321,9.33035 -4.18321,9.33035z" data-paper-data="{&quot;origPos&quot;:null,&quot;origRot&quot;:0}" fill="url(#color-8)" stroke="#244b00" stroke-width="1.5" stroke-linecap="butt"/><path d="M242.99302,156.78781c0,0 15.26027,21.01884 15.52336,31.69292c0.20409,8.27984 -7.66162,15.88511 -15.31101,16.55263c-9.38321,0.81882 -19.8109,-4.89044 -21.72226,-14.86312c-1.54297,-8.05059 7.72244,-31.25884 7.72244,-31.25884z" data-paper-data="{&quot;origPos&quot;:null,&quot;origRot&quot;:0}" fill="url(#color-9)" stroke="#244b00" stroke-width="2" stroke-linecap="butt"/><path d="M243.02263,159.34337l-14.92342,1.92793c0,0 -9.18089,-1.91388 -11.45582,-3.41017c-2.48791,-1.63638 -0.85309,-2.9591 -3.5271,-4.26947c-1.6235,-0.79558 -2.46276,0.4008 -3.89745,-0.69938c-1.10344,-0.84615 -1.69692,-1.84018 -1.02832,-3.05942c0.4115,-0.7504 0.8279,-1.05615 1.53232,-1.54218c1.75144,-1.20845 3.70905,-1.56051 3.70905,-1.56051c0,0 -5.30752,-3.04744 0.30111,-4.19631c1.36007,-0.27859 7.4436,1.33921 7.4436,1.33921c0,0 -7.94735,-1.61407 -5.9936,-3.38242c2.46148,-2.22794 1.98006,-1.51784 5.0574,-1.21716c3.3043,0.32285 6.93911,1.97808 6.93911,1.97808c0,0 -3.49428,-1.68139 -5.94817,-3.20696c1.15188,-1.11344 3.03266,-2.0187 4.62885,-1.88155c2.65158,0.22783 6.1459,3.09735 6.1459,3.09735c0,0 -6.52921,-4.67965 -4.24031,-5.37462c2.28891,-0.69497 2.09843,0.11848 3.7615,0.74276c1.66307,0.62428 5.48859,5.1411 5.48859,5.1411c0,0 -2.00681,-1.38042 -3.48115,-3.01296c-2.86321,-3.17042 1.77492,-1.79086 4.42455,-0.85171c2.42645,0.86004 5.15307,5.59145 5.15307,5.59145l-3.05461,-4.44964c0,0 1.28766,-1.04514 2.31187,-0.45976c1.05874,0.60511 3.02545,3.51023 3.02545,3.51023c0,0 1.48637,-2.02913 4.244,-2.1134c3.05693,-0.09342 1.97906,2.4424 2.25558,6.53277c0.27653,4.09035 -3.03157,5.82856 -4.18698,7.18033c-2.46747,2.88677 -4.68503,7.64643 -4.68503,7.64643z" data-paper-data="{&quot;origPos&quot;:null,&quot;origRot&quot;:0}" fill="url(#color-10)" stroke="#244b00" stroke-width="1.5" stroke-linecap="butt"/><path d="M251.46726,176.05313c0.12776,2.97026 -1.30562,5.44423 -3.20153,5.52578c-1.89591,0.08154 -3.53641,-2.26022 -3.66417,-5.23048c-0.12776,-2.97026 1.30562,-5.44423 3.20153,-5.52578c1.89591,-0.08154 3.53641,2.26022 3.66417,5.23048z" data-paper-data="{&quot;origRot&quot;:0,&quot;origPos&quot;:null}" fill="#ffffff" stroke="#244b00" stroke-width="0.5" stroke-linecap="butt"/><path d="M242.93533,175.6391c0,0 -2.3711,3.69447 -4.52178,3.82c-2.14703,0.12531 -4.39626,-4.44762 -4.39626,-4.44762z" data-paper-data="{&quot;origPos&quot;:null}" fill="#ffffff" stroke="#244b00" stroke-width="0.5" stroke-linecap="butt"/><path d="M249.88894,169.81985c-1.53305,-0.64413 -3.53713,1.50149 -4.5095,2.85043c-0.9229,1.2803 -0.88076,2.58458 -0.88076,2.58458l-11.81183,-0.54304" data-paper-data="{&quot;origPos&quot;:null}" fill="none" stroke="#244b00" stroke-width="1" stroke-linecap="round"/><path d="M240.65102,176.37548c0,0.55461 -0.4496,1.0042 -1.0042,1.0042c-0.55461,0 -1.0042,-0.4496 -1.0042,-1.0042c0,-0.55461 0.4496,-1.0042 1.0042,-1.0042c0.55461,0 1.0042,0.4496 1.0042,1.0042z" data-paper-data="{&quot;origPos&quot;:null}" fill="#000000" stroke="none" stroke-width="0" stroke-linecap="butt"/><path d="M248.70777,175.89654c0,0.8319 -0.4496,1.5063 -1.0042,1.5063c-0.55461,0 -1.0042,-0.6744 -1.0042,-1.5063c0,-0.8319 0.4496,-1.50629 1.0042,-1.50629c0.55461,0 1.0042,0.67439 1.0042,1.50629z" data-paper-data="{&quot;origPos&quot;:null}" fill="#000000" stroke="none" stroke-width="0" stroke-linecap="butt"/><path d="M241.97221,187.95849c0,0 0.25104,-1.12662 0.25104,-2.0084c0,-0.97975 -0.25104,-2.38498 -0.25104,-2.38498l2.76154,0.12552c0,0 0.43388,1.22744 0.55091,2.09341c0.12792,0.94658 -0.17433,2.04892 -0.17433,2.04892z" data-paper-data="{&quot;origPos&quot;:null}" fill="#ffffff" stroke="#244b00" stroke-width="0.5" stroke-linecap="butt"/><path d="M235.44492,186.57772c0,0 3.81152,-2.6371 6.2511,-3.03951c2.31224,-0.3814 5.92482,1.03111 5.92482,1.03111" data-paper-data="{&quot;origPos&quot;:null}" fill="none" stroke="#244b00" stroke-width="1" stroke-linecap="round"/><path d="M229.16097,202.12289c-10.76787,-4.55752 -8.91651,-13.28594 -8.91651,-13.28594c0,0 0.47337,0.52498 10.42366,6.94451c9.95029,6.41953 19.25992,0.59666 22.29559,-4.8215c1.89341,-3.37939 1.72325,-6.08004 0.97159,-9.94478c-1.46135,-7.51367 -6.5167,-18.75013 -6.5167,-18.75013c0,0 9.81937,16.45504 10.4026,26.80096c0,0 -0.44326,4.20581 -1.82479,6.82602c-2.16661,4.10921 -4.58826,6.60929 -8.8017,7.90627c-6.55363,2.01733 -7.26587,2.88212 -18.03374,-1.6754z" data-paper-data="{&quot;origPos&quot;:null}" fill="url(#color-11)" stroke="#244b00" stroke-width="0" stroke-linecap="butt"/></g></g></svg>