<svg version="1.1" xmlns="http://www.w3.org/2000/svg" xmlns:xlink="http://www.w3.org/1999/xlink" width="35.50001" height="15.05555" viewBox="0,0,35.50001,15.05555"><defs><linearGradient x1="240.00001" y1="173.22223" x2="240.00001" y2="186.77779" gradientUnits="userSpaceOnUse" id="color-1"><stop offset="0" stop-color="#bc730d"/><stop offset="1" stop-color="#986809"/></linearGradient></defs><g transform="translate(-222.24999,-172.47222)"><g data-paper-data="{&quot;isPaintingLayer&quot;:true}" fill-rule="nonzero" stroke-linecap="butt" stroke-linejoin="miter" stroke-miterlimit="10" stroke-dasharray="" stroke-dashoffset="0" style="mix-blend-mode: normal"><path d="M223.00001,183.62848c0,-2.45174 0,-5.6719 0,-7.11111c0,-1.43785 1.44361,-3.29514 2.94444,-3.29514c3.86519,0 21.12925,0 28.11111,0c1.82255,0 2.94445,1.38626 2.94445,3.18403c0,2.53883 0,5.89835 0,7.33333c0,1.3174 -0.9857,3.03819 -2.61112,3.03819c-6.80677,0 -24.83212,0 -28.66667,0c-1.40138,0 -2.72222,-1.37297 -2.72222,-3.14931z" fill="url(#color-1)" stroke="#000000" stroke-width="1.5"/><text transform="translate(230.71408,182.55576) scale(0.21298,0.21298)" font-size="40" xml:space="preserve" fill="#ffffff" fill-rule="nonzero" stroke="#ffffff" stroke-width="2" stroke-linecap="butt" stroke-linejoin="miter" stroke-miterlimit="10" stroke-dasharray="" stroke-dashoffset="0" font-family="Handwriting" font-weight="normal" text-anchor="start" style="mix-blend-mode: normal"><tspan x="0" dy="0">Start</tspan></text></g></g></svg>