<svg version="1.1" xmlns="http://www.w3.org/2000/svg" xmlns:xlink="http://www.w3.org/1999/xlink" width="91.00526" height="87.50584" viewBox="0,0,91.00526,87.50584"><defs><linearGradient x1="227.99156" y1="135.29075" x2="249.46099" y2="136.07277" gradientUnits="userSpaceOnUse" id="color-1"><stop offset="0" stop-color="#fff8ad"/><stop offset="1" stop-color="#c9c388"/></linearGradient><linearGradient x1="235.21972" y1="195.51745" x2="255.044" y2="195.51745" gradientUnits="userSpaceOnUse" id="color-2"><stop offset="0" stop-color="#2fe500"/><stop offset="1" stop-color="#51b800"/></linearGradient><linearGradient x1="235.82688" y1="140.04145" x2="274.00061" y2="141.43192" gradientUnits="userSpaceOnUse" id="color-3"><stop offset="0" stop-color="#fff8ad"/><stop offset="1" stop-color="#c9c388"/></linearGradient><linearGradient x1="229.29952" y1="144.15612" x2="274.29314" y2="145.795" gradientUnits="userSpaceOnUse" id="color-4"><stop offset="0" stop-color="#fff8ad"/><stop offset="1" stop-color="#c9c388"/></linearGradient><linearGradient x1="207.29221" y1="135.89755" x2="228.59508" y2="136.67351" gradientUnits="userSpaceOnUse" id="color-5"><stop offset="0" stop-color="#fff8ad"/><stop offset="1" stop-color="#c9c388"/></linearGradient><linearGradient x1="184.99673" y1="137.19454" x2="230.80307" y2="138.86302" gradientUnits="userSpaceOnUse" id="color-6"><stop offset="0" stop-color="#fff8ad"/><stop offset="1" stop-color="#c9c388"/></linearGradient><linearGradient x1="191.18795" y1="148.88674" x2="226.97458" y2="150.19026" gradientUnits="userSpaceOnUse" id="color-7"><stop offset="0" stop-color="#fff8ad"/><stop offset="1" stop-color="#c9c388"/></linearGradient><linearGradient x1="241.49259" y1="146.00256" x2="239.00369" y2="214.33253" gradientUnits="userSpaceOnUse" id="color-8"><stop offset="0" stop-color="#3dff00"/><stop offset="1" stop-color="#ebffd8"/></linearGradient><linearGradient x1="229.85389" y1="128.87391" x2="232.13065" y2="151.75497" gradientUnits="userSpaceOnUse" id="color-9"><stop offset="0" stop-color="#00e0ff"/><stop offset="1" stop-color="#00bcc4"/></linearGradient><linearGradient x1="206.72713" y1="154.42747" x2="229.29648" y2="155.24955" gradientUnits="userSpaceOnUse" id="color-10"><stop offset="0" stop-color="#fff8ad"/><stop offset="1" stop-color="#c9c388"/></linearGradient><linearGradient x1="233.20856" y1="151.42983" x2="262.5885" y2="152.49999" gradientUnits="userSpaceOnUse" id="color-11"><stop offset="0" stop-color="#fff8ad"/><stop offset="1" stop-color="#c9c388"/></linearGradient><linearGradient x1="221.16311" y1="156.5397" x2="236.4547" y2="157.0967" gradientUnits="userSpaceOnUse" id="color-12"><stop offset="0" stop-color="#fff8ad"/><stop offset="1" stop-color="#c9c388"/></linearGradient><linearGradient x1="211.04887" y1="197.06491" x2="230.54371" y2="196.83712" gradientUnits="userSpaceOnUse" id="color-13"><stop offset="0" stop-color="#2fe500"/><stop offset="1" stop-color="#51b800"/></linearGradient><linearGradient x1="228.68678" y1="198.69311" x2="249.27753" y2="198.69311" gradientUnits="userSpaceOnUse" id="color-14"><stop offset="0" stop-color="#2fe500"/><stop offset="1" stop-color="#51b800"/></linearGradient></defs><g transform="translate(-184.04545,-117.28994)"><g data-paper-data="{&quot;isPaintingLayer&quot;:true}" fill-rule="nonzero" stroke-linejoin="miter" stroke-miterlimit="10" stroke-dasharray="" stroke-dashoffset="0" style="mix-blend-mode: normal"><path d="M231.26445,193.16737c0.39393,-3.58432 4.72194,-6.17169 9.66687,-5.77909c4.94493,0.3926 9.42647,4.17765 9.03253,7.76197c-0.39393,3.5843 -19.09333,1.60142 -18.6994,-1.98289z" data-paper-data="{&quot;origPos&quot;:null,&quot;origRot&quot;:0,&quot;index&quot;:null}" fill="#25b800" stroke="#000000" stroke-width="2" stroke-linecap="butt"/><path d="M233.48486,194.2991c0.39393,3.58432 -18.30546,5.56719 -18.6994,1.98289c-0.39393,-3.58432 4.0876,-7.36937 9.03253,-7.76197c4.94493,-0.3926 9.27293,2.19477 9.66686,5.77909z" data-paper-data="{&quot;origPos&quot;:null,&quot;origRot&quot;:0}" fill="#25b800" stroke="#000000" stroke-width="2" stroke-linecap="butt"/><path d="M240.56296,131.87741c0,0 -7.76947,4.39462 -8.08269,4.44309c-4.84389,0.74952 -6.01737,0.42719 -2.1614,-9.92158c2.66791,-4.67998 8.26946,-9.63849 12.16412,-8.05971c5.56787,2.25705 6.79784,21.90126 6.762,22.27991c-0.45409,4.79685 0.99919,7.72464 -3.58229,12.71844c-3.01401,3.28526 -5.09974,-21.46014 -5.09974,-21.46014z" data-paper-data="{&quot;origPos&quot;:null,&quot;origRot&quot;:0,&quot;index&quot;:null}" fill="url(#color-1)" stroke="#666349" stroke-width="1.5" stroke-linecap="butt"/><path d="M235.22622,196.53993c0.41696,-3.77324 4.99788,-6.497 10.2318,-6.0837c5.23392,0.4133 9.97736,4.39786 9.5604,8.1711c-0.41696,3.77322 -20.20916,1.68583 -19.7922,-2.08741z" data-paper-data="{&quot;origPos&quot;:null,&quot;origRot&quot;:0,&quot;index&quot;:null}" fill="url(#color-2)" stroke="#000000" stroke-width="2" stroke-linecap="butt"/><path d="M265.11659,134.51992c-3.25116,-0.76333 -11.62026,-1.86867 -11.62026,-1.86867c-7.08753,6.89614 -11.56317,17.5317 -11.63012,18.08902c-1.03544,8.61891 -8.31717,10.5318 -6.14181,-0.08406c1.5167,-7.40156 1.99806,-12.13197 4.01944,-19.41189c0.83181,-2.99571 -0.49763,-4.41446 1.73067,-6.5826c4.26905,-4.15378 29.53921,-1.28083 32.41065,6.51497c2.14217,5.81586 -4.48414,4.34915 -8.76858,3.34322z" data-paper-data="{&quot;origPos&quot;:null,&quot;index&quot;:null,&quot;origRot&quot;:0}" fill="url(#color-3)" stroke="#666349" stroke-width="1.5" stroke-linecap="butt"/><path d="M264.78098,149.14378c-2.6341,-2.05285 -9.77422,-6.55644 -9.77422,-6.55644c-9.32176,3.30068 -17.83457,11.09031 -18.12844,11.56858c-4.54455,7.39627 -11.95899,6.08906 -5.54394,-2.64454c4.47268,-6.08922 6.88795,-10.18494 11.76822,-15.95264c2.00823,-2.37342 1.39385,-4.21809 4.3246,-5.25581c5.61481,-1.98811 27.36838,11.18828 26.71694,19.47051c-0.48599,6.17874 -5.8919,2.07564 -9.36316,-0.62965z" data-paper-data="{&quot;origPos&quot;:null,&quot;index&quot;:null,&quot;origRot&quot;:0}" fill="url(#color-4)" stroke="#666349" stroke-width="1.5" stroke-linecap="butt"/><path d="M209.82338,153.42025c-4.20603,-5.31387 -2.5436,-8.12818 -2.6475,-12.94536c-0.00819,-0.38024 2.64769,-19.88293 8.36501,-21.72891c3.9992,-1.29125 8.25038,2.74785 11.2902,8.91403c3.09285,10.60188 2.15435,10.84729 -2.62218,9.74734c-0.30887,-0.07112 -7.73802,-5.01935 -7.73802,-5.01935c0,0 -3.8805,24.52807 -6.64751,21.03225z" data-paper-data="{&quot;origPos&quot;:null,&quot;origRot&quot;:0}" fill="url(#color-5)" stroke="#666349" stroke-width="1.5" stroke-linecap="butt"/><path d="M185.49915,146.71606c-3.51539,-8.74066 6.76947,-21.74008 16.88497,-21.37163c10.1155,0.36845 15.44783,6.03464 24.09224,12.3822c8.73455,6.41375 2.05104,9.87977 -4.49854,4.18234c-0.42351,-0.36841 -10.87724,-5.25371 -20.75956,-5.61367c0,0 -5.46527,6.43384 -7.36437,9.18087c-2.50266,3.62007 -6.04208,6.99009 -8.35474,1.23989z" data-paper-data="{&quot;origPos&quot;:null,&quot;origRot&quot;:0}" fill="url(#color-6)" stroke="#666349" stroke-width="1.5" stroke-linecap="butt"/><path d="M196.23206,166.43919c-7.69119,-5.44082 -4.79304,-8.21011 -5.11825,-13.03536c-0.02566,-0.38088 4.17136,-19.82743 14.36442,-21.51038c7.12994,-1.17722 11.60456,4.40398 18.81774,4.84202c5.84876,10.70226 2.36116,10.3435 -6.23086,9.10459c-0.55558,-0.08011 -2.02608,-5.31632 -10.52653,-0.2634c-7.54239,4.48341 -6.24673,24.44188 -11.30651,20.86254z" data-paper-data="{&quot;origPos&quot;:null,&quot;origRot&quot;:0}" fill="url(#color-7)" stroke="#666349" stroke-width="1.5" stroke-linecap="butt"/><path d="M227.07458,194.46794c-1.55149,-3.46035 -26.30935,-51.50398 0.80732,-50.23945c25.7501,1.2008 -17.01735,2.35812 10.43535,1.14708c17.96321,-0.79242 7.23344,34.14944 1.0915,47.2407c-6.14194,13.09126 -10.78269,5.31201 -12.33418,1.85167z" data-paper-data="{&quot;origPos&quot;:null,&quot;origRot&quot;:0}" fill="url(#color-8)" stroke="#244b00" stroke-width="1.5" stroke-linecap="butt"/><path d="M248.57236,138.95027c1.03409,5.4768 -7.34098,11.50357 -15.83577,12.34883c-8.49478,0.84527 -20.85036,-2.1121 -21.40223,-7.65827c-0.55187,-5.54617 8.11708,-13.20923 16.61186,-14.05449c8.49478,-0.84527 19.5405,3.61412 20.62614,9.36394z" data-paper-data="{&quot;origPos&quot;:null,&quot;origRot&quot;:0}" fill="url(#color-9)" stroke="#244b00" stroke-width="1.5" stroke-linecap="butt"/><path d="M209.2595,171.91703c-4.20603,-5.31387 -2.5436,-8.12818 -2.6475,-12.94536c-0.00819,-0.38024 2.64769,-19.88293 8.36501,-21.72891c3.9992,-1.29125 9.20657,4.57229 13.22624,4.89401c3.09285,10.60188 0.21831,14.86731 -4.55822,13.76736c-0.30887,-0.07112 -7.73802,-5.01935 -7.73802,-5.01935c0,0 -3.8805,24.52807 -6.64751,21.03225z" data-paper-data="{&quot;origPos&quot;:null,&quot;origRot&quot;:0}" fill="url(#color-10)" stroke="#666349" stroke-width="1.5" stroke-linecap="butt"/><path d="M247.28949,154.58444c-1.68643,-1.1765 -5.95028,-9.33843 -5.95028,-9.33843l2.56939,4.6143c0,0 -4.11575,4.00799 -7.13691,4.22101c-8.65938,0.61054 0.86152,-15.04944 4.02356,-16.21692c6.53776,-2.41383 11.18768,5.27154 15.00604,11.10155c3.98261,6.08077 7.17289,10.70418 6.15779,17.90186c0,0 -10.33771,-5.83347 -14.6696,-12.28335z" data-paper-data="{&quot;origPos&quot;:null,&quot;origRot&quot;:0,&quot;index&quot;:null}" fill="url(#color-11)" stroke="#666349" stroke-width="1.5" stroke-linecap="butt"/><path d="M225.42917,174.18574c-4.20603,-5.31387 -4.33083,-8.19327 -4.43473,-13.01046c-0.00819,-0.38024 -0.97329,-18.73653 4.74403,-20.5825c3.9992,-1.29125 8.35267,-0.06067 9.15971,4.23457c3.09285,10.60188 1.76883,14.41247 -3.0077,13.31252c-0.30887,-0.07112 0.43222,-4.72175 0.43222,-4.72175c0,0 -4.12652,24.26344 -6.89353,20.76762z" data-paper-data="{&quot;origPos&quot;:null,&quot;origRot&quot;:0}" fill="url(#color-12)" stroke="#666349" stroke-width="1.5" stroke-linecap="butt"/><path d="M233.99522,173.67434c0.13373,2.64911 -0.8391,4.95642 -2.17285,5.15341c-1.33374,0.19706 -2.52335,-1.79081 -2.65705,-4.43992c-0.13373,-2.64911 0.8391,-4.95642 2.17285,-5.15341c1.33374,-0.19706 2.52334,1.79082 2.65702,4.43993z" data-paper-data="{&quot;origPos&quot;:null,&quot;origRot&quot;:0}" fill="#000000" stroke="none" stroke-width="0" stroke-linecap="butt"/><path d="M239.91752,171.80017c0.07974,1.99718 -0.67113,3.72489 -1.67718,3.85893c-1.00607,0.13405 -1.88627,-1.3763 -1.96607,-3.37351c-0.07974,-1.99718 0.67112,-3.7249 1.67718,-3.85893c1.00607,-0.13405 1.88632,1.37632 1.96609,3.37349z" data-paper-data="{&quot;origPos&quot;:null,&quot;origRot&quot;:0}" fill="#000000" stroke="none" stroke-width="0" stroke-linecap="butt"/><path d="M232.23218,172.93094c0.06065,1.20175 -0.38066,2.2484 -0.9857,2.33782c-0.60503,0.08938 -1.14468,-0.8124 -1.20532,-2.01413c-0.06065,-1.20175 0.38066,-2.2484 0.9857,-2.33782c0.60503,-0.08938 1.14468,0.8124 1.20532,2.01412z" data-paper-data="{&quot;origPos&quot;:null,&quot;origRot&quot;:0}" fill="#ffffff" stroke="none" stroke-width="0" stroke-linecap="butt"/><path d="M238.3964,170.84733c0.02721,0.68109 -0.22886,1.27029 -0.57195,1.316c-0.34306,0.04571 -0.64325,-0.46934 -0.67048,-1.15044c-0.02721,-0.68109 0.22886,-1.27029 0.57195,-1.316c0.34306,-0.04571 0.64326,0.46935 0.67047,1.15044z" data-paper-data="{&quot;origPos&quot;:null,&quot;origRot&quot;:0}" fill="#ffffff" stroke="none" stroke-width="0" stroke-linecap="butt"/><path d="M236.46339,186.40993c0,0 -2.48208,0.49812 -3.37539,-0.30317c-0.84579,-0.75867 -2.14865,-2.45464 -2.14865,-2.45464" data-paper-data="{&quot;origPos&quot;:null,&quot;origRot&quot;:0}" fill="none" stroke="#244b00" stroke-width="1" stroke-linecap="round"/><path d="M230.54867,197.8084c0.45191,3.57927 -18.98822,5.78944 -19.44013,2.21017c-0.45191,-3.57927 4.16849,-7.41858 9.31084,-7.87129c5.14235,-0.45271 9.67738,2.08185 10.12929,5.66113z" data-paper-data="{&quot;origPos&quot;:null,&quot;origRot&quot;:0}" fill="url(#color-13)" stroke="#000000" stroke-width="2" stroke-linecap="butt"/><path d="M228.69353,199.71559c0.43308,-3.77324 5.19112,-6.49699 10.62739,-6.0837c5.43628,0.4133 10.36312,4.39786 9.93004,8.17109c-0.43308,3.77322 -20.99051,1.68583 -20.55743,-2.08741z" data-paper-data="{&quot;origPos&quot;:null,&quot;origRot&quot;:0,&quot;index&quot;:null}" fill="url(#color-14)" stroke="#000000" stroke-width="2" stroke-linecap="butt"/></g></g></svg>