<svg version="1.1" xmlns="http://www.w3.org/2000/svg" xmlns:xlink="http://www.w3.org/1999/xlink" width="43.98019" height="25.47918" viewBox="0,0,43.98019,25.47918"><defs><linearGradient x1="228.47756" y1="178.41924" x2="251.52245" y2="181.58075" gradientUnits="userSpaceOnUse" id="color-1"><stop offset="0" stop-color="#e3e3d9"/><stop offset="1" stop-color="#818181"/></linearGradient><radialGradient cx="218.25445" cy="177.35839" r="6.91141" gradientUnits="userSpaceOnUse" id="color-2"><stop offset="0" stop-color="#ff9900"/><stop offset="1" stop-color="#ff9900" stop-opacity="0"/></radialGradient><radialGradient cx="218.31934" cy="176.82035" r="9.66518" gradientUnits="userSpaceOnUse" id="color-3"><stop offset="0" stop-color="#ffe000"/><stop offset="1" stop-color="#ffe000" stop-opacity="0"/></radialGradient></defs><g transform="translate(-208.65158,-167.15259)"><g data-paper-data="{&quot;isPaintingLayer&quot;:true}" fill-rule="nonzero" stroke-linecap="butt" stroke-linejoin="miter" stroke-miterlimit="10" stroke-dasharray="" stroke-dashoffset="0" style="mix-blend-mode: normal"><path d="M220.22369,178.55214l0.3532,-2.57456l12.1156,1.66213l-0.3532,2.57456z" fill="#c29557" stroke="#000000" stroke-width="1"/><path d="M228.47756,178.41924c0.87303,-6.36366 6.73953,-10.81472 13.1032,-9.94168c6.36366,0.87303 10.81472,6.73953 9.94168,13.1032c-0.87303,6.36366 -6.73953,10.81472 -13.1032,9.94168c-6.36366,-0.87303 -10.81472,-6.73953 -9.94168,-13.1032z" fill="url(#color-1)" stroke="#000000" stroke-width="2"/><g stroke="none" stroke-width="0"><path d="M211.66552,175.27188c1.15234,-3.63898 5.03649,-5.65477 8.67545,-4.50242c3.63898,1.15234 5.65477,5.03649 4.50242,8.67545c-1.15234,3.63898 -5.03649,5.65477 -8.67545,4.50241c-3.63898,-1.15234 -5.65477,-5.03649 -4.50242,-8.67545z" fill="url(#color-2)"/><path d="M209.10513,173.90249c1.61149,-5.08887 7.04321,-7.90783 12.13208,-6.29635c5.08887,1.61149 7.90783,7.04321 6.29635,12.13208c-1.61149,5.08887 -7.04321,7.90783 -12.13208,6.29635c-5.08887,-1.61149 -7.90783,-7.04321 -6.29635,-12.13208z" fill="url(#color-3)"/></g></g></g></svg>