<svg version="1.1" xmlns="http://www.w3.org/2000/svg" xmlns:xlink="http://www.w3.org/1999/xlink" width="72.9145" height="37.875" viewBox="0,0,72.9145,37.875"><defs><radialGradient cx="240.16587" cy="181.59387" r="17.0875" gradientUnits="userSpaceOnUse" id="color-1"><stop offset="0" stop-color="#68ff00"/><stop offset="1" stop-color="#68ff00" stop-opacity="0"/></radialGradient><radialGradient cx="240.11956" cy="181.14883" r="12.31641" gradientUnits="userSpaceOnUse" id="color-2"><stop offset="0" stop-color="#5500ff"/><stop offset="1" stop-color="#5500ff" stop-opacity="0"/></radialGradient></defs><g transform="translate(-220.8625,-161.0625)"><g data-paper-data="{&quot;isPaintingLayer&quot;:true}" fill-rule="nonzero" stroke-linejoin="miter" stroke-miterlimit="10" stroke-dasharray="" stroke-dashoffset="0" style="mix-blend-mode: normal"><path d="M221.8625,180c0,-9.90661 8.03089,-17.9375 17.9375,-17.9375c11.84553,0 16.3215,10.48637 16.3215,10.48637c0,0 30.54623,-0.00687 33.71329,-0.00713c2.09125,-0.00017 2.77606,1.08408 2.79346,3.26447c0.05809,3.82251 0.10602,6.84443 0.14887,9.66325c0.01428,0.93961 -0.70059,2.36094 -2.78793,2.21644c-2.26769,0.01032 -34.07729,0.20748 -34.07729,0.20748c0,0 -4.60531,9.74824 -16.1119,10.04412c-9.90334,0.25465 -17.9375,-8.03089 -17.9375,-17.9375z" data-paper-data="{&quot;origPos&quot;:null}" fill="#c1c7bb" stroke="#000000" stroke-width="2" stroke-linecap="butt"/><path d="M222.9125,180c0,-9.43716 7.65034,-17.0875 17.0875,-17.0875c9.43716,0 17.0875,7.65034 17.0875,17.0875c0,9.43716 -7.65033,17.0875 -17.0875,17.0875c-9.43716,0 -17.0875,-7.65034 -17.0875,-17.0875z" data-paper-data="{&quot;origPos&quot;:null}" fill="url(#color-1)" stroke="#ffffff" stroke-width="0" stroke-linecap="butt"/><path d="M227.68359,180c0,-6.80217 5.51424,-12.31641 12.31641,-12.31641c6.80217,0 12.31641,5.51424 12.31641,12.31641c0,6.80217 -5.51424,12.31641 -12.31641,12.31641c-6.80217,0 -12.31641,-5.51424 -12.31641,-12.31641z" data-paper-data="{&quot;origPos&quot;:null}" fill="url(#color-2)" stroke="#ffffff" stroke-width="2" stroke-linecap="butt"/><path d="M247.93013,171.12621c0,0 -0.0054,4.16304 -0.67983,6.79317c-0.61885,2.4134 -1.12428,4.37276 -3.08418,5.91101c-1.2418,0.97464 -2.32866,1.59669 -3.89672,1.77893c-1.63966,0.19056 -4.39692,-1.34599 -4.39692,-1.34599c0,0 -1.14502,0.62804 -1.64379,1.70118c-0.20111,0.4327 -0.37708,1.14715 -0.51689,1.57903c-0.21824,0.67417 -1.03468,1.0212 -1.25532,0.87231c-0.21003,-0.14173 -0.79118,-0.91424 -0.62416,-1.55028c0.10636,-0.40503 0.14517,-1.36847 0.361,-1.94234c0.41722,-1.10931 1.73079,-2.90804 1.73079,-2.90804c0,0 -0.73277,-2.509 0.57056,-4.97989c0.9408,-1.78359 4.22913,-3.33809 6.06378,-4.17495c2.80593,-1.2799 7.37167,-1.73413 7.37167,-1.73413z" data-paper-data="{&quot;origPos&quot;:null,&quot;origRot&quot;:0}" fill="#87ff00" stroke="#000000" stroke-width="1.5" stroke-linecap="butt"/><path d="M236.43952,181.87231c0,0 2.42295,-3.47007 4.32288,-5.10923c1.71887,-1.48295 4.94985,-2.89077 4.94985,-2.89077" data-paper-data="{&quot;origPos&quot;:null}" fill="none" stroke="#000000" stroke-width="1" stroke-linecap="round"/><path d="M258.4786,179.87704c0,-1.87777 1.52223,-3.4 3.4,-3.4c1.87777,0 3.4,1.52223 3.4,3.4c0,1.87777 -1.52223,3.4 -3.4,3.4c-1.87777,0 -3.4,-1.52223 -3.4,-3.4z" data-paper-data="{&quot;origPos&quot;:null}" fill="#5f5f5f" stroke="#000000" stroke-width="1" stroke-linecap="butt"/><path d="M269.6786,179.87704c0,-1.87777 1.52223,-3.4 3.4,-3.4c1.87777,0 3.4,1.52223 3.4,3.4c0,1.87777 -1.52223,3.4 -3.4,3.4c-1.87777,0 -3.4,-1.52223 -3.4,-3.4z" data-paper-data="{&quot;origPos&quot;:null}" fill="#5f5f5f" stroke="#000000" stroke-width="1" stroke-linecap="butt"/><path d="M280.87859,180.07704c0,-1.87777 1.52223,-3.4 3.4,-3.4c1.87777,0 3.4,1.52223 3.4,3.4c0,1.87777 -1.52223,3.4 -3.4,3.4c-1.87777,0 -3.4,-1.52223 -3.4,-3.4z" data-paper-data="{&quot;origPos&quot;:null}" fill="#5f5f5f" stroke="#000000" stroke-width="1" stroke-linecap="butt"/></g></g></svg>