<svg version="1.1" xmlns="http://www.w3.org/2000/svg" xmlns:xlink="http://www.w3.org/1999/xlink" width="83.56337" height="73.79319" viewBox="0,0,83.56337,73.79319"><defs><linearGradient x1="285.33408" y1="178.96226" x2="216.54182" y2="189.89153" gradientUnits="userSpaceOnUse" id="color-1"><stop offset="0" stop-color="#6fe640"/><stop offset="1" stop-color="#dfffd2"/></linearGradient><linearGradient x1="285.11733" y1="181.88887" x2="270.33063" y2="184.23809" gradientUnits="userSpaceOnUse" id="color-2"><stop offset="0" stop-color="#389920"/><stop offset="1" stop-color="#48c42a"/></linearGradient><linearGradient x1="280.55908" y1="180.09233" x2="273.33174" y2="181.24057" gradientUnits="userSpaceOnUse" id="color-3"><stop offset="0" stop-color="#3faa24"/><stop offset="1" stop-color="#50ca3f"/></linearGradient><linearGradient x1="203.30783" y1="191.06127" x2="243.38767" y2="192.88901" gradientUnits="userSpaceOnUse" id="color-4"><stop offset="0" stop-color="#6fe640"/><stop offset="1" stop-color="#dfffd2"/></linearGradient><linearGradient x1="235.60261" y1="140.83141" x2="235.60261" y2="174.16396" gradientUnits="userSpaceOnUse" id="color-5"><stop offset="0" stop-color="#26a200"/><stop offset="1" stop-color="#a3b196"/></linearGradient><linearGradient x1="235.33129" y1="135.52059" x2="235.33129" y2="168.85315" gradientUnits="userSpaceOnUse" id="color-6"><stop offset="0" stop-color="#34e000"/><stop offset="1" stop-color="#c9dab9"/></linearGradient><radialGradient cx="240.90018" cy="182.74735" r="22.28066" gradientUnits="userSpaceOnUse" id="color-7"><stop offset="0" stop-color="#e5ffd9"/><stop offset="1" stop-color="#d7ffca"/></radialGradient><linearGradient x1="220.12324" y1="183.85036" x2="257.8212" y2="183.85036" gradientUnits="userSpaceOnUse" id="color-8"><stop offset="0" stop-color="#b1e49c" stop-opacity="0"/><stop offset="1" stop-color="#b1e49c"/></linearGradient><linearGradient x1="235.02144" y1="134.67833" x2="235.02144" y2="161.68211" gradientUnits="userSpaceOnUse" id="color-9"><stop offset="0" stop-color="#3dff00"/><stop offset="1" stop-color="#ebffd8"/></linearGradient><linearGradient x1="203.62029" y1="192.72249" x2="212.23533" y2="193.11534" gradientUnits="userSpaceOnUse" id="color-10"><stop offset="0" stop-color="#389920"/><stop offset="1" stop-color="#48c42a"/></linearGradient><linearGradient x1="206.11378" y1="191.40075" x2="210.32455" y2="191.59278" gradientUnits="userSpaceOnUse" id="color-11"><stop offset="0" stop-color="#3faa24"/><stop offset="1" stop-color="#50ca3f"/></linearGradient></defs><g transform="translate(-202.73576,-132.491)"><g data-paper-data="{&quot;isPaintingLayer&quot;:true}" fill-rule="nonzero" stroke-linejoin="miter" stroke-miterlimit="10" stroke-dasharray="" stroke-dashoffset="0" style="mix-blend-mode: normal"><path d="M264.53178,200.91073c-15.28441,5.17726 -20.97446,4.41591 -20.97446,4.41591l1.46376,-2.32367c0,0 7.35115,0.19651 15.92497,-2.53035c8.85363,-2.81582 8.87626,-13.526 8.87626,-13.526l-8.70605,-13.88578c0,0 1.06554,-7.19274 3.18914,-8.95598c0.84305,-0.69999 2.95619,0.14425 3.82281,-0.52637c1.79895,-1.39207 -0.40983,-7.11652 6.52436,-1.1057c1.46474,1.26969 3.05277,3.58982 4.03823,5.25908c0.43072,0.7296 -1.36892,1.66492 -1.36892,1.66492c0,0 1.75016,-1.24481 2.23523,-0.45575c1.07386,1.74682 2.06703,2.53513 2.98111,4.37061c1.31863,2.64783 2.77429,7.09667 2.77429,7.09667c0,0 3.41915,4.46149 -7.86911,11.35015c0.5238,-3.23888 -4.83311,6.41582 -12.91164,9.15225z" data-paper-data="{&quot;origPos&quot;:null,&quot;origRot&quot;:0,&quot;index&quot;:null}" fill="url(#color-1)" stroke="#244b00" stroke-width="1" stroke-linecap="butt"/><path d="M272.34395,181.19974l4.1791,-6.63087c4.48356,-0.71232 7.50231,0.44665 8.43463,6.31489c0.93231,5.8682 -3.86866,10.33049 -8.35222,11.0428c-4.48356,0.71232 -5.41093,-2.25103 -6.34325,-8.11923c-0.93231,-5.8682 2.08174,-2.60759 2.08174,-2.60759z" data-paper-data="{&quot;origPos&quot;:null,&quot;index&quot;:null,&quot;origRot&quot;:0}" fill="url(#color-2)" stroke="#244b00" stroke-width="1" stroke-linecap="butt"/><path d="M277.34526,186.17051l-4.03689,-5.07686l3.23716,-5.93124l4.24924,6.41358z" data-paper-data="{&quot;origPos&quot;:null,&quot;origRot&quot;:0,&quot;index&quot;:null}" fill="url(#color-3)" stroke="#244b00" stroke-width="0.5" stroke-linecap="butt"/><path d="M279.98378,181.2713c1.37841,-0.21899 1.24683,1.43949 0.77597,2.75337c-0.52549,1.46632 -0.99077,2.97763 -2.52909,3.22203c-0.06512,0.01033 -1.55828,-0.86259 -1.80227,-2.39824c-0.28381,-1.78643 1.93907,-3.3204 3.55534,-3.57716z" data-paper-data="{&quot;origPos&quot;:null,&quot;index&quot;:null,&quot;origRot&quot;:0}" fill="#244b00" stroke="#244b00" stroke-width="0" stroke-linecap="butt"/><path d="M268.53846,173.50777c0,0 1.38982,-3.92338 4.12102,-4.88606c1.521,-0.5361 5.93736,0.60336 5.93736,0.60336" data-paper-data="{&quot;origPos&quot;:null,&quot;index&quot;:null,&quot;origRot&quot;:0}" fill="none" stroke="#244b00" stroke-width="1" stroke-linecap="round"/><path d="M208.64808,197.87781c-6.90475,-3.21643 -5.23485,-5.99024 -5.23485,-5.99024c0,0 0.54685,-2.64021 1.13118,-4.24067c0.40505,-1.10947 0.92282,-1.62462 1.42504,-2.69358c0.22687,-0.48289 1.30878,0.11697 1.30878,0.11697c0,0 -1.09029,-0.41953 -0.89074,-0.86488c0.45662,-1.01889 1.21625,-2.44916 1.97293,-3.27022c3.58218,-3.88689 2.68635,-0.46808 3.80567,0.21292c0.5392,0.32805 1.69443,-0.29118 2.22203,0.05524c1.32905,0.87258 2.40193,4.92106 2.40193,4.92106l-4.08949,8.50855c0,0 0.52469,1.21128 1.56274,1.53094c4.64134,2.80441 7.77778,4.12918 13.02678,5.17103c5.08313,1.00893 13.11574,1.54785 13.11574,1.54785l2.42579,2.19741c0,0 -13.92167,-1.77087 -23.00362,-3.75046c-4.80027,-1.04633 -5.45579,-0.78546 -11.17999,-3.45191z" data-paper-data="{&quot;origPos&quot;:null,&quot;origRot&quot;:0}" fill="url(#color-4)" stroke="#244b00" stroke-width="1" stroke-linecap="butt"/><path d="M248.96404,171.67989l-18.53952,1.13185c0,0 -11.14741,-3.12142 -13.82453,-5.15359c-2.92776,-2.22242 -0.80425,-3.71532 -3.98836,-5.55175c-1.93319,-1.11497 -3.0664,0.28856 -4.74168,-1.1858c-1.60225,-1.41009 -2.53322,-3.52192 1.00382,-5.62516c2.25761,-1.34245 4.69783,-1.61305 4.69783,-1.61305c0,0 -6.28279,-4.19499 0.72022,-5.14291c1.69818,-0.22987 9.05571,2.26905 9.05571,2.26905c0,0 -9.6532,-2.64948 -7.09983,-4.66466c3.21695,-2.53888 2.56492,-1.70445 6.3298,-1.07793c4.04253,0.67272 8.38121,3.01385 8.38121,3.01385c0,0 -4.1634,-2.36166 -7.05849,-4.44479c1.51131,-1.27537 3.90297,-2.23364 5.85733,-1.93185c3.2466,0.50135 7.31114,4.32625 7.31114,4.32625c0,0 -10.19625,-6.30686 -7.31947,-6.97218c0.63232,-0.14624 5.11926,0.32062 7.11544,1.22792c1.99618,0.90731 6.33146,6.78851 6.33146,6.78851c0,0 -2.35656,-1.86715 -4.03638,-4.00046c-3.26224,-4.14293 2.33501,-2.05776 5.51998,-0.68054c2.91668,1.26121 5.88075,7.3152 5.88075,7.3152l-3.39144,-5.73428c0,0 1.67284,-1.17995 2.88548,-0.37375c1.25352,0.83337 3.43375,4.57493 3.43375,4.57493l0.66936,7.65604c0,0 6.05101,-0.44193 6.05101,4.0545c0,3.83644 -3.30884,5.85062 -5.56244,7.26438c-2.39264,1.50098 -5.68211,4.53022 -5.68211,4.53022z" data-paper-data="{&quot;origPos&quot;:null}" fill="url(#color-5)" stroke="#244b00" stroke-width="1.5" stroke-linecap="butt"/><path d="M248.69271,166.36907l-18.53952,1.13184c0,0 -4.37399,-4.14699 -8.14183,-5.50509c-2.30605,-0.83121 -5.28093,-0.49143 -7.38601,-1.74737c-1.06778,-0.63706 -1.43704,-2.6026 -2.51412,-3.22379c-1.93319,-1.11497 -2.83733,0.05949 -4.51262,-1.41488c-1.60225,-1.41009 -2.53322,-3.52192 1.00382,-5.62516c2.25761,-1.34245 4.69783,-1.61305 4.69783,-1.61305c0,0 -6.28279,-4.19499 0.72022,-5.14291c1.69818,-0.22987 9.05571,2.26905 9.05571,2.26905c0,0 -9.6532,-2.64948 -7.09983,-4.66466c3.21695,-2.53888 2.56492,-1.70445 6.3298,-1.07793c4.04253,0.67272 8.38121,3.01385 8.38121,3.01385c0,0 -4.1634,-2.36165 -7.05849,-4.44479c1.51131,-1.27537 3.90297,-2.23364 5.85733,-1.93185c3.2466,0.50135 7.31113,4.32625 7.31113,4.32625c0,0 -10.19625,-6.30686 -7.31947,-6.97219c0.63232,-0.14624 5.11926,0.32062 7.11544,1.22792c1.99618,0.90731 6.33146,6.78851 6.33146,6.78851c0,0 -2.35656,-1.86715 -4.03638,-4.00046c-3.26224,-4.14293 2.33501,-2.05776 5.51998,-0.68053c2.91668,1.26121 5.88075,7.3152 5.88075,7.3152l-3.39145,-5.73429c0,0 1.67284,-1.17995 2.88548,-0.37374c1.25352,0.83337 6.64071,5.49119 6.64071,5.49119c0,0 -1.43652,4.95496 1.96665,5.08076c2.6555,0.09817 3.9504,6.3551 2.43998,8.5414c-1.2213,1.7678 -5.83169,-1.59565 -7.33474,-0.06023c-3.27918,3.34977 -4.80302,9.02694 -4.80302,9.02694z" data-paper-data="{&quot;origPos&quot;:null}" fill="url(#color-6)" stroke="#244b00" stroke-width="1.5" stroke-linecap="butt"/><path d="M245.10502,157.20283c0,0 13.37523,22.26591 12.70938,32.92245c-0.51649,8.26623 -9.01358,15.15891 -16.69204,15.15891c-9.41887,0 -19.31075,-6.59417 -20.3479,-16.69526c-0.83725,-8.15425 10.41067,-30.46915 10.41067,-30.46915z" data-paper-data="{&quot;origPos&quot;:null}" fill="url(#color-7)" stroke="#244b00" stroke-width="2" stroke-linecap="butt"/><path d="M229.16097,202.12289c-10.76787,-4.55752 -8.91651,-13.28594 -8.91651,-13.28594c0,0 0.47337,0.52498 10.42366,6.94451c9.95029,6.41953 19.25992,0.59666 22.29559,-4.8215c1.89341,-3.37939 1.72325,-6.08004 0.97159,-9.94478c-1.46135,-7.51367 -6.5167,-18.75013 -6.5167,-18.75013c0,0 9.81937,16.45504 10.4026,26.80096c0,0 -0.44326,4.20581 -1.82479,6.82602c-2.16661,4.10921 -4.58826,6.60929 -8.8017,7.90627c-6.55363,2.01733 -7.26587,2.88212 -18.03374,-1.6754z" data-paper-data="{&quot;origPos&quot;:null}" fill="url(#color-8)" stroke="#244b00" stroke-width="0" stroke-linecap="butt"/><path d="M245.84596,159.66968l-15.01947,0.91695c0,0 -9.03089,-2.52877 -11.19971,-4.1751c-2.37187,-1.80046 -0.65156,-3.0099 -3.23109,-4.49765c-1.56614,-0.90327 -2.48419,0.23377 -3.8414,-0.96067c-1.04385,-0.91865 -1.56893,-1.95045 -0.81962,-3.12181c0.46118,-0.72094 0.89725,-0.9979 1.63285,-1.43531c1.82896,-1.08756 3.80586,-1.30678 3.80586,-1.30678c0,0 -5.08988,-3.39849 0.58347,-4.16644c1.37576,-0.18622 7.33632,1.83823 7.33632,1.83823c0,0 -7.82038,-2.14644 -5.75181,-3.77899c2.60615,-2.05684 2.07793,-1.38083 5.12798,-0.87327c3.275,0.54499 6.78989,2.44162 6.78989,2.44162c0,0 -3.37291,-1.91325 -5.71831,-3.60086c1.22436,-1.03321 3.16192,-1.80955 4.74522,-1.56505c2.63017,0.40616 5.92299,3.50484 5.92299,3.50484c0,0 -6.1987,-5.10939 -3.86813,-5.64839c2.33057,-0.539 2.08566,0.25975 3.70283,0.99478c1.61717,0.73503 5.12932,5.4996 5.12932,5.4996c0,0 -1.90913,-1.51264 -3.27,-3.2409c-2.64284,-3.35632 1.89167,-1.66706 4.47192,-0.55133c2.36291,1.02175 4.76419,5.92629 4.76419,5.92629l-2.74752,-4.64554c0,0 1.35522,-0.95591 2.33762,-0.30278c1.01551,0.67514 2.78179,3.7063 2.78179,3.7063c0,0 1.61985,-1.92425 4.37688,-1.82233c3.05627,0.11298 1.80981,2.57033 1.80981,6.67003c0,4.09969 -3.4178,5.61081 -4.66176,6.88156c-2.65656,2.71376 -5.19011,7.31301 -5.19011,7.31301z" data-paper-data="{&quot;origPos&quot;:null}" fill="url(#color-9)" stroke="#244b00" stroke-width="1.5" stroke-linecap="butt"/><path d="M251.46726,176.05313c0.12776,2.97026 -1.30562,5.44423 -3.20153,5.52578c-1.89591,0.08154 -3.53641,-2.26022 -3.66417,-5.23048c-0.12776,-2.97026 1.30562,-5.44423 3.20153,-5.52578c1.89591,-0.08154 3.53641,2.26022 3.66417,5.23048z" data-paper-data="{&quot;origRot&quot;:0,&quot;origPos&quot;:null}" fill="#ffffff" stroke="#244b00" stroke-width="0.5" stroke-linecap="butt"/><path d="M242.93533,175.6391c0,0 -2.3711,3.69447 -4.52178,3.82c-2.14703,0.12531 -4.39626,-4.44762 -4.39626,-4.44762z" data-paper-data="{&quot;origPos&quot;:null}" fill="#ffffff" stroke="#244b00" stroke-width="0.5" stroke-linecap="butt"/><path d="M249.88894,169.81985c-1.53305,-0.64413 -3.53713,1.50149 -4.5095,2.85043c-0.9229,1.2803 -0.88076,2.58458 -0.88076,2.58458l-11.81183,-0.54304" data-paper-data="{&quot;origPos&quot;:null}" fill="none" stroke="#244b00" stroke-width="1" stroke-linecap="round"/><path d="M240.65102,176.37548c0,0.55461 -0.4496,1.0042 -1.0042,1.0042c-0.55461,0 -1.0042,-0.4496 -1.0042,-1.0042c0,-0.55461 0.4496,-1.0042 1.0042,-1.0042c0.55461,0 1.0042,0.4496 1.0042,1.0042z" data-paper-data="{&quot;origPos&quot;:null}" fill="#000000" stroke="none" stroke-width="0" stroke-linecap="butt"/><path d="M248.70777,175.89654c0,0.8319 -0.4496,1.5063 -1.0042,1.5063c-0.55461,0 -1.0042,-0.6744 -1.0042,-1.5063c0,-0.8319 0.4496,-1.50629 1.0042,-1.50629c0.55461,0 1.0042,0.67439 1.0042,1.50629z" data-paper-data="{&quot;origPos&quot;:null}" fill="#000000" stroke="none" stroke-width="0" stroke-linecap="butt"/><path d="M241.97221,187.95849c0,0 0.25104,-1.12662 0.25104,-2.0084c0,-0.97975 -0.25104,-2.38498 -0.25104,-2.38498l2.76154,0.12552c0,0 0.43388,1.22744 0.55091,2.09341c0.12792,0.94658 -0.17433,2.04892 -0.17433,2.04892z" data-paper-data="{&quot;origPos&quot;:null}" fill="#ffffff" stroke="#244b00" stroke-width="0.5" stroke-linecap="butt"/><path d="M235.44492,186.57772c0,0 3.81152,-2.6371 6.2511,-3.03951c2.31224,-0.3814 5.92482,1.03111 5.92482,1.03111" data-paper-data="{&quot;origPos&quot;:null}" fill="none" stroke="#244b00" stroke-width="1" stroke-linecap="round"/><path d="M212.24678,192.86438c-0.15591,3.41893 -0.496,5.17485 -3.10822,5.05573c-2.61221,-0.11913 -5.6475,-2.36429 -5.49159,-5.78321c0.15591,-3.41893 1.80922,-4.27664 4.42143,-4.15755l2.81891,3.52647c0,0 1.51536,-2.06039 1.35944,1.35855z" data-paper-data="{&quot;origPos&quot;:null,&quot;origRot&quot;:0}" fill="url(#color-10)" stroke="#244b00" stroke-width="1" stroke-linecap="butt"/><path d="M206.07435,192.26516l2.01942,-3.94462l2.23472,3.18662l-1.98389,3.16583z" data-paper-data="{&quot;origPos&quot;:null,&quot;origRot&quot;:0}" fill="url(#color-11)" stroke="#244b00" stroke-width="0.5" stroke-linecap="butt"/><path d="M208.78426,193.85725c-0.0408,0.89471 -0.83927,1.49049 -0.87721,1.48875c-0.89627,-0.04086 -1.25987,-0.87599 -1.65504,-1.68149c-0.35411,-0.72174 -0.53616,-1.66258 0.26693,-1.62596c0.94168,0.04294 2.31278,0.77789 2.26532,1.81867z" data-paper-data="{&quot;origPos&quot;:null,&quot;origRot&quot;:0}" fill="#244b00" stroke="#244b00" stroke-width="0" stroke-linecap="butt"/><path d="M206.53743,185.05409c0,0 2.45455,-0.93649 3.35967,-0.72754c1.62528,0.37523 2.67336,2.53146 2.67336,2.53146" data-paper-data="{&quot;origPos&quot;:null,&quot;origRot&quot;:0}" fill="none" stroke="#244b00" stroke-width="1" stroke-linecap="round"/></g></g></svg>