<svg version="1.1" xmlns="http://www.w3.org/2000/svg" xmlns:xlink="http://www.w3.org/1999/xlink" width="48.91575" height="42.66626" viewBox="0,0,48.91575,42.66626"><defs><linearGradient x1="240.79448" y1="158.30271" x2="240.79448" y2="195.88677" gradientUnits="userSpaceOnUse" id="color-1"><stop offset="0" stop-color="#ffabf2"/><stop offset="1" stop-color="#f3ffd9"/></linearGradient><linearGradient x1="241.07111" y1="159.8985" x2="241.07111" y2="196.22952" gradientUnits="userSpaceOnUse" id="color-2"><stop offset="0" stop-color="#ffabf2"/><stop offset="1" stop-color="#f3ffd9"/></linearGradient><linearGradient x1="250.97592" y1="195.24907" x2="264.81834" y2="195.24907" gradientUnits="userSpaceOnUse" id="color-3"><stop offset="0" stop-color="#2fe500"/><stop offset="1" stop-color="#51b800"/></linearGradient><linearGradient x1="225.79245" y1="196.46674" x2="239.40576" y2="196.46674" gradientUnits="userSpaceOnUse" id="color-4"><stop offset="0" stop-color="#2fe500"/><stop offset="1" stop-color="#51b800"/></linearGradient><linearGradient x1="240.6972" y1="197.09764" x2="255.07481" y2="197.09764" gradientUnits="userSpaceOnUse" id="color-5"><stop offset="0" stop-color="#2fe500"/><stop offset="1" stop-color="#51b800"/></linearGradient></defs><g transform="translate(-216.90259,-158.99435)"><g data-paper-data="{&quot;isPaintingLayer&quot;:true}" fill-rule="nonzero" stroke-linecap="butt" stroke-linejoin="miter" stroke-miterlimit="10" stroke-dasharray="" stroke-dashoffset="0" style="mix-blend-mode: normal"><path d="M219.49381,180.54892c-0.52192,-12.6149 12.93459,-11.82084 15.922,-19.93883c0.68577,-1.8635 3.38449,0.581 6.0115,0.91629c2.71725,0.34681 5.35777,-1.37138 5.61458,-0.70344c2.37814,6.18524 14.13115,8.21668 16.34421,19.38323c0.17673,6.10249 -10.01276,15.68061 -22.59162,15.68061c-12.57886,0 -21.04829,-9.23766 -21.30067,-15.33785z" fill="url(#color-1)" stroke="#244b00" stroke-width="1.5"/><path d="M253.24292,178.06401c0,10.03253 -6.16248,18.16551 -12.17181,18.16551c-6.00933,0 -11.98739,-8.13298 -11.98739,-18.16551c0,-10.03253 11.98739,-18.16551 11.98739,-18.16551c0,0 12.17181,8.13298 12.17181,18.16551z" fill="url(#color-2)" stroke="#244b00" stroke-width="1.5"/><path d="M230.95356,195.86166c0.27506,2.50277 -12.78189,3.88732 -13.05696,1.38456c-0.27506,-2.50277 2.85419,-5.1457 6.30702,-5.41984c3.45283,-0.27414 6.47488,1.53251 6.74994,4.03528z" data-paper-data="{&quot;origRot&quot;:0}" fill="#25b800" stroke="#000000" stroke-width="2"/><path d="M250.98046,195.96302c0.29114,-2.63469 3.4898,-4.53657 7.14441,-4.24798c3.65461,0.28859 6.96675,3.07083 6.6756,5.70552c-0.29114,2.63467 -14.11116,1.17714 -13.82002,-1.45755z" data-paper-data="{&quot;origRot&quot;:0,&quot;index&quot;:null}" fill="url(#color-3)" stroke="#000000" stroke-width="2"/><path d="M239.4013,197.14494c0.28633,2.50276 -13.30496,3.88732 -13.59129,1.38456c-0.28633,-2.50276 2.97099,-5.1457 6.56512,-5.41984c3.59412,-0.27414 6.73984,1.53252 7.02617,4.03528z" data-paper-data="{&quot;origRot&quot;:0}" fill="url(#color-4)" stroke="#000000" stroke-width="2"/><path d="M248.12255,193.56362c3.79591,0.28859 7.23611,3.07083 6.93371,5.70551c-0.3024,2.63467 -14.65674,1.17714 -14.35434,-1.45755c0,0 3.62472,-4.53654 7.42063,-4.24796z" data-paper-data="{&quot;origRot&quot;:0,&quot;index&quot;:null}" fill="url(#color-5)" stroke="#000000" stroke-width="2"/><path d="M239.17744,185.91974c0,1.8432 -0.81502,3.33741 -1.82041,3.33741c-1.00538,0 -1.82041,-1.49421 -1.82041,-3.33741c0,-1.8432 0.81502,-3.33741 1.82041,-3.33741c1.00538,0 1.82041,1.49421 1.82041,3.33741z" fill="#000000" stroke="none" stroke-width="0"/><path d="M246.71124,185.90471c0,1.8432 -0.81502,3.33741 -1.82041,3.33741c-1.00538,0 -1.82041,-1.49421 -1.82041,-3.33741c0,-1.8432 0.81502,-3.33741 1.82041,-3.33741c1.00538,0 1.82041,1.49421 1.82041,3.33741z" fill="#000000" stroke="none" stroke-width="0"/></g></g></svg>