<svg version="1.1" xmlns="http://www.w3.org/2000/svg" xmlns:xlink="http://www.w3.org/1999/xlink" width="62.7813" height="42.89567" viewBox="0,0,62.7813,42.89567"><g transform="translate(-217.4,-178.9625)"><g data-paper-data="{&quot;isPaintingLayer&quot;:true}" fill-rule="nonzero" stroke-linecap="butt" stroke-linejoin="miter" stroke-miterlimit="10" stroke-dasharray="" stroke-dashoffset="0" style="mix-blend-mode: normal"><path d="M218.4,190.3625v-8.4h19.4v8.4z" data-paper-data="{&quot;origPos&quot;:null}" fill="#c07a00" stroke="#000000" stroke-width="2"/><path d="M230.4,199.9625v-20h19.4v20z" data-paper-data="{&quot;origPos&quot;:null}" fill="#c07a00" stroke="#000000" stroke-width="2"/><path d="M231,218.1625v-17.4h8v17.4z" data-paper-data="{&quot;origPos&quot;:null}" fill="#4c517f" stroke="#000000" stroke-width="2"/><path d="M241,218.1625v-17.6h8v17.6z" data-paper-data="{&quot;origPos&quot;:null}" fill="#4c517f" stroke="#000000" stroke-width="2"/><path d="M223.8142,220.85817v-8.4h19.4v8.4z" fill="#c07a00" stroke="#000000" stroke-width="2"/><path d="M268.79463,220.02504c-6.48022,0.67172 -12.33647,-4.60085 -13.08029,-11.77662c-0.74382,-7.17577 3.90646,-13.53742 10.38667,-14.20914c6.48022,-0.67172 12.33647,4.60085 13.08029,11.77662c0.74382,7.17577 -3.90646,13.53741 -10.38667,14.20913z" fill="#b2b2b2" stroke="#000000" stroke-width="2"/><path d="M271.06648,206.09157c-1.64802,0.17083 -3.09653,-0.77618 -3.23533,-2.11519c-0.1388,-1.33902 1.08468,-2.56299 2.73269,-2.73383c1.64802,-0.17083 3.09653,0.77618 3.23533,2.11519c0.1388,1.33902 -1.08468,2.56299 -2.73269,2.73383z" fill="#ff0000" stroke="none" stroke-width="0"/><path d="M270.30078,200.03825c-1.47636,0.15303 -2.77127,-0.66923 -2.89227,-1.83658c-0.121,-1.16736 0.97772,-2.23774 2.45408,-2.39077c1.47636,-0.15303 2.77127,0.66923 2.89227,1.83658c0.121,1.16736 -0.97772,2.23774 -2.45408,2.39077z" fill="#ff0000" stroke="none" stroke-width="0"/></g></g></svg>