<svg version="1.1" xmlns="http://www.w3.org/2000/svg" xmlns:xlink="http://www.w3.org/1999/xlink" width="85.31443" height="73.54319" viewBox="0,0,85.31443,73.54319"><defs><linearGradient x1="285.51343" y1="180.95776" x2="216.18946" y2="187.74096" gradientUnits="userSpaceOnUse" id="color-1"><stop offset="0" stop-color="#6fe640"/><stop offset="1" stop-color="#dfffd2"/></linearGradient><linearGradient x1="285.12152" y1="183.8661" x2="270.22053" y2="185.32414" gradientUnits="userSpaceOnUse" id="color-2"><stop offset="0" stop-color="#389920"/><stop offset="1" stop-color="#48c42a"/></linearGradient><linearGradient x1="280.67924" y1="181.79938" x2="273.39604" y2="182.51203" gradientUnits="userSpaceOnUse" id="color-3"><stop offset="0" stop-color="#3faa24"/><stop offset="1" stop-color="#50ca3f"/></linearGradient><linearGradient x1="201.60339" y1="190.15887" x2="241.60062" y2="193.31412" gradientUnits="userSpaceOnUse" id="color-4"><stop offset="0" stop-color="#6fe640"/><stop offset="1" stop-color="#dfffd2"/></linearGradient><linearGradient x1="235.60261" y1="141.08141" x2="235.60261" y2="174.41396" gradientUnits="userSpaceOnUse" id="color-5"><stop offset="0" stop-color="#26a200"/><stop offset="1" stop-color="#a3b196"/></linearGradient><linearGradient x1="235.33129" y1="135.77059" x2="235.33129" y2="169.10315" gradientUnits="userSpaceOnUse" id="color-6"><stop offset="0" stop-color="#34e000"/><stop offset="1" stop-color="#c9dab9"/></linearGradient><radialGradient cx="240.90018" cy="182.74735" r="22.28066" gradientUnits="userSpaceOnUse" id="color-7"><stop offset="0" stop-color="#e5ffd9"/><stop offset="1" stop-color="#d7ffca"/></radialGradient><linearGradient x1="220.12324" y1="183.85036" x2="257.8212" y2="183.85036" gradientUnits="userSpaceOnUse" id="color-8"><stop offset="0" stop-color="#b1e49c" stop-opacity="0"/><stop offset="1" stop-color="#b1e49c"/></linearGradient><linearGradient x1="235.02144" y1="134.92833" x2="235.02144" y2="161.93211" gradientUnits="userSpaceOnUse" id="color-9"><stop offset="0" stop-color="#3dff00"/><stop offset="1" stop-color="#ebffd8"/></linearGradient><linearGradient x1="201.86061" y1="191.82952" x2="210.4579" y2="192.50773" gradientUnits="userSpaceOnUse" id="color-10"><stop offset="0" stop-color="#389920"/><stop offset="1" stop-color="#48c42a"/></linearGradient><linearGradient x1="204.39655" y1="190.59116" x2="208.59864" y2="190.92266" gradientUnits="userSpaceOnUse" id="color-11"><stop offset="0" stop-color="#3faa24"/><stop offset="1" stop-color="#50ca3f"/></linearGradient></defs><g transform="translate(-200.97611,-132.741)"><g data-paper-data="{&quot;isPaintingLayer&quot;:true}" fill-rule="nonzero" stroke-linejoin="miter" stroke-miterlimit="10" stroke-dasharray="" stroke-dashoffset="0" style="mix-blend-mode: normal"><path d="M263.43204,201.61892c-15.56744,4.25113 -21.20157,3.14984 -21.20157,3.14984l1.60051,-2.23168c0,0 7.32613,0.6371 16.04807,-1.57056c9.00659,-2.27968 9.67161,-12.96922 9.67161,-12.96922l-7.85746,-14.383c0,0 1.49507,-7.11587 3.72061,-8.74856c0.88352,-0.64816 2.94221,0.32131 3.8475,-0.29612c1.87921,-1.28166 0.01778,-7.12829 6.57894,-0.71236c1.38594,1.35526 2.83194,3.76647 3.7155,5.49184c0.38618,0.75412 -1.46632,1.57981 -1.46632,1.57981c0,0 1.82168,-1.13759 2.25854,-0.32085c0.96715,1.80809 1.91124,2.65455 2.71358,4.54156c1.15743,2.72216 2.34361,7.2503 2.34361,7.2503c0,0 3.14538,4.65855 -8.53576,10.8577c0.71714,-3.20163 -5.20925,6.11436 -13.43737,8.36129z" data-paper-data="{&quot;origPos&quot;:null,&quot;origRot&quot;:0,&quot;index&quot;:null}" fill="url(#color-1)" stroke="#244b00" stroke-width="1" stroke-linecap="butt"/><path d="M272.41248,182.41202l4.56932,-6.36825c4.51821,-0.4421 7.46201,0.89586 8.04065,6.80946c0.57864,5.91356 -4.48135,10.07983 -8.99957,10.52192c-4.51821,0.4421 -5.26616,-2.57154 -5.84481,-8.4851c-0.57864,-5.91356 2.2344,-2.47802 2.2344,-2.47802z" data-paper-data="{&quot;origPos&quot;:null,&quot;index&quot;:null,&quot;origRot&quot;:0}" fill="url(#color-2)" stroke="#244b00" stroke-width="1" stroke-linecap="butt"/><path d="M277.10662,187.67384l-3.72509,-5.30986l3.58711,-5.72638l3.85688,6.65692z" data-paper-data="{&quot;origPos&quot;:null,&quot;origRot&quot;:0,&quot;index&quot;:null}" fill="url(#color-3)" stroke="#244b00" stroke-width="0.5" stroke-linecap="butt"/><path d="M280.03426,182.94172c1.38906,-0.13591 1.15824,1.51169 0.60942,2.79496c-0.6125,1.43216 -1.16759,2.91284 -2.7178,3.06452c-0.06562,0.00641 -1.50373,-0.95451 -1.65517,-2.50203c-0.17614,-1.80024 2.13475,-3.19811 3.76351,-3.35746z" data-paper-data="{&quot;origPos&quot;:null,&quot;index&quot;:null,&quot;origRot&quot;:0}" fill="#244b00" stroke="#244b00" stroke-width="0" stroke-linecap="butt"/><path d="M269.07523,174.50564c0,0 1.62266,-3.83295 4.40668,-4.63007c1.55042,-0.4439 5.89048,0.95842 5.89048,0.95842" data-paper-data="{&quot;origPos&quot;:null,&quot;index&quot;:null,&quot;origRot&quot;:0}" fill="none" stroke="#244b00" stroke-width="1" stroke-linecap="round"/><path d="M206.71476,197.14867c-6.79434,-3.44354 -5.03342,-6.16047 -5.03342,-6.16047c0,0 0.63406,-2.62063 1.27112,-4.20084c0.4416,-1.09543 0.97617,-1.59314 1.51354,-2.64486c0.24276,-0.47511 1.30418,0.16029 1.30418,0.16029c0,0 -1.07579,-0.45544 -0.86158,-0.89393c0.49014,-1.0032 1.29677,-2.4075 2.08025,-3.20303c3.70905,-3.76602 2.70039,-0.37878 3.79653,0.33895c0.52803,0.34574 1.70315,-0.23486 2.21898,0.12887c1.2994,0.91616 2.23749,4.99797 2.23749,4.99797l-4.36928,8.36832c0,0 0.48425,1.22801 1.51113,1.5819c4.54583,2.95671 7.63664,4.38472 12.84822,5.59999c5.04689,1.17687 13.05723,1.98175 13.05723,1.98175l2.35162,2.27661c0,0 -13.85532,-2.23136 -22.86666,-4.51091c-4.76295,-1.20487 -5.42676,-0.96587 -11.05943,-3.8206z" data-paper-data="{&quot;origPos&quot;:null,&quot;origRot&quot;:0}" fill="url(#color-4)" stroke="#244b00" stroke-width="1" stroke-linecap="butt"/><path d="M248.96404,171.92989l-18.53952,1.13185c0,0 -11.14741,-3.12142 -13.82453,-5.15359c-2.92776,-2.22242 -0.80425,-3.71532 -3.98836,-5.55175c-1.93319,-1.11497 -3.0664,0.28856 -4.74168,-1.1858c-1.60225,-1.41009 -2.53322,-3.52192 1.00382,-5.62516c2.25761,-1.34245 4.69783,-1.61305 4.69783,-1.61305c0,0 -6.28279,-4.19499 0.72022,-5.14291c1.69818,-0.22987 9.05571,2.26905 9.05571,2.26905c0,0 -9.6532,-2.64948 -7.09983,-4.66466c3.21695,-2.53888 2.56492,-1.70445 6.3298,-1.07793c4.04253,0.67272 8.38121,3.01385 8.38121,3.01385c0,0 -4.1634,-2.36166 -7.05849,-4.44479c1.51131,-1.27537 3.90297,-2.23364 5.85733,-1.93185c3.2466,0.50135 7.31114,4.32625 7.31114,4.32625c0,0 -10.19625,-6.30686 -7.31947,-6.97218c0.63232,-0.14624 5.11926,0.32062 7.11544,1.22792c1.99618,0.90731 6.33146,6.78851 6.33146,6.78851c0,0 -2.35656,-1.86715 -4.03638,-4.00046c-3.26224,-4.14293 2.33501,-2.05776 5.51998,-0.68054c2.91668,1.26121 5.88075,7.3152 5.88075,7.3152l-3.39144,-5.73428c0,0 1.67284,-1.17995 2.88548,-0.37375c1.25352,0.83337 3.43375,4.57493 3.43375,4.57493l0.66936,7.65604c0,0 6.05101,-0.44193 6.05101,4.0545c0,3.83644 -3.30884,5.85062 -5.56244,7.26438c-2.39264,1.50098 -5.68211,4.53022 -5.68211,4.53022z" data-paper-data="{&quot;origPos&quot;:null}" fill="url(#color-5)" stroke="#244b00" stroke-width="1.5" stroke-linecap="butt"/><path d="M248.69271,166.61907l-18.53952,1.13184c0,0 -4.37399,-4.14699 -8.14183,-5.50509c-2.30605,-0.83121 -5.28093,-0.49143 -7.38601,-1.74737c-1.06778,-0.63706 -1.43704,-2.6026 -2.51412,-3.22379c-1.93319,-1.11497 -2.83733,0.05949 -4.51262,-1.41488c-1.60225,-1.41009 -2.53322,-3.52192 1.00382,-5.62516c2.25761,-1.34245 4.69783,-1.61305 4.69783,-1.61305c0,0 -6.28279,-4.19499 0.72022,-5.14291c1.69818,-0.22987 9.05571,2.26905 9.05571,2.26905c0,0 -9.6532,-2.64948 -7.09983,-4.66466c3.21695,-2.53888 2.56492,-1.70445 6.3298,-1.07793c4.04253,0.67272 8.38121,3.01385 8.38121,3.01385c0,0 -4.1634,-2.36165 -7.05849,-4.44479c1.51131,-1.27537 3.90297,-2.23364 5.85733,-1.93185c3.2466,0.50135 7.31113,4.32625 7.31113,4.32625c0,0 -10.19625,-6.30686 -7.31947,-6.97219c0.63232,-0.14624 5.11926,0.32062 7.11544,1.22792c1.99618,0.90731 6.33146,6.78851 6.33146,6.78851c0,0 -2.35656,-1.86715 -4.03638,-4.00046c-3.26224,-4.14293 2.33501,-2.05776 5.51998,-0.68053c2.91668,1.26121 5.88075,7.3152 5.88075,7.3152l-3.39145,-5.73429c0,0 1.67284,-1.17995 2.88548,-0.37374c1.25352,0.83337 6.64071,5.49119 6.64071,5.49119c0,0 -1.43652,4.95496 1.96665,5.08076c2.6555,0.09817 3.9504,6.3551 2.43998,8.5414c-1.2213,1.7678 -5.83169,-1.59565 -7.33474,-0.06023c-3.27918,3.34977 -4.80302,9.02694 -4.80302,9.02694z" data-paper-data="{&quot;origPos&quot;:null}" fill="url(#color-6)" stroke="#244b00" stroke-width="1.5" stroke-linecap="butt"/><path d="M245.10502,157.20283c0,0 13.37523,22.26591 12.70938,32.92245c-0.51649,8.26623 -9.01358,15.15891 -16.69204,15.15891c-9.41887,0 -19.31075,-6.59417 -20.3479,-16.69526c-0.83725,-8.15425 10.41067,-30.46915 10.41067,-30.46915z" data-paper-data="{&quot;origPos&quot;:null}" fill="url(#color-7)" stroke="#244b00" stroke-width="2" stroke-linecap="butt"/><path d="M229.16097,202.12289c-10.76787,-4.55752 -8.91651,-13.28594 -8.91651,-13.28594c0,0 0.47337,0.52498 10.42366,6.94451c9.95029,6.41953 19.25992,0.59666 22.29559,-4.8215c1.89341,-3.37939 1.72325,-6.08004 0.97159,-9.94478c-1.46135,-7.51367 -6.5167,-18.75013 -6.5167,-18.75013c0,0 9.81937,16.45504 10.4026,26.80096c0,0 -0.44326,4.20581 -1.82479,6.82602c-2.16661,4.10921 -4.58826,6.60929 -8.8017,7.90627c-6.55363,2.01733 -7.26587,2.88212 -18.03374,-1.6754z" data-paper-data="{&quot;origPos&quot;:null}" fill="url(#color-8)" stroke="#244b00" stroke-width="0" stroke-linecap="butt"/><path d="M245.84596,159.91968l-15.01947,0.91695c0,0 -9.03089,-2.52877 -11.19971,-4.1751c-2.37187,-1.80046 -0.65156,-3.0099 -3.23109,-4.49765c-1.56614,-0.90327 -2.48419,0.23377 -3.8414,-0.96067c-1.04385,-0.91865 -1.56893,-1.95045 -0.81962,-3.12181c0.46118,-0.72094 0.89725,-0.9979 1.63285,-1.43531c1.82896,-1.08756 3.80586,-1.30678 3.80586,-1.30678c0,0 -5.08988,-3.39849 0.58347,-4.16644c1.37576,-0.18622 7.33632,1.83823 7.33632,1.83823c0,0 -7.82038,-2.14644 -5.75181,-3.77899c2.60615,-2.05684 2.07793,-1.38083 5.12798,-0.87327c3.275,0.54499 6.78989,2.44162 6.78989,2.44162c0,0 -3.37291,-1.91325 -5.71831,-3.60086c1.22436,-1.03321 3.16192,-1.80955 4.74522,-1.56505c2.63017,0.40616 5.92299,3.50484 5.92299,3.50484c0,0 -6.1987,-5.10939 -3.86813,-5.64839c2.33057,-0.539 2.08566,0.25975 3.70283,0.99478c1.61717,0.73503 5.12932,5.4996 5.12932,5.4996c0,0 -1.90913,-1.51264 -3.27,-3.2409c-2.64284,-3.35632 1.89167,-1.66706 4.47192,-0.55133c2.36291,1.02175 4.76419,5.92629 4.76419,5.92629l-2.74752,-4.64554c0,0 1.35522,-0.95591 2.33762,-0.30278c1.01551,0.67514 2.78179,3.7063 2.78179,3.7063c0,0 1.61985,-1.92425 4.37688,-1.82233c3.05627,0.11298 1.80981,2.57033 1.80981,6.67003c0,4.09969 -3.4178,5.61081 -4.66176,6.88156c-2.65656,2.71376 -5.19011,7.31301 -5.19011,7.31301z" data-paper-data="{&quot;origPos&quot;:null}" fill="url(#color-9)" stroke="#244b00" stroke-width="1.5" stroke-linecap="butt"/><path d="M251.46726,176.05313c0.12776,2.97026 -1.30562,5.44423 -3.20153,5.52578c-1.89591,0.08154 -3.53641,-2.26022 -3.66417,-5.23048c-0.12776,-2.97026 1.30562,-5.44423 3.20153,-5.52578c1.89591,-0.08154 3.53641,2.26022 3.66417,5.23048z" data-paper-data="{&quot;origRot&quot;:0,&quot;origPos&quot;:null}" fill="#ffffff" stroke="#244b00" stroke-width="0.5" stroke-linecap="butt"/><path d="M242.93533,175.6391c0,0 -2.3711,3.69447 -4.52178,3.82c-2.14703,0.12531 -4.39626,-4.44762 -4.39626,-4.44762z" data-paper-data="{&quot;origPos&quot;:null}" fill="#ffffff" stroke="#244b00" stroke-width="0.5" stroke-linecap="butt"/><path d="M249.88894,169.81985c-1.53305,-0.64413 -3.53713,1.50149 -4.5095,2.85043c-0.9229,1.2803 -0.88076,2.58458 -0.88076,2.58458l-11.81183,-0.54304" data-paper-data="{&quot;origPos&quot;:null}" fill="none" stroke="#244b00" stroke-width="1" stroke-linecap="round"/><path d="M240.65102,176.37548c0,0.55461 -0.4496,1.0042 -1.0042,1.0042c-0.55461,0 -1.0042,-0.4496 -1.0042,-1.0042c0,-0.55461 0.4496,-1.0042 1.0042,-1.0042c0.55461,0 1.0042,0.4496 1.0042,1.0042z" data-paper-data="{&quot;origPos&quot;:null}" fill="#000000" stroke="none" stroke-width="0" stroke-linecap="butt"/><path d="M248.70777,175.89654c0,0.8319 -0.4496,1.5063 -1.0042,1.5063c-0.55461,0 -1.0042,-0.6744 -1.0042,-1.5063c0,-0.8319 0.4496,-1.50629 1.0042,-1.50629c0.55461,0 1.0042,0.67439 1.0042,1.50629z" data-paper-data="{&quot;origPos&quot;:null}" fill="#000000" stroke="none" stroke-width="0" stroke-linecap="butt"/><path d="M241.97221,187.95849c0,0 0.25104,-1.12662 0.25104,-2.0084c0,-0.97975 -0.25104,-2.38498 -0.25104,-2.38498l2.76154,0.12552c0,0 0.43388,1.22744 0.55091,2.09341c0.12792,0.94658 -0.17433,2.04892 -0.17433,2.04892z" data-paper-data="{&quot;origPos&quot;:null}" fill="#ffffff" stroke="#244b00" stroke-width="0.5" stroke-linecap="butt"/><path d="M235.44492,186.57772c0,0 3.81152,-2.6371 6.2511,-3.03951c2.31224,-0.3814 5.92482,1.03111 5.92482,1.03111" data-paper-data="{&quot;origPos&quot;:null}" fill="none" stroke="#244b00" stroke-width="1" stroke-linecap="round"/><path d="M210.47766,192.25728c-0.26915,3.41188 -0.66726,5.15556 -3.2741,4.94992c-2.60683,-0.20565 -5.56602,-2.55018 -5.29687,-5.96206c0.26915,-3.41188 1.94998,-4.21432 4.55681,-4.00871l2.70047,3.61797c0,0 1.58283,-2.00903 1.31366,1.40287z" data-paper-data="{&quot;origPos&quot;:null,&quot;origRot&quot;:0}" fill="url(#color-10)" stroke="#244b00" stroke-width="1" stroke-linecap="butt"/><path d="M204.32849,191.45379l2.14906,-3.87551l2.12786,3.25894l-2.08774,3.09833z" data-paper-data="{&quot;origPos&quot;:null,&quot;origRot&quot;:0}" fill="url(#color-11)" stroke="#244b00" stroke-width="0.5" stroke-linecap="butt"/><path d="M206.98413,193.13483c-0.07044,0.89287 -0.88822,1.46185 -0.92607,1.45886c-0.89443,-0.07054 -1.23015,-0.91727 -1.59839,-1.73543c-0.32999,-0.73308 -0.48076,-1.67944 0.32068,-1.61622c0.93974,0.07413 2.28572,0.85413 2.20379,1.89276z" data-paper-data="{&quot;origPos&quot;:null,&quot;origRot&quot;:0}" fill="#244b00" stroke="#244b00" stroke-width="0" stroke-linecap="butt"/><path d="M205.03034,184.26203c0,0 2.48425,-0.85462 3.38194,-0.61577c1.61195,0.4289 2.58798,2.61868 2.58798,2.61868" data-paper-data="{&quot;origPos&quot;:null,&quot;origRot&quot;:0}" fill="none" stroke="#244b00" stroke-width="1" stroke-linecap="round"/></g></g></svg>