<svg version="1.1" xmlns="http://www.w3.org/2000/svg" xmlns:xlink="http://www.w3.org/1999/xlink" width="33.41668" height="36.26478" viewBox="0,0,33.41668,36.26478"><defs><radialGradient cx="241.20834" cy="174.0178" r="15.70834" gradientUnits="userSpaceOnUse" id="color-1"><stop offset="0" stop-color="#c8d6ca"/><stop offset="1" stop-color="#05ad27"/></radialGradient><radialGradient cx="232.20834" cy="179.0178" r="14.20009" gradientUnits="userSpaceOnUse" id="color-2"><stop offset="0" stop-color="#83dd6c"/><stop offset="1" stop-color="#28bd46"/></radialGradient><radialGradient cx="248.70834" cy="180.8928" r="10.81764" gradientUnits="userSpaceOnUse" id="color-3"><stop offset="0" stop-color="#83dd6c"/><stop offset="1" stop-color="#5dc572"/></radialGradient></defs><g transform="translate(-223.29166,-162.24261)"><g data-paper-data="{&quot;isPaintingLayer&quot;:true}" fill-rule="nonzero" stroke-linejoin="miter" stroke-miterlimit="10" stroke-dasharray="" stroke-dashoffset="0" style="mix-blend-mode: normal"><path d="M224.29166,181.42405c0,-8.67546 7.03284,-16.08334 15.70834,-16.08334c8.67546,0 15.70834,7.40784 15.70834,16.08334c0,8.67546 -7.03284,16.08334 -15.70834,16.08334c-8.67546,0 -15.70834,-7.40784 -15.70834,-16.08334z" fill="url(#color-1)" stroke="#000000" stroke-width="2" stroke-linecap="butt"/><path d="M250.82187,191.35572c-2.79875,3.02946 -3.7164,2.72476 -5.86868,2.68402c-4.11426,-0.07788 -10.24485,-3.2063 -10.24485,-3.2063c0,0 6.44658,-1.29838 9.57778,-3.98715c2.7914,-2.39699 3.98612,-5.47309 2.98049,-9.01233c-0.66359,-2.33544 -2.30621,-3.89022 -2.35176,-6.31769c-0.02561,-1.36515 1.85565,-3.37347 1.85565,-3.37347c0,0 0.83307,1.09094 3.2272,2.45732c1.60721,0.91727 2.36927,3.21289 3.36244,4.77434c1.34941,2.12153 1.1911,4.02824 1.1911,6.54256c0,5.66449 -1.11329,6.60695 -3.72938,9.43869z" data-paper-data="{&quot;index&quot;:null}" fill="#27b33c" stroke="#1c802b" stroke-width="0.5" stroke-linecap="butt"/><path d="M225.33334,181.5803c0,-3.04899 0.56593,-5.36115 2.20229,-7.93383c1.20436,-1.8935 2.88638,-3.91936 4.83537,-5.0317c2.90326,-1.65696 7.39984,-2.22197 7.39984,-2.22197c0,0 -4.90461,7.7755 -5.60378,10.23617c-1.21948,4.29186 0.22929,8.0221 3.61429,10.92881c3.79706,3.26054 11.6145,4.83501 11.6145,4.83501c0,0 -6.43095,6.04659 -12.37081,3.77767c0,0 -4.50685,-1.27236 -6.8661,-3.59907c-3.02082,-2.97916 -4.82559,-4.12205 -4.82559,-10.9911z" fill="#27b33c" stroke="#1c802b" stroke-width="0.5" stroke-linecap="butt"/><path d="M233.70834,178.6428c0,0 4.43481,-5.16061 6.87329,-5.1834c1.29653,-0.01212 1.20664,3.03977 2.22538,3.84185c0.99925,0.78675 1.13809,-0.93326 2.39747,-0.756c0.48637,0.06846 1.87886,1.97254 1.87886,1.97254" fill="none" stroke="#1c802b" stroke-width="0.5" stroke-linecap="round"/><path d="M243.20834,167.0178c0,0 -1.3015,1.00582 -1.57449,1.80961c-0.31574,0.92968 1.74326,1.48679 1.62619,2.46161c-0.10988,0.91489 -2.3017,2.35378 -2.3017,2.35378" fill="none" stroke="#1c802b" stroke-width="0.5" stroke-linecap="round"/><path d="M229.45834,180.5178c0.1994,-1.98301 1.03377,-0.60401 2.06512,-2.30943c0.39186,-0.64798 -1.39196,-3.13992 -1.01037,-3.794c0.8787,-1.50615 1.41449,-0.79947 2.70638,-1.97062c1.38853,-1.25875 -2.37196,-5.26138 -1.04719,-6.58707c1.11247,-1.11325 1.98787,1.32327 3.55413,1.47736c1.07345,0.1056 0.41847,-4.3578 1.40734,-4.78861c0.8588,-0.37414 0.79588,1.3345 1.29932,2.12448c0.20429,0.32057 1.6033,-1.27183 1.87011,-1.00106c0.27425,0.27832 1.64419,0.97442 1.55388,1.35457c-0.10369,0.43645 -1.00576,-0.4064 -1.42491,-0.24655c-0.4661,0.17776 -0.72381,1.24091 -0.72381,1.24091c0,0 -4.01047,5.93877 -5.28904,9.65458c-1.09079,3.17009 -0.9891,4.74275 0.15293,7.89474c1.76052,4.85904 8.38611,7.32568 8.38611,7.32568c0,0 -13.94434,-5.95597 -13.5,-10.375z" fill="url(#color-2)" stroke="#256d2f" stroke-width="0.5" stroke-linecap="butt"/><path d="M245.58334,186.26779c0,0 3.3755,-4.93686 2.16025,-8.50732c-1.00847,-2.96291 -2.4559,-3.26703 -2.54959,-6.23829c-0.10583,-3.35608 2.01434,-4.37939 2.01434,-4.37939c0,0 -1.97698,-2.59725 -1.57432,-1.93199c0.59159,0.9774 2.09117,-1.20009 2.90303,-0.39625c0.56368,0.55812 -0.00537,0.82966 0.49121,2.52102c0.16222,0.55254 1.42738,1.13588 1.39948,1.71106c-0.05408,1.11485 -1.63149,1.47374 -1.9224,2.55134c-0.40914,1.51557 3.48787,3.59768 3.50931,5.16735c0.0416,3.04479 -0.47971,0.7671 -2.23496,2.91463c-1.57142,1.92262 1.8202,0.24322 1.61844,2.71813c-0.31799,3.90057 -5.81479,3.86972 -5.81479,3.86972z" fill="url(#color-3)" stroke="#256d2f" stroke-width="0.5" stroke-linecap="butt"/></g></g></svg>