<svg version="1.1" xmlns="http://www.w3.org/2000/svg" xmlns:xlink="http://www.w3.org/1999/xlink" width="90.9674" height="88.42289" viewBox="0,0,90.9674,88.42289"><defs><linearGradient x1="218.49935" y1="135.41642" x2="239.8261" y2="132.82443" gradientUnits="userSpaceOnUse" id="color-1"><stop offset="0" stop-color="#fff8ad"/><stop offset="1" stop-color="#c9c388"/></linearGradient><linearGradient x1="233.77921" y1="194.56853" x2="253.41863" y2="191.86758" gradientUnits="userSpaceOnUse" id="color-2"><stop offset="0" stop-color="#2fe500"/><stop offset="1" stop-color="#51b800"/></linearGradient><linearGradient x1="226.98233" y1="138.8806" x2="264.90234" y2="134.27191" gradientUnits="userSpaceOnUse" id="color-3"><stop offset="0" stop-color="#fff8ad"/><stop offset="1" stop-color="#c9c388"/></linearGradient><linearGradient x1="221.1804" y1="143.9673" x2="265.87497" y2="138.53525" gradientUnits="userSpaceOnUse" id="color-4"><stop offset="0" stop-color="#fff8ad"/><stop offset="1" stop-color="#c9c388"/></linearGradient><linearGradient x1="198.15084" y1="139.25941" x2="219.31211" y2="136.68752" gradientUnits="userSpaceOnUse" id="color-5"><stop offset="0" stop-color="#fff8ad"/><stop offset="1" stop-color="#c9c388"/></linearGradient><linearGradient x1="176.33405" y1="144.03416" x2="221.83592" y2="138.50399" gradientUnits="userSpaceOnUse" id="color-6"><stop offset="0" stop-color="#fff8ad"/><stop offset="1" stop-color="#c9c388"/></linearGradient><linearGradient x1="184.28099" y1="154.61171" x2="219.82976" y2="150.29122" gradientUnits="userSpaceOnUse" id="color-7"><stop offset="0" stop-color="#fff8ad"/><stop offset="1" stop-color="#c9c388"/></linearGradient><linearGradient x1="233.51217" y1="143.88023" x2="241.7616" y2="211.75604" gradientUnits="userSpaceOnUse" id="color-8"><stop offset="0" stop-color="#3dff00"/><stop offset="1" stop-color="#ebffd8"/></linearGradient><linearGradient x1="219.33313" y1="128.78702" x2="225.16734" y2="151.02862" gradientUnits="userSpaceOnUse" id="color-9"><stop offset="0" stop-color="#00e0ff"/><stop offset="1" stop-color="#00bcc4"/></linearGradient><linearGradient x1="200.49645" y1="157.64894" x2="222.91577" y2="154.92416" gradientUnits="userSpaceOnUse" id="color-10"><stop offset="0" stop-color="#fff8ad"/><stop offset="1" stop-color="#c9c388"/></linearGradient><linearGradient x1="226.18097" y1="150.53859" x2="255.36562" y2="146.99157" gradientUnits="userSpaceOnUse" id="color-11"><stop offset="0" stop-color="#fff8ad"/><stop offset="1" stop-color="#c9c388"/></linearGradient><linearGradient x1="215.08507" y1="157.4729" x2="230.27503" y2="155.62676" gradientUnits="userSpaceOnUse" id="color-12"><stop offset="0" stop-color="#fff8ad"/><stop offset="1" stop-color="#c9c388"/></linearGradient><linearGradient x1="211.03874" y1="197.52546" x2="230.53491" y2="197.52546" gradientUnits="userSpaceOnUse" id="color-13"><stop offset="0" stop-color="#2fe500"/><stop offset="1" stop-color="#51b800"/></linearGradient><linearGradient x1="228.37048" y1="199.88517" x2="248.59111" y2="195.99866" gradientUnits="userSpaceOnUse" id="color-14"><stop offset="0" stop-color="#2fe500"/><stop offset="1" stop-color="#51b800"/></linearGradient></defs><g transform="translate(-176.13385,-115.5502)"><g data-paper-data="{&quot;isPaintingLayer&quot;:true}" fill-rule="nonzero" stroke-linejoin="miter" stroke-miterlimit="10" stroke-dasharray="" stroke-dashoffset="0" style="mix-blend-mode: normal"><path d="M231.49183,191.72007c0.26308,-3.59629 4.49395,-6.33963 9.4499,-6.12746c4.95595,0.21218 9.57242,3.83143 9.30933,7.42773c-0.26308,3.59627 -19.02231,2.296 -18.75923,-1.30028z" data-paper-data="{&quot;origPos&quot;:null,&quot;origRot&quot;:0,&quot;index&quot;:null}" fill="#25b800" stroke="#000000" stroke-width="2" stroke-linecap="butt"/><path d="M233.48486,194.81008c0.39393,3.58432 -18.30546,5.56719 -18.6994,1.98289c-0.39393,-3.58432 4.0876,-7.36937 9.03253,-7.76197c4.94493,-0.3926 9.27293,2.19477 9.66686,5.77909z" data-paper-data="{&quot;origPos&quot;:null,&quot;origRot&quot;:0}" fill="#25b800" stroke="#000000" stroke-width="2" stroke-linecap="butt"/><path d="M230.38056,130.07525c0,0 -6.98482,5.55784 -7.28658,5.65479c-4.6666,1.49932 -5.87609,1.36486 -3.68945,-9.4603c1.90158,-5.04023 6.65691,-10.81527 10.75085,-9.86631c5.85277,1.35666 10.14587,20.56543 10.16981,20.94501c0.30321,4.80875 2.19733,7.47263 -1.545,13.12268c-2.46196,3.71697 -8.39963,-20.39586 -8.39963,-20.39586z" data-paper-data="{&quot;origPos&quot;:null,&quot;origRot&quot;:0,&quot;index&quot;:null}" fill="url(#color-1)" stroke="#666349" stroke-width="1.5" stroke-linecap="butt"/><path d="M233.92495,195.58059c-0.10101,-3.79486 4.06609,-7.11735 9.30752,-7.421c5.24142,-0.30365 10.48351,2.99749 10.58452,6.79235c0.10101,3.79484 -19.79103,4.4235 -19.89204,0.62863z" data-paper-data="{&quot;origPos&quot;:null,&quot;origRot&quot;:0,&quot;index&quot;:null}" fill="url(#color-2)" stroke="#000000" stroke-width="2" stroke-linecap="butt"/><path d="M255.04495,128.83747c-3.33061,-0.24443 -11.76952,-0.02464 -11.76952,-0.02464c-5.91932,7.92159 -8.67303,19.1271 -8.6518,19.68803c0.32797,8.67469 -6.56404,11.70503 -6.0791,0.87942c0.3381,-7.54778 0.07225,-12.29519 0.92786,-19.80193c0.35209,-3.08905 -1.18325,-4.28194 0.67777,-6.77248c3.56539,-4.77143 28.97356,-5.89393 33.03115,1.3556c3.02706,5.40833 -3.74722,4.99809 -8.13635,4.67599z" data-paper-data="{&quot;origPos&quot;:null,&quot;index&quot;:null,&quot;origRot&quot;:0}" fill="url(#color-3)" stroke="#666349" stroke-width="1.5" stroke-linecap="butt"/><path d="M257.00509,143.33326c-2.92325,-1.61472 -10.68088,-4.94377 -10.68088,-4.94377c-8.68937,4.72065 -15.87634,13.74804 -16.09162,14.26646c-3.32938,8.01703 -10.85706,7.88785 -5.88986,-1.74311c3.46322,-6.71488 5.20683,-11.13848 9.12299,-17.59969c1.6115,-2.6588 0.71565,-4.3844 3.44756,-5.86856c5.2339,-2.8434 28.78351,6.76132 29.43798,15.04331c0.48825,6.17856 -5.49386,2.97329 -9.34615,0.84538z" data-paper-data="{&quot;origPos&quot;:null,&quot;index&quot;:null,&quot;origRot&quot;:0}" fill="url(#color-4)" stroke="#666349" stroke-width="1.5" stroke-linecap="butt"/><path d="M203.3966,156.16898c-4.98677,-4.58914 -3.78588,-7.62916 -4.64338,-12.37055c-0.06768,-0.37426 -0.50077,-20.05219 4.85665,-22.77129c3.74745,-1.90199 8.57906,1.42103 12.54757,7.03468c4.716,9.98623 3.82755,10.37568 -1.06233,10.03783c-0.31619,-0.02184 -8.42898,-3.74475 -8.42898,-3.74475c0,0 0.0111,24.83313 -3.26955,21.8141z" data-paper-data="{&quot;origPos&quot;:null,&quot;origRot&quot;:0}" fill="url(#color-5)" stroke="#666349" stroke-width="1.5" stroke-linecap="butt"/><path d="M178.32231,153.35932c-4.84166,-8.0818 3.27908,-22.5323 13.32734,-23.75354c10.04827,-1.22124 16.20264,3.53934 25.73493,8.45387c9.63171,4.96577 3.5739,9.43631 -3.78758,4.83562c-0.47601,-0.29749 -11.56614,-3.4843 -21.38276,-2.29121c0,0 -4.38953,7.21079 -5.83472,10.22148c-1.90446,3.96752 -4.87206,7.85056 -8.05722,2.53381z" data-paper-data="{&quot;origPos&quot;:null,&quot;origRot&quot;:0}" fill="url(#color-6)" stroke="#666349" stroke-width="1.5" stroke-linecap="butt"/><path d="M192.01331,171.15688c-8.44877,-4.16837 -6.02038,-7.3576 -7.0977,-12.07227c-0.08503,-0.37214 1.01279,-20.23614 10.8162,-23.49559c6.85737,-2.27996 12.15131,2.53109 19.34402,1.83338c7.45359,9.65352 3.95285,9.84572 -4.72715,9.96851c-0.56127,0.00795 -2.83414,-4.93315 -10.43775,1.38941c-6.74664,5.60994 -2.33941,25.1188 -7.89758,22.37657z" data-paper-data="{&quot;origPos&quot;:null,&quot;origRot&quot;:0}" fill="url(#color-7)" stroke="#666349" stroke-width="1.5" stroke-linecap="butt"/><path d="M226.86702,194.00621c-2.07458,-3.17448 -34.0552,-46.74489 -7.07538,-49.74528c25.62013,-2.84918 -16.43759,4.99566 10.48618,-0.50235c17.61712,-3.59754 12.49544,32.59403 8.48083,46.48603c-4.01461,13.89198 -9.81706,6.93608 -11.89163,3.76161z" data-paper-data="{&quot;origPos&quot;:null,&quot;origRot&quot;:0}" fill="url(#color-8)" stroke="#244b00" stroke-width="1.5" stroke-linecap="butt"/><path d="M239.39936,135.80564c1.87955,5.24708 -5.44764,12.51182 -13.70501,14.6778c-8.25738,2.16599 -20.92374,1.18133 -22.33791,-4.20983c-1.41416,-5.39117 5.94687,-14.31802 14.20424,-16.48401c8.25738,-2.16599 19.86544,0.50739 21.83867,6.01605z" data-paper-data="{&quot;origPos&quot;:null,&quot;origRot&quot;:0}" fill="url(#color-9)" stroke="#244b00" stroke-width="1.5" stroke-linecap="butt"/><path d="M205.73821,174.5256c-4.98677,-4.58914 -3.78588,-7.62916 -4.64338,-12.37055c-0.06768,-0.37426 -0.50077,-20.05219 4.85665,-22.77129c3.74745,-1.90199 9.80932,3.0731 13.82975,2.76093c4.716,9.98623 2.54538,14.64942 -2.3445,14.31157c-0.31619,-0.02184 -8.42898,-3.74475 -8.42898,-3.74475c0,0 0.0111,24.83313 -3.26955,21.8141z" data-paper-data="{&quot;origPos&quot;:null,&quot;origRot&quot;:0}" fill="url(#color-10)" stroke="#666349" stroke-width="1.5" stroke-linecap="butt"/><path d="M240.58228,151.44768c-1.84996,-0.89769 -7.34013,-8.29063 -7.34013,-8.29063l3.26073,4.15465c0,0 -3.43684,4.60342 -6.38729,5.28724c-8.45673,1.95996 -1.50744,-14.99852 1.4326,-16.64708c6.07873,-3.4085 11.87553,3.45326 16.5603,8.61288c4.88628,5.38155 8.76166,9.44791 8.88702,16.71575c0,0 -11.12412,-4.14145 -16.41321,-9.83282z" data-paper-data="{&quot;origPos&quot;:null,&quot;origRot&quot;:0,&quot;index&quot;:null}" fill="url(#color-11)" stroke="#666349" stroke-width="1.5" stroke-linecap="butt"/><path d="M222.06363,174.23242c-4.98677,-4.58914 -5.56124,-7.4134 -6.41872,-12.15478c-0.06768,-0.37426 -3.89736,-18.35253 1.46006,-21.07162c3.74745,-1.90199 8.23998,-1.36881 9.71013,2.74689c4.716,9.98623 4.00546,13.95723 -0.88442,13.61936c-0.31619,-0.02184 -0.31303,-4.73115 -0.31303,-4.73115c0,0 -0.27336,24.61032 -3.554,21.5913z" data-paper-data="{&quot;origPos&quot;:null,&quot;origRot&quot;:0}" fill="url(#color-12)" stroke="#666349" stroke-width="1.5" stroke-linecap="butt"/><path d="M230.44371,172.385c0.5472,2.59542 -0.05204,5.02668 -1.33845,5.43025c-1.28638,0.40363 -2.7728,-1.37327 -3.31997,-3.9687c-0.5472,-2.59542 0.05204,-5.02668 1.33845,-5.43025c1.28638,-0.40363 2.77279,1.37328 3.31995,3.96872z" data-paper-data="{&quot;origPos&quot;:null,&quot;origRot&quot;:0}" fill="#000000" stroke="none" stroke-width="0" stroke-linecap="butt"/><path d="M235.99915,169.60594c0.39173,1.96001 -0.07914,3.78404 -1.05175,4.07407c-0.97263,0.29004 -2.07864,-1.06372 -2.47041,-3.02374c-0.39173,-1.96001 0.07913,-3.78405 1.05175,-4.07407c0.97263,-0.29004 2.07869,1.06372 2.47043,3.02372z" data-paper-data="{&quot;origPos&quot;:null,&quot;origRot&quot;:0}" fill="#000000" stroke="none" stroke-width="0" stroke-linecap="butt"/><path d="M228.58597,171.92706c0.24821,1.1774 -0.02362,2.28028 -0.60718,2.4634c-0.58355,0.18308 -1.25783,-0.62298 -1.50606,-1.80036c-0.24821,-1.1774 0.02362,-2.28028 0.60718,-2.4634c0.58355,-0.18308 1.25783,0.62298 1.50606,1.80035z" data-paper-data="{&quot;origPos&quot;:null,&quot;origRot&quot;:0}" fill="#ffffff" stroke="none" stroke-width="0" stroke-linecap="butt"/><path d="M234.34752,168.90324c0.1336,0.66842 -0.02698,1.29046 -0.35866,1.38937c-0.33166,0.09891 -0.70884,-0.36275 -0.84248,-1.03116c-0.1336,-0.66842 0.02698,-1.29046 0.35866,-1.38937c0.33166,-0.09891 0.70885,0.36276 0.84247,1.03116z" data-paper-data="{&quot;origPos&quot;:null,&quot;origRot&quot;:0}" fill="#ffffff" stroke="none" stroke-width="0" stroke-linecap="butt"/><path d="M234.85424,184.75585c0,0 -2.39066,0.83283 -3.38514,0.16121c-0.94158,-0.6359 -2.4641,-2.1378 -2.4641,-2.1378" data-paper-data="{&quot;origPos&quot;:null,&quot;origRot&quot;:0}" fill="none" stroke="#244b00" stroke-width="1" stroke-linecap="round"/><path d="M230.52852,198.49673c0.41006,3.58431 -19.05457,5.56719 -19.46463,1.98289c-0.41006,-3.58431 4.25488,-7.36937 9.40217,-7.76197c5.14729,-0.3926 9.6524,2.19478 10.06246,5.77909z" data-paper-data="{&quot;origPos&quot;:null,&quot;origRot&quot;:0}" fill="url(#color-13)" stroke="#000000" stroke-width="2" stroke-linecap="butt"/><path d="M228.5701,200.888c-0.2869,-3.78716 3.87151,-7.36003 9.28806,-7.98027c5.41658,-0.62023 11.00694,2.36277 11.29385,6.14992c0.2869,3.78714 -20.29501,5.61749 -20.58191,1.83033z" data-paper-data="{&quot;origPos&quot;:null,&quot;origRot&quot;:0,&quot;index&quot;:null}" fill="url(#color-14)" stroke="#000000" stroke-width="2" stroke-linecap="butt"/></g></g></svg>