<svg version="1.1" xmlns="http://www.w3.org/2000/svg" xmlns:xlink="http://www.w3.org/1999/xlink" width="71.33568" height="51.65509" viewBox="0,0,71.33568,51.65509"><defs><linearGradient x1="211.03506" y1="181.66291" x2="233.36977" y2="182.85077" gradientUnits="userSpaceOnUse" id="color-1"><stop offset="0" stop-color="#cfff65"/><stop offset="1" stop-color="#5eff00"/></linearGradient><linearGradient x1="238.70708" y1="163.65269" x2="238.70708" y2="198.42213" gradientUnits="userSpaceOnUse" id="color-2"><stop offset="0" stop-color="#cfff65"/><stop offset="1" stop-color="#5eff00"/></linearGradient><linearGradient x1="224.28229" y1="186.52986" x2="251.62536" y2="186.52986" gradientUnits="userSpaceOnUse" id="color-3"><stop offset="0" stop-color="#7c35ff"/><stop offset="1" stop-color="#c066ff"/></linearGradient><linearGradient x1="233.96301" y1="171.33335" x2="240.9458" y2="173.8196" gradientUnits="userSpaceOnUse" id="color-4"><stop offset="0" stop-color="#492181"/><stop offset="1" stop-color="#6b2283"/></linearGradient><linearGradient x1="241.76443" y1="174.5262" x2="246.90819" y2="171.84558" gradientUnits="userSpaceOnUse" id="color-5"><stop offset="0" stop-color="#492181"/><stop offset="1" stop-color="#6b2283"/></linearGradient><linearGradient x1="235.94445" y1="156.13979" x2="235.94445" y2="198.20951" gradientUnits="userSpaceOnUse" id="color-6"><stop offset="0" stop-color="#000000"/><stop offset="1" stop-color="#000000" stop-opacity="0"/></linearGradient><linearGradient x1="234.9881" y1="199.65729" x2="205.40691" y2="189.28386" gradientUnits="userSpaceOnUse" id="color-7"><stop offset="0" stop-color="#cfff65"/><stop offset="1" stop-color="#5eff00"/></linearGradient></defs><g transform="translate(-199.78688,-150.90691)"><g data-paper-data="{&quot;isPaintingLayer&quot;:true}" fill-rule="nonzero" stroke-linecap="butt" stroke-linejoin="miter" stroke-miterlimit="10" stroke-dasharray="" stroke-dashoffset="0" style="mix-blend-mode: normal"><path d="M232.84069,191.82637l-21.27656,-19.13906c0,0 16.97116,-3.63686 22.33471,1.18786c5.36355,4.82471 -1.05816,17.9512 -1.05816,17.9512z" data-paper-data="{&quot;index&quot;:null}" fill="url(#color-1)" stroke="#000000" stroke-width="2"/><path d="M228.89445,194.65194c0,-5.34362 0.22051,-30.99925 0.22051,-30.99925h19.18425c0,0 0,25.65562 0,30.99925c0,1.86356 -1.17729,3.77018 -2.64611,3.77018c-4.20809,0 -12.39843,0 -14.55356,0c-0.98758,0 -2.20508,-1.90663 -2.20508,-3.77018z" fill="url(#color-2)" stroke="#000000" stroke-width="2"/><path d="M265.46351,166.27434c0,0 -4.11801,3.74497 -18.09523,1.66236c-6.39873,-0.95341 -12.99707,-0.19715 -20.83299,-2.47301c-7.83592,-2.27587 -17.14842,-8.55834 -17.14842,-8.55834c0,0 19.47883,0.16558 33.45605,2.24818c13.97722,2.0826 22.62057,7.12083 22.62057,7.12083z" data-paper-data="{&quot;index&quot;:null}" fill="#3f3f3f" stroke="#000000" stroke-width="2"/><path d="M231.5398,162.3347l2.01763,-9.63279c0,0 6.14696,-1.11134 8.86689,-0.70608c2.89335,0.43111 8.00511,3.21998 8.00511,3.21998l-1.39273,9.72589c0,0 -5.56839,-0.01879 -9.08743,-0.54313c-3.51904,-0.52433 -8.40946,-2.0639 -8.40946,-2.0639z" data-paper-data="{&quot;index&quot;:null}" fill="#3f3f3f" stroke="#000000" stroke-width="2"/><path d="M225.38484,179.93205c0,0 11.64416,1.50449 15.84628,0.98474c6.95589,-0.86036 10.39424,-4.75492 10.39424,-4.75492c0,0 -0.46528,10.54153 -1.46843,14.77223c-0.77477,3.2675 -4.04429,8.47721 -4.04429,8.47721c0,0 -10.32857,-3.05068 -13.49912,-6.03025c-3.66641,-3.44556 -7.22868,-13.449 -7.22868,-13.449z" data-paper-data="{&quot;index&quot;:null}" fill="url(#color-3)" stroke="#000000" stroke-width="2"/><path d="M234.83406,175.37625c0.14085,-1.82802 1.45054,-3.16838 2.92526,-2.9938c1.47474,0.17459 2.55606,1.79804 2.41522,3.62604c-0.14085,1.82802 -1.45054,3.16838 -2.92526,2.9938c-1.47474,-0.17459 -2.55606,-1.79804 -2.41521,-3.62604z" fill="#ffffff" stroke="#000000" stroke-width="0.6"/><path d="M237.97579,175.44747c0.03784,-0.37633 0.38969,-0.65227 0.78588,-0.61632c0.39619,0.03594 0.68669,0.37016 0.64885,0.74648c-0.03784,0.37633 -0.38969,0.65226 -0.78588,0.61632c-0.39619,-0.03594 -0.68669,-0.37015 -0.64885,-0.74648z" fill="#000000" stroke="none" stroke-width="0.5"/><path d="M233.62322,172.19438l0.92321,-1.51343l1.04662,-0.31518l3.20591,1.36719l0.29873,-0.6917l0.8853,1.19907l1.35295,0.59066l-1.09256,2.52882l-3.90712,-1.22298z" fill="url(#color-4)" stroke="#000000" stroke-width="0.6"/><path d="M242.30346,175.44609c0.11081,-1.43822 1.14122,-2.49276 2.30148,-2.3554c1.16027,0.13736 2.011,1.41462 1.90019,2.85282c-0.11081,1.43822 -1.14122,2.49276 -2.30148,2.35541c-1.16027,-0.13736 -2.011,-1.41462 -1.90019,-2.85283z" fill="#ffffff" stroke="#000000" stroke-width="0.5"/><path d="M243.82163,175.17273c0.02976,-0.29607 0.30659,-0.51317 0.61829,-0.4849c0.3117,0.02827 0.54026,0.29122 0.51049,0.5873c-0.02976,0.29607 -0.30659,0.51318 -0.61829,0.4849c-0.3117,-0.02827 -0.54026,-0.29123 -0.51049,-0.5873z" fill="#000000" stroke="none" stroke-width="0.5"/><path d="M242.13078,175.16047l-0.47669,-1.29953l0.33905,-0.75467l2.50331,-1.11492l-0.28109,-0.52412l1.20715,0.1136l1.06503,-0.4635l1.02742,1.91641l-2.7725,1.58618z" fill="url(#color-5)" stroke="#000000" stroke-width="0.5"/><path d="M201.7719,193.42667l5.35334,-37.28686c0,0 13.06057,8.81535 21.32473,9.69182c5.80627,0.61579 23.73609,4.27423 32.44351,2.92677c5.97188,-0.92415 4.45009,-2.70644 4.45009,-2.70644l-17.55334,33.67736z" fill="url(#color-6)" stroke="#000000" stroke-width="0"/><path d="M210.02729,177.39613c9.78652,-3.37848 29.58119,10.37343 29.58119,10.37343l-38.82195,13.40203c0,0 -0.54576,-20.39698 9.24076,-23.77546z" fill="url(#color-7)" stroke="#000000" stroke-width="2"/></g></g></svg>