<svg version="1.1" xmlns="http://www.w3.org/2000/svg" xmlns:xlink="http://www.w3.org/1999/xlink" width="43.50176" height="28.81043" viewBox="0,0,43.50176,28.81043"><defs><radialGradient cx="239.09787" cy="172.14615" r="14.267" gradientUnits="userSpaceOnUse" id="color-1"><stop offset="0" stop-color="#a0d1ff"/><stop offset="1" stop-color="#58a7f0"/></radialGradient><linearGradient x1="240.30283" y1="179.02244" x2="240.30283" y2="190.6956" gradientUnits="userSpaceOnUse" id="color-2"><stop offset="0" stop-color="#a8cdf0"/><stop offset="1" stop-color="#f0f0f0"/></linearGradient></defs><g transform="translate(-218.39446,-165.71978)"><g data-paper-data="{&quot;isPaintingLayer&quot;:true}" fill-rule="nonzero" stroke="#000000" stroke-linecap="butt" stroke-linejoin="miter" stroke-miterlimit="10" stroke-dasharray="" stroke-dashoffset="0" style="mix-blend-mode: normal"><path d="M254.16965,181.60259c0,13.07506 -28.53395,13.07506 -28.53395,0c0,-8.08147 6.38755,-14.63281 14.26698,-14.63281c7.87943,0 14.26696,6.55132 14.26696,14.63281z" fill="url(#color-1)" stroke-width="2.5"/><path d="M226.87414,179.42864c2.71468,1.31356 6.99833,2.86229 12.10575,2.86229c6.42173,0 11.44806,-2.19277 14.31173,-3.83481c1.71396,-0.98279 3.48136,-0.11195 4.06342,1.05217c0.56809,1.13618 1.90842,3.59461 2.8,5.37778c0.59328,1.18656 0.07466,2.50408 -1.36488,3.13515c-3.96926,1.74005 -12.41082,5.009 -19.8103,5.009c-6.40982,0 -13.90038,-2.92195 -17.72572,-4.62701c-1.5759,-0.70242 -2.00933,-2.19529 -1.35968,-3.43979c0.74881,-1.43446 1.6693,-3.19779 2.16238,-4.14235c0.65191,-1.24883 2.81837,-2.35966 4.8173,-1.39243z" fill="url(#color-2)" stroke-width="3"/></g></g></svg>