<svg version="1.1" xmlns="http://www.w3.org/2000/svg" xmlns:xlink="http://www.w3.org/1999/xlink" width="73.19084" height="71.56788" viewBox="0,0,73.19084,71.56788"><defs><linearGradient x1="240.05088" y1="189.38684" x2="287.11684" y2="189.38684" gradientUnits="userSpaceOnUse" id="color-1"><stop offset="0" stop-color="#1a1a1a"/><stop offset="1" stop-color="#1a1a1a" stop-opacity="0"/></linearGradient></defs><g transform="translate(-213.926,-147.73777)"><g data-paper-data="{&quot;isPaintingLayer&quot;:true}" fill-rule="nonzero" stroke-linejoin="miter" stroke-miterlimit="10" stroke-dasharray="" stroke-dashoffset="0" style="mix-blend-mode: normal"><path d="M240.05088,219.30566v-59.83764h47.06596v59.83764z" fill="url(#color-1)" stroke="none" stroke-width="0" stroke-linecap="butt"/><path d="M222.13543,188.56397l0.13835,-4.66458l15.52624,-1.93689v8.4z" data-paper-data="{&quot;origPos&quot;:null}" fill="#000000" stroke="#000000" stroke-width="2" stroke-linecap="butt"/><path d="M230.40001,199.96251v-20h19.4v20z" data-paper-data="{&quot;origPos&quot;:null}" fill="#000000" stroke="#000000" stroke-width="2" stroke-linecap="butt"/><path d="M253.02501,172.02292c0,6.51494 -5.84828,11.79635 -13.0625,11.79635c-7.21422,0 -13.0625,-5.28141 -13.0625,-11.79635c0,-6.51494 5.84828,-11.79635 13.0625,-11.79635c7.21422,0 13.0625,5.28141 13.0625,11.79635z" data-paper-data="{&quot;origPos&quot;:null}" fill="#000000" stroke="#000000" stroke-width="2" stroke-linecap="butt"/><path d="M239.40001,168.32657c0,1.65685 -1.09131,3 -2.4375,3c-1.34619,0 -2.4375,-1.34315 -2.4375,-3c0,-1.65685 1.09131,-3 2.4375,-3c1.34619,0 2.4375,1.34315 2.4375,3z" data-paper-data="{&quot;origPos&quot;:null}" fill="#ffffff" stroke="none" stroke-width="0" stroke-linecap="butt"/><path d="M233.30001,168.46406c0,1.48427 -0.95139,2.6875 -2.125,2.6875c-1.17361,0 -2.125,-1.20323 -2.125,-2.6875c0,-1.48427 0.95139,-2.6875 2.125,-2.6875c1.17361,0 2.125,1.20323 2.125,2.6875z" data-paper-data="{&quot;origPos&quot;:null}" fill="#ffffff" stroke="none" stroke-width="0" stroke-linecap="butt"/><path d="M241.00001,218.16251v-17.6h8v17.6z" data-paper-data="{&quot;origPos&quot;:null}" fill="#000000" stroke="#000000" stroke-width="2" stroke-linecap="butt"/><path d="M223.20001,190.7625v-8.4h19.4v8.4z" data-paper-data="{&quot;origPos&quot;:null}" fill="#000000" stroke="#000000" stroke-width="2" stroke-linecap="butt"/><path d="M230.60388,208.04944l-1.10679,-7.60918h10.51451l-1.10679,7.60918z" fill="#000000" stroke="none" stroke-width="0" stroke-linecap="butt"/><path d="M234.75434,207.6344c0,0 -0.14953,10.43261 -1.8396,10.53323c-1.31132,0.07807 -2.44921,-3.61579 -2.44921,-3.61579" fill="none" stroke="#000000" stroke-width="2" stroke-linecap="round"/><path d="M221.74956,186.66596c0,0 -4.51405,1.79904 -5.25083,0.06977c-0.73678,-1.72926 2.48385,-3.25179 2.48385,-3.25179" fill="none" stroke="#000000" stroke-width="2" stroke-linecap="round"/><path d="M214.926,161.06447c0,0 9.00428,-4.66522 23.10345,-5.84126c14.09918,-1.17604 33.53962,0.05867 33.53962,0.05867l-17.75507,7.74638c0,0 -14.51215,0.55183 -20.96671,1.09022c-14.09917,1.17605 -17.9213,-3.05402 -17.9213,-3.05402z" data-paper-data="{&quot;index&quot;:null}" fill="#000000" stroke="#000000" stroke-width="2" stroke-linecap="butt"/><path d="M249.0608,159.38085c0,0 -4.99482,1.26294 -8.54456,1.55902c-3.54974,0.29609 -9.10499,-0.08684 -9.10499,-0.08684l-0.64866,-10.31309c0,0 5.3107,-2.55873 8.22929,-2.80217c2.74366,-0.22885 8.78992,1.38258 8.78992,1.38258l1.27901,10.26052z" data-paper-data="{&quot;index&quot;:null}" fill="#000000" stroke="#000000" stroke-width="2" stroke-linecap="butt"/></g></g></svg>