<svg version="1.1" xmlns="http://www.w3.org/2000/svg" xmlns:xlink="http://www.w3.org/1999/xlink" width="57.58377" height="60.62015" viewBox="0,0,57.58377,60.62015"><defs><linearGradient x1="256.14086" y1="192.44278" x2="261.07571" y2="215.73981" gradientUnits="userSpaceOnUse" id="color-1"><stop offset="0" stop-color="#e6c2c2"/><stop offset="1" stop-color="#e5e5e5"/></linearGradient></defs><g transform="translate(-217.4,-159.22656)"><g data-paper-data="{&quot;isPaintingLayer&quot;:true}" fill-rule="nonzero" stroke-linecap="butt" stroke-linejoin="miter" stroke-miterlimit="10" stroke-dasharray="" stroke-dashoffset="0" style="mix-blend-mode: normal"><path d="M218.4,190.3625v-8.4h19.4v8.4z" data-paper-data="{&quot;origPos&quot;:null}" fill="#c07a00" stroke="#000000" stroke-width="2"/><path d="M230.4,199.9625v-20h19.4v20z" data-paper-data="{&quot;origPos&quot;:null}" fill="#c07a00" stroke="#000000" stroke-width="2"/><path d="M253.025,172.02291c0,6.51494 -5.84828,11.79635 -13.0625,11.79635c-7.21422,0 -13.0625,-5.28141 -13.0625,-11.79635c0,-6.51494 5.84828,-11.79635 13.0625,-11.79635c7.21422,0 13.0625,5.28141 13.0625,11.79635z" data-paper-data="{&quot;origPos&quot;:null}" fill="#b2b2b2" stroke="#000000" stroke-width="2"/><path d="M239.4,168.32656c0,1.65685 -1.09131,3 -2.4375,3c-1.34619,0 -2.4375,-1.34315 -2.4375,-3c0,-1.65685 1.09131,-3 2.4375,-3c1.34619,0 2.4375,1.34315 2.4375,3z" data-paper-data="{&quot;origPos&quot;:null}" fill="#000000" stroke="none" stroke-width="0"/><path d="M233.3,168.46406c0,1.48427 -0.95139,2.6875 -2.125,2.6875c-1.17361,0 -2.125,-1.20323 -2.125,-2.6875c0,-1.48427 0.95139,-2.6875 2.125,-2.6875c1.17361,0 2.125,1.20323 2.125,2.6875z" data-paper-data="{&quot;origPos&quot;:null}" fill="#000000" stroke="none" stroke-width="0"/><path d="M231,218.1625v-17.4h8v17.4z" data-paper-data="{&quot;origPos&quot;:null}" fill="#4c517f" stroke="#000000" stroke-width="2"/><path d="M241,218.1625v-17.6h8v17.6z" data-paper-data="{&quot;origPos&quot;:null}" fill="#4c517f" stroke="#000000" stroke-width="2"/><path d="M223.2,190.7625v-8.4h19.4v8.4z" data-paper-data="{&quot;origPos&quot;:null}" fill="#c07a00" stroke="#000000" stroke-width="2"/><path d="M242.52911,195.32606c0,0 5.67217,6.02817 8.08769,5.68938c4.94922,-0.69414 5.71606,-5.99607 10.04845,-8.48744c2.91053,-1.67372 8.97427,-1.00423 8.97427,-1.00423c0,0 2.09245,5.47178 2.89147,9.08846c0.87178,3.94602 1.38973,10.29 1.38973,10.29l-26.45676,7.72087c0,0 -2.5828,-7.19679 -3.58762,-11.94042c-0.92107,-4.34833 -1.34723,-11.35663 -1.34723,-11.35663z" data-paper-data="{&quot;origPos&quot;:null,&quot;origRot&quot;:0}" fill="url(#color-1)" stroke="#000000" stroke-width="2"/></g></g></svg>