<svg version="1.1" xmlns="http://www.w3.org/2000/svg" xmlns:xlink="http://www.w3.org/1999/xlink" width="49.72493" height="64.41628" viewBox="0,0,49.72493,64.41628"><defs><linearGradient x1="242.79776" y1="143.11682" x2="242.79776" y2="180.33523" gradientUnits="userSpaceOnUse" id="color-1"><stop offset="0" stop-color="#92a518"/><stop offset="1" stop-color="#e1e100"/></linearGradient></defs><g transform="translate(-215.80753,-138.47141)"><g data-paper-data="{&quot;isPaintingLayer&quot;:true}" fill-rule="nonzero" stroke-linejoin="miter" stroke-miterlimit="10" stroke-dasharray="" stroke-dashoffset="0" style="mix-blend-mode: normal"><g stroke="#000000" stroke-linecap="butt"><path d="M234.12135,196.89095l0.62387,-4.43798l-9.75084,-11.55362l6.25242,-10.79912l2.65309,5.27294l-5.31104,5.50253l9.26785,10.29647l0.57744,7.00318z" fill="#92a518" stroke-width="2"/><path d="M224.29895,180.89267l-0.15587,-3.50053l3.50053,-0.15587z" fill="#c3dc00" stroke-width="1"/><path d="M230.58218,184.18417l3.49905,-0.1864l0.1864,3.49905z" fill="#c3dc00" stroke-width="1"/><path d="M231.61395,189.78041l-3.50019,-0.16347l0.16347,-3.5002z" fill="#c3dc00" stroke-width="1"/></g><g><path d="M249.1241,139.11854c0.87431,-0.36352 1.18962,-0.03705 0.84168,0.79854c-0.7202,1.72959 -1.76293,4.86585 -1.37763,7.82159c-2.4395,3.30643 -8.17335,-0.92405 -5.73385,-4.23047c1.62641,-2.20439 4.52095,-3.66254 6.2698,-4.38966z" data-paper-data="{&quot;origRot&quot;:0,&quot;index&quot;:null}" fill="#cff538" stroke="#000000" stroke-width="1" stroke-linecap="butt"/><path d="M261.15491,161.72602c-0.11678,2.2285 3.57492,5.14932 2.75993,8.58756c-3.21916,13.58083 -15.26702,10.02164 -21.11708,10.02164c-10.13837,0 -18.35715,-8.33162 -18.35715,-18.60921c0,-4.68701 5.23814,-17.93298 13.54506,-18.34505c8.35421,-0.41441 23.78663,6.56384 23.16924,18.34505z" fill="url(#color-1)" stroke="#000000" stroke-width="3" stroke-linecap="butt"/><path d="M232.70978,146.43832c2.43951,3.30643 -3.29435,7.53691 -5.73385,4.23047c0.3853,-2.95574 -0.65742,-6.092 -1.37763,-7.82159c-0.34794,-0.83559 -0.03264,-1.16206 0.84168,-0.79854c1.74885,0.72713 4.6434,2.18528 6.2698,4.38966z" data-paper-data="{&quot;origRot&quot;:0}" fill="#cff538" stroke="#000000" stroke-width="1" stroke-linecap="butt"/><path d="M252.44916,162.11713c0,2.06059 -1.41589,3.73104 -3.16249,3.73104c-1.74659,0 -3.16249,-1.67044 -3.16249,-3.73104c0,-2.06059 1.41589,-3.73104 3.16249,-3.73104c1.74659,0 3.16249,1.67044 3.16249,3.73104z" fill="#ffee00" stroke="#000000" stroke-width="0" stroke-linecap="butt"/><path d="M251.48642,162.29598c0,0.99908 -0.52165,1.80899 -1.16513,1.80899c-0.64348,0 -1.16513,-0.80991 -1.16513,-1.80899c0,-0.99908 0.52165,-1.80899 1.16513,-1.80899c0.64348,0 1.16513,0.80991 1.16513,1.80899z" fill="#ff0000" stroke="none" stroke-width="0" stroke-linecap="butt"/><path d="M258.92453,162.13775c0,2.0606 -1.41589,3.73103 -3.16249,3.73103c-1.7466,0 -3.16249,-1.67044 -3.16249,-3.73103c0,-2.0606 1.41589,-3.73104 3.16249,-3.73104c1.7466,0 3.16249,1.67044 3.16249,3.73104z" fill="#ffee00" stroke="#000000" stroke-width="0" stroke-linecap="butt"/><path d="M257.9618,162.3166c0,0.99908 -0.52165,1.80899 -1.16513,1.80899c-0.64348,0 -1.16512,-0.80991 -1.16512,-1.80899c0,-0.99908 0.52164,-1.80898 1.16512,-1.80898c0.64348,0 1.16513,0.80991 1.16513,1.80898z" fill="#ff0000" stroke="none" stroke-width="0" stroke-linecap="butt"/><path d="M244.20627,173.36127c0,0 4.41953,-0.46866 7.91554,-0.12959c5.0493,0.48973 8.31354,1.78938 8.31354,1.78938" fill="none" stroke="#000000" stroke-width="1.5" stroke-linecap="round"/><path d="M217.64959,161.5583l8.48338,-1.65979c0,0 0.12444,4.51808 1.74842,7.29361c1.74795,2.98741 5.62844,8.93547 5.62844,8.93547l-8.43402,-1.30228l2.39603,-4.01104l-6.13077,1.06881l3.47523,-5.15604z" fill="#dd6d00" stroke="#000000" stroke-width="1.5" stroke-linecap="butt"/><path d="M246.05048,158.23871h13.09392" fill="none" stroke="#000000" stroke-width="2" stroke-linecap="round"/><path d="M244.90773,172.64722l1.89441,-1.97629l1.97629,1.89441z" fill="#ffffff" stroke="#000000" stroke-width="1" stroke-linecap="butt"/></g><path d="M254.2088,197.65031c0,0 -4.19614,3.79035 -8.94294,3.38888c-4.7468,-0.40148 -8.43897,-2.56966 -8.24672,-4.84277c0.19226,-2.27311 4.19615,-3.79037 8.94294,-3.38889c4.7468,0.40148 8.24671,4.84278 8.24671,4.84278z" data-paper-data="{&quot;origRot&quot;:0,&quot;index&quot;:null}" fill="#bd5e00" stroke="#000000" stroke-width="2" stroke-linecap="butt"/><path d="M229.43663,193.63034c4.76161,-0.14261 8.67702,1.59025 8.74531,3.87045c0.06829,2.28021 -3.73639,4.24428 -8.49799,4.38689c-4.76161,0.14261 -8.7453,-3.87046 -8.7453,-3.87046c0,0 3.73638,-4.24428 8.49799,-4.38689z" data-paper-data="{&quot;origRot&quot;:0}" fill="#dd6d00" stroke="#000000" stroke-width="2" stroke-linecap="butt"/></g></g></svg>