<svg version="1.1" xmlns="http://www.w3.org/2000/svg" xmlns:xlink="http://www.w3.org/1999/xlink" width="86.56728" height="77.81807" viewBox="0,0,86.56728,77.81807"><defs><linearGradient x1="256.25246" y1="169.01629" x2="257.54434" y2="206.74288" gradientUnits="userSpaceOnUse" id="color-1"><stop offset="0" stop-color="#f5ac31"/><stop offset="1" stop-color="#ba2f2f"/></linearGradient><linearGradient x1="243.1078" y1="169.5947" x2="244.62663" y2="166.84321" gradientUnits="userSpaceOnUse" id="color-2"><stop offset="0" stop-color="#add92e"/><stop offset="1" stop-color="#659116"/></linearGradient><linearGradient x1="226.85715" y1="164.85716" x2="230" y2="164.85716" gradientUnits="userSpaceOnUse" id="color-3"><stop offset="0" stop-color="#add92e"/><stop offset="1" stop-color="#659116"/></linearGradient><linearGradient x1="237.65541" y1="143.79302" x2="247.94459" y2="151.40701" gradientUnits="userSpaceOnUse" id="color-4"><stop offset="0" stop-color="#add92e"/><stop offset="1" stop-color="#618520"/></linearGradient><linearGradient x1="222.76192" y1="176.3774" x2="222.76192" y2="213.10717" gradientUnits="userSpaceOnUse" id="color-5"><stop offset="0" stop-color="#f57b31"/><stop offset="1" stop-color="#ba2f2f"/></linearGradient></defs><g transform="translate(-197.09641,-136.28909)"><g data-paper-data="{&quot;isPaintingLayer&quot;:true}" fill-rule="nonzero" stroke="#000000" stroke-linejoin="miter" stroke-miterlimit="10" stroke-dasharray="" stroke-dashoffset="0" style="mix-blend-mode: normal"><path d="M282.65543,187.26042c0.35675,10.41791 -10.88587,19.1405 -25.11107,19.48246c-14.22521,0.34196 -26.04622,-7.82621 -26.40297,-18.2441c-0.27195,-7.94162 6.19656,-14.89807 15.58848,-17.9079c1.77555,-0.56901 3.72606,1.06082 5.6848,0.79395c1.27191,-0.17332 2.50655,-2.33651 3.83778,-2.36852c14.22521,-0.34196 26.04621,7.82619 26.40296,18.24409z" data-paper-data="{&quot;index&quot;:null}" fill="url(#color-1)" stroke-width="2" stroke-linecap="butt"/><g fill="none" stroke-width="0.9" stroke-linecap="round"><path d="M266.05906,199.7069l-6.34493,0.96873"/><path d="M268.69334,202.13183c0,0 -1.49591,-1.28471 -2.11753,-2.97058c-0.50745,-1.37626 -0.0114,-3.32306 -0.0114,-3.32306"/><path d="M258.24801,197.56908c0,0 0.92703,1.58082 0.73535,2.78585c-0.23482,1.47615 -1.42276,2.70528 -1.42276,2.70528" data-paper-data="{&quot;index&quot;:null}"/></g><g stroke-width="1" stroke-linecap="butt"><path d="M256.39901,179.21594c0,0 -8.48198,-7.01332 -11.53865,-10.92225c-3.10892,-3.97576 -6.96077,-12.73521 -6.96077,-12.73521l2.39571,-0.7336c0,0 3.23266,7.05487 5.99396,10.66424c2.79895,3.65858 11.50352,10.90629 11.50352,10.90629c0,0 0.74379,1.07742 0.28354,1.94965c-0.36843,0.69823 -1.6773,0.87088 -1.6773,0.87088z" fill="url(#color-2)"/><path d="M224.85715,181.14287c0,0 2.04095,-10.81505 3.98595,-15.38013c1.97825,-4.64312 7.78547,-12.24844 7.78547,-12.24844l1.8,1.74286c0,0 -4.61414,6.23947 -6.43962,10.4012c-1.85037,4.21847 -3.98896,15.34166 -3.98896,15.34166c0,0 -0.58381,1.17185 -1.56984,1.19043c-0.78933,0.01487 -1.57301,-1.04757 -1.57301,-1.04757z" fill="url(#color-3)"/><path d="M251.54459,151.40701c-3.15382,4.26191 -14.45508,3.90989 -14.45508,3.90989c0,0 -2.58792,-7.26196 0.5659,-11.52388c3.15382,-4.26191 10.85509,-3.90989 10.85509,-3.90989l-5.09856,4.17967c0,0 3.50333,-0.85524 5.33273,-1.77171c1.80018,-0.90183 5.1574,-4.28388 5.1574,-4.28388c0,0 -0.76468,2.7274 -1.1683,6.16152c-0.2904,2.47086 0.08841,5.5005 -1.18918,7.23828z" fill="url(#color-4)"/></g><path d="M220.71667,171.83335z" fill="#f43232" stroke-width="1" stroke-linecap="butt"/><path d="M198.09643,194.74227c0,-10.14264 11.04314,-18.36487 24.66551,-18.36487c1.27481,0 2.52703,2.07545 3.74972,2.21429c1.88294,0.21381 3.69585,-1.41727 5.41341,-0.90525c9.08514,2.70827 15.50235,9.32409 15.50235,17.05586c0,10.14264 -11.04311,18.36486 -24.6655,18.36486c-13.62237,0 -24.66551,-8.22223 -24.66551,-18.36486z" fill="url(#color-5)" stroke-width="2" stroke-linecap="butt"/><g fill="none" stroke-width="0.9" stroke-linecap="round"><path d="M223.91289,205.82269l-6.1028,0.79399"/><path d="M226.35403,208.24321c0,0 -1.38924,-1.28473 -1.92881,-2.93923c-0.44046,-1.35066 0.09794,-3.23286 0.09794,-3.23286"/><path d="M216.50906,203.56041c0,0 0.83523,1.55946 0.61234,2.72721c-0.27305,1.43048 -1.45,2.59836 -1.45,2.59836" data-paper-data="{&quot;index&quot;:null}"/></g><path d="M206.43326,189.6l5.7901,3.80126l-5.3901,4.59874" fill="none" stroke-width="1.5" stroke-linecap="round"/><path d="M252.03326,183.8l5.7901,3.80125l-5.3901,4.59875" fill="none" stroke-width="1.5" stroke-linecap="round"/><path d="M231.02336,197.6l-5.3901,-4.59875l5.7901,-3.80125" data-paper-data="{&quot;index&quot;:null}" fill="none" stroke-width="1.5" stroke-linecap="round"/><path d="M272.42336,190.6l-5.3901,-4.59875l5.7901,-3.80125" data-paper-data="{&quot;index&quot;:null}" fill="none" stroke-width="1.5" stroke-linecap="round"/></g></g></svg>