<svg version="1.1" xmlns="http://www.w3.org/2000/svg" xmlns:xlink="http://www.w3.org/1999/xlink" width="329.15082" height="273.70752" viewBox="0,0,329.15082,273.70752"><defs><linearGradient x1="296.2421" y1="70.6667" x2="296.2421" y2="310.66552" gradientUnits="userSpaceOnUse" id="color-1"><stop offset="0" stop-color="#925a0c"/><stop offset="1" stop-color="#745009"/></linearGradient><linearGradient x1="293.24208" y1="67.16666" x2="293.24208" y2="103.11222" gradientUnits="userSpaceOnUse" id="color-2"><stop offset="0" stop-color="#baa246"/><stop offset="1" stop-color="#a1934f"/></linearGradient></defs><g transform="translate(-130.1667,-64.6667)"><g data-paper-data="{&quot;isPaintingLayer&quot;:true}" fill-rule="nonzero" stroke-linecap="butt" stroke-linejoin="miter" stroke-miterlimit="10" stroke-dasharray="" stroke-dashoffset="0" style="mix-blend-mode: normal"><path d="M135.66671,302.11224c0,-37.95759 0,-198.15316 0,-220.98163c0,-6.19385 3.54896,-10.46393 8.31552,-10.46393c26.04033,0 253.87655,0 303.37282,0c6.07414,0 9.46248,3.21615 9.46248,10.46393c0,40.82444 0,198.83381 0,220.34475c0,5.56902 -3.38817,9.19014 -9.46248,9.19014c-49.63909,0 -278.66157,0 -303.94631,0c-4.46032,0 -7.74203,-2.48133 -7.74203,-8.55326z" fill="url(#color-1)" stroke="#000000" stroke-width="5"/><path d="M132.66671,89.82813c0,-3.15191 0,-7.14351 0,-12.19749c0,-6.19385 3.04896,-10.46393 10.31552,-10.46393c26.04033,0 249.37655,0 298.87282,0c8.57414,0 11.96248,5.21615 11.96248,12.46393c0,3.48991 0,6.53913 0,9.19749c0,10.93883 -3.78511,12.15972 -14.56818,12.18111c-59.98725,0.11896 -261.67751,0.51398 -292.38177,0.57487c-7.79138,0.01545 -14.20087,-0.67092 -14.20087,-11.75598z" fill="url(#color-2)" stroke="#000000" stroke-width="5"/><text transform="translate(190.36587,332.93842) scale(0.3282,0.3282)" font-size="40" xml:space="preserve" fill="#ffffff" fill-rule="nonzero" stroke="#ffffff" stroke-width="2" stroke-linecap="butt" stroke-linejoin="miter" stroke-miterlimit="10" stroke-dasharray="" stroke-dashoffset="0" font-family="Handwriting" font-weight="normal" text-anchor="start" style="mix-blend-mode: normal"><tspan x="0" dy="0">Choose your Plants here Everytime Play!</tspan></text><g font-family="Sans Serif" font-weight="normal" font-size="40" text-anchor="start"><text transform="translate(262.24997,91.32812) scale(0.5,0.5)" font-size="40" xml:space="preserve" fill="#000000" fill-rule="nonzero" stroke="#000000" stroke-width="8" stroke-linecap="butt" stroke-linejoin="miter" stroke-miterlimit="10" stroke-dasharray="" stroke-dashoffset="0" font-family="Sans Serif" font-weight="normal" text-anchor="start" style="mix-blend-mode: normal"><tspan x="0" dy="0">Garden</tspan></text><text transform="translate(262.24997,91.32812) scale(0.5,0.5)" font-size="40" xml:space="preserve" fill="#ffffff" fill-rule="nonzero" stroke="#ffffff" stroke-width="1" stroke-linecap="butt" stroke-linejoin="miter" stroke-miterlimit="10" stroke-dasharray="" stroke-dashoffset="0" font-family="Sans Serif" font-weight="normal" text-anchor="start" style="mix-blend-mode: normal"><tspan x="0" dy="0">Garden</tspan></text></g></g></g></svg>