<svg version="1.1" xmlns="http://www.w3.org/2000/svg" xmlns:xlink="http://www.w3.org/1999/xlink" width="106.51073" height="71.55396" viewBox="0,0,106.51073,71.55396"><defs><radialGradient cx="247.51747" cy="195.98306" r="9.52076" gradientUnits="userSpaceOnUse" id="color-1"><stop offset="0" stop-color="#a26e2a"/><stop offset="1" stop-color="#472b00"/></radialGradient><linearGradient x1="236.89022" y1="193.81833" x2="263.64306" y2="193.81833" gradientUnits="userSpaceOnUse" id="color-2"><stop offset="0" stop-color="#24b400"/><stop offset="1" stop-color="#217700"/></linearGradient><radialGradient cx="223.36816" cy="166.23496" r="34.81049" gradientUnits="userSpaceOnUse" id="color-3"><stop offset="0" stop-color="#ffb554"/><stop offset="1" stop-color="#885200"/></radialGradient><radialGradient cx="227.16738" cy="197.22825" r="10.56812" gradientUnits="userSpaceOnUse" id="color-4"><stop offset="0" stop-color="#c08231"/><stop offset="1" stop-color="#5e3800"/></radialGradient><linearGradient x1="215.37104" y1="194.82538" x2="245.06693" y2="194.82538" gradientUnits="userSpaceOnUse" id="color-5"><stop offset="0" stop-color="#2fe500"/><stop offset="1" stop-color="#16bb00"/></linearGradient><radialGradient cx="190.63775" cy="156.40198" r="13.09798" gradientUnits="userSpaceOnUse" id="color-6"><stop offset="0" stop-color="#ff9900"/><stop offset="1" stop-color="#ff9900" stop-opacity="0"/></radialGradient><radialGradient cx="190.04455" cy="155.56357" r="18.31671" gradientUnits="userSpaceOnUse" id="color-7"><stop offset="0" stop-color="#ffe000"/><stop offset="1" stop-color="#ffe000" stop-opacity="0"/></radialGradient></defs><g transform="translate(-171.72339,-137.2424)"><g data-paper-data="{&quot;isPaintingLayer&quot;:true}" fill-rule="nonzero" stroke-linecap="butt" stroke-linejoin="miter" stroke-miterlimit="10" stroke-dasharray="" stroke-dashoffset="0" style="mix-blend-mode: normal"><path d="M220.40568,166.09128c0,0 -5.49702,-9.52846 -12.60109,-10.00203c-4.36579,-0.29103 -5.99874,3.4194 -10.9723,3.89352c-4.86455,0.46373 -8.75275,-4.5329 -8.75275,-4.5329l3.33403,-1.07531c0,0 2.88961,2.30379 6.02177,2.80033c3.43856,0.54512 7.27565,-5.19061 11.72365,-4.05153c6.13186,1.57028 11.91565,9.51101 11.91565,9.51101z" fill="#c29557" stroke="#000000" stroke-width="1.5"/><path d="M237.9967,195.98306c0,-5.25817 4.2626,-9.52076 9.52076,-9.52076c5.25817,0 9.52076,4.26259 9.52076,9.52076c0,5.25817 -4.26259,9.52076 -9.52076,9.52076c-5.25817,0 -9.52076,-4.26259 -9.52076,-9.52076z" fill="url(#color-1)" stroke="#000000" stroke-width="2"/><path d="M263.64306,203.67284c0,0 -0.89912,1.57559 -9.4934,-6.85792c-1.67395,-1.64263 -3.60597,-10.06991 -5.61281,-9.93444c-12.13454,0.81916 -12.26272,13.33016 -11.26991,11.21281c0.51029,-1.0883 -1.58815,-7.26194 2.24057,-11.0842c3.62025,-3.61415 11.93857,-4.13836 15.517,-1.52937c3.77601,2.75306 2.15722,6.77979 4.13259,12.56337c1.09191,3.19695 4.48595,5.62975 4.48595,5.62975z" data-paper-data="{&quot;origRot&quot;:0,&quot;index&quot;:null}" fill="url(#color-2)" stroke="#000000" stroke-width="2"/><path d="M277.2349,180.20635c0,0 -13.84686,16.19846 -32.80044,20.49946c-9.26669,2.10282 -16.69142,4.6938 -22.23448,1.8618c-5.79441,-2.96041 -9.53267,-8.33841 -11.16946,-15.5514c-0.8637,-3.80619 -1.64915,-12.29639 0.36565,-18.03198c1.86204,-5.3007 6.50611,-8.01445 6.50611,-8.01445l-1.54176,4.19517l10.93895,-8.56286l2.07493,1.76142c0,0 4.70786,-0.80388 5.60282,-1.00697c10.05733,-2.1855 21.93805,0.214 21.93805,0.214l8.81509,-2.24609c0,0 5.27603,4.23653 8.06955,10.59604c3.67126,8.35774 3.435,14.28586 3.435,14.28586z" fill="url(#color-3)" stroke="#000000" stroke-width="2"/><path d="M237.27985,172.89797c0,-3.06087 2.48134,-5.5422 5.5422,-5.5422c3.06087,0 5.5422,2.48134 5.5422,5.5422c0,3.06087 -2.48134,5.5422 -5.5422,5.5422c-3.06087,0 -5.5422,-2.48134 -5.5422,-5.5422z" fill="#ffffff" stroke="#000000" stroke-width="1"/><path d="M216.59926,197.22825c0,-5.83662 4.73151,-10.56812 10.56813,-10.56812c5.83662,0 10.56812,4.7315 10.56812,10.56812c0,5.83662 -4.7315,10.56812 -10.56812,10.56812c-5.83662,0 -10.56813,-4.73151 -10.56813,-10.56812z" fill="url(#color-4)" stroke="#000000" stroke-width="2"/><path d="M224.39617,192.01108c0,-0.71781 0.58189,-1.29969 1.29969,-1.29969c0.71781,0 1.29969,0.58189 1.29969,1.29969c0,0.71781 -0.58189,1.29969 -1.29969,1.29969c-0.71781,0 -1.29969,-0.58189 -1.29969,-1.29969z" fill="#000000" stroke="none" stroke-width="0.5"/><path d="M229.75472,193.88391c0,-0.86136 0.69827,-1.55963 1.55963,-1.55963c0.86136,0 1.55963,0.69827 1.55963,1.55963c0,0.86136 -0.69827,1.55963 -1.55963,1.55963c-0.86136,0 -1.55963,-0.69827 -1.55963,-1.55963z" fill="#000000" stroke="none" stroke-width="0.5"/><path d="M224.94648,196.55937c0,-1.00492 0.81465,-1.81957 1.81957,-1.81957c1.00492,0 1.81957,0.81465 1.81957,1.81957c0,1.00492 -0.81465,1.81957 -1.81957,1.81957c-1.00492,0 -1.81957,-0.81465 -1.81957,-1.81957z" fill="#000000" stroke="none" stroke-width="0.5"/><path d="M245.06693,205.76397c0,0 -0.99802,1.74892 -10.53774,-7.61233c-1.8581,-1.82334 -4.00264,-11.17769 -6.23027,-11.02731c-13.46944,0.90928 -13.61171,14.79658 -12.50969,12.4463c0.56643,-1.20802 -1.76287,-8.06081 2.48704,-12.30356c4.01852,-4.01173 13.25191,-4.59361 17.224,-1.6976c4.1914,3.0559 2.39454,7.52561 4.58721,13.94543c1.21202,3.54863 4.97944,6.24906 4.97944,6.24906z" data-paper-data="{&quot;origRot&quot;:0,&quot;index&quot;:null}" fill="url(#color-5)" stroke="#000000" stroke-width="2"/><path d="M265.48464,171.15492c-2.90397,-6.82492 -3.27231,-13.20254 -0.82274,-14.24482c2.44958,-1.04228 6.78948,3.64548 9.69345,10.47038c2.90397,6.82492 3.27231,13.20254 0.82274,14.24482c-2.44958,1.04228 -6.78949,-3.64548 -9.69345,-10.47038z" fill="#ffffff" stroke="#000000" stroke-width="2"/><path d="M243.7781,172.08995c0,-0.64868 0.52587,-1.17455 1.17455,-1.17455c0.64868,0 1.17455,0.52587 1.17455,1.17455c0,0.64868 -0.52587,1.17455 -1.17455,1.17455c-0.64868,0 -1.17455,-0.52587 -1.17455,-1.17455z" fill="#000000" stroke="none" stroke-width="0.5"/><path d="M236.11695,171.00828l0.21384,-2.99375l1.29607,-1.23398l5.72488,-0.18245l2.27186,-1.24387l-0.15569,1.18023l2.42629,-0.05591l0.30198,4.6807l-6.64357,0.90594z" fill="#5a390a" stroke="#000000" stroke-width="1"/><path d="M178.72724,161.85148c-3.00968,-6.57799 -0.11697,-14.35033 6.46101,-17.36c6.57799,-3.00968 14.35033,-0.11697 17.36,6.46102c3.00968,6.57799 0.11697,14.35033 -6.46102,17.35999c-6.57799,3.00968 -14.35033,0.11697 -17.35999,-6.46101z" fill="url(#color-6)" stroke="none" stroke-width="0"/><path d="M173.38845,163.18434c-4.20884,-9.19891 -0.16357,-20.06803 9.03533,-24.27687c9.19891,-4.20884 20.06803,-0.16357 24.27687,9.03533c4.20884,9.19891 0.16357,20.06803 -9.03533,24.27687c-9.19891,4.20884 -20.06803,0.16357 -24.27687,-9.03533z" fill="url(#color-7)" stroke="none" stroke-width="0"/></g></g></svg>