<svg version="1.1" xmlns="http://www.w3.org/2000/svg" xmlns:xlink="http://www.w3.org/1999/xlink" width="67.02948" height="45.08784" viewBox="0,0,67.02948,45.08784"><g transform="translate(-213.15182,-176.77034)"><g data-paper-data="{&quot;isPaintingLayer&quot;:true}" fill-rule="nonzero" stroke-linecap="butt" stroke-linejoin="miter" stroke-miterlimit="10" stroke-dasharray="" stroke-dashoffset="0" style="mix-blend-mode: normal"><path d="M226.38263,193.71602l-2.53502,-8.00835l18.49546,-5.85471l2.53502,8.00835z" data-paper-data="{&quot;origPos&quot;:null,&quot;origRot&quot;:0}" fill="#c07a00" stroke="#000000" stroke-width="2"/><path d="M226.71131,194.78584l11.11282,-16.62844l16.12959,10.77944l-11.11282,16.62844z" data-paper-data="{&quot;origPos&quot;:null,&quot;origRot&quot;:0}" fill="#c07a00" stroke="#000000" stroke-width="2"/><path d="M214.45276,199.02164l16.14297,-6.49344l2.98549,7.42206l-16.14297,6.49344z" data-paper-data="{&quot;origPos&quot;:null,&quot;origRot&quot;:0}" fill="#4c517f" stroke="#000000" stroke-width="2"/><path d="M222.72725,211.12137l13.46954,-11.32835l5.14925,6.12252l-13.46954,11.32835z" data-paper-data="{&quot;origPos&quot;:null,&quot;origRot&quot;:0}" fill="#4c517f" stroke="#000000" stroke-width="2"/><path d="M223.8142,220.85818v-8.4h19.4v8.4z" fill="#c07a00" stroke="#000000" stroke-width="2"/><path d="M268.79463,220.02504c-6.48022,0.67172 -12.33647,-4.60085 -13.08029,-11.77662c-0.74382,-7.17577 3.90646,-13.53742 10.38667,-14.20914c6.48022,-0.67172 12.33647,4.60085 13.08029,11.77662c0.74382,7.17577 -3.90646,13.53741 -10.38667,14.20913z" fill="#b2b2b2" stroke="#000000" stroke-width="2"/><path d="M271.06648,206.09157c-1.64802,0.17083 -3.09653,-0.77618 -3.23533,-2.11519c-0.1388,-1.33902 1.08468,-2.56299 2.73269,-2.73383c1.64802,-0.17083 3.09653,0.77618 3.23533,2.11519c0.1388,1.33902 -1.08468,2.56299 -2.73269,2.73383z" fill="#ff0000" stroke="none" stroke-width="0"/><path d="M270.30078,200.03825c-1.47636,0.15303 -2.77127,-0.66923 -2.89227,-1.83658c-0.121,-1.16736 0.97772,-2.23774 2.45408,-2.39077c1.47636,-0.15303 2.77127,0.66923 2.89227,1.83658c0.121,1.16736 -0.97772,2.23774 -2.45408,2.39077z" fill="#ff0000" stroke="none" stroke-width="0"/></g></g></svg>