<svg version="1.1" xmlns="http://www.w3.org/2000/svg" xmlns:xlink="http://www.w3.org/1999/xlink" width="36.625" height="87.29327" viewBox="0,0,36.625,87.29327"><g transform="translate(-217.4,-131.86923)"><g data-paper-data="{&quot;isPaintingLayer&quot;:true}" fill-rule="nonzero" stroke-linecap="butt" stroke-linejoin="miter" stroke-miterlimit="10" stroke-dasharray="" stroke-dashoffset="0" style="mix-blend-mode: normal"><path d="M218.4,190.3625v-8.4h19.4v8.4z" data-paper-data="{&quot;origPos&quot;:null}" fill="#c07a00" stroke="#000000" stroke-width="2"/><path d="M230.4,199.9625v-20h19.4v20z" data-paper-data="{&quot;origPos&quot;:null}" fill="#c07a00" stroke="#000000" stroke-width="2"/><path d="M253.025,172.02291c0,6.51494 -5.84828,11.79635 -13.0625,11.79635c-7.21422,0 -13.0625,-5.28141 -13.0625,-11.79635c0,-6.51494 5.84828,-11.79635 13.0625,-11.79635c7.21422,0 13.0625,5.28141 13.0625,11.79635z" data-paper-data="{&quot;origPos&quot;:null}" fill="#b2b2b2" stroke="#000000" stroke-width="2"/><path d="M231,218.1625v-17.4h8v17.4z" data-paper-data="{&quot;origPos&quot;:null}" fill="#4c517f" stroke="#000000" stroke-width="2"/><path d="M241,218.1625v-17.6h8v17.6z" data-paper-data="{&quot;origPos&quot;:null}" fill="#4c517f" stroke="#000000" stroke-width="2"/><path d="M223.2,190.7625v-8.4h19.4v8.4z" data-paper-data="{&quot;origPos&quot;:null}" fill="#c07a00" stroke="#000000" stroke-width="2"/><path d="M227.63318,164.16292l0.54156,-2.43248c0,0 2.43793,-0.34349 2.70768,-1.24187c0.78016,-2.5982 5.08977,-16.8299 8.28896,-27.61934c0.12542,-0.42299 0.58306,-0.61416 0.75055,-0.08068c3.32331,10.58536 7.488,23.85068 8.51557,27.12366c0.32412,1.03237 2.9356,1.47016 2.9356,1.47016l1.10697,2.59865z" data-paper-data="{&quot;origPos&quot;:null}" fill="#de910d" stroke="#000000" stroke-width="2"/><path d="M239.08864,169.10499c0,2.08676 -1.09131,3.77842 -2.4375,3.77842c-1.34619,0 -2.4375,-1.69166 -2.4375,-3.77842c0,-2.08676 1.09131,-3.77842 2.4375,-3.77842c1.34619,0 2.4375,1.69166 2.4375,3.77842z" data-paper-data="{&quot;origPos&quot;:null}" fill="#ff0000" stroke="none" stroke-width="0"/><path d="M233.3,169.27817c0,1.86939 -0.95139,3.38484 -2.125,3.38484c-1.17361,0 -2.125,-1.51544 -2.125,-3.38484c0,-1.86939 0.95139,-3.38483 2.125,-3.38483c1.17361,0 2.125,1.51543 2.125,3.38483z" data-paper-data="{&quot;origPos&quot;:null}" fill="#ff0000" stroke="none" stroke-width="0"/></g></g></svg>