<svg version="1.1" xmlns="http://www.w3.org/2000/svg" xmlns:xlink="http://www.w3.org/1999/xlink" width="60.63157" height="38.15113" viewBox="0,0,60.63157,38.15113"><defs><linearGradient x1="239.79181" y1="162.83335" x2="239.79181" y2="198.83335" gradientUnits="userSpaceOnUse" id="color-1"><stop offset="0" stop-color="#efb640"/><stop offset="1" stop-color="#fff6b4"/></linearGradient><linearGradient x1="231.52191" y1="172.30892" x2="239.54062" y2="172.30892" gradientUnits="userSpaceOnUse" id="color-2"><stop offset="0" stop-color="#fff8ad"/><stop offset="1" stop-color="#c9c388"/></linearGradient><linearGradient x1="234.91911" y1="194.67326" x2="242.31847" y2="194.67326" gradientUnits="userSpaceOnUse" id="color-3"><stop offset="0" stop-color="#2fe500"/><stop offset="1" stop-color="#51b800"/></linearGradient><linearGradient x1="234.50901" y1="173.97448" x2="248.76671" y2="173.97448" gradientUnits="userSpaceOnUse" id="color-4"><stop offset="0" stop-color="#fff8ad"/><stop offset="1" stop-color="#c9c388"/></linearGradient><linearGradient x1="232.13025" y1="175.59793" x2="248.93513" y2="175.59793" gradientUnits="userSpaceOnUse" id="color-5"><stop offset="0" stop-color="#fff8ad"/><stop offset="1" stop-color="#c9c388"/></linearGradient><linearGradient x1="223.80934" y1="172.81649" x2="231.76582" y2="172.81649" gradientUnits="userSpaceOnUse" id="color-6"><stop offset="0" stop-color="#fff8ad"/><stop offset="1" stop-color="#c9c388"/></linearGradient><linearGradient x1="215.51072" y1="173.60318" x2="232.61915" y2="173.60318" gradientUnits="userSpaceOnUse" id="color-7"><stop offset="0" stop-color="#fff8ad"/><stop offset="1" stop-color="#c9c388"/></linearGradient><linearGradient x1="217.97893" y1="177.88025" x2="231.34499" y2="177.88025" gradientUnits="userSpaceOnUse" id="color-8"><stop offset="0" stop-color="#fff8ad"/><stop offset="1" stop-color="#c9c388"/></linearGradient><linearGradient x1="236.70332" y1="176.12099" x2="236.70332" y2="201.64186" gradientUnits="userSpaceOnUse" id="color-9"><stop offset="0" stop-color="#3dff00"/><stop offset="1" stop-color="#ebffd8"/></linearGradient><linearGradient x1="232.12936" y1="169.89014" x2="233.28946" y2="178.39383" gradientUnits="userSpaceOnUse" id="color-10"><stop offset="0" stop-color="#00e0ff"/><stop offset="1" stop-color="#00bcc4"/></linearGradient><linearGradient x1="223.85027" y1="179.73582" x2="232.27979" y2="179.73582" gradientUnits="userSpaceOnUse" id="color-11"><stop offset="0" stop-color="#fff8ad"/><stop offset="1" stop-color="#c9c388"/></linearGradient><linearGradient x1="233.68711" y1="178.25791" x2="244.66035" y2="178.25791" gradientUnits="userSpaceOnUse" id="color-12"><stop offset="0" stop-color="#fff8ad"/><stop offset="1" stop-color="#c9c388"/></linearGradient><linearGradient x1="229.26358" y1="180.32755" x2="234.9749" y2="180.32755" gradientUnits="userSpaceOnUse" id="color-13"><stop offset="0" stop-color="#fff8ad"/><stop offset="1" stop-color="#c9c388"/></linearGradient><linearGradient x1="225.8936" y1="195.42274" x2="233.17054" y2="195.42274" gradientUnits="userSpaceOnUse" id="color-14"><stop offset="0" stop-color="#2fe500"/><stop offset="1" stop-color="#51b800"/></linearGradient><linearGradient x1="232.48072" y1="195.85856" x2="240.16616" y2="195.85856" gradientUnits="userSpaceOnUse" id="color-15"><stop offset="0" stop-color="#2fe500"/><stop offset="1" stop-color="#51b800"/></linearGradient></defs><g transform="translate(-209.2429,-161.85145)"><g data-paper-data="{&quot;isPaintingLayer&quot;:true}" fill-rule="nonzero" stroke-linejoin="miter" stroke-miterlimit="10" stroke-dasharray="" stroke-dashoffset="0" style="mix-blend-mode: normal"><path d="M210.50015,195.77118c0,-7.18645 0,-25.25324 0,-29.5c0,-1.72983 1.95533,-3.43783 4.10049,-3.43783c6.49354,0 39.77537,0 50.875,0c2.26628,0 3.60783,1.47996 3.60783,3.81283c0,7.50898 0,23.85448 0,28.125c0,1.9962 -1.8827,4.06217 -3.73283,4.06217c-5.36167,0 -31.34965,0 -31.34965,0c-3.50551,-0.20254 -7.07398,-0.45211 -10.3325,-0.0711c-0.25664,0.03001 -0.52182,0.05168 -0.79121,0.0711c0,0 -6.49221,0 -8.77664,0c-1.46318,0 -3.60049,-1.2397 -3.60049,-3.06217z" data-paper-data="{&quot;origPos&quot;:null}" fill="url(#color-1)" stroke="none" stroke-width="0" stroke-linecap="butt"/><path d="M233.44284,193.7961c0.14703,-1.33784 1.76245,-2.30356 3.60813,-2.15703c1.84568,0.14654 3.5184,1.5593 3.37136,2.89713c-0.14703,1.33783 -7.12653,0.59773 -6.97949,-0.74011z" data-paper-data="{&quot;origPos&quot;:null,&quot;origRot&quot;:0,&quot;index&quot;:null}" fill="#25b800" stroke="#000000" stroke-width="1" stroke-linecap="butt"/><path d="M234.27155,194.40923c0.14703,1.33784 -6.83246,2.07794 -6.97949,0.74011c-0.14703,-1.33784 1.52568,-2.75059 3.37136,-2.89713c1.84568,-0.14654 3.46109,0.81919 3.60813,2.15703z" data-paper-data="{&quot;origPos&quot;:null,&quot;origRot&quot;:0}" fill="#25b800" stroke="#000000" stroke-width="1" stroke-linecap="butt"/><path d="M236.16464,170.86494c0,0 -2.8383,1.74475 -2.95447,1.76709c-1.79659,0.34538 -2.23867,0.2411 -0.941,-3.67138c0.93155,-1.78188 2.95355,-3.70751 4.42771,-3.17154c2.10748,0.76623 2.83315,8.0768 2.82493,8.21852c-0.1042,1.79539 0.47765,2.86771 -1.1634,4.79264c-1.07959,1.26635 -2.19377,-7.93533 -2.19377,-7.93533z" data-paper-data="{&quot;origPos&quot;:null,&quot;origRot&quot;:0,&quot;index&quot;:null}" fill="url(#color-2)" stroke="#666349" stroke-width="0.75" stroke-linecap="butt"/><path d="M234.92153,195.05489c0.15563,-1.40835 1.86544,-2.42499 3.81899,-2.27072c1.95354,0.15426 3.72402,1.64149 3.56839,3.04984c-0.15563,1.40834 -7.54301,0.62923 -7.38738,-0.77912z" data-paper-data="{&quot;origPos&quot;:null,&quot;origRot&quot;:0,&quot;index&quot;:null}" fill="url(#color-3)" stroke="#000000" stroke-width="1" stroke-linecap="butt"/><path d="M245.35904,171.51701c-1.22305,-0.24055 -4.35974,-0.53914 -4.35974,-0.53914c-2.54995,2.66855 -4.07486,6.69642 -4.09226,6.90521c-0.26912,3.22892 -2.95921,4.04136 -2.29203,0.05209c0.46517,-2.78138 0.58044,-4.55237 1.23551,-7.29524c0.26956,-1.1287 -0.24559,-1.63983 0.5561,-2.47882c1.53592,-1.60736 11.00071,-0.87908 12.17767,1.98974c0.87804,2.14021 -1.61349,1.68315 -3.22525,1.36615z" data-paper-data="{&quot;origPos&quot;:null,&quot;index&quot;:null,&quot;origRot&quot;:0}" fill="url(#color-4)" stroke="#666349" stroke-width="0.75" stroke-linecap="butt"/><path d="M245.43255,176.97626c-1.01041,-0.72993 -3.73486,-2.31275 -3.73486,-2.31275c-3.43217,1.3578 -6.50161,4.37899 -6.60472,4.56138c-1.59463,2.82055 -4.37797,2.4337 -2.10382,-0.91109c1.58558,-2.33204 2.43083,-3.89256 4.1728,-6.11022c0.71682,-0.91257 0.4626,-1.59228 1.54167,-2.01917c2.06731,-0.81785 10.3604,3.80139 10.22994,6.8995c-0.09733,2.31127 -2.16948,0.85426 -3.50101,-0.10765z" data-paper-data="{&quot;origPos&quot;:null,&quot;index&quot;:null,&quot;origRot&quot;:0}" fill="url(#color-5)" stroke="#666349" stroke-width="0.75" stroke-linecap="butt"/><path d="M224.99148,179.31806c-1.64104,-1.92493 -1.05919,-2.99725 -1.1634,-4.79264c-0.00822,-0.14172 0.71745,-7.4523 2.82493,-8.21852c1.47416,-0.53597 3.11472,0.91285 4.33235,3.17154c1.29767,3.91248 0.95095,4.01676 -0.84564,3.67138c-0.11617,-0.02233 -2.95447,-1.76708 -2.95447,-1.76708c0,0 -1.11418,9.20168 -2.19377,7.93533z" data-paper-data="{&quot;origPos&quot;:null,&quot;origRot&quot;:0}" fill="url(#color-6)" stroke="#666349" stroke-width="0.75" stroke-linecap="butt"/><path d="M215.82751,177.14788c-1.42999,-3.2125 2.22964,-8.20102 6.00772,-8.20102c3.77808,0 5.84402,2.04104 9.15462,4.29123c3.34513,2.27366 0.89927,3.65728 -1.62113,1.62113c-0.16297,-0.13166 -4.12859,-1.81185 -7.81958,-1.81185c0,0 -1.95113,2.47407 -2.62217,3.52451c-0.88431,1.38429 -2.15872,2.68939 -3.09947,0.57599z" data-paper-data="{&quot;origPos&quot;:null}" fill="url(#color-7)" stroke="#666349" stroke-width="0.75" stroke-linecap="butt"/><path d="M220.09882,184.35877c-2.94273,-1.92493 -1.89935,-2.99725 -2.08621,-4.79264c-0.01475,-0.14172 1.28653,-7.4523 5.06567,-8.21852c2.64347,-0.53597 4.38833,1.48502 7.08479,1.5504c2.32699,3.91248 1.02124,3.82604 -2.20041,3.48066c-0.20832,-0.02233 -0.82796,-1.95546 -3.92997,0.04477c-2.75239,1.77479 -1.99795,9.20168 -3.93388,7.93533z" data-paper-data="{&quot;origPos&quot;:null,&quot;origRot&quot;:0}" fill="url(#color-8)" stroke="#666349" stroke-width="0.75" stroke-linecap="butt"/><path d="M231.98387,194.39445c-0.62572,-1.26963 -10.51313,-18.85351 -0.38144,-18.75026c9.62109,0.09805 -6.31543,1.11078 3.90797,0.28608c6.6895,-0.53963 3.16204,12.63945 1.04896,17.60593c-2.11308,4.96648 -3.94977,2.12788 -4.57549,0.85825z" data-paper-data="{&quot;origPos&quot;:null}" fill="url(#color-9)" stroke="#244b00" stroke-width="0.75" stroke-linecap="butt"/><path d="M239.24827,173.3943c0.46012,2.0288 -2.58189,4.39056 -5.73896,4.82126c-3.15706,0.4307 -7.80587,-0.50453 -8.08707,-2.56575c-0.2812,-2.06122 2.8482,-5.03732 6.00527,-5.46802c3.15706,-0.4307 7.3377,1.08258 7.82076,3.21251z" data-paper-data="{&quot;origPos&quot;:null,&quot;origRot&quot;:0}" fill="url(#color-10)" stroke="#244b00" stroke-width="0.75" stroke-linecap="butt"/><path d="M225.03247,186.22501c-1.64104,-1.92493 -1.05919,-2.99725 -1.1634,-4.79264c-0.00822,-0.14172 0.71745,-7.4523 2.82493,-8.21852c1.47416,-0.53597 3.49617,1.58038 4.99987,1.64577c1.29767,3.91248 0.28342,5.54253 -1.51317,5.19715c-0.11617,-0.02233 -2.95447,-1.76708 -2.95447,-1.76708c0,0 -1.11418,9.20168 -2.19377,7.93533z" data-paper-data="{&quot;origPos&quot;:null,&quot;origRot&quot;:0}" fill="url(#color-11)" stroke="#666349" stroke-width="0.75" stroke-linecap="butt"/><path d="M238.98215,179.24327c-0.64502,-0.41592 -2.34633,-3.40239 -2.34633,-3.40239l1.02107,1.68622c0,0 -1.48072,1.5509 -2.60472,1.6714c-3.22165,0.34538 0.11688,-5.62514 1.28046,-6.10357c2.40579,-0.98918 4.24462,1.81428 5.74808,3.93699c1.56813,2.21402 2.82091,3.8952 2.54008,6.59372c0,0 -3.93522,-2.03543 -5.63864,-4.38238z" data-paper-data="{&quot;origPos&quot;:null,&quot;origRot&quot;:0,&quot;index&quot;:null}" fill="url(#color-12)" stroke="#666349" stroke-width="0.75" stroke-linecap="butt"/><path d="M231.09461,186.85155c-1.64104,-1.92493 -1.72672,-2.99725 -1.83092,-4.79264c-0.00822,-0.14172 -0.6176,-6.97549 1.48988,-7.74172c1.47416,-0.53597 3.11472,-0.13611 3.4741,1.45504c1.29767,3.91248 0.85559,5.35181 -0.941,5.00643c-0.11617,-0.02233 0.09707,-1.76708 0.09707,-1.76708c0,0 -1.20954,9.10632 -2.28913,7.83997z" data-paper-data="{&quot;origPos&quot;:null,&quot;origRot&quot;:0}" fill="url(#color-13)" stroke="#666349" stroke-width="0.75" stroke-linecap="butt"/><path d="M234.28275,186.54441c0.08587,0.9863 -0.24565,1.86014 -0.74045,1.95174c-0.49481,0.09162 -0.96554,-0.63369 -1.0514,-1.61999c-0.08587,-0.9863 0.24565,-1.86014 0.74045,-1.95174c0.49481,-0.09162 0.96553,0.63369 1.05139,1.61999z" data-paper-data="{&quot;origPos&quot;:null,&quot;origRot&quot;:0}" fill="#000000" stroke="none" stroke-width="0" stroke-linecap="butt"/><path d="M236.4663,185.76489c0.05688,0.74386 -0.19972,1.3985 -0.57316,1.46217c-0.37344,0.06367 -0.72228,-0.48773 -0.77918,-1.23161c-0.05688,-0.74386 0.19972,-1.3985 0.57316,-1.46217c0.37344,-0.06367 0.7223,0.48774 0.77918,1.2316z" data-paper-data="{&quot;origPos&quot;:null,&quot;origRot&quot;:0}" fill="#000000" stroke="none" stroke-width="0" stroke-linecap="butt"/><path d="M233.61504,186.29108c0.03895,0.44743 -0.11144,0.84383 -0.3359,0.8854c-0.22446,0.04156 -0.438,-0.28747 -0.47695,-0.73489c-0.03895,-0.44743 0.11144,-0.84383 0.3359,-0.8854c0.22446,-0.04156 0.438,0.28747 0.47695,0.73489z" data-paper-data="{&quot;origPos&quot;:null,&quot;origRot&quot;:0}" fill="#ffffff" stroke="none" stroke-width="0" stroke-linecap="butt"/><path d="M235.88598,185.43015c0.0194,0.25368 -0.06811,0.47693 -0.19546,0.49864c-0.12734,0.02171 -0.24631,-0.16632 -0.26572,-0.42c-0.0194,-0.25368 0.06811,-0.47693 0.19546,-0.49864c0.12734,-0.02171 0.24631,0.16633 0.26571,0.42z" data-paper-data="{&quot;origPos&quot;:null,&quot;origRot&quot;:0}" fill="#ffffff" stroke="none" stroke-width="0" stroke-linecap="butt"/><path d="M235.37641,191.26125c0,0 -0.91905,0.21952 -1.26314,-0.06722c-0.32579,-0.27149 -0.8348,-0.88639 -0.8348,-0.88639" data-paper-data="{&quot;origPos&quot;:null}" fill="none" stroke="#244b00" stroke-width="0.5" stroke-linecap="round"/><path d="M233.16813,195.78526c0.15305,1.33783 -7.11206,2.07794 -7.26511,0.74011c-0.15305,-1.33783 1.58812,-2.75059 3.50933,-2.89713c1.92121,-0.14654 3.60273,0.81919 3.75578,2.15703z" data-paper-data="{&quot;origPos&quot;:null,&quot;origRot&quot;:0}" fill="url(#color-14)" stroke="#000000" stroke-width="1" stroke-linecap="butt"/><path d="M232.48323,196.2402c0.16165,-1.40835 1.93757,-2.42498 3.96664,-2.27072c2.02907,0.15426 3.868,1.64149 3.70636,3.04983c-0.16165,1.40834 -7.83464,0.62923 -7.673,-0.77912z" data-paper-data="{&quot;origPos&quot;:null,&quot;origRot&quot;:0,&quot;index&quot;:null}" fill="url(#color-15)" stroke="#000000" stroke-width="1" stroke-linecap="butt"/><path d="M267.97119,181.7933v15.64249h-18.91108z" data-paper-data="{&quot;origPos&quot;:null,&quot;origRot&quot;:0}" fill="#cdcdcd" stroke="none" stroke-width="0" stroke-linecap="butt"/><path d="M210.24291,195.39618c0,-7.03483 0,-24.60261 0,-28.875c0,-1.82619 1.24126,-3.66973 2.85773,-3.66973c5.28449,0 41.62396,0 52.625,0c1.98825,0 3.14884,1.77216 3.14884,3.54473c0,4.20683 0,21.72647 0,28.875c0,1.89192 -1.11237,3.05741 -3.02384,3.05741c-10.61415,0 -45.86807,0 -52.125,0c-1.85553,0 -3.48273,-1.11453 -3.48273,-2.93241z" data-paper-data="{&quot;origPos&quot;:null}" fill="none" stroke="#cdcdcd" stroke-width="2" stroke-linecap="butt"/><g fill="#ffffff" stroke-linecap="butt" font-family="Sans Serif" font-weight="normal" font-size="40" text-anchor="start"><text transform="translate(247.69646,195.74549) scale(0.27944,0.27944)" font-size="40" xml:space="preserve" fill="#ffffff" fill-rule="nonzero" stroke="#000000" stroke-width="6" stroke-linecap="butt" stroke-linejoin="miter" stroke-miterlimit="10" stroke-dasharray="" stroke-dashoffset="0" font-family="Sans Serif" font-weight="normal" text-anchor="start" style="mix-blend-mode: normal"><tspan x="0" dy="0">175</tspan></text><text transform="translate(247.69646,195.74549) scale(0.27944,0.27944)" font-size="40" xml:space="preserve" fill="#ffffff" fill-rule="nonzero" stroke="none" stroke-width="1" stroke-linecap="butt" stroke-linejoin="miter" stroke-miterlimit="10" stroke-dasharray="" stroke-dashoffset="0" font-family="Sans Serif" font-weight="normal" text-anchor="start" style="mix-blend-mode: normal"><tspan x="0" dy="0">175</tspan></text></g></g></g></svg>