<svg version="1.1" xmlns="http://www.w3.org/2000/svg" xmlns:xlink="http://www.w3.org/1999/xlink" width="74.50852" height="91.35278" viewBox="0,0,74.50852,91.35278"><defs><linearGradient x1="262.46116" y1="143.16919" x2="282.51133" y2="150.88535" gradientUnits="userSpaceOnUse" id="color-1"><stop offset="0" stop-color="#fff8ad"/><stop offset="1" stop-color="#c9c388"/></linearGradient><linearGradient x1="235.21972" y1="195.51745" x2="255.044" y2="195.51745" gradientUnits="userSpaceOnUse" id="color-2"><stop offset="0" stop-color="#2fe500"/><stop offset="1" stop-color="#51b800"/></linearGradient><linearGradient x1="256.24281" y1="143.00706" x2="273.22766" y2="177.22229" gradientUnits="userSpaceOnUse" id="color-3"><stop offset="0" stop-color="#fff8ad"/><stop offset="1" stop-color="#c9c388"/></linearGradient><linearGradient x1="249.93889" y1="130.97477" x2="269.83352" y2="138.63104" gradientUnits="userSpaceOnUse" id="color-4"><stop offset="0" stop-color="#fff8ad"/><stop offset="1" stop-color="#c9c388"/></linearGradient><linearGradient x1="232.85446" y1="117.17692" x2="268.97745" y2="145.39276" gradientUnits="userSpaceOnUse" id="color-5"><stop offset="0" stop-color="#fff8ad"/><stop offset="1" stop-color="#c9c388"/></linearGradient><linearGradient x1="215.73544" y1="125.7425" x2="249.15634" y2="138.60425" gradientUnits="userSpaceOnUse" id="color-6"><stop offset="0" stop-color="#fff8ad"/><stop offset="1" stop-color="#c9c388"/></linearGradient><linearGradient x1="250.79943" y1="128.71807" x2="245.51736" y2="151.09723" gradientUnits="userSpaceOnUse" id="color-7"><stop offset="0" stop-color="#00e0ff"/><stop offset="1" stop-color="#00bcc4"/></linearGradient><linearGradient x1="246.14543" y1="138.24971" x2="271.79407" y2="175.25322" gradientUnits="userSpaceOnUse" id="color-8"><stop offset="0" stop-color="#fff8ad"/><stop offset="1" stop-color="#c9c388"/></linearGradient><linearGradient x1="256.24048" y1="148.69917" x2="231.68261" y2="212.51212" gradientUnits="userSpaceOnUse" id="color-9"><stop offset="0" stop-color="#3dff00"/><stop offset="1" stop-color="#ebffd8"/></linearGradient><linearGradient x1="215.70087" y1="136.94515" x2="236.77826" y2="145.05661" gradientUnits="userSpaceOnUse" id="color-10"><stop offset="0" stop-color="#fff8ad"/><stop offset="1" stop-color="#c9c388"/></linearGradient><linearGradient x1="211.03874" y1="197.52546" x2="230.53491" y2="197.52546" gradientUnits="userSpaceOnUse" id="color-11"><stop offset="0" stop-color="#2fe500"/><stop offset="1" stop-color="#51b800"/></linearGradient><linearGradient x1="228.68678" y1="198.69311" x2="249.27753" y2="198.69311" gradientUnits="userSpaceOnUse" id="color-12"><stop offset="0" stop-color="#2fe500"/><stop offset="1" stop-color="#51b800"/></linearGradient><linearGradient x1="236.28637" y1="149.51851" x2="263.7241" y2="160.07769" gradientUnits="userSpaceOnUse" id="color-13"><stop offset="0" stop-color="#fff8ad"/><stop offset="1" stop-color="#c9c388"/></linearGradient><linearGradient x1="223.01141" y1="146.02465" x2="237.29212" y2="151.52046" gradientUnits="userSpaceOnUse" id="color-14"><stop offset="0" stop-color="#fff8ad"/><stop offset="1" stop-color="#c9c388"/></linearGradient></defs><g transform="translate(-210.07037,-113.443)"><g data-paper-data="{&quot;isPaintingLayer&quot;:true}" fill-rule="nonzero" stroke-linejoin="miter" stroke-miterlimit="10" stroke-dasharray="" stroke-dashoffset="0" style="mix-blend-mode: normal"><path d="M231.26445,193.16737c0.39393,-3.58432 4.72194,-6.17169 9.66687,-5.77909c4.94493,0.3926 9.42647,4.17765 9.03253,7.76197c-0.39393,3.5843 -19.09333,1.60142 -18.6994,-1.98289z" data-paper-data="{&quot;origPos&quot;:null,&quot;origRot&quot;:0,&quot;index&quot;:null}" fill="#25b800" stroke="#000000" stroke-width="2" stroke-linecap="butt"/><path d="M233.48486,194.81008c0.39393,3.58432 -18.30546,5.56719 -18.6994,1.98289c-0.39393,-3.58432 4.0876,-7.36937 9.03253,-7.76197c4.94493,-0.3926 9.27293,2.19477 9.66686,5.77909z" data-paper-data="{&quot;origPos&quot;:null,&quot;origRot&quot;:0}" fill="#25b800" stroke="#000000" stroke-width="2" stroke-linecap="butt"/><path d="M275.45948,144.02621c0,0 -8.77586,1.63141 -9.08784,1.57548c-4.82457,-0.8652 -5.82961,-1.55136 1.17995,-10.08549c4.0439,-3.55904 10.95275,-6.42823 14.123,-3.66954c4.53228,3.94386 -0.68796,22.92166 -0.8449,23.26812c-1.9882,4.38896 -1.56519,7.63012 -7.52077,10.86413c-3.91799,2.12755 2.15055,-21.95267 2.15055,-21.95267z" data-paper-data="{&quot;origPos&quot;:null,&quot;origRot&quot;:0,&quot;index&quot;:null}" fill="url(#color-1)" stroke="#666349" stroke-width="1.5" stroke-linecap="butt"/><path d="M235.22622,196.53993c0.41696,-3.77324 4.99788,-6.497 10.2318,-6.0837c5.23392,0.4133 9.97736,4.39786 9.5604,8.1711c-0.41696,3.77322 -20.20916,1.68583 -19.7922,-2.08741z" data-paper-data="{&quot;origPos&quot;:null,&quot;origRot&quot;:0,&quot;index&quot;:null}" fill="url(#color-2)" stroke="#000000" stroke-width="2" stroke-linecap="butt"/><path d="M275.06559,166.11719c-0.87974,-3.2216 -3.89986,-11.10466 -3.89986,-11.10466c-9.44162,-2.94033 -20.92419,-1.80145 -21.44598,-1.59448c-8.06929,3.20071 -13.2236,-2.28706 -2.85547,-5.43832c7.22883,-2.19712 11.61613,-4.0302 18.97876,-5.72571c3.02975,-0.69771 3.64264,-2.54286 6.61108,-1.61844c5.68701,1.77104 15.21451,25.352 9.73207,31.59402c-4.09003,4.65669 -5.96129,-1.86692 -7.12064,-6.1124z" data-paper-data="{&quot;origPos&quot;:null,&quot;index&quot;:null,&quot;origRot&quot;:0}" fill="url(#color-3)" stroke="#666349" stroke-width="1.5" stroke-linecap="butt"/><path d="M246.63865,148.36903c-2.251,-6.39225 0.23572,-8.51361 1.70282,-13.10313c0.11582,-0.36227 8.96502,-17.94351 14.97192,-17.83145c4.20176,0.07838 6.90971,5.27971 7.78084,12.09905c-0.52011,11.03155 -1.48742,10.95867 -5.64731,8.36626c-0.26899,-0.16762 -5.68703,-7.26144 -5.68703,-7.26144c0,0 -11.64038,21.93596 -13.12125,17.7307z" data-paper-data="{&quot;origPos&quot;:null,&quot;origRot&quot;:0}" fill="url(#color-4)" stroke="#666349" stroke-width="1.5" stroke-linecap="butt"/><path d="M227.67723,125.1837c2.27885,-9.14133 18.23311,-13.63856 26.21023,-7.40761c7.97712,6.23096 8.97303,13.94767 12.25198,24.15873c3.31315,10.31754 -4.133,9.20515 -6.09652,0.74925c-0.12696,-0.54678 -5.72901,-10.63459 -13.52223,-16.7219c0,0 -8.19999,2.00592 -11.34926,3.11714c-4.15016,1.46438 -8.99341,2.11818 -7.49421,-3.89559z" data-paper-data="{&quot;origPos&quot;:null,&quot;origRot&quot;:0}" fill="url(#color-5)" stroke="#666349" stroke-width="1.5" stroke-linecap="butt"/><path d="M214.80208,143.98148c-5.50578,-7.64482 -1.86502,-9.32207 -0.6046,-13.99112c0.09951,-0.36855 10.38797,-17.3959 20.57473,-15.67526c7.12553,1.20358 9.54368,7.93591 16.22307,10.69412c2.05361,12.02202 -1.12813,10.54943 -8.85129,6.58575c-0.49939,-0.2563 -0.18856,-5.68619 -9.86967,-3.66973c-8.58996,1.78917 -13.85019,21.08553 -17.47226,16.05626z" data-paper-data="{&quot;origPos&quot;:null,&quot;origRot&quot;:0}" fill="url(#color-6)" stroke="#666349" stroke-width="1.5" stroke-linecap="butt"/><path d="M265.22769,144.33021c-0.80175,5.5156 -10.68071,8.4938 -18.98917,6.53277c-8.30845,-1.961 -19.03248,-8.77286 -17.75216,-14.19738c1.28032,-5.42453 11.96895,-9.8547 20.27738,-7.89369c8.30845,1.961 17.30562,9.76773 16.46391,15.55827z" data-paper-data="{&quot;origPos&quot;:null,&quot;origRot&quot;:0}" fill="url(#color-7)" stroke="#244b00" stroke-width="1.5" stroke-linecap="butt"/><path d="M263.41327,169.64449c0.06511,-3.33892 -0.60779,-11.75384 -0.60779,-11.75384c-8.22822,-5.48512 -19.56549,-7.63274 -20.12447,-7.58144c-8.64451,0.7936 -12.04081,-5.92563 -1.2048,-6.02306c7.55505,-0.06794 12.28132,-0.58851 19.82319,-0.13748c3.1035,0.18558 4.21218,-1.41162 6.7991,0.31289c4.95612,3.30387 7.44222,28.61502 0.42119,33.05627c-5.23785,3.31328 -5.19224,-3.47325 -5.10642,-7.87334z" data-paper-data="{&quot;origPos&quot;:null,&quot;index&quot;:null,&quot;origRot&quot;:0}" fill="url(#color-8)" stroke="#666349" stroke-width="1.5" stroke-linecap="butt"/><path d="M226.85597,189.84918c-0.34284,-3.77672 -8.14517,-57.25816 17.08898,-47.25062c23.96243,9.50321 -16.86011,-3.29968 9.49628,4.47583c17.24584,5.08779 -4.25608,34.64668 -14.31875,45.03165c-10.06266,10.38496 -11.92367,1.51987 -12.2665,-2.25686z" data-paper-data="{&quot;origPos&quot;:null,&quot;origRot&quot;:0}" fill="url(#color-9)" stroke="#244b00" stroke-width="1.5" stroke-linecap="butt"/><path d="M212.41253,154.30846c-2.251,-6.39225 0.23572,-8.51361 1.70282,-13.10313c0.11582,-0.36227 8.96502,-17.94351 14.97192,-17.83145c4.20176,0.07838 7.22114,7.31585 10.91813,8.92631c-0.52011,11.03155 -4.62472,14.1314 -8.78459,11.539c-0.26899,-0.16762 -5.68703,-7.26144 -5.68703,-7.26144c0,0 -11.64038,21.93596 -13.12125,17.7307z" data-paper-data="{&quot;origPos&quot;:null,&quot;origRot&quot;:0}" fill="url(#color-10)" stroke="#666349" stroke-width="1.5" stroke-linecap="butt"/><path d="M240.15796,172.43293c-0.73436,2.54881 -2.40417,4.41477 -3.72955,4.16767c-1.32539,-0.24704 -1.80447,-2.51359 -1.07008,-5.06238c0.73436,-2.54881 2.40417,-4.41477 3.72955,-4.16767c1.32539,0.24704 1.80446,2.5136 1.07006,5.06238z" data-paper-data="{&quot;origPos&quot;:null,&quot;origRot&quot;:0}" fill="#000000" stroke="none" stroke-width="0" stroke-linecap="butt"/><path d="M246.36787,172.58493c-0.57358,1.9147 -1.84512,3.30465 -2.84012,3.10448c-0.99502,-0.20015 -1.33667,-1.91455 -0.76313,-3.82932c0.57358,-1.9147 1.84511,-3.30466 2.84012,-3.10448c0.99502,0.20015 1.33671,1.91459 0.76317,3.82931z" data-paper-data="{&quot;origPos&quot;:null,&quot;origRot&quot;:0}" fill="#000000" stroke="none" stroke-width="0" stroke-linecap="butt"/><path d="M238.73218,171.15697c-0.33316,1.15624 -1.09062,2.00269 -1.69189,1.89063c-0.60125,-0.11208 -0.81856,-1.14028 -0.48542,-2.2965c0.33316,-1.15624 1.09062,-2.00269 1.69189,-1.89063c0.60125,0.11208 0.81856,1.14028 0.48542,2.29649z" data-paper-data="{&quot;origPos&quot;:null,&quot;origRot&quot;:0}" fill="#ffffff" stroke="none" stroke-width="0" stroke-linecap="butt"/><path d="M245.23895,171.18953c-0.19559,0.65297 -0.62922,1.12699 -0.96855,1.05872c-0.3393,-0.06824 -0.45583,-0.65288 -0.26026,-1.30588c0.19559,-0.65297 0.62922,-1.12699 0.96855,-1.05872c0.3393,0.06824 0.45584,0.6529 0.26025,1.30588z" data-paper-data="{&quot;origPos&quot;:null,&quot;origRot&quot;:0}" fill="#ffffff" stroke="none" stroke-width="0" stroke-linecap="butt"/><path d="M238.35372,185.27941c0,0 -2.50924,-0.33546 -3.09369,-1.38356c-0.55335,-0.99234 -1.23441,-3.01964 -1.23441,-3.01964" data-paper-data="{&quot;origPos&quot;:null,&quot;origRot&quot;:0}" fill="none" stroke="#244b00" stroke-width="1" stroke-linecap="round"/><path d="M230.52852,198.49673c0.41006,3.58431 -19.05457,5.56719 -19.46463,1.98289c-0.41006,-3.58431 4.25488,-7.36937 9.40217,-7.76197c5.14729,-0.3926 9.6524,2.19478 10.06246,5.77909z" data-paper-data="{&quot;origPos&quot;:null,&quot;origRot&quot;:0}" fill="url(#color-11)" stroke="#000000" stroke-width="2" stroke-linecap="butt"/><path d="M228.69353,199.71559c0.43308,-3.77324 5.19112,-6.49699 10.62739,-6.0837c5.43628,0.4133 10.36312,4.39786 9.93004,8.17109c-0.43308,3.77322 -20.99051,1.68583 -20.55743,-2.08741z" data-paper-data="{&quot;origPos&quot;:null,&quot;origRot&quot;:0,&quot;index&quot;:null}" fill="url(#color-12)" stroke="#000000" stroke-width="2" stroke-linecap="butt"/><path d="M248.57804,157.07757c-1.21261,-1.66067 -2.59281,-10.7652 -2.59281,-10.7652l0.93052,5.19881c0,0 -5.1948,2.45305 -8.12122,1.67278c-8.38784,-2.23649 5.70513,-13.95275 9.07494,-14.02936c6.96734,-0.15837 8.86751,8.62093 10.58418,15.37532c1.7905,7.04493 3.30526,12.45411 0.00635,18.93133c0,0 -7.88108,-8.87616 -9.88198,-16.38368z" data-paper-data="{&quot;origPos&quot;:null,&quot;origRot&quot;:0,&quot;index&quot;:null}" fill="url(#color-13)" stroke="#666349" stroke-width="1.5" stroke-linecap="butt"/><path d="M221.31181,164.09931c-2.251,-6.39225 -1.43336,-9.15595 0.03373,-13.74546c0.11582,-0.36227 5.16803,-18.03598 11.17492,-17.92391c4.20176,0.07838 7.9191,2.65686 7.28658,6.98124c-0.52011,11.03155 -3.01054,14.20509 -7.17042,11.61269c-0.26899,-0.16762 1.94312,-4.32505 1.94312,-4.32505c0,0 -11.78706,21.60574 -13.26793,17.40049z" data-paper-data="{&quot;origPos&quot;:null,&quot;origRot&quot;:0}" fill="url(#color-14)" stroke="#666349" stroke-width="1.5" stroke-linecap="butt"/></g></g></svg>