<svg version="1.1" xmlns="http://www.w3.org/2000/svg" xmlns:xlink="http://www.w3.org/1999/xlink" width="61.5728" height="71.11366" viewBox="0,0,61.5728,71.11366"><g transform="translate(-205.07158,-148.04886)"><g data-paper-data="{&quot;isPaintingLayer&quot;:true}" fill-rule="nonzero" stroke-linecap="butt" stroke-linejoin="miter" stroke-miterlimit="10" stroke-dasharray="" stroke-dashoffset="0" style="mix-blend-mode: normal"><path d="M218.4,190.36251v-8.4h19.4v8.4z" data-paper-data="{&quot;origPos&quot;:null}" fill="#d2a048" stroke="#000000" stroke-width="2"/><path d="M230.26165,199.96251v-20h19.4v20z" fill="#d2a048" stroke="#000000" stroke-width="2"/><path d="M253.025,172.02292c0,6.51494 -5.84828,11.79635 -13.0625,11.79635c-7.21422,0 -13.0625,-5.28141 -13.0625,-11.79635c0,-6.51494 5.84828,-11.79635 13.0625,-11.79635c7.21422,0 13.0625,5.28141 13.0625,11.79635z" data-paper-data="{&quot;origPos&quot;:null}" fill="#b2b2b2" stroke="#000000" stroke-width="2"/><path d="M239.08864,169.10499c0,2.08676 -1.09131,3.77842 -2.4375,3.77842c-1.34619,0 -2.4375,-1.69166 -2.4375,-3.77842c0,-2.08676 1.09131,-3.77842 2.4375,-3.77842c1.34619,0 2.4375,1.69166 2.4375,3.77842z" data-paper-data="{&quot;origPos&quot;:null}" fill="#000000" stroke="none" stroke-width="0"/><path d="M233.3,169.27817c0,1.8694 -0.95139,3.38483 -2.125,3.38483c-1.17361,0 -2.125,-1.51544 -2.125,-3.38483c0,-1.8694 0.95139,-3.38483 2.125,-3.38483c1.17361,0 2.125,1.51544 2.125,3.38483z" data-paper-data="{&quot;origPos&quot;:null}" fill="#000000" stroke="none" stroke-width="0"/><path d="M231,218.16251v-17.4h8v17.4z" data-paper-data="{&quot;origPos&quot;:null}" fill="#323553" stroke="#000000" stroke-width="2"/><path d="M241,218.16251v-17.6h8v17.6z" data-paper-data="{&quot;origPos&quot;:null}" fill="#323553" stroke="#000000" stroke-width="2"/><path d="M223.2,190.76251v-8.4h19.4v8.4z" data-paper-data="{&quot;origPos&quot;:null}" fill="#d2a048" stroke="#000000" stroke-width="2"/><path d="M265.9024,162.3978c0,0 -3.82213,4.23007 -17.9213,3.05402c-6.45456,-0.53839 -20.96671,-1.09022 -20.96671,-1.09022l-17.75507,-7.74638c0,0 19.44044,-1.23471 33.53962,-0.05867c14.09917,1.17604 23.10345,5.84126 23.10345,5.84126z" data-paper-data="{&quot;index&quot;:null}" fill="#3f3f3f" stroke="#000000" stroke-width="2"/><path d="M231.76758,160.71421l1.27901,-10.26052c0,0 6.04626,-1.61143 8.78992,-1.38258c2.91859,0.24344 8.22929,2.80217 8.22929,2.80217l-0.64866,10.31309c0,0 -5.55525,0.38293 -9.10499,0.08684c-3.54974,-0.29608 -8.54456,-1.55902 -8.54456,-1.55902z" data-paper-data="{&quot;index&quot;:null}" fill="#3f3f3f" stroke="#000000" stroke-width="2"/></g></g></svg>