<svg version="1.1" xmlns="http://www.w3.org/2000/svg" xmlns:xlink="http://www.w3.org/1999/xlink" width="60.63158" height="38.15113" viewBox="0,0,60.63158,38.15113"><defs><linearGradient x1="239.79179" y1="162.83335" x2="239.79179" y2="198.83334" gradientUnits="userSpaceOnUse" id="color-1"><stop offset="0" stop-color="#72f0ff"/><stop offset="1" stop-color="#9bc9cd"/></linearGradient></defs><g transform="translate(-209.24289,-161.85145)"><g data-paper-data="{&quot;isPaintingLayer&quot;:true}" fill-rule="nonzero" stroke-linecap="butt" stroke-linejoin="miter" stroke-miterlimit="10" stroke-dasharray="" stroke-dashoffset="0" style="mix-blend-mode: normal"><path d="M210.50014,195.77118c0,-7.18646 0,-25.25324 0,-29.5c0,-1.72982 1.95534,-3.43783 4.1005,-3.43783c6.49354,0 39.77537,0 50.875,0c2.26628,0 3.60783,1.47997 3.60783,3.81283c0,7.50898 0,23.85448 0,28.125c0,1.99619 -1.8827,4.06217 -3.73283,4.06217c-5.36168,0 -31.34965,0 -31.34965,0c-3.50551,-0.20255 -7.07398,-0.4521 -10.3325,-0.07109c-0.25664,0.03001 -0.52182,0.05167 -0.79121,0.07109c0,0 -6.4922,0 -8.77664,0c-1.46317,0 -3.6005,-1.2397 -3.6005,-3.06217z" data-paper-data="{&quot;origPos&quot;:null}" fill="url(#color-1)" stroke="none" stroke-width="0"/><path d="M243.50408,194.41485c0,0 -1.66418,2.89163 -4.40114,3.53119c-2.73696,0.63957 -5.20399,0.09555 -5.51027,-1.21511c-0.30627,-1.31065 1.66419,-2.89163 4.40115,-3.5312c2.73696,-0.63957 5.51026,1.21511 5.51026,1.21511z" data-paper-data="{&quot;origRot&quot;:0,&quot;origPos&quot;:null,&quot;index&quot;:null}" fill="#2bd900" stroke="#000000" stroke-width="0.75"/><path d="M232.4868,196.92295c0,0 -0.59029,-4.16027 -0.59029,-6.77786c0,-2.06652 0.59029,-5.2246 0.59029,-5.2246h2.65627c0,0 -0.98381,2.54333 -0.98381,4.30677c0,2.92068 0.98381,7.69569 0.98381,7.69569z" data-paper-data="{&quot;origPos&quot;:null}" fill="#a9ff59" stroke="#000000" stroke-width="1"/><path d="M234.19239,196.14364c0.62563,-1.33428 3.39155,-1.35682 6.17785,-0.05035c0.97139,0.45548 1.74097,1.17453 2.3314,1.91803c-0.1422,-0.006 -0.28517,-0.00903 -0.42885,-0.00903c-0.38041,0 -0.75585,0.02124 -1.12522,0.0626c-0.71607,-0.16284 -1.46137,-0.24883 -2.22674,-0.24883c-1.41241,0 -2.75643,0.29281 -3.97466,0.82106c-0.76434,-0.89553 -1.07773,-1.80262 -0.75378,-2.49348z" data-paper-data="{&quot;origRot&quot;:0,&quot;origPos&quot;:null,&quot;index&quot;:null}" fill="#2fe500" stroke="#000000" stroke-width="1"/><path d="M222.66266,166.79979c2.18396,1.05508 3.54482,2.75821 3.03957,3.80405c-0.50525,1.04584 -2.68528,1.03834 -4.86924,-0.01674c-2.18396,-1.05508 -3.03957,-3.80405 -3.03957,-3.80405c0,0 2.68528,-1.03834 4.86924,0.01674z" data-paper-data="{&quot;origRot&quot;:0,&quot;origPos&quot;:null}" fill="#2fe500" stroke="#000000" stroke-width="0.5"/><path d="M245.11529,175.87339c0,5.1838 -4.85142,9.3861 -10.83594,9.3861c-5.98452,0 -10.83594,-4.2023 -10.83594,-9.3861c0,-5.1838 4.85141,-9.3861 10.83594,-9.3861c5.98452,0 10.83594,4.2023 10.83594,9.3861z" data-paper-data="{&quot;origPos&quot;:null}" fill="#a9ff59" stroke="#000000" stroke-width="1.5"/><path d="M237.42707,172.8716c0.37464,1.28888 0.07255,2.54716 -0.67473,2.81042c-0.74728,0.26326 -1.65677,-0.56817 -2.03141,-1.85706c-0.37464,-1.28888 -0.07255,-2.54716 0.67473,-2.81042c0.74728,-0.26326 1.65677,0.56817 2.0314,1.85706z" data-paper-data="{&quot;origPos&quot;:null,&quot;origRot&quot;:0}" fill="#000000" stroke="none" stroke-width="0"/><path d="M240.99038,172.40319c0.28222,0.97093 0.05465,1.91879 -0.50827,2.11711c-0.56294,0.19832 -1.24805,-0.42801 -1.53027,-1.39894c-0.28222,-0.97093 -0.05466,-1.91879 0.50827,-2.11711c0.56294,-0.19832 1.24806,0.42801 1.53028,1.39894z" data-paper-data="{&quot;origPos&quot;:null,&quot;origRot&quot;:0}" fill="#000000" stroke="none" stroke-width="0"/><path d="M250.22732,179.02264c-0.33226,3.35461 -2.45333,5.89828 -4.73756,5.68141c-2.28423,-0.21687 -3.86663,-3.11212 -3.53438,-6.46675c0.33226,-3.35461 2.45333,-5.89828 4.73756,-5.68141c2.28423,0.21687 3.86662,3.11213 3.53437,6.46675z" data-paper-data="{&quot;origPos&quot;:null,&quot;origRot&quot;:0}" fill="#a9ff59" stroke="#000000" stroke-width="1"/><path d="M245.4938,178.49716c-0.13626,1.65539 -0.90994,2.94501 -1.72806,2.88046c-0.81812,-0.06455 -1.37087,-1.45884 -1.23461,-3.11422c0.13626,-1.65538 0.90993,-2.94502 1.72805,-2.88046c0.81812,0.06455 1.37088,1.45883 1.23462,3.11423z" data-paper-data="{&quot;origRot&quot;:0,&quot;origPos&quot;:null}" fill="#84c746" stroke="none" stroke-width="0"/><path d="M227.74557,193.34297c2.80679,-0.14795 5.1396,0.82172 5.21045,2.16582c0.07084,1.3441 -2.14708,2.55364 -4.95387,2.70159c-2.80679,0.14795 -5.21044,-2.16582 -5.21044,-2.16582c0,0 2.14706,-2.55364 4.95386,-2.70159z" data-paper-data="{&quot;origRot&quot;:0,&quot;origPos&quot;:null,&quot;index&quot;:null}" fill="#2bd900" stroke="#000000" stroke-width="0.75"/><path d="M227.13141,196.39898c2.7863,-1.30648 5.55222,-1.28394 6.17785,0.05035c0.2969,0.63319 0.05845,1.448 -0.57188,2.26908c-2.56077,-0.73469 -5.38652,-0.84925 -7.94849,-0.38738c0.59187,-0.74847 1.36501,-1.47371 2.34251,-1.93206z" data-paper-data="{&quot;origRot&quot;:0,&quot;origPos&quot;:null}" fill="#2fe500" stroke="#000000" stroke-width="1"/><path d="M210.24289,195.39618c0,-7.03483 0,-24.60261 0,-28.875c0,-1.82619 1.24126,-3.66973 2.85774,-3.66973c5.28449,0 41.62395,0 52.625,0c1.98825,0 3.14884,1.77216 3.14884,3.54473c0,4.20683 0,21.72647 0,28.875c0,1.89192 -1.11237,3.05741 -3.02384,3.05741c-10.61414,0 -45.86806,0 -52.125,0c-1.85553,0 -3.48274,-1.11453 -3.48274,-2.93241z" data-paper-data="{&quot;origPos&quot;:null}" fill="none" stroke="#cdcdcd" stroke-width="2"/><path d="M267.97117,181.7933v15.64249h-18.91108z" data-paper-data="{&quot;origPos&quot;:null,&quot;origRot&quot;:0}" fill="#cdcdcd" stroke="none" stroke-width="0"/><g fill="#ffffff" font-family="Sans Serif" font-weight="normal" font-size="40" text-anchor="start"><text transform="translate(247.69646,195.74549) scale(0.27944,0.27944)" font-size="40" xml:space="preserve" fill="#ffffff" fill-rule="nonzero" stroke="#000000" stroke-width="6" stroke-linecap="butt" stroke-linejoin="miter" stroke-miterlimit="10" stroke-dasharray="" stroke-dashoffset="0" font-family="Sans Serif" font-weight="normal" text-anchor="start" style="mix-blend-mode: normal"><tspan x="0" dy="0">100</tspan></text><text transform="translate(247.69646,195.74549) scale(0.27944,0.27944)" font-size="40" xml:space="preserve" fill="#ffffff" fill-rule="nonzero" stroke="none" stroke-width="1" stroke-linecap="butt" stroke-linejoin="miter" stroke-miterlimit="10" stroke-dasharray="" stroke-dashoffset="0" font-family="Sans Serif" font-weight="normal" text-anchor="start" style="mix-blend-mode: normal"><tspan x="0" dy="0">100</tspan></text></g></g></g></svg>