<svg version="1.1" xmlns="http://www.w3.org/2000/svg" xmlns:xlink="http://www.w3.org/1999/xlink" width="86.70696" height="88.9363" viewBox="0,0,86.70696,88.9363"><defs><linearGradient x1="230.46132" y1="134.32167" x2="251.94499" y2="134.32167" gradientUnits="userSpaceOnUse" id="color-1"><stop offset="0" stop-color="#fff8ad"/><stop offset="1" stop-color="#c9c388"/></linearGradient><linearGradient x1="235.21972" y1="195.51745" x2="255.044" y2="195.51745" gradientUnits="userSpaceOnUse" id="color-2"><stop offset="0" stop-color="#2fe500"/><stop offset="1" stop-color="#51b800"/></linearGradient><linearGradient x1="237.44242" y1="144.66028" x2="275.64146" y2="144.66028" gradientUnits="userSpaceOnUse" id="color-3"><stop offset="0" stop-color="#fff8ad"/><stop offset="1" stop-color="#c9c388"/></linearGradient><linearGradient x1="231.58014" y1="146.9659" x2="276.6036" y2="146.9659" gradientUnits="userSpaceOnUse" id="color-4"><stop offset="0" stop-color="#fff8ad"/><stop offset="1" stop-color="#c9c388"/></linearGradient><linearGradient x1="209.79778" y1="136.19252" x2="231.11478" y2="136.19252" gradientUnits="userSpaceOnUse" id="color-5"><stop offset="0" stop-color="#fff8ad"/><stop offset="1" stop-color="#c9c388"/></linearGradient><linearGradient x1="191.39664" y1="135.48983" x2="237.23335" y2="135.48983" gradientUnits="userSpaceOnUse" id="color-6"><stop offset="0" stop-color="#fff8ad"/><stop offset="1" stop-color="#c9c388"/></linearGradient><linearGradient x1="192.64408" y1="146.18246" x2="228.45444" y2="146.18246" gradientUnits="userSpaceOnUse" id="color-7"><stop offset="0" stop-color="#fff8ad"/><stop offset="1" stop-color="#c9c388"/></linearGradient><linearGradient x1="240" y1="145.81238" x2="240" y2="214.18767" gradientUnits="userSpaceOnUse" id="color-8"><stop offset="0" stop-color="#3dff00"/><stop offset="1" stop-color="#ebffd8"/></linearGradient><linearGradient x1="227.74552" y1="129.11874" x2="230.85366" y2="151.90176" gradientUnits="userSpaceOnUse" id="color-9"><stop offset="0" stop-color="#00e0ff"/><stop offset="1" stop-color="#00bcc4"/></linearGradient><linearGradient x1="199.94348" y1="152.43132" x2="222.5278" y2="152.43132" gradientUnits="userSpaceOnUse" id="color-10"><stop offset="0" stop-color="#fff8ad"/><stop offset="1" stop-color="#c9c388"/></linearGradient><linearGradient x1="227.06472" y1="153.32603" x2="256.46414" y2="153.32603" gradientUnits="userSpaceOnUse" id="color-11"><stop offset="0" stop-color="#fff8ad"/><stop offset="1" stop-color="#c9c388"/></linearGradient><linearGradient x1="210.52776" y1="197.01448" x2="230.02393" y2="197.01448" gradientUnits="userSpaceOnUse" id="color-12"><stop offset="0" stop-color="#2fe500"/><stop offset="1" stop-color="#51b800"/></linearGradient><linearGradient x1="228.68678" y1="198.69311" x2="249.27753" y2="198.69311" gradientUnits="userSpaceOnUse" id="color-13"><stop offset="0" stop-color="#2fe500"/><stop offset="1" stop-color="#51b800"/></linearGradient><linearGradient x1="215.46873" y1="156.57157" x2="230.77046" y2="156.57157" gradientUnits="userSpaceOnUse" id="color-14"><stop offset="0" stop-color="#fff8ad"/><stop offset="1" stop-color="#c9c388"/></linearGradient></defs><g transform="translate(-190.64663,-115.85948)"><g data-paper-data="{&quot;isPaintingLayer&quot;:true}" fill-rule="nonzero" stroke-linejoin="miter" stroke-miterlimit="10" stroke-dasharray="" stroke-dashoffset="0" style="mix-blend-mode: normal"><path d="M231.26445,193.16737c0.39393,-3.58432 4.72194,-6.17169 9.66687,-5.77909c4.94493,0.3926 9.42647,4.17765 9.03253,7.76197c-0.39393,3.5843 -19.09333,1.60142 -18.6994,-1.98289z" data-paper-data="{&quot;origPos&quot;:null,&quot;origRot&quot;:0,&quot;index&quot;:null}" fill="#25b800" stroke="#000000" stroke-width="2" stroke-linecap="butt"/><path d="M233.48486,194.81008c0.39393,3.58432 -18.30546,5.56719 -18.6994,1.98289c-0.39393,-3.58432 4.0876,-7.36937 9.03253,-7.76197c4.94493,-0.3926 9.27293,2.19477 9.66686,5.77909z" data-paper-data="{&quot;origPos&quot;:null,&quot;origRot&quot;:0}" fill="#25b800" stroke="#000000" stroke-width="2" stroke-linecap="butt"/><path d="M242.90014,130.45298c0,0 -7.60435,4.67452 -7.9156,4.73436c-4.8134,0.92534 -5.99783,0.64594 -2.52112,-9.83633c2.49579,-4.77399 7.91313,-9.93312 11.86268,-8.49715c5.64634,2.05288 7.59055,21.6393 7.56852,22.019c-0.27918,4.8102 1.27971,7.68315 -3.11696,12.84041c-2.89243,3.39279 -5.87752,-21.26028 -5.87752,-21.26028z" data-paper-data="{&quot;origPos&quot;:null,&quot;origRot&quot;:0,&quot;index&quot;:null}" fill="url(#color-1)" stroke="#666349" stroke-width="1.5" stroke-linecap="butt"/><path d="M235.22622,196.53993c0.41696,-3.77324 4.99788,-6.497 10.2318,-6.0837c5.23392,0.4133 9.97736,4.39786 9.5604,8.1711c-0.41696,3.77322 -20.20916,1.68583 -19.7922,-2.08741z" data-paper-data="{&quot;origPos&quot;:null,&quot;origRot&quot;:0,&quot;index&quot;:null}" fill="url(#color-2)" stroke="#000000" stroke-width="2" stroke-linecap="butt"/><path d="M266.51173,138.07625c-3.27679,-0.64448 -11.68058,-1.44445 -11.68058,-1.44445c-6.83181,7.14956 -10.91734,17.94099 -10.96396,18.50038c-0.72102,8.65089 -7.92829,10.82757 -6.1408,0.13956c1.24627,-7.45186 1.55512,-12.19666 3.31017,-19.54534c0.72221,-3.024 -0.65799,-4.39342 1.48991,-6.64123c4.11502,-4.30642 29.47301,-2.35523 32.62632,5.33089c2.35245,5.73403 -4.32286,4.50949 -8.64107,3.66019z" data-paper-data="{&quot;origPos&quot;:null,&quot;index&quot;:null,&quot;origRot&quot;:0}" fill="url(#color-3)" stroke="#666349" stroke-width="1.5" stroke-linecap="butt"/><path d="M267.21964,150.65871c-2.70708,-1.95561 -10.0064,-6.19631 -10.0064,-6.19631c-9.19544,3.63781 -17.41906,11.73215 -17.69532,12.2208c-4.27231,7.55679 -11.72942,6.52034 -5.63653,-2.44098c4.24806,-6.24799 6.51265,-10.42892 11.17974,-16.37044c1.92051,-2.44495 1.23939,-4.26603 4.13042,-5.40974c5.53872,-2.19117 27.7575,10.18464 27.40797,18.48509c-0.26076,6.19234 -5.81244,2.28873 -9.37987,-0.28841z" data-paper-data="{&quot;origPos&quot;:null,&quot;index&quot;:null,&quot;origRot&quot;:0}" fill="url(#color-4)" stroke="#666349" stroke-width="1.5" stroke-linecap="butt"/><path d="M212.96511,153.61147c-4.39667,-5.15725 -2.83778,-8.0302 -3.11696,-12.84041c-0.02203,-0.37969 1.92218,-19.96613 7.56852,-22.019c3.94955,-1.43597 8.34494,2.44571 11.60719,8.49715c3.47671,10.48227 2.54777,10.76168 -2.26563,9.83633c-0.31125,-0.05983 -7.9156,-4.73435 -7.9156,-4.73435c0,0 -2.98509,24.65307 -5.87752,21.26028z" data-paper-data="{&quot;origPos&quot;:null,&quot;origRot&quot;:0}" fill="url(#color-5)" stroke="#666349" stroke-width="1.5" stroke-linecap="butt"/><path d="M192.24531,144.98676c-3.83123,-8.6069 5.97363,-21.97209 16.09584,-21.97209c10.12221,0 15.65726,5.46833 24.52699,11.49702c8.96223,6.09156 2.40931,9.79856 -4.34332,4.34332c-0.43664,-0.35275 -11.06127,-4.85429 -20.95014,-4.85429c0,0 -5.22745,6.62852 -7.0253,9.44285c-2.36923,3.70877 -5.78363,7.20539 -8.30407,1.54319z" data-paper-data="{&quot;origPos&quot;:null}" fill="url(#color-6)" stroke="#666349" stroke-width="1.5" stroke-linecap="butt"/><path d="M198.32376,163.53967c-7.88414,-5.15725 -5.08872,-8.0302 -5.58935,-12.84041c-0.03951,-0.37969 3.44687,-19.96613 13.57191,-22.019c7.08236,-1.43597 11.75718,3.97865 18.98152,4.15383c6.23445,10.48227 2.7361,10.2507 -5.89532,9.32536c-0.55813,-0.05983 -2.21825,-5.23905 -10.52914,0.11995c-7.37419,4.75499 -5.35289,24.65307 -10.53961,21.26028z" data-paper-data="{&quot;origPos&quot;:null,&quot;origRot&quot;:0}" fill="url(#color-7)" stroke="#666349" stroke-width="1.5" stroke-linecap="butt"/><path d="M227.35572,194.77047c-1.67642,-3.40158 -28.16669,-50.51217 -1.02196,-50.23554c25.77674,0.26269 -16.92024,2.976 10.47019,0.76647c17.92246,-1.44577 8.47171,33.86351 2.81037,47.16966c-5.66134,13.30615 -10.58218,5.70099 -12.2586,2.29941z" data-paper-data="{&quot;origPos&quot;:null}" fill="url(#color-8)" stroke="#244b00" stroke-width="1.5" stroke-linecap="butt"/><path d="M246.81837,138.50706c1.23276,5.43553 -6.91738,11.76316 -15.37577,12.91708c-8.45838,1.15392 -20.91342,-1.35173 -21.66681,-6.87414c-0.75339,-5.52241 7.63088,-13.49594 16.08926,-14.64986c8.45838,-1.15392 19.65911,2.90044 20.95332,8.60693z" data-paper-data="{&quot;origPos&quot;:null,&quot;origRot&quot;:0}" fill="url(#color-9)" stroke="#244b00" stroke-width="1.5" stroke-linecap="butt"/><path d="M203.11081,169.81711c-4.39667,-5.15725 -2.83778,-8.0302 -3.11696,-12.84041c-0.02203,-0.37969 1.92218,-19.96613 7.56852,-22.019c3.94955,-1.43597 9.3669,4.23414 13.39562,4.40932c3.47671,10.48227 0.75934,14.84951 -4.05406,13.92416c-0.31125,-0.05983 -7.9156,-4.73435 -7.9156,-4.73435c0,0 -2.98509,24.65307 -5.87752,21.26028z" data-paper-data="{&quot;origPos&quot;:null,&quot;origRot&quot;:0}" fill="url(#color-10)" stroke="#666349" stroke-width="1.5" stroke-linecap="butt"/><path d="M241.25115,155.966c-1.72814,-1.11433 -6.28626,-9.11565 -6.28626,-9.11565l2.73565,4.51771c0,0 -3.96713,4.15515 -6.97853,4.478c-8.63142,0.92534 0.31314,-15.07083 3.43059,-16.35263c6.44556,-2.65021 11.37215,4.86081 15.4002,10.54796c4.20131,5.93177 7.55777,10.43599 6.80535,17.66585c0,0 -10.5432,-5.45331 -15.107,-11.74123z" data-paper-data="{&quot;origPos&quot;:null,&quot;origRot&quot;:0,&quot;index&quot;:null}" fill="url(#color-11)" stroke="#666349" stroke-width="1.5" stroke-linecap="butt"/><path d="M227.25288,172.87996c0.21172,2.43176 -0.60565,4.58624 -1.82562,4.81208c-1.21996,0.2259 -2.38056,-1.56238 -2.59226,-3.99414c-0.21172,-2.43176 0.60565,-4.58624 1.82562,-4.81208c1.21996,-0.2259 2.38056,1.56239 2.59224,3.99414z" data-paper-data="{&quot;origPos&quot;:null,&quot;origRot&quot;:0}" fill="#000000" stroke="none" stroke-width="0" stroke-linecap="butt"/><path d="M225.60661,172.25536c0.09603,1.10315 -0.27475,2.08048 -0.82818,2.18298c-0.55342,0.10246 -1.07991,-0.70877 -1.17594,-1.8119c-0.09603,-1.10315 0.27475,-2.08048 0.82818,-2.18298c0.55342,-0.10246 1.07991,0.70877 1.17594,1.81189z" data-paper-data="{&quot;origPos&quot;:null,&quot;origRot&quot;:0}" fill="#ffffff" stroke="none" stroke-width="0" stroke-linecap="butt"/><path d="M234.50482,172.31846c0.19488,2.5486 -0.68429,4.7915 -1.96373,5.00963c-1.27947,0.21814 -2.47464,-1.67105 -2.66959,-4.2197c-0.19488,-2.5486 0.68428,-4.79151 1.96373,-5.00963c1.27947,-0.21814 2.47472,1.67107 2.66962,4.21966z" data-paper-data="{&quot;origPos&quot;:null,&quot;origRot&quot;:0}" fill="#000000" stroke="none" stroke-width="0" stroke-linecap="butt"/><path d="M232.51655,171.17158c0.06647,0.86914 -0.23335,1.63403 -0.66967,1.70842c-0.43629,0.07438 -0.8439,-0.56985 -0.91039,-1.439c-0.06647,-0.86914 0.23335,-1.63403 0.66967,-1.70842c0.43629,-0.07438 0.84391,0.56986 0.91038,1.439z" data-paper-data="{&quot;origPos&quot;:null,&quot;origRot&quot;:0}" fill="#ffffff" stroke="none" stroke-width="0" stroke-linecap="butt"/><path d="M234.14558,186.37604c0,0 -2.4623,0.58814 -3.38419,-0.1801c-0.87285,-0.72738 -2.23658,-2.3748 -2.23658,-2.3748" data-paper-data="{&quot;origPos&quot;:null}" fill="none" stroke="#244b00" stroke-width="1" stroke-linecap="round"/><path d="M230.01754,197.98575c0.41006,3.58431 -19.05457,5.56719 -19.46463,1.98289c-0.41006,-3.58431 4.25488,-7.36937 9.40217,-7.76197c5.14729,-0.3926 9.6524,2.19478 10.06246,5.77909z" data-paper-data="{&quot;origPos&quot;:null,&quot;origRot&quot;:0}" fill="url(#color-12)" stroke="#000000" stroke-width="2" stroke-linecap="butt"/><path d="M228.69353,199.71559c0.43308,-3.77324 5.19112,-6.49699 10.62739,-6.0837c5.43628,0.4133 10.36312,4.39786 9.93004,8.17109c-0.43308,3.77322 -20.99051,1.68583 -20.55743,-2.08741z" data-paper-data="{&quot;origPos&quot;:null,&quot;origRot&quot;:0,&quot;index&quot;:null}" fill="url(#color-13)" stroke="#000000" stroke-width="2" stroke-linecap="butt"/><path d="M220.37429,174.05063c-4.39667,-5.15725 -4.6262,-8.0302 -4.90538,-12.84041c-0.02203,-0.37969 -1.65467,-18.68868 3.99167,-20.74155c3.94955,-1.43597 8.34493,-0.36467 9.30778,3.89834c3.47671,10.48227 2.29228,14.33853 -2.52112,13.41318c-0.31125,-0.05983 0.26006,-4.73435 0.26006,-4.73435c0,0 -3.24058,24.39757 -6.13301,21.00479z" data-paper-data="{&quot;origPos&quot;:null,&quot;origRot&quot;:0}" fill="url(#color-14)" stroke="#666349" stroke-width="1.5" stroke-linecap="butt"/></g></g></svg>