<svg version="1.1" xmlns="http://www.w3.org/2000/svg" xmlns:xlink="http://www.w3.org/1999/xlink" width="504" height="381" viewBox="0,0,504,381"><defs><radialGradient cx="233.00008" cy="177.40635" r="252" gradientUnits="userSpaceOnUse" id="color-1"><stop offset="0" stop-color="#82cafa"/><stop offset="1" stop-color="#160d5a"/></radialGradient><radialGradient cx="236.75745" cy="178.07474" r="190.5" gradientUnits="userSpaceOnUse" id="color-2"><stop offset="0" stop-color="#6582ce"/><stop offset="1" stop-color="#6582ce" stop-opacity="0"/></radialGradient><radialGradient cx="237.77021" cy="178.67607" r="131" gradientUnits="userSpaceOnUse" id="color-3"><stop offset="0" stop-color="#4764ad"/><stop offset="1" stop-color="#4764ad" stop-opacity="0"/></radialGradient><radialGradient cx="239.02986" cy="179.42394" r="57" gradientUnits="userSpaceOnUse" id="color-4"><stop offset="0" stop-color="#335ba5"/><stop offset="1" stop-color="#335ba5" stop-opacity="0"/></radialGradient><radialGradient cx="239.60857" cy="179.76756" r="23" gradientUnits="userSpaceOnUse" id="color-5"><stop offset="0" stop-color="#ffffff"/><stop offset="1" stop-color="#375e9c"/></radialGradient><linearGradient x1="239.99996" y1="78.38373" x2="239.99996" y2="281.61629" gradientUnits="userSpaceOnUse" id="color-6"><stop offset="0" stop-color="#af7400"/><stop offset="1" stop-color="#ff9500"/></linearGradient><linearGradient x1="240.00002" y1="90.42885" x2="240.00002" y2="128.25029" gradientUnits="userSpaceOnUse" id="color-7"><stop offset="0" stop-color="#88f200"/><stop offset="1" stop-color="#6bbf00"/></linearGradient><linearGradient x1="141" y1="137" x2="141" y2="239" gradientUnits="userSpaceOnUse" id="color-8"><stop offset="0" stop-color="#26c000"/><stop offset="1" stop-color="#30f100"/></linearGradient></defs><g transform="translate(19.00001,10.5)"><g data-paper-data="{&quot;isPaintingLayer&quot;:true}" fill-rule="nonzero" stroke-linejoin="miter" stroke-miterlimit="10" stroke-dasharray="" stroke-dashoffset="0" style="mix-blend-mode: normal"><path d="M-19.00001,362.0001v-369.1875h504v369.1875z" data-paper-data="{&quot;origPos&quot;:null}" fill="url(#color-1)" stroke="none" stroke-width="0" stroke-linecap="butt"/><path d="M49.5,180c0,-105.21024 85.28976,-190.5 190.5,-190.5c105.21024,0 190.5,85.28976 190.5,190.5c0,105.21024 -85.28976,190.5 -190.5,190.5c-105.21024,0 -190.5,-85.28976 -190.5,-190.5z" fill="url(#color-2)" stroke="none" stroke-width="0" stroke-linecap="butt"/><path d="M109,180c0,-72.3493 58.6507,-131 131,-131c72.3493,0 131,58.6507 131,131c0,72.3493 -58.6507,131 -131,131c-72.3493,0 -131,-58.6507 -131,-131z" fill="url(#color-3)" stroke="none" stroke-width="0" stroke-linecap="butt"/><path d="M183.00008,180c0,-31.48023 25.51977,-57 57,-57c31.48023,0 57,25.51977 57,57c0,31.48023 -25.51977,57 -57,57c-31.48023,0 -57,-25.51977 -57,-57z" data-paper-data="{&quot;origPos&quot;:null}" fill="url(#color-4)" stroke="none" stroke-width="0" stroke-linecap="butt"/><path d="M217.00008,180c0,-12.70255 10.29745,-23 23,-23c12.70255,0 23,10.29745 23,23c0,12.70255 -10.29745,23 -23,23c-12.70255,0 -23,-10.29745 -23,-23z" data-paper-data="{&quot;origPos&quot;:null}" fill="url(#color-5)" stroke="none" stroke-width="0" stroke-linecap="butt"/><path d="M40.56251,45.39859l-1.56306,-7.54768l11.30211,-3.55766l1.56306,7.54768z" data-paper-data="{&quot;origRot&quot;:0,&quot;origPos&quot;:null}" fill="#5473b6" stroke="#19135f" stroke-width="3" stroke-linecap="butt"/><path d="M34.65493,63.93265c-2.10932,-10.54662 3.15204,-20.4906 11.75159,-22.21051c8.59955,-1.71991 17.2808,5.43554 19.39013,15.98216c2.10932,10.54662 -3.15204,20.4906 -11.75159,22.21051c-8.59955,1.71991 -17.2808,-5.43554 -19.39013,-15.98216z" data-paper-data="{&quot;origPos&quot;:null,&quot;origRot&quot;:0}" fill="#dcdde0" stroke="#19135f" stroke-width="5" stroke-linecap="butt"/><path d="M58.31522,65.31259l-7.78981,-1.79765l-3.5953,-9.58745" data-paper-data="{&quot;origPos&quot;:null}" fill="none" stroke="#19135f" stroke-width="3" stroke-linecap="round"/><path d="M34.66716,38.80721l-2.79273,-4.84888l20.19356,-2.28556l2.79273,4.84888z" data-paper-data="{&quot;origRot&quot;:0,&quot;origPos&quot;:null}" fill="#5473b6" stroke="#19135f" stroke-width="3" stroke-linecap="butt"/><path d="M381.33158,253.37371l3.66459,-24.24773l-16.34802,-18.27906l20.01261,-5.96867l-3.0392,24.06121l15.72262,18.46558z" data-paper-data="{&quot;origPos&quot;:null,&quot;origRot&quot;:0}" fill="#7d8dc5" stroke="#313c82" stroke-width="5" stroke-linecap="butt"/><path d="M365.70774,212.40492l-1.30565,-4.37776l26.26655,-7.83388l1.30565,4.37776z" data-paper-data="{&quot;origPos&quot;:null,&quot;origRot&quot;:0}" fill="#4d64b7" stroke="#313c82" stroke-width="3" stroke-linecap="butt"/><path d="M379.07298,257.43172l-1.30565,-4.37776l26.26655,-7.83388l1.30565,4.37776z" data-paper-data="{&quot;origPos&quot;:null,&quot;origRot&quot;:0}" fill="#4d64b7" stroke="#313c82" stroke-width="3" stroke-linecap="butt"/><path d="M73.6081,85.94701c0,-5.44541 5.98753,-7.56329 7.26045,-7.56329c120.30359,0 301.90847,0 316.26292,0c4.78481,0 9.26045,2.47386 9.26045,9.81786c0,22.0317 0,122.67576 0,185.83327c0,8.81272 -1.14552,7.58142 -7.63916,7.58142c-74.44371,0 -266.97425,0 -315.75989,0c-4.44299,0 -9.38467,-1.94406 -9.38467,-8.30871c0,0 -0.0001,-121.26546 -0.0001,-187.36055z" data-paper-data="{&quot;origPos&quot;:null}" fill="url(#color-6)" stroke="#000000" stroke-width="5" stroke-linecap="butt"/><path d="M86.60812,105.32179c0,-5.6821 7.20668,-14.5596 13.30256,-14.5596c110.90442,0 265.62071,0.46841 278.84538,0c9.41098,-0.33333 14.63589,5.84492 14.63589,15.59961c0,18.26383 0,91.30812 0,143.6644c0,7.30556 -2.35286,9.21163 -8.33916,9.21163c-17.95896,0 -182.30523,0 -291.94937,0c-4.09586,0 -6.4952,-2.96126 -6.4952,-8.23741c0,0 -0.0001,-90.88714 -0.0001,-145.67863z" data-paper-data="{&quot;origPos&quot;:null}" fill="#fffbca" stroke="#000000" stroke-width="5" stroke-linecap="butt"/><path d="M86.60812,125.21522c0,-3.5534 0,-11.21761 0,-23.51785c0,-7.27558 6.37335,-11.26852 12.46922,-11.26852c110.90442,0 270.44576,0 283.67871,0c6.07765,0 10.63588,2.80195 10.63588,10.50199c0,4.10008 0,11.36349 0,23.11706c0,1.64005 -306.78373,2.3518 -306.78373,1.16733z" data-paper-data="{&quot;origPos&quot;:null}" fill="url(#color-7)" stroke="#000000" stroke-width="5" stroke-linecap="butt"/><path d="M100.00002,148.738c0,-6.88782 4.83317,-11.73799 10.74668,-11.73799c24.74786,0 47.89278,0 59.41333,0c6.84018,0 11.84,3.82161 11.84,12.70942c0,33.03118 0,68.44628 0,78.60973c0,5.38781 -2.66652,11.18085 -9.65333,10.68085c0,0 -55.97968,0 -62.38,0c-6.13344,0 -10.46668,-5.67344 -9.96668,-11.4082c0,0 0,-46.66958 0,-78.85381z" data-paper-data="{&quot;origPos&quot;:null}" fill="url(#color-8)" stroke="#000000" stroke-width="5" stroke-linecap="butt"/></g></g></svg>