<svg version="1.1" xmlns="http://www.w3.org/2000/svg" xmlns:xlink="http://www.w3.org/1999/xlink" width="75.73935" height="78.01807" viewBox="0,0,75.73935,78.01807"><defs><linearGradient x1="254.73361" y1="168.41629" x2="255.79309" y2="206.14288" gradientUnits="userSpaceOnUse" id="color-1"><stop offset="0" stop-color="#f58631"/><stop offset="1" stop-color="#ba2f2f"/></linearGradient><linearGradient x1="243.1078" y1="169.5947" x2="244.62663" y2="166.84321" gradientUnits="userSpaceOnUse" id="color-2"><stop offset="0" stop-color="#add92e"/><stop offset="1" stop-color="#659116"/></linearGradient><linearGradient x1="226.85715" y1="164.85716" x2="230" y2="164.85716" gradientUnits="userSpaceOnUse" id="color-3"><stop offset="0" stop-color="#add92e"/><stop offset="1" stop-color="#659116"/></linearGradient><linearGradient x1="237.65541" y1="143.79302" x2="247.94459" y2="151.40701" gradientUnits="userSpaceOnUse" id="color-4"><stop offset="0" stop-color="#add92e"/><stop offset="1" stop-color="#618520"/></linearGradient><linearGradient x1="224.36192" y1="176.5774" x2="224.36192" y2="213.30717" gradientUnits="userSpaceOnUse" id="color-5"><stop offset="0" stop-color="#f56031"/><stop offset="1" stop-color="#ba2f2f"/></linearGradient></defs><g transform="translate(-201.69641,-136.28909)"><g data-paper-data="{&quot;isPaintingLayer&quot;:true}" fill-rule="nonzero" stroke="#000000" stroke-linejoin="miter" stroke-miterlimit="10" stroke-dasharray="" stroke-dashoffset="0" style="mix-blend-mode: normal"><path d="M276.38681,186.66042c0.29257,10.41791 -8.92755,19.1405 -20.59371,19.48246c-11.66616,0.34196 -21.36063,-7.82621 -21.6532,-18.2441c-0.22303,-7.94162 5.08183,-14.89807 12.78419,-17.9079c1.45614,-0.56901 3.05576,1.06082 4.66213,0.79395c1.0431,-0.17332 2.05563,-2.33651 3.14738,-2.36852c11.66616,-0.34196 21.36062,7.82619 21.65319,18.24409z" data-paper-data="{&quot;index&quot;:null}" fill="url(#color-1)" stroke-width="2" stroke-linecap="butt"/><g fill="none" stroke-width="0.9" stroke-linecap="round"><path d="M257.57254,200.07563l5.20351,-0.96873"/><path d="M264.93644,201.53183c0,0 -1.2268,-1.28471 -1.7366,-2.97058c-0.41616,-1.37626 -0.00935,-3.32306 -0.00935,-3.32306"/><path d="M256.37017,196.96908c0,0 0.76026,1.58082 0.60306,2.78585c-0.19258,1.47615 -1.16681,2.70528 -1.16681,2.70528" data-paper-data="{&quot;index&quot;:null}"/></g><g><g><path d="M267.52926,187.63295c0,0 2.36776,-1.5974 3.41849,-2.46973c1.37465,-1.14123 4.12191,-3.79025 4.12191,-3.79025c0,0 1.98501,3.23517 -0.42766,5.94991c-3.68097,3.65261 -7.11273,0.31002 -7.11273,0.31002z" fill="#ffffff" stroke-width="0.9" stroke-linecap="butt"/><g stroke-linecap="butt"><path d="M273.07075,185.8912c-0.79586,-0.25083 -1.22064,-1.05931 -0.94879,-1.8058c0.27187,-0.74649 1.13741,-1.14831 1.93326,-0.89748c0.79586,0.25083 1.22065,1.05932 0.94878,1.80581c-0.27187,0.74649 -1.13742,1.14831 -1.93328,0.89748z" fill="#7aa62a" stroke-width="0.25"/><path d="M273.81811,185.00836c-0.3155,-0.09944 -0.48389,-0.41994 -0.37612,-0.71586c0.10777,-0.29591 0.45089,-0.45521 0.76639,-0.35578c0.3155,0.09944 0.48391,0.41994 0.37613,0.71585c-0.10778,0.29592 -0.45092,0.45522 -0.7664,0.35578z" fill="#ffffff" stroke-width="0"/></g><path d="M276.98576,179.55842c0,0 -4.10402,3.90643 -5.58427,5.12133c-0.64199,0.52691 -5.34328,3.89203 -5.34328,3.89203l0.66124,-2.61702" fill="none" stroke-width="0.9" stroke-linecap="round"/></g><g><path d="M255.6296,189.2854c0,0 -3.05226,5.22632 -7.95356,3.41307c-7.12524,-2.63599 -2.77443,-9.07228 -2.77443,-9.07228c0,0 4.47762,1.33015 5.87286,2.0855c1.39525,0.75535 4.85512,3.5737 4.85512,3.5737z" data-paper-data="{&quot;index&quot;:null}" fill="#ffffff" stroke-width="0.9" stroke-linecap="butt"/><g stroke-linecap="butt"><path d="M250.76026,185.7729c0.99984,-0.11881 1.90917,0.54337 2.03104,1.47901c0.12188,0.93564 -0.58988,1.79044 -1.58971,1.90923c-0.99984,0.11879 -1.90917,-0.54338 -2.03104,-1.47902c-0.12185,-0.93564 0.58989,-1.79045 1.58972,-1.90925z" fill="#7aa62a" stroke-width="0.25"/><path d="M251.37106,186.91589c0.04935,0.37896 -0.23893,0.72516 -0.64388,0.77329c-0.40496,0.04811 -0.77326,-0.2201 -0.82262,-0.59904c-0.04935,-0.37896 0.23895,-0.72517 0.6439,-0.77329c0.40496,-0.04811 0.77325,0.2201 0.82261,0.59906z" fill="#ffffff" stroke-width="0"/></g><path d="M260.45438,189.2289l-1.99615,1.5951c0,0 -5.08791,-3.99398 -7.05015,-5.04228c-1.96225,-1.0483 -8.81315,-3.65095 -8.81315,-3.65095" data-paper-data="{&quot;index&quot;:null}" fill="none" stroke-width="0.9" stroke-linecap="round"/></g></g><g stroke-width="1" stroke-linecap="butt"><path d="M256.39901,179.21594c0,0 -8.48198,-7.01332 -11.53865,-10.92225c-3.10892,-3.97576 -6.96077,-12.73521 -6.96077,-12.73521l2.39571,-0.7336c0,0 3.23266,7.05487 5.99396,10.66424c2.79895,3.65858 11.50352,10.90629 11.50352,10.90629c0,0 0.74379,1.07742 0.28354,1.94965c-0.36843,0.69823 -1.6773,0.87088 -1.6773,0.87088z" fill="url(#color-2)"/><path d="M224.85715,181.14287c0,0 2.04095,-10.81505 3.98595,-15.38013c1.97825,-4.64312 7.78547,-12.24844 7.78547,-12.24844l1.8,1.74286c0,0 -4.61414,6.23947 -6.43962,10.4012c-1.85037,4.21847 -3.98896,15.34166 -3.98896,15.34166c0,0 -0.58381,1.17185 -1.56984,1.19043c-0.78933,0.01487 -1.57301,-1.04757 -1.57301,-1.04757z" fill="url(#color-3)"/><path d="M251.54459,151.40701c-3.15382,4.26191 -14.45508,3.90989 -14.45508,3.90989c0,0 -2.58792,-7.26196 0.5659,-11.52388c3.15382,-4.26191 10.85509,-3.90989 10.85509,-3.90989l-5.09856,4.17967c0,0 3.50333,-0.85524 5.33273,-1.77171c1.80018,-0.90183 5.1574,-4.28388 5.1574,-4.28388c0,0 -0.76468,2.7274 -1.1683,6.16152c-0.2904,2.47086 0.08841,5.5005 -1.18918,7.23828z" fill="url(#color-4)"/></g><path d="M220.71667,171.83335z" fill="#f43232" stroke-width="1" stroke-linecap="butt"/><path d="M202.69643,194.94227c0,-10.14264 9.69999,-18.36487 21.66551,-18.36487c1.11976,0 2.21967,2.07545 3.29365,2.21429c1.65392,0.21381 3.24633,-1.41727 4.75499,-0.90525c7.98014,2.70827 13.61684,9.32409 13.61684,17.05586c0,10.14264 -9.69997,18.36486 -21.6655,18.36486c-11.96552,0 -21.66551,-8.22223 -21.66551,-18.36486z" fill="url(#color-5)" stroke-width="2" stroke-linecap="butt"/><g fill="none" stroke-width="0.9" stroke-linecap="round"><path d="M220.01237,206.81668l5.36053,-0.79399"/><path d="M227.51713,208.44321c0,0 -1.22027,-1.28473 -1.69421,-2.93923c-0.38689,-1.35066 0.08603,-3.23286 0.08603,-3.23286"/><path d="M218.86958,203.76041c0,0 0.73364,1.55946 0.53786,2.72721c-0.23984,1.43048 -1.27364,2.59836 -1.27364,2.59836" data-paper-data="{&quot;index&quot;:null}"/></g><g><g><path d="M235.92236,187.9873c0,0 -6.13062,3.98228 -7.80728,5.40904c-1.67665,1.42677 -5.68999,6.33174 -5.68999,6.33174l-2.40246,-1.06342" data-paper-data="{&quot;index&quot;:null}" fill="none" stroke-width="0.9" stroke-linecap="round"/><path d="M228.72674,193.18933c1.18955,-1.02391 5.29354,-3.2762 5.29354,-3.2762c0,0 6.01139,5.11429 -0.3833,9.18906c-4.39876,2.80295 -8.80214,-1.45675 -8.80214,-1.45675c0,0 2.70235,-3.4322 3.8919,-4.45611z" data-paper-data="{&quot;index&quot;:null}" fill="#ffffff" stroke-width="0.9" stroke-linecap="butt"/><g stroke-linecap="butt"><path d="M231.14526,196.11426c-0.45131,-0.82551 -0.06415,-1.81986 0.86474,-2.22095c0.92889,-0.40108 2.04777,-0.057 2.49909,0.76849c0.45131,0.82551 0.06415,1.81986 -0.86473,2.22093c-0.92889,0.40108 -2.04779,0.057 -2.49909,-0.7685z" fill="#7aa62a" stroke-width="0.25"/><path d="M231.5268,195.66543c-0.1828,-0.33436 -0.02599,-0.73711 0.35023,-0.89955c0.37623,-0.16245 0.82941,-0.0231 1.01221,0.31126c0.1828,0.33436 0.02599,0.7371 -0.35023,0.89954c-0.37623,0.16245 -0.82941,0.0231 -1.01219,-0.31125z" fill="#ffffff" stroke-width="0"/></g></g><g><path d="M214.13627,197.76685c0,0 -4.40872,2.98066 -6.69345,-1.45123c-2.03897,-3.95515 1.58051,-6.50177 1.58051,-6.50177c0,0 1.7325,3.23672 2.6646,4.68659c0.71246,1.10823 2.44833,3.26642 2.44833,3.26642z" fill="#ffffff" stroke-width="0.9" stroke-linecap="butt"/><g stroke-linecap="butt"><path d="M209.27696,195.16161c0,-0.76632 0.69903,-1.38754 1.56133,-1.38754c0.86229,0 1.56132,0.62122 1.56132,1.38754c0,0.76632 -0.69902,1.38755 -1.56132,1.38755c-0.86229,0 -1.56133,-0.62123 -1.56133,-1.38755z" fill="#7aa62a" stroke-width="0.25"/><path d="M209.80545,194.96923c0,-0.30378 0.2771,-0.55004 0.61895,-0.55004c0.34183,0 0.61895,0.24627 0.61895,0.55004c0,0.30378 -0.27711,0.55006 -0.61895,0.55006c-0.34183,0 -0.61895,-0.24626 -0.61895,-0.55006z" fill="#ffffff" stroke-width="0"/></g><path d="M215.51736,196.4565l-0.28365,2.60184c0,0 -3.37818,-4.46326 -3.81565,-5.1348c-1.00867,-1.54836 -3.61475,-6.33677 -3.61475,-6.33677" fill="none" stroke-width="0.9" stroke-linecap="round"/></g></g></g></g></svg>