<svg version="1.1" xmlns="http://www.w3.org/2000/svg" xmlns:xlink="http://www.w3.org/1999/xlink" width="49.72493" height="64.71531" viewBox="0,0,49.72493,64.71531"><defs><linearGradient x1="238.74049" y1="142.9324" x2="238.74049" y2="180.15081" gradientUnits="userSpaceOnUse" id="color-1"><stop offset="0" stop-color="#92a518"/><stop offset="1" stop-color="#e1e100"/></linearGradient></defs><g transform="translate(-211.75025,-138.28699)"><g data-paper-data="{&quot;isPaintingLayer&quot;:true}" fill-rule="nonzero" stroke-linejoin="miter" stroke-miterlimit="10" stroke-dasharray="" stroke-dashoffset="0" style="mix-blend-mode: normal"><g stroke="#000000" stroke-linecap="butt"><path d="M235.25146,197.24883l-0.66879,-4.43143l-12.64289,-8.28988l2.91,-12.13449l4.04775,4.29634l-3.51956,6.78953l11.82118,7.22289l2.5523,6.54704z" fill="#92a518" stroke-width="2"/><path d="M221.27138,184.7196l-1.14852,-3.31043l3.31043,-1.14852z" fill="#c3dc00" stroke-width="1"/><path d="M228.2327,186.08079l3.30029,-1.17735l1.17735,3.30029z" fill="#c3dc00" stroke-width="1"/><path d="M230.81885,191.14975l-3.40124,0.84237l-0.84237,-3.40125z" fill="#c3dc00" stroke-width="1"/></g><g><path d="M245.06683,138.93412c0.87431,-0.36352 1.18962,-0.03705 0.84168,0.79854c-0.7202,1.72959 -1.76293,4.86585 -1.37763,7.82159c-2.4395,3.30643 -8.17335,-0.92405 -5.73385,-4.23047c1.62641,-2.20439 4.52095,-3.66254 6.2698,-4.38966z" data-paper-data="{&quot;origRot&quot;:0,&quot;index&quot;:null}" fill="#cff538" stroke="#000000" stroke-width="1" stroke-linecap="butt"/><path d="M257.09764,161.5416c-0.11678,2.2285 3.57492,5.14932 2.75993,8.58756c-3.21916,13.58083 -15.26702,10.02164 -21.11708,10.02164c-10.13837,0 -18.35715,-8.33162 -18.35715,-18.60921c0,-4.68701 5.23814,-17.93298 13.54506,-18.34505c8.35421,-0.41441 23.78663,6.56384 23.16924,18.34505z" fill="url(#color-1)" stroke="#000000" stroke-width="3" stroke-linecap="butt"/><path d="M228.65251,146.2539c2.43951,3.30643 -3.29435,7.53691 -5.73385,4.23047c0.3853,-2.95574 -0.65742,-6.092 -1.37763,-7.82159c-0.34794,-0.83559 -0.03264,-1.16206 0.84168,-0.79854c1.74885,0.72713 4.6434,2.18528 6.2698,4.38966z" data-paper-data="{&quot;origRot&quot;:0}" fill="#cff538" stroke="#000000" stroke-width="1" stroke-linecap="butt"/><path d="M248.39189,161.93271c0,2.06059 -1.41589,3.73104 -3.16249,3.73104c-1.74659,0 -3.16249,-1.67044 -3.16249,-3.73104c0,-2.06059 1.41589,-3.73104 3.16249,-3.73104c1.74659,0 3.16249,1.67044 3.16249,3.73104z" fill="#ffee00" stroke="#000000" stroke-width="0" stroke-linecap="butt"/><path d="M247.42915,162.11156c0,0.99908 -0.52165,1.80899 -1.16513,1.80899c-0.64348,0 -1.16513,-0.80991 -1.16513,-1.80899c0,-0.99908 0.52165,-1.80899 1.16513,-1.80899c0.64348,0 1.16513,0.80991 1.16513,1.80899z" fill="#ff0000" stroke="none" stroke-width="0" stroke-linecap="butt"/><path d="M254.86726,161.95333c0,2.0606 -1.41589,3.73103 -3.16249,3.73103c-1.7466,0 -3.16249,-1.67044 -3.16249,-3.73103c0,-2.0606 1.41589,-3.73104 3.16249,-3.73104c1.7466,0 3.16249,1.67044 3.16249,3.73104z" fill="#ffee00" stroke="#000000" stroke-width="0" stroke-linecap="butt"/><path d="M253.90453,162.13218c0,0.99908 -0.52165,1.80899 -1.16513,1.80899c-0.64348,0 -1.16512,-0.80991 -1.16512,-1.80899c0,-0.99908 0.52164,-1.80898 1.16512,-1.80898c0.64348,0 1.16513,0.80991 1.16513,1.80898z" fill="#ff0000" stroke="none" stroke-width="0" stroke-linecap="butt"/><path d="M240.149,173.17685c0,0 4.41953,-0.46866 7.91554,-0.12959c5.0493,0.48973 8.31354,1.78938 8.31354,1.78938" fill="none" stroke="#000000" stroke-width="1.5" stroke-linecap="round"/><path d="M213.59232,161.37388l8.48338,-1.65979c0,0 0.12444,4.51808 1.74842,7.29361c1.74795,2.98741 5.62844,8.93547 5.62844,8.93547l-8.43402,-1.30228l2.39603,-4.01104l-6.13077,1.06881l3.47523,-5.15604z" fill="#dd6d00" stroke="#000000" stroke-width="1.5" stroke-linecap="butt"/><path d="M255.08713,158.05429h-13.09392" fill="none" stroke="#000000" stroke-width="2" stroke-linecap="round"/><path d="M240.85046,172.4628l1.89441,-1.97629l1.97629,1.89441z" fill="#ffffff" stroke="#000000" stroke-width="1" stroke-linecap="butt"/></g><path d="M254.41569,196.19078c0,0 -3.68422,4.28963 -8.44373,4.49045c-4.75951,0.20081 -8.6958,-1.48405 -8.79197,-3.76325c-0.09616,-2.2792 3.68422,-4.28965 8.44373,-4.49046c4.75951,-0.20081 8.79196,3.76326 8.79196,3.76326z" data-paper-data="{&quot;origRot&quot;:0,&quot;index&quot;:null}" fill="#bd5e00" stroke="#000000" stroke-width="2" stroke-linecap="butt"/><path d="M230.09827,193.66105c4.72409,0.6134 8.31559,2.94456 8.02185,5.2068c-0.29374,2.26224 -4.36149,3.59888 -9.08557,2.98548c-4.72409,-0.6134 -8.02184,-5.2068 -8.02184,-5.2068c0,0 4.36148,-3.59888 9.08557,-2.98548z" data-paper-data="{&quot;origRot&quot;:0}" fill="#dd6d00" stroke="#000000" stroke-width="2" stroke-linecap="butt"/></g></g></svg>