<svg version="1.1" xmlns="http://www.w3.org/2000/svg" xmlns:xlink="http://www.w3.org/1999/xlink" width="79.20539" height="60.81347" viewBox="0,0,79.20539,60.81347"><defs><radialGradient cx="247.51747" cy="195.98306" r="9.52076" gradientUnits="userSpaceOnUse" id="color-1"><stop offset="0" stop-color="#a26e2a"/><stop offset="1" stop-color="#472b00"/></radialGradient><linearGradient x1="236.89022" y1="193.81833" x2="263.64306" y2="193.81833" gradientUnits="userSpaceOnUse" id="color-2"><stop offset="0" stop-color="#24b400"/><stop offset="1" stop-color="#217700"/></linearGradient><radialGradient cx="239.37786" cy="161.14922" r="34.81049" gradientUnits="userSpaceOnUse" id="color-3"><stop offset="0" stop-color="#ffb554"/><stop offset="1" stop-color="#885200"/></radialGradient><radialGradient cx="227.16738" cy="197.22825" r="10.56812" gradientUnits="userSpaceOnUse" id="color-4"><stop offset="0" stop-color="#c08231"/><stop offset="1" stop-color="#5e3800"/></radialGradient><linearGradient x1="215.37104" y1="194.82538" x2="245.06693" y2="194.82538" gradientUnits="userSpaceOnUse" id="color-5"><stop offset="0" stop-color="#2fe500"/><stop offset="1" stop-color="#16bb00"/></linearGradient></defs><g transform="translate(-204.86807,-147.9829)"><g data-paper-data="{&quot;isPaintingLayer&quot;:true}" fill-rule="nonzero" stroke-linecap="butt" stroke-linejoin="miter" stroke-miterlimit="10" stroke-dasharray="" stroke-dashoffset="0" style="mix-blend-mode: normal"><path d="M237.84584,162.46758c0,0 -5.00992,-9.79334 -12.08111,-10.62427c-4.34558,-0.51065 -6.16341,3.11278 -11.15455,3.33569c-4.88174,0.21803 -8.51324,-4.96817 -8.51324,-4.96817l3.38398,-0.90595c0,0 2.76986,2.44645 5.87302,3.10019c3.40672,0.71769 7.52796,-4.8174 11.91291,-3.45565c6.04495,1.87726 11.42128,10.09934 11.42128,10.09934z" fill="#c29557" stroke="#000000" stroke-width="1.5"/><path d="M237.9967,195.98306c0,-5.25817 4.2626,-9.52076 9.52076,-9.52076c5.25817,0 9.52076,4.26259 9.52076,9.52076c0,5.25817 -4.26259,9.52076 -9.52076,9.52076c-5.25817,0 -9.52076,-4.26259 -9.52076,-9.52076z" fill="url(#color-1)" stroke="#000000" stroke-width="2"/><path d="M263.64306,203.67284c0,0 -0.89912,1.57559 -9.4934,-6.85792c-1.67395,-1.64263 -3.60597,-10.06991 -5.61281,-9.93444c-12.13454,0.81916 -12.26272,13.33016 -11.26991,11.21281c0.51029,-1.0883 -1.58815,-7.26194 2.24057,-11.0842c3.62025,-3.61415 11.93857,-4.13836 15.517,-1.52937c3.77601,2.75306 2.15722,6.77979 4.13259,12.56337c1.09191,3.19695 4.48595,5.62975 4.48595,5.62975z" data-paper-data="{&quot;origRot&quot;:0,&quot;index&quot;:null}" fill="url(#color-2)" stroke="#000000" stroke-width="2"/><path d="M278.54363,200.68235c0,0 -20.1795,6.84933 -38.6698,0.8622c-9.04018,-2.9272 -16.74642,-4.49362 -20.06429,-9.76026c-3.46832,-5.50545 -3.93389,-12.0385 -1.65542,-19.07518c1.20233,-3.71315 4.8652,-11.41274 9.52774,-15.31366c4.30902,-3.60513 9.6877,-3.56501 9.6877,-3.56501l-3.46883,2.81845l13.77842,-1.77148l0.88364,2.57432c0,0 4.45767,1.71445 5.33075,1.99715c9.76207,3.26011 18.74885,11.39319 18.74885,11.39319l8.72519,2.5733c0,0 2.37068,6.33755 1.52263,13.2316c-1.11453,9.06023 -4.34659,14.03539 -4.34659,14.03539z" fill="url(#color-3)" stroke="#000000" stroke-width="2"/><path d="M247.93204,173.98499c1.56395,-2.63116 11.09221,3.03242 9.52827,5.66357c-1.56395,2.63116 -4.96476,3.4963 -7.59591,1.93235c-2.63116,-1.56395 -3.4963,-4.96477 -1.93236,-7.59592z" fill="#ffffff" stroke="#000000" stroke-width="1"/><path d="M216.59926,197.22825c0,-5.83662 4.73151,-10.56812 10.56813,-10.56812c5.83662,0 10.56812,4.7315 10.56812,10.56812c0,5.83662 -4.7315,10.56812 -10.56812,10.56812c-5.83662,0 -10.56813,-4.73151 -10.56813,-10.56812z" fill="url(#color-4)" stroke="#000000" stroke-width="2"/><path d="M224.39617,192.01108c0,-0.71781 0.58189,-1.29969 1.29969,-1.29969c0.71781,0 1.29969,0.58189 1.29969,1.29969c0,0.71781 -0.58189,1.29969 -1.29969,1.29969c-0.71781,0 -1.29969,-0.58189 -1.29969,-1.29969z" fill="#000000" stroke="none" stroke-width="0.5"/><path d="M229.75472,193.88391c0,-0.86136 0.69827,-1.55963 1.55963,-1.55963c0.86136,0 1.55963,0.69827 1.55963,1.55963c0,0.86136 -0.69827,1.55963 -1.55963,1.55963c-0.86136,0 -1.55963,-0.69827 -1.55963,-1.55963z" fill="#000000" stroke="none" stroke-width="0.5"/><path d="M224.94648,196.55937c0,-1.00492 0.81465,-1.81957 1.81957,-1.81957c1.00492,0 1.81957,0.81465 1.81957,1.81957c0,1.00492 -0.81465,1.81957 -1.81957,1.81957c-1.00492,0 -1.81957,-0.81465 -1.81957,-1.81957z" fill="#000000" stroke="none" stroke-width="0.5"/><path d="M245.06693,205.76397c0,0 -0.99802,1.74892 -10.53774,-7.61233c-1.8581,-1.82334 -4.00264,-11.17769 -6.23027,-11.02731c-13.46944,0.90928 -13.61171,14.79658 -12.50969,12.4463c0.56643,-1.20802 -1.76287,-8.06081 2.48704,-12.30356c4.01852,-4.01173 13.25191,-4.59361 17.224,-1.6976c4.1914,3.0559 2.39454,7.52561 4.58721,13.94543c1.21202,3.54863 4.97944,6.24906 4.97944,6.24906z" data-paper-data="{&quot;origRot&quot;:0,&quot;index&quot;:null}" fill="url(#color-5)" stroke="#000000" stroke-width="2"/><path d="M273.0678,186.89786c0.9909,-7.35055 3.93291,-13.02103 6.57115,-12.66538c2.63824,0.35566 3.97365,6.60278 2.98276,13.95332c-0.9909,7.35055 -3.93291,13.02103 -6.57114,12.66538c-2.63824,-0.35566 -3.97367,-6.60278 -2.98277,-13.95331z" fill="#ffffff" stroke="#000000" stroke-width="2"/><path d="M246.63389,175.40052l1.71347,-2.4642l1.74462,-0.39852l5.01439,2.76829l2.58847,0.09157l-0.73687,0.93498l2.11424,1.19165l-2.13202,4.17788l-6.17378,-2.61577z" fill="#5a390a" stroke="#000000" stroke-width="1"/></g></g></svg>