<svg version="1.1" xmlns="http://www.w3.org/2000/svg" xmlns:xlink="http://www.w3.org/1999/xlink" width="269.10517" height="73.7599" viewBox="0,0,269.10517,73.7599"><g transform="translate(-114.06752,-143.99144)"><g data-paper-data="{&quot;isPaintingLayer&quot;:true}" fill-rule="nonzero" stroke-linecap="butt" stroke-linejoin="miter" stroke-miterlimit="10" stroke-dasharray="" stroke-dashoffset="0" style="mix-blend-mode: normal"><text transform="translate(115.38924,195.86052) scale(1.32171,1.32171)" font-size="40" xml:space="preserve" fill="#ffffff" fill-rule="nonzero" stroke="#ffffff" stroke-width="2" stroke-linecap="butt" stroke-linejoin="miter" stroke-miterlimit="10" stroke-dasharray="" stroke-dashoffset="0" font-family="Handwriting" font-weight="normal" text-anchor="start" style="mix-blend-mode: normal"><tspan x="0" dy="0">manh_noob</tspan></text><text transform="translate(213.62975,157.2851) scale(0.32807,0.32807)" font-size="40" xml:space="preserve" fill="#afafaf" fill-rule="nonzero" stroke="#b1b1b1" stroke-width="2" stroke-linecap="butt" stroke-linejoin="miter" stroke-miterlimit="10" stroke-dasharray="" stroke-dashoffset="0" font-family="Handwriting" font-weight="normal" text-anchor="start" style="mix-blend-mode: normal"><tspan x="0" dy="0">remake by</tspan></text><path d="M377.8499,165.5119c-1.6536,0.9968 -6.5037,-4.1572 -6.5037,-4.1572c0,0 -5.6485,4.2628 -7.1064,3.0007c-1.4578,-1.2621 1.9421,-7.4644 1.9421,-7.4644c0,0 -5.7953,-4.0594 -5.0484,-5.834c0.7496,-1.7773 7.6988,-0.4585 7.6988,-0.4585c0,0 2.0658,-6.769 3.9898,-6.6041c1.9215,0.1622 2.8127,7.1811 2.8127,7.1811c0,0 7.0781,-0.1263 7.5159,1.7514c0.4431,1.8803 -5.955,4.899 -5.955,4.899c0,0 2.3027,6.6892 0.6542,7.686z" fill="#ffde00" stroke="none" stroke-width="2.57572"/></g></g></svg>