<svg version="1.1" xmlns="http://www.w3.org/2000/svg" xmlns:xlink="http://www.w3.org/1999/xlink" width="37.25" height="37.25" viewBox="0,0,37.25,37.25"><g transform="translate(-221.375,-161.375)"><g data-paper-data="{&quot;isPaintingLayer&quot;:true}" fill-rule="nonzero" stroke-linejoin="miter" stroke-miterlimit="10" stroke-dasharray="" stroke-dashoffset="0" style="mix-blend-mode: normal"><path d="M222.625,180c0,-9.59594 7.77906,-17.375 17.375,-17.375c9.59595,0 17.375,7.77906 17.375,17.375c0,9.59595 -7.77905,17.375 -17.375,17.375c-9.59594,0 -17.375,-7.77905 -17.375,-17.375z" fill="#ffffff" stroke="#000000" stroke-width="2.5" stroke-linecap="butt"/><path d="M246.68749,173.58203v12.75" fill="none" stroke="#000000" stroke-width="2" stroke-linecap="round"/><path d="M250.18749,188.95703v-17.625" fill="none" stroke="#000000" stroke-width="2" stroke-linecap="round"/><path d="M243.35896,176.42049v7.375" fill="none" stroke="#000000" stroke-width="2" stroke-linecap="round"/><path d="M237.29553,172.37904c2.03844,-1.01336 3.52966,0.76261 3.52966,2.65093c0,1.91734 0,6.21373 0,9.59221c0,2.60639 -1.38405,3.95523 -3.29851,2.97141c-1.79493,-0.92239 -4.55942,-3.33063 -6.54445,-5.17123c-1.57648,-1.46177 -1.6026,-3.5824 -0.18147,-4.93149c1.91564,-1.81852 4.57366,-4.1568 6.49477,-5.11183z" fill="#000000" stroke="none" stroke-width="0" stroke-linecap="butt"/></g></g></svg>