<svg version="1.1" xmlns="http://www.w3.org/2000/svg" xmlns:xlink="http://www.w3.org/1999/xlink" width="82.76014" height="60.04336" viewBox="0,0,82.76014,60.04336"><defs><linearGradient x1="219.9957" y1="203.29988" x2="231.85835" y2="184.33463" gradientUnits="userSpaceOnUse" id="color-1"><stop offset="0" stop-color="#cfff65"/><stop offset="1" stop-color="#5eff00"/></linearGradient><linearGradient x1="238.70708" y1="161.6726" x2="238.70708" y2="198.27703" gradientUnits="userSpaceOnUse" id="color-2"><stop offset="0" stop-color="#cfff65"/><stop offset="1" stop-color="#5eff00"/></linearGradient><linearGradient x1="224.28229" y1="185.75714" x2="251.62536" y2="185.75714" gradientUnits="userSpaceOnUse" id="color-3"><stop offset="0" stop-color="#7c35ff"/><stop offset="1" stop-color="#c066ff"/></linearGradient><linearGradient x1="233.96301" y1="169.75861" x2="240.9458" y2="172.37608" gradientUnits="userSpaceOnUse" id="color-4"><stop offset="0" stop-color="#492181"/><stop offset="1" stop-color="#6b2283"/></linearGradient><linearGradient x1="241.76443" y1="173.11997" x2="246.90819" y2="170.29788" gradientUnits="userSpaceOnUse" id="color-5"><stop offset="0" stop-color="#492181"/><stop offset="1" stop-color="#6b2283"/></linearGradient><linearGradient x1="235.94445" y1="153.7632" x2="235.94445" y2="198.05319" gradientUnits="userSpaceOnUse" id="color-6"><stop offset="0" stop-color="#000000"/><stop offset="1" stop-color="#000000" stop-opacity="0"/></linearGradient><linearGradient x1="206.18618" y1="194.44655" x2="264.38618" y2="194.44655" gradientUnits="userSpaceOnUse" id="color-7"><stop offset="0" stop-color="#35ff00" stop-opacity="0"/><stop offset="1" stop-color="#35ff00"/></linearGradient><linearGradient x1="250.60741" y1="173.85569" x2="274.34454" y2="194.61289" gradientUnits="userSpaceOnUse" id="color-8"><stop offset="0" stop-color="#cfff65"/><stop offset="1" stop-color="#5eff00"/></linearGradient></defs><g transform="translate(-201.77189,-148.30692)"><g data-paper-data="{&quot;isPaintingLayer&quot;:true}" fill-rule="nonzero" stroke-linecap="butt" stroke-linejoin="miter" stroke-miterlimit="10" stroke-dasharray="" stroke-dashoffset="0" style="mix-blend-mode: normal"><path d="M239.88211,189.35345l-27.91017,8.92763c0,0 4.82684,-16.71471 11.86265,-18.96525c7.0358,-2.25054 16.04752,10.03762 16.04752,10.03762z" data-paper-data="{&quot;index&quot;:null}" fill="url(#color-1)" stroke="#000000" stroke-width="2"/><path d="M228.89445,194.30787c0,-5.62564 0.22051,-32.63527 0.22051,-32.63527h19.18425c0,0 0,27.00963 0,32.63527c0,1.96191 -1.17729,3.96916 -2.64611,3.96916c-4.20809,0 -12.39843,0 -14.55356,0c-0.98758,0 -2.20508,-2.00725 -2.20508,-3.96916z" fill="url(#color-2)" stroke="#000000" stroke-width="2"/><path d="M265.46351,164.43261c0,0 -4.11801,3.94261 -18.09523,1.75009c-6.39873,-1.00373 -12.99707,-0.20755 -20.83299,-2.60353c-7.83592,-2.39598 -17.14842,-9.01002 -17.14842,-9.01002c0,0 19.47883,0.17432 33.45605,2.36683c13.97722,2.19251 22.62057,7.49664 22.62057,7.49664z" data-paper-data="{&quot;index&quot;:null}" fill="#3f3f3f" stroke="#000000" stroke-width="2"/><path d="M231.5398,160.28505l2.01763,-10.14117c0,0 6.14696,-1.16999 8.86689,-0.74334c2.89335,0.45386 8.00511,3.38992 8.00511,3.38992l-1.39273,10.23918c0,0 -5.56839,-0.01978 -9.08743,-0.57179c-3.51904,-0.552 -8.40946,-2.17282 -8.40946,-2.17282z" data-paper-data="{&quot;index&quot;:null}" fill="#3f3f3f" stroke="#000000" stroke-width="2"/><path d="M225.38484,178.81112c0,0 11.64416,1.58389 15.84628,1.03671c6.95589,-0.90577 10.39424,-5.00587 10.39424,-5.00587c0,0 -0.46528,11.09787 -1.46843,15.55185c-0.77477,3.43995 -4.04429,8.9246 -4.04429,8.9246c0,0 -10.32857,-3.21168 -13.49912,-6.3485c-3.66641,-3.6274 -7.22868,-14.15879 -7.22868,-14.15879z" data-paper-data="{&quot;index&quot;:null}" fill="url(#color-3)" stroke="#000000" stroke-width="2"/><path d="M234.83406,174.01488c0.14085,-1.9245 1.45054,-3.3356 2.92526,-3.1518c1.47474,0.1838 2.55606,1.89293 2.41522,3.81741c-0.14085,1.9245 -1.45054,3.3356 -2.92526,3.1518c-1.47474,-0.1838 -2.55606,-1.89293 -2.41521,-3.81741z" fill="#ffffff" stroke="#000000" stroke-width="0.6"/><path d="M237.97579,174.08986c0.03784,-0.39619 0.38969,-0.68669 0.78588,-0.64885c0.39619,0.03784 0.68669,0.3897 0.64885,0.78588c-0.03784,0.39619 -0.38969,0.68668 -0.78588,0.64885c-0.39619,-0.03784 -0.68669,-0.38969 -0.64885,-0.78588z" fill="#000000" stroke="none" stroke-width="0.5"/><path d="M233.62322,170.66508l0.92321,-1.5933l1.04662,-0.33181l3.20591,1.43934l0.29873,-0.72821l0.8853,1.26235l1.35295,0.62183l-1.09256,2.66228l-3.90712,-1.28752z" fill="url(#color-4)" stroke="#000000" stroke-width="0.6"/><path d="M242.30346,174.08841c0.11081,-1.51412 1.14122,-2.62432 2.30148,-2.47971c1.16027,0.14461 2.011,1.48928 1.90019,3.00338c-0.11081,1.51412 -1.14122,2.62432 -2.30148,2.47972c-1.16027,-0.14461 -2.011,-1.48928 -1.90019,-3.00339z" fill="#ffffff" stroke="#000000" stroke-width="0.5"/><path d="M243.82163,173.80062c0.02976,-0.3117 0.30659,-0.54025 0.61829,-0.51049c0.3117,0.02976 0.54026,0.30659 0.51049,0.6183c-0.02976,0.3117 -0.30659,0.54026 -0.61829,0.51049c-0.3117,-0.02976 -0.54026,-0.3066 -0.51049,-0.6183z" fill="#000000" stroke="none" stroke-width="0.5"/><path d="M242.13078,173.78771l-0.47669,-1.36811l0.33905,-0.7945l2.50331,-1.17376l-0.28109,-0.55178l1.20715,0.1196l1.06503,-0.48796l1.02742,2.01755l-2.7725,1.66989z" fill="url(#color-5)" stroke="#000000" stroke-width="0.5"/><path d="M201.7719,193.01793l5.35334,-39.25472c0,0 13.06057,9.28059 21.32473,10.20332c5.80627,0.64829 23.73609,4.49981 32.44351,3.08123c5.97188,-0.97292 4.45009,-2.84928 4.45009,-2.84928l-17.55334,35.45472z" fill="url(#color-6)" stroke="#000000" stroke-width="0"/><path d="M206.18618,184.14655c0,0 15.26616,8 25.4,8c9.16959,0 11.2,-9.2 11.2,-9.2l21.6,21.8c0,0 -16.6521,3.2 -27.8,3.6c-9.7756,0.35076 -30.4,-24.2 -30.4,-24.2z" fill="url(#color-7)" stroke="none" stroke-width="0"/><path d="M265.56264,204.65551c-10.41143,-0.16939 -23.73713,-20.7572 -23.73713,-20.7572l41.30091,0.67193c0,0 -7.15235,20.25465 -17.56378,20.08527z" fill="url(#color-8)" stroke="#000000" stroke-width="2"/></g></g></svg>