<svg version="1.1" xmlns="http://www.w3.org/2000/svg" xmlns:xlink="http://www.w3.org/1999/xlink" width="81.73014" height="61.06425" viewBox="0,0,81.73014,61.06425"><defs><radialGradient cx="247.51747" cy="195.98307" r="9.52076" gradientUnits="userSpaceOnUse" id="color-1"><stop offset="0" stop-color="#a26e2a"/><stop offset="1" stop-color="#472b00"/></radialGradient><linearGradient x1="236.89022" y1="193.81834" x2="263.64306" y2="193.81834" gradientUnits="userSpaceOnUse" id="color-2"><stop offset="0" stop-color="#24b400"/><stop offset="1" stop-color="#217700"/></linearGradient><radialGradient cx="234.31811" cy="159.79723" r="34.81049" gradientUnits="userSpaceOnUse" id="color-3"><stop offset="0" stop-color="#ffb554"/><stop offset="1" stop-color="#885200"/></radialGradient><radialGradient cx="227.16738" cy="197.22826" r="10.56812" gradientUnits="userSpaceOnUse" id="color-4"><stop offset="0" stop-color="#c08231"/><stop offset="1" stop-color="#5e3800"/></radialGradient><linearGradient x1="215.37104" y1="194.82539" x2="245.06693" y2="194.82539" gradientUnits="userSpaceOnUse" id="color-5"><stop offset="0" stop-color="#2fe500"/><stop offset="1" stop-color="#16bb00"/></linearGradient></defs><g transform="translate(-199.01206,-147.73213)"><g data-paper-data="{&quot;isPaintingLayer&quot;:true}" fill-rule="nonzero" stroke-linecap="butt" stroke-linejoin="miter" stroke-miterlimit="10" stroke-dasharray="" stroke-dashoffset="0" style="mix-blend-mode: normal"><path d="M232.8958,161.23326c0,0 -5.77297,-9.36384 -12.88785,-9.62973c-4.37243,-0.1634 -5.89631,3.59314 -10.85391,4.21231c-4.84893,0.60562 -8.88142,-4.27532 -8.88142,-4.27532l3.30121,-1.17223c0,0 2.95567,2.2184 6.10099,2.62325c3.45301,0.44446 7.12095,-5.40089 11.60032,-4.39221c6.17511,1.39052 12.18836,9.15894 12.18836,9.15894z" fill="#c29557" stroke="#000000" stroke-width="1.5"/><path d="M237.9967,195.98307c0,-5.25817 4.2626,-9.52076 9.52076,-9.52076c5.25817,0 9.52076,4.26259 9.52076,9.52076c0,5.25817 -4.26259,9.52076 -9.52076,9.52076c-5.25817,0 -9.52076,-4.26259 -9.52076,-9.52076z" fill="url(#color-1)" stroke="#000000" stroke-width="2"/><path d="M263.64306,203.67285c0,0 -0.89912,1.57559 -9.4934,-6.85792c-1.67395,-1.64263 -3.60597,-10.06991 -5.61281,-9.93444c-12.13454,0.81916 -12.26272,13.33016 -11.26991,11.21281c0.51029,-1.0883 -1.58815,-7.26194 2.24057,-11.0842c3.62025,-3.61415 11.93857,-4.13836 15.517,-1.52937c3.77601,2.75306 2.15722,6.77979 4.13259,12.56337c1.09191,3.19695 4.48595,5.62975 4.48595,5.62975z" data-paper-data="{&quot;origRot&quot;:0,&quot;index&quot;:null}" fill="url(#color-2)" stroke="#000000" stroke-width="2"/><path d="M276.50412,196.09002c0,0 -19.5708,8.43263 -38.47872,3.93512c-9.24436,-2.1989 -17.05077,-3.14744 -20.77702,-8.1335c-3.89522,-5.21215 -4.87893,-11.68747 -3.16734,-18.88308c0.90319,-3.79702 3.94206,-11.76354 8.27956,-16.02295c4.00863,-3.93643 9.37346,-4.32424 9.37346,-4.32424l-3.23368,3.08542l13.59387,-2.86175l1.0856,2.49588c0,0 4.57991,1.35447 5.47271,1.56684c9.99044,2.47335 19.59563,9.86588 19.59563,9.86588l8.90222,1.87117c0,0 2.86723,6.12891 2.5702,13.06858c-0.39038,9.12017 -3.21649,14.33664 -3.21649,14.33664z" fill="url(#color-3)" stroke="#000000" stroke-width="2"/><path d="M243.8661,171.91197c1.34972,-2.74722 11.29826,2.14058 9.94854,4.88779c-1.34972,2.74722 -4.67095,3.8801 -7.41816,2.53038c-2.74722,-1.34972 -3.8801,-4.67096 -2.53039,-7.41816z" fill="#ffffff" stroke="#000000" stroke-width="1"/><path d="M216.59926,197.22826c0,-5.83662 4.73151,-10.56812 10.56813,-10.56812c5.83662,0 10.56812,4.7315 10.56812,10.56812c0,5.83662 -4.7315,10.56812 -10.56812,10.56812c-5.83662,0 -10.56813,-4.73151 -10.56813,-10.56812z" fill="url(#color-4)" stroke="#000000" stroke-width="2"/><path d="M224.39617,192.01109c0,-0.71781 0.58189,-1.29969 1.29969,-1.29969c0.71781,0 1.29969,0.58189 1.29969,1.29969c0,0.71781 -0.58189,1.29969 -1.29969,1.29969c-0.71781,0 -1.29969,-0.58189 -1.29969,-1.29969z" fill="#000000" stroke="none" stroke-width="0.5"/><path d="M229.75472,193.88392c0,-0.86136 0.69827,-1.55963 1.55963,-1.55963c0.86136,0 1.55963,0.69827 1.55963,1.55963c0,0.86136 -0.69827,1.55963 -1.55963,1.55963c-0.86136,0 -1.55963,-0.69827 -1.55963,-1.55963z" fill="#000000" stroke="none" stroke-width="0.5"/><path d="M224.94648,196.55938c0,-1.00492 0.81465,-1.81957 1.81957,-1.81957c1.00492,0 1.81957,0.81465 1.81957,1.81957c0,1.00492 -0.81465,1.81957 -1.81957,1.81957c-1.00492,0 -1.81957,-0.81465 -1.81957,-1.81957z" fill="#000000" stroke="none" stroke-width="0.5"/><path d="M245.06693,205.76398c0,0 -0.99802,1.74892 -10.53774,-7.61233c-1.8581,-1.82334 -4.00264,-11.17769 -6.23027,-11.02731c-13.46944,0.90928 -13.61171,14.79658 -12.50969,12.4463c0.56643,-1.20802 -1.76287,-8.06081 2.48704,-12.30356c4.01852,-4.01173 13.25191,-4.59361 17.224,-1.6976c4.1914,3.0559 2.39454,7.52561 4.58721,13.94543c1.21202,3.54863 4.97944,6.24906 4.97944,6.24906z" data-paper-data="{&quot;origRot&quot;:0,&quot;index&quot;:null}" fill="url(#color-5)" stroke="#000000" stroke-width="2"/><path d="M269.94927,182.78472c0.40312,-7.40607 2.8848,-13.29258 5.54298,-13.1479c2.65817,0.1447 4.48623,6.26581 4.0831,13.67188c-0.40312,7.40607 -2.8848,13.29258 -5.54297,13.14789c-2.65817,-0.1447 -4.48625,-6.26581 -4.08311,-13.67187z" fill="#ffffff" stroke="#000000" stroke-width="2"/><path d="M243.41485,171.6062l1.51205,-2.59268l1.70739,-0.53602l5.21869,2.36069l2.58755,-0.11459l-0.66017,0.99063l2.20232,1.01971l-1.79297,4.33422l-6.36227,-2.11645z" fill="#5a390a" stroke="#000000" stroke-width="1"/></g></g></svg>