<svg version="1.1" xmlns="http://www.w3.org/2000/svg" xmlns:xlink="http://www.w3.org/1999/xlink" width="51.89922" height="61.42902" viewBox="0,0,51.89922,61.42902"><g transform="translate(-217.4,-157.73349)"><g data-paper-data="{&quot;isPaintingLayer&quot;:true}" fill-rule="nonzero" stroke-linecap="butt" stroke-linejoin="miter" stroke-miterlimit="10" stroke-dasharray="" stroke-dashoffset="0" style="mix-blend-mode: normal"><path d="M218.4,190.3625v-8.4h19.4v8.4z" data-paper-data="{&quot;origPos&quot;:null}" fill="#c07a00" stroke="#000000" stroke-width="2"/><path d="M230.4,199.9625v-20h19.4v20z" data-paper-data="{&quot;origPos&quot;:null}" fill="#c07a00" stroke="#000000" stroke-width="2"/><path d="M263.45246,182.19538c-5.37986,3.67444 -13.03955,1.82381 -17.10839,-4.1335c-4.06884,-5.95731 -3.00603,-13.76539 2.37383,-17.43983c5.37986,-3.67444 13.03955,-1.82381 17.10839,4.1335c4.06884,5.95731 3.00603,13.76539 -2.37383,17.43983z" fill="#b2b2b2" stroke="#000000" stroke-width="2"/><path d="M258.82027,168.85947c-1.36818,0.93447 -3.09282,0.79083 -3.85208,-0.32082c-0.75925,-1.11165 -0.26562,-2.77036 1.10256,-3.70483c1.36818,-0.93447 3.09282,-0.79083 3.85208,0.32082c0.75925,1.11165 0.26562,2.77036 -1.10256,3.70483z" fill="#ff0000" stroke="none" stroke-width="0"/><path d="M255.26632,163.8998c-1.22567,0.83713 -2.75585,0.73012 -3.41777,-0.23901c-0.66192,-0.96914 -0.20491,-2.43339 1.02076,-3.27052c1.22567,-0.83713 2.75585,-0.73012 3.41777,0.23901c0.66192,0.96914 0.20491,2.43339 -1.02076,3.27052z" fill="#ff0000" stroke="none" stroke-width="0"/><path d="M231,218.1625v-17.4h8v17.4z" data-paper-data="{&quot;origPos&quot;:null}" fill="#4c517f" stroke="#000000" stroke-width="2"/><path d="M241,218.1625v-17.6h8v17.6z" data-paper-data="{&quot;origPos&quot;:null}" fill="#4c517f" stroke="#000000" stroke-width="2"/><path d="M223.5071,202.58581v-8.4h19.4v8.4z" fill="#c07a00" stroke="#000000" stroke-width="2"/></g></g></svg>