<svg version="1.1" xmlns="http://www.w3.org/2000/svg" xmlns:xlink="http://www.w3.org/1999/xlink" width="71.90519" height="39.82641" viewBox="0,0,71.90519,39.82641"><g transform="translate(-213.27611,-186.25631)"><g data-paper-data="{&quot;isPaintingLayer&quot;:true}" fill-rule="nonzero" stroke-linecap="butt" stroke-linejoin="miter" stroke-miterlimit="10" stroke-dasharray="" stroke-dashoffset="0" style="mix-blend-mode: normal"><path d="M229.13492,194.12924l5.36341,-6.46481l14.93064,12.38692l-5.36341,6.46481z" fill="#c07a00" stroke="#000000" stroke-width="2"/><path d="M229.65761,200.50408l19.42247,-4.77149l4.62835,18.8398l-19.42247,4.77149z" data-paper-data="{&quot;origPos&quot;:null,&quot;origRot&quot;:0}" fill="#c07a00" stroke="#000000" stroke-width="2"/><path d="M219.12714,194.17419l14.44039,9.7075l-4.46322,6.63926l-14.44039,-9.7075z" data-paper-data="{&quot;origPos&quot;:null,&quot;origRot&quot;:0}" fill="#4c517f" stroke="#000000" stroke-width="2"/><path d="M220.34094,204.16161l15.30889,8.6832l-3.9469,6.95859l-15.30889,-8.6832z" data-paper-data="{&quot;origPos&quot;:null,&quot;origRot&quot;:0}" fill="#4c517f" stroke="#000000" stroke-width="2"/><path d="M223.8142,221.01173v-8.4h19.4v8.4z" fill="#c07a00" stroke="#000000" stroke-width="2"/><path d="M273.79463,225.02504c-6.48022,0.67172 -12.33647,-4.60085 -13.08029,-11.77662c-0.74382,-7.17577 3.90646,-13.53742 10.38667,-14.20914c6.48022,-0.67172 12.33647,4.60085 13.08029,11.77662c0.74382,7.17577 -3.90646,13.53741 -10.38667,14.20913z" fill="#b2b2b2" stroke="#000000" stroke-width="2"/><path d="M276.06648,211.09157c-1.64802,0.17083 -3.09653,-0.77618 -3.23533,-2.11519c-0.1388,-1.33902 1.08468,-2.56299 2.73269,-2.73383c1.64802,-0.17083 3.09653,0.77618 3.23533,2.11519c0.1388,1.33902 -1.08468,2.56299 -2.73269,2.73383z" fill="#ff0000" stroke="none" stroke-width="0"/><path d="M275.30078,205.03825c-1.47636,0.15303 -2.77127,-0.66923 -2.89227,-1.83658c-0.121,-1.16736 0.97772,-2.23774 2.45408,-2.39077c1.47636,-0.15303 2.77127,0.66923 2.89227,1.83658c0.121,1.16736 -0.97772,2.23774 -2.45408,2.39077z" fill="#ff0000" stroke="none" stroke-width="0"/></g></g></svg>