<svg version="1.1" xmlns="http://www.w3.org/2000/svg" xmlns:xlink="http://www.w3.org/1999/xlink" width="60.63157" height="38.15113" viewBox="0,0,60.63157,38.15113"><defs><linearGradient x1="239.79182" y1="162.83335" x2="239.79182" y2="198.83335" gradientUnits="userSpaceOnUse" id="color-1"><stop offset="0" stop-color="#10c7ac"/><stop offset="1" stop-color="#ab6500"/></linearGradient><radialGradient cx="240.25515" cy="195.55854" r="5.48294" gradientUnits="userSpaceOnUse" id="color-2"><stop offset="0" stop-color="#a26e2a"/><stop offset="1" stop-color="#472b00"/></radialGradient><linearGradient x1="234.13499" y1="194.31189" x2="249.54175" y2="194.31189" gradientUnits="userSpaceOnUse" id="color-3"><stop offset="0" stop-color="#24b400"/><stop offset="1" stop-color="#217700"/></linearGradient><radialGradient cx="223.52278" cy="175.46774" r="20.0471" gradientUnits="userSpaceOnUse" id="color-4"><stop offset="0" stop-color="#ffb554"/><stop offset="1" stop-color="#885200"/></radialGradient><radialGradient cx="228.53568" cy="196.27564" r="6.0861" gradientUnits="userSpaceOnUse" id="color-5"><stop offset="0" stop-color="#c08231"/><stop offset="1" stop-color="#5e3800"/></radialGradient><linearGradient x1="221.74226" y1="194.89184" x2="238.8439" y2="194.89184" gradientUnits="userSpaceOnUse" id="color-6"><stop offset="0" stop-color="#2fe500"/><stop offset="1" stop-color="#16bb00"/></linearGradient></defs><g transform="translate(-209.24291,-161.85145)"><g data-paper-data="{&quot;isPaintingLayer&quot;:true}" fill-rule="nonzero" stroke-linecap="butt" stroke-linejoin="miter" stroke-miterlimit="10" stroke-dasharray="" stroke-dashoffset="0" style="mix-blend-mode: normal"><path d="M210.50016,195.77118c0,-7.18645 0,-25.25324 0,-29.5c0,-1.72983 1.95533,-3.43783 4.10049,-3.43783c6.49354,0 39.77537,0 50.875,0c2.26628,0 3.60783,1.47996 3.60783,3.81283c0,7.50898 0,23.85448 0,28.125c0,1.9962 -1.8827,4.06217 -3.73283,4.06217c-5.36167,0 -31.34965,0 -31.34965,0c-3.50551,-0.20254 -7.07398,-0.45211 -10.3325,-0.0711c-0.25664,0.03001 -0.52182,0.05168 -0.79121,0.0711c0,0 -6.49221,0 -8.77664,0c-1.46318,0 -3.60049,-1.2397 -3.60049,-3.06217z" data-paper-data="{&quot;origPos&quot;:null}" fill="url(#color-1)" stroke="none" stroke-width="0"/><path d="M222.39555,175.39686c0,0 -1.39414,-6.17974 -5.21996,-7.6546c-2.35115,-0.90637 -6.12758,0.26548 -6.12758,0.26548l0.23957,-1.44106c0,0 4.88846,-1.61074 7.13985,-0.22394c3.10369,1.91179 4.92695,7.2674 4.92695,7.2674z" fill="#c29557" stroke="#000000" stroke-width="1.5"/><path d="M234.7722,195.55854c0,-3.02814 2.4548,-5.48293 5.48293,-5.48293c3.02814,0 5.48293,2.45479 5.48293,5.48293c0,3.02814 -10.96587,3.02814 -10.96587,0z" fill="url(#color-2)" stroke="#000000" stroke-width="2"/><path d="M244.07457,196.0376c-0.96401,-0.94598 -2.07665,-5.79918 -3.23238,-5.72117c-6.98819,0.47175 -7.062,7.67674 -6.49025,6.45738c0.29387,-0.62674 -0.9146,-4.1821 1.29033,-6.38331c2.08488,-2.08136 6.87533,-2.38325 8.93612,-0.88075c2.17458,1.58546 4.44556,11.38465 -0.50382,6.52785z" data-paper-data="{&quot;origRot&quot;:0,&quot;index&quot;:null}" fill="url(#color-3)" stroke="#000000" stroke-width="2"/><path d="M253.63875,186.42663c0,0 -8.82508,8.52817 -19.92634,9.95612c-5.42758,0.69815 -9.82592,1.77699 -12.8486,-0.15005c-3.15975,-2.01441 -5.00838,-5.3022 -5.5518,-9.52691c-0.28675,-2.22932 -0.27218,-7.13962 1.19691,-10.31743c1.3577,-2.93686 4.16866,-4.23833 4.16866,-4.23833l-1.11355,2.32061l6.73995,-4.31001l1.09309,1.12339c0,0 2.74295,-0.20309 3.26714,-0.27051c5.88537,-0.70226 12.56501,1.32383 12.56501,1.32383l5.17652,-0.80501c0,0 2.7927,2.71761 4.04599,6.51636c1.64707,4.99237 1.18706,8.37793 1.18706,8.37793z" fill="url(#color-4)" stroke="#000000" stroke-width="2"/><path d="M231.13331,180.04923c0.16759,-1.75475 1.72596,-3.04139 3.4807,-2.87381c1.75475,0.16759 3.04139,1.72596 2.8738,3.4807c-0.16759,1.75475 -1.72596,3.04139 -3.4807,2.87381c-1.75475,-0.16759 -3.04139,-1.72596 -2.87381,-3.4807z" fill="#ffffff" stroke="#000000" stroke-width="1"/><path d="M222.44957,196.27564c-1.81481,-2.82923 2.72484,-6.0861 6.0861,-6.0861c3.36127,0 8.56974,3.82123 6.0861,6.0861c-2.43129,2.21713 -9.74091,3.79031 -12.1722,0z" fill="url(#color-5)" stroke="#000000" stroke-width="2"/><path d="M226.93977,193.27111c0,-0.41338 0.3351,-0.74848 0.74848,-0.74848c0.41338,0 0.74848,0.3351 0.74848,0.74848c0,0.41338 -0.3351,0.74848 -0.74848,0.74848c-0.41338,0 -0.74848,-0.3351 -0.74848,-0.74848z" fill="#000000" stroke="none" stroke-width="0.5"/><path d="M230.02571,194.34966c0,-0.49605 0.40213,-0.89818 0.89818,-0.89818c0.49605,0 0.89818,0.40213 0.89818,0.89818c0,0.49605 -0.40213,0.89818 -0.89818,0.89818c-0.49605,0 -0.89818,-0.40213 -0.89818,-0.89818z" fill="#000000" stroke="none" stroke-width="0.5"/><path d="M227.25668,195.89043c0,-0.57872 0.46916,-1.04788 1.04788,-1.04788c0.57872,0 1.04788,0.46915 1.04788,1.04788c0,0.57872 -0.46915,1.04788 -1.04788,1.04788c-0.57872,0 -1.04788,-0.46916 -1.04788,-1.04788z" fill="#000000" stroke="none" stroke-width="0.5"/><path d="M232.77529,196.80741c-1.07006,-1.05005 -2.30509,-6.43715 -3.58796,-6.35054c-7.75695,0.52364 -7.83888,8.52124 -7.20424,7.16773c0.3262,-0.69569 -1.01522,-4.64216 1.43227,-7.08553c2.31423,-2.31033 7.63167,-2.64542 9.91917,-0.97763c2.41379,1.75987 4.93461,12.63705 -0.55924,7.24598z" data-paper-data="{&quot;origRot&quot;:0,&quot;index&quot;:null}" fill="url(#color-6)" stroke="#000000" stroke-width="2"/><path d="M247.39809,180.59424c-1.29112,-4.07161 -1.15309,-7.74797 0.30827,-8.21138c1.46138,-0.4634 3.6927,2.46164 4.98382,6.53323c1.29112,4.07161 1.1531,7.74797 -0.30827,8.21138c-1.46138,0.4634 -3.69271,-2.46164 -4.98383,-6.53323z" fill="#ffffff" stroke="#000000" stroke-width="2"/><path d="M234.9029,179.9418c0.03552,-0.37187 0.36579,-0.64455 0.73766,-0.60904c0.37187,0.03552 0.64455,0.36579 0.60904,0.73766c-0.03552,0.37187 -0.36579,0.64455 -0.73766,0.60904c-0.37187,-0.03552 -0.64455,-0.36579 -0.60904,-0.73766z" fill="#000000" stroke="none" stroke-width="0.5"/><path d="M230.68282,177.7221l0.28651,-1.70456l0.81058,-0.63646l3.29197,0.20885l1.37052,-0.5887l-0.15387,0.66808l1.39401,0.1008l-0.08316,2.6999l-3.85826,0.15561z" fill="#5a390a" stroke="#000000" stroke-width="1"/><path d="M267.97122,181.79333v15.64249h-18.91108z" data-paper-data="{&quot;origPos&quot;:null,&quot;origRot&quot;:0}" fill="#cdcdcd" stroke="none" stroke-width="0"/><path d="M210.24292,195.39618c0,-7.03483 0,-24.60261 0,-28.875c0,-1.82619 1.24126,-3.66973 2.85773,-3.66973c5.28449,0 41.62396,0 52.625,0c1.98825,0 3.14884,1.77216 3.14884,3.54473c0,4.20683 0,21.72647 0,28.875c0,1.89192 -1.11237,3.05741 -3.02384,3.05741c-10.61415,0 -45.86807,0 -52.125,0c-1.85553,0 -3.48273,-1.11453 -3.48273,-2.93241z" data-paper-data="{&quot;origPos&quot;:null}" fill="none" stroke="#cdcdcd" stroke-width="2"/><g fill="#ffffff" font-family="Sans Serif" font-weight="normal" font-size="40" text-anchor="start"><text transform="translate(247.69646,195.74549) scale(0.27944,0.27944)" font-size="40" xml:space="preserve" fill="#ffffff" fill-rule="nonzero" stroke="#000000" stroke-width="6" stroke-linecap="butt" stroke-linejoin="miter" stroke-miterlimit="10" stroke-dasharray="" stroke-dashoffset="0" font-family="Sans Serif" font-weight="normal" text-anchor="start" style="mix-blend-mode: normal"><tspan x="0" dy="0">400</tspan></text><text transform="translate(247.69646,195.74549) scale(0.27944,0.27944)" font-size="40" xml:space="preserve" fill="#ffffff" fill-rule="nonzero" stroke="none" stroke-width="1" stroke-linecap="butt" stroke-linejoin="miter" stroke-miterlimit="10" stroke-dasharray="" stroke-dashoffset="0" font-family="Sans Serif" font-weight="normal" text-anchor="start" style="mix-blend-mode: normal"><tspan x="0" dy="0">400</tspan></text></g></g></g></svg>