<svg version="1.1" xmlns="http://www.w3.org/2000/svg" xmlns:xlink="http://www.w3.org/1999/xlink" width="87.74854" height="74.71866" viewBox="0,0,87.74854,74.71866"><defs><linearGradient x1="198.8067" y1="191.52872" x2="240.65014" y2="193.56957" gradientUnits="userSpaceOnUse" id="color-1"><stop offset="0" stop-color="#6fe640"/><stop offset="1" stop-color="#dfffd2"/></linearGradient><linearGradient x1="199.12374" y1="193.19158" x2="208.11788" y2="193.63025" gradientUnits="userSpaceOnUse" id="color-2"><stop offset="0" stop-color="#389920"/><stop offset="1" stop-color="#48c42a"/></linearGradient><linearGradient x1="201.73492" y1="191.88313" x2="206.131" y2="192.09755" gradientUnits="userSpaceOnUse" id="color-3"><stop offset="0" stop-color="#3faa24"/><stop offset="1" stop-color="#50ca3f"/></linearGradient><linearGradient x1="284.89221" y1="177.07346" x2="216.51621" y2="190.36041" gradientUnits="userSpaceOnUse" id="color-4"><stop offset="0" stop-color="#6fe640"/><stop offset="1" stop-color="#dfffd2"/></linearGradient><linearGradient x1="284.77619" y1="180.00578" x2="270.07894" y2="182.86178" gradientUnits="userSpaceOnUse" id="color-5"><stop offset="0" stop-color="#389920"/><stop offset="1" stop-color="#48c42a"/></linearGradient><linearGradient x1="280.15887" y1="178.36696" x2="272.97526" y2="179.7629" gradientUnits="userSpaceOnUse" id="color-6"><stop offset="0" stop-color="#3faa24"/><stop offset="1" stop-color="#50ca3f"/></linearGradient><linearGradient x1="235.60261" y1="140.08141" x2="235.60261" y2="173.41396" gradientUnits="userSpaceOnUse" id="color-7"><stop offset="0" stop-color="#26a200"/><stop offset="1" stop-color="#a3b196"/></linearGradient><linearGradient x1="235.33129" y1="134.77059" x2="235.33129" y2="168.10315" gradientUnits="userSpaceOnUse" id="color-8"><stop offset="0" stop-color="#34e000"/><stop offset="1" stop-color="#c9dab9"/></linearGradient><radialGradient cx="240.90018" cy="182.74735" r="22.28066" gradientUnits="userSpaceOnUse" id="color-9"><stop offset="0" stop-color="#e5ffd9"/><stop offset="1" stop-color="#d7ffca"/></radialGradient><linearGradient x1="220.12324" y1="183.85036" x2="257.8212" y2="183.85036" gradientUnits="userSpaceOnUse" id="color-10"><stop offset="0" stop-color="#b1e49c" stop-opacity="0"/><stop offset="1" stop-color="#b1e49c"/></linearGradient><linearGradient x1="235.02144" y1="133.92833" x2="235.02144" y2="160.93211" gradientUnits="userSpaceOnUse" id="color-11"><stop offset="0" stop-color="#3dff00"/><stop offset="1" stop-color="#ebffd8"/></linearGradient></defs><g transform="translate(-198.22235,-131.741)"><g data-paper-data="{&quot;isPaintingLayer&quot;:true}" fill-rule="nonzero" stroke-linejoin="miter" stroke-miterlimit="10" stroke-dasharray="" stroke-dashoffset="0" style="mix-blend-mode: normal"><path d="M204.34543,198.37359c-7.19246,-3.25309 -5.43325,-6.01799 -5.43325,-6.01799c0,0 0.58572,-2.63726 1.2048,-4.23461c0.42916,-1.1073 0.97268,-1.61968 1.50307,-2.68599c0.23959,-0.48166 1.36605,0.12394 1.36605,0.12394c0,0 -1.13623,-0.42534 -0.92535,-0.8696c0.48248,-1.01646 1.28369,-2.44265 2.07841,-3.25967c3.7623,-3.8678 2.80785,-0.45379 3.97291,0.23316c0.56124,0.33093 1.77102,-0.28217 2.32008,0.06703c1.38302,0.87963 2.48091,4.93377 2.48091,4.93377l-4.31771,8.48668c0,0 0.54119,1.21404 1.62341,1.53924c4.83117,2.82906 8.09905,4.17049 13.57459,5.24025c5.30249,1.03596 13.68759,1.61758 13.68759,1.61758l2.52096,2.21028c0,0 -14.52795,-1.84488 -24.00084,-3.87274c-5.0069,-1.07183 -5.69287,-0.81445 -11.65562,-3.51133z" data-paper-data="{&quot;origPos&quot;:null,&quot;origRot&quot;:0}" fill="url(#color-1)" stroke="#244b00" stroke-width="1" stroke-linecap="butt"/><path d="M208.13122,193.37935c-0.1818,3.41806 -0.54669,5.17214 -3.27385,5.03912c-2.72715,-0.13301 -5.88431,-2.39428 -5.7025,-5.81234c0.1818,-3.41806 1.91305,-4.26698 4.64021,-4.13397l2.92409,3.54141c0,0 1.59385,-2.05229 1.41205,1.36577z" data-paper-data="{&quot;origPos&quot;:null,&quot;origRot&quot;:0}" fill="url(#color-2)" stroke="#244b00" stroke-width="1" stroke-linecap="butt"/><path d="M201.68895,192.7473l2.13069,-3.93382l2.31592,3.19847l-2.08928,3.15524z" data-paper-data="{&quot;origPos&quot;:null,&quot;origRot&quot;:0}" fill="url(#color-3)" stroke="#244b00" stroke-width="0.5" stroke-linecap="butt"/><path d="M204.50997,194.35379c-0.04758,0.89448 -0.88471,1.48599 -0.92432,1.48406c-0.9357,-0.04564 -1.31076,-0.88269 -1.71893,-1.69026c-0.36576,-0.72361 -0.55064,-1.66541 0.28778,-1.62452c0.98312,0.04795 2.41082,0.79017 2.35548,1.83072z" data-paper-data="{&quot;origPos&quot;:null,&quot;origRot&quot;:0}" fill="#244b00" stroke="#244b00" stroke-width="0" stroke-linecap="butt"/><path d="M202.21257,185.5388c0,0 2.56838,-0.92343 3.5124,-0.70966c1.69512,0.38386 2.7776,2.54565 2.7776,2.54565" data-paper-data="{&quot;origPos&quot;:null,&quot;origRot&quot;:0}" fill="none" stroke="#244b00" stroke-width="1" stroke-linecap="round"/><path d="M264.85651,199.72385c-15.09745,5.69949 -20.81031,5.13412 -20.81031,5.13412l1.38305,-2.37261c0,0 7.35356,-0.05625 15.82861,-3.07614c8.75163,-3.11843 8.40617,-13.82306 8.40617,-13.82306l-9.17812,-13.57838c0,0 0.81771,-7.22511 2.87947,-9.06029c0.81851,-0.72855 2.95941,0.04256 3.80246,-0.65743c1.75005,-1.45307 -0.65417,-7.09823 6.48249,-1.32927c1.5075,1.2186 3.17434,3.48279 4.21658,5.11719c0.45554,0.71435 -1.3109,1.71098 -1.3109,1.71098c0,0 1.70635,-1.30422 2.21826,-0.5323c1.13326,1.70889 2.15294,2.46258 3.12956,4.26557c1.40884,2.60094 3.01655,6.99715 3.01655,6.99715c0,0 3.57044,4.34135 -7.4744,11.61388c0.41218,-3.25496 -4.60975,6.57812 -12.58949,9.59058z" data-paper-data="{&quot;origPos&quot;:null,&quot;origRot&quot;:0,&quot;index&quot;:null}" fill="url(#color-4)" stroke="#244b00" stroke-width="1" stroke-linecap="butt"/><path d="M271.98665,179.75604l3.94875,-6.77057c4.45643,-0.86599 7.51323,0.18857 8.64666,6.02128c1.13343,5.8327 -3.51135,10.45734 -7.96778,11.32332c-4.45643,0.86599 -5.48511,-2.06374 -6.61854,-7.89645c-1.13343,-5.8327 1.9909,-2.67758 1.9909,-2.67758z" data-paper-data="{&quot;origPos&quot;:null,&quot;index&quot;:null,&quot;origRot&quot;:0}" fill="url(#color-5)" stroke="#244b00" stroke-width="1" stroke-linecap="butt"/><path d="M277.15585,184.552l-4.20897,-4.93514l3.0314,-6.03898l4.46715,6.26375z" data-paper-data="{&quot;origPos&quot;:null,&quot;origRot&quot;:0,&quot;index&quot;:null}" fill="url(#color-6)" stroke="#244b00" stroke-width="0.5" stroke-linecap="butt"/><path d="M279.62442,179.565c1.37007,-0.26623 1.29557,1.39579 0.87015,2.72507c-0.47478,1.4835 -0.88785,3.00993 -2.41686,3.30705c-0.06472,0.01258 -1.587,-0.80851 -1.88361,-2.33489c-0.34504,-1.77561 1.82382,-3.38506 3.43032,-3.69723z" data-paper-data="{&quot;origPos&quot;:null,&quot;index&quot;:null,&quot;origRot&quot;:0}" fill="#244b00" stroke="#244b00" stroke-width="0" stroke-linecap="butt"/><path d="M267.91907,172.19939c0,0 1.25417,-3.96882 3.95066,-5.02479c1.50168,-0.58806 5.95459,0.39894 5.95459,0.39894" data-paper-data="{&quot;origPos&quot;:null,&quot;index&quot;:null,&quot;origRot&quot;:0}" fill="none" stroke="#244b00" stroke-width="1" stroke-linecap="round"/><path d="M248.96404,170.92989l-18.53952,1.13185c0,0 -11.14741,-3.12142 -13.82453,-5.15359c-2.92776,-2.22242 -0.80425,-3.71532 -3.98836,-5.55175c-1.93319,-1.11497 -3.0664,0.28856 -4.74168,-1.1858c-1.60225,-1.41009 -2.53322,-3.52192 1.00382,-5.62516c2.25761,-1.34245 4.69783,-1.61305 4.69783,-1.61305c0,0 -6.28279,-4.19499 0.72022,-5.14291c1.69818,-0.22987 9.05571,2.26905 9.05571,2.26905c0,0 -9.6532,-2.64948 -7.09983,-4.66466c3.21695,-2.53888 2.56492,-1.70445 6.3298,-1.07793c4.04253,0.67272 8.38121,3.01385 8.38121,3.01385c0,0 -4.1634,-2.36166 -7.05849,-4.44479c1.51131,-1.27537 3.90297,-2.23364 5.85733,-1.93185c3.2466,0.50135 7.31114,4.32625 7.31114,4.32625c0,0 -10.19625,-6.30686 -7.31947,-6.97218c0.63232,-0.14624 5.11926,0.32062 7.11544,1.22792c1.99618,0.90731 6.33146,6.78851 6.33146,6.78851c0,0 -2.35656,-1.86715 -4.03638,-4.00046c-3.26224,-4.14293 2.33501,-2.05776 5.51998,-0.68054c2.91668,1.26121 5.88075,7.3152 5.88075,7.3152l-3.39144,-5.73428c0,0 1.67284,-1.17995 2.88548,-0.37375c1.25352,0.83337 3.43375,4.57493 3.43375,4.57493l0.66936,7.65604c0,0 6.05101,-0.44193 6.05101,4.0545c0,3.83644 -3.30884,5.85062 -5.56244,7.26438c-2.39264,1.50098 -5.68211,4.53022 -5.68211,4.53022z" data-paper-data="{&quot;origPos&quot;:null}" fill="url(#color-7)" stroke="#244b00" stroke-width="1.5" stroke-linecap="butt"/><path d="M248.69271,165.61907l-18.53952,1.13184c0,0 -4.37399,-4.14699 -8.14183,-5.50509c-2.30605,-0.83121 -5.28093,-0.49143 -7.38601,-1.74737c-1.06778,-0.63706 -1.43704,-2.6026 -2.51412,-3.22379c-1.93319,-1.11497 -2.83733,0.05949 -4.51262,-1.41488c-1.60225,-1.41009 -2.53322,-3.52192 1.00382,-5.62516c2.25761,-1.34245 4.69783,-1.61305 4.69783,-1.61305c0,0 -6.28279,-4.19499 0.72022,-5.14291c1.69818,-0.22987 9.05571,2.26905 9.05571,2.26905c0,0 -9.6532,-2.64948 -7.09983,-4.66466c3.21695,-2.53888 2.56492,-1.70445 6.3298,-1.07793c4.04253,0.67272 8.38121,3.01385 8.38121,3.01385c0,0 -4.1634,-2.36165 -7.05849,-4.44479c1.51131,-1.27537 3.90297,-2.23364 5.85733,-1.93185c3.2466,0.50135 7.31113,4.32625 7.31113,4.32625c0,0 -10.19625,-6.30686 -7.31947,-6.97219c0.63232,-0.14624 5.11926,0.32062 7.11544,1.22792c1.99618,0.90731 6.33146,6.78851 6.33146,6.78851c0,0 -2.35656,-1.86715 -4.03638,-4.00046c-3.26224,-4.14293 2.33501,-2.05776 5.51998,-0.68053c2.91668,1.26121 5.88075,7.3152 5.88075,7.3152l-3.39145,-5.73429c0,0 1.67284,-1.17995 2.88548,-0.37374c1.25352,0.83337 6.64071,5.49119 6.64071,5.49119c0,0 -1.43652,4.95496 1.96665,5.08076c2.6555,0.09817 3.9504,6.3551 2.43998,8.5414c-1.2213,1.7678 -5.83169,-1.59565 -7.33474,-0.06023c-3.27918,3.34977 -4.80302,9.02694 -4.80302,9.02694z" data-paper-data="{&quot;origPos&quot;:null}" fill="url(#color-8)" stroke="#244b00" stroke-width="1.5" stroke-linecap="butt"/><path d="M245.10502,157.20283c0,0 13.37523,22.26591 12.70938,32.92245c-0.51649,8.26623 -9.01358,15.15891 -16.69204,15.15891c-9.41887,0 -19.31075,-6.59417 -20.3479,-16.69526c-0.83725,-8.15425 10.41067,-30.46915 10.41067,-30.46915z" data-paper-data="{&quot;origPos&quot;:null}" fill="url(#color-9)" stroke="#244b00" stroke-width="2" stroke-linecap="butt"/><path d="M229.16097,202.12289c-10.76787,-4.55752 -8.91651,-13.28594 -8.91651,-13.28594c0,0 0.47337,0.52498 10.42366,6.94451c9.95029,6.41953 19.25992,0.59666 22.29559,-4.8215c1.89341,-3.37939 1.72325,-6.08004 0.97159,-9.94478c-1.46135,-7.51367 -6.5167,-18.75013 -6.5167,-18.75013c0,0 9.81937,16.45504 10.4026,26.80096c0,0 -0.44326,4.20581 -1.82479,6.82602c-2.16661,4.10921 -4.58826,6.60929 -8.8017,7.90627c-6.55363,2.01733 -7.26587,2.88212 -18.03374,-1.6754z" data-paper-data="{&quot;origPos&quot;:null}" fill="url(#color-10)" stroke="#244b00" stroke-width="0" stroke-linecap="butt"/><path d="M245.84596,158.91968l-15.01947,0.91695c0,0 -9.03089,-2.52877 -11.19971,-4.1751c-2.37187,-1.80046 -0.65156,-3.0099 -3.23109,-4.49765c-1.56614,-0.90327 -2.48419,0.23377 -3.8414,-0.96067c-1.04385,-0.91865 -1.56893,-1.95045 -0.81962,-3.12181c0.46118,-0.72094 0.89725,-0.9979 1.63285,-1.43531c1.82896,-1.08756 3.80586,-1.30678 3.80586,-1.30678c0,0 -5.08988,-3.39849 0.58347,-4.16644c1.37576,-0.18622 7.33632,1.83823 7.33632,1.83823c0,0 -7.82038,-2.14644 -5.75181,-3.77899c2.60615,-2.05684 2.07793,-1.38083 5.12798,-0.87327c3.275,0.54499 6.78989,2.44162 6.78989,2.44162c0,0 -3.37291,-1.91325 -5.71831,-3.60086c1.22436,-1.03321 3.16192,-1.80955 4.74522,-1.56505c2.63017,0.40616 5.92299,3.50484 5.92299,3.50484c0,0 -6.1987,-5.10939 -3.86813,-5.64839c2.33057,-0.539 2.08566,0.25975 3.70283,0.99478c1.61717,0.73503 5.12932,5.4996 5.12932,5.4996c0,0 -1.90913,-1.51264 -3.27,-3.2409c-2.64284,-3.35632 1.89167,-1.66706 4.47192,-0.55133c2.36291,1.02175 4.76419,5.92629 4.76419,5.92629l-2.74752,-4.64554c0,0 1.35522,-0.95591 2.33762,-0.30278c1.01551,0.67514 2.78179,3.7063 2.78179,3.7063c0,0 1.61985,-1.92425 4.37688,-1.82233c3.05627,0.11298 1.80981,2.57033 1.80981,6.67003c0,4.09969 -3.4178,5.61081 -4.66176,6.88156c-2.65656,2.71376 -5.19011,7.31301 -5.19011,7.31301z" data-paper-data="{&quot;origPos&quot;:null}" fill="url(#color-11)" stroke="#244b00" stroke-width="1.5" stroke-linecap="butt"/><path d="M249.96726,176.05313c0.12776,2.97026 -1.30562,5.44423 -3.20153,5.52578c-1.89591,0.08154 -3.53641,-2.26022 -3.66417,-5.23048c-0.12776,-2.97026 1.30562,-5.44423 3.20153,-5.52578c1.89591,-0.08154 3.53641,2.26022 3.66417,5.23048z" data-paper-data="{&quot;origRot&quot;:0,&quot;origPos&quot;:null}" fill="#ffffff" stroke="#244b00" stroke-width="0.5" stroke-linecap="butt"/><path d="M241.43533,175.6391c0,0 -2.3711,3.69447 -4.52178,3.82c-2.14703,0.12531 -4.39626,-4.44762 -4.39626,-4.44762z" data-paper-data="{&quot;origPos&quot;:null}" fill="#ffffff" stroke="#244b00" stroke-width="0.5" stroke-linecap="butt"/><path d="M248.38894,169.81985c-1.53305,-0.64413 -3.53713,1.50149 -4.5095,2.85043c-0.9229,1.2803 -0.88076,2.58458 -0.88076,2.58458l-11.81183,-0.54304" data-paper-data="{&quot;origPos&quot;:null}" fill="none" stroke="#244b00" stroke-width="1" stroke-linecap="round"/><path d="M239.15102,176.37548c0,0.55461 -0.4496,1.0042 -1.0042,1.0042c-0.55461,0 -1.0042,-0.4496 -1.0042,-1.0042c0,-0.55461 0.4496,-1.0042 1.0042,-1.0042c0.55461,0 1.0042,0.4496 1.0042,1.0042z" data-paper-data="{&quot;origPos&quot;:null}" fill="#000000" stroke="none" stroke-width="0" stroke-linecap="butt"/><path d="M247.20777,175.89654c0,0.8319 -0.4496,1.5063 -1.0042,1.5063c-0.55461,0 -1.0042,-0.6744 -1.0042,-1.5063c0,-0.8319 0.4496,-1.50629 1.0042,-1.50629c0.55461,0 1.0042,0.67439 1.0042,1.50629z" data-paper-data="{&quot;origPos&quot;:null}" fill="#000000" stroke="none" stroke-width="0" stroke-linecap="butt"/><path d="M240.47221,187.95849c0,0 0.25104,-1.12662 0.25104,-2.0084c0,-0.97975 -0.25104,-2.38498 -0.25104,-2.38498l2.76154,0.12552c0,0 0.43388,1.22744 0.55091,2.09341c0.12792,0.94658 -0.17433,2.04892 -0.17433,2.04892z" data-paper-data="{&quot;origPos&quot;:null}" fill="#ffffff" stroke="#244b00" stroke-width="0.5" stroke-linecap="butt"/><path d="M233.94492,186.57772c0,0 3.81152,-2.6371 6.2511,-3.03951c2.31224,-0.3814 5.92482,1.03111 5.92482,1.03111" data-paper-data="{&quot;origPos&quot;:null}" fill="none" stroke="#244b00" stroke-width="1" stroke-linecap="round"/></g></g></svg>