<svg version="1.1" xmlns="http://www.w3.org/2000/svg" xmlns:xlink="http://www.w3.org/1999/xlink" width="81.47099" height="71.36935" viewBox="0,0,81.47099,71.36935"><defs><radialGradient cx="244.17235" cy="195.98306" r="9.52076" gradientUnits="userSpaceOnUse" id="color-1"><stop offset="0" stop-color="#a26e2a"/><stop offset="1" stop-color="#472b00"/></radialGradient><linearGradient x1="233.5451" y1="193.81833" x2="260.29794" y2="193.81833" gradientUnits="userSpaceOnUse" id="color-2"><stop offset="0" stop-color="#24b400"/><stop offset="1" stop-color="#217700"/></linearGradient><radialGradient cx="211.63946" cy="160.08793" r="34.81049" gradientUnits="userSpaceOnUse" id="color-3"><stop offset="0" stop-color="#ffb554"/><stop offset="1" stop-color="#885200"/></radialGradient><radialGradient cx="220.99176" cy="197.22825" r="10.56812" gradientUnits="userSpaceOnUse" id="color-4"><stop offset="0" stop-color="#c08231"/><stop offset="1" stop-color="#5e3800"/></radialGradient><linearGradient x1="209.19542" y1="194.82538" x2="238.89131" y2="194.82538" gradientUnits="userSpaceOnUse" id="color-5"><stop offset="0" stop-color="#2fe500"/><stop offset="1" stop-color="#16bb00"/></linearGradient></defs><g transform="translate(-182.36475,-137.42702)"><g data-paper-data="{&quot;isPaintingLayer&quot;:true}" fill-rule="nonzero" stroke-linecap="butt" stroke-linejoin="miter" stroke-miterlimit="10" stroke-dasharray="" stroke-dashoffset="0" style="mix-blend-mode: normal"><path d="M209.69497,159.83212c0,0 -1.68601,-10.87042 -8.13992,-13.87695c-3.96623,-1.84766 -6.82867,1.02293 -11.63794,-0.33063c-4.70386,-1.32388 -6.52578,-7.3873 -6.52578,-7.3873l3.49738,0.20096c0,0 1.86293,3.19167 4.60454,4.78559c3.00981,1.74984 8.65894,-2.21363 12.39566,0.45454c5.15131,3.67825 7.678,13.17159 7.678,13.17159z" fill="#c29557" stroke="#000000" stroke-width="1.5"/><path d="M234.65158,195.98306c0,-5.25817 4.2626,-9.52076 9.52076,-9.52076c5.25817,0 9.52076,4.26259 9.52076,9.52076c0,5.25817 -4.26259,9.52076 -9.52076,9.52076c-5.25817,0 -9.52076,-4.26259 -9.52076,-9.52076z" fill="url(#color-1)" stroke="#000000" stroke-width="2"/><path d="M260.29794,203.67284c0,0 -0.89912,1.57559 -9.4934,-6.85792c-1.67395,-1.64263 -3.60597,-10.06991 -5.61281,-9.93444c-12.13454,0.81916 -12.26272,13.33016 -11.26991,11.21281c0.51029,-1.0883 -1.58815,-7.26194 2.24057,-11.0842c3.62025,-3.61415 11.93857,-4.13836 15.517,-1.52937c3.77601,2.75306 2.15722,6.77979 4.13259,12.56337c1.09191,3.19695 4.48595,5.62975 4.48595,5.62975z" data-paper-data="{&quot;origRot&quot;:0,&quot;index&quot;:null}" fill="url(#color-2)" stroke="#000000" stroke-width="2"/><path d="M262.51986,182.62702c0,0 -16.29508,13.73303 -35.69565,14.89688c-9.48523,0.56902 -17.23231,1.91904 -22.24149,-1.77608c-5.23633,-3.86266 -8.05096,-9.77665 -8.49388,-17.15974c-0.23371,-3.89595 0.37095,-12.40094 3.291,-17.73289c2.69866,-4.92766 7.72199,-6.85068 7.72199,-6.85068l-2.20298,3.88888l12.18503,-6.67145l1.76112,2.07518c0,0 4.77591,-0.02817 5.69199,-0.08312c10.2788,-0.52213 21.61168,3.77611 21.61168,3.77611l9.06291,-0.78378c0,0 4.51746,5.03758 6.24043,11.76651c2.26432,8.84324 1.06788,14.65417 1.06788,14.65417z" fill="url(#color-3)" stroke="#000000" stroke-width="2"/><path d="M224.28349,168.92304c0.4974,-3.02019 3.34898,-5.06532 6.36915,-4.56792c3.02019,0.4974 5.06532,3.34898 4.56792,6.36915c-0.4974,3.02019 -3.34898,5.06532 -6.36915,4.56792c-3.02019,-0.4974 -5.06532,-3.34898 -4.56792,-6.36915z" fill="#ffffff" stroke="#000000" stroke-width="1"/><path d="M210.42364,197.22825c0,-5.83662 4.73151,-10.56812 10.56813,-10.56812c5.83662,0 10.56812,4.7315 10.56812,10.56812c0,5.83662 -4.7315,10.56812 -10.56812,10.56812c-5.83662,0 -10.56813,-4.73151 -10.56813,-10.56812z" fill="url(#color-4)" stroke="#000000" stroke-width="2"/><path d="M218.22055,192.01108c0,-0.71781 0.58189,-1.29969 1.29969,-1.29969c0.71781,0 1.29969,0.58189 1.29969,1.29969c0,0.71781 -0.58189,1.29969 -1.29969,1.29969c-0.71781,0 -1.29969,-0.58189 -1.29969,-1.29969z" fill="#000000" stroke="none" stroke-width="0.5"/><path d="M223.5791,193.88391c0,-0.86136 0.69827,-1.55963 1.55963,-1.55963c0.86136,0 1.55963,0.69827 1.55963,1.55963c0,0.86136 -0.69827,1.55963 -1.55963,1.55963c-0.86136,0 -1.55963,-0.69827 -1.55963,-1.55963z" fill="#000000" stroke="none" stroke-width="0.5"/><path d="M218.77086,196.55937c0,-1.00492 0.81465,-1.81957 1.81957,-1.81957c1.00492,0 1.81957,0.81465 1.81957,1.81957c0,1.00492 -0.81465,1.81957 -1.81957,1.81957c-1.00492,0 -1.81957,-0.81465 -1.81957,-1.81957z" fill="#000000" stroke="none" stroke-width="0.5"/><path d="M238.89131,205.76397c0,0 -0.99802,1.74892 -10.53774,-7.61233c-1.8581,-1.82334 -4.00264,-11.17769 -6.23027,-11.02731c-13.46944,0.90928 -13.61171,14.79658 -12.50969,12.4463c0.56643,-1.20802 -1.76287,-8.06081 2.48704,-12.30356c4.01852,-4.01173 13.25191,-4.59361 17.224,-1.6976c4.1914,3.0559 2.39454,7.52561 4.58721,13.94543c1.21202,3.54863 4.97944,6.24906 4.97944,6.24906z" data-paper-data="{&quot;origRot&quot;:0,&quot;index&quot;:null}" fill="url(#color-5)" stroke="#000000" stroke-width="2"/><path d="M252.39664,171.78647c-1.75632,-7.2061 -1.08339,-13.55882 1.503,-14.18918c2.5864,-0.63037 6.10684,4.70033 7.86316,11.90641c1.75632,7.2061 1.08339,13.55882 -1.503,14.18918c-2.5864,0.63037 -6.10685,-4.70033 -7.86316,-11.90641z" fill="#ffffff" stroke="#000000" stroke-width="2"/><path d="M230.82668,169.18173c0.10541,-0.64006 0.70975,-1.07348 1.34981,-0.96807c0.64006,0.10541 1.07348,0.70975 0.96807,1.34981c-0.10541,0.64006 -0.70975,1.07348 -1.34981,0.96807c-0.64006,-0.10541 -1.07348,-0.70975 -0.96807,-1.34981z" fill="#000000" stroke="none" stroke-width="0.5"/><path d="M223.77764,164.83831l0.69749,-2.91921l1.47937,-1.00697l5.67843,0.75027l2.4438,-0.85815l-0.34541,1.13924l2.40313,0.33911l-0.46266,4.66756l-6.70249,-0.18569z" fill="#5a390a" stroke="#000000" stroke-width="1"/></g></g></svg>