<svg version="1.1" xmlns="http://www.w3.org/2000/svg" xmlns:xlink="http://www.w3.org/1999/xlink" width="64.16667" height="41.28363" viewBox="0,0,64.16667,41.28363"><g transform="translate(-207.86779,-160.34165)"><g data-paper-data="{&quot;isPaintingLayer&quot;:true}" fill="none" fill-rule="nonzero" stroke="#ffe400" stroke-width="4" stroke-linecap="round" stroke-linejoin="miter" stroke-miterlimit="10" stroke-dasharray="" stroke-dashoffset="0" style="mix-blend-mode: normal"><path d="M210.03446,174.45861c0,0 0.19356,-6.06436 0.264,-8.27099c0.04699,-1.47224 1.58476,-3.70534 2.84393,-3.72264c2.18657,-0.03004 9.2254,-0.12332 9.2254,-0.12332" data-paper-data="{&quot;origPos&quot;:null}"/><path d="M257.53445,162.67499c0,0 6.92186,0.09511 9.09923,0.12502c1.21913,0.01675 2.90474,1.67307 2.94366,2.89244c0.0695,2.17757 0.29044,9.0995 0.29044,9.0995" data-paper-data="{&quot;origPos&quot;:null,&quot;index&quot;:null}"/><path d="M270.03446,187.00832c0,0 -0.22364,7.0067 -0.29293,9.17748c-0.0381,1.19373 -1.83341,2.79923 -3.1055,2.81671c-2.18918,0.03008 -8.93491,0.12277 -8.93491,0.12277" data-paper-data="{&quot;origPos&quot;:null,&quot;index&quot;:null}"/><path d="M222.20112,199.62528c0,0 -6.87755,-0.0945 -9.05818,-0.12446c-1.23249,-0.01693 -2.94421,-1.62396 -2.98235,-2.81901c-0.0693,-2.17115 -0.2928,-9.17349 -0.2928,-9.17349" data-paper-data="{&quot;origPos&quot;:null,&quot;index&quot;:null}"/></g></g></svg>