<svg version="1.1" xmlns="http://www.w3.org/2000/svg" xmlns:xlink="http://www.w3.org/1999/xlink" width="227.5308" height="263.78318" viewBox="0,0,227.5308,263.78318"><defs><linearGradient x1="240" y1="161.8125" x2="240" y2="370.8125" gradientUnits="userSpaceOnUse" id="color-1"><stop offset="0" stop-color="#51320d"/><stop offset="1" stop-color="#b7710a"/></linearGradient><linearGradient x1="236" y1="153.55324" x2="236" y2="208.44677" gradientUnits="userSpaceOnUse" id="color-2"><stop offset="0" stop-color="#b1d930"/><stop offset="1" stop-color="#7bd930"/></linearGradient><linearGradient x1="246.06168" y1="175.51756" x2="246.06168" y2="201.94676" gradientUnits="userSpaceOnUse" id="color-3"><stop offset="0" stop-color="#1eb600"/><stop offset="1" stop-color="#24d800"/></linearGradient><linearGradient x1="205" y1="278.8125" x2="294" y2="278.8125" gradientUnits="userSpaceOnUse" id="color-4"><stop offset="0" stop-color="#000000"/><stop offset="1" stop-color="#000000" stop-opacity="0"/></linearGradient><radialGradient cx="205.59787" cy="271.14616" r="14.267" gradientUnits="userSpaceOnUse" id="color-5"><stop offset="0" stop-color="#a0d1ff"/><stop offset="1" stop-color="#58a7f0"/></radialGradient><linearGradient x1="206.80283" y1="278.02245" x2="206.80283" y2="289.69561" gradientUnits="userSpaceOnUse" id="color-6"><stop offset="0" stop-color="#a8cdf0"/><stop offset="1" stop-color="#f0f0f0"/></linearGradient></defs><g transform="translate(-123.28578,-79.79181)"><g data-paper-data="{&quot;isPaintingLayer&quot;:true}" fill-rule="nonzero" stroke-linecap="butt" stroke-linejoin="miter" stroke-miterlimit="10" stroke-dasharray="" stroke-dashoffset="0" style="mix-blend-mode: normal"><path d="M131,161.8125l50.62173,45.00358l163.37827,-4.00358l-23.06156,18.70764l-8.03172,17.10757l-9.83481,9.54978l-24.65854,23.8347l-13.50696,25.54743l-16.22418,19.06413l-11.63305,22.18874l-10.54591,-26.1953l-12.55319,-16.76887l-12.02103,-10.88197l-8.46185,-16.38243l-5.72233,-12.60787l-20.07984,-27.83757l-12.31472,-21.68552z" data-paper-data="{&quot;origPos&quot;:null}" fill="url(#color-1)" stroke="#000000" stroke-width="4"/><path d="M164.55667,199.92768c-14.11045,-15.0307 -28.67909,-30.54946 -36.15627,-38.51428c-2.4924,-2.65494 -1.69076,-6.83365 1.31472,-6.8533c60.11238,-0.39289 146.30211,-0.95622 154.03048,-1.00673c2.57612,-0.01683 8.59571,1.70223 9.87243,2.81936c3.83015,3.35138 30.15816,26.38839 49.46092,43.27831c3.46537,3.03221 1.97302,7.81202 -1.02194,7.8304c0,0 -143.16259,0.87829 -157.33135,0.96522c-4.72292,0.02898 -17.0207,-5.16536 -20.16899,-8.51897z" data-paper-data="{&quot;origPos&quot;:null}" fill="url(#color-2)" stroke="#000000" stroke-width="4"/><path d="M163,156.09299l0.25788,-54.19302l22.74212,11.01823l95,-2l-3,59.1748c0,0 -88.26325,1.81986 -92.97531,1.91702c-1.57068,0.03239 -22.02469,-15.91702 -22.02469,-15.91702z" data-paper-data="{&quot;origPos&quot;:null}" fill="#fffe86" stroke="#000000" stroke-width="4"/><path d="M211.66436,197.84513c-6.79366,-7.23673 -13.80792,-14.70843 -17.40791,-18.54321c-1.19999,-1.27826 -0.81404,-3.29015 0.63299,-3.29961c28.9419,-0.18916 70.43906,-0.46038 74.15999,-0.4847c1.24031,-0.00811 4.13851,0.81956 4.75321,1.35742c1.84407,1.61356 14.52005,12.70504 23.81361,20.83691c1.66845,1.45989 0.94993,3.7612 -0.49203,3.77004c0,0 -68.9275,0.42287 -75.74924,0.46472c-2.27391,0.01395 -8.19484,-2.48693 -9.71062,-4.10156z" data-paper-data="{&quot;origPos&quot;:null}" fill="url(#color-3)" stroke="#000000" stroke-width="3"/><path d="M168,117.8125l-19,-12l23,-22l96,-2l26,34z" data-paper-data="{&quot;origPos&quot;:null}" fill="#ce1c1c" stroke="#000000" stroke-width="4"/><path d="M224,170.8125v-30l21,-0.66666v30.66666z" data-paper-data="{&quot;origPos&quot;:null}" fill="#cf951d" stroke="#000000" stroke-width="3"/><path d="M194.33333,140.47917c0,-4.97056 4.02944,-9 9,-9c4.97056,0 9,4.02944 9,9c0,4.97056 -4.02944,9 -9,9c-4.97056,0 -9,-4.02944 -9,-9z" data-paper-data="{&quot;origPos&quot;:null}" fill="#e2feff" stroke="#000000" stroke-width="2"/><path d="M253.33333,139.47917c0,-4.97056 4.02943,-9 9,-9c4.97057,0 9,4.02944 9,9c0,4.97056 -4.02943,9 -9,9c-4.97057,0 -9,-4.02944 -9,-9z" data-paper-data="{&quot;origPos&quot;:null}" fill="#e2feff" stroke="#000000" stroke-width="2"/><path d="M167.33334,135.14584v-11.33334l9,4.66666l-0.33334,11.66667z" data-paper-data="{&quot;origPos&quot;:null}" fill="#e2feff" stroke="#000000" stroke-width="1.5"/><path d="M305.97019,191.39895v-18.42779h3.86624v18.42779z" data-paper-data="{&quot;origPos&quot;:null}" fill="#c7a12e" stroke="#000000" stroke-width="1.5"/><path d="M288.20309,159.12033l0.63942,-1.00248l10.53617,6.72043l-0.63942,1.00248z" data-paper-data="{&quot;origRot&quot;:0,&quot;origPos&quot;:null}" fill="#ff9292" stroke="#000000" stroke-width="1"/><path d="M316.712,165.12876c0,1.03329 0,4.79404 0,8.47255c0,0.38576 -1.00651,1.41209 -1.44739,1.41209c-1.32261,0 -16.68684,0 -16.68684,0v-11.29673c0,0 15.3127,0 16.49174,0c0.39301,0 1.64249,1.06766 1.64249,1.41209z" data-paper-data="{&quot;origPos&quot;:null,&quot;origRot&quot;:0}" fill="#ff9292" stroke="#000000" stroke-width="1.5"/><path d="M205,289.8125v-22h89v22z" data-paper-data="{&quot;origPos&quot;:null}" fill="url(#color-4)" stroke="#000000" stroke-width="0"/><text transform="translate(240,285.8125) scale(0.5,0.5)" font-size="40" xml:space="preserve" fill="#ffffff" fill-rule="nonzero" stroke="none" stroke-width="1" stroke-linecap="butt" stroke-linejoin="miter" stroke-miterlimit="10" stroke-dasharray="" stroke-dashoffset="0" font-family="Sans Serif" font-weight="normal" text-anchor="start" style="mix-blend-mode: normal"><tspan x="0" dy="0">5</tspan></text><g stroke="#000000"><path d="M220.66965,280.6026c0,13.07506 -28.53395,13.07506 -28.53395,0c0,-8.08147 6.38755,-14.63281 14.26698,-14.63281c7.87943,0 14.26696,6.55132 14.26696,14.63281z" fill="url(#color-5)" stroke-width="2.5"/><path d="M193.37413,278.42864c2.71468,1.31356 6.99833,2.86229 12.10575,2.86229c6.42173,0 11.44806,-2.19277 14.31173,-3.83481c1.71396,-0.98279 3.48136,-0.11195 4.06342,1.05217c0.56809,1.13618 1.90842,3.59461 2.8,5.37778c0.59328,1.18656 0.07466,2.50408 -1.36488,3.13515c-3.96926,1.74005 -12.41082,5.009 -19.8103,5.009c-6.40982,0 -13.90038,-2.92195 -17.72572,-4.62701c-1.5759,-0.70242 -2.00933,-2.19529 -1.35968,-3.43979c0.74881,-1.43446 1.6693,-3.19779 2.16238,-4.14235c0.65191,-1.24883 2.81837,-2.35966 4.8173,-1.39243z" fill="url(#color-6)" stroke-width="3"/></g><g fill="#ffffff" font-family="Handwriting" font-weight="normal" font-size="40" text-anchor="start"><text transform="translate(212.66667,251.39583) scale(0.56501,0.56501)" font-size="40" xml:space="preserve" fill="#ffffff" fill-rule="nonzero" stroke="#000000" stroke-width="10" stroke-linecap="butt" stroke-linejoin="miter" stroke-miterlimit="10" stroke-dasharray="" stroke-dashoffset="0" font-family="Handwriting" font-weight="normal" text-anchor="start" style="mix-blend-mode: normal"><tspan x="0" dy="0">House</tspan></text><text transform="translate(212.66667,251.39583) scale(0.56501,0.56501)" font-size="40" xml:space="preserve" fill="#ffffff" fill-rule="nonzero" stroke="#ffffff" stroke-width="1" stroke-linecap="butt" stroke-linejoin="miter" stroke-miterlimit="10" stroke-dasharray="" stroke-dashoffset="0" font-family="Handwriting" font-weight="normal" text-anchor="start" style="mix-blend-mode: normal"><tspan x="0" dy="0">House</tspan></text></g></g></g></svg>