<svg version="1.1" xmlns="http://www.w3.org/2000/svg" xmlns:xlink="http://www.w3.org/1999/xlink" width="60.63157" height="38.15113" viewBox="0,0,60.63157,38.15113"><defs><linearGradient x1="239.79182" y1="162.95835" x2="239.79182" y2="198.95835" gradientUnits="userSpaceOnUse" id="color-1"><stop offset="0" stop-color="#70bdd4"/><stop offset="1" stop-color="#21539a"/></linearGradient><linearGradient x1="220.36265" y1="187.62095" x2="233.68132" y2="188.36668" gradientUnits="userSpaceOnUse" id="color-2"><stop offset="0" stop-color="#cfff65"/><stop offset="1" stop-color="#5eff00"/></linearGradient><linearGradient x1="237.00886" y1="176.31428" x2="237.00886" y2="198.14225" gradientUnits="userSpaceOnUse" id="color-3"><stop offset="0" stop-color="#cfff65"/><stop offset="1" stop-color="#5eff00"/></linearGradient><linearGradient x1="228.40706" y1="190.67639" x2="244.7123" y2="190.67639" gradientUnits="userSpaceOnUse" id="color-4"><stop offset="0" stop-color="#7c35ff"/><stop offset="1" stop-color="#c066ff"/></linearGradient><linearGradient x1="234.17989" y1="181.13613" x2="238.34384" y2="182.69698" gradientUnits="userSpaceOnUse" id="color-5"><stop offset="0" stop-color="#492181"/><stop offset="1" stop-color="#6b2283"/></linearGradient><linearGradient x1="238.83202" y1="183.14058" x2="241.89936" y2="181.45771" gradientUnits="userSpaceOnUse" id="color-6"><stop offset="0" stop-color="#492181"/><stop offset="1" stop-color="#6b2283"/></linearGradient><linearGradient x1="235.94069" y1="171.74254" x2="235.94069" y2="198.15358" gradientUnits="userSpaceOnUse" id="color-7"><stop offset="0" stop-color="#000000"/><stop offset="1" stop-color="#000000" stop-opacity="0"/></linearGradient><linearGradient x1="234.79117" y1="198.91768" x2="217.1513" y2="192.40532" gradientUnits="userSpaceOnUse" id="color-8"><stop offset="0" stop-color="#cfff65"/><stop offset="1" stop-color="#5eff00"/></linearGradient></defs><g transform="translate(-209.24291,-161.85145)"><g data-paper-data="{&quot;isPaintingLayer&quot;:true}" fill-rule="nonzero" stroke-linecap="butt" stroke-linejoin="miter" stroke-miterlimit="10" stroke-dasharray="" stroke-dashoffset="0" style="mix-blend-mode: normal"><path d="M210.50016,195.89618c0,-7.18645 0,-25.25324 0,-29.5c0,-1.72983 1.95533,-3.43783 4.10049,-3.43783c6.49354,0 39.77537,0 50.875,0c2.26628,0 3.60783,1.47996 3.60783,3.81283c0,7.50898 0,23.85448 0,28.125c0,1.9962 -1.8827,4.06217 -3.73283,4.06217c-5.36167,0 -31.34965,0 -31.34965,0c-3.50551,-0.20254 -7.07398,-0.45211 -10.3325,-0.0711c-0.25664,0.03001 -0.52182,0.05168 -0.79121,0.0711c0,0 -6.49221,0 -8.77664,0c-1.46318,0 -3.60049,-1.2397 -3.60049,-3.06217z" fill="url(#color-1)" stroke="none" stroke-width="0"/><path d="M233.36579,194.00149l-12.68765,-12.01535c0,0 10.12025,-2.28319 13.31865,0.74573c3.1984,3.02892 -0.631,11.26962 -0.631,11.26962z" data-paper-data="{&quot;index&quot;:null}" fill="url(#color-2)" stroke="#000000" stroke-width="1.5"/><path d="M231.1574,195.77536c0,-3.35468 0.1315,-19.46108 0.1315,-19.46108h11.43997c0,0 0,16.1064 0,19.46108c0,1.16993 -0.70204,2.36689 -1.57793,2.36689c-2.50937,0 -7.39344,0 -8.67859,0c-0.58891,0 -1.31493,-1.19696 -1.31493,-2.36689z" fill="url(#color-3)" stroke="#000000" stroke-width="1.5"/><path d="M252.96427,177.96013c0,0 -2.45566,2.35106 -10.79056,1.04361c-3.8157,-0.59855 -7.75042,-0.12377 -12.42314,-1.55254c-4.67272,-1.42877 -10.22595,-5.37286 -10.22595,-5.37286c0,0 11.61562,0.10395 19.95053,1.41139c8.3349,1.30744 13.48911,4.4704 13.48911,4.4704z" data-paper-data="{&quot;index&quot;:null}" fill="#3f3f3f" stroke="#000000" stroke-width="1.5"/><path d="M232.73487,175.48685l1.20315,-6.04739c0,0 3.66556,-0.69769 5.28751,-0.44327c1.72537,0.27065 4.77362,2.02148 4.77362,2.02148l-0.83052,6.10583c0,0 -3.32054,-0.0118 -5.41902,-0.34097c-2.09848,-0.32917 -5.01474,-1.29569 -5.01474,-1.29569z" data-paper-data="{&quot;index&quot;:null}" fill="#3f3f3f" stroke="#000000" stroke-width="1.5"/><path d="M229.06455,186.53433c0,0 6.94365,0.9445 9.44946,0.61821c4.14794,-0.54013 6.1983,-2.9851 6.1983,-2.9851c0,0 -0.27746,6.61789 -0.87565,9.27389c-0.46201,2.05131 -2.41169,5.32192 -2.41169,5.32192c0,0 -6.15914,-1.91519 -8.0498,-3.78574c-2.18635,-2.16309 -4.31061,-8.44317 -4.31061,-8.44317z" data-paper-data="{&quot;index&quot;:null}" fill="url(#color-4)" stroke="#000000" stroke-width="1.5"/><path d="M234.69932,183.67423c0.08399,-1.14762 0.86499,-1.98908 1.74439,-1.87948c0.87942,0.1096 1.52423,1.12879 1.44025,2.2764c-0.08399,1.14762 -0.86499,1.98908 -1.74439,1.87948c-0.87942,-0.1096 -1.52423,-1.12879 -1.44024,-2.2764z" fill="#ffffff" stroke="#000000" stroke-width="0.6"/><path d="M236.57279,183.71895c0.02256,-0.23625 0.23238,-0.40949 0.46864,-0.38692c0.23625,0.02256 0.40948,0.23238 0.38692,0.46864c-0.02256,0.23625 -0.23238,0.40948 -0.46864,0.38692c-0.23625,-0.02256 -0.40949,-0.23238 -0.38692,-0.46864z" fill="#000000" stroke="none" stroke-width="0.5"/><path d="M233.97726,181.67668l0.55053,-0.95011l0.62412,-0.19787l1.91175,0.85831l0.17814,-0.43425l0.52792,0.75277l0.80679,0.37081l-0.65151,1.58757l-2.3299,-0.76778z" fill="url(#color-5)" stroke="#000000" stroke-width="0.6"/><path d="M239.15347,183.71808c0.06608,-0.9029 0.68053,-1.56494 1.37242,-1.4787c0.69189,0.08623 1.1992,0.88809 1.13312,1.79098c-0.06608,0.9029 -0.68053,1.56494 -1.37242,1.47871c-0.69189,-0.08623 -1.19921,-0.88809 -1.13313,-1.79098z" fill="#ffffff" stroke="#000000" stroke-width="0.5"/><path d="M240.05876,183.54647c0.01774,-0.18588 0.18282,-0.32217 0.3687,-0.30442c0.18588,0.01774 0.32217,0.18283 0.30442,0.36871c-0.01774,0.18588 -0.18282,0.32216 -0.3687,0.30441c-0.18588,-0.01774 -0.32217,-0.18283 -0.30442,-0.3687z" fill="#000000" stroke="none" stroke-width="0.5"/><path d="M239.0505,183.53877l-0.28426,-0.81584l0.20218,-0.47377l1.49278,-0.69994l-0.16762,-0.32904l0.71985,0.07132l0.6351,-0.29098l0.61267,1.2031l-1.6533,0.99579z" fill="url(#color-6)" stroke="#000000" stroke-width="0.5"/><path d="M215.56286,195.15095l3.19231,-23.4084c0,0 7.78829,5.53421 12.71638,6.08445c3.4624,0.38659 14.15432,2.68333 19.34673,1.8374c3.56116,-0.58017 2.65368,-1.69908 2.65368,-1.69908l-10.46742,21.14238z" fill="url(#color-7)" stroke="#000000" stroke-width="0"/><path d="M219.90652,184.9423c5.8359,-2.12098 17.63988,6.51236 17.63988,6.51236l-22.71591,6.53122c0,0 -0.75987,-10.9226 5.07604,-13.04358z" fill="url(#color-8)" stroke="#000000" stroke-width="1.5"/><path d="M267.97123,182.07935v15.64249h-18.91108z" data-paper-data="{&quot;origPos&quot;:null,&quot;origRot&quot;:0}" fill="#e9be1e" stroke="none" stroke-width="0"/><path d="M210.24292,195.39618c0,-7.03483 0,-24.60261 0,-28.875c0,-1.82619 1.24126,-3.66973 2.85773,-3.66973c5.28449,0 41.62396,0 52.625,0c1.98825,0 3.14884,1.77216 3.14884,3.54473c0,4.20683 0,21.72647 0,28.875c0,1.89192 -1.11237,3.05741 -3.02384,3.05741c-10.61415,0 -45.86807,0 -52.125,0c-1.85553,0 -3.48273,-1.11453 -3.48273,-2.93241z" data-paper-data="{&quot;origPos&quot;:null}" fill="none" stroke="#e9be1e" stroke-width="2"/><g fill="#ffffff" font-family="Sans Serif" font-weight="normal" font-size="40" text-anchor="start"><text transform="translate(247.69646,195.74549) scale(0.27944,0.27944)" font-size="40" xml:space="preserve" fill="#ffffff" fill-rule="nonzero" stroke="#000000" stroke-width="6" stroke-linecap="butt" stroke-linejoin="miter" stroke-miterlimit="10" stroke-dasharray="" stroke-dashoffset="0" font-family="Sans Serif" font-weight="normal" text-anchor="start" style="mix-blend-mode: normal"><tspan x="0" dy="0">275</tspan></text><text transform="translate(247.69646,195.74549) scale(0.27944,0.27944)" font-size="40" xml:space="preserve" fill="#ffffff" fill-rule="nonzero" stroke="none" stroke-width="1" stroke-linecap="butt" stroke-linejoin="miter" stroke-miterlimit="10" stroke-dasharray="" stroke-dashoffset="0" font-family="Sans Serif" font-weight="normal" text-anchor="start" style="mix-blend-mode: normal"><tspan x="0" dy="0">275</tspan></text></g></g></g></svg>