<svg version="1.1" xmlns="http://www.w3.org/2000/svg" xmlns:xlink="http://www.w3.org/1999/xlink" width="91.56886" height="89.43004" viewBox="0,0,91.56886,89.43004"><defs><linearGradient x1="233.85536" y1="133.40666" x2="255.17985" y2="136.01697" gradientUnits="userSpaceOnUse" id="color-1"><stop offset="0" stop-color="#fff8ad"/><stop offset="1" stop-color="#c9c388"/></linearGradient><linearGradient x1="235.21972" y1="195.51745" x2="255.044" y2="195.51745" gradientUnits="userSpaceOnUse" id="color-2"><stop offset="0" stop-color="#2fe500"/><stop offset="1" stop-color="#51b800"/></linearGradient><linearGradient x1="241.25694" y1="138.80832" x2="279.17298" y2="143.44957" gradientUnits="userSpaceOnUse" id="color-3"><stop offset="0" stop-color="#fff8ad"/><stop offset="1" stop-color="#c9c388"/></linearGradient><linearGradient x1="234.70275" y1="139.82956" x2="278.42883" y2="150.55995" gradientUnits="userSpaceOnUse" id="color-4"><stop offset="0" stop-color="#fff8ad"/><stop offset="1" stop-color="#c9c388"/></linearGradient><linearGradient x1="213.17968" y1="132.2458" x2="234.33874" y2="134.83586" gradientUnits="userSpaceOnUse" id="color-5"><stop offset="0" stop-color="#fff8ad"/><stop offset="1" stop-color="#c9c388"/></linearGradient><linearGradient x1="190.85482" y1="131.63648" x2="236.35194" y2="137.20571" gradientUnits="userSpaceOnUse" id="color-6"><stop offset="0" stop-color="#fff8ad"/><stop offset="1" stop-color="#c9c388"/></linearGradient><linearGradient x1="196.02624" y1="143.81413" x2="231.5713" y2="148.16514" gradientUnits="userSpaceOnUse" id="color-7"><stop offset="0" stop-color="#fff8ad"/><stop offset="1" stop-color="#c9c388"/></linearGradient><linearGradient x1="245.8826" y1="145.23094" x2="237.5749" y2="213.09965" gradientUnits="userSpaceOnUse" id="color-8"><stop offset="0" stop-color="#3dff00"/><stop offset="1" stop-color="#ebffd8"/></linearGradient><linearGradient x1="236.25819" y1="127.17204" x2="236.57513" y2="150.16392" gradientUnits="userSpaceOnUse" id="color-9"><stop offset="0" stop-color="#00e0ff"/><stop offset="1" stop-color="#00bcc4"/></linearGradient><linearGradient x1="211.03624" y1="150.66001" x2="233.45323" y2="153.40404" gradientUnits="userSpaceOnUse" id="color-10"><stop offset="0" stop-color="#fff8ad"/><stop offset="1" stop-color="#c9c388"/></linearGradient><linearGradient x1="237.67684" y1="149.93189" x2="266.85844" y2="153.50397" gradientUnits="userSpaceOnUse" id="color-11"><stop offset="0" stop-color="#fff8ad"/><stop offset="1" stop-color="#c9c388"/></linearGradient><linearGradient x1="225.23946" y1="153.99579" x2="240.42783" y2="155.85498" gradientUnits="userSpaceOnUse" id="color-12"><stop offset="0" stop-color="#fff8ad"/><stop offset="1" stop-color="#c9c388"/></linearGradient><linearGradient x1="211.81534" y1="195.02099" x2="231.31018" y2="194.7932" gradientUnits="userSpaceOnUse" id="color-13"><stop offset="0" stop-color="#2fe500"/><stop offset="1" stop-color="#51b800"/></linearGradient><linearGradient x1="228.68678" y1="198.43762" x2="249.27753" y2="198.43762" gradientUnits="userSpaceOnUse" id="color-14"><stop offset="0" stop-color="#2fe500"/><stop offset="1" stop-color="#51b800"/></linearGradient></defs><g transform="translate(-189.37369,-115.11025)"><g data-paper-data="{&quot;isPaintingLayer&quot;:true}" fill-rule="nonzero" stroke-linejoin="miter" stroke-miterlimit="10" stroke-dasharray="" stroke-dashoffset="0" style="mix-blend-mode: normal"><path d="M231.26445,193.16737c0.39393,-3.58432 4.72194,-6.17169 9.66687,-5.77909c4.94493,0.3926 9.42647,4.17765 9.03253,7.76197c-0.39393,3.5843 -19.09333,1.60142 -18.6994,-1.98289z" data-paper-data="{&quot;origPos&quot;:null,&quot;origRot&quot;:0,&quot;index&quot;:null}" fill="#25b800" stroke="#000000" stroke-width="2" stroke-linecap="butt"/><path d="M232.97388,191.7442c0.39393,3.58432 -18.30546,5.56719 -18.6994,1.98289c-0.39393,-3.58432 4.0876,-7.36937 9.03253,-7.76197c4.94493,-0.3926 9.27293,2.19477 9.66686,5.77909z" data-paper-data="{&quot;origPos&quot;:null,&quot;origRot&quot;:0}" fill="#25b800" stroke="#000000" stroke-width="2" stroke-linecap="butt"/><path d="M246.67207,131.07797c0,0 -8.11597,3.71594 -8.43219,3.73753c-4.89017,0.33366 -6.03187,-0.08759 -1.30732,-10.06977c3.05734,-4.43538 9.0614,-8.89807 12.8072,-6.99286c5.35508,2.72371 4.9051,22.40124 4.8371,22.77546c-0.86156,4.74065 0.33672,7.78172 -4.65399,12.36656c-3.28323,3.01622 -3.25082,-21.8169 -3.25082,-21.8169z" data-paper-data="{&quot;origPos&quot;:null,&quot;origRot&quot;:0,&quot;index&quot;:null}" fill="url(#color-1)" stroke="#666349" stroke-width="1.5" stroke-linecap="butt"/><path d="M235.22622,196.53993c0.41696,-3.77324 4.99788,-6.497 10.2318,-6.0837c5.23392,0.4133 9.97736,4.39786 9.5604,8.1711c-0.41696,3.77322 -20.20916,1.68583 -19.7922,-2.08741z" data-paper-data="{&quot;origPos&quot;:null,&quot;origRot&quot;:0,&quot;index&quot;:null}" fill="url(#color-2)" stroke="#000000" stroke-width="2" stroke-linecap="butt"/><path d="M270.91084,135.80503c-3.17421,-1.03784 -11.41854,-2.85295 -11.41854,-2.85295c-7.64988,6.26651 -13.01631,16.4816 -13.13056,17.03117c-1.76678,8.49919 -9.18511,9.78405 -6.11227,-0.6076c2.14246,-7.24523 3.02551,-11.91735 5.66044,-18.99834c1.08428,-2.91385 -0.1193,-4.44082 2.28579,-6.411c4.60777,-3.77454 29.54081,1.24323 31.73689,9.25554c1.63833,5.97737 -4.83874,3.95085 -9.02177,2.58317z" data-paper-data="{&quot;origPos&quot;:null,&quot;index&quot;:null,&quot;origRot&quot;:0}" fill="url(#color-3)" stroke="#666349" stroke-width="1.5" stroke-linecap="butt"/><path d="M268.43517,151.90988c-2.16299,-2.54443 -8.2413,-8.40257 -8.2413,-8.40257c-9.79746,1.34144 -19.71322,7.24262 -20.09799,7.65136c-5.95019,6.32082 -12.94542,3.53699 -4.89235,-3.714c5.61474,-5.05551 8.81049,-8.57625 14.75912,-13.23427c2.44786,-1.91677 2.22039,-3.84772 5.30071,-4.26946c5.90134,-0.808 24.53037,16.50658 22.21266,24.48454c-1.72906,5.95176 -6.19041,0.83751 -9.04084,-2.51559z" data-paper-data="{&quot;origPos&quot;:null,&quot;index&quot;:null,&quot;origRot&quot;:0}" fill="url(#color-4)" stroke="#666349" stroke-width="1.5" stroke-linecap="butt"/><path d="M214.20712,149.92053c-3.73748,-5.65324 -1.84108,-8.3155 -1.53374,-13.124c0.02427,-0.37956 4.33386,-19.58466 10.18779,-20.93628c4.09476,-0.94545 7.98595,3.44151 10.48878,9.84449c2.17735,10.82704 1.22133,10.9915 -3.44398,9.48818c-0.30168,-0.09721 -7.28172,-5.66103 -7.28172,-5.66103c0,0 -5.95835,24.10772 -8.41713,20.38865z" data-paper-data="{&quot;origPos&quot;:null,&quot;origRot&quot;:0}" fill="url(#color-5)" stroke="#666349" stroke-width="1.5" stroke-linecap="butt"/><path d="M190.54331,141.16616c-2.75708,-9.00864 8.59902,-21.08349 18.64623,-19.85364c10.04721,1.22986 14.87684,7.33019 22.94837,14.39191c8.15569,7.13534 1.20093,10.0187 -4.83886,3.78341c-0.39054,-0.40319 -10.38951,-6.16229 -20.20513,-7.3638c0,0 -5.9941,5.94426 -8.12057,8.5193c-2.80229,3.39343 -6.61624,6.44929 -8.43005,0.52279z" data-paper-data="{&quot;origPos&quot;:null,&quot;origRot&quot;:0}" fill="url(#color-6)" stroke="#666349" stroke-width="1.5" stroke-linecap="butt"/><path d="M199.55493,161.73284c-7.19912,-6.07698 -4.07534,-8.58899 -3.98782,-13.42439c0.00692,-0.38167 5.84725,-19.39941 16.1467,-20.20686c7.20436,-0.56481 11.18667,5.37769 18.33619,6.42934c4.91465,11.1621 1.47036,10.50719 -6.98469,8.53999c-0.54672,-0.12721 -1.56526,-5.46975 -10.4657,-1.16025c-7.89729,3.82378 -8.30862,23.82003 -13.04468,19.82218z" data-paper-data="{&quot;origPos&quot;:null,&quot;origRot&quot;:0}" fill="url(#color-7)" stroke="#666349" stroke-width="1.5" stroke-linecap="butt"/><path d="M227.38351,192.29c-1.25071,-3.58007 -21.82071,-53.56023 5.08931,-49.98754c25.55385,3.39265 -17.15646,0.89812 10.29949,2.03293c17.96533,0.74255 4.29447,34.64195 -2.94164,47.16166c-7.23611,12.51971 -11.19646,4.373 -12.44717,0.79294z" data-paper-data="{&quot;origPos&quot;:null,&quot;origRot&quot;:0}" fill="url(#color-8)" stroke="#244b00" stroke-width="1.5" stroke-linecap="butt"/><path d="M254.04904,138.80819c0.56321,5.54504 -8.29536,10.83554 -16.8313,10.9532c-8.53592,0.11767 -20.59424,-3.88273 -20.67106,-9.45576c-0.07683,-5.57302 9.21411,-12.46879 17.75004,-12.58645c8.53592,-0.11767 19.16105,5.26756 19.75233,11.08903z" data-paper-data="{&quot;origPos&quot;:null,&quot;origRot&quot;:0}" fill="url(#color-9)" stroke="#244b00" stroke-width="1.5" stroke-linecap="butt"/><path d="M212.06769,168.30182c-3.73748,-5.65324 -1.84108,-8.3155 -1.53374,-13.124c0.02427,-0.37956 4.33386,-19.58466 10.18779,-20.93628c4.09476,-0.94545 8.78305,5.34086 12.76064,6.00424c2.17735,10.82704 -1.05052,14.83175 -5.71583,13.32842c-0.30168,-0.09721 -7.28172,-5.66103 -7.28172,-5.66103c0,0 -5.95835,24.10772 -8.41713,20.38865z" data-paper-data="{&quot;origPos&quot;:null,&quot;origRot&quot;:0}" fill="url(#color-10)" stroke="#666349" stroke-width="1.5" stroke-linecap="butt"/><path d="M251.4374,154.27597c-1.57994,-1.31605 -5.13212,-9.8119 -5.13212,-9.8119l2.16647,4.81662c0,0 -4.4426,3.64236 -7.47091,3.59692c-8.6799,-0.13024 2.14196,-14.92112 5.39204,-15.81466c6.71981,-1.84743 10.6973,6.20653 14.0045,12.34096c3.44947,6.39828 6.2338,11.27694 4.60851,18.36182c0,0 -9.8025,-6.69393 -13.5685,-13.48976z" data-paper-data="{&quot;origPos&quot;:null,&quot;origRot&quot;:0,&quot;index&quot;:null}" fill="url(#color-11)" stroke="#666349" stroke-width="1.5" stroke-linecap="butt"/><path d="M227.98495,171.94138c-3.73748,-5.65324 -3.61624,-8.53279 -3.30891,-13.34129c0.02427,-0.37956 0.62829,-18.75127 6.48222,-20.10288c4.09476,-0.94545 8.32742,0.65194 8.76516,5.00038c2.17735,10.82704 0.53315,14.51081 -4.13217,13.00748c-0.30168,-0.09721 0.83336,-4.66768 0.83336,-4.66768c0,0 -6.18091,23.82307 -8.63968,20.104z" data-paper-data="{&quot;origPos&quot;:null,&quot;origRot&quot;:0}" fill="url(#color-12)" stroke="#666349" stroke-width="1.5" stroke-linecap="butt"/><path d="M236.05242,172.16244c-0.09269,2.65086 -1.25878,4.86679 -2.60447,4.94931c-1.34569,0.08258 -2.36141,-1.99949 -2.26868,-4.65036c0.09269,-2.65086 1.25878,-4.86679 2.60447,-4.94931c1.34569,-0.08258 2.3614,1.9995 2.26865,4.65037z" data-paper-data="{&quot;origPos&quot;:null,&quot;origRot&quot;:0}" fill="#000000" stroke="none" stroke-width="0" stroke-linecap="butt"/><path d="M242.11298,170.80022c-0.09089,1.9967 -0.98638,3.65407 -2.00019,3.70183c-1.01384,0.04775 -1.76202,-1.53216 -1.67118,-3.5289c0.09089,-1.9967 0.98637,-3.65408 2.00019,-3.70183c1.01384,-0.04775 1.76206,1.53219 1.6712,3.52888z" data-paper-data="{&quot;origPos&quot;:null,&quot;origRot&quot;:0}" fill="#000000" stroke="none" stroke-width="0" stroke-linecap="butt"/><path d="M234.3592,171.27138c-0.04207,1.20254 -0.57104,2.20775 -1.1815,2.24523c-0.61045,0.03745 -1.07123,-0.90707 -1.02915,-2.10959c0.04207,-1.20254 0.57104,-2.20775 1.1815,-2.24523c0.61045,-0.03745 1.07123,0.90707 1.02915,2.10958z" data-paper-data="{&quot;origPos&quot;:null,&quot;origRot&quot;:0}" fill="#ffffff" stroke="none" stroke-width="0" stroke-linecap="butt"/><path d="M240.67867,169.72111c-0.03097,0.68093 -0.33637,1.24614 -0.68211,1.26242c-0.3457,0.01628 -0.60087,-0.52249 -0.56991,-1.20343c0.03097,-0.68093 0.33637,-1.24614 0.68211,-1.26242c0.3457,-0.01628 0.60088,0.5225 0.5699,1.20343z" data-paper-data="{&quot;origPos&quot;:null,&quot;origRot&quot;:0}" fill="#ffffff" stroke="none" stroke-width="0" stroke-linecap="butt"/><path d="M237.42537,185.06213c0,0 -2.51552,0.2846 -3.33723,-0.58994c-0.778,-0.82804 -1.93146,-2.62895 -1.93146,-2.62895" data-paper-data="{&quot;origPos&quot;:null,&quot;origRot&quot;:0}" fill="none" stroke="#244b00" stroke-width="1" stroke-linecap="round"/><path d="M231.31514,195.76448c0.45191,3.57927 -18.98822,5.78944 -19.44013,2.21017c-0.45191,-3.57927 4.16849,-7.41858 9.31084,-7.87129c5.14235,-0.45271 9.67738,2.08185 10.12929,5.66113z" data-paper-data="{&quot;origPos&quot;:null,&quot;origRot&quot;:0}" fill="url(#color-13)" stroke="#000000" stroke-width="2" stroke-linecap="butt"/><path d="M228.69353,199.4601c0.43308,-3.77324 5.19112,-6.49699 10.62739,-6.0837c5.43628,0.4133 10.36312,4.39786 9.93004,8.17109c-0.43308,3.77322 -20.99051,1.68583 -20.55743,-2.08741z" data-paper-data="{&quot;origPos&quot;:null,&quot;origRot&quot;:0,&quot;index&quot;:null}" fill="url(#color-14)" stroke="#000000" stroke-width="2" stroke-linecap="butt"/></g></g></svg>