<svg version="1.1" xmlns="http://www.w3.org/2000/svg" xmlns:xlink="http://www.w3.org/1999/xlink" width="104.99688" height="75.74776" viewBox="0,0,104.99688,75.74776"><defs><radialGradient cx="247.51746" cy="195.98306" r="9.52076" gradientUnits="userSpaceOnUse" id="color-1"><stop offset="0" stop-color="#a26e2a"/><stop offset="1" stop-color="#472b00"/></radialGradient><linearGradient x1="236.89021" y1="193.81833" x2="263.64306" y2="193.81833" gradientUnits="userSpaceOnUse" id="color-2"><stop offset="0" stop-color="#24b400"/><stop offset="1" stop-color="#217700"/></linearGradient><radialGradient cx="223.36815" cy="165.20569" r="34.81049" gradientUnits="userSpaceOnUse" id="color-3"><stop offset="0" stop-color="#ffb554"/><stop offset="1" stop-color="#885200"/></radialGradient><radialGradient cx="227.16737" cy="197.22825" r="10.56812" gradientUnits="userSpaceOnUse" id="color-4"><stop offset="0" stop-color="#c08231"/><stop offset="1" stop-color="#5e3800"/></radialGradient><linearGradient x1="215.37103" y1="194.82538" x2="245.06692" y2="194.82538" gradientUnits="userSpaceOnUse" id="color-5"><stop offset="0" stop-color="#2fe500"/><stop offset="1" stop-color="#16bb00"/></linearGradient><radialGradient cx="192.06554" cy="152.26369" r="13.09798" gradientUnits="userSpaceOnUse" id="color-6"><stop offset="0" stop-color="#ff9900"/><stop offset="1" stop-color="#ff9900" stop-opacity="0"/></radialGradient><radialGradient cx="191.55892" cy="151.3703" r="18.31671" gradientUnits="userSpaceOnUse" id="color-7"><stop offset="0" stop-color="#ffe000"/><stop offset="1" stop-color="#ffe000" stop-opacity="0"/></radialGradient></defs><g transform="translate(-173.23722,-133.04861)"><g data-paper-data="{&quot;isPaintingLayer&quot;:true}" fill-rule="nonzero" stroke-linecap="butt" stroke-linejoin="miter" stroke-miterlimit="10" stroke-dasharray="" stroke-dashoffset="0" style="mix-blend-mode: normal"><path d="M220.71876,164.87343c0,0 -4.51934,-10.02917 -11.54077,-11.20887c-4.315,-0.72498 -6.30985,2.8041 -11.3059,2.77984c-4.88655,-0.02372 -8.25705,-5.38321 -8.25705,-5.38321l3.42465,-0.73745c0,0 2.64545,2.58048 5.71247,3.38692c3.36705,0.88533 7.75704,-4.43913 12.06926,-2.86214c5.94469,2.17398 10.90772,10.65194 10.90772,10.65194z" fill="#c29557" stroke="#000000" stroke-width="1.5"/><path d="M237.99669,195.98306c0,-5.25817 4.2626,-9.52076 9.52076,-9.52076c5.25817,0 9.52076,4.26259 9.52076,9.52076c0,5.25817 -4.26259,9.52076 -9.52076,9.52076c-5.25817,0 -9.52076,-4.26259 -9.52076,-9.52076z" fill="url(#color-1)" stroke="#000000" stroke-width="2"/><path d="M263.64306,203.67284c0,0 -0.89912,1.57559 -9.4934,-6.85792c-1.67395,-1.64263 -3.60597,-10.06991 -5.61281,-9.93444c-12.13454,0.81916 -12.26272,13.33016 -11.26991,11.21281c0.51029,-1.0883 -1.58815,-7.26194 2.24057,-11.0842c3.62025,-3.61415 11.93857,-4.13836 15.517,-1.52937c3.77601,2.75306 2.15722,6.77979 4.13259,12.56337c1.09191,3.19695 4.48595,5.62975 4.48595,5.62975z" data-paper-data="{&quot;origRot&quot;:0,&quot;index&quot;:null}" fill="url(#color-2)" stroke="#000000" stroke-width="2"/><path d="M277.23489,179.17708c0,0 -13.84686,16.19846 -32.80044,20.49946c-9.26669,2.10282 -16.69142,4.6938 -22.23448,1.8618c-5.79441,-2.96041 -9.53267,-8.33841 -11.16946,-15.5514c-0.8637,-3.80619 -1.64915,-12.29639 0.36565,-18.03198c1.86204,-5.3007 6.50611,-8.01445 6.50611,-8.01445l-1.54176,4.19517l10.93895,-8.56286l2.07493,1.76142c0,0 4.70786,-0.80388 5.60282,-1.00697c10.05733,-2.1855 21.93805,0.214 21.93805,0.214l8.81509,-2.24609c0,0 5.27603,4.23653 8.06955,10.59604c3.67126,8.35774 3.435,14.28586 3.435,14.28586z" fill="url(#color-3)" stroke="#000000" stroke-width="2"/><path d="M237.27984,171.8687c0,-3.06087 2.48134,-5.5422 5.5422,-5.5422c3.06087,0 5.5422,2.48134 5.5422,5.5422c0,3.06087 -2.48134,5.5422 -5.5422,5.5422c-3.06087,0 -5.5422,-2.48134 -5.5422,-5.5422z" fill="#ffffff" stroke="#000000" stroke-width="1"/><path d="M216.59925,197.22825c0,-5.83662 4.73151,-10.56812 10.56813,-10.56812c5.83662,0 10.56812,4.7315 10.56812,10.56812c0,5.83662 -4.7315,10.56812 -10.56812,10.56812c-5.83662,0 -10.56813,-4.73151 -10.56813,-10.56812z" fill="url(#color-4)" stroke="#000000" stroke-width="2"/><path d="M224.39616,192.01108c0,-0.71781 0.58189,-1.29969 1.29969,-1.29969c0.71781,0 1.29969,0.58189 1.29969,1.29969c0,0.71781 -0.58189,1.29969 -1.29969,1.29969c-0.71781,0 -1.29969,-0.58189 -1.29969,-1.29969z" fill="#000000" stroke="none" stroke-width="0.5"/><path d="M229.75471,193.88391c0,-0.86136 0.69827,-1.55963 1.55963,-1.55963c0.86136,0 1.55963,0.69827 1.55963,1.55963c0,0.86136 -0.69827,1.55963 -1.55963,1.55963c-0.86136,0 -1.55963,-0.69827 -1.55963,-1.55963z" fill="#000000" stroke="none" stroke-width="0.5"/><path d="M224.94647,196.55937c0,-1.00492 0.81465,-1.81957 1.81957,-1.81957c1.00492,0 1.81957,0.81465 1.81957,1.81957c0,1.00492 -0.81465,1.81957 -1.81957,1.81957c-1.00492,0 -1.81957,-0.81465 -1.81957,-1.81957z" fill="#000000" stroke="none" stroke-width="0.5"/><path d="M245.06692,205.76397c0,0 -0.99802,1.74892 -10.53774,-7.61233c-1.8581,-1.82334 -4.00264,-11.17769 -6.23027,-11.02731c-13.46944,0.90928 -13.61171,14.79658 -12.50969,12.4463c0.56643,-1.20802 -1.76287,-8.06081 2.48704,-12.30356c4.01852,-4.01173 13.25191,-4.59361 17.224,-1.6976c4.1914,3.0559 2.39454,7.52561 4.58721,13.94543c1.21202,3.54863 4.97944,6.24906 4.97944,6.24906z" data-paper-data="{&quot;origRot&quot;:0,&quot;index&quot;:null}" fill="url(#color-5)" stroke="#000000" stroke-width="2"/><path d="M265.48463,170.12565c-2.90397,-6.82492 -3.27231,-13.20254 -0.82274,-14.24482c2.44958,-1.04228 6.78948,3.64548 9.69345,10.47038c2.90397,6.82492 3.27231,13.20254 0.82274,14.24482c-2.44958,1.04228 -6.78949,-3.64548 -9.69345,-10.47038z" fill="#ffffff" stroke="#000000" stroke-width="2"/><path d="M243.77809,171.06068c0,-0.64868 0.52587,-1.17455 1.17455,-1.17455c0.64868,0 1.17455,0.52587 1.17455,1.17455c0,0.64868 -0.52587,1.17455 -1.17455,1.17455c-0.64868,0 -1.17455,-0.52587 -1.17455,-1.17455z" fill="#000000" stroke="none" stroke-width="0.5"/><path d="M236.11694,169.72169l0.21384,-2.99375l1.29607,-1.23398l5.72488,-0.18245l2.27186,-1.24387l-0.15569,1.18023l2.42629,-0.05591l0.30198,4.6807l-6.64357,0.90594z" fill="#5a390a" stroke="#000000" stroke-width="1"/><path d="M179.67094,156.49819c-2.33865,-6.84535 1.31477,-14.29045 8.16011,-16.6291c6.84535,-2.33865 14.29045,1.31477 16.6291,8.16012c2.33865,6.84535 -1.31477,14.29045 -8.16012,16.62909c-6.84535,2.33865 -14.29045,-1.31477 -16.62909,-8.16011z" fill="url(#color-6)" stroke="none" stroke-width="0"/><path d="M174.22584,157.29197c-3.27045,-9.5728 1.83862,-19.9843 11.41141,-23.25475c9.5728,-3.27045 19.9843,1.83862 23.25475,11.41141c3.27045,9.5728 -1.83862,19.9843 -11.41141,23.25475c-9.5728,3.27045 -19.9843,-1.83862 -23.25475,-11.41141z" fill="url(#color-7)" stroke="none" stroke-width="0"/></g></g></svg>