<svg version="1.1" xmlns="http://www.w3.org/2000/svg" xmlns:xlink="http://www.w3.org/1999/xlink" width="53.9032" height="72.88145" viewBox="0,0,53.9032,72.88145"><defs><radialGradient cx="214.60937" cy="166.57033" r="12.66374" gradientUnits="userSpaceOnUse" id="color-1"><stop offset="0" stop-color="#ffffff"/><stop offset="1" stop-color="#ffffff" stop-opacity="0"/></radialGradient><linearGradient x1="215.72023" y1="164.36496" x2="215.72023" y2="171.52505" gradientUnits="userSpaceOnUse" id="color-2"><stop offset="0" stop-color="#ffe946"/><stop offset="1" stop-color="#fadd00"/></linearGradient></defs><g transform="translate(-203.05648,-146.28105)"><g data-paper-data="{&quot;isPaintingLayer&quot;:true}" fill-rule="nonzero" stroke-linejoin="miter" stroke-miterlimit="10" stroke-dasharray="" stroke-dashoffset="0" style="mix-blend-mode: normal"><path d="M223.95335,195.25702l-3.36731,-7.69553l17.77301,-7.77689l3.36731,7.69553z" data-paper-data="{&quot;origPos&quot;:null,&quot;origRot&quot;:0}" fill="#edd218" stroke="#000000" stroke-width="2" stroke-linecap="butt"/><path d="M225.91658,192.12381l-9.27221,-21.95048" data-paper-data="{&quot;origPos&quot;:null,&quot;origRot&quot;:0}" fill="none" stroke="#f7b92c" stroke-width="3" stroke-linecap="round"/><g data-paper-data="{&quot;origPos&quot;:null}" stroke-linecap="butt"><path d="M214.66488,165.10795l11.05157,-1.5673l-9.15459,6.38647l-11.05157,1.5673z" data-paper-data="{&quot;origRot&quot;:0,&quot;origPos&quot;:null}" fill="#fff291" stroke="none" stroke-width="0"/><path d="M213.20377,168.46603l-1.5673,-11.05157l6.38647,9.15459l1.5673,11.05157z" data-paper-data="{&quot;origRot&quot;:0,&quot;origPos&quot;:null}" fill="#fff291" stroke="none" stroke-width="0"/><path d="M214.58021,169.89206l-8.92288,-6.70639l10.98919,1.95735l8.92288,6.70639z" data-paper-data="{&quot;origRot&quot;:0,&quot;origPos&quot;:null}" fill="#fff291" stroke="none" stroke-width="0"/><path d="M213.23884,166.48438l6.70639,-8.92288l-1.95735,10.98919l-6.70639,8.92288z" data-paper-data="{&quot;origRot&quot;:0,&quot;origPos&quot;:null}" fill="#fff291" stroke="none" stroke-width="0"/><path d="M203.05649,167.945c0,-6.99399 5.66975,-12.66374 12.66374,-12.66374c6.99399,0 12.66374,5.66975 12.66374,12.66374c0,6.99399 -5.66975,12.66374 -12.66374,12.66374c-6.99399,0 -12.66374,-5.66975 -12.66374,-12.66374z" data-paper-data="{&quot;origPos&quot;:null}" fill="url(#color-1)" stroke="none" stroke-width="0"/><path d="M213.88914,166.11392l9.50858,-5.84641l-5.84641,9.50858l-9.50858,5.84641z" data-paper-data="{&quot;origRot&quot;:0,&quot;origPos&quot;:null}" fill="#ffec5f" stroke="none" stroke-width="0"/><path d="M213.88914,169.77609l-5.84641,-9.50858l9.50858,5.84641l5.84641,9.50858z" data-paper-data="{&quot;origRot&quot;:0,&quot;origPos&quot;:null}" fill="#ffec5f" stroke="none" stroke-width="0"/><path d="M215.72023,170.53455l-10.85761,-2.58955l10.85761,-2.58955l10.85762,2.58955z" data-paper-data="{&quot;origRot&quot;:0,&quot;origPos&quot;:null}" fill="#ffec5f" stroke="none" stroke-width="0"/><path d="M213.13068,167.945l2.58955,-10.85761l2.58955,10.85761l-2.58955,10.85761z" data-paper-data="{&quot;origRot&quot;:0,&quot;origPos&quot;:null}" fill="#ffec5f" stroke="none" stroke-width="0"/><path d="M212.14019,167.945c0,-1.9772 1.60284,-3.58004 3.58004,-3.58004c1.9772,0 3.58004,1.60284 3.58004,3.58004c0,1.9772 -1.60284,3.58004 -3.58004,3.58004c-1.9772,0 -3.58004,-1.60284 -3.58004,-3.58004z" data-paper-data="{&quot;origPos&quot;:null}" fill="url(#color-2)" stroke="#f4d700" stroke-width="1"/></g><path d="M230.40001,199.9625v-20h19.4v20z" data-paper-data="{&quot;origPos&quot;:null}" fill="#edd218" stroke="#000000" stroke-width="2" stroke-linecap="butt"/><path d="M253.02501,172.02291c0,6.51494 -5.84828,11.79635 -13.0625,11.79635c-7.21422,0 -13.0625,-5.28141 -13.0625,-11.79635c0,-6.51494 5.84828,-11.79635 13.0625,-11.79635c7.21422,0 13.0625,5.28141 13.0625,11.79635z" data-paper-data="{&quot;origPos&quot;:null}" fill="#b2b2b2" stroke="#000000" stroke-width="2" stroke-linecap="butt"/><path d="M239.40001,168.32656c0,1.65685 -1.09131,3 -2.4375,3c-1.34619,0 -2.4375,-1.34315 -2.4375,-3c0,-1.65685 1.09131,-3 2.4375,-3c1.34619,0 2.4375,1.34315 2.4375,3z" data-paper-data="{&quot;origPos&quot;:null}" fill="#ff0000" stroke="none" stroke-width="0" stroke-linecap="butt"/><path d="M233.30001,168.46406c0,1.48427 -0.95139,2.6875 -2.125,2.6875c-1.17361,0 -2.125,-1.20323 -2.125,-2.6875c0,-1.48427 0.95139,-2.6875 2.125,-2.6875c1.17361,0 2.125,1.20323 2.125,2.6875z" data-paper-data="{&quot;origPos&quot;:null}" fill="#ff0000" stroke="none" stroke-width="0" stroke-linecap="butt"/><path d="M231.00001,218.1625v-17.4h8v17.4z" data-paper-data="{&quot;origPos&quot;:null}" fill="#fff4a7" stroke="#000000" stroke-width="2" stroke-linecap="butt"/><path d="M241.00001,218.1625v-17.6h8v17.6z" data-paper-data="{&quot;origPos&quot;:null}" fill="#fff4a7" stroke="#000000" stroke-width="2" stroke-linecap="butt"/><path d="M255.5226,198.25473l-7.46198,3.85732l-8.90857,-17.23361l7.46198,-3.85732z" data-paper-data="{&quot;origPos&quot;:null,&quot;origRot&quot;:0}" fill="#edd218" stroke="#000000" stroke-width="2" stroke-linecap="butt"/><path d="M226.5,158.63957l0.7794,-10.32706l25.13566,8.37856l2.53305,12.27555z" data-paper-data="{&quot;origPos&quot;:null}" fill="#9e88ce" stroke="#000000" stroke-width="3" stroke-linecap="butt"/></g></g></svg>