<svg version="1.1" xmlns="http://www.w3.org/2000/svg" xmlns:xlink="http://www.w3.org/1999/xlink" width="49.72493" height="63.30974" viewBox="0,0,49.72493,63.30974"><defs><linearGradient x1="244.82639" y1="144.22335" x2="244.82639" y2="181.44176" gradientUnits="userSpaceOnUse" id="color-1"><stop offset="0" stop-color="#92a518"/><stop offset="1" stop-color="#e1e100"/></linearGradient></defs><g transform="translate(-217.83616,-139.57794)"><g data-paper-data="{&quot;isPaintingLayer&quot;:true}" fill-rule="nonzero" stroke-linejoin="miter" stroke-miterlimit="10" stroke-dasharray="" stroke-dashoffset="0" style="mix-blend-mode: normal"><g stroke="#000000" stroke-linecap="butt"><path d="M233.47234,196.73078l1.03523,-4.36041l-8.63031,-12.41301l7.23274,-10.16864l2.14953,5.49748l-5.80128,4.98299l8.26672,11.11628l-0.0785,7.02651z" fill="#92a518" stroke-width="2"/><path d="M225.18549,179.88582l0.17142,-3.4998l3.4998,0.17142z" fill="#c3dc00" stroke-width="1"/><path d="M231.1342,183.74921l3.50118,0.14089l-0.14089,3.50118z" fill="#c3dc00" stroke-width="1"/><path d="M231.63932,189.41731l-3.46967,-0.48934l0.48934,-3.46968z" fill="#c3dc00" stroke-width="1"/></g><g><path d="M251.15273,140.22507c0.87431,-0.36352 1.18962,-0.03705 0.84168,0.79854c-0.7202,1.72959 -1.76293,4.86585 -1.37763,7.82159c-2.4395,3.30643 -8.17335,-0.92405 -5.73385,-4.23047c1.62641,-2.20439 4.52095,-3.66254 6.2698,-4.38966z" data-paper-data="{&quot;origRot&quot;:0,&quot;index&quot;:null}" fill="#cff538" stroke="#000000" stroke-width="1" stroke-linecap="butt"/><path d="M263.18354,162.83255c-0.11678,2.2285 3.57492,5.14932 2.75993,8.58756c-3.21916,13.58083 -15.26702,10.02164 -21.11708,10.02164c-10.13837,0 -18.35715,-8.33162 -18.35715,-18.60921c0,-4.68701 5.23814,-17.93298 13.54506,-18.34505c8.35421,-0.41441 23.78663,6.56384 23.16924,18.34505z" fill="url(#color-1)" stroke="#000000" stroke-width="3" stroke-linecap="butt"/><path d="M234.73841,147.54485c2.43951,3.30643 -3.29435,7.53691 -5.73385,4.23047c0.3853,-2.95574 -0.65742,-6.092 -1.37763,-7.82159c-0.34794,-0.83559 -0.03264,-1.16206 0.84168,-0.79854c1.74885,0.72713 4.6434,2.18528 6.2698,4.38966z" data-paper-data="{&quot;origRot&quot;:0}" fill="#cff538" stroke="#000000" stroke-width="1" stroke-linecap="butt"/><path d="M254.47779,163.22366c0,2.06059 -1.41589,3.73104 -3.16249,3.73104c-1.74659,0 -3.16249,-1.67044 -3.16249,-3.73104c0,-2.06059 1.41589,-3.73104 3.16249,-3.73104c1.74659,0 3.16249,1.67044 3.16249,3.73104z" fill="#ffee00" stroke="#000000" stroke-width="0" stroke-linecap="butt"/><path d="M253.51505,163.40251c0,0.99908 -0.52165,1.80899 -1.16513,1.80899c-0.64348,0 -1.16513,-0.80991 -1.16513,-1.80899c0,-0.99908 0.52165,-1.80899 1.16513,-1.80899c0.64348,0 1.16513,0.80991 1.16513,1.80899z" fill="#ff0000" stroke="none" stroke-width="0" stroke-linecap="butt"/><path d="M260.95316,163.24428c0,2.0606 -1.41589,3.73103 -3.16249,3.73103c-1.7466,0 -3.16249,-1.67044 -3.16249,-3.73103c0,-2.0606 1.41589,-3.73104 3.16249,-3.73104c1.7466,0 3.16249,1.67044 3.16249,3.73104z" fill="#ffee00" stroke="#000000" stroke-width="0" stroke-linecap="butt"/><path d="M259.99043,163.42313c0,0.99908 -0.52165,1.80899 -1.16513,1.80899c-0.64348,0 -1.16512,-0.80991 -1.16512,-1.80899c0,-0.99908 0.52164,-1.80898 1.16512,-1.80898c0.64348,0 1.16513,0.80991 1.16513,1.80898z" fill="#ff0000" stroke="none" stroke-width="0" stroke-linecap="butt"/><path d="M246.2349,174.4678c0,0 4.41953,-0.46866 7.91554,-0.12959c5.0493,0.48973 8.31354,1.78938 8.31354,1.78938" fill="none" stroke="#000000" stroke-width="1.5" stroke-linecap="round"/><path d="M219.67822,162.66483l8.48338,-1.65979c0,0 0.12444,4.51808 1.74842,7.29361c1.74795,2.98741 5.62844,8.93547 5.62844,8.93547l-8.43402,-1.30228l2.39603,-4.01104l-6.13077,1.06881l3.47523,-5.15604z" fill="#dd6d00" stroke="#000000" stroke-width="1.5" stroke-linecap="butt"/><path d="M248.07911,159.34524h13.09392" fill="none" stroke="#000000" stroke-width="2" stroke-linecap="round"/><path d="M246.93636,173.75375l1.89441,-1.97629l1.97629,1.89441z" fill="#ffffff" stroke="#000000" stroke-width="1" stroke-linecap="butt"/></g><path d="M254.2088,197.65031c0,0 -4.19614,3.79035 -8.94294,3.38888c-4.7468,-0.40148 -8.43897,-2.56966 -8.24672,-4.84277c0.19226,-2.27311 4.19615,-3.79037 8.94294,-3.38889c4.7468,0.40148 8.24671,4.84278 8.24671,4.84278z" data-paper-data="{&quot;origRot&quot;:0,&quot;index&quot;:null}" fill="#bd5e00" stroke="#000000" stroke-width="2" stroke-linecap="butt"/><path d="M229.43663,193.63034c4.76161,-0.14261 8.67702,1.59025 8.74531,3.87045c0.06829,2.28021 -3.73639,4.24428 -8.49799,4.38689c-4.76161,0.14261 -8.7453,-3.87046 -8.7453,-3.87046c0,0 3.73638,-4.24428 8.49799,-4.38689z" data-paper-data="{&quot;origRot&quot;:0}" fill="#dd6d00" stroke="#000000" stroke-width="2" stroke-linecap="butt"/></g></g></svg>