<svg version="1.1" xmlns="http://www.w3.org/2000/svg" xmlns:xlink="http://www.w3.org/1999/xlink" width="18.72223" height="18.72222" viewBox="0,0,18.72223,18.72222"><defs><linearGradient x1="239.99999" y1="171.38889" x2="239.99999" y2="188.61111" gradientUnits="userSpaceOnUse" id="color-1"><stop offset="0" stop-color="#d28211"/><stop offset="1" stop-color="#9b6b0d"/></linearGradient></defs><g transform="translate(-230.63888,-170.63889)"><g data-paper-data="{&quot;isPaintingLayer&quot;:true}" fill-rule="nonzero" stroke="#000000" stroke-linecap="butt" stroke-linejoin="miter" stroke-miterlimit="10" stroke-dasharray="" stroke-dashoffset="0" style="mix-blend-mode: normal"><path d="M231.38889,185.73958c0,-3.39518 0,-8.84302 0,-10.88889c0,-1.53697 1.24971,-3.4618 2.38445,-3.4618c1.9519,0 8.26709,0 12,0c1.68058,0 2.83777,1.29764 2.83777,3.12847c0,3.56206 0,9.14242 0,11.11111c0,1.36411 -1.15886,2.98264 -2.83777,2.98264c-3.66085,0 -9.79431,0 -11.77778,0c-1.2218,0 -2.60668,-1.18145 -2.60668,-2.87153z" fill="url(#color-1)" stroke-width="1.5"/><path d="M242.6108,181.54597c0.63143,-1.24532 -3.90275,-3.20089 -3.90275,-3.20089c0,0 -0.31896,1.20441 -0.45972,1.73592c-0.11956,0.45145 -0.68538,0.75628 -0.99041,0.32851c-0.69361,-0.97271 -3.40625,-4.7769 -3.40625,-4.7769c0,0 4.52594,-1.4226 5.82963,-1.83238c0.65807,-0.20685 1.22488,0.26018 1.07733,0.67205c-0.17493,0.48825 -0.57344,1.6006 -0.57344,1.6006c0,0 7.22865,3.51363 5.28426,6.74515c-0.77704,1.29142 -1.61129,2.8601 -2.60925,3.41193c-0.82452,0.45593 -2.86765,0.32757 -2.93918,-1.01599c-0.07153,-1.34356 2.3333,-3.00253 2.6898,-3.66799z" data-paper-data="{&quot;origPos&quot;:null}" fill="#80e23e" stroke-width="1"/></g></g></svg>