<svg version="1.1" xmlns="http://www.w3.org/2000/svg" xmlns:xlink="http://www.w3.org/1999/xlink" width="60.63157" height="38.15113" viewBox="0,0,60.63157,38.15113"><defs><linearGradient x1="239.7918" y1="162.83335" x2="239.7918" y2="198.83335" gradientUnits="userSpaceOnUse" id="color-1"><stop offset="0" stop-color="#72f0ff"/><stop offset="1" stop-color="#9bc9cd"/></linearGradient><radialGradient cx="230.50185" cy="169.95642" r="3.6883" gradientUnits="userSpaceOnUse" id="color-2"><stop offset="0" stop-color="#ffffff"/><stop offset="1" stop-color="#ff0000"/></radialGradient></defs><g transform="translate(-209.2429,-161.85145)"><g data-paper-data="{&quot;isPaintingLayer&quot;:true}" fill-rule="nonzero" stroke-linejoin="miter" stroke-miterlimit="10" stroke-dasharray="" stroke-dashoffset="0" style="mix-blend-mode: normal"><path d="M210.50015,195.77118c0,-7.18645 0,-25.25324 0,-29.5c0,-1.72983 1.95533,-3.43783 4.10049,-3.43783c6.49354,0 39.77537,0 50.875,0c2.26628,0 3.60783,1.47996 3.60783,3.81283c0,7.50898 0,23.85448 0,28.125c0,1.9962 -1.8827,4.06217 -3.73283,4.06217c-5.36167,0 -31.34965,0 -31.34965,0c-3.50551,-0.20254 -7.07398,-0.45211 -10.3325,-0.0711c-0.25664,0.03001 -0.52182,0.05168 -0.79121,0.0711c0,0 -6.49221,0 -8.77664,0c-1.46318,0 -3.60049,-1.2397 -3.60049,-3.06217z" data-paper-data="{&quot;origPos&quot;:null}" fill="url(#color-1)" stroke="none" stroke-width="0" stroke-linecap="butt"/><path d="M219.91187,191.6346c0,-7.54644 6.88671,-13.66405 15.38188,-13.66405c8.49517,0 15.38188,6.11761 15.38188,13.66405c0,7.54644 -30.76376,7.54644 -30.76376,0z" data-paper-data="{&quot;origPos&quot;:null}" fill="#ffeeac" stroke="#000000" stroke-width="2.5" stroke-linecap="butt"/><path d="M253.69463,193.33583c0,1.39318 -1.21271,1.55649 -2.57624,1.55649c-0.16648,0 0.27662,0.00165 0.11015,0.00378c-0.49942,0.00641 -1.50562,-0.46329 -1.50562,-1.23824c0,-1.69321 0.88527,-2.73033 0.98672,-2.73519c0.03382,-0.00161 1.12629,-0.32412 1.16015,-0.32412c0,0 0.83858,0.12088 1.23178,0.94699c0.42328,0.88927 0.59307,0.3971 0.59307,1.79029z" data-paper-data="{&quot;origPos&quot;:null}" fill="#a86f20" stroke="#000000" stroke-width="1" stroke-linecap="butt"/><path d="M251.40953,195.91913c0,1.50217 -1.30758,1.67825 -2.77778,1.67825c-0.17952,0 0.29824,0.00178 0.11875,0.00408c-0.53849,0.0069 -1.62339,-0.49954 -1.62339,-1.33511c0,-1.82567 0.95451,-2.94392 1.06392,-2.94915c0.03647,-0.00175 1.2144,-0.34947 1.25091,-0.34947c0,0 0.90417,0.13033 1.32814,1.02107c0.4564,0.95884 0.63947,0.42817 0.63947,1.93033z" data-paper-data="{&quot;origPos&quot;:null}" fill="#a86f20" stroke="#000000" stroke-width="1" stroke-linecap="butt"/><path d="M267.97122,181.60708v15.82871h-19.13622z" data-paper-data="{&quot;origPos&quot;:null,&quot;origRot&quot;:0}" fill="#cdcdcd" stroke="none" stroke-width="0" stroke-linecap="butt"/><path d="M232.53883,179.98137l-0.96037,-6.31348l2.22335,-0.16613l0.96036,6.31347c0,0 -0.60706,0.64648 -1.02298,0.67757c-0.45179,0.03376 -1.20036,-0.51145 -1.20036,-0.51145z" data-paper-data="{&quot;origPos&quot;:null,&quot;origRot&quot;:0}" fill="#bebebe" stroke="#000000" stroke-width="0.5" stroke-linecap="butt"/><path d="M228.81095,171.35426c0.13757,-2.03234 1.89664,-3.56835 3.92897,-3.43079c2.03234,0.13757 3.56835,1.89663 3.43078,3.92896c-0.13757,2.03234 -1.89662,3.56833 -3.92897,3.43078c-2.03234,-0.13757 -3.56835,-1.8966 -3.43078,-3.92894z" data-paper-data="{&quot;origPos&quot;:null,&quot;origRot&quot;:0}" fill="url(#color-2)" stroke="#000000" stroke-width="0.5" stroke-linecap="butt"/><path d="M240.50078,187.37412c0.39494,1.42521 0.08292,2.75572 -0.69691,2.97182c-0.77983,0.21609 -1.73217,-0.76406 -2.12711,-2.18928c-0.39494,-1.42521 -0.08292,-2.75575 0.69691,-2.97184c0.77983,-0.21609 1.73216,0.76408 2.12709,2.18929z" data-paper-data="{&quot;origPos&quot;:null,&quot;origRot&quot;:0}" fill="#000000" stroke="none" stroke-width="0" stroke-linecap="butt"/><path d="M240.12425,186.85731c0.19691,0.60559 0.11919,1.18641 -0.17363,1.29726c-0.2928,0.11085 -0.68982,-0.2902 -0.88673,-0.89579c-0.19691,-0.60559 -0.11917,-1.18639 0.17363,-1.29726c0.2928,-0.11085 0.68982,0.29019 0.88673,0.89579z" data-paper-data="{&quot;origRot&quot;:0,&quot;origPos&quot;:null}" fill="#ffffff" stroke="none" stroke-width="0" stroke-linecap="butt"/><path d="M246.15863,186.27866c0.36437,1.31485 0.0765,2.54239 -0.64295,2.74174c-0.71945,0.19936 -1.59806,-0.70491 -1.96241,-2.01978c-0.36437,-1.31485 -0.0765,-2.5424 0.64295,-2.74176c0.71945,-0.19936 1.59805,0.70493 1.96242,2.0198z" data-paper-data="{&quot;origPos&quot;:null,&quot;origRot&quot;:0}" fill="#000000" stroke="none" stroke-width="0" stroke-linecap="butt"/><path d="M245.6795,185.80186c0.18168,0.55871 0.10997,1.09455 -0.16018,1.19683c-0.27015,0.10228 -0.63641,-0.26773 -0.81809,-0.82644c-0.18168,-0.55871 -0.10997,-1.09454 0.16017,-1.19683c0.27015,-0.10228 0.63641,0.26772 0.81809,0.82643z" data-paper-data="{&quot;origRot&quot;:0,&quot;origPos&quot;:null}" fill="#ffffff" stroke="none" stroke-width="0" stroke-linecap="butt"/><path d="M246.01064,191.15054c0,0 -1.08541,0.91322 -1.90949,1.23902c-0.87166,0.34462 -2.43562,0.47882 -2.43562,0.47882" data-paper-data="{&quot;origPos&quot;:null}" fill="none" stroke="#000000" stroke-width="0.5" stroke-linecap="round"/><path d="M244.90703,193.4274l-0.42043,-1.01206l1.41942,-0.94327l0.42043,1.01206z" data-paper-data="{&quot;origRot&quot;:0,&quot;origPos&quot;:null}" fill="#ffffff" stroke="#000000" stroke-width="0.5" stroke-linecap="butt"/><path d="M232.23879,197.05891c0,0.87466 -1.1292,0.97718 -2.39883,0.97718c-0.15502,0 0.25757,0.00104 0.10256,0.00238c-0.46501,0.00402 -1.40193,-0.29086 -1.40193,-0.77738c0,-1.06302 1.9675,-1.92068 1.99901,-1.92068c0,0 0.78083,0.07589 1.14696,0.59453c0.39412,0.5583 0.55222,0.2493 0.55222,1.12396z" data-paper-data="{&quot;origPos&quot;:null}" fill="#a86f20" stroke="#000000" stroke-width="1" stroke-linecap="butt"/><path d="M235.01465,197.31279c0,0.63136 -0.86485,0.70534 -1.83728,0.70534c-0.11873,0 0.19728,0.00074 0.07855,0.00172c-0.35616,0.0029 -1.07374,-0.20995 -1.07374,-0.56114c0,-0.76731 0.63133,-1.23731 0.70368,-1.23951c0.02411,-0.00073 0.80323,-0.14688 0.82737,-0.14688c0,0 0.59804,0.05478 0.87844,0.42915c0.30186,0.40299 0.42295,0.17996 0.42295,0.8113z" data-paper-data="{&quot;origPos&quot;:null}" fill="#a86f20" stroke="#000000" stroke-width="1" stroke-linecap="butt"/><path d="M228.83521,196.67672c0,1.28528 -1.43407,1.43594 -3.04651,1.43594c-0.19689,0 0.32711,0.00151 0.13025,0.00349c-0.59058,0.00591 -1.78044,-0.42742 -1.78044,-1.14234c0,-1.56207 1.04686,-2.51887 1.16684,-2.52334c0.04,-0.00149 1.3319,-0.29901 1.37193,-0.29901c0,0 0.99162,0.11153 1.45661,0.87364c0.50054,0.8204 0.70132,0.36634 0.70132,1.65162z" data-paper-data="{&quot;origPos&quot;:null}" fill="#a86f20" stroke="#000000" stroke-width="1" stroke-linecap="butt"/><path d="M247.31041,196.89633c0,1.37232 -1.19455,1.53317 -2.53766,1.53317c-0.16399,0 0.27248,0.00162 0.10849,0.00373c-0.49194,0.00631 -1.48307,-0.45636 -1.48307,-1.21971c0,-1.66786 0.87201,-2.68945 0.97194,-2.69421c0.03331,-0.00159 1.10943,-0.31927 1.14279,-0.31927c0,0 0.82601,0.11907 1.21333,0.93279c0.41693,0.87597 0.58419,0.39116 0.58419,1.76348z" data-paper-data="{&quot;origPos&quot;:null}" fill="#a86f20" stroke="#000000" stroke-width="1" stroke-linecap="butt"/><path d="M244.15676,197.55756c0,0.83704 -0.99135,0.93514 -2.10598,0.93514c-0.1361,0 0.22613,0.00099 0.09004,0.00227c-0.40825,0.00385 -1.23078,-0.27835 -1.23078,-0.74395c0,-1.0173 0.72367,-1.6404 0.80661,-1.64331c0.02764,-0.00097 0.92072,-0.19473 0.94839,-0.19473c0,0 0.6855,0.07262 1.00694,0.56895c0.34601,0.53428 0.48482,0.23859 0.48482,1.07563z" data-paper-data="{&quot;origPos&quot;:null}" fill="#a86f20" stroke="#000000" stroke-width="1" stroke-linecap="butt"/><path d="M238.59713,197.13183c0,0.9706 -1.2127,1.08438 -2.57625,1.08438c-0.16648,0 0.27662,0.00115 0.11014,0.00263c-0.49942,0.00447 -1.50561,-0.32278 -1.50561,-0.86267c0,-1.17962 0.88527,-1.90217 0.98672,-1.90554c0.03382,-0.00113 1.12631,-0.22581 1.16016,-0.22581c0,0 0.83857,0.08422 1.23177,0.65975c0.42328,0.61954 0.59308,0.27666 0.59308,1.24726z" data-paper-data="{&quot;origPos&quot;:null}" fill="#a86f20" stroke="#000000" stroke-width="1" stroke-linecap="butt"/><path d="M222.70475,194.73202c0,1.64748 -1.60517,1.8406 -3.40996,1.8406c-0.22036,0 0.36613,0.00194 0.14579,0.00447c-0.66103,0.00758 -1.99286,-0.54788 -1.99286,-1.46427c0,-2.00228 1.17174,-3.22871 1.30604,-3.23443c0.04477,-0.00191 1.49078,-0.38329 1.5356,-0.38329c0,0 1.10994,0.14294 1.63039,1.11984c0.56026,1.0516 0.785,0.46959 0.785,2.11709z" data-paper-data="{&quot;origPos&quot;:null}" fill="#a86f20" stroke="#000000" stroke-width="1" stroke-linecap="butt"/><path d="M224.81829,196.50932c0,1.64748 -1.43408,1.84059 -3.0465,1.84059c-0.19689,0 0.32712,0.00196 0.13025,0.00449c-0.59058,0.00758 -1.78045,-0.54788 -1.78045,-1.46427c0,-2.00228 1.04685,-3.22871 1.16683,-3.23445c0.04,-0.00191 1.3319,-0.38327 1.37193,-0.38327c0,0 0.99164,0.14294 1.45661,1.11984c0.50054,1.0516 0.70132,0.46958 0.70132,2.11708z" data-paper-data="{&quot;origPos&quot;:null}" fill="#a86f20" stroke="#000000" stroke-width="1" stroke-linecap="butt"/><path d="M241.18837,197.51759c0,1.11614 -1.12918,1.24696 -2.39882,1.24696c-0.15501,0 0.25756,0.00133 0.10257,0.00303c-0.46502,0.00513 -1.40194,-0.37116 -1.40194,-0.992c0,-0.59965 0.78206,-1.12091 1.21077,-1.59371c0.43873,-0.48383 0.07501,-0.85723 0.78825,-0.85723c0,0 1.69917,1.07681 1.69917,2.19293z" data-paper-data="{&quot;origPos&quot;:null}" fill="#a86f20" stroke="#000000" stroke-width="1" stroke-linecap="butt"/><path d="M210.24291,195.39618c0,-7.03483 0,-24.60261 0,-28.875c0,-1.82619 1.24126,-3.66973 2.85773,-3.66973c5.28449,0 41.62396,0 52.625,0c1.98825,0 3.14884,1.77216 3.14884,3.54473c0,4.20683 0,21.72647 0,28.875c0,1.89192 -1.11237,3.05741 -3.02384,3.05741c-10.61415,0 -45.86807,0 -52.125,0c-1.85553,0 -3.48273,-1.11453 -3.48273,-2.93241z" data-paper-data="{&quot;origPos&quot;:null}" fill="none" stroke="#cdcdcd" stroke-width="2" stroke-linecap="butt"/><g fill="#ffffff" stroke-linecap="butt" font-family="Sans Serif" font-weight="normal" font-size="40" text-anchor="start"><text transform="translate(253.0298,195.74549) scale(0.27944,0.27944)" font-size="40" xml:space="preserve" fill="#ffffff" fill-rule="nonzero" stroke="#000000" stroke-width="6" stroke-linecap="butt" stroke-linejoin="miter" stroke-miterlimit="10" stroke-dasharray="" stroke-dashoffset="0" font-family="Sans Serif" font-weight="normal" text-anchor="start" style="mix-blend-mode: normal"><tspan x="0" dy="0">25</tspan></text><text transform="translate(253.02979,195.74549) scale(0.27944,0.27944)" font-size="40" xml:space="preserve" fill="#ffffff" fill-rule="nonzero" stroke="none" stroke-width="1" stroke-linecap="butt" stroke-linejoin="miter" stroke-miterlimit="10" stroke-dasharray="" stroke-dashoffset="0" font-family="Sans Serif" font-weight="normal" text-anchor="start" style="mix-blend-mode: normal"><tspan x="0" dy="0">25</tspan></text></g></g></g></svg>