<svg version="1.1" xmlns="http://www.w3.org/2000/svg" xmlns:xlink="http://www.w3.org/1999/xlink" width="468.82459" height="182.53125" viewBox="0,0,468.82459,182.53125"><defs><radialGradient cx="406.08643" cy="145.87354" r="45.5" gradientUnits="userSpaceOnUse" id="color-1"><stop offset="0" stop-color="#6582ce"/><stop offset="1" stop-color="#6582ce" stop-opacity="0"/></radialGradient><radialGradient cx="406.32833" cy="146.01716" r="31.28871" gradientUnits="userSpaceOnUse" id="color-2"><stop offset="0" stop-color="#4764ad"/><stop offset="1" stop-color="#4764ad" stop-opacity="0"/></radialGradient><radialGradient cx="406.62917" cy="146.19574" r="13.61417" gradientUnits="userSpaceOnUse" id="color-3"><stop offset="0" stop-color="#335ba5"/><stop offset="1" stop-color="#335ba5" stop-opacity="0"/></radialGradient><radialGradient cx="406.76739" cy="146.27785" r="5.49344" gradientUnits="userSpaceOnUse" id="color-4"><stop offset="0" stop-color="#ffffff"/><stop offset="1" stop-color="#375e9c"/></radialGradient><linearGradient x1="122.68085" y1="171.51867" x2="122.68085" y2="208.47024" gradientUnits="userSpaceOnUse" id="color-5"><stop offset="0" stop-color="#51320d"/><stop offset="1" stop-color="#b7710a"/></linearGradient><linearGradient x1="58.17143" y1="135.85217" x2="58.17143" y2="223.18394" gradientUnits="userSpaceOnUse" id="color-6"><stop offset="0" stop-color="#51320d"/><stop offset="1" stop-color="#b7710a"/></linearGradient><linearGradient x1="56.50001" y1="132.40103" x2="56.50001" y2="155.33855" gradientUnits="userSpaceOnUse" id="color-7"><stop offset="0" stop-color="#b1d930"/><stop offset="1" stop-color="#7bd930"/></linearGradient><linearGradient x1="121.97364" y1="170.05843" x2="121.97364" y2="179.76373" gradientUnits="userSpaceOnUse" id="color-8"><stop offset="0" stop-color="#b1d930"/><stop offset="1" stop-color="#7bd930"/></linearGradient><linearGradient x1="60.70433" y1="141.57889" x2="60.70433" y2="152.62248" gradientUnits="userSpaceOnUse" id="color-9"><stop offset="0" stop-color="#1eb600"/><stop offset="1" stop-color="#24d800"/></linearGradient><linearGradient x1="154.42929" y1="230.85204" x2="154.42929" y2="267.8035" gradientUnits="userSpaceOnUse" id="color-10"><stop offset="0" stop-color="#51320d"/><stop offset="1" stop-color="#b7710a"/></linearGradient><linearGradient x1="155.1365" y1="229.3918" x2="155.1365" y2="239.09702" gradientUnits="userSpaceOnUse" id="color-11"><stop offset="0" stop-color="#b1d930"/><stop offset="1" stop-color="#7bd930"/></linearGradient><linearGradient x1="224.68085" y1="190.18538" x2="224.68085" y2="227.13687" gradientUnits="userSpaceOnUse" id="color-12"><stop offset="0" stop-color="#51320d"/><stop offset="1" stop-color="#b7710a"/></linearGradient><linearGradient x1="223.97364" y1="188.72508" x2="223.97364" y2="198.43039" gradientUnits="userSpaceOnUse" id="color-13"><stop offset="0" stop-color="#b1d930"/><stop offset="1" stop-color="#7bd930"/></linearGradient><linearGradient x1="306.68084" y1="215.18538" x2="306.68084" y2="252.13687" gradientUnits="userSpaceOnUse" id="color-14"><stop offset="0" stop-color="#51320d"/><stop offset="1" stop-color="#b7710a"/></linearGradient><linearGradient x1="305.97364" y1="213.72508" x2="305.97364" y2="223.43039" gradientUnits="userSpaceOnUse" id="color-15"><stop offset="0" stop-color="#b1d930"/><stop offset="1" stop-color="#7bd930"/></linearGradient><linearGradient x1="373.7525" y1="235.90182" x2="473.84846" y2="235.90182" gradientUnits="userSpaceOnUse" id="color-16"><stop offset="0" stop-color="#774a13"/><stop offset="1" stop-color="#c0930a"/></linearGradient><linearGradient x1="423.97174" y1="172.42545" x2="423.97174" y2="219.17501" gradientUnits="userSpaceOnUse" id="color-17"><stop offset="0" stop-color="#fff752"/><stop offset="1" stop-color="#bed930"/></linearGradient><linearGradient x1="349.03509" y1="232.09128" x2="338.0681" y2="230.18977" gradientUnits="userSpaceOnUse" id="color-18"><stop offset="0" stop-color="#f39a00"/><stop offset="1" stop-color="#fdd289"/></linearGradient></defs><g transform="translate(-8.76812,-100.83337)"><g data-paper-data="{&quot;isPaintingLayer&quot;:true}" fill-rule="nonzero" stroke-linejoin="miter" stroke-miterlimit="10" stroke-dasharray="" stroke-dashoffset="0" style="mix-blend-mode: normal"><path d="M361.3609,146.33337c0,-25.12896 20.37104,-45.5 45.5,-45.5c25.12896,0 45.5,20.37104 45.5,45.5c0,25.12895 -20.37104,45.5 -45.5,45.5c-25.12896,0 -45.5,-20.37105 -45.5,-45.5z" data-paper-data="{&quot;origPos&quot;:null}" fill="url(#color-1)" stroke="none" stroke-width="0" stroke-linecap="butt"/><path d="M375.57219,146.33337c0,-17.28028 14.00843,-31.28872 31.28871,-31.28872c17.28028,0 31.28871,14.00844 31.28871,31.28872c0,17.28028 -14.00843,31.28871 -31.28871,31.28871c-17.28028,0 -31.28871,-14.00843 -31.28871,-31.28871z" data-paper-data="{&quot;origPos&quot;:null}" fill="url(#color-2)" stroke="none" stroke-width="0" stroke-linecap="butt"/><path d="M393.24673,146.33337c0,-7.5189 6.09527,-13.61418 13.61417,-13.61418c7.5189,0 13.61417,6.09528 13.61417,13.61418c0,7.5189 -6.09528,13.61417 -13.61417,13.61417c-7.5189,0 -13.61417,-6.09527 -13.61417,-13.61417z" data-paper-data="{&quot;origPos&quot;:null}" fill="url(#color-3)" stroke="none" stroke-width="0" stroke-linecap="butt"/><path d="M401.36746,146.33337c0,-3.03394 2.4595,-5.49344 5.49344,-5.49344c3.03394,0 5.49344,2.4595 5.49344,5.49344c0,3.03394 -2.4595,5.49344 -5.49344,5.49344c-3.03394,0 -5.49344,-2.4595 -5.49344,-5.49344z" data-paper-data="{&quot;origPos&quot;:null}" fill="url(#color-4)" stroke="none" stroke-width="0" stroke-linecap="butt"/><path d="M382.55954,125.85118l-0.37333,-1.80273l2.69945,-0.84973l0.37333,1.80272z" data-paper-data="{&quot;origRot&quot;:0,&quot;origPos&quot;:null}" fill="#5473b6" stroke="#19135f" stroke-width="3" stroke-linecap="butt"/><path d="M381.14854,130.2779c-0.5038,-2.51901 0.75285,-4.89408 2.80681,-5.30487c2.05396,-0.41079 4.12743,1.29825 4.63124,3.81726c0.5038,2.51901 -0.75285,4.89408 -2.80681,5.30487c-2.05396,0.41079 -4.12743,-1.29825 -4.63123,-3.81726z" data-paper-data="{&quot;origPos&quot;:null,&quot;origRot&quot;:0}" fill="#dcdde0" stroke="#19135f" stroke-width="1" stroke-linecap="butt"/><path d="M386.79969,130.60751l-1.86056,-0.42936l-0.85872,-2.28992" data-paper-data="{&quot;origPos&quot;:null}" fill="none" stroke="#19135f" stroke-width="0.5" stroke-linecap="round"/><path d="M381.15146,124.27686l-0.66703,-1.15814l4.82314,-0.5459l0.66703,1.15814z" data-paper-data="{&quot;origRot&quot;:0,&quot;origPos&quot;:null}" fill="#5473b6" stroke="#19135f" stroke-width="0.5" stroke-linecap="butt"/><path d="M422.95058,168.19167l0.87527,-5.79146l-3.90465,-4.36586l4.77992,-1.42559l-0.7259,5.7469l3.75527,4.41042z" data-paper-data="{&quot;origPos&quot;:null,&quot;origRot&quot;:0}" fill="#7d8dc5" stroke="#313c82" stroke-width="1" stroke-linecap="butt"/><path d="M419.21889,158.40643l-0.31185,-1.0456l6.27364,-1.87109l0.31185,1.04561z" data-paper-data="{&quot;origPos&quot;:null,&quot;origRot&quot;:0}" fill="#4d64b7" stroke="#313c82" stroke-width="0.5" stroke-linecap="butt"/><path d="M422.41112,169.16093l-0.31185,-1.04561l6.27364,-1.87108l0.31185,1.0456z" data-paper-data="{&quot;origPos&quot;:null,&quot;origRot&quot;:0}" fill="#4d64b7" stroke="#313c82" stroke-width="0.5" stroke-linecap="butt"/><path d="M104.65652,172.14222l7.70296,7.33319l25.97577,-1.74705l-1.16756,4.34674l-1.42002,3.02464l-3.36311,3.54655l-3.02985,3.61587l-2.09356,3.25684l-2.86846,3.37056l-2.05674,3.923l-3.77594,-2.85029l-2.08859,-1.94773l-1.70978,-4.78027l-3.33955,-4.42091l-1.52162,-3.46813l-2.46094,-5.36136z" data-paper-data="{&quot;origPos&quot;:null}" fill="url(#color-5)" stroke="#000000" stroke-width="1" stroke-linecap="butt"/><text transform="translate(117.50002,158.7081) scale(0.30591,0.30591)" font-size="40" xml:space="preserve" data-paper-data="{&quot;origPos&quot;:null}" fill="#ffffff" fill-rule="nonzero" stroke="none" stroke-width="1" stroke-linecap="butt" stroke-linejoin="miter" stroke-miterlimit="10" stroke-dasharray="" stroke-dashoffset="0" font-family="Sans Serif" font-weight="normal" text-anchor="start" style="mix-blend-mode: normal"><tspan x="0" dy="0">1</tspan></text><path d="M145.83334,228.61987l-18,-47" data-paper-data="{&quot;origPos&quot;:null}" fill="none" stroke="#c7e4ff" stroke-width="2" stroke-linecap="round"/><path d="M12.62522,135.85217l21.15256,18.80497l68.26845,-1.67291l-9.6364,7.81708l-3.35609,7.14849l-4.10953,3.99042l-10.3037,9.95945l-5.64395,10.67513l-6.77935,7.96604l-4.86093,9.27168l-4.40666,-10.94584l-5.24542,-7.00696l-5.02305,-4.54709l-3.53583,-6.84548l-2.39111,-5.26826l-8.39046,-11.63207l-5.14577,-9.06141z" data-paper-data="{&quot;origPos&quot;:null}" fill="url(#color-6)" stroke="#000000" stroke-width="2" stroke-linecap="butt"/><path d="M67.50001,155.95317l41,14" data-paper-data="{&quot;origPos&quot;:null}" fill="none" stroke="#c7e4ff" stroke-width="2" stroke-linecap="round"/><path d="M26.64705,151.7788c-5.89613,-6.28065 -11.9837,-12.76525 -15.10808,-16.09339c-1.04146,-1.10938 -0.70649,-2.85548 0.54936,-2.86369c25.11827,-0.16417 61.13309,-0.39956 64.36243,-0.42066c1.07645,-0.00704 3.59177,0.71129 4.12525,1.17809c1.60045,1.40039 12.60174,11.02652 20.6675,18.08406c1.44803,1.26702 0.82444,3.2643 -0.42702,3.27197c0,0 -59.82122,0.367 -65.74171,0.40332c-1.97349,0.01211 -7.11219,-2.15837 -8.42772,-3.5597z" data-paper-data="{&quot;origPos&quot;:null}" fill="url(#color-7)" stroke="#000000" stroke-width="2" stroke-linecap="butt"/><path d="M116.16168,166.45666c6.92263,-0.04524 15.7732,3.90275 15.99893,4.10026c0.22573,0.19751 3.04576,2.37926 6.45851,5.36542c3.41276,2.98616 -6.01318,6.22477 -12.27382,6.26318c-5.26102,0.03228 -15.50729,-2.36193 -16.58726,-3.51234c0,0 -7.66051,-6.36479 -5.1531,-8.76799c0,0 9.2492,-3.43346 11.55674,-3.44854z" data-paper-data="{&quot;origPos&quot;:null}" fill="url(#color-8)" stroke="#000000" stroke-width="1" stroke-linecap="butt"/><path d="M25.99658,133.46222l0.10776,-22.64483l9.50291,4.60403l39.69624,-0.83571l-1.25356,24.7265c0,0 -36.88125,0.76044 -38.85021,0.80104c-0.65631,0.01353 -9.20313,-6.65101 -9.20313,-6.65101z" data-paper-data="{&quot;origPos&quot;:null}" fill="#fffe86" stroke="#000000" stroke-width="2" stroke-linecap="butt"/><path d="M46.33124,150.90864c-2.83877,-3.02391 -5.76971,-6.14599 -7.27399,-7.74838c-0.50142,-0.53413 -0.34015,-1.37481 0.2645,-1.37876c12.09352,-0.07904 29.43332,-0.19237 30.98813,-0.20253c0.51827,-0.00339 1.7293,0.34245 1.98615,0.5672c0.77056,0.67424 6.06728,5.30887 9.95064,8.70681c0.69717,0.61003 0.39693,1.57164 -0.2056,1.57533c0,0 -28.80171,0.1767 -31.6522,0.19418c-0.95016,0.00583 -3.42426,-1.03918 -4.05763,-1.71385z" data-paper-data="{&quot;origPos&quot;:null}" fill="url(#color-9)" stroke="#000000" stroke-width="1.5" stroke-linecap="butt"/><path d="M28.08586,117.4666l-7.93925,-5.01426l9.61067,-9.19281l40.11409,-0.83571l10.86424,14.20708z" data-paper-data="{&quot;origPos&quot;:null}" fill="#ce1c1c" stroke="#000000" stroke-width="2" stroke-linecap="butt"/><path d="M51.48575,139.61287v-12.53566l8.77496,-0.27857v12.81422z" data-paper-data="{&quot;origPos&quot;:null}" fill="#cf951d" stroke="#000000" stroke-width="1.5" stroke-linecap="butt"/><path d="M39.08937,126.93798c0,-2.07698 1.68372,-3.76069 3.76069,-3.76069c2.07697,0 3.7607,1.68372 3.7607,3.76069c0,2.07697 -1.68373,3.7607 -3.7607,3.7607c-2.07697,0 -3.76069,-1.68373 -3.76069,-3.7607z" data-paper-data="{&quot;origPos&quot;:null}" fill="#e2feff" stroke="#000000" stroke-width="1" stroke-linecap="butt"/><path d="M63.74283,126.52013c0,-2.07698 1.68371,-3.76069 3.76069,-3.76069c2.07698,0 3.7607,1.68372 3.7607,3.76069c0,2.07697 -1.68372,3.7607 -3.7607,3.7607c-2.07698,0 -3.76069,-1.68373 -3.76069,-3.7607z" data-paper-data="{&quot;origPos&quot;:null}" fill="#e2feff" stroke="#000000" stroke-width="1" stroke-linecap="butt"/><path d="M27.80729,124.70943v-4.73569l3.7607,1.94998l-0.13929,4.87498z" data-paper-data="{&quot;origPos&quot;:null}" fill="#e2feff" stroke="#000000" stroke-width="0.5" stroke-linecap="butt"/><path d="M85.73741,148.21499v-7.70015h1.61553v7.70015z" data-paper-data="{&quot;origPos&quot;:null}" fill="#c7a12e" stroke="#000000" stroke-width="0.5" stroke-linecap="butt"/><path d="M78.31333,134.72724l0.26718,-0.41889l4.40259,2.80817l-0.26718,0.4189z" data-paper-data="{&quot;origRot&quot;:0,&quot;origPos&quot;:null}" fill="#ff9292" stroke="#000000" stroke-width="0.5" stroke-linecap="butt"/><path d="M90.22593,137.23789c0,0.43177 0,2.00322 0,3.5403c0,0.16119 -0.42057,0.59005 -0.6048,0.59005c-0.55266,0 -6.97268,0 -6.97268,0v-4.7204c0,0 6.39849,0 6.89116,0c0.16422,0 0.68632,0.44613 0.68632,0.59005z" data-paper-data="{&quot;origPos&quot;:null,&quot;origRot&quot;:0}" fill="#ff9292" stroke="#000000" stroke-width="0.5" stroke-linecap="butt"/><path d="M169.67061,239.31721l-2.46094,5.36136l-1.52162,3.46813l-3.33955,4.42091l-1.70978,4.78027l-2.08859,1.94773l-3.77594,2.85029l-2.05674,-3.923l-2.86846,-3.37056l-2.09356,-3.25684l-3.02985,-3.61587l-3.36311,-3.54655l-1.42002,-3.02464l-1.16756,-4.34674l25.97577,1.74705l7.70296,-7.33319z" data-paper-data="{&quot;origPos&quot;:null,&quot;index&quot;:null}" fill="url(#color-10)" stroke="#000000" stroke-width="1" stroke-linecap="butt"/><text transform="translate(151.16668,218.04152) scale(0.30591,0.30591)" font-size="40" xml:space="preserve" data-paper-data="{&quot;origPos&quot;:null}" fill="#ffffff" fill-rule="nonzero" stroke="none" stroke-width="1" stroke-linecap="butt" stroke-linejoin="miter" stroke-miterlimit="10" stroke-dasharray="" stroke-dashoffset="0" font-family="Sans Serif" font-weight="normal" text-anchor="start" style="mix-blend-mode: normal"><tspan x="0" dy="0">2</tspan></text><path d="M160.94846,225.78999c2.30754,0.01508 11.55674,3.44854 11.55674,3.44854c2.50741,2.4032 -5.1531,8.76799 -5.1531,8.76799c-1.07997,1.15041 -11.32624,3.54462 -16.58726,3.51234c-6.26064,-0.03841 -15.68658,-3.27702 -12.27382,-6.26318c3.41275,-2.98616 6.23278,-5.16791 6.45851,-5.36542c0.22573,-0.19751 9.0763,-4.1455 15.99893,-4.10026z" data-paper-data="{&quot;origPos&quot;:null,&quot;index&quot;:null}" fill="url(#color-11)" stroke="#000000" stroke-width="1" stroke-linecap="butt"/><path d="M206.65652,190.80888l7.70296,7.33319l25.97577,-1.74705l-1.16756,4.34674l-1.42002,3.02464l-3.36311,3.54655l-3.02985,3.61587l-2.09356,3.25684l-2.86846,3.37056l-2.05674,3.923l-3.77594,-2.85029l-2.08859,-1.94773l-1.70978,-4.78027l-3.33955,-4.42091l-1.52162,-3.46813l-2.46094,-5.36136z" data-paper-data="{&quot;origPos&quot;:null}" fill="url(#color-12)" stroke="#000000" stroke-width="1" stroke-linecap="butt"/><text transform="translate(219.50002,177.3748) scale(0.30591,0.30591)" font-size="40" xml:space="preserve" data-paper-data="{&quot;origPos&quot;:null}" fill="#ffffff" fill-rule="nonzero" stroke="none" stroke-width="1" stroke-linecap="butt" stroke-linejoin="miter" stroke-miterlimit="10" stroke-dasharray="" stroke-dashoffset="0" font-family="Sans Serif" font-weight="normal" text-anchor="start" style="mix-blend-mode: normal"><tspan x="0" dy="0">3</tspan></text><path d="M218.16168,185.12336c6.92263,-0.04524 15.7732,3.90275 15.99893,4.10026c0.22573,0.19751 3.04576,2.37926 6.45851,5.36542c3.41276,2.98616 -6.01318,6.22477 -12.27382,6.26318c-5.26102,0.03228 -15.50729,-2.36193 -16.58726,-3.51234c0,0 -7.66051,-6.36479 -5.1531,-8.76799c0,0 9.2492,-3.43346 11.55674,-3.44854z" data-paper-data="{&quot;origPos&quot;:null}" fill="url(#color-13)" stroke="#000000" stroke-width="1" stroke-linecap="butt"/><path d="M210.83335,196.95321l-37.33334,35.66667" data-paper-data="{&quot;origPos&quot;:null,&quot;index&quot;:null}" fill="none" stroke="#c7e4ff" stroke-width="2" stroke-linecap="round"/><path d="M290.16667,217.95321l-50,-20" data-paper-data="{&quot;origPos&quot;:null,&quot;index&quot;:null}" fill="none" stroke="#c7e4ff" stroke-width="2" stroke-linecap="round"/><path d="M288.65652,215.80888l7.70296,7.33319l25.97577,-1.74705l-1.16756,4.34674l-1.42002,3.02464l-3.36311,3.54655l-3.02985,3.61587l-2.09356,3.25684l-2.86846,3.37056l-2.05674,3.923l-3.77594,-2.85029l-2.08859,-1.94773l-1.70978,-4.78027l-3.33955,-4.42091l-1.52162,-3.46813l-2.46094,-5.36136z" data-paper-data="{&quot;origPos&quot;:null}" fill="url(#color-14)" stroke="#000000" stroke-width="1" stroke-linecap="butt"/><path d="M322.16668,218.45321l52.25,-21.25" data-paper-data="{&quot;origPos&quot;:null,&quot;index&quot;:null}" fill="none" stroke="#c7e4ff" stroke-width="2" stroke-linecap="round"/><text transform="translate(301.50002,202.04151) scale(0.30591,0.30591)" font-size="40" xml:space="preserve" data-paper-data="{&quot;origPos&quot;:null}" fill="#ffffff" fill-rule="nonzero" stroke="none" stroke-width="1" stroke-linecap="butt" stroke-linejoin="miter" stroke-miterlimit="10" stroke-dasharray="" stroke-dashoffset="0" font-family="Sans Serif" font-weight="normal" text-anchor="start" style="mix-blend-mode: normal"><tspan x="0" dy="0">4</tspan></text><path d="M300.16168,210.12336c6.92263,-0.04524 15.7732,3.90275 15.99893,4.10026c0.22573,0.19751 3.04576,2.37926 6.45851,5.36542c3.41276,2.98616 -6.01318,6.22477 -12.27382,6.26318c-5.26102,0.03228 -15.50729,-2.36193 -16.58726,-3.51234c0,0 -7.66051,-6.36479 -5.1531,-8.76799c0,0 9.2492,-3.43346 11.55674,-3.44854z" data-paper-data="{&quot;origPos&quot;:null}" fill="url(#color-15)" stroke="#000000" stroke-width="1" stroke-linecap="butt"/><path d="M373.7525,190.32445l22.89383,21.79485l77.20213,-5.19237l-3.47008,12.91887l-4.22042,8.98947l-9.99544,10.54064l-9.00496,10.74667l-6.22223,9.6796l-8.5253,10.01758l-6.1128,11.65948l-11.2224,-8.47129l-6.20746,-5.78881l-5.08161,-14.20736l-9.92542,-13.13931l-4.52238,-10.30756l-7.31411,-15.9344z" data-paper-data="{&quot;origPos&quot;:null}" fill="url(#color-16)" stroke="#000000" stroke-width="2.5" stroke-linecap="butt"/><path d="M407.44678,172.4266c20.57463,-0.13446 46.87925,11.59929 47.55014,12.18631c0.67089,0.58702 9.05225,7.07136 19.19522,15.94647c10.14301,8.87511 -17.87167,18.50052 -36.47881,18.61468c-15.63619,0.09594 -46.08894,-7.01985 -49.2987,-10.43896c0,0 -22.76766,-18.91667 -15.31543,-26.05918c0,0 27.48938,-10.20453 34.34758,-10.24935z" data-paper-data="{&quot;origPos&quot;:null}" fill="url(#color-17)" stroke="#000000" stroke-width="2.5" stroke-linecap="butt"/><g data-paper-data="{&quot;origPos&quot;:null,&quot;origRot&quot;:0}" stroke-linecap="butt"><path d="M156.10356,175.88043l-1.31492,-3.29536l7.61071,-3.03685l1.31492,3.29536z" data-paper-data="{&quot;origPos&quot;:null}" fill="#c07a00" stroke="#000000" stroke-width="2"/><path d="M162.31398,177.7681l-3.13077,-7.84609l7.61071,-3.03685l3.13077,7.84609z" data-paper-data="{&quot;origPos&quot;:null}" fill="#c07a00" stroke="#000000" stroke-width="2"/><path d="M166.81625,163.26556c1.01984,2.55584 -0.44773,5.54324 -3.2779,6.67254c-2.83017,1.1293 -5.95122,-0.02714 -6.97106,-2.58298c-1.01984,-2.55584 0.44772,-5.54324 3.2779,-6.67254c2.83017,-1.1293 5.95122,0.02714 6.97106,2.58298z" data-paper-data="{&quot;origPos&quot;:null}" fill="#b2b2b2" stroke="#000000" stroke-width="2"/><path d="M160.89248,163.94831c0.25936,0.64999 0.04149,1.34775 -0.48663,1.55848c-0.52812,0.21073 -1.1665,-0.14536 -1.42586,-0.79535c-0.25936,-0.64999 -0.04149,-1.34775 0.48663,-1.55848c0.52812,-0.21073 1.1665,0.14536 1.42586,0.79535z" data-paper-data="{&quot;origPos&quot;:null}" fill="#ff0000" stroke="none" stroke-width="0"/><path d="M158.52095,164.95716c0.23235,0.58229 0.04746,1.20325 -0.41295,1.38696c-0.46041,0.18372 -1.022,-0.13939 -1.25434,-0.72167c-0.23235,-0.58229 -0.04746,-1.20325 0.41295,-1.38696c0.46041,-0.18372 1.022,0.13939 1.25434,0.72168z" data-paper-data="{&quot;origPos&quot;:null}" fill="#ff0000" stroke="none" stroke-width="0"/><path d="M165.39836,184.81412l-2.72377,-6.8261l3.13844,-1.25231l2.72377,6.8261z" data-paper-data="{&quot;origPos&quot;:null}" fill="#4c517f" stroke="#000000" stroke-width="2"/><path d="M169.32141,183.24872l-2.75508,-6.90456l3.13844,-1.25231l2.75508,6.90456z" data-paper-data="{&quot;origPos&quot;:null}" fill="#4c517f" stroke="#000000" stroke-width="2"/><path d="M158.04924,175.28596l-1.31492,-3.29536l7.61071,-3.03685l1.31492,3.29536z" data-paper-data="{&quot;origPos&quot;:null}" fill="#c07a00" stroke="#000000" stroke-width="2"/></g><g data-paper-data="{&quot;index&quot;:null,&quot;origRot&quot;:0,&quot;origPos&quot;:null}" stroke-linecap="butt"><path d="M342.65352,249.50786l0.65421,-3.77319l8.71426,1.51092l-0.65421,3.77319z" data-paper-data="{&quot;origPos&quot;:null}" fill="#c07a00" stroke="#000000" stroke-width="2"/><path d="M336.51558,252.8855l1.55765,-8.98378l8.71426,1.51092l-1.55765,8.98378z" data-paper-data="{&quot;origPos&quot;:null}" fill="#c07a00" stroke="#000000" stroke-width="2"/><path d="M344.02922,235.80271c3.24055,0.56186 5.4562,3.38969 4.9488,6.31613c-0.5074,2.92644 -3.54571,4.84331 -6.78626,4.28145c-3.24055,-0.56186 -5.4562,-3.38969 -4.9488,-6.31613c0.5074,-2.92644 3.54571,-4.84331 6.78626,-4.28145z" data-paper-data="{&quot;origPos&quot;:null}" fill="#b2b2b2" stroke="#000000" stroke-width="2"/><path d="M344.97959,238.32723c0.60469,0.10484 0.99029,0.79317 0.86125,1.53741c-0.12904,0.74424 -0.72385,1.26257 -1.32855,1.15773c-0.60469,-0.10484 -0.99029,-0.79317 -0.86125,-1.53741c0.12904,-0.74424 0.72385,-1.26257 1.32855,-1.15773z" data-paper-data="{&quot;origPos&quot;:null}" fill="#ff0000" stroke="none" stroke-width="0"/><path d="M347.54422,238.9801c0.52717,0.0914 0.86082,0.70598 0.74522,1.3727c-0.1156,0.66672 -0.63666,1.1331 -1.16384,1.04169c-0.52717,-0.0914 -0.86082,-0.70598 -0.74522,-1.3727c0.1156,-0.66672 0.63666,-1.1331 1.16384,-1.04169z" data-paper-data="{&quot;origPos&quot;:null}" fill="#ff0000" stroke="none" stroke-width="0"/><path d="M339.94936,261.90187l1.35516,-7.81589l3.59351,0.62306l-1.35516,7.81589z" data-paper-data="{&quot;origPos&quot;:null}" fill="#4c517f" stroke="#000000" stroke-width="2"/><path d="M335.45747,261.12304l1.37074,-7.90572l3.59351,0.62306l-1.37074,7.90572z" data-paper-data="{&quot;origPos&quot;:null}" fill="#4c517f" stroke="#000000" stroke-width="2"/><path d="M340.46626,249.31371l0.65421,-3.77319l8.71426,1.51092l-0.65421,3.77319z" data-paper-data="{&quot;origPos&quot;:null}" fill="#c07a00" stroke="#000000" stroke-width="2"/><path d="M336.76678,237.69509l0.4779,-1.19574c0,0 1.18576,-0.2263 1.32291,-0.70015c0.4348,-1.50227 2.19702,-7.59096 3.60322,-12.44957c0.07087,-0.24486 0.28141,-0.16242 0.34291,0.02908c1.56869,4.88477 3.67875,11.32707 4.06095,12.50327c0.13215,0.40669 1.24682,0.53827 1.24682,0.53827l0.27176,1.10311z" data-paper-data="{&quot;origPos&quot;:null,&quot;origRot&quot;:0}" fill="url(#color-18)" stroke="#000000" stroke-width="2"/></g><text transform="translate(416,178.16668) scale(0.36999,0.36999)" font-size="40" xml:space="preserve" data-paper-data="{&quot;origPos&quot;:null}" fill="#ffffff" fill-rule="nonzero" stroke="none" stroke-width="1" stroke-linecap="butt" stroke-linejoin="miter" stroke-miterlimit="10" stroke-dasharray="" stroke-dashoffset="0" font-family="Sans Serif" font-weight="normal" text-anchor="start" style="mix-blend-mode: normal"><tspan x="0" dy="0">5</tspan></text></g></g></svg>