<svg version="1.1" xmlns="http://www.w3.org/2000/svg" xmlns:xlink="http://www.w3.org/1999/xlink" width="85.08499" height="89.15661" viewBox="0,0,85.08499,89.15661"><defs><linearGradient x1="247.37262" y1="137.28734" x2="268.5993" y2="140.60037" gradientUnits="userSpaceOnUse" id="color-1"><stop offset="0" stop-color="#fff8ad"/><stop offset="1" stop-color="#c9c388"/></linearGradient><linearGradient x1="235.21972" y1="195.51745" x2="255.044" y2="195.51745" gradientUnits="userSpaceOnUse" id="color-2"><stop offset="0" stop-color="#2fe500"/><stop offset="1" stop-color="#51b800"/></linearGradient><linearGradient x1="241.94299" y1="146.46478" x2="275.23318" y2="165.19791" gradientUnits="userSpaceOnUse" id="color-3"><stop offset="0" stop-color="#fff8ad"/><stop offset="1" stop-color="#c9c388"/></linearGradient><linearGradient x1="227.55398" y1="132.44609" x2="248.61599" y2="135.73339" gradientUnits="userSpaceOnUse" id="color-4"><stop offset="0" stop-color="#fff8ad"/><stop offset="1" stop-color="#c9c388"/></linearGradient><linearGradient x1="212.29677" y1="122.14588" x2="253.55892" y2="142.10681" gradientUnits="userSpaceOnUse" id="color-5"><stop offset="0" stop-color="#fff8ad"/><stop offset="1" stop-color="#c9c388"/></linearGradient><linearGradient x1="197.83515" y1="135.07496" x2="233.21714" y2="140.5973" gradientUnits="userSpaceOnUse" id="color-6"><stop offset="0" stop-color="#fff8ad"/><stop offset="1" stop-color="#c9c388"/></linearGradient><linearGradient x1="237.98986" y1="128.42013" x2="237.54743" y2="151.40993" gradientUnits="userSpaceOnUse" id="color-7"><stop offset="0" stop-color="#00e0ff"/><stop offset="1" stop-color="#00bcc4"/></linearGradient><linearGradient x1="232.54013" y1="143.1499" x2="271.50047" y2="165.71546" gradientUnits="userSpaceOnUse" id="color-8"><stop offset="0" stop-color="#fff8ad"/><stop offset="1" stop-color="#c9c388"/></linearGradient><linearGradient x1="247.52341" y1="146.80384" x2="236.9792" y2="214.36123" gradientUnits="userSpaceOnUse" id="color-9"><stop offset="0" stop-color="#3dff00"/><stop offset="1" stop-color="#ebffd8"/></linearGradient><linearGradient x1="204.97062" y1="143.37649" x2="227.28479" y2="146.85924" gradientUnits="userSpaceOnUse" id="color-10"><stop offset="0" stop-color="#fff8ad"/><stop offset="1" stop-color="#c9c388"/></linearGradient><linearGradient x1="211.03874" y1="197.52546" x2="230.53491" y2="197.52546" gradientUnits="userSpaceOnUse" id="color-11"><stop offset="0" stop-color="#2fe500"/><stop offset="1" stop-color="#51b800"/></linearGradient><linearGradient x1="228.68678" y1="198.69311" x2="249.27753" y2="198.69311" gradientUnits="userSpaceOnUse" id="color-12"><stop offset="0" stop-color="#2fe500"/><stop offset="1" stop-color="#51b800"/></linearGradient><linearGradient x1="230.83424" y1="152.57939" x2="259.88198" y2="157.1131" gradientUnits="userSpaceOnUse" id="color-13"><stop offset="0" stop-color="#fff8ad"/><stop offset="1" stop-color="#c9c388"/></linearGradient><linearGradient x1="219.01653" y1="152.00685" x2="234.13522" y2="154.36654" gradientUnits="userSpaceOnUse" id="color-14"><stop offset="0" stop-color="#fff8ad"/><stop offset="1" stop-color="#c9c388"/></linearGradient></defs><g transform="translate(-195.53192,-115.63917)"><g data-paper-data="{&quot;isPaintingLayer&quot;:true}" fill-rule="nonzero" stroke-linejoin="miter" stroke-miterlimit="10" stroke-dasharray="" stroke-dashoffset="0" style="mix-blend-mode: normal"><path d="M231.26445,193.16737c0.39393,-3.58432 4.72194,-6.17169 9.66687,-5.77909c4.94493,0.3926 9.42647,4.17765 9.03253,7.76197c-0.39393,3.5843 -19.09333,1.60142 -18.6994,-1.98289z" data-paper-data="{&quot;origPos&quot;:null,&quot;origRot&quot;:0,&quot;index&quot;:null}" fill="#25b800" stroke="#000000" stroke-width="2" stroke-linecap="butt"/><path d="M233.48486,194.81008c0.39393,3.58432 -18.30546,5.56719 -18.6994,1.98289c-0.39393,-3.58432 4.0876,-7.36937 9.03253,-7.76197c4.94493,-0.3926 9.27293,2.19477 9.66686,5.77909z" data-paper-data="{&quot;origPos&quot;:null,&quot;origRot&quot;:0}" fill="#25b800" stroke="#000000" stroke-width="2" stroke-linecap="butt"/><path d="M260.25923,135.38313c0,0 -8.23425,3.44593 -8.551,3.45706c-4.89852,0.17199 -6.02569,-0.28672 -0.97409,-10.10745c3.20214,-4.332 9.35028,-8.59401 13.03113,-6.56615c5.26223,2.89905 4.16274,22.55099 4.08242,22.92276c-1.01763,4.7096 0.07958,7.7886 -5.0598,12.20614c-3.38103,2.90616 -2.52866,-21.91234 -2.52866,-21.91234z" data-paper-data="{&quot;origPos&quot;:null,&quot;origRot&quot;:0,&quot;index&quot;:null}" fill="url(#color-1)" stroke="#666349" stroke-width="1.5" stroke-linecap="butt"/><path d="M235.22622,196.53993c0.41696,-3.77324 4.99788,-6.497 10.2318,-6.0837c5.23392,0.4133 9.97736,4.39786 9.5604,8.1711c-0.41696,3.77322 -20.20916,1.68583 -19.7922,-2.08741z" data-paper-data="{&quot;origPos&quot;:null,&quot;origRot&quot;:0,&quot;index&quot;:null}" fill="url(#color-2)" stroke="#000000" stroke-width="2" stroke-linecap="butt"/><path d="M270.50555,154.98268c-2.53964,-2.16861 -9.47117,-6.98708 -9.47117,-6.98708c-9.46007,2.88041 -18.31279,10.2815 -18.62774,10.74614c-4.87084,7.18559 -12.21938,5.54806 -5.42012,-2.88987c4.74056,-5.88307 7.33662,-9.86666 12.46997,-15.41028c2.11239,-2.28122 1.58113,-4.15151 4.55536,-5.05712c5.69811,-1.73498 26.84054,12.40123 25.81929,20.64605c-0.76188,6.15082 -5.97882,1.81002 -9.32562,-1.04781z" data-paper-data="{&quot;origPos&quot;:null,&quot;index&quot;:null,&quot;origRot&quot;:0}" fill="url(#color-3)" stroke="#666349" stroke-width="1.5" stroke-linecap="butt"/><path d="M227.99724,150.14511c-3.54877,-5.77357 -1.56549,-8.37176 -1.09955,-13.16748c0.03679,-0.37855 4.97819,-19.43087 10.87355,-20.58846c4.12375,-0.80973 7.86796,3.70333 10.15799,10.18546c1.81865,10.89303 0.85774,11.02584 -3.7554,9.36928c-0.2983,-0.10711 -7.09083,-5.89839 -7.09083,-5.89839c0,0 -6.75115,23.89784 -9.08578,20.09959z" data-paper-data="{&quot;origPos&quot;:null,&quot;origRot&quot;:0}" fill="url(#color-4)" stroke="#666349" stroke-width="1.5" stroke-linecap="butt"/><path d="M208.92503,131.06459c0.29925,-9.41634 14.94583,-17.17786 24.05784,-12.76985c9.11201,4.40801 11.71331,11.741 17.07246,21.0306c5.41504,9.38648 -2.09821,9.86986 -5.80128,2.01843c-0.23945,-0.50769 -7.84341,-9.18678 -16.74536,-13.49317c0,0 -7.59233,3.69054 -10.43633,5.44107c-3.74787,2.30688 -8.34422,3.96763 -8.14733,-2.22706z" data-paper-data="{&quot;origPos&quot;:null,&quot;origRot&quot;:0}" fill="url(#color-5)" stroke="#666349" stroke-width="1.5" stroke-linecap="butt"/><path d="M200.77022,153.10041c-6.99453,-6.31138 -3.7895,-8.71888 -3.54236,-13.54875c0.01952,-0.38124 6.48463,-19.19575 16.80513,-19.66268c7.21908,-0.32661 11.00298,5.74414 18.11389,7.0313c4.5434,11.3183 1.12261,10.55002 -7.26288,8.30469c-0.54222,-0.14518 -1.38379,-5.51846 -10.42169,-1.50519c-8.01925,3.56093 -9.09063,23.5327 -13.6921,19.38065z" data-paper-data="{&quot;origPos&quot;:null,&quot;origRot&quot;:0}" fill="url(#color-6)" stroke="#666349" stroke-width="1.5" stroke-linecap="butt"/><path d="M255.38677,140.63738c0.37979,5.56061 -8.64864,10.55572 -17.18381,10.39145c-8.53515,-0.16425 -20.4548,-4.56063 -20.34757,-10.13316c0.10723,-5.57254 9.62082,-12.15774 18.15596,-11.99348c8.53515,0.16425 18.97667,5.89739 19.37539,11.73519z" data-paper-data="{&quot;origPos&quot;:null,&quot;origRot&quot;:0}" fill="url(#color-7)" stroke="#244b00" stroke-width="1.5" stroke-linecap="butt"/><path d="M261.52939,164.20777c-1.36239,-3.04902 -5.55331,-10.37704 -5.55331,-10.37704c-9.78039,-1.46079 -20.95341,1.42188 -21.43738,1.70626c-7.4844,4.39788 -13.41783,-0.23646 -3.65407,-4.93726c6.80746,-3.27748 10.86255,-5.76039 17.879,-8.56267c2.88728,-1.15315 3.21061,-3.07036 6.28553,-2.61109c5.89105,0.87989 18.91502,22.72505 14.4524,29.73252c-3.32922,5.22774 -6.17681,-0.93265 -7.97217,-4.95071z" data-paper-data="{&quot;origPos&quot;:null,&quot;index&quot;:null,&quot;origRot&quot;:0}" fill="url(#color-8)" stroke="#666349" stroke-width="1.5" stroke-linecap="butt"/><path d="M227.48052,193.22642c-1.13181,-3.61941 -20.04024,-54.25154 6.73713,-49.79222c25.42789,4.2346 -17.17677,0.33113 10.22675,2.37192c17.93102,1.33537 3.14825,34.76486 -4.49732,47.03881c-7.64557,12.27394 -11.33475,4.00091 -12.46655,0.38149z" data-paper-data="{&quot;origPos&quot;:null,&quot;origRot&quot;:0}" fill="url(#color-9)" stroke="#244b00" stroke-width="1.5" stroke-linecap="butt"/><path d="M205.41899,161.04274c-3.54877,-5.77357 -1.56549,-8.37176 -1.09955,-13.16748c0.03679,-0.37855 4.97819,-19.43087 10.87355,-20.58846c4.12375,-0.80973 8.6019,5.62796 12.55541,6.42232c1.81865,10.89303 -1.5397,14.78898 -6.15282,13.13242c-0.2983,-0.10711 -7.09083,-5.89839 -7.09083,-5.89839c0,0 -6.75115,23.89784 -9.08578,20.09959z" data-paper-data="{&quot;origPos&quot;:null,&quot;origRot&quot;:0}" fill="url(#color-10)" stroke="#666349" stroke-width="1.5" stroke-linecap="butt"/><path d="M236.80931,173.39607c-0.18018,2.64636 -1.4188,4.82258 -2.76647,4.86061c-1.34768,0.0381 -2.2941,-2.07638 -2.11389,-4.72274c0.18018,-2.64636 1.4188,-4.82258 2.76647,-4.86061c1.34768,-0.0381 2.29409,2.07639 2.11387,4.72274z" data-paper-data="{&quot;origPos&quot;:null,&quot;origRot&quot;:0}" fill="#000000" stroke="none" stroke-width="0" stroke-linecap="butt"/><path d="M242.91155,172.23471c-0.15677,1.99261 -1.1065,3.61951 -2.12134,3.63374c-1.01485,0.01425 -1.71046,-1.58951 -1.55374,-3.58217c0.15677,-1.99261 1.10649,-3.61952 2.12134,-3.63374c1.01485,-0.01425 1.7105,1.58953 1.55377,3.58215z" data-paper-data="{&quot;origPos&quot;:null,&quot;origRot&quot;:0}" fill="#000000" stroke="none" stroke-width="0" stroke-linecap="butt"/><path d="M235.14645,172.44959c-0.08175,1.2005 -0.64362,2.18769 -1.255,2.20499c-0.61136,0.01727 -1.04068,-0.94195 -0.95893,-2.14243c0.08175,-1.2005 0.64362,-2.18769 1.255,-2.20499c0.61136,-0.01727 1.04068,0.94195 0.95893,2.14242z" data-paper-data="{&quot;origPos&quot;:null,&quot;origRot&quot;:0}" fill="#ffffff" stroke="none" stroke-width="0" stroke-linecap="butt"/><path d="M241.51367,171.10884c-0.05345,0.67954 -0.37733,1.23436 -0.72342,1.23921c-0.34606,0.00487 -0.5833,-0.54204 -0.52987,-1.22159c0.05345,-0.67954 0.37733,-1.23436 0.72342,-1.23921c0.34606,-0.00487 0.58331,0.54205 0.52986,1.22159z" data-paper-data="{&quot;origPos&quot;:null,&quot;origRot&quot;:0}" fill="#ffffff" stroke="none" stroke-width="0" stroke-linecap="butt"/><path d="M237.75557,186.33407c0,0 -2.52354,0.2014 -3.31593,-0.69982c-0.75023,-0.85328 -1.84361,-2.6913 -1.84361,-2.6913" data-paper-data="{&quot;origPos&quot;:null,&quot;origRot&quot;:0}" fill="none" stroke="#244b00" stroke-width="1" stroke-linecap="round"/><path d="M230.52852,198.49673c0.41006,3.58431 -19.05457,5.56719 -19.46463,1.98289c-0.41006,-3.58431 4.25488,-7.36937 9.40217,-7.76197c5.14729,-0.3926 9.6524,2.19478 10.06246,5.77909z" data-paper-data="{&quot;origPos&quot;:null,&quot;origRot&quot;:0}" fill="url(#color-11)" stroke="#000000" stroke-width="2" stroke-linecap="butt"/><path d="M228.69353,199.71559c0.43308,-3.77324 5.19112,-6.49699 10.62739,-6.0837c5.43628,0.4133 10.36312,4.39786 9.93004,8.17109c-0.43308,3.77322 -20.99051,1.68583 -20.55743,-2.08741z" data-paper-data="{&quot;origPos&quot;:null,&quot;origRot&quot;:0,&quot;index&quot;:null}" fill="url(#color-12)" stroke="#000000" stroke-width="2" stroke-linecap="butt"/><path d="M244.44387,157.37548c-1.53563,-1.3675 -4.80533,-9.97601 -4.80533,-9.97601l2.00625,4.88554c0,0 -4.56044,3.49367 -7.58561,3.34827c-8.67087,-0.41679 2.63348,-14.84226 5.9113,-15.62798c6.77715,-1.62454 10.48652,6.55638 13.58937,12.79665c3.23631,6.5087 5.85803,11.47664 3.99968,18.50399c0,0 -9.57613,-7.01395 -13.11567,-13.93045z" data-paper-data="{&quot;origPos&quot;:null,&quot;origRot&quot;:0,&quot;index&quot;:null}" fill="url(#color-13)" stroke="#666349" stroke-width="1.5" stroke-linecap="butt"/><path d="M221.16795,170.03332c-3.54877,-5.77357 -3.33252,-8.64756 -2.86657,-13.44327c0.03679,-0.37855 1.24712,-18.7203 7.14249,-19.87788c4.12375,-0.80973 8.30135,0.92657 8.59528,5.28707c1.81865,10.89303 0.05371,14.5205 -4.55942,12.86395c-0.2983,-0.10711 0.98704,-4.63762 0.98704,-4.63762c0,0 -6.96419,23.60599 -9.29881,19.80775z" data-paper-data="{&quot;origPos&quot;:null,&quot;origRot&quot;:0}" fill="url(#color-14)" stroke="#666349" stroke-width="1.5" stroke-linecap="butt"/></g></g></svg>