<svg version="1.1" xmlns="http://www.w3.org/2000/svg" xmlns:xlink="http://www.w3.org/1999/xlink" width="60.63157" height="38.15113" viewBox="0,0,60.63157,38.15113"><defs><linearGradient x1="239.79182" y1="162.83335" x2="239.79182" y2="198.83335" gradientUnits="userSpaceOnUse" id="color-1"><stop offset="0" stop-color="#10c7ac"/><stop offset="1" stop-color="#ab6500"/></linearGradient><linearGradient x1="232.49772" y1="168.16626" x2="232.49772" y2="188.31402" gradientUnits="userSpaceOnUse" id="color-2"><stop offset="0" stop-color="#92a518"/><stop offset="1" stop-color="#e1e100"/></linearGradient></defs><g transform="translate(-209.24291,-161.85145)"><g data-paper-data="{&quot;isPaintingLayer&quot;:true}" fill-rule="nonzero" stroke-linejoin="miter" stroke-miterlimit="10" stroke-dasharray="" stroke-dashoffset="0" style="mix-blend-mode: normal"><path d="M210.50016,195.77118c0,-7.18645 0,-25.25324 0,-29.5c0,-1.72983 1.95533,-3.43783 4.10049,-3.43783c6.49354,0 39.77537,0 50.875,0c2.26628,0 3.60783,1.47996 3.60783,3.81283c0,7.50898 0,23.85448 0,28.125c0,1.9962 -1.8827,4.06217 -3.73283,4.06217c-5.36167,0 -31.34965,0 -31.34965,0c-3.50551,-0.20254 -7.07398,-0.45211 -10.3325,-0.0711c-0.25664,0.03001 -0.52182,0.05168 -0.79121,0.0711c0,0 -6.49221,0 -8.77664,0c-1.46318,0 -3.60049,-1.2397 -3.60049,-3.06217z" data-paper-data="{&quot;origPos&quot;:null}" fill="url(#color-1)" stroke="none" stroke-width="0" stroke-linecap="butt"/><path d="M267.97123,181.79333v15.64249h-18.91108z" data-paper-data="{&quot;origPos&quot;:null,&quot;origRot&quot;:0}" fill="#cdcdcd" stroke="none" stroke-width="0" stroke-linecap="butt"/><path d="M235.92241,166.00184c0.4733,-0.19679 0.64399,-0.02006 0.45563,0.43228c-0.38987,0.93629 -0.95434,2.63407 -0.74576,4.23413c-1.3206,1.7899 -4.42455,-0.50022 -3.10395,-2.29012c0.88044,-1.19332 2.44736,-1.98267 3.39408,-2.37629z" data-paper-data="{&quot;origRot&quot;:0,&quot;index&quot;:null}" fill="#cff538" stroke="#000000" stroke-width="0.5" stroke-linecap="butt"/><path d="M230.60897,197.56984l-0.36204,-2.3989l-6.84408,-4.48763l1.5753,-6.56887l2.1912,2.32577l-1.90527,3.67543l6.39926,3.91003l1.38166,3.54417z" fill="#92a518" stroke="#000000" stroke-width="1" stroke-linecap="butt"/><path d="M242.43515,178.24014c-0.06322,1.20637 1.93524,2.78753 1.49406,4.64878c-1.74266,7.35183 -8.26463,5.4251 -11.43149,5.4251c-5.48829,0 -9.93743,-4.51023 -9.93743,-10.07388c0,-2.53726 2.83561,-9.70781 7.33246,-9.93088c4.52246,-0.22434 12.87662,3.55326 12.5424,9.93088z" fill="url(#color-2)" stroke="#000000" stroke-width="1.5" stroke-linecap="butt"/><path d="M227.03671,169.96432c1.3206,1.7899 -1.78336,4.08002 -3.10395,2.29012c0.20858,-1.60006 -0.35589,-3.29783 -0.74576,-4.23413c-0.18835,-0.45234 -0.01767,-0.62907 0.45563,-0.43228c0.94672,0.39362 2.51365,1.18298 3.39408,2.37629z" data-paper-data="{&quot;origRot&quot;:0}" fill="#cff538" stroke="#000000" stroke-width="0.5" stroke-linecap="butt"/><path d="M240.98331,196.99708c0,0 -9.27829,1.62748 -9.33035,0.39366c-0.05206,-1.23382 1.99441,-2.32215 4.57092,-2.43086c2.57651,-0.10871 4.75943,2.0372 4.75943,2.0372z" data-paper-data="{&quot;origRot&quot;:0,&quot;index&quot;:null}" fill="#bd5e00" stroke="#000000" stroke-width="1" stroke-linecap="butt"/><path d="M227.81935,195.62764c2.55733,0.33206 4.50155,1.594 4.34254,2.81864c-0.15901,1.22464 -9.2609,-1.20248 -9.2609,-1.20248c0,0 2.36104,-1.94821 4.91837,-1.61616z" data-paper-data="{&quot;origRot&quot;:0}" fill="#dd6d00" stroke="#000000" stroke-width="1" stroke-linecap="butt"/><path d="M237.72239,178.45186c0,1.11548 -0.76648,2.01976 -1.71198,2.01976c-0.9455,0 -1.71198,-0.90427 -1.71198,-2.01976c0,-1.11548 0.76648,-2.01976 1.71198,-2.01976c0.9455,0 1.71198,0.90427 1.71198,2.01976z" fill="#ffee00" stroke="#000000" stroke-width="0" stroke-linecap="butt"/><path d="M237.20123,178.54868c0,0.54084 -0.28239,0.97928 -0.63073,0.97928c-0.34834,0 -0.63073,-0.43844 -0.63073,-0.97928c0,-0.54084 0.28239,-0.97928 0.63073,-0.97928c0.34834,0 0.63073,0.43844 0.63073,0.97928z" fill="#ff0000" stroke="none" stroke-width="0" stroke-linecap="butt"/><path d="M241.22776,178.46302c0,1.11548 -0.76648,2.01975 -1.71198,2.01975c-0.9455,0 -1.71198,-0.90427 -1.71198,-2.01975c0,-1.11548 0.76648,-2.01976 1.71198,-2.01976c0.9455,0 1.71198,0.90427 1.71198,2.01976z" fill="#ffee00" stroke="#000000" stroke-width="0" stroke-linecap="butt"/><path d="M240.7066,178.55984c0,0.54084 -0.28239,0.97928 -0.63073,0.97928c-0.34834,0 -0.63072,-0.43844 -0.63072,-0.97928c0,-0.54084 0.28238,-0.97927 0.63072,-0.97927c0.34834,0 0.63073,0.43844 0.63073,0.97927z" fill="#ff0000" stroke="none" stroke-width="0" stroke-linecap="butt"/><path d="M233.2602,184.53875c0,0 2.39246,-0.2537 4.28499,-0.07015c2.73338,0.26511 4.50044,0.96866 4.50044,0.96866" fill="none" stroke="#000000" stroke-width="1" stroke-linecap="round"/><path d="M223.04102,190.78728l-0.62174,-1.79206l1.79206,-0.62174z" fill="#c3dc00" stroke="#000000" stroke-width="0.5" stroke-linecap="butt"/><path d="M226.80945,191.52415l1.78657,-0.63734l0.63734,1.78657z" fill="#c3dc00" stroke="#000000" stroke-width="0.5" stroke-linecap="butt"/><path d="M228.20943,194.26817l-1.84122,0.45601l-0.45601,-1.84123z" fill="#c3dc00" stroke="#000000" stroke-width="0.5" stroke-linecap="butt"/><path d="M218.88404,178.14934l4.59238,-0.89851c0,0 0.06736,2.44581 0.94649,3.94831c0.94623,1.6172 3.04689,4.83711 3.04689,4.83711l-4.56566,-0.70497l1.29706,-2.17133l-3.31882,0.57859l1.88128,-2.79116z" fill="#dd6d00" stroke="#000000" stroke-width="0.75" stroke-linecap="butt"/><path d="M234.25854,176.35232h7.08824" fill="none" stroke="#000000" stroke-width="1" stroke-linecap="round"/><path d="M233.63993,184.1522l1.02552,-1.06984l1.06984,1.02552z" fill="#ffffff" stroke="#000000" stroke-width="0.5" stroke-linecap="butt"/><path d="M210.24292,195.39618c0,-7.03483 0,-24.60261 0,-28.875c0,-1.82619 1.24126,-3.66973 2.85773,-3.66973c5.28449,0 41.62396,0 52.625,0c1.98825,0 3.14884,1.77216 3.14884,3.54473c0,4.20683 0,21.72647 0,28.875c0,1.89192 -1.11237,3.05741 -3.02384,3.05741c-10.61415,0 -45.86807,0 -52.125,0c-1.85553,0 -3.48273,-1.11453 -3.48273,-2.93241z" data-paper-data="{&quot;origPos&quot;:null}" fill="none" stroke="#cdcdcd" stroke-width="2" stroke-linecap="butt"/><g fill="#ffffff" stroke-linecap="butt" font-family="Sans Serif" font-weight="normal" font-size="40" text-anchor="start"><text transform="translate(247.69647,195.74549) scale(0.27944,0.27944)" font-size="40" xml:space="preserve" fill="#ffffff" fill-rule="nonzero" stroke="#000000" stroke-width="6" stroke-linecap="butt" stroke-linejoin="miter" stroke-miterlimit="10" stroke-dasharray="" stroke-dashoffset="0" font-family="Sans Serif" font-weight="normal" text-anchor="start" style="mix-blend-mode: normal"><tspan x="0" dy="0">150</tspan></text><text transform="translate(247.69647,195.74549) scale(0.27944,0.27944)" font-size="40" xml:space="preserve" fill="#ffffff" fill-rule="nonzero" stroke="none" stroke-width="1" stroke-linecap="butt" stroke-linejoin="miter" stroke-miterlimit="10" stroke-dasharray="" stroke-dashoffset="0" font-family="Sans Serif" font-weight="normal" text-anchor="start" style="mix-blend-mode: normal"><tspan x="0" dy="0">150</tspan></text></g></g></g></svg>