<svg version="1.1" xmlns="http://www.w3.org/2000/svg" xmlns:xlink="http://www.w3.org/1999/xlink" width="85.88182" height="58.39063" viewBox="0,0,85.88182,58.39063"><defs><radialGradient cx="247.51747" cy="195.98307" r="9.52076" gradientUnits="userSpaceOnUse" id="color-1"><stop offset="0" stop-color="#a26e2a"/><stop offset="1" stop-color="#472b00"/></radialGradient><linearGradient x1="236.89022" y1="193.81834" x2="263.64306" y2="193.81834" gradientUnits="userSpaceOnUse" id="color-2"><stop offset="0" stop-color="#24b400"/><stop offset="1" stop-color="#217700"/></linearGradient><radialGradient cx="228.88424" cy="160.1307" r="34.81049" gradientUnits="userSpaceOnUse" id="color-3"><stop offset="0" stop-color="#ffb554"/><stop offset="1" stop-color="#885200"/></radialGradient><radialGradient cx="227.16738" cy="197.22826" r="10.56812" gradientUnits="userSpaceOnUse" id="color-4"><stop offset="0" stop-color="#c08231"/><stop offset="1" stop-color="#5e3800"/></radialGradient><linearGradient x1="215.37104" y1="194.82539" x2="245.06693" y2="194.82539" gradientUnits="userSpaceOnUse" id="color-5"><stop offset="0" stop-color="#2fe500"/><stop offset="1" stop-color="#16bb00"/></linearGradient></defs><g transform="translate(-192.65609,-150.40575)"><g data-paper-data="{&quot;isPaintingLayer&quot;:true}" fill-rule="nonzero" stroke-linecap="butt" stroke-linejoin="miter" stroke-miterlimit="10" stroke-dasharray="" stroke-dashoffset="0" style="mix-blend-mode: normal"><path d="M227.71009,161.77586c0,0 -7.19722,-8.31918 -14.26293,-7.44292c-4.34222,0.53851 -5.24523,4.49051 -10.03982,5.89516c-4.6895,1.37387 -9.45119,-2.79875 -9.45119,-2.79875l3.07104,-1.68547c0,0 3.27262,1.71675 6.44219,1.61298c3.47963,-0.11392 6.16475,-6.47096 10.74782,-6.1922c6.31806,0.38428 13.49711,7.09015 13.49711,7.09015z" fill="#c29557" stroke="#000000" stroke-width="1.5"/><path d="M237.9967,195.98307c0,-5.25817 4.2626,-9.52076 9.52076,-9.52076c5.25817,0 9.52076,4.26259 9.52076,9.52076c0,5.25817 -4.26259,9.52076 -9.52076,9.52076c-5.25817,0 -9.52076,-4.26259 -9.52076,-9.52076z" fill="url(#color-1)" stroke="#000000" stroke-width="2"/><path d="M263.64306,203.67285c0,0 -0.89912,1.57559 -9.4934,-6.85792c-1.67395,-1.64263 -3.60597,-10.06991 -5.61281,-9.93444c-12.13454,0.81916 -12.26272,13.33016 -11.26991,11.21281c0.51029,-1.0883 -1.58815,-7.26194 2.24057,-11.0842c3.62025,-3.61415 11.93857,-4.13836 15.517,-1.52937c3.77601,2.75306 2.15722,6.77979 4.13259,12.56337c1.09191,3.19695 4.48595,5.62975 4.48595,5.62975z" data-paper-data="{&quot;origRot&quot;:0,&quot;index&quot;:null}" fill="url(#color-2)" stroke="#000000" stroke-width="2"/><path d="M276.33502,189.20386c0,0 -17.96889,11.45619 -37.35289,10.04284c-9.47712,-0.69101 -17.33471,-0.37793 -21.81094,-4.70333c-4.6792,-4.52154 -6.68659,-10.75595 -6.14871,-18.13274c0.28384,-3.89263 2.00851,-12.24282 5.60839,-17.14153c3.32694,-4.52726 8.56054,-5.7687 8.56054,-5.7687l-2.69818,3.56319l12.96062,-5.00053l1.47107,2.28996c0,0 4.73765,0.604 5.65293,0.67075c10.25751,0.84252 20.92204,6.60246 20.92204,6.60246l9.08694,0.42227c0,0 3.81119,5.59101 4.62867,12.48876c1.07432,9.06508 -0.88048,14.66662 -0.88048,14.66662z" fill="url(#color-3)" stroke="#000000" stroke-width="2"/><path d="M240.24809,170.56114c0.89263,-2.92783 11.49521,0.30472 10.60258,3.23254c-0.89263,2.92783 -3.98974,4.57766 -6.91755,3.68502c-2.92783,-0.89263 -4.57766,-3.98975 -3.68503,-6.91755z" fill="#ffffff" stroke="#000000" stroke-width="1"/><path d="M216.59926,197.22826c0,-5.83662 4.73151,-10.56812 10.56813,-10.56812c5.83662,0 10.56812,4.7315 10.56812,10.56812c0,5.83662 -4.7315,10.56812 -10.56812,10.56812c-5.83662,0 -10.56813,-4.73151 -10.56813,-10.56812z" fill="url(#color-4)" stroke="#000000" stroke-width="2"/><path d="M224.39617,192.01109c0,-0.71781 0.58189,-1.29969 1.29969,-1.29969c0.71781,0 1.29969,0.58189 1.29969,1.29969c0,0.71781 -0.58189,1.29969 -1.29969,1.29969c-0.71781,0 -1.29969,-0.58189 -1.29969,-1.29969z" fill="#000000" stroke="none" stroke-width="0.5"/><path d="M229.75472,193.88392c0,-0.86136 0.69827,-1.55963 1.55963,-1.55963c0.86136,0 1.55963,0.69827 1.55963,1.55963c0,0.86136 -0.69827,1.55963 -1.55963,1.55963c-0.86136,0 -1.55963,-0.69827 -1.55963,-1.55963z" fill="#000000" stroke="none" stroke-width="0.5"/><path d="M224.94648,196.55938c0,-1.00492 0.81465,-1.81957 1.81957,-1.81957c1.00492,0 1.81957,0.81465 1.81957,1.81957c0,1.00492 -0.81465,1.81957 -1.81957,1.81957c-1.00492,0 -1.81957,-0.81465 -1.81957,-1.81957z" fill="#000000" stroke="none" stroke-width="0.5"/><path d="M245.06693,205.76398c0,0 -0.99802,1.74892 -10.53774,-7.61233c-1.8581,-1.82334 -4.00264,-11.17769 -6.23027,-11.02731c-13.46944,0.90928 -13.61171,14.79658 -12.50969,12.4463c0.56643,-1.20802 -1.76287,-8.06081 2.48704,-12.30356c4.01852,-4.01173 13.25191,-4.59361 17.224,-1.6976c4.1914,3.0559 2.39454,7.52561 4.58721,13.94543c1.21202,3.54863 4.97944,6.24906 4.97944,6.24906z" data-paper-data="{&quot;origRot&quot;:0,&quot;index&quot;:null}" fill="url(#color-5)" stroke="#000000" stroke-width="2"/><path d="M267.73519,177.11917c-0.7874,-7.37512 0.72016,-13.58293 3.36723,-13.86556c2.64706,-0.2826 5.43123,5.46703 6.21862,12.84215c0.7874,7.37512 -0.72016,13.58293 -3.36722,13.86554c-2.64706,0.2826 -5.43125,-5.46702 -6.21863,-12.84214z" fill="#ffffff" stroke="#000000" stroke-width="2"/><path d="M245.83664,173.11923c0,-0.64868 0.52587,-1.17455 1.17455,-1.17455c0.64868,0 1.17455,0.52587 1.17455,1.17455c0,0.64868 -0.52587,1.17455 -1.17455,1.17455c-0.64868,0 -1.17455,-0.52587 -1.17455,-1.17455z" fill="#000000" stroke="none" stroke-width="0.5"/><path d="M239.75371,170.33153l1.07761,-2.80126l1.59959,-0.80237l5.52924,1.49502l2.53585,-0.52725l-0.49311,1.08352l2.33713,0.65409l-1.07617,4.56531l-6.61899,-1.0709z" fill="#5a390a" stroke="#000000" stroke-width="1"/></g></g></svg>