<svg version="1.1" xmlns="http://www.w3.org/2000/svg" xmlns:xlink="http://www.w3.org/1999/xlink" width="83.56903" height="74.0476" viewBox="0,0,83.56903,74.0476"><defs><linearGradient x1="284.70378" y1="173.52415" x2="217.58682" y2="192.15573" gradientUnits="userSpaceOnUse" id="color-1"><stop offset="0" stop-color="#6fe640"/><stop offset="1" stop-color="#dfffd2"/></linearGradient><linearGradient x1="284.81909" y1="176.45651" x2="270.39248" y2="180.46131" gradientUnits="userSpaceOnUse" id="color-2"><stop offset="0" stop-color="#389920"/><stop offset="1" stop-color="#48c42a"/></linearGradient><linearGradient x1="280.08704" y1="175.18647" x2="273.0357" y2="177.14391" gradientUnits="userSpaceOnUse" id="color-3"><stop offset="0" stop-color="#3faa24"/><stop offset="1" stop-color="#50ca3f"/></linearGradient><linearGradient x1="205.78459" y1="200.92226" x2="245.04983" y2="192.67764" gradientUnits="userSpaceOnUse" id="color-4"><stop offset="0" stop-color="#6fe640"/><stop offset="1" stop-color="#dfffd2"/></linearGradient><linearGradient x1="231.78197" y1="141.4889" x2="234.03025" y2="174.74555" gradientUnits="userSpaceOnUse" id="color-5"><stop offset="0" stop-color="#26a200"/><stop offset="1" stop-color="#a3b196"/></linearGradient><linearGradient x1="231.15305" y1="136.20849" x2="233.40134" y2="169.46514" gradientUnits="userSpaceOnUse" id="color-6"><stop offset="0" stop-color="#34e000"/><stop offset="1" stop-color="#c9dab9"/></linearGradient><radialGradient cx="241.2748" cy="182.35117" r="22.28066" gradientUnits="userSpaceOnUse" id="color-7"><stop offset="0" stop-color="#e5ffd9"/><stop offset="1" stop-color="#d7ffca"/></radialGradient><linearGradient x1="220.12324" y1="183.85036" x2="257.8212" y2="183.85036" gradientUnits="userSpaceOnUse" id="color-8"><stop offset="0" stop-color="#b1e49c" stop-opacity="0"/><stop offset="1" stop-color="#b1e49c"/></linearGradient><linearGradient x1="230.78709" y1="135.38905" x2="232.6085" y2="162.33133" gradientUnits="userSpaceOnUse" id="color-9"><stop offset="0" stop-color="#3dff00"/><stop offset="1" stop-color="#ebffd8"/></linearGradient><linearGradient x1="206.5022" y1="202.45271" x2="214.94215" y2="200.68055" gradientUnits="userSpaceOnUse" id="color-10"><stop offset="0" stop-color="#389920"/><stop offset="1" stop-color="#48c42a"/></linearGradient><linearGradient x1="208.58635" y1="200.54988" x2="212.71155" y2="199.68371" gradientUnits="userSpaceOnUse" id="color-11"><stop offset="0" stop-color="#3faa24"/><stop offset="1" stop-color="#50ca3f"/></linearGradient></defs><g transform="translate(-202.4906,-133.41814)"><g data-paper-data="{&quot;isPaintingLayer&quot;:true}" fill-rule="nonzero" stroke-linejoin="miter" stroke-miterlimit="10" stroke-dasharray="" stroke-dashoffset="0" style="mix-blend-mode: normal"><path d="M266.51447,197.68236c-14.6016,6.87098 -20.34124,6.75737 -20.34124,6.75737l1.19186,-2.47417c0,0 7.32629,-0.63531 15.53713,-4.31339c8.4788,-3.79809 7.29123,-14.44225 7.29123,-14.44225l-10.21916,-12.81324c0,0 0.24606,-7.26707 2.15686,-9.25895c0.75858,-0.79076 2.95356,-0.19068 3.73886,-0.9549c1.63015,-1.58641 -1.21125,-7.02464 6.35765,-1.83577c1.5988,1.09608 3.43881,3.22192 4.60655,4.76916c0.51039,0.67626 -1.17205,1.80892 -1.17205,1.80892c0,0 1.59832,-1.43458 2.16943,-0.70537c1.26434,1.61431 2.34023,2.28535 3.45583,4.0058c1.60934,2.48189 3.55833,6.73779 3.55833,6.73779c0,0 3.90132,4.04662 -6.53636,12.16655c0.15451,-3.27732 -4.07728,6.92079 -11.79493,10.55244z" data-paper-data="{&quot;origPos&quot;:null,&quot;origRot&quot;:0,&quot;index&quot;:null}" fill="url(#color-1)" stroke="#244b00" stroke-width="1" stroke-linecap="butt"/><path d="M272.04963,177.21495l3.40317,-7.06058c4.37437,-1.21432 7.50474,-0.40383 9.09409,5.32149c1.58935,5.72529 -2.67673,10.70143 -7.0511,11.91575c-4.37437,1.21432 -5.63062,-1.62528 -7.21997,-7.35058c-1.58935,-5.72529 1.7738,-2.82609 1.7738,-2.82609z" data-paper-data="{&quot;origPos&quot;:null,&quot;index&quot;:null,&quot;origRot&quot;:0}" fill="url(#color-2)" stroke="#244b00" stroke-width="1" stroke-linecap="butt"/><path d="M277.58053,181.58884l-4.58463,-4.58826l2.5463,-6.259l4.94665,5.89242z" data-paper-data="{&quot;origPos&quot;:null,&quot;origRot&quot;:0,&quot;index&quot;:null}" fill="url(#color-3)" stroke="#244b00" stroke-width="0.5" stroke-linecap="butt"/><path d="M279.64862,176.42289c1.34484,-0.37333 1.40149,1.2894 1.08209,2.64806c-0.35645,1.5163 -0.648,3.07051 -2.14886,3.48714c-0.06353,0.01763 -1.64575,-0.681 -2.06168,-2.17926c-0.48383,-1.74292 1.55151,-3.51821 3.12843,-3.95594z" data-paper-data="{&quot;origPos&quot;:null,&quot;index&quot;:null,&quot;origRot&quot;:0}" fill="#244b00" stroke="#244b00" stroke-width="0" stroke-linecap="butt"/><path d="M267.39945,170.00218c0,0 0.93765,-4.05528 3.54259,-5.32037c1.45069,-0.70452 5.96751,-0.07133 5.96751,-0.07133" data-paper-data="{&quot;origPos&quot;:null,&quot;index&quot;:null,&quot;origRot&quot;:0}" fill="none" stroke="#244b00" stroke-width="1" stroke-linecap="round"/><path d="M212.65865,206.18828c-7.4894,-1.38918 -6.56554,-4.49226 -6.56554,-4.49226c0,0 -0.13018,-2.6931 0.03573,-4.38881c0.115,-1.17548 0.48763,-1.80366 0.70682,-2.96422c0.09902,-0.52424 1.29649,-0.21374 1.29649,-0.21374c0,0 -1.16054,-0.13381 -1.07859,-0.61488c0.18756,-1.10067 0.56573,-2.67536 1.09325,-3.65945c2.49737,-4.65866 2.48419,-1.12446 3.73816,-0.74472c0.60406,0.18293 1.56792,-0.70532 2.16536,-0.50173c1.50491,0.51282 3.55533,4.16483 3.55533,4.16483l-1.83382,9.26047c0,0 0.81071,1.04176 1.8957,1.09192c5.19484,1.55577 8.5628,2.05485 13.90564,1.75213c5.174,-0.29314 13.08648,-1.77836 13.08648,-1.77836l2.89792,1.5216c0,0 -13.92257,1.76379 -23.21107,2.1162c-4.90945,0.18627 -5.47899,0.60265 -11.68789,-0.54898z" data-paper-data="{&quot;origPos&quot;:null,&quot;origRot&quot;:0}" fill="url(#color-4)" stroke="#244b00" stroke-width="1" stroke-linecap="butt"/><path d="M247.1937,171.36591l-18.42096,2.37977c0,0 -11.33256,-2.36242 -14.14066,-4.20939c-3.071,-2.01988 -1.05302,-3.65261 -4.35374,-5.27009c-2.00399,-0.98204 -3.03995,0.49473 -4.81086,-0.86327c-1.69371,-1.29881 -2.76501,-3.34303 0.62212,-5.68006c2.16192,-1.49167 4.57833,-1.92625 4.57833,-1.92625c0,0 -6.55143,-3.76166 0.37169,-5.17978c1.67881,-0.34389 9.18813,1.65307 9.18813,1.65307c0,0 -9.80992,-1.99234 -7.39829,-4.17515c3.03838,-2.75008 2.44411,-1.87357 6.24268,-1.50242c4.0787,0.39852 8.56541,2.44167 8.56541,2.44167c0,0 -4.31321,-2.07546 -7.34222,-3.95857c1.42184,-1.3744 3.74342,-2.49181 5.71369,-2.32253c3.27302,0.28122 7.5863,3.82326 7.5863,3.82326c0,0 -10.59843,-5.60476 -7.77308,-6.4626c0.62102,-0.18856 5.12923,-0.02541 7.18206,0.74519c2.05283,0.7706 6.77493,6.34599 6.77493,6.34599c0,0 -2.47713,-1.70395 -4.29702,-3.71909c-3.53425,-3.91346 2.1909,-2.21057 5.46151,-1.05131c2.99511,1.06161 6.36077,6.90188 6.36077,6.90188l-3.7705,-5.49247c0,0 1.58944,-1.2901 2.8537,-0.56753c1.30688,0.74692 3.73451,4.3329 3.73451,4.3329l1.18424,7.59346c0,0 6.00742,-0.84907 6.31071,3.63712c0.25877,3.8277 -2.90668,6.06048 -5.05979,7.62302c-2.28595,1.65895 -5.36361,4.90316 -5.36361,4.90316z" data-paper-data="{&quot;origPos&quot;:null,&quot;origRot&quot;:0}" fill="url(#color-5)" stroke="#244b00" stroke-width="1.5" stroke-linecap="butt"/><path d="M246.56478,166.08549l-18.42096,2.37976c0,0 -4.64374,-3.84252 -8.49461,-4.94338c-2.35686,-0.67377 -5.30205,-0.13411 -7.48705,-1.2452c-1.10832,-0.56359 -1.60931,-2.49974 -2.72584,-3.04687c-2.00399,-0.98204 -2.82686,0.25073 -4.59778,-1.10728c-1.69371,-1.29881 -2.76501,-3.34303 0.62212,-5.68006c2.16192,-1.49167 4.57833,-1.92625 4.57833,-1.92625c0,0 -6.55143,-3.76166 0.37169,-5.17978c1.67881,-0.34389 9.18813,1.65307 9.18813,1.65307c0,0 -9.80992,-1.99234 -7.39829,-4.17515c3.03838,-2.75008 2.44411,-1.87357 6.24268,-1.50242c4.0787,0.39852 8.56541,2.44167 8.56541,2.44167c0,0 -4.31321,-2.07545 -7.34222,-3.95857c1.42184,-1.3744 3.74342,-2.49181 5.71369,-2.32253c3.27302,0.28122 7.58629,3.82326 7.58629,3.82326c0,0 -10.59843,-5.60476 -7.77308,-6.46261c0.62102,-0.18856 5.12923,-0.02541 7.18206,0.74519c2.05283,0.7706 6.77493,6.34599 6.77493,6.34599c0,0 -2.47713,-1.70395 -4.29702,-3.71909c-3.53425,-3.91346 2.1909,-2.21057 5.46151,-1.0513c2.99511,1.06161 6.36077,6.90188 6.36077,6.90188l-3.77051,-5.49248c0,0 1.58944,-1.2901 2.8537,-0.56752c1.30688,0.74692 6.99597,5.03077 6.99597,5.03077c0,0 -1.09904,5.04057 2.30487,4.93654c2.65607,-0.08117 4.37006,6.07417 3.01054,8.35737c-1.09928,1.84615 -5.92604,-1.19867 -7.3221,0.43464c-3.04577,3.56332 -4.18321,9.33035 -4.18321,9.33035z" data-paper-data="{&quot;origPos&quot;:null,&quot;origRot&quot;:0}" fill="url(#color-6)" stroke="#244b00" stroke-width="1.5" stroke-linecap="butt"/><path d="M243.24302,156.53781c0,0 15.26027,21.01884 15.52336,31.69292c0.20409,8.27984 -7.66162,15.88511 -15.31101,16.55263c-9.38321,0.81882 -19.8109,-4.89044 -21.72226,-14.86312c-1.54297,-8.05059 7.72244,-31.25884 7.72244,-31.25884z" data-paper-data="{&quot;origPos&quot;:null,&quot;origRot&quot;:0}" fill="url(#color-7)" stroke="#244b00" stroke-width="2" stroke-linecap="butt"/><path d="M229.16097,202.12289c-10.76787,-4.55752 -8.91651,-13.28594 -8.91651,-13.28594c0,0 0.47337,0.52498 10.42366,6.94451c9.95029,6.41953 19.25992,0.59666 22.29559,-4.8215c1.89341,-3.37939 1.72325,-6.08004 0.97159,-9.94478c-1.46135,-7.51367 -6.5167,-18.75013 -6.5167,-18.75013c0,0 9.81937,16.45504 10.4026,26.80096c0,0 -0.44326,4.20581 -1.82479,6.82602c-2.16661,4.10921 -4.58826,6.60929 -8.8017,7.90627c-6.55363,2.01733 -7.26587,2.88212 -18.03374,-1.6754z" data-paper-data="{&quot;origPos&quot;:null}" fill="url(#color-8)" stroke="#244b00" stroke-width="0" stroke-linecap="butt"/><path d="M243.27263,159.59337l-14.92342,1.92793c0,0 -9.18089,-1.91388 -11.45582,-3.41017c-2.48791,-1.63638 -0.85309,-2.9591 -3.5271,-4.26947c-1.6235,-0.79558 -2.46276,0.4008 -3.89745,-0.69938c-1.10344,-0.84615 -1.69692,-1.84018 -1.02832,-3.05942c0.4115,-0.7504 0.8279,-1.05615 1.53232,-1.54218c1.75144,-1.20845 3.70905,-1.56051 3.70905,-1.56051c0,0 -5.30752,-3.04744 0.30111,-4.19631c1.36007,-0.27859 7.4436,1.33921 7.4436,1.33921c0,0 -7.94735,-1.61407 -5.9936,-3.38242c2.46148,-2.22794 1.98006,-1.51784 5.0574,-1.21716c3.3043,0.32285 6.93911,1.97808 6.93911,1.97808c0,0 -3.49428,-1.68139 -5.94817,-3.20696c1.15188,-1.11344 3.03266,-2.0187 4.62885,-1.88155c2.65158,0.22783 6.1459,3.09735 6.1459,3.09735c0,0 -6.52921,-4.67965 -4.24031,-5.37462c2.28891,-0.69497 2.09843,0.11848 3.7615,0.74276c1.66307,0.62428 5.48859,5.1411 5.48859,5.1411c0,0 -2.00681,-1.38042 -3.48115,-3.01296c-2.86321,-3.17042 1.77492,-1.79086 4.42455,-0.85171c2.42645,0.86004 5.15307,5.59145 5.15307,5.59145l-3.05461,-4.44964c0,0 1.28766,-1.04514 2.31187,-0.45976c1.05874,0.60511 3.02545,3.51023 3.02545,3.51023c0,0 1.48637,-2.02913 4.244,-2.1134c3.05693,-0.09342 1.97906,2.4424 2.25558,6.53277c0.27653,4.09035 -3.03157,5.82856 -4.18698,7.18033c-2.46747,2.88677 -4.68503,7.64643 -4.68503,7.64643z" data-paper-data="{&quot;origPos&quot;:null,&quot;origRot&quot;:0}" fill="url(#color-9)" stroke="#244b00" stroke-width="1.5" stroke-linecap="butt"/><path d="M251.46726,176.05313c0.12776,2.97026 -1.30562,5.44423 -3.20153,5.52578c-1.89591,0.08154 -3.53641,-2.26022 -3.66417,-5.23048c-0.12776,-2.97026 1.30562,-5.44423 3.20153,-5.52578c1.89591,-0.08154 3.53641,2.26022 3.66417,5.23048z" data-paper-data="{&quot;origRot&quot;:0,&quot;origPos&quot;:null}" fill="#ffffff" stroke="#244b00" stroke-width="0.5" stroke-linecap="butt"/><path d="M242.93533,175.6391c0,0 -2.3711,3.69447 -4.52178,3.82c-2.14703,0.12531 -4.39626,-4.44762 -4.39626,-4.44762z" data-paper-data="{&quot;origPos&quot;:null}" fill="#ffffff" stroke="#244b00" stroke-width="0.5" stroke-linecap="butt"/><path d="M249.88894,169.81985c-1.53305,-0.64413 -3.53713,1.50149 -4.5095,2.85043c-0.9229,1.2803 -0.88076,2.58458 -0.88076,2.58458l-11.81183,-0.54304" data-paper-data="{&quot;origPos&quot;:null}" fill="none" stroke="#244b00" stroke-width="1" stroke-linecap="round"/><path d="M240.65102,176.37548c0,0.55461 -0.4496,1.0042 -1.0042,1.0042c-0.55461,0 -1.0042,-0.4496 -1.0042,-1.0042c0,-0.55461 0.4496,-1.0042 1.0042,-1.0042c0.55461,0 1.0042,0.4496 1.0042,1.0042z" data-paper-data="{&quot;origPos&quot;:null}" fill="#000000" stroke="none" stroke-width="0" stroke-linecap="butt"/><path d="M248.70777,175.89654c0,0.8319 -0.4496,1.5063 -1.0042,1.5063c-0.55461,0 -1.0042,-0.6744 -1.0042,-1.5063c0,-0.8319 0.4496,-1.50629 1.0042,-1.50629c0.55461,0 1.0042,0.67439 1.0042,1.50629z" data-paper-data="{&quot;origPos&quot;:null}" fill="#000000" stroke="none" stroke-width="0" stroke-linecap="butt"/><path d="M241.97221,187.95849c0,0 0.25104,-1.12662 0.25104,-2.0084c0,-0.97975 -0.25104,-2.38498 -0.25104,-2.38498l2.76154,0.12552c0,0 0.43388,1.22744 0.55091,2.09341c0.12792,0.94658 -0.17433,2.04892 -0.17433,2.04892z" data-paper-data="{&quot;origPos&quot;:null}" fill="#ffffff" stroke="#244b00" stroke-width="0.5" stroke-linecap="butt"/><path d="M235.44492,186.57772c0,0 3.81152,-2.6371 6.2511,-3.03951c2.31224,-0.3814 5.92482,1.03111 5.92482,1.03111" data-paper-data="{&quot;origPos&quot;:null}" fill="none" stroke="#244b00" stroke-width="1" stroke-linecap="round"/><path d="M214.89054,200.43468c0.7033,3.34944 0.81273,5.13463 -1.7464,5.672c-2.55912,0.53734 -6.05911,-0.8782 -6.7624,-4.22765c-0.7033,-3.34944 0.68328,-4.59306 3.24239,-5.13043l3.61063,2.71028c0,0 0.95247,-2.37365 1.65577,0.9758z" data-paper-data="{&quot;origPos&quot;:null,&quot;origRot&quot;:0}" fill="url(#color-10)" stroke="#244b00" stroke-width="1" stroke-linecap="butt"/><path d="M208.76416,201.39671l0.96977,-4.32407l2.96005,2.52718l-1.12995,3.56111z" data-paper-data="{&quot;origPos&quot;:null,&quot;origRot&quot;:0}" fill="url(#color-11)" stroke="#244b00" stroke-width="0.5" stroke-linecap="butt"/><path d="M211.78593,202.2612c0.18406,0.87653 -0.44025,1.65291 -0.47741,1.6607c-0.87805,0.18436 -1.43879,-0.53342 -2.02268,-1.21462c-0.5232,-0.61038 -0.93456,-1.47588 -0.14779,-1.64108c0.92254,-0.19371 2.43379,0.17535 2.64789,1.19499z" data-paper-data="{&quot;origPos&quot;:null,&quot;origRot&quot;:0}" fill="#244b00" stroke="#244b00" stroke-width="0" stroke-linecap="butt"/><path d="M207.41078,194.29866c0,0 2.1427,-1.52009 3.07133,-1.54392c1.66748,-0.04277 3.22108,1.78321 3.22108,1.78321" data-paper-data="{&quot;origPos&quot;:null,&quot;origRot&quot;:0}" fill="none" stroke="#244b00" stroke-width="1" stroke-linecap="round"/></g></g></svg>