<svg version="1.1" xmlns="http://www.w3.org/2000/svg" xmlns:xlink="http://www.w3.org/1999/xlink" width="82.54575" height="78.29133" viewBox="0,0,82.54575,78.29133"><defs><linearGradient x1="284.70378" y1="173.52415" x2="217.58682" y2="192.15573" gradientUnits="userSpaceOnUse" id="color-1"><stop offset="0" stop-color="#6fe640"/><stop offset="1" stop-color="#dfffd2"/></linearGradient><linearGradient x1="284.81909" y1="176.45651" x2="270.39248" y2="180.46131" gradientUnits="userSpaceOnUse" id="color-2"><stop offset="0" stop-color="#389920"/><stop offset="1" stop-color="#48c42a"/></linearGradient><linearGradient x1="280.08704" y1="175.18647" x2="273.0357" y2="177.14391" gradientUnits="userSpaceOnUse" id="color-3"><stop offset="0" stop-color="#3faa24"/><stop offset="1" stop-color="#50ca3f"/></linearGradient><linearGradient x1="205.21031" y1="204.84948" x2="243.11937" y2="191.71037" gradientUnits="userSpaceOnUse" id="color-4"><stop offset="0" stop-color="#6fe640"/><stop offset="1" stop-color="#dfffd2"/></linearGradient><linearGradient x1="232.64025" y1="138.7286" x2="235.27452" y2="171.95689" gradientUnits="userSpaceOnUse" id="color-5"><stop offset="0" stop-color="#26a200"/><stop offset="1" stop-color="#a3b196"/></linearGradient><linearGradient x1="231.95007" y1="133.45583" x2="234.58434" y2="166.68414" gradientUnits="userSpaceOnUse" id="color-6"><stop offset="0" stop-color="#34e000"/><stop offset="1" stop-color="#c9dab9"/></linearGradient><radialGradient cx="241.03227" cy="182.59155" r="22.28066" gradientUnits="userSpaceOnUse" id="color-7"><stop offset="0" stop-color="#e5ffd9"/><stop offset="1" stop-color="#d7ffca"/></radialGradient><linearGradient x1="220.12324" y1="183.85036" x2="257.8212" y2="183.85036" gradientUnits="userSpaceOnUse" id="color-8"><stop offset="0" stop-color="#b1e49c" stop-opacity="0"/><stop offset="1" stop-color="#b1e49c"/></linearGradient><linearGradient x1="231.57462" y1="132.64069" x2="233.70873" y2="159.56001" gradientUnits="userSpaceOnUse" id="color-9"><stop offset="0" stop-color="#3dff00"/><stop offset="1" stop-color="#ebffd8"/></linearGradient><linearGradient x1="206.11552" y1="206.27701" x2="214.26396" y2="203.4528" gradientUnits="userSpaceOnUse" id="color-10"><stop offset="0" stop-color="#389920"/><stop offset="1" stop-color="#48c42a"/></linearGradient><linearGradient x1="207.94258" y1="204.12613" x2="211.9253" y2="202.74574" gradientUnits="userSpaceOnUse" id="color-11"><stop offset="0" stop-color="#3faa24"/><stop offset="1" stop-color="#50ca3f"/></linearGradient></defs><g transform="translate(-203.51389,-131.41355)"><g data-paper-data="{&quot;isPaintingLayer&quot;:true}" fill-rule="nonzero" stroke-linejoin="miter" stroke-miterlimit="10" stroke-dasharray="" stroke-dashoffset="0" style="mix-blend-mode: normal"><path d="M266.51447,197.68236c-14.6016,6.87098 -20.34124,6.75737 -20.34124,6.75737l1.19186,-2.47417c0,0 7.32629,-0.63531 15.53713,-4.31339c8.4788,-3.79809 7.29123,-14.44225 7.29123,-14.44225l-10.21916,-12.81324c0,0 0.24606,-7.26707 2.15686,-9.25895c0.75858,-0.79076 2.95356,-0.19068 3.73886,-0.9549c1.63015,-1.58641 -1.21125,-7.02464 6.35765,-1.83577c1.5988,1.09608 3.43881,3.22192 4.60655,4.76916c0.51039,0.67626 -1.17205,1.80892 -1.17205,1.80892c0,0 1.59832,-1.43458 2.16943,-0.70537c1.26434,1.61431 2.34023,2.28535 3.45583,4.0058c1.60934,2.48189 3.55833,6.73779 3.55833,6.73779c0,0 3.90132,4.04662 -6.53636,12.16655c0.15451,-3.27732 -4.07728,6.92079 -11.79493,10.55244z" data-paper-data="{&quot;origPos&quot;:null,&quot;origRot&quot;:0,&quot;index&quot;:null}" fill="url(#color-1)" stroke="#244b00" stroke-width="1" stroke-linecap="butt"/><path d="M272.04963,177.21495l3.40317,-7.06058c4.37437,-1.21432 7.50474,-0.40383 9.09409,5.32149c1.58935,5.72529 -2.67673,10.70143 -7.0511,11.91575c-4.37437,1.21432 -5.63062,-1.62528 -7.21997,-7.35058c-1.58935,-5.72529 1.7738,-2.82609 1.7738,-2.82609z" data-paper-data="{&quot;origPos&quot;:null,&quot;index&quot;:null,&quot;origRot&quot;:0}" fill="url(#color-2)" stroke="#244b00" stroke-width="1" stroke-linecap="butt"/><path d="M277.58053,181.58884l-4.58463,-4.58826l2.5463,-6.259l4.94665,5.89242z" data-paper-data="{&quot;origPos&quot;:null,&quot;origRot&quot;:0,&quot;index&quot;:null}" fill="url(#color-3)" stroke="#244b00" stroke-width="0.5" stroke-linecap="butt"/><path d="M279.64862,176.42289c1.34484,-0.37333 1.40149,1.2894 1.08209,2.64806c-0.35645,1.5163 -0.648,3.07051 -2.14886,3.48714c-0.06353,0.01763 -1.64575,-0.681 -2.06168,-2.17926c-0.48383,-1.74292 1.55151,-3.51821 3.12843,-3.95594z" data-paper-data="{&quot;origPos&quot;:null,&quot;index&quot;:null,&quot;origRot&quot;:0}" fill="#244b00" stroke="#244b00" stroke-width="0" stroke-linecap="butt"/><path d="M267.39945,170.00218c0,0 0.93765,-4.05528 3.54259,-5.32037c1.45069,-0.70452 5.96751,-0.07133 5.96751,-0.07133" data-paper-data="{&quot;origPos&quot;:null,&quot;index&quot;:null,&quot;origRot&quot;:0}" fill="none" stroke="#244b00" stroke-width="1" stroke-linecap="round"/><path d="M212.69457,209.20488c-7.60489,-0.43188 -7.08046,-3.62681 -7.08046,-3.62681c0,0 -0.46937,-2.65508 -0.51901,-4.35816c-0.03442,-1.18059 0.25586,-1.85081 0.32667,-3.02977c0.032,-0.53255 1.2591,-0.37582 1.2591,-0.37582c0,0 -1.16815,0.01388 -1.14763,-0.47369c0.047,-1.11555 0.22321,-2.7254 0.62218,-3.76824c1.88881,-4.93684 2.32223,-1.42929 3.61413,-1.21101c0.62233,0.10515 1.46625,-0.89775 2.08462,-0.77127c1.55764,0.31859 4.05301,3.6823 4.05301,3.6823l-0.64921,9.41795c0,0 0.93582,0.93099 2.01846,0.84368c5.34977,0.88702 8.75379,0.95661 14.01558,-0.01867c5.09551,-0.94445 12.75696,-3.41738 12.75696,-3.41738l3.06693,1.1433c0,0 -13.58819,3.50856 -22.75775,5.0316c-4.84658,0.80501 -5.35895,1.29001 -11.6636,0.932z" data-paper-data="{&quot;origPos&quot;:null,&quot;origRot&quot;:0}" fill="url(#color-4)" stroke="#244b00" stroke-width="1" stroke-linecap="butt"/><path d="M248.39784,168.42464l-18.39208,2.59349c0,0 -11.35923,-2.23068 -14.18858,-4.04492c-3.09424,-1.98409 -1.09536,-3.64014 -4.41464,-5.21919c-2.01526,-0.9587 -3.034,0.52999 -4.82056,-0.80736c-1.70868,-1.27905 -2.80363,-3.3107 0.55612,-5.6869c2.14445,-1.51667 4.55566,-1.97927 4.55566,-1.97927c0,0 -6.59467,-3.68534 0.31152,-5.18374c1.6747,-0.36336 9.20671,1.54628 9.20671,1.54628c0,0 -9.8324,-1.8783 -7.44627,-4.08897c3.00624,-2.78517 2.42219,-1.90182 6.22481,-1.5748c4.08305,0.35113 8.59318,2.34206 8.59318,2.34206c0,0 -4.33702,-2.02524 -7.38768,-3.87306c1.40579,-1.39082 3.71424,-2.53511 5.68634,-2.38871c3.27607,0.2432 7.63018,3.73492 7.63018,3.73492c0,0 -10.66279,-5.48132 -7.84759,-6.37192c0.61878,-0.19575 5.12859,-0.08496 7.19023,0.66175c2.06164,0.74671 6.84815,6.2669 6.84815,6.2669c0,0 -2.49675,-1.67507 -4.33991,-3.66895c-3.57945,-3.87216 2.16508,-2.23586 5.44893,-1.11466c3.00723,1.02676 6.44048,6.82756 6.44048,6.82756l-3.83401,-5.44832c0,0 1.57436,-1.30846 2.84692,-0.60062c1.31546,0.7317 3.78457,4.28925 3.78457,4.28925l1.27232,7.57919c0,0 5.99716,-0.91876 6.35251,3.56361c0.30319,3.82444 -2.83612,6.09382 -4.97094,7.68126c-2.26653,1.68538 -5.30631,4.96511 -5.30631,4.96511z" data-paper-data="{&quot;origPos&quot;:null,&quot;origRot&quot;:0}" fill="url(#color-5)" stroke="#244b00" stroke-width="1.5" stroke-linecap="butt"/><path d="M247.70765,163.15187l-18.39208,2.59348c0,0 -4.68805,-3.78834 -8.55143,-4.84442c-2.36453,-0.64636 -5.30325,-0.07254 -7.501,-1.15819c-1.11479,-0.55068 -1.63823,-2.48089 -2.76103,-3.01502c-2.01526,-0.9587 -2.82375,0.28354 -4.61032,-1.05382c-1.70868,-1.27905 -2.80363,-3.3107 0.55612,-5.6869c2.14445,-1.51667 4.55566,-1.97927 4.55566,-1.97927c0,0 -6.59467,-3.68534 0.31152,-5.18374c1.6747,-0.36336 9.20671,1.54628 9.20671,1.54628c0,0 -9.8324,-1.8783 -7.44627,-4.08897c3.00624,-2.78517 2.42219,-1.90182 6.22481,-1.5748c4.08305,0.35113 8.59318,2.34206 8.59318,2.34206c0,0 -4.33702,-2.02523 -7.38768,-3.87306c1.40579,-1.39082 3.71424,-2.53511 5.68634,-2.38871c3.27607,0.2432 7.63017,3.73492 7.63017,3.73492c0,0 -10.66279,-5.48132 -7.84759,-6.37193c0.61878,-0.19575 5.12859,-0.08496 7.19023,0.66175c2.06164,0.74671 6.84815,6.2669 6.84815,6.2669c0,0 -2.49675,-1.67507 -4.33991,-3.66895c-3.57945,-3.87216 2.16508,-2.23586 5.44893,-1.11465c3.00723,1.02676 6.44048,6.82756 6.44048,6.82756l-3.83402,-5.44833c0,0 1.57436,-1.30846 2.84692,-0.60061c1.31546,0.7317 7.05391,4.9492 7.05391,4.9492c0,0 -1.04044,5.05299 2.36203,4.90944c2.65495,-0.112 4.44029,6.02302 3.10737,8.32185c-1.07777,1.85879 -5.93955,-1.12978 -7.31656,0.51962c-3.00419,3.59845 -4.0746,9.37829 -4.0746,9.37829z" data-paper-data="{&quot;origPos&quot;:null,&quot;origRot&quot;:0}" fill="url(#color-6)" stroke="#244b00" stroke-width="1.5" stroke-linecap="butt"/><path d="M242.85803,156.76773c0,0 15.37601,20.93432 15.69799,31.60679c0.24977,8.27858 -7.57386,15.92714 -15.21945,16.63686c-9.37855,0.87058 -19.83758,-4.78105 -21.80394,-14.74304c-1.58736,-8.04196 7.54984,-31.30097 7.54984,-31.30097z" data-paper-data="{&quot;origPos&quot;:null,&quot;origRot&quot;:0}" fill="url(#color-7)" stroke="#244b00" stroke-width="2" stroke-linecap="butt"/><path d="M229.16097,202.12289c-10.76787,-4.55752 -8.91651,-13.28594 -8.91651,-13.28594c0,0 0.47337,0.52498 10.42366,6.94451c9.95029,6.41953 19.25992,0.59666 22.29559,-4.8215c1.89341,-3.37939 1.72325,-6.08004 0.97159,-9.94478c-1.46135,-7.51367 -6.5167,-18.75013 -6.5167,-18.75013c0,0 9.81937,16.45504 10.4026,26.80096c0,0 -0.44326,4.20581 -1.82479,6.82602c-2.16661,4.10921 -4.58826,6.60929 -8.8017,7.90627c-6.55363,2.01733 -7.26587,2.88212 -18.03374,-1.6754z" data-paper-data="{&quot;origPos&quot;:null}" fill="url(#color-8)" stroke="#244b00" stroke-width="0" stroke-linecap="butt"/><path d="M244.34035,156.69841l-14.90003,2.10107c0,0 -9.20249,-1.80715 -11.49464,-3.27693c-2.50674,-1.60738 -0.88739,-2.94899 -3.57643,-4.22823c-1.63263,-0.77667 -2.45795,0.42936 -3.90531,-0.65408c-1.11319,-0.83328 -1.71817,-1.82036 -1.06377,-3.04727c0.40276,-0.75513 0.81558,-1.06569 1.51431,-1.55986c1.73729,-1.2287 3.69068,-1.60347 3.69068,-1.60347c0,0 -5.34254,-2.98561 0.25237,-4.19952c1.35674,-0.29436 7.45865,1.25269 7.45865,1.25269c0,0 -7.96555,-1.52168 -6.03247,-3.3126c2.43545,-2.25637 1.9623,-1.54073 5.04293,-1.2758c3.30783,0.28446 6.96161,1.89738 6.96161,1.89738c0,0 -3.51356,-1.6407 -5.985,-3.13768c1.13888,-1.12674 3.00902,-2.05378 4.60669,-1.93517c2.65404,0.19703 6.18145,3.02578 6.18145,3.02578c0,0 -6.58311,-4.60353 -4.30242,-5.32503c2.28068,-0.7215 2.09966,0.09411 3.76987,0.69903c1.6702,0.60493 5.54791,5.07703 5.54791,5.07703c0,0 -2.0227,-1.35703 -3.5159,-2.97234c-2.89982,-3.13696 1.75401,-1.81134 4.41436,-0.90302c2.43627,0.83181 5.21764,5.53124 5.21764,5.53124l-3.10606,-4.41387c0,0 1.27544,-1.06002 2.30638,-0.48658c1.06569,0.59277 3.066,3.47486 3.066,3.47486c0,0 1.46271,-2.04625 4.21917,-2.16253c3.05564,-0.12891 2.00728,2.41926 2.33128,6.50614c0.324,4.08687 -2.96369,5.86337 -4.10333,7.22845c-2.43378,2.91522 -4.59593,7.70031 -4.59593,7.70031z" data-paper-data="{&quot;origPos&quot;:null,&quot;origRot&quot;:0}" fill="url(#color-9)" stroke="#244b00" stroke-width="1.5" stroke-linecap="butt"/><path d="M251.46726,176.05313c0.12776,2.97026 -1.30562,5.44423 -3.20153,5.52578c-1.89591,0.08154 -3.53641,-2.26022 -3.66417,-5.23048c-0.12776,-2.97026 1.30562,-5.44423 3.20153,-5.52578c1.89591,-0.08154 3.53641,2.26022 3.66417,5.23048z" data-paper-data="{&quot;origRot&quot;:0,&quot;origPos&quot;:null}" fill="#ffffff" stroke="#244b00" stroke-width="0.5" stroke-linecap="butt"/><path d="M242.93533,175.6391c0,0 -2.3711,3.69447 -4.52178,3.82c-2.14703,0.12531 -4.39626,-4.44762 -4.39626,-4.44762z" data-paper-data="{&quot;origPos&quot;:null}" fill="#ffffff" stroke="#244b00" stroke-width="0.5" stroke-linecap="butt"/><path d="M249.88894,169.81985c-1.53305,-0.64413 -3.53713,1.50149 -4.5095,2.85043c-0.9229,1.2803 -0.88076,2.58458 -0.88076,2.58458l-11.81183,-0.54304" data-paper-data="{&quot;origPos&quot;:null}" fill="none" stroke="#244b00" stroke-width="1" stroke-linecap="round"/><path d="M240.65102,176.37548c0,0.55461 -0.4496,1.0042 -1.0042,1.0042c-0.55461,0 -1.0042,-0.4496 -1.0042,-1.0042c0,-0.55461 0.4496,-1.0042 1.0042,-1.0042c0.55461,0 1.0042,0.4496 1.0042,1.0042z" data-paper-data="{&quot;origPos&quot;:null}" fill="#000000" stroke="none" stroke-width="0" stroke-linecap="butt"/><path d="M248.70777,175.89654c0,0.8319 -0.4496,1.5063 -1.0042,1.5063c-0.55461,0 -1.0042,-0.6744 -1.0042,-1.5063c0,-0.8319 0.4496,-1.50629 1.0042,-1.50629c0.55461,0 1.0042,0.67439 1.0042,1.50629z" data-paper-data="{&quot;origPos&quot;:null}" fill="#000000" stroke="none" stroke-width="0" stroke-linecap="butt"/><path d="M241.97221,187.95849c0,0 0.25104,-1.12662 0.25104,-2.0084c0,-0.97975 -0.25104,-2.38498 -0.25104,-2.38498l2.76154,0.12552c0,0 0.43388,1.22744 0.55091,2.09341c0.12792,0.94658 -0.17433,2.04892 -0.17433,2.04892z" data-paper-data="{&quot;origPos&quot;:null}" fill="#ffffff" stroke="#244b00" stroke-width="0.5" stroke-linecap="butt"/><path d="M235.44492,186.57772c0,0 3.81152,-2.6371 6.2511,-3.03951c2.31224,-0.3814 5.92482,1.03111 5.92482,1.03111" data-paper-data="{&quot;origPos&quot;:null}" fill="none" stroke="#244b00" stroke-width="1" stroke-linecap="round"/><path d="M214.1817,203.21542c1.12081,3.23375 1.4549,4.99081 -1.01584,5.84718c-2.47073,0.85634 -6.12151,-0.10569 -7.24231,-3.33945c-1.12081,-3.23375 0.09754,-4.64258 2.56826,-5.49895l3.9241,2.23242c0,0 0.64497,-2.47496 1.76578,0.7588z" data-paper-data="{&quot;origPos&quot;:null,&quot;origRot&quot;:0}" fill="url(#color-10)" stroke="#244b00" stroke-width="1" stroke-linecap="butt"/><path d="M208.22595,204.94371l0.41572,-4.41194l3.2556,2.13298l-0.67101,3.67533z" data-paper-data="{&quot;origPos&quot;:null,&quot;origRot&quot;:0}" fill="url(#color-11)" stroke="#244b00" stroke-width="0.5" stroke-linecap="butt"/><path d="M211.33272,205.41952c0.29332,0.84625 -0.2279,1.69528 -0.26378,1.70771c-0.84772,0.29381 -1.49465,-0.34738 -2.15992,-0.94935c-0.59612,-0.53939 -1.11353,-1.34599 -0.35393,-1.60926c0.89068,-0.30871 2.43644,-0.13353 2.77764,0.8509z" data-paper-data="{&quot;origPos&quot;:null,&quot;origRot&quot;:0}" fill="#244b00" stroke="#244b00" stroke-width="0" stroke-linecap="butt"/><path d="M205.98668,198.07351c0,0 1.93349,-1.77861 2.85167,-1.91956c1.64872,-0.25309 3.42055,1.36199 3.42055,1.36199" data-paper-data="{&quot;origPos&quot;:null,&quot;origRot&quot;:0}" fill="none" stroke="#244b00" stroke-width="1" stroke-linecap="round"/></g></g></svg>