<svg version="1.1" xmlns="http://www.w3.org/2000/svg" xmlns:xlink="http://www.w3.org/1999/xlink" width="82.49123" height="74.45117" viewBox="0,0,82.49123,74.45117"><defs><linearGradient x1="285.16094" y1="176.6567" x2="216.86088" y2="190.32877" gradientUnits="userSpaceOnUse" id="color-1"><stop offset="0" stop-color="#6fe640"/><stop offset="1" stop-color="#dfffd2"/></linearGradient><linearGradient x1="285.06142" y1="179.58964" x2="270.38052" y2="182.52841" gradientUnits="userSpaceOnUse" id="color-2"><stop offset="0" stop-color="#389920"/><stop offset="1" stop-color="#48c42a"/></linearGradient><linearGradient x1="280.43496" y1="177.97685" x2="273.25933" y2="179.41325" gradientUnits="userSpaceOnUse" id="color-3"><stop offset="0" stop-color="#3faa24"/><stop offset="1" stop-color="#50ca3f"/></linearGradient><linearGradient x1="204.47353" y1="188.81295" x2="244.28775" y2="193.76897" gradientUnits="userSpaceOnUse" id="color-4"><stop offset="0" stop-color="#6fe640"/><stop offset="1" stop-color="#dfffd2"/></linearGradient><linearGradient x1="234.85261" y1="140.58141" x2="234.85261" y2="173.91396" gradientUnits="userSpaceOnUse" id="color-5"><stop offset="0" stop-color="#26a200"/><stop offset="1" stop-color="#a3b196"/></linearGradient><linearGradient x1="234.58129" y1="135.27059" x2="234.58129" y2="168.60315" gradientUnits="userSpaceOnUse" id="color-6"><stop offset="0" stop-color="#34e000"/><stop offset="1" stop-color="#c9dab9"/></linearGradient><radialGradient cx="240.90018" cy="182.74735" r="22.28066" gradientUnits="userSpaceOnUse" id="color-7"><stop offset="0" stop-color="#e5ffd9"/><stop offset="1" stop-color="#d7ffca"/></radialGradient><linearGradient x1="220.12324" y1="183.85036" x2="257.8212" y2="183.85036" gradientUnits="userSpaceOnUse" id="color-8"><stop offset="0" stop-color="#b1e49c" stop-opacity="0"/><stop offset="1" stop-color="#b1e49c"/></linearGradient><linearGradient x1="234.27144" y1="134.42833" x2="234.27144" y2="161.43211" gradientUnits="userSpaceOnUse" id="color-9"><stop offset="0" stop-color="#3dff00"/><stop offset="1" stop-color="#ebffd8"/></linearGradient><linearGradient x1="204.65515" y1="190.49351" x2="213.21309" y2="191.55878" gradientUnits="userSpaceOnUse" id="color-10"><stop offset="0" stop-color="#389920"/><stop offset="1" stop-color="#48c42a"/></linearGradient><linearGradient x1="207.24435" y1="189.37079" x2="211.42721" y2="189.89147" gradientUnits="userSpaceOnUse" id="color-11"><stop offset="0" stop-color="#3faa24"/><stop offset="1" stop-color="#50ca3f"/></linearGradient></defs><g transform="translate(-203.76739,-132.241)"><g data-paper-data="{&quot;isPaintingLayer&quot;:true}" fill-rule="nonzero" stroke-linejoin="miter" stroke-miterlimit="10" stroke-dasharray="" stroke-dashoffset="0" style="mix-blend-mode: normal"><path d="M265.25318,199.41965c-15.0651,5.78446 -20.78105,5.25131 -20.78105,5.25131l1.36965,-2.38036c0,0 7.35313,-0.09768 15.81102,-3.16529c8.73392,-3.16769 8.32814,-13.87021 8.32814,-13.87021l-9.25449,-13.52644c0,0 0.77699,-7.2296 2.82837,-9.07637c0.81438,-0.73315 2.95959,0.02589 3.7987,-0.67885c1.74183,-1.46291 -0.69415,-7.09443 6.47491,-1.36578c1.51435,1.21009 3.19391,3.46484 4.24535,5.09335c0.45956,0.71179 -1.30123,1.71834 -1.30123,1.71834c0,0 1.69897,-1.31382 2.21521,-0.54479c1.14287,1.70247 2.16678,2.45042 3.15354,4.24787c1.42348,2.59297 3.05592,6.98003 3.05592,6.98003c0,0 3.59486,4.32116 -7.40883,11.65582c0.39383,-3.25724 -4.57262,6.604 -12.53524,9.66137z" data-paper-data="{&quot;origPos&quot;:null,&quot;origRot&quot;:0,&quot;index&quot;:null}" fill="url(#color-1)" stroke="#244b00" stroke-width="1" stroke-linecap="butt"/><path d="M272.2707,179.41197l3.91053,-6.79272c4.45148,-0.89108 7.51417,0.14622 8.68046,5.97247c1.16628,5.82621 -3.45237,10.47696 -7.90385,11.36804c-4.45148,0.89108 -5.49664,-2.0328 -6.66293,-7.85902c-1.16628,-5.82621 1.97578,-2.68877 1.97578,-2.68877z" data-paper-data="{&quot;origPos&quot;:null,&quot;index&quot;:null,&quot;origRot&quot;:0}" fill="url(#color-2)" stroke="#244b00" stroke-width="1" stroke-linecap="butt"/><path d="M277.46683,184.17872l-4.23672,-4.91133l2.99733,-6.05597l4.50237,6.23849z" data-paper-data="{&quot;origPos&quot;:null,&quot;origRot&quot;:0,&quot;index&quot;:null}" fill="url(#color-3)" stroke="#244b00" stroke-width="0.5" stroke-linecap="butt"/><path d="M279.90728,179.17789c1.36855,-0.27395 1.30341,1.38847 0.88548,2.72013c-0.46642,1.48617 -0.87088,3.01488 -2.39819,3.32061c-0.06465,0.01293 -1.59153,-0.79957 -1.89675,-2.32423c-0.35504,-1.77365 1.80471,-3.3953 3.40942,-3.7165z" data-paper-data="{&quot;origPos&quot;:null,&quot;index&quot;:null,&quot;origRot&quot;:0}" fill="#244b00" stroke="#244b00" stroke-width="0" stroke-linecap="butt"/><path d="M268.16059,171.87836c0,0 1.23178,-3.97583 3.92229,-5.04698c1.49834,-0.59651 5.95674,0.36539 5.95674,0.36539" data-paper-data="{&quot;origPos&quot;:null,&quot;index&quot;:null,&quot;origRot&quot;:0}" fill="none" stroke="#244b00" stroke-width="1" stroke-linecap="round"/><path d="M209.26444,196.02618c-6.63211,-3.74647 -4.75044,-6.38122 -4.75044,-6.38122c0,0 0.75162,-2.58937 1.4593,-4.13924c0.49056,-1.0744 1.04703,-1.54749 1.63129,-2.57391c0.26393,-0.46367 1.29563,0.21895 1.29563,0.21895c0,0 -1.05415,-0.5035 -0.82039,-0.93188c0.53489,-0.98007 1.40403,-2.34656 2.22259,-3.10594c3.87513,-3.5949 2.71473,-0.2566 3.77737,0.50984c0.5119,0.36921 1.71201,-0.1578 2.21091,0.22881c1.25675,0.97383 2.00979,5.0938 2.00979,5.0938l-4.74226,8.16274c0,0 0.42837,1.2486 1.43825,1.64845c4.40785,3.15873 7.4311,4.72469 12.58257,6.17378c4.98868,1.4033 12.95456,2.56864 12.95456,2.56864l2.24655,2.38036c0,0 -13.74058,-2.854 -22.63994,-5.53765c-4.70376,-1.41846 -5.37767,-1.20965 -10.87585,-4.31552z" data-paper-data="{&quot;origPos&quot;:null,&quot;origRot&quot;:0}" fill="url(#color-4)" stroke="#244b00" stroke-width="1" stroke-linecap="butt"/><path d="M248.21404,171.42989l-18.53952,1.13185c0,0 -11.14741,-3.12142 -13.82453,-5.15359c-2.92776,-2.22242 -0.80425,-3.71532 -3.98836,-5.55175c-1.93319,-1.11497 -3.0664,0.28856 -4.74168,-1.1858c-1.60225,-1.41009 -2.53322,-3.52192 1.00382,-5.62516c2.25761,-1.34245 4.69783,-1.61305 4.69783,-1.61305c0,0 -6.28279,-4.19499 0.72022,-5.14291c1.69818,-0.22987 9.05571,2.26905 9.05571,2.26905c0,0 -9.6532,-2.64948 -7.09983,-4.66466c3.21695,-2.53888 2.56492,-1.70445 6.3298,-1.07793c4.04253,0.67272 8.38121,3.01385 8.38121,3.01385c0,0 -4.1634,-2.36166 -7.05849,-4.44479c1.51131,-1.27537 3.90297,-2.23364 5.85733,-1.93185c3.2466,0.50135 7.31114,4.32625 7.31114,4.32625c0,0 -10.19625,-6.30686 -7.31947,-6.97218c0.63232,-0.14624 5.11926,0.32062 7.11544,1.22792c1.99618,0.90731 6.33146,6.78851 6.33146,6.78851c0,0 -2.35656,-1.86715 -4.03638,-4.00046c-3.26224,-4.14293 2.33501,-2.05776 5.51998,-0.68054c2.91668,1.26121 5.88075,7.3152 5.88075,7.3152l-3.39144,-5.73428c0,0 1.67284,-1.17995 2.88548,-0.37375c1.25352,0.83337 3.43375,4.57493 3.43375,4.57493l0.66936,7.65604c0,0 6.05101,-0.44193 6.05101,4.0545c0,3.83644 -3.30884,5.85062 -5.56244,7.26438c-2.39264,1.50098 -5.68211,4.53022 -5.68211,4.53022z" data-paper-data="{&quot;origPos&quot;:null}" fill="url(#color-5)" stroke="#244b00" stroke-width="1.5" stroke-linecap="butt"/><path d="M247.94271,166.11907l-18.53952,1.13184c0,0 -4.37399,-4.14699 -8.14183,-5.50509c-2.30605,-0.83121 -5.28093,-0.49143 -7.38601,-1.74737c-1.06778,-0.63706 -1.43704,-2.6026 -2.51412,-3.22379c-1.93319,-1.11497 -2.83733,0.05949 -4.51262,-1.41488c-1.60225,-1.41009 -2.53322,-3.52192 1.00382,-5.62516c2.25761,-1.34245 4.69783,-1.61305 4.69783,-1.61305c0,0 -6.28279,-4.19499 0.72022,-5.14291c1.69818,-0.22987 9.05571,2.26905 9.05571,2.26905c0,0 -9.6532,-2.64948 -7.09983,-4.66466c3.21695,-2.53888 2.56492,-1.70445 6.3298,-1.07793c4.04253,0.67272 8.38121,3.01385 8.38121,3.01385c0,0 -4.1634,-2.36165 -7.05849,-4.44479c1.51131,-1.27537 3.90297,-2.23364 5.85733,-1.93185c3.2466,0.50135 7.31113,4.32625 7.31113,4.32625c0,0 -10.19625,-6.30686 -7.31947,-6.97219c0.63232,-0.14624 5.11926,0.32062 7.11544,1.22792c1.99618,0.90731 6.33146,6.78851 6.33146,6.78851c0,0 -2.35656,-1.86715 -4.03638,-4.00046c-3.26224,-4.14293 2.33501,-2.05776 5.51998,-0.68053c2.91668,1.26121 5.88075,7.3152 5.88075,7.3152l-3.39145,-5.73429c0,0 1.67284,-1.17995 2.88548,-0.37374c1.25352,0.83337 6.64071,5.49119 6.64071,5.49119c0,0 -1.43652,4.95496 1.96665,5.08076c2.6555,0.09817 3.9504,6.3551 2.43998,8.5414c-1.2213,1.7678 -5.83169,-1.59565 -7.33474,-0.06023c-3.27918,3.34977 -4.80302,9.02694 -4.80302,9.02694z" data-paper-data="{&quot;origPos&quot;:null}" fill="url(#color-6)" stroke="#244b00" stroke-width="1.5" stroke-linecap="butt"/><path d="M245.10502,157.20283c0,0 13.37523,22.26591 12.70938,32.92245c-0.51649,8.26623 -9.01358,15.15891 -16.69204,15.15891c-9.41887,0 -19.31075,-6.59417 -20.3479,-16.69526c-0.83725,-8.15425 10.41067,-30.46915 10.41067,-30.46915z" data-paper-data="{&quot;origPos&quot;:null}" fill="url(#color-7)" stroke="#244b00" stroke-width="2" stroke-linecap="butt"/><path d="M229.16097,202.12289c-10.76787,-4.55752 -8.91651,-13.28594 -8.91651,-13.28594c0,0 0.47337,0.52498 10.42366,6.94451c9.95029,6.41953 19.25992,0.59666 22.29559,-4.8215c1.89341,-3.37939 1.72325,-6.08004 0.97159,-9.94478c-1.46135,-7.51367 -6.5167,-18.75013 -6.5167,-18.75013c0,0 9.81937,16.45504 10.4026,26.80096c0,0 -0.44326,4.20581 -1.82479,6.82602c-2.16661,4.10921 -4.58826,6.60929 -8.8017,7.90627c-6.55363,2.01733 -7.26587,2.88212 -18.03374,-1.6754z" data-paper-data="{&quot;origPos&quot;:null}" fill="url(#color-8)" stroke="#244b00" stroke-width="0" stroke-linecap="butt"/><path d="M245.09596,159.41968l-15.01947,0.91695c0,0 -9.03089,-2.52877 -11.19971,-4.1751c-2.37187,-1.80046 -0.65156,-3.0099 -3.23109,-4.49765c-1.56614,-0.90327 -2.48419,0.23377 -3.8414,-0.96067c-1.04385,-0.91865 -1.56893,-1.95045 -0.81962,-3.12181c0.46118,-0.72094 0.89725,-0.9979 1.63285,-1.43531c1.82896,-1.08756 3.80586,-1.30678 3.80586,-1.30678c0,0 -5.08988,-3.39849 0.58347,-4.16644c1.37576,-0.18622 7.33632,1.83823 7.33632,1.83823c0,0 -7.82038,-2.14644 -5.75181,-3.77899c2.60615,-2.05684 2.07793,-1.38083 5.12798,-0.87327c3.275,0.54499 6.78989,2.44162 6.78989,2.44162c0,0 -3.37291,-1.91325 -5.71831,-3.60086c1.22436,-1.03321 3.16192,-1.80955 4.74522,-1.56505c2.63017,0.40616 5.92299,3.50484 5.92299,3.50484c0,0 -6.1987,-5.10939 -3.86813,-5.64839c2.33057,-0.539 2.08566,0.25975 3.70283,0.99478c1.61717,0.73503 5.12932,5.4996 5.12932,5.4996c0,0 -1.90913,-1.51264 -3.27,-3.2409c-2.64284,-3.35632 1.89167,-1.66706 4.47192,-0.55133c2.36291,1.02175 4.76419,5.92629 4.76419,5.92629l-2.74752,-4.64554c0,0 1.35522,-0.95591 2.33762,-0.30278c1.01551,0.67514 2.78179,3.7063 2.78179,3.7063c0,0 1.61985,-1.92425 4.37688,-1.82233c3.05627,0.11298 1.80981,2.57033 1.80981,6.67003c0,4.09969 -3.4178,5.61081 -4.66176,6.88156c-2.65656,2.71376 -5.19011,7.31301 -5.19011,7.31301z" data-paper-data="{&quot;origPos&quot;:null}" fill="url(#color-9)" stroke="#244b00" stroke-width="1.5" stroke-linecap="butt"/><path d="M251.46726,176.05313c0.12776,2.97026 -1.30562,5.44423 -3.20153,5.52578c-1.89591,0.08154 -3.53641,-2.26022 -3.66417,-5.23048c-0.12776,-2.97026 1.30562,-5.44423 3.20153,-5.52578c1.89591,-0.08154 3.53641,2.26022 3.66417,5.23048z" data-paper-data="{&quot;origRot&quot;:0,&quot;origPos&quot;:null}" fill="#ffffff" stroke="#244b00" stroke-width="0.5" stroke-linecap="butt"/><path d="M242.93533,175.6391c0,0 -2.3711,3.69447 -4.52178,3.82c-2.14703,0.12531 -4.39626,-4.44762 -4.39626,-4.44762z" data-paper-data="{&quot;origPos&quot;:null}" fill="#ffffff" stroke="#244b00" stroke-width="0.5" stroke-linecap="butt"/><path d="M249.88894,169.81985c-1.53305,-0.64413 -3.53713,1.50149 -4.5095,2.85043c-0.9229,1.2803 -0.88076,2.58458 -0.88076,2.58458l-11.81183,-0.54304" data-paper-data="{&quot;origPos&quot;:null}" fill="none" stroke="#244b00" stroke-width="1" stroke-linecap="round"/><path d="M240.65102,176.37548c0,0.55461 -0.4496,1.0042 -1.0042,1.0042c-0.55461,0 -1.0042,-0.4496 -1.0042,-1.0042c0,-0.55461 0.4496,-1.0042 1.0042,-1.0042c0.55461,0 1.0042,0.4496 1.0042,1.0042z" data-paper-data="{&quot;origPos&quot;:null}" fill="#000000" stroke="none" stroke-width="0" stroke-linecap="butt"/><path d="M248.70777,175.89654c0,0.8319 -0.4496,1.5063 -1.0042,1.5063c-0.55461,0 -1.0042,-0.6744 -1.0042,-1.5063c0,-0.8319 0.4496,-1.50629 1.0042,-1.50629c0.55461,0 1.0042,0.67439 1.0042,1.50629z" data-paper-data="{&quot;origPos&quot;:null}" fill="#000000" stroke="none" stroke-width="0" stroke-linecap="butt"/><path d="M241.97221,187.95849c0,0 0.25104,-1.12662 0.25104,-2.0084c0,-0.97975 -0.25104,-2.38498 -0.25104,-2.38498l2.76154,0.12552c0,0 0.43388,1.22744 0.55091,2.09341c0.12792,0.94658 -0.17433,2.04892 -0.17433,2.04892z" data-paper-data="{&quot;origPos&quot;:null}" fill="#ffffff" stroke="#244b00" stroke-width="0.5" stroke-linecap="butt"/><path d="M235.44492,186.57772c0,0 3.81152,-2.6371 6.2511,-3.03951c2.31224,-0.3814 5.92482,1.03111 5.92482,1.03111" data-paper-data="{&quot;origPos&quot;:null}" fill="none" stroke="#244b00" stroke-width="1" stroke-linecap="round"/><path d="M213.24413,191.30948c-0.42276,3.39627 -0.89911,5.12022 -3.49402,4.79722c-2.5949,-0.32302 -5.44534,-2.79863 -5.02258,-6.1949c0.42276,-3.39627 2.13808,-4.12208 4.73298,-3.7991l2.53454,3.73609c0,0 1.67182,-1.93559 1.24905,1.46069z" data-paper-data="{&quot;origPos&quot;:null,&quot;origRot&quot;:0}" fill="url(#color-10)" stroke="#244b00" stroke-width="1" stroke-linecap="butt"/><path d="M207.13745,190.22947l2.32167,-3.77464l1.97871,3.3516l-2.22536,3.00101z" data-paper-data="{&quot;origPos&quot;:null,&quot;origRot&quot;:0}" fill="url(#color-11)" stroke="#244b00" stroke-width="0.5" stroke-linecap="butt"/><path d="M209.71458,192.02857c-0.11063,0.88878 -0.95324,1.4203 -0.99093,1.4156c-0.89033,-0.11082 -1.18752,-0.97182 -1.5185,-1.80575c-0.29659,-0.74722 -0.40452,-1.69941 0.39325,-1.60011c0.93544,0.11644 2.24487,0.95635 2.11618,1.99023z" data-paper-data="{&quot;origPos&quot;:null,&quot;origRot&quot;:0}" fill="#244b00" stroke="#244b00" stroke-width="0" stroke-linecap="butt"/><path d="M208.16295,183.07668c0,0 2.52026,-0.7417 3.40627,-0.46262c1.59096,0.50116 2.46724,2.73274 2.46724,2.73274" data-paper-data="{&quot;origPos&quot;:null,&quot;origRot&quot;:0}" fill="none" stroke="#244b00" stroke-width="1" stroke-linecap="round"/></g></g></svg>