<svg version="1.1" xmlns="http://www.w3.org/2000/svg" xmlns:xlink="http://www.w3.org/1999/xlink" width="91.44952" height="90.3796" viewBox="0,0,91.44952,90.3796"><defs><linearGradient x1="239.97983" y1="133.34423" x2="260.9977" y2="137.79358" gradientUnits="userSpaceOnUse" id="color-1"><stop offset="0" stop-color="#fff8ad"/><stop offset="1" stop-color="#c9c388"/></linearGradient><linearGradient x1="235.21972" y1="195.51745" x2="255.044" y2="195.51745" gradientUnits="userSpaceOnUse" id="color-2"><stop offset="0" stop-color="#2fe500"/><stop offset="1" stop-color="#51b800"/></linearGradient><linearGradient x1="246.8852" y1="139.36728" x2="284.25605" y2="147.27844" gradientUnits="userSpaceOnUse" id="color-3"><stop offset="0" stop-color="#fff8ad"/><stop offset="1" stop-color="#c9c388"/></linearGradient><linearGradient x1="241.60454" y1="136.11661" x2="280.56898" y2="158.67505" gradientUnits="userSpaceOnUse" id="color-4"><stop offset="0" stop-color="#fff8ad"/><stop offset="1" stop-color="#c9c388"/></linearGradient><linearGradient x1="219.48265" y1="130.39512" x2="240.33747" y2="134.80995" gradientUnits="userSpaceOnUse" id="color-5"><stop offset="0" stop-color="#fff8ad"/><stop offset="1" stop-color="#c9c388"/></linearGradient><linearGradient x1="197.29469" y1="127.85249" x2="242.13762" y2="137.34543" gradientUnits="userSpaceOnUse" id="color-6"><stop offset="0" stop-color="#fff8ad"/><stop offset="1" stop-color="#c9c388"/></linearGradient><linearGradient x1="201.39081" y1="140.43266" x2="236.42478" y2="147.8491" gradientUnits="userSpaceOnUse" id="color-7"><stop offset="0" stop-color="#fff8ad"/><stop offset="1" stop-color="#c9c388"/></linearGradient><linearGradient x1="249.65723" y1="146.21106" x2="235.49647" y2="213.10391" gradientUnits="userSpaceOnUse" id="color-8"><stop offset="0" stop-color="#3dff00"/><stop offset="1" stop-color="#ebffd8"/></linearGradient><linearGradient x1="242.91416" y1="127.34142" x2="241.23646" y2="150.27419" gradientUnits="userSpaceOnUse" id="color-9"><stop offset="0" stop-color="#00e0ff"/><stop offset="1" stop-color="#00bcc4"/></linearGradient><linearGradient x1="215.75074" y1="148.55414" x2="237.8454" y2="153.23144" gradientUnits="userSpaceOnUse" id="color-10"><stop offset="0" stop-color="#fff8ad"/><stop offset="1" stop-color="#c9c388"/></linearGradient><linearGradient x1="240.56573" y1="150.13856" x2="269.32774" y2="156.22729" gradientUnits="userSpaceOnUse" id="color-11"><stop offset="0" stop-color="#fff8ad"/><stop offset="1" stop-color="#c9c388"/></linearGradient><linearGradient x1="227.82283" y1="153.10881" x2="242.79282" y2="156.27786" gradientUnits="userSpaceOnUse" id="color-12"><stop offset="0" stop-color="#fff8ad"/><stop offset="1" stop-color="#c9c388"/></linearGradient><linearGradient x1="213.25545" y1="193.90635" x2="232.71925" y2="195.14993" gradientUnits="userSpaceOnUse" id="color-13"><stop offset="0" stop-color="#2fe500"/><stop offset="1" stop-color="#51b800"/></linearGradient><linearGradient x1="228.68678" y1="198.43762" x2="249.27753" y2="198.43762" gradientUnits="userSpaceOnUse" id="color-14"><stop offset="0" stop-color="#2fe500"/><stop offset="1" stop-color="#51b800"/></linearGradient></defs><g transform="translate(-195.20006,-114.16069)"><g data-paper-data="{&quot;isPaintingLayer&quot;:true}" fill-rule="nonzero" stroke-linejoin="miter" stroke-miterlimit="10" stroke-dasharray="" stroke-dashoffset="0" style="mix-blend-mode: normal"><path d="M231.26445,193.16737c0.39393,-3.58432 4.72194,-6.17169 9.66687,-5.77909c4.94493,0.3926 9.42647,4.17765 9.03253,7.76197c-0.39393,3.5843 -19.09333,1.60142 -18.6994,-1.98289z" data-paper-data="{&quot;origPos&quot;:null,&quot;origRot&quot;:0,&quot;index&quot;:null}" fill="#25b800" stroke="#000000" stroke-width="2" stroke-linecap="butt"/><path d="M233.10056,191.32246c0.06296,3.60535 -18.73952,3.86185 -18.80249,0.25652c-0.06296,-3.60535 4.74736,-6.96266 9.70745,-6.89929c4.96009,0.06337 9.03207,3.03743 9.09503,6.64278z" data-paper-data="{&quot;origPos&quot;:null,&quot;origRot&quot;:0}" fill="#25b800" stroke="#000000" stroke-width="2" stroke-linecap="butt"/><path d="M252.95018,132.13553c0,0 -8.40758,2.99827 -8.72449,2.99237c-4.90069,-0.09158 -6.00156,-0.61023 -0.42933,-10.1452c3.43039,-4.1536 9.79875,-8.07892 13.36527,-5.85612c5.09876,3.17774 2.94441,22.74216 2.84422,23.10908c-1.26934,4.6481 -0.33924,7.78161 -5.70867,11.91648c-3.53238,2.7202 -1.34701,-22.0166 -1.34701,-22.0166z" data-paper-data="{&quot;origPos&quot;:null,&quot;origRot&quot;:0,&quot;index&quot;:null}" fill="url(#color-1)" stroke="#666349" stroke-width="1.5" stroke-linecap="butt"/><path d="M235.22622,196.53993c0.41696,-3.77324 4.99788,-6.497 10.2318,-6.0837c5.23392,0.4133 9.97736,4.39786 9.5604,8.1711c-0.41696,3.77322 -20.20916,1.68583 -19.7922,-2.08741z" data-paper-data="{&quot;origPos&quot;:null,&quot;origRot&quot;:0,&quot;index&quot;:null}" fill="url(#color-2)" stroke="#000000" stroke-width="2" stroke-linecap="butt"/><path d="M276.68782,138.94635c-3.07227,-1.30914 -11.12818,-3.83221 -11.12818,-3.83221c-8.16439,5.57966 -14.39628,15.291 -14.55774,15.82859c-2.49703,8.314 -9.99882,8.95084 -6.03658,-1.13525c2.76257,-7.03219 4.04737,-11.61015 7.28632,-18.43603c1.33283,-2.80887 0.26617,-4.43444 2.83303,-6.18868c4.91768,-3.36082 29.32178,3.79979 30.81491,11.97234c1.11392,6.0969 -5.16306,3.51645 -9.21176,1.79124z" data-paper-data="{&quot;origPos&quot;:null,&quot;index&quot;:null,&quot;origRot&quot;:0}" fill="url(#color-3)" stroke="#666349" stroke-width="1.5" stroke-linecap="butt"/><path d="M270.59763,157.16918c-1.36294,-3.04878 -5.55521,-10.37603 -5.55521,-10.37603c-9.78065,-1.45902 -20.95314,1.42571 -21.43706,1.71019c-7.48359,4.39926 -13.41788,-0.23401 -3.65496,-4.9366c6.80687,-3.27872 10.86148,-5.76237 17.87742,-8.56594c2.88706,-1.15367 3.21003,-3.07096 6.28506,-2.61223c5.89122,0.8788 18.91917,22.7216 14.45784,29.72989c-3.32826,5.22836 -6.17697,-0.93152 -7.97307,-4.94926z" data-paper-data="{&quot;origPos&quot;:null,&quot;index&quot;:null,&quot;origRot&quot;:0}" fill="url(#color-4)" stroke="#666349" stroke-width="1.5" stroke-linecap="butt"/><path d="M218.97379,148.09238c-3.23326,-5.95599 -1.11318,-8.44381 -0.39009,-13.20755c0.05709,-0.37603 6.01556,-19.13516 11.96464,-19.97414c4.16131,-0.58687 7.6575,4.12095 9.59575,10.71682c1.23043,10.97505 0.26375,11.056 -4.25366,9.15385c-0.29212,-0.123 -6.76348,-6.27105 -6.76348,-6.27105c0,0 -8.02609,23.50034 -10.15316,19.58209z" data-paper-data="{&quot;origPos&quot;:null,&quot;origRot&quot;:0}" fill="url(#color-5)" stroke="#666349" stroke-width="1.5" stroke-linecap="butt"/><path d="M196.15811,137.31927c-1.96564,-9.21376 10.39461,-20.25855 20.29736,-18.16222c9.90275,2.09634 14.18528,8.59244 21.61415,16.32738c7.50633,7.81558 0.32777,10.0851 -5.14866,3.34963c-0.35411,-0.43554 -9.81611,-7.03987 -19.49058,-9.08789c0,0 -6.48691,5.40217 -8.82863,7.78315c-3.08596,3.13769 -7.15049,5.85136 -8.44363,-0.21008z" data-paper-data="{&quot;origPos&quot;:null,&quot;origRot&quot;:0}" fill="url(#color-6)" stroke="#666349" stroke-width="1.5" stroke-linecap="butt"/><path d="M203.35263,158.58983c-6.64512,-6.67827 -3.31531,-8.90999 -2.80888,-13.71959c0.03999,-0.37963 7.5072,-18.81939 17.83787,-18.73082c7.2262,0.06195 10.67829,6.32735 17.70971,7.99491c3.92837,11.54618 0.55383,10.59511 -7.69882,7.90225c-0.53363,-0.17413 -1.08513,-5.58486 -10.3257,-2.06328c-8.19908,3.12467 -10.34257,23.00996 -14.71418,18.61653z" data-paper-data="{&quot;origPos&quot;:null,&quot;origRot&quot;:0}" fill="url(#color-7)" stroke="#666349" stroke-width="1.5" stroke-linecap="butt"/><path d="M227.14769,191.48901c-0.93561,-3.67503 -17.09478,-55.25044 9.40415,-49.35805c25.16348,5.59544 -17.16972,-0.59276 10.08444,2.91826c17.8333,2.29738 1.27478,34.88383 -7.01956,46.72902c-8.29434,11.84518 -11.53344,3.38578 -12.46905,-0.28924z" data-paper-data="{&quot;origPos&quot;:null,&quot;origRot&quot;:0}" fill="url(#color-8)" stroke="#244b00" stroke-width="1.5" stroke-linecap="butt"/><path d="M259.62914,140.47625c0.08033,5.57299 -9.20358,10.07551 -17.71758,9.45265c-8.51398,-0.62285 -20.18004,-5.65366 -19.77339,-11.21237c0.40665,-5.55869 10.26048,-11.62295 18.77447,-11.0001c8.51398,0.62285 18.63219,6.90903 18.71651,12.75984z" data-paper-data="{&quot;origPos&quot;:null,&quot;origRot&quot;:0}" fill="url(#color-9)" stroke="#244b00" stroke-width="1.5" stroke-linecap="butt"/><path d="M215.24872,166.21896c-3.23326,-5.95599 -1.11318,-8.44381 -0.39009,-13.20755c0.05709,-0.37603 6.01556,-19.13516 11.96464,-19.97414c4.16131,-0.58687 8.28691,6.08226 12.19201,7.088c1.23043,10.97505 -2.3325,14.68482 -6.84991,12.78266c-0.29212,-0.123 -6.76348,-6.27105 -6.76348,-6.27105c0,0 -8.02609,23.50034 -10.15316,19.58209z" data-paper-data="{&quot;origPos&quot;:null,&quot;origRot&quot;:0}" fill="url(#color-10)" stroke="#666349" stroke-width="1.5" stroke-linecap="butt"/><path d="M253.89783,155.65935c-1.45988,-1.44808 -4.26209,-10.21992 -4.26209,-10.21992l1.74071,4.98631c0,0 -4.74167,3.24346 -7.75464,2.93564c-8.63592,-0.88232 3.42758,-14.67922 6.7429,-15.28761c6.85468,-1.25786 10.1189,7.11063 12.88178,13.50871c2.88174,6.67326 5.23259,11.77496 2.99915,18.69225c0,0 -9.18521,-7.51862 -12.34782,-14.61537z" data-paper-data="{&quot;origPos&quot;:null,&quot;origRot&quot;:0,&quot;index&quot;:null}" fill="url(#color-11)" stroke="#666349" stroke-width="1.5" stroke-linecap="butt"/><path d="M229.00207,171.22486c-3.23326,-5.95599 -2.86282,-8.8142 -2.13974,-13.57794c0.05709,-0.37603 2.25169,-18.62618 8.20076,-19.46515c4.16131,-0.58687 8.23954,1.37149 8.29861,5.7415c1.23043,10.97505 -0.72697,14.50239 -5.24438,12.60023c-0.29212,-0.123 1.23492,-4.57785 1.23492,-4.57785c0,0 -8.22314,23.19746 -10.3502,19.27922z" data-paper-data="{&quot;origPos&quot;:null,&quot;origRot&quot;:0}" fill="url(#color-12)" stroke="#666349" stroke-width="1.5" stroke-linecap="butt"/><path d="M237.52905,172.18886c-0.32218,2.63285 -1.676,4.73932 -3.02378,4.70486c-1.34778,-0.03441 -2.17916,-2.1967 -1.85695,-4.82955c0.32218,-2.63285 1.676,-4.73932 3.02378,-4.70486c1.34778,0.03441 2.17915,2.19671 1.85692,4.82955z" data-paper-data="{&quot;origPos&quot;:null,&quot;origRot&quot;:0}" fill="#000000" stroke="none" stroke-width="0" stroke-linecap="butt"/><path d="M243.68489,171.35723c-0.26367,1.9813 -1.29948,3.55479 -2.31361,3.51447c-1.01416,-0.04033 -1.62255,-1.67916 -1.35893,-3.6605c0.26367,-1.9813 1.29947,-3.5548 2.31361,-3.51447c1.01416,0.04033 1.62258,1.67919 1.35895,3.66048z" data-paper-data="{&quot;origPos&quot;:null,&quot;origRot&quot;:0}" fill="#000000" stroke="none" stroke-width="0" stroke-linecap="butt"/><path d="M235.91946,171.15434c-0.14617,1.19436 -0.7603,2.14993 -1.37172,2.13434c-0.6114,-0.01562 -0.98855,-0.99654 -0.84237,-2.19087c0.14617,-1.19436 0.7603,-2.14993 1.37172,-2.13434c0.6114,0.01562 0.98855,0.99654 0.84237,2.19086z" data-paper-data="{&quot;origPos&quot;:null,&quot;origRot&quot;:0}" fill="#ffffff" stroke="none" stroke-width="0" stroke-linecap="butt"/><path d="M242.34955,170.15783c-0.08989,0.67568 -0.44315,1.21229 -0.789,1.19852c-0.34581,-0.01375 -0.5533,-0.57262 -0.46342,-1.24831c0.08989,-0.67568 0.44315,-1.21229 0.789,-1.19852c0.34581,0.01375 0.55331,0.57263 0.46341,1.24831z" data-paper-data="{&quot;origPos&quot;:null,&quot;origRot&quot;:0}" fill="#ffffff" stroke="none" stroke-width="0" stroke-linecap="butt"/><path d="M237.77841,185.159c0,0 -2.53072,0.06543 -3.27351,-0.87706c-0.70328,-0.89237 -1.69625,-2.78651 -1.69625,-2.78651" data-paper-data="{&quot;origPos&quot;:null,&quot;origRot&quot;:0}" fill="none" stroke="#244b00" stroke-width="1" stroke-linecap="round"/><path d="M232.65693,196.22327c0.20291,3.98864 -19.34361,4.93917 -19.54653,0.95053c-0.20291,-3.98864 4.67231,-7.8755 9.83367,-7.9812c5.16136,-0.1057 9.50994,3.04203 9.71286,7.03068z" data-paper-data="{&quot;origPos&quot;:null,&quot;origRot&quot;:0}" fill="url(#color-13)" stroke="#000000" stroke-width="2" stroke-linecap="butt"/><path d="M228.69353,199.4601c0.43308,-3.77324 5.19112,-6.49699 10.62739,-6.0837c5.43628,0.4133 10.36312,4.39786 9.93004,8.17109c-0.43308,3.77322 -20.99051,1.68583 -20.55743,-2.08741z" data-paper-data="{&quot;origPos&quot;:null,&quot;origRot&quot;:0,&quot;index&quot;:null}" fill="url(#color-14)" stroke="#000000" stroke-width="2" stroke-linecap="butt"/></g></g></svg>