<svg version="1.1" xmlns="http://www.w3.org/2000/svg" xmlns:xlink="http://www.w3.org/1999/xlink" width="91.45948" height="90.72893" viewBox="0,0,91.45948,90.72893"><defs><linearGradient x1="237.77465" y1="132.60501" x2="258.95292" y2="136.2145" gradientUnits="userSpaceOnUse" id="color-1"><stop offset="0" stop-color="#fff8ad"/><stop offset="1" stop-color="#c9c388"/></linearGradient><linearGradient x1="235.21972" y1="195.51745" x2="255.044" y2="195.51745" gradientUnits="userSpaceOnUse" id="color-2"><stop offset="0" stop-color="#2fe500"/><stop offset="1" stop-color="#51b800"/></linearGradient><linearGradient x1="244.91422" y1="138.34851" x2="282.57027" y2="144.76636" gradientUnits="userSpaceOnUse" id="color-3"><stop offset="0" stop-color="#fff8ad"/><stop offset="1" stop-color="#c9c388"/></linearGradient><linearGradient x1="238.98218" y1="136.46089" x2="280.10543" y2="154.79089" gradientUnits="userSpaceOnUse" id="color-4"><stop offset="0" stop-color="#fff8ad"/><stop offset="1" stop-color="#c9c388"/></linearGradient><linearGradient x1="217.17636" y1="130.47385" x2="238.19033" y2="134.05534" gradientUnits="userSpaceOnUse" id="color-5"><stop offset="0" stop-color="#fff8ad"/><stop offset="1" stop-color="#c9c388"/></linearGradient><linearGradient x1="194.90479" y1="128.81613" x2="240.08995" y2="136.51718" gradientUnits="userSpaceOnUse" id="color-6"><stop offset="0" stop-color="#fff8ad"/><stop offset="1" stop-color="#c9c388"/></linearGradient><linearGradient x1="199.49825" y1="141.22334" x2="234.79959" y2="147.23985" gradientUnits="userSpaceOnUse" id="color-7"><stop offset="0" stop-color="#fff8ad"/><stop offset="1" stop-color="#c9c388"/></linearGradient><linearGradient x1="248.46593" y1="145.00541" x2="236.97816" y2="212.40876" gradientUnits="userSpaceOnUse" id="color-8"><stop offset="0" stop-color="#3dff00"/><stop offset="1" stop-color="#ebffd8"/></linearGradient><linearGradient x1="240.4678" y1="126.49019" x2="239.70396" y2="149.47156" gradientUnits="userSpaceOnUse" id="color-9"><stop offset="0" stop-color="#00e0ff"/><stop offset="1" stop-color="#00bcc4"/></linearGradient><linearGradient x1="214.16998" y1="148.76699" x2="236.43326" y2="152.5614" gradientUnits="userSpaceOnUse" id="color-10"><stop offset="0" stop-color="#fff8ad"/><stop offset="1" stop-color="#c9c388"/></linearGradient><linearGradient x1="240.81536" y1="149.29156" x2="269.79687" y2="154.23098" gradientUnits="userSpaceOnUse" id="color-11"><stop offset="0" stop-color="#fff8ad"/><stop offset="1" stop-color="#c9c388"/></linearGradient><linearGradient x1="228.20075" y1="152.76652" x2="243.28498" y2="155.33738" gradientUnits="userSpaceOnUse" id="color-12"><stop offset="0" stop-color="#fff8ad"/><stop offset="1" stop-color="#c9c388"/></linearGradient><linearGradient x1="213.25545" y1="193.90635" x2="232.71925" y2="195.14993" gradientUnits="userSpaceOnUse" id="color-13"><stop offset="0" stop-color="#2fe500"/><stop offset="1" stop-color="#51b800"/></linearGradient><linearGradient x1="228.68678" y1="198.43762" x2="249.27753" y2="198.43762" gradientUnits="userSpaceOnUse" id="color-14"><stop offset="0" stop-color="#2fe500"/><stop offset="1" stop-color="#51b800"/></linearGradient></defs><g transform="translate(-193.10019,-113.81136)"><g data-paper-data="{&quot;isPaintingLayer&quot;:true}" fill-rule="nonzero" stroke-linejoin="miter" stroke-miterlimit="10" stroke-dasharray="" stroke-dashoffset="0" style="mix-blend-mode: normal"><path d="M231.26445,193.16737c0.39393,-3.58432 4.72194,-6.17169 9.66687,-5.77909c4.94493,0.3926 9.42647,4.17765 9.03253,7.76197c-0.39393,3.5843 -19.09333,1.60142 -18.6994,-1.98289z" data-paper-data="{&quot;origPos&quot;:null,&quot;origRot&quot;:0,&quot;index&quot;:null}" fill="#25b800" stroke="#000000" stroke-width="2" stroke-linecap="butt"/><path d="M233.10056,191.32246c0.06296,3.60535 -18.73952,3.86185 -18.80249,0.25652c-0.06296,-3.60535 4.74736,-6.96266 9.70745,-6.89929c4.96009,0.06337 9.03207,3.03743 9.09503,6.64278z" data-paper-data="{&quot;origPos&quot;:null,&quot;origRot&quot;:0}" fill="#25b800" stroke="#000000" stroke-width="2" stroke-linecap="butt"/><path d="M250.68663,130.88116c0,0 -8.28162,3.33045 -8.59851,3.33716c-4.90045,0.1035 -6.02109,-0.37094 -0.83268,-10.12008c3.26239,-4.28681 9.46952,-8.46243 13.12166,-6.38331c5.22117,2.97234 3.84702,22.60699 3.76151,22.9776c-1.08338,4.69493 -0.02933,7.78895 -5.22997,12.1342c-3.42134,2.8586 -2.22202,-21.94556 -2.22202,-21.94556z" data-paper-data="{&quot;origPos&quot;:null,&quot;origRot&quot;:0,&quot;index&quot;:null}" fill="url(#color-1)" stroke="#666349" stroke-width="1.5" stroke-linecap="butt"/><path d="M235.22622,196.53993c0.41696,-3.77324 4.99788,-6.497 10.2318,-6.0837c5.23392,0.4133 9.97736,4.39786 9.5604,8.1711c-0.41696,3.77322 -20.20916,1.68583 -19.7922,-2.08741z" data-paper-data="{&quot;origPos&quot;:null,&quot;origRot&quot;:0,&quot;index&quot;:null}" fill="url(#color-2)" stroke="#000000" stroke-width="2" stroke-linecap="butt"/><path d="M274.67649,136.74202c-3.12193,-1.18585 -11.27186,-3.38637 -11.27186,-3.38637c-7.9359,5.90011 -13.77642,15.85174 -13.91637,16.39533c-2.16422,8.40678 -9.63473,9.34162 -6.07697,-0.89415c2.48056,-7.13655 3.58218,-11.76201 6.54695,-18.71136c1.22001,-2.85968 0.08951,-4.44152 2.58453,-6.29651c4.78005,-3.55384 29.44976,2.63002 31.2669,10.73668c1.35564,6.04775 -5.01905,3.71911 -9.13319,2.15637z" data-paper-data="{&quot;origPos&quot;:null,&quot;index&quot;:null,&quot;origRot&quot;:0}" fill="url(#color-3)" stroke="#666349" stroke-width="1.5" stroke-linecap="butt"/><path d="M270.03095,154.34339c-1.6764,-2.8883 -6.61694,-9.73336 -6.61694,-9.73336c-9.87991,-0.42098 -20.68652,3.62419 -21.13779,3.95804c-6.97874,5.16283 -13.36791,1.18022 -4.15448,-4.52429c6.42377,-3.97727 10.1943,-6.87406 16.87602,-10.40083c2.74952,-1.45127 2.86881,-3.3919 5.97505,-3.25954c5.951,0.25356 21.20661,20.60306 17.50807,28.04217c-2.7592,5.54977 -6.24071,-0.2759 -8.44991,-4.08217z" data-paper-data="{&quot;origPos&quot;:null,&quot;index&quot;:null,&quot;origRot&quot;:0}" fill="url(#color-4)" stroke="#666349" stroke-width="1.5" stroke-linecap="butt"/><path d="M217.3721,148.17734c-3.4677,-5.82262 -1.44829,-8.39283 -0.91533,-13.18157c0.04208,-0.378 5.24938,-19.35937 11.16036,-20.43441c4.13466,-0.75199 7.81541,3.81298 10.01459,10.3265c1.66617,10.9174 0.70348,11.03675 -3.88604,9.31586c-0.29678,-0.11128 -7.00766,-5.99695 -7.00766,-5.99695c0,0 -7.08462,23.8011 -9.36592,19.97059z" data-paper-data="{&quot;origPos&quot;:null,&quot;origRot&quot;:0}" fill="url(#color-5)" stroke="#666349" stroke-width="1.5" stroke-linecap="butt"/><path d="M194.14581,138.32064c-2.33071,-9.12825 9.58026,-20.65612 19.55858,-18.9555c9.97832,1.70063 14.51595,8.02118 22.24672,15.45439c7.81138,7.5107 0.72881,10.06407 -5.0113,3.55185c-0.37116,-0.4211 -10.08846,-6.6437 -19.83677,-8.30513c0,0 -6.26681,5.65602 -8.51193,8.12829c-2.95866,3.258 -6.91199,6.13126 -8.4453,0.12607z" data-paper-data="{&quot;origPos&quot;:null,&quot;origRot&quot;:0}" fill="url(#color-6)" stroke="#666349" stroke-width="1.5" stroke-linecap="butt"/><path d="M202.18102,159.28807c-6.9056,-6.40856 -3.66723,-8.77101 -3.35258,-13.59695c0.02485,-0.38092 6.7524,-19.10321 17.07841,-19.42578c7.22294,-0.22564 10.92161,5.89743 18.01381,7.28388c4.3847,11.38072 0.97499,10.56468 -7.37828,8.20234c-0.54014,-0.15276 -1.3065,-5.53726 -10.39962,-1.65077c-8.06825,3.44845 -9.41878,23.40328 -13.96174,19.18729z" data-paper-data="{&quot;origPos&quot;:null,&quot;origRot&quot;:0}" fill="url(#color-7)" stroke="#666349" stroke-width="1.5" stroke-linecap="butt"/><path d="M227.7759,191.14319c-1.0811,-3.63489 -19.27974,-54.52645 7.43267,-49.69316c25.3662,4.58971 -17.17971,0.09092 10.19258,2.51467c17.91059,1.58595 2.66185,34.80548 -5.15458,46.97133c-7.81643,12.16584 -11.38958,3.84203 -12.47068,0.20715z" data-paper-data="{&quot;origPos&quot;:null,&quot;origRot&quot;:0}" fill="url(#color-8)" stroke="#244b00" stroke-width="1.5" stroke-linecap="butt"/><path d="M257.69219,138.9495c0.30202,5.56538 -8.79537,10.43376 -17.32741,10.15017c-8.53202,-0.28357 -20.38903,-4.84619 -20.20389,-10.41668c0.18514,-5.57047 9.78986,-12.02203 18.32189,-11.73845c8.53202,0.28357 18.89235,6.16215 19.20942,12.00497z" data-paper-data="{&quot;origPos&quot;:null,&quot;origRot&quot;:0}" fill="url(#color-9)" stroke="#244b00" stroke-width="1.5" stroke-linecap="butt"/><path d="M214.37127,166.43779c-3.4677,-5.82262 -1.44829,-8.39283 -0.91533,-13.18157c0.04208,-0.378 5.24938,-19.35937 11.16036,-20.43441c4.13466,-0.75199 8.52237,5.74769 12.4644,6.59725c1.66617,10.9174 -1.74632,14.766 -6.33584,13.0451c-0.29678,-0.11128 -7.00766,-5.99695 -7.00766,-5.99695c0,0 -7.08462,23.8011 -9.36592,19.97059z" data-paper-data="{&quot;origPos&quot;:null,&quot;origRot&quot;:0}" fill="url(#color-10)" stroke="#666349" stroke-width="1.5" stroke-linecap="butt"/><path d="M254.35659,154.27747c-1.51635,-1.38884 -4.66538,-10.04223 -4.66538,-10.04223l1.93774,4.9131c0,0 -4.60885,3.42957 -7.63168,3.24188c-8.66419,-0.53798 2.84076,-14.80398 6.12924,-15.54381c6.7992,-1.52962 10.39383,6.70235 13.40911,12.98542c3.145,6.55331 5.69699,11.55742 3.74057,18.5581c0,0 -9.47711,-7.14717 -12.91961,-14.11246z" data-paper-data="{&quot;origPos&quot;:null,&quot;origRot&quot;:0,&quot;index&quot;:null}" fill="url(#color-11)" stroke="#666349" stroke-width="1.5" stroke-linecap="butt"/><path d="M230.09992,170.8213c-3.4677,-5.82262 -3.21128,-8.6933 -2.67833,-13.48204c0.04208,-0.378 1.50874,-18.70103 7.41972,-19.77606c4.13466,-0.75199 8.28759,1.04254 8.5205,5.40674c1.66617,10.9174 -0.14932,14.51983 -4.73884,12.79893c-0.29678,-0.11128 1.05178,-4.62336 1.05178,-4.62336c0,0 -7.29356,23.5063 -9.57485,19.6758z" data-paper-data="{&quot;origPos&quot;:null,&quot;origRot&quot;:0}" fill="url(#color-12)" stroke="#666349" stroke-width="1.5" stroke-linecap="butt"/><path d="M237.38106,171.44523c-0.21716,2.64358 -1.48609,4.80226 -2.83417,4.82145c-1.34808,0.01925 -2.26484,-2.10825 -2.04765,-4.75183c0.21716,-2.64358 1.48609,-4.80226 2.83417,-4.82145c1.34808,-0.01925 2.26483,2.10826 2.04762,4.75184z" data-paper-data="{&quot;origPos&quot;:null,&quot;origRot&quot;:0}" fill="#000000" stroke="none" stroke-width="0" stroke-linecap="butt"/><path d="M243.49893,170.36931c-0.18462,1.99022 -1.157,3.60368 -2.17193,3.60375c-1.01496,0.00006 -1.68808,-1.61327 -1.50351,-3.60353c0.18462,-1.99022 1.15699,-3.60369 2.17193,-3.60375c1.01496,-0.00006 1.68811,1.6133 1.50353,3.60351z" data-paper-data="{&quot;origPos&quot;:null,&quot;origRot&quot;:0}" fill="#000000" stroke="none" stroke-width="0" stroke-linecap="butt"/><path d="M235.73158,170.47558c-0.09853,1.19923 -0.67415,2.17848 -1.2857,2.18723c-0.61154,0.00872 -1.02742,-0.95641 -0.92888,-2.15562c0.09853,-1.19923 0.67415,-2.17848 1.2857,-2.18723c0.61154,-0.00872 1.02742,0.95641 0.92888,2.15561z" data-paper-data="{&quot;origPos&quot;:null,&quot;origRot&quot;:0}" fill="#ffffff" stroke="none" stroke-width="0" stroke-linecap="butt"/><path d="M242.11692,169.22399c-0.06293,0.67872 -0.39456,1.22896 -0.74068,1.22897c-0.34608,0.00002 -0.57565,-0.55015 -0.51273,-1.22888c0.06293,-0.67872 0.39456,-1.22896 0.74068,-1.22897c0.34608,-0.00002 0.57566,0.55016 0.51272,1.22888z" data-paper-data="{&quot;origPos&quot;:null,&quot;origRot&quot;:0}" fill="#ffffff" stroke="none" stroke-width="0" stroke-linecap="butt"/><path d="M238.14632,184.39518c0,0 -2.52611,0.16608 -3.30582,-0.74611c-0.73823,-0.86368 -1.80579,-2.71681 -1.80579,-2.71681" data-paper-data="{&quot;origPos&quot;:null,&quot;origRot&quot;:0}" fill="none" stroke="#244b00" stroke-width="1" stroke-linecap="round"/><path d="M232.65693,196.22327c0.20291,3.98864 -19.34361,4.93917 -19.54653,0.95053c-0.20291,-3.98864 4.67231,-7.8755 9.83367,-7.9812c5.16136,-0.1057 9.50994,3.04203 9.71286,7.03068z" data-paper-data="{&quot;origPos&quot;:null,&quot;origRot&quot;:0}" fill="url(#color-13)" stroke="#000000" stroke-width="2" stroke-linecap="butt"/><path d="M228.69353,199.4601c0.43308,-3.77324 5.19112,-6.49699 10.62739,-6.0837c5.43628,0.4133 10.36312,4.39786 9.93004,8.17109c-0.43308,3.77322 -20.99051,1.68583 -20.55743,-2.08741z" data-paper-data="{&quot;origPos&quot;:null,&quot;origRot&quot;:0,&quot;index&quot;:null}" fill="url(#color-14)" stroke="#000000" stroke-width="2" stroke-linecap="butt"/></g></g></svg>