<svg version="1.1" xmlns="http://www.w3.org/2000/svg" xmlns:xlink="http://www.w3.org/1999/xlink" width="61.90595" height="43.43881" viewBox="0,0,61.90595,43.43881"><g transform="translate(-218.27535,-178.41938)"><g data-paper-data="{&quot;isPaintingLayer&quot;:true}" fill-rule="nonzero" stroke-linecap="butt" stroke-linejoin="miter" stroke-miterlimit="10" stroke-dasharray="" stroke-dashoffset="0" style="mix-blend-mode: normal"><path d="M220.36849,191.26344l-0.98299,-8.34229l19.2667,-2.27024l0.98299,8.34229z" data-paper-data="{&quot;origPos&quot;:null,&quot;origRot&quot;:0}" fill="#c07a00" stroke="#000000" stroke-width="2"/><path d="M229.47481,199.35362l2.78915,-19.80456l19.21043,2.70547l-2.78915,19.80456z" data-paper-data="{&quot;origPos&quot;:null,&quot;origRot&quot;:0}" fill="#c07a00" stroke="#000000" stroke-width="2"/><path d="M225.78099,215.52371l5.35776,-16.55459l7.61131,2.46334l-5.35776,16.55459z" data-paper-data="{&quot;origPos&quot;:null,&quot;origRot&quot;:0}" fill="#4c517f" stroke="#000000" stroke-width="2"/><path d="M238.99501,217.81359l1.41062,-17.54338l7.97426,0.64119l-1.41062,17.54338z" data-paper-data="{&quot;origPos&quot;:null,&quot;origRot&quot;:0}" fill="#4c517f" stroke="#000000" stroke-width="2"/><path d="M223.8142,220.85818v-8.4h19.4v8.4z" fill="#c07a00" stroke="#000000" stroke-width="2"/><path d="M268.79463,220.02504c-6.48022,0.67172 -12.33647,-4.60085 -13.08029,-11.77662c-0.74382,-7.17577 3.90646,-13.53742 10.38667,-14.20914c6.48022,-0.67172 12.33647,4.60085 13.08029,11.77662c0.74382,7.17577 -3.90646,13.53741 -10.38667,14.20913z" fill="#b2b2b2" stroke="#000000" stroke-width="2"/><path d="M271.06648,206.09157c-1.64802,0.17083 -3.09653,-0.77618 -3.23533,-2.11519c-0.1388,-1.33902 1.08468,-2.56299 2.73269,-2.73383c1.64802,-0.17083 3.09653,0.77618 3.23533,2.11519c0.1388,1.33902 -1.08468,2.56299 -2.73269,2.73383z" fill="#ff0000" stroke="none" stroke-width="0"/><path d="M270.30078,200.03825c-1.47636,0.15303 -2.77127,-0.66923 -2.89227,-1.83658c-0.121,-1.16736 0.97772,-2.23774 2.45408,-2.39077c1.47636,-0.15303 2.77127,0.66923 2.89227,1.83658c0.121,1.16736 -0.97772,2.23774 -2.45408,2.39077z" fill="#ff0000" stroke="none" stroke-width="0"/></g></g></svg>