<svg version="1.1" xmlns="http://www.w3.org/2000/svg" xmlns:xlink="http://www.w3.org/1999/xlink" width="49.72493" height="64.53088" viewBox="0,0,49.72493,64.53088"><defs><linearGradient x1="240.21587" y1="143.11682" x2="240.21587" y2="180.33523" gradientUnits="userSpaceOnUse" id="color-1"><stop offset="0" stop-color="#92a518"/><stop offset="1" stop-color="#e1e100"/></linearGradient></defs><g transform="translate(-213.22563,-138.47141)"><g data-paper-data="{&quot;isPaintingLayer&quot;:true}" fill-rule="nonzero" stroke-linejoin="miter" stroke-miterlimit="10" stroke-dasharray="" stroke-dashoffset="0" style="mix-blend-mode: normal"><g stroke="#000000" stroke-linecap="butt"><path d="M235.02823,197.61712l-0.3297,-4.46947l-11.97555,-9.22773l3.82476,-11.87793l3.70915,4.59184l-4.0259,6.50208l11.23739,8.10131l2.04681,6.72225z" fill="#92a518" stroke-width="2"/><path d="M222.04189,184.0606l-0.89333,-3.38822l3.38822,-0.89333z" fill="#c3dc00" stroke-width="1"/><path d="M228.87948,185.94746l3.3803,-0.92285l0.92285,3.3803z" fill="#c3dc00" stroke-width="1"/><path d="M231.07249,191.19849l-3.45547,0.58116l-0.58116,-3.45548z" fill="#c3dc00" stroke-width="1"/></g><path d="M254.41569,196.19078c0,0 -3.68422,4.28963 -8.44373,4.49045c-4.75951,0.20081 -8.6958,-1.48405 -8.79197,-3.76325c-0.09616,-2.2792 3.68422,-4.28965 8.44373,-4.49046c4.75951,-0.20081 8.79196,3.76326 8.79196,3.76326z" data-paper-data="{&quot;origRot&quot;:0,&quot;index&quot;:null}" fill="#bd5e00" stroke="#000000" stroke-width="2" stroke-linecap="butt"/><path d="M230.09827,193.66105c4.72409,0.6134 8.31559,2.94456 8.02185,5.2068c-0.29374,2.26224 -4.36149,3.59888 -9.08557,2.98548c-4.72409,-0.6134 -8.02184,-5.2068 -8.02184,-5.2068c0,0 4.36148,-3.59888 9.08557,-2.98548z" data-paper-data="{&quot;origRot&quot;:0}" fill="#dd6d00" stroke="#000000" stroke-width="2" stroke-linecap="butt"/><g><path d="M246.54221,139.11854c0.87431,-0.36352 1.18962,-0.03705 0.84168,0.79854c-0.7202,1.72959 -1.76293,4.86585 -1.37763,7.82159c-2.4395,3.30643 -8.17335,-0.92405 -5.73385,-4.23047c1.62641,-2.20439 4.52095,-3.66254 6.2698,-4.38966z" data-paper-data="{&quot;origRot&quot;:0,&quot;index&quot;:null}" fill="#cff538" stroke="#000000" stroke-width="1" stroke-linecap="butt"/><path d="M258.57302,161.72602c-0.11678,2.2285 3.57492,5.14932 2.75993,8.58756c-3.21916,13.58083 -15.26702,10.02164 -21.11708,10.02164c-10.13837,0 -18.35715,-8.33162 -18.35715,-18.60921c0,-4.68701 5.23814,-17.93298 13.54506,-18.34505c8.35421,-0.41441 23.78663,6.56384 23.16924,18.34505z" fill="url(#color-1)" stroke="#000000" stroke-width="3" stroke-linecap="butt"/><path d="M230.12789,146.43832c2.43951,3.30643 -3.29435,7.53691 -5.73385,4.23047c0.3853,-2.95574 -0.65742,-6.092 -1.37763,-7.82159c-0.34794,-0.83559 -0.03264,-1.16206 0.84168,-0.79854c1.74885,0.72713 4.6434,2.18528 6.2698,4.38966z" data-paper-data="{&quot;origRot&quot;:0}" fill="#cff538" stroke="#000000" stroke-width="1" stroke-linecap="butt"/><path d="M249.86727,162.11713c0,2.06059 -1.41589,3.73104 -3.16249,3.73104c-1.74659,0 -3.16249,-1.67044 -3.16249,-3.73104c0,-2.06059 1.41589,-3.73104 3.16249,-3.73104c1.74659,0 3.16249,1.67044 3.16249,3.73104z" fill="#ffee00" stroke="#000000" stroke-width="0" stroke-linecap="butt"/><path d="M248.90453,162.29598c0,0.99908 -0.52165,1.80899 -1.16513,1.80899c-0.64348,0 -1.16513,-0.80991 -1.16513,-1.80899c0,-0.99908 0.52165,-1.80899 1.16513,-1.80899c0.64348,0 1.16513,0.80991 1.16513,1.80899z" fill="#ff0000" stroke="none" stroke-width="0" stroke-linecap="butt"/><path d="M256.34263,162.13775c0,2.0606 -1.41589,3.73103 -3.16249,3.73103c-1.7466,0 -3.16249,-1.67044 -3.16249,-3.73103c0,-2.0606 1.41589,-3.73104 3.16249,-3.73104c1.7466,0 3.16249,1.67044 3.16249,3.73104z" fill="#ffee00" stroke="#000000" stroke-width="0" stroke-linecap="butt"/><path d="M255.37991,162.3166c0,0.99908 -0.52165,1.80899 -1.16513,1.80899c-0.64348,0 -1.16512,-0.80991 -1.16512,-1.80899c0,-0.99908 0.52164,-1.80898 1.16512,-1.80898c0.64348,0 1.16513,0.80991 1.16513,1.80898z" fill="#ff0000" stroke="none" stroke-width="0" stroke-linecap="butt"/><path d="M215.0677,161.5583l8.48338,-1.65979c0,0 0.12444,4.51808 1.74842,7.29361c1.74795,2.98741 5.62844,8.93547 5.62844,8.93547l-8.43402,-1.30228l2.39603,-4.01104l-6.13077,1.06881l3.47523,-5.15604z" fill="#dd6d00" stroke="#000000" stroke-width="1.5" stroke-linecap="butt"/><path d="M243.46859,158.23871h13.09392" fill="none" stroke="#000000" stroke-width="2" stroke-linecap="round"/><path d="M252.87408,174.00674c0,0.9676 -0.70183,1.752 -1.56758,1.752c-0.86575,0 -1.56758,-0.7844 -1.56758,-1.752c0,-0.9676 0.70183,-1.752 1.56758,-1.752c0.86575,0 1.56758,0.7844 1.56758,1.752z" fill="#ff0000" stroke="none" stroke-width="0" stroke-linecap="butt"/></g></g></g></svg>