<svg version="1.1" xmlns="http://www.w3.org/2000/svg" xmlns:xlink="http://www.w3.org/1999/xlink" width="108.54681" height="79.86661" viewBox="0,0,108.54681,79.86661"><defs><radialGradient cx="247.51747" cy="195.98307" r="9.52076" gradientUnits="userSpaceOnUse" id="color-1"><stop offset="0" stop-color="#a26e2a"/><stop offset="1" stop-color="#472b00"/></radialGradient><linearGradient x1="236.89022" y1="193.81834" x2="263.64306" y2="193.81834" gradientUnits="userSpaceOnUse" id="color-2"><stop offset="0" stop-color="#24b400"/><stop offset="1" stop-color="#217700"/></linearGradient><radialGradient cx="223.22106" cy="161.19471" r="34.81049" gradientUnits="userSpaceOnUse" id="color-3"><stop offset="0" stop-color="#ffb554"/><stop offset="1" stop-color="#885200"/></radialGradient><radialGradient cx="227.16738" cy="197.22826" r="10.56812" gradientUnits="userSpaceOnUse" id="color-4"><stop offset="0" stop-color="#c08231"/><stop offset="1" stop-color="#5e3800"/></radialGradient><linearGradient x1="215.37104" y1="194.82539" x2="245.06693" y2="194.82539" gradientUnits="userSpaceOnUse" id="color-5"><stop offset="0" stop-color="#2fe500"/><stop offset="1" stop-color="#16bb00"/></linearGradient><radialGradient cx="189.52167" cy="148.27636" r="13.09798" gradientUnits="userSpaceOnUse" id="color-6"><stop offset="0" stop-color="#ff9900"/><stop offset="1" stop-color="#ff9900" stop-opacity="0"/></radialGradient><radialGradient cx="189.50492" cy="147.24945" r="18.31671" gradientUnits="userSpaceOnUse" id="color-7"><stop offset="0" stop-color="#ffe000"/><stop offset="1" stop-color="#ffe000" stop-opacity="0"/></radialGradient></defs><g transform="translate(-171.18524,-128.92977)"><g data-paper-data="{&quot;isPaintingLayer&quot;:true}" fill-rule="nonzero" stroke-linecap="butt" stroke-linejoin="miter" stroke-miterlimit="10" stroke-dasharray="" stroke-dashoffset="0" style="mix-blend-mode: normal"><path d="M217.88243,164.75367c0,0 -3.28788,-10.49754 -10.11791,-12.50825c-4.19739,-1.23566 -6.59984,2.02959 -11.55715,1.4082c-4.84867,-0.60777 -7.55425,-6.33177 -7.55425,-6.33177l3.48827,-0.32272c0,0 2.31797,2.87824 5.26658,4.04558c3.23705,1.28152 8.23212,-3.47989 12.32488,-1.39865c5.64213,2.86912 9.55598,11.87963 9.55598,11.87963z" fill="#c29557" stroke="#000000" stroke-width="1.5"/><path d="M237.9967,195.98307c0,-5.25817 4.2626,-9.52076 9.52076,-9.52076c5.25817,0 9.52076,4.26259 9.52076,9.52076c0,5.25817 -4.26259,9.52076 -9.52076,9.52076c-5.25817,0 -9.52076,-4.26259 -9.52076,-9.52076z" fill="url(#color-1)" stroke="#000000" stroke-width="2"/><path d="M263.64306,203.67285c0,0 -0.89912,1.57559 -9.4934,-6.85792c-1.67395,-1.64263 -3.60597,-10.06991 -5.61281,-9.93444c-12.13454,0.81916 -12.26272,13.33016 -11.26991,11.21281c0.51029,-1.0883 -1.58815,-7.26194 2.24057,-11.0842c3.62025,-3.61415 11.93857,-4.13836 15.517,-1.52937c3.77601,2.75306 2.15722,6.77979 4.13259,12.56337c1.09191,3.19695 4.48595,5.62975 4.48595,5.62975z" data-paper-data="{&quot;origRot&quot;:0,&quot;index&quot;:null}" fill="url(#color-2)" stroke="#000000" stroke-width="2"/><path d="M276.71613,176.52775c0,0 -14.25323,15.84206 -33.30979,19.66101c-9.31703,1.86714 -16.80509,4.26896 -22.27455,1.2973c-5.71747,-3.1064 -9.31813,-8.57749 -10.77147,-15.82967c-0.76689,-3.82687 -1.33676,-12.33425 0.82285,-18.01691c1.99588,-5.25176 6.70728,-7.84686 6.70728,-7.84686l-1.64766,4.15472l11.15259,-8.28267l2.02959,1.81347c0,0 4.72673,-0.68423 5.62655,-0.86454c10.10953,-1.92971 21.92557,0.77033 21.92557,0.77033l8.86922,-2.02181c0,0 5.16689,4.36898 7.79822,10.79729c3.45811,8.44816 3.07158,14.36839 3.07158,14.36839z" fill="url(#color-3)" stroke="#000000" stroke-width="2"/><path d="M216.59926,197.22826c0,-5.83662 4.73151,-10.56812 10.56813,-10.56812c5.83662,0 10.56812,4.7315 10.56812,10.56812c0,5.83662 -4.7315,10.56812 -10.56812,10.56812c-5.83662,0 -10.56813,-4.73151 -10.56813,-10.56812z" fill="url(#color-4)" stroke="#000000" stroke-width="2"/><path d="M224.39617,192.01109c0,-0.71781 0.58189,-1.29969 1.29969,-1.29969c0.71781,0 1.29969,0.58189 1.29969,1.29969c0,0.71781 -0.58189,1.29969 -1.29969,1.29969c-0.71781,0 -1.29969,-0.58189 -1.29969,-1.29969z" fill="#000000" stroke="none" stroke-width="0.5"/><path d="M229.75472,193.88392c0,-0.86136 0.69827,-1.55963 1.55963,-1.55963c0.86136,0 1.55963,0.69827 1.55963,1.55963c0,0.86136 -0.69827,1.55963 -1.55963,1.55963c-0.86136,0 -1.55963,-0.69827 -1.55963,-1.55963z" fill="#000000" stroke="none" stroke-width="0.5"/><path d="M224.94648,196.55938c0,-1.00492 0.81465,-1.81957 1.81957,-1.81957c1.00492,0 1.81957,0.81465 1.81957,1.81957c0,1.00492 -0.81465,1.81957 -1.81957,1.81957c-1.00492,0 -1.81957,-0.81465 -1.81957,-1.81957z" fill="#000000" stroke="none" stroke-width="0.5"/><path d="M245.06693,205.76398c0,0 -0.99802,1.74892 -10.53774,-7.61233c-1.8581,-1.82334 -4.00264,-11.17769 -6.23027,-11.02731c-13.46944,0.90928 -13.61171,14.79658 -12.50969,12.4463c0.56643,-1.20802 -1.76287,-8.06081 2.48704,-12.30356c4.01852,-4.01173 13.25191,-4.59361 17.224,-1.6976c4.1914,3.0559 2.39454,7.52561 4.58721,13.94543c1.21202,3.54863 4.97944,6.24906 4.97944,6.24906z" data-paper-data="{&quot;origRot&quot;:0,&quot;index&quot;:null}" fill="url(#color-5)" stroke="#000000" stroke-width="2"/><path d="M265.19922,167.18122c-2.72995,-6.89637 -2.93642,-13.28127 -0.4612,-14.2611c2.47523,-0.9798 6.69484,3.8165 9.42478,10.71287c2.72995,6.89637 2.93642,13.28127 0.4612,14.26108c-2.47523,0.9798 -6.69486,-3.81649 -9.42478,-10.71286z" fill="#ffffff" stroke="#000000" stroke-width="2"/><path d="M176.61326,146.05602c1.22626,-7.12912 7.99965,-11.91433 15.12876,-10.68808c7.12912,1.22626 11.91433,7.99965 10.68807,15.12877c-1.22626,7.12912 -7.99965,11.91433 -15.12877,10.68806c-7.12912,-1.22626 -11.91433,-7.99965 -10.68807,-15.12876z" fill="url(#color-6)" stroke="none" stroke-width="0"/><path d="M171.45331,144.14443c1.71485,-9.96963 11.187,-16.66144 21.15663,-14.94659c9.96963,1.71485 16.66144,11.187 14.94659,21.15663c-1.71485,9.96963 -11.187,16.66144 -21.15663,14.94659c-9.96963,-1.71485 -16.66144,-11.187 -14.94659,-21.15663z" fill="url(#color-7)" stroke="none" stroke-width="0"/><path d="M242.82205,174.32309c-3.06086,0 -5.5422,-2.48133 -5.5422,-5.5422c0,-3.06086 2.48133,-5.5422 5.5422,-5.5422c3.06086,0 5.5422,2.48133 5.5422,5.5422c0,3.06086 -2.48133,5.5422 -5.5422,5.5422z" data-paper-data="{&quot;index&quot;:null}" fill="#ffffff" stroke="#000000" stroke-width="1"/><path d="M235.68949,165.84846l0.2897,-2.98737l1.32694,-1.20071l5.72767,-0.03719l2.30267,-1.18583l-0.18557,1.17589l2.42692,0.00563l0.18318,4.68685l-6.66442,0.73715z" fill="#5a390a" stroke="#000000" stroke-width="1"/><path d="M243.02824,169.17974c-0.17338,-0.62508 0.19282,-1.27238 0.8179,-1.44575c0.62508,-0.17338 1.27238,0.19282 1.44575,0.8179c0.17338,0.62508 -0.19282,1.27238 -0.8179,1.44575c-0.62508,0.17338 -1.27238,-0.19282 -1.44575,-0.8179z" fill="#000000" stroke="none" stroke-width="0.5"/></g></g></svg>