<svg version="1.1" xmlns="http://www.w3.org/2000/svg" xmlns:xlink="http://www.w3.org/1999/xlink" width="60.63157" height="38.15113" viewBox="0,0,60.63157,38.15113"><defs><linearGradient x1="239.79182" y1="162.83335" x2="239.79182" y2="198.83335" gradientUnits="userSpaceOnUse" id="color-1"><stop offset="0" stop-color="#10c7ac"/><stop offset="1" stop-color="#ab6500"/></linearGradient><linearGradient x1="235.73503" y1="178.01963" x2="236.51635" y2="176.60421" gradientUnits="userSpaceOnUse" id="color-2"><stop offset="0" stop-color="#add92e"/><stop offset="1" stop-color="#659116"/></linearGradient><linearGradient x1="227.37539" y1="175.58255" x2="228.99213" y2="175.58255" gradientUnits="userSpaceOnUse" id="color-3"><stop offset="0" stop-color="#add92e"/><stop offset="1" stop-color="#659116"/></linearGradient><linearGradient x1="232.93022" y1="164.74675" x2="238.22317" y2="168.66354" gradientUnits="userSpaceOnUse" id="color-4"><stop offset="0" stop-color="#add92e"/><stop offset="1" stop-color="#618520"/></linearGradient><linearGradient x1="242.3762" y1="177.84966" x2="242.3762" y2="194.84755" gradientUnits="userSpaceOnUse" id="color-5"><stop offset="0" stop-color="#f43232"/><stop offset="1" stop-color="#ba2f2f"/></linearGradient><linearGradient x1="226.5321" y1="182.0679" x2="226.5321" y2="199.06579" gradientUnits="userSpaceOnUse" id="color-6"><stop offset="0" stop-color="#f43232"/><stop offset="1" stop-color="#ba2f2f"/></linearGradient></defs><g transform="translate(-209.24291,-161.85145)"><g data-paper-data="{&quot;isPaintingLayer&quot;:true}" fill-rule="nonzero" stroke-linejoin="miter" stroke-miterlimit="10" stroke-dasharray="" stroke-dashoffset="0" style="mix-blend-mode: normal"><path d="M210.50016,195.77118c0,-7.18645 0,-25.25324 0,-29.5c0,-1.72983 1.95533,-3.43783 4.10049,-3.43783c6.49354,0 39.77537,0 50.875,0c2.26628,0 3.60783,1.47996 3.60783,3.81283c0,7.50898 0,23.85448 0,28.125c0,1.9962 -1.8827,4.06217 -3.73283,4.06217c-5.36167,0 -31.34965,0 -31.34965,0c-3.50551,-0.20254 -7.07398,-0.45211 -10.3325,-0.0711c-0.25664,0.03001 -0.52182,0.05168 -0.79121,0.0711c0,0 -6.49221,0 -8.77664,0c-1.46318,0 -3.60049,-1.2397 -3.60049,-3.06217z" data-paper-data="{&quot;origPos&quot;:null}" fill="url(#color-1)" stroke="none" stroke-width="0" stroke-linecap="butt"/><g stroke="#000000"><g stroke-width="0.6" stroke-linecap="butt"><path d="M242.57229,182.96898c0,0 -4.3633,-3.60778 -5.93571,-5.61861c-1.59929,-2.04521 -3.58076,-6.55124 -3.58076,-6.55124l1.2324,-0.37738c0,0 1.66295,3.62916 3.08341,5.48589c1.43983,1.88205 5.91763,5.61041 5.91763,5.61041c0,0 0.38262,0.55425 0.14586,1.00294c-0.18953,0.35918 -0.86283,0.448 -0.86283,0.448z" fill="url(#color-2)"/><path d="M226.34655,183.96023c0,0 1.0499,-5.56347 2.05045,-7.91183c1.01765,-2.38851 4.005,-6.30083 4.005,-6.30083l0.92595,0.89656c0,0 -2.3736,3.2097 -3.31266,5.35057c-0.95186,2.17006 -2.052,7.89204 -2.052,7.89204c0,0 -0.30032,0.60282 -0.80756,0.61238c-0.40605,0.00765 -0.80919,-0.53889 -0.80919,-0.53889z" fill="url(#color-3)"/><path d="M240.07508,168.66354c-1.62239,2.19241 -7.43597,2.01132 -7.43597,2.01132c0,0 -1.33128,-3.73569 0.29111,-5.92811c1.62239,-2.19241 5.58407,-2.01132 5.58407,-2.01132l-2.62279,2.1501c0,0 1.80218,-0.43995 2.74326,-0.9114c0.92604,-0.46392 1.36591,0.08456 1.36591,0.08456c0,0 0.89379,-0.88524 0.68616,0.88133c-0.14938,1.27106 0.04548,2.82957 -0.61174,3.72351z" fill="url(#color-4)"/></g><path d="M224.21661,179.17124z" fill="#f43232" stroke-width="1" stroke-linecap="butt"/><g><path d="M251.28668,186.34861c0,4.69384 -3.98935,8.49894 -8.91047,8.49894c-4.92112,0 -8.91047,-3.8051 -8.91047,-8.49894c0,-3.57814 2.31823,-6.63981 5.60026,-7.89316c0.62047,-0.23694 1.27539,0.5179 1.95561,0.41895c0.4417,-0.06426 0.89406,-1.02474 1.35459,-1.02474c4.92112,0 8.91047,3.8051 8.91047,8.49894z" data-paper-data="{&quot;index&quot;:null}" fill="url(#color-5)" stroke-width="1.5" stroke-linecap="butt"/><g><g data-paper-data="{&quot;index&quot;:null}"><path d="M245.38576,192.66444c-0.9222,0.41617 -2.14826,0.66416 -2.72381,0.42383c-0.34772,-1.13993 -0.95518,-2.5326 1.76807,-3.41356c1.66918,-0.53997 2.93406,-0.10913 2.93406,-0.10913l-0.43979,-0.05079c0,0 -0.63317,2.74108 -1.53853,3.14965z" fill="#ffffff" stroke-width="0.65" stroke-linecap="butt"/><path d="M246.42347,190.48438c0,0 -1.59743,0.77929 -2.30988,1.06332c-0.61354,0.2446 -1.71262,0.54031 -1.71262,0.54031" fill="none" stroke-width="0.5" stroke-linecap="round"/><path d="M243.9568,191.631l0.32042,1.1855" fill="none" stroke-width="0.5" stroke-linecap="round"/></g><g><g><path d="M247.54188,186.66955c0,0 1.01687,-0.68788 1.47007,-1.06672c0.5929,-0.49562 1.78217,-1.65192 1.78217,-1.65192c0,0 0.79835,1.48262 -0.25068,2.67291c-1.5947,1.59578 -3.00155,0.04571 -3.00155,0.04571z" fill="#ffffff" stroke-width="0.9" stroke-linecap="butt"/><g stroke-linecap="butt"><path d="M249.89813,185.95856c-0.33247,-0.12342 -0.50194,-0.49299 -0.37852,-0.82546c0.12342,-0.33247 0.49299,-0.50194 0.82546,-0.37852c0.33247,0.12342 0.50194,0.49299 0.37852,0.82546c-0.12342,0.33247 -0.493,0.50194 -0.82547,0.37852z" fill="#7aa62a" stroke-width="0.25"/><path d="M250.22358,185.57099c-0.1318,-0.04892 -0.19898,-0.19544 -0.15006,-0.32724c0.04892,-0.13179 0.19543,-0.19897 0.32723,-0.15005c0.1318,0.04892 0.19899,0.19543 0.15006,0.32722c-0.04892,0.1318 -0.19544,0.19898 -0.32723,0.15006z" fill="#ffffff" stroke-width="0"/></g><path d="M251.62319,183.15931c0,0 -1.77601,1.70445 -2.41429,2.23185c-0.16787,0.1387 -0.97722,0.72755 -1.58834,1.16961c-0.39667,0.28693 -0.70982,0.51202 -0.70982,0.51202l0.30967,-1.16942" fill="none" stroke-width="0.65" stroke-linecap="round"/></g><g><path d="M242.50683,187.25643c0,0 -1.34833,2.31252 -3.39268,1.43156c-2.97196,-1.28071 -1.06199,-4.12081 -1.06199,-4.12081c0,0 0.5125,0.18016 1.0841,0.4033c0.5207,0.20326 1.09045,0.44219 1.36652,0.61307c0.57913,0.35846 2.00404,1.67289 2.00404,1.67289z" data-paper-data="{&quot;index&quot;:null}" fill="#ffffff" stroke-width="0.65" stroke-linecap="butt"/><g stroke-linecap="butt"><path d="M240.49607,185.6109c0.42282,-0.04029 0.79825,0.26981 0.83854,0.69263c0.04029,0.42282 -0.26982,0.79824 -0.69263,0.83853c-0.42282,0.04029 -0.79825,-0.26982 -0.83854,-0.69263c-0.04029,-0.42282 0.26982,-0.79825 0.69264,-0.83854z" fill="#7aa62a" stroke-width="0.25"/><path d="M240.73998,186.13351c0.01631,0.17125 -0.10929,0.32331 -0.28054,0.33963c-0.17125,0.01631 -0.32331,-0.10929 -0.33963,-0.28054c-0.01631,-0.17125 0.1093,-0.32331 0.28055,-0.33963c0.17125,-0.01631 0.32331,0.10929 0.33962,0.28054z" fill="#ffffff" stroke-width="0"/></g><path d="M244.54105,187.29465l-0.86022,0.69175c0,0 -2.09719,-1.86516 -2.91183,-2.36299c-0.81465,-0.49783 -3.67136,-1.7599 -3.67136,-1.7599" data-paper-data="{&quot;index&quot;:null}" fill="none" stroke-width="0.65" stroke-linecap="round"/></g></g></g></g><g><path d="M217.62163,190.56684c0,-4.69384 3.98935,-8.49894 8.91047,-8.49894c0.46053,0 0.91289,0.96048 1.35459,1.02474c0.68022,0.09895 1.33514,-0.65589 1.95561,-0.41894c3.28203,1.25334 5.60027,4.31502 5.60027,7.89315c0,4.69384 -3.98935,7.64084 -8.91047,7.64084c-4.92112,0 -8.91048,-2.947 -8.91048,-7.64084z" fill="url(#color-6)" stroke-width="1.5" stroke-linecap="butt"/><g><g><path d="M227.00856,197.53764c-0.78327,0.04519 -2.22929,-1.64206 -2.22929,-1.64206l-0.2893,0.19644c0,0 0.72786,-0.76434 2.09391,-0.99697c2.22869,-0.37955 2.31292,0.81763 2.48652,1.74284c-0.31499,0.3788 -1.26402,0.65372 -2.06185,0.69975z" fill="#ffffff" stroke-width="0.65" stroke-linecap="butt"/><path d="M228.88718,196.04218c0,0 -0.87759,0.19507 -1.39658,0.24829c-0.60265,0.0618 -2.00602,0.10065 -2.00602,0.10065" fill="none" stroke-width="0.5" stroke-linecap="round"/><path d="M227.63083,196.29142l0.20939,0.94713" fill="none" stroke-width="0.5" stroke-linecap="round"/></g><g><g><path d="M231.28661,187.3482c0,0 -2.52137,1.84293 -3.21094,2.50321c-0.68956,0.66028 -2.34015,2.93021 -2.34015,2.93021l-0.98808,-0.49213" data-paper-data="{&quot;index&quot;:null}" fill="none" stroke-width="0.65" stroke-linecap="round"/><path d="M228.32724,189.75561c0.48924,-0.47385 2.1771,-1.51617 2.1771,-1.51617c0,0 2.47233,2.3668 -0.15765,4.25253c-1.8091,1.29716 -3.6201,-0.67416 -3.6201,-0.67416c0,0 1.1114,-1.58836 1.60064,-2.06221z" data-paper-data="{&quot;index&quot;:null}" fill="#ffffff" stroke-width="0.65" stroke-linecap="butt"/><g stroke-linecap="butt"><path d="M229.32191,191.10922c-0.18562,-0.38203 -0.02638,-0.8422 0.35565,-1.02782c0.38203,-0.18562 0.8422,-0.02638 1.02782,0.35565c0.18562,0.38203 0.02638,0.8422 -0.35565,1.02781c-0.38203,0.18562 -0.8422,0.02638 -1.02781,-0.35565z" fill="#7aa62a" stroke-width="0.25"/><path d="M229.47883,190.9015c-0.07518,-0.15473 -0.01069,-0.34112 0.14404,-0.41629c0.15473,-0.07518 0.34112,-0.01069 0.4163,0.14404c0.07518,0.15473 0.01069,0.34112 -0.14404,0.41629c-0.15473,0.07518 -0.34112,0.01068 -0.41629,-0.14405z" fill="#ffffff" stroke-width="0"/></g></g><g><path d="M222.32654,191.874c0,0 -1.81319,1.3794 -2.75285,-0.6716c-0.83857,-1.83038 0.65002,-3.0089 0.65002,-3.0089c0,0 0.71253,1.4979 1.09588,2.16887c0.29302,0.51287 1.00694,1.51164 1.00694,1.51164z" fill="#ffffff" stroke-width="0.65" stroke-linecap="butt"/><g stroke-linecap="butt"><path d="M220.32803,190.66835c0,-0.35464 0.28749,-0.64212 0.64213,-0.64212c0.35464,0 0.64213,0.28749 0.64213,0.64212c0,0.35464 -0.28749,0.64214 -0.64213,0.64214c-0.35464,0 -0.64213,-0.2875 -0.64213,-0.64214z" fill="#7aa62a" stroke-width="0.25"/><path d="M220.54539,190.57931c0,-0.14058 0.11397,-0.25455 0.25456,-0.25455c0.14058,0 0.25455,0.11397 0.25455,0.25455c0,0.14058 -0.11397,0.25456 -0.25455,0.25456c-0.14058,0 -0.25456,-0.11397 -0.25456,-0.25456z" fill="#ffffff" stroke-width="0"/></g><path d="M222.89455,191.2676l-0.11666,1.20409c0,0 -1.38936,-2.06552 -1.56928,-2.37629c-0.41485,-0.71655 -1.48666,-2.93254 -1.48666,-2.93254" fill="none" stroke-width="0.65" stroke-linecap="round"/></g></g></g></g></g><path d="M267.97123,181.79333v15.64249h-18.91108z" data-paper-data="{&quot;origPos&quot;:null,&quot;origRot&quot;:0}" fill="#cdcdcd" stroke="none" stroke-width="0" stroke-linecap="butt"/><path d="M210.24292,195.39618c0,-7.03483 0,-24.60261 0,-28.875c0,-1.82619 1.24126,-3.66973 2.85773,-3.66973c5.28449,0 41.62396,0 52.625,0c1.98825,0 3.14884,1.77216 3.14884,3.54473c0,4.20683 0,21.72647 0,28.875c0,1.89192 -1.11237,3.05741 -3.02384,3.05741c-10.61415,0 -45.86807,0 -52.125,0c-1.85553,0 -3.48273,-1.11453 -3.48273,-2.93241z" data-paper-data="{&quot;origPos&quot;:null}" fill="none" stroke="#cdcdcd" stroke-width="2" stroke-linecap="butt"/><g fill="#ffffff" stroke-linecap="butt" font-family="Sans Serif" font-weight="normal" font-size="40" text-anchor="start"><text transform="translate(247.69648,195.74549) scale(0.27944,0.27944)" font-size="40" xml:space="preserve" fill="#ffffff" fill-rule="nonzero" stroke="#000000" stroke-width="6" stroke-linecap="butt" stroke-linejoin="miter" stroke-miterlimit="10" stroke-dasharray="" stroke-dashoffset="0" font-family="Sans Serif" font-weight="normal" text-anchor="start" style="mix-blend-mode: normal"><tspan x="0" dy="0">150</tspan></text><text transform="translate(247.69648,195.74549) scale(0.27944,0.27944)" font-size="40" xml:space="preserve" fill="#ffffff" fill-rule="nonzero" stroke="none" stroke-width="1" stroke-linecap="butt" stroke-linejoin="miter" stroke-miterlimit="10" stroke-dasharray="" stroke-dashoffset="0" font-family="Sans Serif" font-weight="normal" text-anchor="start" style="mix-blend-mode: normal"><tspan x="0" dy="0">150</tspan></text></g></g></g></svg>