<svg version="1.1" xmlns="http://www.w3.org/2000/svg" xmlns:xlink="http://www.w3.org/1999/xlink" width="37.99764" height="83.43092" viewBox="0,0,37.99764,83.43092"><defs><linearGradient x1="231.21876" y1="149.82409" x2="254.87758" y2="152.53796" gradientUnits="userSpaceOnUse" id="color-1"><stop offset="0" stop-color="#e6c2c2"/><stop offset="1" stop-color="#e5e5e5"/></linearGradient></defs><g transform="translate(-217.4,-135.73158)"><g data-paper-data="{&quot;isPaintingLayer&quot;:true}" fill-rule="nonzero" stroke-linecap="butt" stroke-linejoin="miter" stroke-miterlimit="10" stroke-dasharray="" stroke-dashoffset="0" style="mix-blend-mode: normal"><path d="M218.4,190.3625v-8.4h19.4v8.4z" data-paper-data="{&quot;origPos&quot;:null}" fill="#c07a00" stroke="#000000" stroke-width="2"/><path d="M230.4,199.9625v-20h19.4v20z" data-paper-data="{&quot;origPos&quot;:null}" fill="#c07a00" stroke="#000000" stroke-width="2"/><path d="M253.025,172.02291c0,6.51494 -5.84828,11.79635 -13.0625,11.79635c-7.21422,0 -13.0625,-5.28141 -13.0625,-11.79635c0,-6.51494 5.84828,-11.79635 13.0625,-11.79635c7.21422,0 13.0625,5.28141 13.0625,11.79635z" data-paper-data="{&quot;origPos&quot;:null}" fill="#b2b2b2" stroke="#000000" stroke-width="2"/><path d="M231,218.1625v-17.4h8v17.4z" data-paper-data="{&quot;origPos&quot;:null}" fill="#4c517f" stroke="#000000" stroke-width="2"/><path d="M241,218.1625v-17.6h8v17.6z" data-paper-data="{&quot;origPos&quot;:null}" fill="#4c517f" stroke="#000000" stroke-width="2"/><path d="M223.2,190.7625v-8.4h19.4v8.4z" data-paper-data="{&quot;origPos&quot;:null}" fill="#c07a00" stroke="#000000" stroke-width="2"/><path d="M229.63313,163.64721c0,0 3.36259,-6.95662 4.18942,-11.40921c0.65074,-3.50436 -2.57517,-5.00854 -2.47526,-8.5714c0.07021,-2.50377 3.28395,-6.93502 3.28395,-6.93502c0,0 5.85298,-0.24774 9.53627,0.14234c4.0187,0.42561 10.19909,1.94777 10.19909,1.94777l-1.07465,27.53937c0,0 -7.64443,0.1653 -12.46173,-0.38729c-4.41586,-0.50654 -11.1971,-2.32658 -11.1971,-2.32658z" data-paper-data="{&quot;origPos&quot;:null,&quot;origRot&quot;:0}" fill="url(#color-1)" stroke="#000000" stroke-width="2"/><path d="M239.08864,169.10499c0,2.08676 -1.09131,3.77842 -2.4375,3.77842c-1.34619,0 -2.4375,-1.69166 -2.4375,-3.77842c0,-2.08676 1.09131,-3.77842 2.4375,-3.77842c1.34619,0 2.4375,1.69166 2.4375,3.77842z" data-paper-data="{&quot;origPos&quot;:null}" fill="#000000" stroke="none" stroke-width="0"/><path d="M233.3,169.27817c0,1.86939 -0.95139,3.38484 -2.125,3.38484c-1.17361,0 -2.125,-1.51544 -2.125,-3.38484c0,-1.86939 0.95139,-3.38483 2.125,-3.38483c1.17361,0 2.125,1.51543 2.125,3.38483z" data-paper-data="{&quot;origPos&quot;:null}" fill="#000000" stroke="none" stroke-width="0"/></g></g></svg>