<svg version="1.1" xmlns="http://www.w3.org/2000/svg" xmlns:xlink="http://www.w3.org/1999/xlink" width="88.75088" height="87.65885" viewBox="0,0,88.75088,87.65885"><defs><linearGradient x1="229.69484" y1="135.59912" x2="251.17851" y2="135.59912" gradientUnits="userSpaceOnUse" id="color-1"><stop offset="0" stop-color="#fff8ad"/><stop offset="1" stop-color="#c9c388"/></linearGradient><linearGradient x1="235.21972" y1="195.51745" x2="255.044" y2="195.51745" gradientUnits="userSpaceOnUse" id="color-2"><stop offset="0" stop-color="#2fe500"/><stop offset="1" stop-color="#51b800"/></linearGradient><linearGradient x1="235.90947" y1="142.36087" x2="274.10851" y2="142.36087" gradientUnits="userSpaceOnUse" id="color-3"><stop offset="0" stop-color="#fff8ad"/><stop offset="1" stop-color="#c9c388"/></linearGradient><linearGradient x1="207.49837" y1="136.19252" x2="228.81537" y2="136.19252" gradientUnits="userSpaceOnUse" id="color-4"><stop offset="0" stop-color="#fff8ad"/><stop offset="1" stop-color="#c9c388"/></linearGradient><linearGradient x1="187.30879" y1="137.02277" x2="233.1455" y2="137.02277" gradientUnits="userSpaceOnUse" id="color-5"><stop offset="0" stop-color="#fff8ad"/><stop offset="1" stop-color="#c9c388"/></linearGradient><linearGradient x1="188.81172" y1="148.99284" x2="224.62208" y2="148.99284" gradientUnits="userSpaceOnUse" id="color-6"><stop offset="0" stop-color="#fff8ad"/><stop offset="1" stop-color="#c9c388"/></linearGradient><linearGradient x1="227.74552" y1="129.11874" x2="230.85366" y2="151.90176" gradientUnits="userSpaceOnUse" id="color-7"><stop offset="0" stop-color="#00e0ff"/><stop offset="1" stop-color="#00bcc4"/></linearGradient><linearGradient x1="229.53621" y1="146.71041" x2="274.55967" y2="146.71041" gradientUnits="userSpaceOnUse" id="color-8"><stop offset="0" stop-color="#fff8ad"/><stop offset="1" stop-color="#c9c388"/></linearGradient><linearGradient x1="240" y1="145.81238" x2="240" y2="214.18767" gradientUnits="userSpaceOnUse" id="color-9"><stop offset="0" stop-color="#3dff00"/><stop offset="1" stop-color="#ebffd8"/></linearGradient><linearGradient x1="200.19897" y1="153.45327" x2="222.78329" y2="153.45327" gradientUnits="userSpaceOnUse" id="color-10"><stop offset="0" stop-color="#fff8ad"/><stop offset="1" stop-color="#c9c388"/></linearGradient><linearGradient x1="228.85314" y1="152.55956" x2="258.25256" y2="152.55956" gradientUnits="userSpaceOnUse" id="color-11"><stop offset="0" stop-color="#fff8ad"/><stop offset="1" stop-color="#c9c388"/></linearGradient><linearGradient x1="210.78325" y1="196.75899" x2="230.27942" y2="196.75899" gradientUnits="userSpaceOnUse" id="color-12"><stop offset="0" stop-color="#2fe500"/><stop offset="1" stop-color="#51b800"/></linearGradient><linearGradient x1="228.68678" y1="198.69311" x2="249.27753" y2="198.69311" gradientUnits="userSpaceOnUse" id="color-13"><stop offset="0" stop-color="#2fe500"/><stop offset="1" stop-color="#51b800"/></linearGradient><linearGradient x1="218.27911" y1="156.82706" x2="233.58084" y2="156.82706" gradientUnits="userSpaceOnUse" id="color-14"><stop offset="0" stop-color="#fff8ad"/><stop offset="1" stop-color="#c9c388"/></linearGradient></defs><g transform="translate(-186.55879,-117.13693)"><g data-paper-data="{&quot;isPaintingLayer&quot;:true}" fill-rule="nonzero" stroke-linejoin="miter" stroke-miterlimit="10" stroke-dasharray="" stroke-dashoffset="0" style="mix-blend-mode: normal"><path d="M231.26445,193.16737c0.39393,-3.58432 4.72194,-6.17169 9.66687,-5.77909c4.94493,0.3926 9.42647,4.17765 9.03253,7.76197c-0.39393,3.5843 -19.09333,1.60142 -18.6994,-1.98289z" data-paper-data="{&quot;origPos&quot;:null,&quot;origRot&quot;:0,&quot;index&quot;:null}" fill="#25b800" stroke="#000000" stroke-width="2" stroke-linecap="butt"/><path d="M233.48486,194.81008c0.39393,3.58432 -18.30546,5.56719 -18.6994,1.98289c-0.39393,-3.58432 4.0876,-7.36937 9.03253,-7.76197c4.94493,-0.3926 9.27293,2.19477 9.66686,5.77909z" data-paper-data="{&quot;origPos&quot;:null,&quot;origRot&quot;:0}" fill="#25b800" stroke="#000000" stroke-width="2" stroke-linecap="butt"/><path d="M242.13366,131.73043c0,0 -7.60435,4.67452 -7.9156,4.73436c-4.8134,0.92534 -5.99783,0.64594 -2.52112,-9.83633c2.49579,-4.77399 7.91313,-9.93312 11.86268,-8.49715c5.64634,2.05288 7.59055,21.6393 7.56852,22.019c-0.27918,4.8102 1.27971,7.68315 -3.11696,12.84041c-2.89243,3.39279 -5.87752,-21.26028 -5.87752,-21.26028z" data-paper-data="{&quot;origPos&quot;:null,&quot;origRot&quot;:0,&quot;index&quot;:null}" fill="url(#color-1)" stroke="#666349" stroke-width="1.5" stroke-linecap="butt"/><path d="M235.22622,196.53993c0.41696,-3.77324 4.99788,-6.497 10.2318,-6.0837c5.23392,0.4133 9.97736,4.39786 9.5604,8.1711c-0.41696,3.77322 -20.20916,1.68583 -19.7922,-2.08741z" data-paper-data="{&quot;origPos&quot;:null,&quot;origRot&quot;:0,&quot;index&quot;:null}" fill="url(#color-2)" stroke="#000000" stroke-width="2" stroke-linecap="butt"/><path d="M264.97878,135.77684c-3.27679,-0.64448 -11.68058,-1.44445 -11.68058,-1.44445c-6.83181,7.14956 -10.91734,17.94099 -10.96396,18.50038c-0.72102,8.65089 -7.92829,10.82757 -6.1408,0.13956c1.24627,-7.45186 1.55512,-12.19666 3.31017,-19.54534c0.72221,-3.024 -0.65799,-4.39342 1.48991,-6.64123c4.11502,-4.30642 29.47301,-2.35523 32.62632,5.33089c2.35245,5.73403 -4.32286,4.50949 -8.64107,3.66019z" data-paper-data="{&quot;origPos&quot;:null,&quot;index&quot;:null,&quot;origRot&quot;:0}" fill="url(#color-3)" stroke="#666349" stroke-width="1.5" stroke-linecap="butt"/><path d="M210.6657,153.61147c-4.39667,-5.15725 -2.83778,-8.0302 -3.11696,-12.84041c-0.02203,-0.37969 1.92218,-19.96613 7.56852,-22.019c3.94955,-1.43597 8.34494,2.44571 11.60719,8.49715c3.47671,10.48227 2.54777,10.76168 -2.26563,9.83633c-0.31125,-0.05983 -7.9156,-4.73435 -7.9156,-4.73435c0,0 -2.98509,24.65307 -5.87752,21.26028z" data-paper-data="{&quot;origPos&quot;:null,&quot;origRot&quot;:0}" fill="url(#color-4)" stroke="#666349" stroke-width="1.5" stroke-linecap="butt"/><path d="M188.15746,146.5197c-3.83123,-8.6069 5.97363,-21.97209 16.09584,-21.97209c10.12221,0 15.65726,5.46833 24.52699,11.49702c8.96223,6.09156 2.40931,9.79856 -4.34332,4.34332c-0.43664,-0.35275 -11.06127,-4.85429 -20.95014,-4.85429c0,0 -5.22745,6.62852 -7.0253,9.44285c-2.36923,3.70877 -5.78363,7.20539 -8.30407,1.54319z" data-paper-data="{&quot;origPos&quot;:null}" fill="url(#color-5)" stroke="#666349" stroke-width="1.5" stroke-linecap="butt"/><path d="M194.4914,166.35005c-7.88414,-5.15725 -5.08872,-8.0302 -5.58935,-12.84041c-0.03951,-0.37969 3.44687,-19.96613 13.57191,-22.019c7.08236,-1.43597 11.75718,3.97865 18.98152,4.15383c6.23445,10.48227 2.7361,10.2507 -5.89532,9.32536c-0.55813,-0.05983 -2.21825,-5.23905 -10.52914,0.11995c-7.37419,4.75499 -5.35289,24.65307 -10.53961,21.26028z" data-paper-data="{&quot;origPos&quot;:null,&quot;origRot&quot;:0}" fill="url(#color-6)" stroke="#666349" stroke-width="1.5" stroke-linecap="butt"/><path d="M246.81837,138.50706c1.23276,5.43553 -6.91738,11.76316 -15.37577,12.91708c-8.45838,1.15392 -20.91342,-1.35173 -21.66681,-6.87414c-0.75339,-5.52241 7.63088,-13.49594 16.08926,-14.64986c8.45838,-1.15392 19.65911,2.90044 20.95332,8.60693z" data-paper-data="{&quot;origPos&quot;:null,&quot;origRot&quot;:0}" fill="url(#color-7)" stroke="#244b00" stroke-width="1.5" stroke-linecap="butt"/><path d="M265.17571,150.40322c-2.70708,-1.95561 -10.0064,-6.19631 -10.0064,-6.19631c-9.19544,3.63781 -17.41906,11.73215 -17.69532,12.2208c-4.27231,7.55679 -11.72942,6.52034 -5.63653,-2.44098c4.24806,-6.24799 6.51265,-10.42892 11.17974,-16.37044c1.92051,-2.44495 1.23939,-4.26603 4.13042,-5.40974c5.53872,-2.19117 27.7575,10.18464 27.40797,18.48509c-0.26076,6.19234 -5.81244,2.28873 -9.37987,-0.28841z" data-paper-data="{&quot;origPos&quot;:null,&quot;index&quot;:null,&quot;origRot&quot;:0}" fill="url(#color-8)" stroke="#666349" stroke-width="1.5" stroke-linecap="butt"/><path d="M227.35572,194.77047c-1.67642,-3.40158 -28.16669,-50.51217 -1.02196,-50.23554c25.77674,0.26269 -16.92024,2.976 10.47019,0.76647c17.92246,-1.44577 8.47171,33.86351 2.81037,47.16966c-5.66134,13.30615 -10.58218,5.70099 -12.2586,2.29941z" data-paper-data="{&quot;origPos&quot;:null}" fill="url(#color-9)" stroke="#244b00" stroke-width="1.5" stroke-linecap="butt"/><path d="M203.3663,170.83906c-4.39667,-5.15725 -2.83778,-8.0302 -3.11696,-12.84041c-0.02203,-0.37969 1.92218,-19.96613 7.56852,-22.019c3.94955,-1.43597 9.3669,4.23414 13.39562,4.40932c3.47671,10.48227 0.75934,14.84951 -4.05406,13.92416c-0.31125,-0.05983 -7.9156,-4.73435 -7.9156,-4.73435c0,0 -2.98509,24.65307 -5.87752,21.26028z" data-paper-data="{&quot;origPos&quot;:null,&quot;origRot&quot;:0}" fill="url(#color-10)" stroke="#666349" stroke-width="1.5" stroke-linecap="butt"/><path d="M243.03957,155.19953c-1.72814,-1.11433 -6.28626,-9.11565 -6.28626,-9.11565l2.73565,4.51771c0,0 -3.96713,4.15515 -6.97853,4.478c-8.63142,0.92534 0.31314,-15.07083 3.43059,-16.35263c6.44556,-2.65021 11.37215,4.86081 15.4002,10.54796c4.20131,5.93177 7.55777,10.43599 6.80535,17.66585c0,0 -10.5432,-5.45331 -15.107,-11.74123z" data-paper-data="{&quot;origPos&quot;:null,&quot;origRot&quot;:0,&quot;index&quot;:null}" fill="url(#color-11)" stroke="#666349" stroke-width="1.5" stroke-linecap="butt"/><path d="M231.47096,173.22775c0.23007,2.64249 -0.65813,4.98368 -1.98382,5.22909c-1.32568,0.24548 -2.58686,-1.69777 -2.8169,-4.34026c-0.23007,-2.64249 0.65813,-4.98368 1.98382,-5.22909c1.32568,-0.24548 2.58685,1.69778 2.81688,4.34027z" data-paper-data="{&quot;origPos&quot;:null,&quot;origRot&quot;:0}" fill="#000000" stroke="none" stroke-width="0" stroke-linecap="butt"/><path d="M229.68203,172.54902c0.10435,1.19875 -0.29856,2.26077 -0.89995,2.37215c-0.60138,0.11134 -1.17349,-0.77019 -1.27784,-1.96892c-0.10435,-1.19875 0.29856,-2.26077 0.89995,-2.37215c0.60138,-0.11134 1.17349,0.77019 1.27784,1.96891z" data-paper-data="{&quot;origPos&quot;:null,&quot;origRot&quot;:0}" fill="#ffffff" stroke="none" stroke-width="0" stroke-linecap="butt"/><path d="M237.82451,171.87561c0.16276,2.12853 -0.5715,4.00174 -1.64006,4.18392c-1.06858,0.18218 -2.06676,-1.39562 -2.22957,-3.52418c-0.16276,-2.12853 0.57149,-4.00175 1.64006,-4.18392c1.06858,-0.18218 2.06682,1.39564 2.2296,3.52416z" data-paper-data="{&quot;origPos&quot;:null,&quot;origRot&quot;:0}" fill="#000000" stroke="none" stroke-width="0" stroke-linecap="butt"/><path d="M236.16395,170.91777c0.05552,0.72589 -0.19489,1.3647 -0.55929,1.42683c-0.36438,0.06212 -0.7048,-0.47592 -0.76034,-1.20182c-0.05552,-0.72589 0.19489,-1.3647 0.55929,-1.42683c0.36438,-0.06212 0.70481,0.47593 0.76033,1.20182z" data-paper-data="{&quot;origPos&quot;:null,&quot;origRot&quot;:0}" fill="#ffffff" stroke="none" stroke-width="0" stroke-linecap="butt"/><path d="M235.16754,186.37604c0,0 -2.4623,0.58814 -3.38419,-0.1801c-0.87285,-0.72738 -2.23658,-2.3748 -2.23658,-2.3748" data-paper-data="{&quot;origPos&quot;:null}" fill="none" stroke="#244b00" stroke-width="1" stroke-linecap="round"/><path d="M230.27303,197.73026c0.41006,3.58431 -19.05457,5.56719 -19.46463,1.98289c-0.41006,-3.58431 4.25488,-7.36937 9.40217,-7.76197c5.14729,-0.3926 9.6524,2.19478 10.06246,5.77909z" data-paper-data="{&quot;origPos&quot;:null,&quot;origRot&quot;:0}" fill="url(#color-12)" stroke="#000000" stroke-width="2" stroke-linecap="butt"/><path d="M228.69353,199.71559c0.43308,-3.77324 5.19112,-6.49699 10.62739,-6.0837c5.43628,0.4133 10.36312,4.39786 9.93004,8.17109c-0.43308,3.77322 -20.99051,1.68583 -20.55743,-2.08741z" data-paper-data="{&quot;origPos&quot;:null,&quot;origRot&quot;:0,&quot;index&quot;:null}" fill="url(#color-13)" stroke="#000000" stroke-width="2" stroke-linecap="butt"/><path d="M223.18467,174.30612c-4.39667,-5.15725 -4.6262,-8.0302 -4.90538,-12.84041c-0.02203,-0.37969 -1.65467,-18.68868 3.99167,-20.74155c3.94955,-1.43597 8.34493,-0.36467 9.30778,3.89834c3.47671,10.48227 2.29228,14.33853 -2.52112,13.41318c-0.31125,-0.05983 0.26006,-4.73435 0.26006,-4.73435c0,0 -3.24058,24.39757 -6.13301,21.00479z" data-paper-data="{&quot;origPos&quot;:null,&quot;origRot&quot;:0}" fill="url(#color-14)" stroke="#666349" stroke-width="1.5" stroke-linecap="butt"/></g></g></svg>