<svg version="1.1" xmlns="http://www.w3.org/2000/svg" xmlns:xlink="http://www.w3.org/1999/xlink" width="90.85187" height="88.21747" viewBox="0,0,90.85187,88.21747"><defs><linearGradient x1="217.56542" y1="135.22524" x2="238.83838" y2="132.22359" gradientUnits="userSpaceOnUse" id="color-1"><stop offset="0" stop-color="#fff8ad"/><stop offset="1" stop-color="#c9c388"/></linearGradient><linearGradient x1="233.58004" y1="194.1544" x2="253.11289" y2="190.76767" gradientUnits="userSpaceOnUse" id="color-2"><stop offset="0" stop-color="#2fe500"/><stop offset="1" stop-color="#51b800"/></linearGradient><linearGradient x1="226.11345" y1="138.52564" x2="263.93782" y2="133.18857" gradientUnits="userSpaceOnUse" id="color-3"><stop offset="0" stop-color="#fff8ad"/><stop offset="1" stop-color="#c9c388"/></linearGradient><linearGradient x1="220.41042" y1="143.72298" x2="264.99226" y2="137.43242" gradientUnits="userSpaceOnUse" id="color-4"><stop offset="0" stop-color="#fff8ad"/><stop offset="1" stop-color="#c9c388"/></linearGradient><linearGradient x1="197.29458" y1="139.45883" x2="218.40248" y2="136.48047" gradientUnits="userSpaceOnUse" id="color-5"><stop offset="0" stop-color="#fff8ad"/><stop offset="1" stop-color="#c9c388"/></linearGradient><linearGradient x1="175.57365" y1="144.65226" x2="220.96075" y2="138.24807" gradientUnits="userSpaceOnUse" id="color-6"><stop offset="0" stop-color="#fff8ad"/><stop offset="1" stop-color="#c9c388"/></linearGradient><linearGradient x1="183.72253" y1="155.07502" x2="219.18164" y2="150.0717" gradientUnits="userSpaceOnUse" id="color-7"><stop offset="0" stop-color="#fff8ad"/><stop offset="1" stop-color="#c9c388"/></linearGradient><linearGradient x1="232.73823" y1="143.39877" x2="242.29145" y2="211.10339" gradientUnits="userSpaceOnUse" id="color-8"><stop offset="0" stop-color="#3dff00"/><stop offset="1" stop-color="#ebffd8"/></linearGradient><linearGradient x1="218.27156" y1="128.58103" x2="224.53242" y2="150.70632" gradientUnits="userSpaceOnUse" id="color-9"><stop offset="0" stop-color="#00e0ff"/><stop offset="1" stop-color="#00bcc4"/></linearGradient><linearGradient x1="199.9934" y1="157.79986" x2="222.35618" y2="154.64444" gradientUnits="userSpaceOnUse" id="color-10"><stop offset="0" stop-color="#fff8ad"/><stop offset="1" stop-color="#c9c388"/></linearGradient><linearGradient x1="225.53643" y1="150.19689" x2="254.64748" y2="146.08928" gradientUnits="userSpaceOnUse" id="color-11"><stop offset="0" stop-color="#fff8ad"/><stop offset="1" stop-color="#c9c388"/></linearGradient><linearGradient x1="214.57594" y1="157.3433" x2="229.72759" y2="155.20538" gradientUnits="userSpaceOnUse" id="color-12"><stop offset="0" stop-color="#fff8ad"/><stop offset="1" stop-color="#c9c388"/></linearGradient><linearGradient x1="211.03874" y1="197.52546" x2="230.53491" y2="197.52546" gradientUnits="userSpaceOnUse" id="color-13"><stop offset="0" stop-color="#2fe500"/><stop offset="1" stop-color="#51b800"/></linearGradient><linearGradient x1="227.99204" y1="198.55023" x2="248.45423" y2="196.25291" gradientUnits="userSpaceOnUse" id="color-14"><stop offset="0" stop-color="#2fe500"/><stop offset="1" stop-color="#51b800"/></linearGradient></defs><g transform="translate(-175.4426,-115.15517)"><g data-paper-data="{&quot;isPaintingLayer&quot;:true}" fill-rule="nonzero" stroke-linejoin="miter" stroke-miterlimit="10" stroke-dasharray="" stroke-dashoffset="0" style="mix-blend-mode: normal"><path d="M231.49183,190.69811c0.26308,-3.59629 4.49395,-6.33963 9.4499,-6.12746c4.95595,0.21218 9.57242,3.83143 9.30933,7.42773c-0.26308,3.59627 -19.02231,2.296 -18.75923,-1.30028z" data-paper-data="{&quot;origPos&quot;:null,&quot;origRot&quot;:0,&quot;index&quot;:null}" fill="#25b800" stroke="#000000" stroke-width="2" stroke-linecap="butt"/><path d="M233.48486,194.81008c0.39393,3.58432 -18.30546,5.56719 -18.6994,1.98289c-0.39393,-3.58432 4.0876,-7.36937 9.03253,-7.76197c4.94493,-0.3926 9.27293,2.19477 9.66686,5.77909z" data-paper-data="{&quot;origPos&quot;:null,&quot;origRot&quot;:0}" fill="#25b800" stroke="#000000" stroke-width="2" stroke-linecap="butt"/><path d="M229.34172,129.65657c0,0 -6.87665,5.69114 -7.17649,5.79387c-4.6369,1.58879 -5.84876,1.47761 -3.8707,-9.3876c1.8043,-5.07587 6.44769,-10.94129 10.55912,-10.07123c5.87778,1.24386 10.53948,20.36651 10.57072,20.74556c0.39563,4.80203 2.34063,7.42899 -1.29235,13.14996c-2.39002,3.76363 -8.79031,-20.23056 -8.79031,-20.23056z" data-paper-data="{&quot;origPos&quot;:null,&quot;origRot&quot;:0,&quot;index&quot;:null}" fill="url(#color-1)" stroke="#666349" stroke-width="1.5" stroke-linecap="butt"/><path d="M233.76112,195.16073c-0.23378,-3.789 3.81447,-7.25531 9.04206,-7.74224c5.22758,-0.48693 10.58201,2.6287 10.81579,6.4177c0.23378,3.78898 -19.62407,5.11353 -19.85785,1.32452z" data-paper-data="{&quot;origPos&quot;:null,&quot;origRot&quot;:0,&quot;index&quot;:null}" fill="url(#color-2)" stroke="#000000" stroke-width="2" stroke-linecap="butt"/><path d="M253.97775,127.9447c-3.33469,-0.18033 -11.76782,0.2017 -11.76782,0.2017c-5.76589,8.03396 -8.3036,19.29035 -8.27158,19.85077c0.49473,8.66678 -6.33773,11.8291 -6.06106,0.99616c0.19289,-7.55289 -0.16421,-12.29431 0.54688,-19.81611c0.29262,-3.09525 -1.26538,-4.25839 0.5474,-6.78426c3.47297,-4.83911 28.85486,-6.45003 33.05111,0.72013c3.13051,5.34912 -3.65041,5.06923 -8.04492,4.83159z" data-paper-data="{&quot;origPos&quot;:null,&quot;index&quot;:null,&quot;origRot&quot;:0}" fill="url(#color-3)" stroke="#666349" stroke-width="1.5" stroke-linecap="butt"/><path d="M256.21629,142.40011c-2.95376,-1.5582 -10.77398,-4.73745 -10.77398,-4.73745c-8.59698,4.88688 -15.60902,14.05081 -15.81429,14.57328c-3.17459,8.07957 -10.70336,8.09518 -5.92229,-1.62952c3.33345,-6.78024 4.99166,-11.23655 8.78285,-17.77188c1.56007,-2.6893 0.6312,-4.39735 3.33407,-5.93377c5.17825,-2.94353 28.90821,6.20654 29.72183,14.47441c0.60698,6.16803 -5.43567,3.07839 -9.32816,1.02496z" data-paper-data="{&quot;origPos&quot;:null,&quot;index&quot;:null,&quot;origRot&quot;:0}" fill="url(#color-4)" stroke="#666349" stroke-width="1.5" stroke-linecap="butt"/><path d="M202.86456,156.2644c-5.0741,-4.49239 -3.9319,-7.55494 -4.88042,-12.27897c-0.07486,-0.37289 -0.8863,-20.03885 4.41784,-22.86048c3.71018,-1.9737 8.6048,1.25578 12.68053,6.79208c4.90717,9.89369 4.02638,10.30015 -0.8691,10.0564c-0.31655,-0.01576 -8.49944,-3.58196 -8.49944,-3.58196c0,0 0.48866,24.82832 -2.84944,21.87294z" data-paper-data="{&quot;origPos&quot;:null,&quot;origRot&quot;:0}" fill="url(#color-5)" stroke="#666349" stroke-width="1.5" stroke-linecap="butt"/><path d="M177.74087,153.93746c-4.99618,-7.9872 2.84516,-22.59119 12.86807,-24.00544c10.02293,-1.41425 16.26771,3.22709 25.89275,7.9574c9.72542,4.77963 3.75471,9.36584 -3.69389,4.90756c-0.48164,-0.28828 -11.63101,-3.26123 -21.42287,-1.87958c0,0 -4.25005,7.29387 -5.63707,10.3318c-1.82781,4.00341 -4.72019,7.9428 -8.007,2.68829z" data-paper-data="{&quot;origPos&quot;:null,&quot;origRot&quot;:0}" fill="url(#color-6)" stroke="#666349" stroke-width="1.5" stroke-linecap="butt"/><path d="M191.7716,171.46844c-8.52737,-4.00512 -6.16076,-7.24046 -7.32855,-11.93354c-0.09217,-0.37044 0.62344,-20.25187 10.36236,-23.69925c6.81226,-2.41141 12.19774,2.29694 19.3757,1.46104c7.63786,9.5084 4.14146,9.76788 -4.53457,10.05757c-0.56101,0.01874 -2.92848,-4.87773 -10.4091,1.58988c-6.63751,5.73865 -1.85592,25.15914 -7.4658,22.52431z" data-paper-data="{&quot;origPos&quot;:null,&quot;origRot&quot;:0}" fill="url(#color-7)" stroke="#666349" stroke-width="1.5" stroke-linecap="butt"/><path d="M227.05828,193.64327c-2.13524,-3.134 -34.94785,-46.08133 -8.03072,-49.60001c25.5606,-3.34135 -16.33848,5.31085 10.47458,-0.70392c17.54468,-3.93567 13.11994,32.3477 9.37323,46.31434c-3.74671,13.96662 -9.68186,7.12359 -11.81709,3.9896z" data-paper-data="{&quot;origPos&quot;:null,&quot;origRot&quot;:0}" fill="url(#color-8)" stroke="#244b00" stroke-width="1.5" stroke-linecap="butt"/><path d="M238.46905,135.21246c1.98011,5.20996 -5.20602,12.61427 -13.42021,14.93864c-8.2142,2.32439 -20.89715,1.58349 -22.41474,-3.77947c-1.51758,-5.36298 5.67042,-14.42974 13.88461,-16.75412c8.2142,-2.32439 19.87152,0.12527 21.95033,5.59496z" data-paper-data="{&quot;origPos&quot;:null,&quot;origRot&quot;:0}" fill="url(#color-9)" stroke="#244b00" stroke-width="1.5" stroke-linecap="butt"/><path d="M205.55875,174.57259c-5.0741,-4.49239 -3.9319,-7.55494 -4.88042,-12.27897c-0.07486,-0.37289 -0.8863,-20.03885 4.41784,-22.86048c3.71018,-1.9737 9.8666,2.88389 13.88029,2.49446c4.90717,9.89369 2.82663,14.59776 -2.06884,14.35401c-0.31655,-0.01576 -8.49944,-3.58196 -8.49944,-3.58196c0,0 0.48866,24.82832 -2.84944,21.87294z" data-paper-data="{&quot;origPos&quot;:null,&quot;origRot&quot;:0}" fill="url(#color-10)" stroke="#666349" stroke-width="1.5" stroke-linecap="butt"/><path d="M239.95256,150.82886c-1.86688,-0.86195 -7.49821,-8.14794 -7.49821,-8.14794l3.34002,4.09118c0,0 -3.34768,4.66866 -6.28443,5.4091c-8.41747,2.12223 -1.7956,-14.96676 1.1122,-16.67155c6.01206,-3.52477 11.93974,3.22424 16.72287,8.29282c4.98887,5.28659 8.94173,9.27767 9.20683,16.54175c0,0 -11.20171,-3.92676 -16.59927,-9.51536z" data-paper-data="{&quot;origPos&quot;:null,&quot;origRot&quot;:0,&quot;index&quot;:null}" fill="url(#color-11)" stroke="#666349" stroke-width="1.5" stroke-linecap="butt"/><path d="M221.87551,173.96551c-5.0741,-4.49239 -5.70278,-7.30508 -6.65128,-12.02909c-0.07486,-0.37289 -4.24957,-18.27419 1.05456,-21.0958c3.71018,-1.9737 8.21213,-1.52702 9.76116,2.55965c4.90717,9.89369 4.27313,13.87762 -0.62234,13.63385c-0.31655,-0.01576 -0.40396,-4.72426 -0.40396,-4.72426c0,0 0.19997,24.61103 -3.13812,21.65565z" data-paper-data="{&quot;origPos&quot;:null,&quot;origRot&quot;:0}" fill="url(#color-12)" stroke="#666349" stroke-width="1.5" stroke-linecap="butt"/><path d="M230.21851,171.95728c0.59701,2.58442 0.04464,5.02675 -1.23377,5.45499c-1.27838,0.42829 -2.7987,-1.31969 -3.39568,-3.90412c-0.59701,-2.58442 -0.04464,-5.02675 1.23377,-5.45499c1.27838,-0.42829 2.79869,1.3197 3.39566,3.90414z" data-paper-data="{&quot;origPos&quot;:null,&quot;origRot&quot;:0}" fill="#000000" stroke="none" stroke-width="0" stroke-linecap="butt"/><path d="M235.71948,169.0719c0.42935,1.95211 -0.00636,3.78486 -0.97321,4.09354c-0.96687,0.30869 -2.09871,-1.02355 -2.5281,-2.97567c-0.42935,-1.95211 0.00634,-3.78487 0.97321,-4.09354c0.96687,-0.30869 2.09876,1.02355 2.52812,2.97565z" data-paper-data="{&quot;origPos&quot;:null,&quot;origRot&quot;:0}" fill="#000000" stroke="none" stroke-width="0" stroke-linecap="butt"/><path d="M228.35231,171.53515c0.27081,1.17241 0.02024,2.28031 -0.55969,2.47462c-0.57992,0.19427 -1.26958,-0.59868 -1.5404,-1.77106c-0.27081,-1.17241 -0.02024,-2.28031 0.55969,-2.47462c0.57992,-0.19427 1.26958,0.59868 1.5404,1.77105z" data-paper-data="{&quot;origPos&quot;:null,&quot;origRot&quot;:0}" fill="#ffffff" stroke="none" stroke-width="0" stroke-linecap="butt"/><path d="M234.05464,168.40109c0.14643,0.66573 -0.00216,1.29074 -0.33187,1.39601c-0.3297,0.10527 -0.71568,-0.34905 -0.86215,-1.01477c-0.14643,-0.66573 0.00216,-1.29074 0.33187,-1.39601c0.3297,-0.10527 0.7157,0.34906 0.86214,1.01477z" data-paper-data="{&quot;origPos&quot;:null,&quot;origRot&quot;:0}" fill="#ffffff" stroke="none" stroke-width="0" stroke-linecap="butt"/><path d="M234.86613,184.24102c0,0 -2.3742,0.87865 -3.38141,0.22628c-0.95363,-0.61768 -2.50476,-2.09002 -2.50476,-2.09002" data-paper-data="{&quot;origPos&quot;:null,&quot;origRot&quot;:0}" fill="none" stroke="#244b00" stroke-width="1" stroke-linecap="round"/><path d="M230.52852,198.49673c0.41006,3.58431 -19.05457,5.56719 -19.46463,1.98289c-0.41006,-3.58431 4.25488,-7.36937 9.40217,-7.76197c5.14729,-0.3926 9.6524,2.19478 10.06246,5.77909z" data-paper-data="{&quot;origPos&quot;:null,&quot;origRot&quot;:0}" fill="url(#color-13)" stroke="#000000" stroke-width="2" stroke-linecap="butt"/><path d="M228.11282,199.56558c0.0094,-3.798 4.43384,-7.0356 9.88227,-7.23142c5.44846,-0.19581 10.78909,3.21418 10.7797,7.01217c-0.0094,3.79798 -20.67137,4.01723 -20.66197,0.21923z" data-paper-data="{&quot;origPos&quot;:null,&quot;origRot&quot;:0,&quot;index&quot;:null}" fill="url(#color-14)" stroke="#000000" stroke-width="2" stroke-linecap="butt"/></g></g></svg>