<svg version="1.1" xmlns="http://www.w3.org/2000/svg" xmlns:xlink="http://www.w3.org/1999/xlink" width="83.0364" height="77.03991" viewBox="0,0,83.0364,77.03991"><defs><linearGradient x1="284.70378" y1="173.52415" x2="217.58682" y2="192.15573" gradientUnits="userSpaceOnUse" id="color-1"><stop offset="0" stop-color="#6fe640"/><stop offset="1" stop-color="#dfffd2"/></linearGradient><linearGradient x1="284.81909" y1="176.45651" x2="270.39248" y2="180.46131" gradientUnits="userSpaceOnUse" id="color-2"><stop offset="0" stop-color="#389920"/><stop offset="1" stop-color="#48c42a"/></linearGradient><linearGradient x1="280.08704" y1="175.18647" x2="273.0357" y2="177.14391" gradientUnits="userSpaceOnUse" id="color-3"><stop offset="0" stop-color="#3faa24"/><stop offset="1" stop-color="#50ca3f"/></linearGradient><linearGradient x1="203.43003" y1="203.40237" x2="242.02987" y2="192.45773" gradientUnits="userSpaceOnUse" id="color-4"><stop offset="0" stop-color="#6fe640"/><stop offset="1" stop-color="#dfffd2"/></linearGradient><linearGradient x1="233.26508" y1="139.7376" x2="235.55939" y2="172.9911" gradientUnits="userSpaceOnUse" id="color-5"><stop offset="0" stop-color="#26a200"/><stop offset="1" stop-color="#a3b196"/></linearGradient><linearGradient x1="232.62886" y1="134.45805" x2="234.92317" y2="167.71156" gradientUnits="userSpaceOnUse" id="color-6"><stop offset="0" stop-color="#34e000"/><stop offset="1" stop-color="#c9dab9"/></linearGradient><radialGradient cx="241.04594" cy="182.57363" r="22.28066" gradientUnits="userSpaceOnUse" id="color-7"><stop offset="0" stop-color="#e5ffd9"/><stop offset="1" stop-color="#d7ffca"/></radialGradient><linearGradient x1="220.12324" y1="183.85036" x2="257.8212" y2="183.85036" gradientUnits="userSpaceOnUse" id="color-8"><stop offset="0" stop-color="#b1e49c" stop-opacity="0"/><stop offset="1" stop-color="#b1e49c"/></linearGradient><linearGradient x1="232.26177" y1="133.63911" x2="234.12046" y2="160.57885" gradientUnits="userSpaceOnUse" id="color-9"><stop offset="0" stop-color="#3dff00"/><stop offset="1" stop-color="#ebffd8"/></linearGradient><linearGradient x1="204.25193" y1="204.87944" x2="212.54885" y2="202.52692" gradientUnits="userSpaceOnUse" id="color-10"><stop offset="0" stop-color="#389920"/><stop offset="1" stop-color="#48c42a"/></linearGradient><linearGradient x1="206.19927" y1="202.83682" x2="210.25456" y2="201.68698" gradientUnits="userSpaceOnUse" id="color-11"><stop offset="0" stop-color="#3faa24"/><stop offset="1" stop-color="#50ca3f"/></linearGradient></defs><g transform="translate(-203.02324,-131.63968)"><g data-paper-data="{&quot;isPaintingLayer&quot;:true}" fill-rule="nonzero" stroke-linejoin="miter" stroke-miterlimit="10" stroke-dasharray="" stroke-dashoffset="0" style="mix-blend-mode: normal"><path d="M266.51447,197.68236c-14.6016,6.87098 -20.34124,6.75737 -20.34124,6.75737l1.19186,-2.47417c0,0 7.32629,-0.63531 15.53713,-4.31339c8.4788,-3.79809 7.29123,-14.44225 7.29123,-14.44225l-10.21916,-12.81324c0,0 0.24606,-7.26707 2.15686,-9.25895c0.75858,-0.79076 2.95356,-0.19068 3.73886,-0.9549c1.63015,-1.58641 -1.21125,-7.02464 6.35765,-1.83577c1.5988,1.09608 3.43881,3.22192 4.60655,4.76916c0.51039,0.67626 -1.17205,1.80892 -1.17205,1.80892c0,0 1.59832,-1.43458 2.16943,-0.70537c1.26434,1.61431 2.34023,2.28535 3.45583,4.0058c1.60934,2.48189 3.55833,6.73779 3.55833,6.73779c0,0 3.90132,4.04662 -6.53636,12.16655c0.15451,-3.27732 -4.07728,6.92079 -11.79493,10.55244z" data-paper-data="{&quot;origPos&quot;:null,&quot;origRot&quot;:0,&quot;index&quot;:null}" fill="url(#color-1)" stroke="#244b00" stroke-width="1" stroke-linecap="butt"/><path d="M272.04963,177.21495l3.40317,-7.06058c4.37437,-1.21432 7.50474,-0.40383 9.09409,5.32149c1.58935,5.72529 -2.67673,10.70143 -7.0511,11.91575c-4.37437,1.21432 -5.63062,-1.62528 -7.21997,-7.35058c-1.58935,-5.72529 1.7738,-2.82609 1.7738,-2.82609z" data-paper-data="{&quot;origPos&quot;:null,&quot;index&quot;:null,&quot;origRot&quot;:0}" fill="url(#color-2)" stroke="#244b00" stroke-width="1" stroke-linecap="butt"/><path d="M277.58053,181.58884l-4.58463,-4.58826l2.5463,-6.259l4.94665,5.89242z" data-paper-data="{&quot;origPos&quot;:null,&quot;origRot&quot;:0,&quot;index&quot;:null}" fill="url(#color-3)" stroke="#244b00" stroke-width="0.5" stroke-linecap="butt"/><path d="M279.64862,176.42289c1.34484,-0.37333 1.40149,1.2894 1.08209,2.64806c-0.35645,1.5163 -0.648,3.07051 -2.14886,3.48714c-0.06353,0.01763 -1.64575,-0.681 -2.06168,-2.17926c-0.48383,-1.74292 1.55151,-3.51821 3.12843,-3.95594z" data-paper-data="{&quot;origPos&quot;:null,&quot;index&quot;:null,&quot;origRot&quot;:0}" fill="#244b00" stroke="#244b00" stroke-width="0" stroke-linecap="butt"/><path d="M267.39945,170.00218c0,0 0.93765,-4.05528 3.54259,-5.32037c1.45069,-0.70452 5.96751,-0.07133 5.96751,-0.07133" data-paper-data="{&quot;origPos&quot;:null,&quot;index&quot;:null,&quot;origRot&quot;:0}" fill="none" stroke="#244b00" stroke-width="1" stroke-linecap="round"/><path d="M210.65234,208.17959c-7.56763,-0.86707 -6.86094,-4.02668 -6.86094,-4.02668c0,0 -0.31641,-2.67762 -0.26836,-4.38074c0.03331,-1.18062 0.36152,-1.8331 0.49979,-3.00607c0.06247,-0.52984 1.27857,-0.30303 1.27857,-0.30303c0,0 -1.16703,-0.0531 -1.11859,-0.53869c0.11086,-1.11102 0.37906,-2.70813 0.83714,-3.72638c2.16867,-4.82046 2.40034,-1.29383 3.6776,-1.00186c0.61528,0.14065 1.5153,-0.81223 2.1254,-0.65052c1.53682,0.40735 3.83528,3.90856 3.83528,3.90856l-1.18796,9.36526c0,0 0.88092,0.9831 1.96678,0.95799c5.29013,1.1922 8.68457,1.45679 13.99361,0.78471c5.14127,-0.65083 12.93186,-2.68056 12.93186,-2.68056l2.99636,1.31721c0,0 -13.76695,2.72394 -23.00874,3.7189c-4.88475,0.52589 -5.42408,0.98073 -11.69784,0.26193z" data-paper-data="{&quot;origPos&quot;:null,&quot;origRot&quot;:0}" fill="url(#color-4)" stroke="#244b00" stroke-width="1" stroke-linecap="butt"/><path d="M248.71815,169.59324l-18.41764,2.40526c0,0 -11.33582,-2.34673 -14.14647,-4.18981c-3.07379,-2.01563 -1.05807,-3.65115 -4.36103,-5.26406c-2.00535,-0.97926 -3.03927,0.49894 -4.81205,-0.85661c-1.69551,-1.29646 -2.76963,-3.3392 0.61425,-5.68091c2.15985,-1.49466 4.57566,-1.93258 4.57566,-1.93258c0,0 -6.55663,-3.75259 0.36452,-5.18029c1.67833,-0.34621 9.19041,1.64036 9.19041,1.64036c0,0 -9.81267,-1.97876 -7.40406,-4.16491c3.03457,-2.75428 2.44152,-1.87695 6.24059,-1.51106c4.07925,0.39287 8.56878,2.42982 8.56878,2.42982c0,0 -4.31608,-2.06949 -7.34769,-3.94841c1.41994,-1.37637 3.73997,-2.49699 5.71047,-2.33043c3.27341,0.27669 7.59158,3.81276 7.59158,3.81276c0,0 -10.60618,-5.59008 -7.78201,-6.45184c0.62075,-0.18942 5.12919,-0.0325 7.18308,0.73525c2.0539,0.76776 6.7837,6.33661 6.7837,6.33661c0,0 -2.47949,-1.70052 -4.30216,-3.71314c-3.53966,-3.90856 2.18783,-2.2136 5.46005,-1.05887c2.99657,1.05746 6.37031,6.89307 6.37031,6.89307l-3.77809,-5.48724c0,0 1.58766,-1.29229 2.85291,-0.57147c1.30791,0.74511 3.7405,4.32773 3.7405,4.32773l1.19474,7.59181c0,0 6.00624,-0.85738 6.31573,3.62839c0.26407,3.82734 -2.89829,6.06449 -5.04923,7.63002c-2.28365,1.66211 -5.35681,4.91058 -5.35681,4.91058z" data-paper-data="{&quot;origPos&quot;:null,&quot;origRot&quot;:0}" fill="url(#color-5)" stroke="#244b00" stroke-width="1.5" stroke-linecap="butt"/><path d="M248.08192,164.31369l-18.41764,2.40525c0,0 -4.64906,-3.83609 -8.50144,-4.93162c-2.35779,-0.67051 -5.30223,-0.12677 -7.48877,-1.23484c-1.1091,-0.56205 -1.61277,-2.49751 -2.73005,-3.0431c-2.00535,-0.97926 -2.82651,0.25464 -4.59931,-1.10092c-1.69551,-1.29646 -2.76963,-3.3392 0.61425,-5.68091c2.15985,-1.49466 4.57566,-1.93258 4.57566,-1.93258c0,0 -6.55663,-3.75259 0.36452,-5.18029c1.67833,-0.34621 9.19041,1.64036 9.19041,1.64036c0,0 -9.81267,-1.97876 -7.40406,-4.16491c3.03457,-2.75428 2.44152,-1.87695 6.24059,-1.51106c4.07925,0.39287 8.56878,2.42982 8.56878,2.42982c0,0 -4.31608,-2.06948 -7.34769,-3.94841c1.41994,-1.37637 3.73997,-2.49699 5.71047,-2.33043c3.27341,0.27669 7.59157,3.81276 7.59157,3.81276c0,0 -10.60618,-5.59008 -7.78201,-6.45185c0.62075,-0.18942 5.12919,-0.0325 7.18308,0.73525c2.0539,0.76776 6.7837,6.33661 6.7837,6.33661c0,0 -2.47949,-1.70052 -4.30216,-3.71314c-3.53966,-3.90856 2.18783,-2.2136 5.46005,-1.05886c2.99657,1.05746 6.37031,6.89307 6.37031,6.89307l-3.7781,-5.48725c0,0 1.58766,-1.29229 2.85291,-0.57146c1.30791,0.74511 7.00292,5.02108 7.00292,5.02108c0,0 -1.09206,5.04209 2.3117,4.93334c2.65596,-0.08484 4.37846,6.06812 3.02211,8.3532c-1.09672,1.84767 -5.92769,-1.19046 -7.32149,0.44477c-3.04084,3.56753 -4.1703,9.33613 -4.1703,9.33613z" data-paper-data="{&quot;origPos&quot;:null,&quot;origRot&quot;:0}" fill="url(#color-6)" stroke="#244b00" stroke-width="1.5" stroke-linecap="butt"/><path d="M242.60796,156.73251c0,0 15.58894,20.77625 16.01986,31.44487c0.33427,8.2756 -7.41086,16.00364 -15.0488,16.79138c-9.36917,0.96629 -19.88536,-4.57827 -21.95332,-14.51966c-1.66938,-8.02533 7.22989,-31.37642 7.22989,-31.37642z" data-paper-data="{&quot;origPos&quot;:null,&quot;origRot&quot;:0}" fill="url(#color-7)" stroke="#244b00" stroke-width="2" stroke-linecap="butt"/><path d="M229.16097,202.12289c-10.76787,-4.55752 -8.91651,-13.28594 -8.91651,-13.28594c0,0 0.47337,0.52498 10.42366,6.94451c9.95029,6.41953 19.25992,0.59666 22.29559,-4.8215c1.89341,-3.37939 1.72325,-6.08004 0.97159,-9.94478c-1.46135,-7.51367 -6.5167,-18.75013 -6.5167,-18.75013c0,0 9.81937,16.45504 10.4026,26.80096c0,0 -0.44326,4.20581 -1.82479,6.82602c-2.16661,4.10921 -4.58826,6.60929 -8.8017,7.90627c-6.55363,2.01733 -7.26587,2.88212 -18.03374,-1.6754z" data-paper-data="{&quot;origPos&quot;:null}" fill="url(#color-8)" stroke="#244b00" stroke-width="0" stroke-linecap="butt"/><path d="M244.78079,157.82613l-14.92073,1.94858c0,0 -9.18353,-1.90117 -11.46052,-3.39431c-2.49017,-1.63293 -0.85719,-2.95791 -3.533,-4.26458c-1.6246,-0.79333 -2.46221,0.4042 -3.89841,-0.69398c-1.10461,-0.84462 -1.69946,-1.83783 -1.03255,-3.05799c0.41046,-0.75097 0.82644,-1.05729 1.53018,-1.5443c1.74976,-1.21087 3.70689,-1.56564 3.70689,-1.56564c0,0 -5.31173,-3.04009 0.29531,-4.19672c1.35968,-0.28047 7.44545,1.3289 7.44545,1.3289c0,0 -7.94957,-1.60307 -5.99828,-3.37413c2.45839,-2.23135 1.97796,-1.52058 5.05571,-1.22416c3.30474,0.31828 6.94185,1.96847 6.94185,1.96847c0,0 -3.4966,-1.67655 -5.9526,-3.19872c1.15034,-1.11503 3.02987,-2.0229 4.62624,-1.88796c2.65189,0.22416 6.15018,3.08884 6.15018,3.08884c0,0 -6.53568,-4.67061 -4.24774,-5.36875c2.28794,-0.69814 2.09859,0.11558 3.76252,0.73755c1.66393,0.62198 5.4957,5.1335 5.4957,5.1335c0,0 -2.00872,-1.37765 -3.48532,-3.00814c-2.86759,-3.16645 1.77244,-1.79331 4.42337,-0.85783c2.42763,0.85669 5.1608,5.58431 5.1608,5.58431l-3.06076,-4.44541c0,0 1.28621,-1.04692 2.31124,-0.46296c1.05957,0.60364 3.0303,3.50604 3.0303,3.50604c0,0 1.48356,-2.03118 4.24107,-2.11927c3.0568,-0.09765 1.98244,2.43966 2.26462,6.52964c0.28219,4.08997 -3.0235,5.83275 -4.17704,7.18611c-2.46347,2.89018 -4.67444,7.65291 -4.67444,7.65291z" data-paper-data="{&quot;origPos&quot;:null,&quot;origRot&quot;:0}" fill="url(#color-9)" stroke="#244b00" stroke-width="1.5" stroke-linecap="butt"/><path d="M251.46726,176.05313c0.12776,2.97026 -1.30562,5.44423 -3.20153,5.52578c-1.89591,0.08154 -3.53641,-2.26022 -3.66417,-5.23048c-0.12776,-2.97026 1.30562,-5.44423 3.20153,-5.52578c1.89591,-0.08154 3.53641,2.26022 3.66417,5.23048z" data-paper-data="{&quot;origRot&quot;:0,&quot;origPos&quot;:null}" fill="#ffffff" stroke="#244b00" stroke-width="0.5" stroke-linecap="butt"/><path d="M242.93533,175.6391c0,0 -2.3711,3.69447 -4.52178,3.82c-2.14703,0.12531 -4.39626,-4.44762 -4.39626,-4.44762z" data-paper-data="{&quot;origPos&quot;:null}" fill="#ffffff" stroke="#244b00" stroke-width="0.5" stroke-linecap="butt"/><path d="M249.88894,169.81985c-1.53305,-0.64413 -3.53713,1.50149 -4.5095,2.85043c-0.9229,1.2803 -0.88076,2.58458 -0.88076,2.58458l-11.81183,-0.54304" data-paper-data="{&quot;origPos&quot;:null}" fill="none" stroke="#244b00" stroke-width="1" stroke-linecap="round"/><path d="M240.65102,176.37548c0,0.55461 -0.4496,1.0042 -1.0042,1.0042c-0.55461,0 -1.0042,-0.4496 -1.0042,-1.0042c0,-0.55461 0.4496,-1.0042 1.0042,-1.0042c0.55461,0 1.0042,0.4496 1.0042,1.0042z" data-paper-data="{&quot;origPos&quot;:null}" fill="#000000" stroke="none" stroke-width="0" stroke-linecap="butt"/><path d="M248.70777,175.89654c0,0.8319 -0.4496,1.5063 -1.0042,1.5063c-0.55461,0 -1.0042,-0.6744 -1.0042,-1.5063c0,-0.8319 0.4496,-1.50629 1.0042,-1.50629c0.55461,0 1.0042,0.67439 1.0042,1.50629z" data-paper-data="{&quot;origPos&quot;:null}" fill="#000000" stroke="none" stroke-width="0" stroke-linecap="butt"/><path d="M241.97221,187.95849c0,0 0.25104,-1.12662 0.25104,-2.0084c0,-0.97975 -0.25104,-2.38498 -0.25104,-2.38498l2.76154,0.12552c0,0 0.43388,1.22744 0.55091,2.09341c0.12792,0.94658 -0.17433,2.04892 -0.17433,2.04892z" data-paper-data="{&quot;origPos&quot;:null}" fill="#ffffff" stroke="#244b00" stroke-width="0.5" stroke-linecap="butt"/><path d="M235.44492,186.57772c0,0 3.81152,-2.6371 6.2511,-3.03951c2.31224,-0.3814 5.92482,1.03111 5.92482,1.03111" data-paper-data="{&quot;origPos&quot;:null}" fill="none" stroke="#244b00" stroke-width="1" stroke-linecap="round"/><path d="M212.48033,202.28522c0.93362,3.29268 1.16644,5.066 -1.34932,5.77934c-2.51575,0.71332 -6.10539,-0.45639 -7.03899,-3.74907c-0.93362,-3.29268 0.36348,-4.62936 2.87923,-5.3427l3.78969,2.45367c0,0 0.78577,-2.43392 1.71938,0.85876z" data-paper-data="{&quot;origPos&quot;:null,&quot;origRot&quot;:0}" fill="url(#color-10)" stroke="#244b00" stroke-width="1" stroke-linecap="butt"/><path d="M206.43531,203.6693l0.66792,-4.38086l3.12799,2.31608l-0.88057,3.63083z" data-paper-data="{&quot;origPos&quot;:null,&quot;origRot&quot;:0}" fill="url(#color-11)" stroke="#244b00" stroke-width="0.5" stroke-linecap="butt"/><path d="M209.5097,204.3224c0.24433,0.86167 -0.3247,1.67943 -0.36123,1.68978c-0.86317,0.24474 -1.47228,-0.43248 -2.10195,-1.07159c-0.56422,-0.57267 -1.03455,-1.4076 -0.26111,-1.6269c0.90691,-0.25715 2.44009,0.00634 2.7243,1.00871z" data-paper-data="{&quot;origPos&quot;:null,&quot;origRot&quot;:0}" fill="#244b00" stroke="#244b00" stroke-width="0" stroke-linecap="butt"/><path d="M204.59351,196.68204c0,0 2.03226,-1.66486 2.95701,-1.75295c1.66052,-0.15817 3.33686,1.55581 3.33686,1.55581" data-paper-data="{&quot;origPos&quot;:null,&quot;origRot&quot;:0}" fill="none" stroke="#244b00" stroke-width="1" stroke-linecap="round"/></g></g></svg>