<svg version="1.1" xmlns="http://www.w3.org/2000/svg" xmlns:xlink="http://www.w3.org/1999/xlink" width="49.72493" height="62.38141" viewBox="0,0,49.72493,62.38141"><defs><linearGradient x1="234.49879" y1="145.5143" x2="234.49879" y2="182.73271" gradientUnits="userSpaceOnUse" id="color-1"><stop offset="0" stop-color="#92a518"/><stop offset="1" stop-color="#e1e100"/></linearGradient></defs><g transform="translate(-207.50856,-140.86889)"><g data-paper-data="{&quot;isPaintingLayer&quot;:true}" fill-rule="nonzero" stroke-linejoin="miter" stroke-miterlimit="10" stroke-dasharray="" stroke-dashoffset="0" style="mix-blend-mode: normal"><g stroke="#000000" stroke-linecap="butt"><path d="M235.33656,197.95854l-1.235,-4.30808l-13.60688,-6.58922l1.31992,-12.40854l4.56829,3.73813l-2.61407,7.18692l12.65435,5.63718l3.37575,6.16297z" fill="#92a518" stroke-width="2"/><path d="M219.85666,187.33794l-1.56607,-3.13456l3.13456,-1.56607z" fill="#c3dc00" stroke-width="1"/><path d="M226.93542,187.78951l3.12079,-1.59335l1.59335,3.12079z" fill="#c3dc00" stroke-width="1"/><path d="M230.15401,192.4824l-3.26411,1.2742l-1.2742,-3.26412z" fill="#c3dc00" stroke-width="1"/></g><g><path d="M240.82513,141.51602c0.87431,-0.36352 1.18962,-0.03705 0.84168,0.79854c-0.7202,1.72959 -1.76293,4.86585 -1.37763,7.82159c-2.4395,3.30643 -8.17335,-0.92405 -5.73385,-4.23047c1.62641,-2.20439 4.52095,-3.66254 6.2698,-4.38966z" data-paper-data="{&quot;origRot&quot;:0,&quot;index&quot;:null}" fill="#cff538" stroke="#000000" stroke-width="1" stroke-linecap="butt"/><path d="M252.85594,164.1235c-0.11678,2.2285 3.57492,5.14932 2.75993,8.58756c-3.21916,13.58083 -15.26702,10.02164 -21.11708,10.02164c-10.13837,0 -18.35715,-8.33162 -18.35715,-18.60921c0,-4.68701 5.23814,-17.93298 13.54506,-18.34505c8.35421,-0.41441 23.78663,6.56384 23.16924,18.34505z" fill="url(#color-1)" stroke="#000000" stroke-width="3" stroke-linecap="butt"/><path d="M224.41081,148.8358c2.43951,3.30643 -3.29435,7.53691 -5.73385,4.23047c0.3853,-2.95574 -0.65742,-6.092 -1.37763,-7.82159c-0.34794,-0.83559 -0.03264,-1.16206 0.84168,-0.79854c1.74885,0.72713 4.6434,2.18528 6.2698,4.38966z" data-paper-data="{&quot;origRot&quot;:0}" fill="#cff538" stroke="#000000" stroke-width="1" stroke-linecap="butt"/><path d="M244.15019,164.51461c0,2.06059 -1.41589,3.73104 -3.16249,3.73104c-1.74659,0 -3.16249,-1.67044 -3.16249,-3.73104c0,-2.06059 1.41589,-3.73104 3.16249,-3.73104c1.74659,0 3.16249,1.67044 3.16249,3.73104z" fill="#ffee00" stroke="#000000" stroke-width="0" stroke-linecap="butt"/><path d="M243.18745,164.69346c0,0.99908 -0.52165,1.80899 -1.16513,1.80899c-0.64348,0 -1.16513,-0.80991 -1.16513,-1.80899c0,-0.99908 0.52165,-1.80899 1.16513,-1.80899c0.64348,0 1.16513,0.80991 1.16513,1.80899z" fill="#ff0000" stroke="none" stroke-width="0" stroke-linecap="butt"/><path d="M250.62556,164.53523c0,2.0606 -1.41589,3.73103 -3.16249,3.73103c-1.7466,0 -3.16249,-1.67044 -3.16249,-3.73103c0,-2.0606 1.41589,-3.73104 3.16249,-3.73104c1.7466,0 3.16249,1.67044 3.16249,3.73104z" fill="#ffee00" stroke="#000000" stroke-width="0" stroke-linecap="butt"/><path d="M249.66283,164.71408c0,0.99908 -0.52165,1.80899 -1.16513,1.80899c-0.64348,0 -1.16512,-0.80991 -1.16512,-1.80899c0,-0.99908 0.52164,-1.80898 1.16512,-1.80898c0.64348,0 1.16513,0.80991 1.16513,1.80898z" fill="#ff0000" stroke="none" stroke-width="0" stroke-linecap="butt"/><path d="M235.9073,175.75875c0,0 4.41953,-0.46866 7.91554,-0.12959c5.0493,0.48973 8.31354,1.78938 8.31354,1.78938" fill="none" stroke="#000000" stroke-width="1.5" stroke-linecap="round"/><path d="M209.35062,163.95578l8.48338,-1.65979c0,0 0.12444,4.51808 1.74842,7.29361c1.74795,2.98741 5.62844,8.93547 5.62844,8.93547l-8.43402,-1.30228l2.39603,-4.01104l-6.13077,1.06881l3.47523,-5.15604z" fill="#dd6d00" stroke="#000000" stroke-width="1.5" stroke-linecap="butt"/><path d="M250.84543,160.63619h-13.09392" fill="none" stroke="#000000" stroke-width="2" stroke-linecap="round"/><path d="M236.60876,175.0447l1.89441,-1.97629l1.97629,1.89441z" fill="#ffffff" stroke="#000000" stroke-width="1" stroke-linecap="butt"/></g><path d="M254.36953,195.59488c0,0 -3.37836,4.53444 -8.11254,5.06433c-4.73418,0.52988 -8.77769,-0.87838 -9.03144,-3.14545c-0.25374,-2.26707 3.37836,-4.53446 8.11254,-5.06434c4.73418,-0.52988 9.03143,3.14546 9.03143,3.14546z" data-paper-data="{&quot;origRot&quot;:0,&quot;index&quot;:null}" fill="#bd5e00" stroke="#000000" stroke-width="2" stroke-linecap="butt"/><path d="M229.10807,194.00647c4.75382,-0.30737 8.72687,1.28889 8.87406,3.56537c0.14719,2.27648 -3.58721,4.37109 -8.34102,4.67846c-4.75382,0.30737 -8.87405,-3.56537 -8.87405,-3.56537c0,0 3.5872,-4.37109 8.34102,-4.67846z" data-paper-data="{&quot;origRot&quot;:0}" fill="#dd6d00" stroke="#000000" stroke-width="2" stroke-linecap="butt"/></g></g></svg>