<svg version="1.1" xmlns="http://www.w3.org/2000/svg" xmlns:xlink="http://www.w3.org/1999/xlink" width="90.6472" height="58.34627" viewBox="0,0,90.6472,58.34627"><defs><radialGradient cx="247.51747" cy="195.98307" r="9.52076" gradientUnits="userSpaceOnUse" id="color-1"><stop offset="0" stop-color="#a26e2a"/><stop offset="1" stop-color="#472b00"/></radialGradient><linearGradient x1="236.89022" y1="193.81834" x2="263.64306" y2="193.81834" gradientUnits="userSpaceOnUse" id="color-2"><stop offset="0" stop-color="#24b400"/><stop offset="1" stop-color="#217700"/></linearGradient><radialGradient cx="227.25394" cy="160.9819" r="34.81049" gradientUnits="userSpaceOnUse" id="color-3"><stop offset="0" stop-color="#ffb554"/><stop offset="1" stop-color="#885200"/></radialGradient><radialGradient cx="227.16738" cy="197.22826" r="10.56812" gradientUnits="userSpaceOnUse" id="color-4"><stop offset="0" stop-color="#c08231"/><stop offset="1" stop-color="#5e3800"/></radialGradient><linearGradient x1="215.37104" y1="194.82539" x2="245.06693" y2="194.82539" gradientUnits="userSpaceOnUse" id="color-5"><stop offset="0" stop-color="#2fe500"/><stop offset="1" stop-color="#16bb00"/></linearGradient></defs><g transform="translate(-189.92827,-150.45012)"><g data-paper-data="{&quot;isPaintingLayer&quot;:true}" fill-rule="nonzero" stroke-linecap="butt" stroke-linejoin="miter" stroke-miterlimit="10" stroke-dasharray="" stroke-dashoffset="0" style="mix-blend-mode: normal"><path d="M224.26737,163.31434c0,0 -6.22925,-9.0667 -13.34857,-8.9802c-4.37516,0.05317 -5.71129,3.8805 -10.63217,4.74424c-4.81303,0.84481 -9.0821,-3.8306 -9.0821,-3.8306l3.23916,-1.33415c0,0 3.06182,2.06942 6.22332,2.31814c3.47077,0.27305 6.84497,-5.74664 11.36877,-4.96085c6.23635,1.08325 12.62664,8.5446 12.62664,8.5446z" fill="#c29557" stroke="#000000" stroke-width="1.5"/><path d="M237.9967,195.98307c0,-5.25817 4.2626,-9.52076 9.52076,-9.52076c5.25817,0 9.52076,4.26259 9.52076,9.52076c0,5.25817 -4.26259,9.52076 -9.52076,9.52076c-5.25817,0 -9.52076,-4.26259 -9.52076,-9.52076z" fill="url(#color-1)" stroke="#000000" stroke-width="2"/><path d="M263.64306,203.67285c0,0 -0.89912,1.57559 -9.4934,-6.85792c-1.67395,-1.64263 -3.60597,-10.06991 -5.61281,-9.93444c-12.13454,0.81916 -12.26272,13.33016 -11.26991,11.21281c0.51029,-1.0883 -1.58815,-7.26194 2.24057,-11.0842c3.62025,-3.61415 11.93857,-4.13836 15.517,-1.52937c3.77601,2.75306 2.15722,6.77979 4.13259,12.56337c1.09191,3.19695 4.48595,5.62975 4.48595,5.62975z" data-paper-data="{&quot;origRot&quot;:0,&quot;index&quot;:null}" fill="url(#color-2)" stroke="#000000" stroke-width="2"/><path d="M277.62731,184.63246c0,0 -16.59261,13.37201 -36.01406,14.10973c-9.49543,0.36068 -17.27028,1.5403 -22.19715,-2.26387c-5.15027,-3.97667 -7.83442,-9.95102 -8.11516,-17.34206c-0.14813,-3.90015 0.64307,-12.3898 3.67947,-17.65638c2.80618,-4.86723 7.87051,-6.67951 7.87051,-6.67951l-2.28783,3.83958l12.32853,-6.40236l1.71515,2.11334c0,0 4.77538,0.07667 5.69243,0.04185c10.28779,-0.29635 21.52359,4.24961 21.52359,4.24961l9.07794,-0.58465c0,0 4.40579,5.13553 5.98063,11.90066c2.06965,8.8908 0.74594,14.67408 0.74594,14.67408z" fill="url(#color-3)" stroke="#000000" stroke-width="2"/><path d="M239.70099,170.09246c0.56356,-3.00855 11.45846,-0.96765 10.8949,2.04089c-0.56356,3.00855 -3.45935,4.99058 -6.46788,4.427c-3.00855,-0.56356 -4.99058,-3.45936 -4.42701,-6.46788z" fill="#ffffff" stroke="#000000" stroke-width="1"/><path d="M216.59926,197.22826c0,-5.83662 4.73151,-10.56812 10.56813,-10.56812c5.83662,0 10.56812,4.7315 10.56812,10.56812c0,5.83662 -4.7315,10.56812 -10.56812,10.56812c-5.83662,0 -10.56813,-4.73151 -10.56813,-10.56812z" fill="url(#color-4)" stroke="#000000" stroke-width="2"/><path d="M224.39617,192.01109c0,-0.71781 0.58189,-1.29969 1.29969,-1.29969c0.71781,0 1.29969,0.58189 1.29969,1.29969c0,0.71781 -0.58189,1.29969 -1.29969,1.29969c-0.71781,0 -1.29969,-0.58189 -1.29969,-1.29969z" fill="#000000" stroke="none" stroke-width="0.5"/><path d="M229.75472,193.88392c0,-0.86136 0.69827,-1.55963 1.55963,-1.55963c0.86136,0 1.55963,0.69827 1.55963,1.55963c0,0.86136 -0.69827,1.55963 -1.55963,1.55963c-0.86136,0 -1.55963,-0.69827 -1.55963,-1.55963z" fill="#000000" stroke="none" stroke-width="0.5"/><path d="M224.94648,196.55938c0,-1.00492 0.81465,-1.81957 1.81957,-1.81957c1.00492,0 1.81957,0.81465 1.81957,1.81957c0,1.00492 -0.81465,1.81957 -1.81957,1.81957c-1.00492,0 -1.81957,-0.81465 -1.81957,-1.81957z" fill="#000000" stroke="none" stroke-width="0.5"/><path d="M245.06693,205.76398c0,0 -0.99802,1.74892 -10.53774,-7.61233c-1.8581,-1.82334 -4.00264,-11.17769 -6.23027,-11.02731c-13.46944,0.90928 -13.61171,14.79658 -12.50969,12.4463c0.56643,-1.20802 -1.76287,-8.06081 2.48704,-12.30356c4.01852,-4.01173 13.25191,-4.59361 17.224,-1.6976c4.1914,3.0559 2.39454,7.52561 4.58721,13.94543c1.21202,3.54863 4.97944,6.24906 4.97944,6.24906z" data-paper-data="{&quot;origRot&quot;:0,&quot;index&quot;:null}" fill="url(#color-5)" stroke="#000000" stroke-width="2"/><path d="M267.74451,173.5723c-1.59771,-7.24291 -0.7855,-13.57931 1.81411,-14.15277c2.59961,-0.57343 6.0022,4.83325 7.5999,12.07616c1.59771,7.24291 0.7855,13.57931 -1.81411,14.15275c-2.59961,0.57343 -6.00222,-4.83324 -7.5999,-12.07615z" fill="#ffffff" stroke="#000000" stroke-width="2"/><path d="M245.53803,172.0172c-0.0717,-0.64471 0.39283,-1.22548 1.03754,-1.29717c0.64471,-0.0717 1.22548,0.39283 1.29717,1.03754c0.0717,0.64471 -0.39283,1.22548 -1.03754,1.29717c-0.64471,0.0717 -1.22548,-0.39283 -1.29717,-1.03754z" fill="#000000" stroke="none" stroke-width="0.5"/><path d="M239.44158,169.40426l0.7614,-2.9032l1.50111,-0.97425l5.6606,0.87474l2.46204,-0.80429l-0.37033,1.13138l2.3951,0.39177l-0.565,4.65628l-6.6968,-0.33278z" fill="#5a390a" stroke="#000000" stroke-width="1"/></g></g></svg>