<svg version="1.1" xmlns="http://www.w3.org/2000/svg" xmlns:xlink="http://www.w3.org/1999/xlink" width="61.1625" height="43.90536" viewBox="0,0,61.1625,43.90536"><g transform="translate(-219.0188,-177.95283)"><g data-paper-data="{&quot;isPaintingLayer&quot;:true}" fill-rule="nonzero" stroke-linecap="butt" stroke-linejoin="miter" stroke-miterlimit="10" stroke-dasharray="" stroke-dashoffset="0" style="mix-blend-mode: normal"><path d="M223.40144,194.18856l-3.08524,-7.81289l18.04405,-7.12545l3.08524,7.81289z" data-paper-data="{&quot;origPos&quot;:null,&quot;origRot&quot;:0}" fill="#c07a00" stroke="#000000" stroke-width="2"/><path d="M229.18794,198.98996l4.10135,-19.57495l18.98771,3.97831l-4.10135,19.57495z" data-paper-data="{&quot;origPos&quot;:null,&quot;origRot&quot;:0}" fill="#c07a00" stroke="#000000" stroke-width="2"/><path d="M222.05748,213.30552l8.37139,-15.25385l7.01327,3.84892l-8.37139,15.25385z" data-paper-data="{&quot;origPos&quot;:null,&quot;origRot&quot;:0}" fill="#4c517f" stroke="#000000" stroke-width="2"/><path d="M235.19327,217.10915l4.68281,-16.96559l7.71163,2.12855l-4.68281,16.96559z" data-paper-data="{&quot;origPos&quot;:null,&quot;origRot&quot;:0}" fill="#4c517f" stroke="#000000" stroke-width="2"/><path d="M223.8142,220.85818v-8.4h19.4v8.4z" fill="#c07a00" stroke="#000000" stroke-width="2"/><path d="M268.79463,220.02504c-6.48022,0.67172 -12.33647,-4.60085 -13.08029,-11.77662c-0.74382,-7.17577 3.90646,-13.53742 10.38667,-14.20914c6.48022,-0.67172 12.33647,4.60085 13.08029,11.77662c0.74382,7.17577 -3.90646,13.53741 -10.38667,14.20913z" fill="#b2b2b2" stroke="#000000" stroke-width="2"/><path d="M271.06648,206.09157c-1.64802,0.17083 -3.09653,-0.77618 -3.23533,-2.11519c-0.1388,-1.33902 1.08468,-2.56299 2.73269,-2.73383c1.64802,-0.17083 3.09653,0.77618 3.23533,2.11519c0.1388,1.33902 -1.08468,2.56299 -2.73269,2.73383z" fill="#ff0000" stroke="none" stroke-width="0"/><path d="M270.30078,200.03825c-1.47636,0.15303 -2.77127,-0.66923 -2.89227,-1.83658c-0.121,-1.16736 0.97772,-2.23774 2.45408,-2.39077c1.47636,-0.15303 2.77127,0.66923 2.89227,1.83658c0.121,1.16736 -0.97772,2.23774 -2.45408,2.39077z" fill="#ff0000" stroke="none" stroke-width="0"/></g></g></svg>