<svg version="1.1" xmlns="http://www.w3.org/2000/svg" xmlns:xlink="http://www.w3.org/1999/xlink" width="36.625" height="83.49741" viewBox="0,0,36.625,83.49741"><defs><linearGradient x1="227.82789" y1="151.00649" x2="251.64185" y2="151.00649" gradientUnits="userSpaceOnUse" id="color-1"><stop offset="0" stop-color="#e6c2c2"/><stop offset="1" stop-color="#e5e5e5"/></linearGradient></defs><g transform="translate(-217.4,-135.66509)"><g data-paper-data="{&quot;isPaintingLayer&quot;:true}" fill-rule="nonzero" stroke-linecap="butt" stroke-linejoin="miter" stroke-miterlimit="10" stroke-dasharray="" stroke-dashoffset="0" style="mix-blend-mode: normal"><path d="M218.4,190.3625v-8.4h19.4v8.4z" data-paper-data="{&quot;origPos&quot;:null}" fill="#c07a00" stroke="#000000" stroke-width="2"/><path d="M230.4,199.9625v-20h19.4v20z" data-paper-data="{&quot;origPos&quot;:null}" fill="#c07a00" stroke="#000000" stroke-width="2"/><path d="M253.025,172.02291c0,6.51494 -5.84828,11.79635 -13.0625,11.79635c-7.21422,0 -13.0625,-5.28141 -13.0625,-11.79635c0,-6.51494 5.84828,-11.79635 13.0625,-11.79635c7.21422,0 13.0625,5.28141 13.0625,11.79635z" data-paper-data="{&quot;origPos&quot;:null}" fill="#b2b2b2" stroke="#000000" stroke-width="2"/><path d="M231,218.1625v-17.4h8v17.4z" data-paper-data="{&quot;origPos&quot;:null}" fill="#4c517f" stroke="#000000" stroke-width="2"/><path d="M241,218.1625v-17.6h8v17.6z" data-paper-data="{&quot;origPos&quot;:null}" fill="#4c517f" stroke="#000000" stroke-width="2"/><path d="M223.2,190.7625v-8.4h19.4v8.4z" data-paper-data="{&quot;origPos&quot;:null}" fill="#c07a00" stroke="#000000" stroke-width="2"/><path d="M227.82789,164.92026l1.89821,-27.30986c0,0 5.78662,-0.91314 9.49036,-0.94535c4.04102,-0.03514 10.35462,0.77278 10.35462,0.77278l2.07078,27.48242c0,0 -7.57579,1.03539 -12.42468,1.03539c-4.44482,0 -11.38929,-1.03539 -11.38929,-1.03539z" data-paper-data="{&quot;origPos&quot;:null}" fill="url(#color-1)" stroke="#000000" stroke-width="2"/><path d="M239.08864,169.10499c0,2.08676 -1.09131,3.77842 -2.4375,3.77842c-1.34619,0 -2.4375,-1.69166 -2.4375,-3.77842c0,-2.08676 1.09131,-3.77842 2.4375,-3.77842c1.34619,0 2.4375,1.69166 2.4375,3.77842z" data-paper-data="{&quot;origPos&quot;:null}" fill="#000000" stroke="none" stroke-width="0"/><path d="M233.3,169.27817c0,1.86939 -0.95139,3.38484 -2.125,3.38484c-1.17361,0 -2.125,-1.51544 -2.125,-3.38484c0,-1.86939 0.95139,-3.38483 2.125,-3.38483c1.17361,0 2.125,1.51543 2.125,3.38483z" data-paper-data="{&quot;origPos&quot;:null}" fill="#000000" stroke="none" stroke-width="0"/></g></g></svg>