<svg version="1.1" xmlns="http://www.w3.org/2000/svg" xmlns:xlink="http://www.w3.org/1999/xlink" width="80.87543" height="60.84843" viewBox="0,0,80.87543,60.84843"><defs><radialGradient cx="247.51747" cy="195.98307" r="9.52076" gradientUnits="userSpaceOnUse" id="color-1"><stop offset="0" stop-color="#a26e2a"/><stop offset="1" stop-color="#472b00"/></radialGradient><linearGradient x1="236.89022" y1="193.81834" x2="263.64306" y2="193.81834" gradientUnits="userSpaceOnUse" id="color-2"><stop offset="0" stop-color="#24b400"/><stop offset="1" stop-color="#217700"/></linearGradient><radialGradient cx="236.02922" cy="160.4078" r="34.81049" gradientUnits="userSpaceOnUse" id="color-3"><stop offset="0" stop-color="#ffb554"/><stop offset="1" stop-color="#885200"/></radialGradient><radialGradient cx="227.16738" cy="197.22826" r="10.56812" gradientUnits="userSpaceOnUse" id="color-4"><stop offset="0" stop-color="#c08231"/><stop offset="1" stop-color="#5e3800"/></radialGradient><linearGradient x1="215.37104" y1="194.82539" x2="245.06693" y2="194.82539" gradientUnits="userSpaceOnUse" id="color-5"><stop offset="0" stop-color="#2fe500"/><stop offset="1" stop-color="#16bb00"/></linearGradient></defs><g transform="translate(-200.97968,-147.94795)"><g data-paper-data="{&quot;isPaintingLayer&quot;:true}" fill-rule="nonzero" stroke-linecap="butt" stroke-linejoin="miter" stroke-miterlimit="10" stroke-dasharray="" stroke-dashoffset="0" style="mix-blend-mode: normal"><path d="M234.56701,161.80318c0,0 -5.5068,-9.52281 -12.61136,-9.98909c-4.36609,-0.28655 -5.99522,3.42555 -10.9683,3.90477c-4.86407,0.46873 -8.75741,-4.5239 -8.75741,-4.5239l3.33293,-1.07873c0,0 2.89198,2.30081 6.02464,2.79414c3.43911,0.54159 7.27032,-5.19807 11.71949,-4.06356c6.13347,1.56399 11.92542,9.49878 11.92542,9.49878z" fill="#c29557" stroke="#000000" stroke-width="1.5"/><path d="M237.9967,195.98307c0,-5.25817 4.2626,-9.52076 9.52076,-9.52076c5.25817,0 9.52076,4.26259 9.52076,9.52076c0,5.25817 -4.26259,9.52076 -9.52076,9.52076c-5.25817,0 -9.52076,-4.26259 -9.52076,-9.52076z" fill="url(#color-1)" stroke="#000000" stroke-width="2"/><path d="M263.64306,203.67285c0,0 -0.89912,1.57559 -9.4934,-6.85792c-1.67395,-1.64263 -3.60597,-10.06991 -5.61281,-9.93444c-12.13454,0.81916 -12.26272,13.33016 -11.26991,11.21281c0.51029,-1.0883 -1.58815,-7.26194 2.24057,-11.0842c3.62025,-3.61415 11.93857,-4.13836 15.517,-1.52937c3.77601,2.75306 2.15722,6.77979 4.13259,12.56337c1.09191,3.19695 4.48595,5.62975 4.48595,5.62975z" data-paper-data="{&quot;origRot&quot;:0,&quot;index&quot;:null}" fill="url(#color-2)" stroke="#000000" stroke-width="2"/><path d="M277.17573,197.875c0,0 -19.80066,7.87777 -38.57433,2.84921c-9.17872,-2.45854 -16.9553,-3.62669 -20.53956,-8.71578c-3.74679,-5.31985 -4.54763,-11.82032 -2.63395,-18.96484c1.00983,-3.77006 4.272,-11.64778 8.72781,-15.78326c4.11797,-3.8219 9.4916,-4.05837 9.4916,-4.05837l-3.31934,2.99307l13.66912,-2.47753l1.01483,2.52548c0,0 4.53992,1.483 5.42638,1.72044c9.91677,2.7539 19.30982,10.41418 19.30982,10.41418l8.84595,2.1213c0,0 2.69338,6.20728 2.2009,13.13582c-0.64724,9.10555 -3.61923,14.2403 -3.61923,14.2403z" fill="url(#color-3)" stroke="#000000" stroke-width="2"/><path d="M245.23202,172.7868c1.4266,-2.70809 11.23345,2.45812 9.80685,5.1662c-1.4266,2.70809 -4.77844,3.74693 -7.48652,2.32033c-2.70809,-1.4266 -3.74693,-4.77845 -2.32034,-7.48652z" fill="#ffffff" stroke="#000000" stroke-width="1"/><path d="M216.59926,197.22826c0,-5.83662 4.73151,-10.56812 10.56813,-10.56812c5.83662,0 10.56812,4.7315 10.56812,10.56812c0,5.83662 -4.7315,10.56812 -10.56812,10.56812c-5.83662,0 -10.56813,-4.73151 -10.56813,-10.56812z" fill="url(#color-4)" stroke="#000000" stroke-width="2"/><path d="M224.39617,192.01109c0,-0.71781 0.58189,-1.29969 1.29969,-1.29969c0.71781,0 1.29969,0.58189 1.29969,1.29969c0,0.71781 -0.58189,1.29969 -1.29969,1.29969c-0.71781,0 -1.29969,-0.58189 -1.29969,-1.29969z" fill="#000000" stroke="none" stroke-width="0.5"/><path d="M229.75472,193.88392c0,-0.86136 0.69827,-1.55963 1.55963,-1.55963c0.86136,0 1.55963,0.69827 1.55963,1.55963c0,0.86136 -0.69827,1.55963 -1.55963,1.55963c-0.86136,0 -1.55963,-0.69827 -1.55963,-1.55963z" fill="#000000" stroke="none" stroke-width="0.5"/><path d="M224.94648,196.55938c0,-1.00492 0.81465,-1.81957 1.81957,-1.81957c1.00492,0 1.81957,0.81465 1.81957,1.81957c0,1.00492 -0.81465,1.81957 -1.81957,1.81957c-1.00492,0 -1.81957,-0.81465 -1.81957,-1.81957z" fill="#000000" stroke="none" stroke-width="0.5"/><path d="M245.06693,205.76398c0,0 -0.99802,1.74892 -10.53774,-7.61233c-1.8581,-1.82334 -4.00264,-11.17769 -6.23027,-11.02731c-13.46944,0.90928 -13.61171,14.79658 -12.50969,12.4463c0.56643,-1.20802 -1.76287,-8.06081 2.48704,-12.30356c4.01852,-4.01173 13.25191,-4.59361 17.224,-1.6976c4.1914,3.0559 2.39454,7.52561 4.58721,13.94543c1.21202,3.54863 4.97944,6.24906 4.97944,6.24906z" data-paper-data="{&quot;origRot&quot;:0,&quot;index&quot;:null}" fill="url(#color-5)" stroke="#000000" stroke-width="2"/><path d="M270.99843,184.39027c0.61167,-7.39177 3.25825,-13.20601 5.91129,-12.98647c2.65304,0.21955 4.30787,6.38975 3.6962,13.78151c-0.61167,7.39177 -3.25825,13.20601 -5.91128,12.98647c-2.65304,-0.21955 -4.30789,-6.38975 -3.69621,-13.7815z" fill="#ffffff" stroke="#000000" stroke-width="2"/><path d="M244.23888,173.74001l1.58451,-2.54904l1.72182,-0.48769l5.15009,2.50682l2.58975,-0.04163l-0.68782,0.97163l2.17271,1.08137l-1.9144,4.28197l-6.3001,-2.2949z" fill="#5a390a" stroke="#000000" stroke-width="1"/></g></g></svg>