<svg version="1.1" xmlns="http://www.w3.org/2000/svg" xmlns:xlink="http://www.w3.org/1999/xlink" width="19.25" height="19.25"><defs><linearGradient x1="240" y1="171.125" x2="240" y2="188.875" gradientUnits="userSpaceOnUse" id="color-1"><stop offset="0" stop-color="#af7400"/><stop offset="1" stop-color="#ff9500"/></linearGradient></defs><g transform="translate(-230.375,-170.375)"><g data-paper-data="{&quot;isPaintingLayer&quot;:true}" fill="none" fill-rule="nonzero" stroke="#000000" stroke-width="none" stroke-linecap="butt" stroke-linejoin="miter" stroke-miterlimit="10" stroke-dasharray="" stroke-dashoffset="0" font-family="none" font-weight="none" font-size="none" text-anchor="none" style="mix-blend-mode: normal"><path d="M231.125,187.625c0,-1.46348 0,-9.52714 0,-15.625c0,-0.34148 0.60974,-0.875 1,-0.875c6.19542,0 14.85056,0 15.875,0c0.34148,0 0.875,0.45731 0.875,0.75c0,6.24421 0,14.82922 0,16c0,0.39026 -0.53352,1 -0.875,1c0,0 -14.97556,0 -16,0c-0.34148,0 -0.875,-0.76217 -0.875,-1.25z" data-paper-data="{&quot;origPos&quot;:null}" fill="url(#color-1)" stroke-width="1.5"/><path d="M238.25,184.75001c0,0 3.78906,-0.51457 4.69413,-2.20404c0.96476,-1.80088 -4.90275,-4.53422 -4.90275,-4.53422l-0.79138,2.98826l-4.065,-5.70073l7.315,-2.29927l-0.98149,2.73953c0,0 8.56198,4.73585 6.61759,7.96737c-1.41904,2.3584 -4.5111,3.4181 -4.5111,3.4181z" data-paper-data="{&quot;origPos&quot;:null}" fill="#72e921" stroke-width="1"/></g></g></svg>