<svg version="1.1" xmlns="http://www.w3.org/2000/svg" xmlns:xlink="http://www.w3.org/1999/xlink" width="43.33149" height="28.81043" viewBox="0,0,43.33149,28.81043"><defs><linearGradient x1="239.90268" y1="166.96979" x2="239.90268" y2="191.40889" gradientUnits="userSpaceOnUse" id="color-1"><stop offset="0" stop-color="#ffcaa1"/><stop offset="1" stop-color="#f05e59"/></linearGradient><linearGradient x1="240.30283" y1="179.02244" x2="240.30283" y2="190.6956" gradientUnits="userSpaceOnUse" id="color-2"><stop offset="0" stop-color="#a8cdf0"/><stop offset="1" stop-color="#f0f0f0"/></linearGradient></defs><g transform="translate(-218.56473,-165.71978)"><g data-paper-data="{&quot;isPaintingLayer&quot;:true}" fill-rule="nonzero" stroke="#000000" stroke-linecap="butt" stroke-linejoin="miter" stroke-miterlimit="10" stroke-dasharray="" stroke-dashoffset="0" style="mix-blend-mode: normal"><path d="M254.16966,181.60259c0,13.07506 -28.53395,13.07506 -28.53395,0c0,-8.08147 6.38755,-14.6328 14.26699,-14.6328c7.87943,0 14.26697,6.55131 14.26697,14.6328z" fill="url(#color-1)" stroke-width="2.5"/><path d="M226.87414,179.42864c2.71468,1.31356 6.99833,2.86229 12.10575,2.86229c6.42173,0 11.44807,-2.19277 14.31173,-3.8348c1.71395,-0.98279 3.48136,-0.11196 4.06342,1.05217c0.56809,1.13618 1.90842,3.59462 2.8,5.37778c0.59328,1.18656 0.07466,2.50408 -1.36488,3.13515c-3.96926,1.74005 -12.41082,5.009 -19.81031,5.009c-6.40982,0 -13.90037,-2.92195 -17.72571,-4.62701c-1.57591,-0.70243 -2.00934,-2.19529 -1.35969,-3.43979c0.74881,-1.43446 1.6693,-3.19778 2.16238,-4.14235c0.65191,-1.24884 2.81836,-2.35966 4.8173,-1.39243z" fill="url(#color-2)" stroke-width="3"/></g></g></svg>