<svg version="1.1" xmlns="http://www.w3.org/2000/svg" xmlns:xlink="http://www.w3.org/1999/xlink" width="39.125" height="39.125" viewBox="0,0,39.125,39.125"><defs><radialGradient cx="240" cy="180" r="19.5625" gradientUnits="userSpaceOnUse" id="color-1"><stop offset="0" stop-color="#c9c388"/><stop offset="1" stop-color="#c9c388" stop-opacity="0"/></radialGradient><linearGradient x1="230.91666" y1="180" x2="249.08334" y2="180" gradientUnits="userSpaceOnUse" id="color-2"><stop offset="0" stop-color="#fff8ad"/><stop offset="1" stop-color="#c9c388"/></linearGradient></defs><g transform="translate(-220.4375,-160.4375)"><g data-paper-data="{&quot;isPaintingLayer&quot;:true}" fill-rule="nonzero" stroke-linecap="butt" stroke-linejoin="miter" stroke-miterlimit="10" stroke-dasharray="" stroke-dashoffset="0" style="mix-blend-mode: normal"><path d="M220.4375,180c0,-10.80407 8.75843,-19.5625 19.5625,-19.5625c10.80407,0 19.5625,8.75843 19.5625,19.5625c0,10.80407 -8.75843,19.5625 -19.5625,19.5625c-10.80407,0 -19.5625,-8.75843 -19.5625,-19.5625z" fill="url(#color-1)" stroke="none" stroke-width="0"/><path d="M230.91666,180c0,-5.01658 4.06674,-9.08334 9.08334,-9.08334c5.01658,0 9.08334,4.06674 9.08334,9.08334c0,5.01658 -4.06674,9.08334 -9.08334,9.08334c-5.01658,0 -9.08334,-4.06674 -9.08334,-9.08334z" fill="url(#color-2)" stroke="#000000" stroke-width="2"/></g></g></svg>