<svg version="1.1" xmlns="http://www.w3.org/2000/svg" xmlns:xlink="http://www.w3.org/1999/xlink" width="521.6213" height="220.85147" viewBox="0,0,521.6213,220.85147"><defs><linearGradient x1="373.28091" y1="187.80888" x2="373.28091" y2="218.47923" gradientUnits="userSpaceOnUse" id="color-1"><stop offset="0" stop-color="#88641d"/><stop offset="1" stop-color="#c08517"/></linearGradient><linearGradient x1="373.05506" y1="182.12295" x2="373.05506" y2="197.85252" gradientUnits="userSpaceOnUse" id="color-2"><stop offset="0" stop-color="#eabe34"/><stop offset="1" stop-color="#f5ec36"/></linearGradient><linearGradient x1="166.94758" y1="179.14221" x2="166.94758" y2="209.81255" gradientUnits="userSpaceOnUse" id="color-3"><stop offset="0" stop-color="#88641d"/><stop offset="1" stop-color="#c08517"/></linearGradient><linearGradient x1="53.80471" y1="155.17669" x2="53.80471" y2="249.20994" gradientUnits="userSpaceOnUse" id="color-4"><stop offset="0" stop-color="#88641d"/><stop offset="1" stop-color="#c08517"/></linearGradient><linearGradient x1="52.5" y1="151.46069" x2="52.5" y2="167.15998" gradientUnits="userSpaceOnUse" id="color-5"><stop offset="0" stop-color="#eabe34"/><stop offset="1" stop-color="#f5ec36"/></linearGradient><linearGradient x1="102.99589" y1="211.14221" x2="102.99589" y2="241.81255" gradientUnits="userSpaceOnUse" id="color-6"><stop offset="0" stop-color="#88641d"/><stop offset="1" stop-color="#c08517"/></linearGradient><linearGradient x1="103.22174" y1="205.45628" x2="103.22174" y2="221.18585" gradientUnits="userSpaceOnUse" id="color-7"><stop offset="0" stop-color="#eabe34"/><stop offset="1" stop-color="#f5ec36"/></linearGradient><linearGradient x1="166.72173" y1="173.45627" x2="166.72173" y2="189.18584" gradientUnits="userSpaceOnUse" id="color-8"><stop offset="0" stop-color="#eabe34"/><stop offset="1" stop-color="#f5ec36"/></linearGradient><linearGradient x1="196.44758" y1="258.14221" x2="196.44758" y2="288.81255" gradientUnits="userSpaceOnUse" id="color-9"><stop offset="0" stop-color="#88641d"/><stop offset="1" stop-color="#c08517"/></linearGradient><linearGradient x1="196.22173" y1="252.45627" x2="196.22173" y2="268.18584" gradientUnits="userSpaceOnUse" id="color-10"><stop offset="0" stop-color="#eabe34"/><stop offset="1" stop-color="#f5ec36"/></linearGradient><linearGradient x1="280.0528" y1="210.47554" x2="280.0528" y2="241.14588" gradientUnits="userSpaceOnUse" id="color-11"><stop offset="0" stop-color="#88641d"/><stop offset="1" stop-color="#c08517"/></linearGradient><linearGradient x1="280.27865" y1="204.7896" x2="280.27865" y2="220.51917" gradientUnits="userSpaceOnUse" id="color-12"><stop offset="0" stop-color="#eabe34"/><stop offset="1" stop-color="#f5ec36"/></linearGradient><linearGradient x1="324.78091" y1="284.80888" x2="324.78091" y2="315.47922" gradientUnits="userSpaceOnUse" id="color-13"><stop offset="0" stop-color="#88641d"/><stop offset="1" stop-color="#c08517"/></linearGradient><linearGradient x1="324.55506" y1="279.12294" x2="324.55506" y2="294.85251" gradientUnits="userSpaceOnUse" id="color-14"><stop offset="0" stop-color="#eabe34"/><stop offset="1" stop-color="#f5ec36"/></linearGradient><radialGradient cx="492.61718" cy="160.87355" r="45.5" gradientUnits="userSpaceOnUse" id="color-15"><stop offset="0" stop-color="#6582ce"/><stop offset="1" stop-color="#6582ce" stop-opacity="0"/></radialGradient><radialGradient cx="492.37528" cy="161.01717" r="31.28871" gradientUnits="userSpaceOnUse" id="color-16"><stop offset="0" stop-color="#4764ad"/><stop offset="1" stop-color="#4764ad" stop-opacity="0"/></radialGradient><radialGradient cx="492.07444" cy="161.19574" r="13.61417" gradientUnits="userSpaceOnUse" id="color-17"><stop offset="0" stop-color="#335ba5"/><stop offset="1" stop-color="#335ba5" stop-opacity="0"/></radialGradient><radialGradient cx="491.93622" cy="161.27785" r="5.49344" gradientUnits="userSpaceOnUse" id="color-18"><stop offset="0" stop-color="#ffffff"/><stop offset="1" stop-color="#375e9c"/></radialGradient><linearGradient x1="474.90313" y1="205.32445" x2="474.90313" y2="296.47924" gradientUnits="userSpaceOnUse" id="color-19"><stop offset="0" stop-color="#88641d"/><stop offset="1" stop-color="#c08517"/></linearGradient><linearGradient x1="474.73187" y1="187.42545" x2="474.73187" y2="234.17502" gradientUnits="userSpaceOnUse" id="color-20"><stop offset="0" stop-color="#eabe34"/><stop offset="1" stop-color="#f5ec36"/></linearGradient><linearGradient x1="458.43949" y1="157.59523" x2="447.98794" y2="161.42349" gradientUnits="userSpaceOnUse" id="color-21"><stop offset="0" stop-color="#f39a00"/><stop offset="1" stop-color="#fdd289"/></linearGradient><linearGradient x1="496.15446" y1="192.35744" x2="506.90083" y2="192.35744" gradientUnits="userSpaceOnUse" id="color-22"><stop offset="0" stop-color="#e6c2c2"/><stop offset="1" stop-color="#e5e5e5"/></linearGradient></defs><g transform="translate(-15.72141,-95.81204)"><g data-paper-data="{&quot;isPaintingLayer&quot;:true}" fill-rule="nonzero" stroke-linejoin="miter" stroke-miterlimit="10" stroke-dasharray="" stroke-dashoffset="0" style="mix-blend-mode: normal"><path d="M388.58727,197.15054l-3.71094,4.86136l-3.77162,5.46813l-2.79933,6.20118l-2.08859,1.94773l-1.77594,2.85029l-4.05674,-3.923l-1.86846,-4.37056l-6.12341,-5.87271l-3.53313,-6.32119l-2.41756,-4.59674l25.97577,1.74705l7.70296,-7.33319z" data-paper-data="{&quot;index&quot;:null}" fill="url(#color-1)" stroke="#000000" stroke-width="1.5" stroke-linecap="butt"/><path d="M378.61512,182.12334c2.30754,0.01508 11.55674,3.44854 11.55674,3.44854c2.50741,2.4032 -5.1531,10.51799 -5.1531,10.51799c-1.07997,1.15041 -11.32624,1.79462 -16.58726,1.76234c-6.26064,-0.03841 -12.18658,-2.52702 -12.27382,-6.01318c3.41275,-2.98616 3.73278,-7.41791 3.95851,-7.61542c0.22573,-0.19751 11.5763,-2.1455 18.49893,-2.10026z" data-paper-data="{&quot;index&quot;:null}" fill="url(#color-2)" stroke="#000000" stroke-width="1.5" stroke-linecap="butt"/><text transform="translate(370.16667,170.45813) scale(0.30591,0.30591)" font-size="40" xml:space="preserve" fill="#ffffff" fill-rule="nonzero" stroke="none" stroke-width="1" stroke-linecap="butt" stroke-linejoin="miter" stroke-miterlimit="10" stroke-dasharray="" stroke-dashoffset="0" font-family="Sans Serif" font-weight="normal" text-anchor="start" style="mix-blend-mode: normal"><tspan x="0" dy="0">6</tspan></text><path d="M182.25394,188.48386l-3.71094,4.86136l-3.77162,5.46813l-2.79933,6.20118l-2.08859,1.94773l-1.77594,2.85029l-4.05674,-3.923l-1.86846,-4.37056l-6.12341,-5.87271l-3.53313,-6.32119l-2.41756,-4.59674l25.97577,1.74705l7.70296,-7.33319z" data-paper-data="{&quot;origPos&quot;:null,&quot;index&quot;:null}" fill="url(#color-3)" stroke="#000000" stroke-width="1.5" stroke-linecap="butt"/><path d="M120.5,217l39,-27" data-paper-data="{&quot;origPos&quot;:null}" fill="none" stroke="#c7e4ff" stroke-width="2" stroke-linecap="round"/><path d="M18.2512,155.17669l17.41157,12.14945l52.39069,-1.35137l-7.52219,16.06557l-2.61978,7.69703l-3.20791,4.29664l-8.04309,10.7237l-4.40568,11.49429l-5.29198,8.57733l-3.79445,9.98315l-3.43985,-11.78578l-4.09459,-7.54465l-3.92101,-4.89601l-2.76007,-7.37078l-1.86651,-5.67253l-6.54962,-12.52467l-4.0168,-9.75675z" data-paper-data="{&quot;origPos&quot;:null}" fill="url(#color-4)" stroke="#000000" stroke-width="2" stroke-linecap="butt"/><path d="M29.1967,164.72356c-4.60253,-4.29871 -9.35451,-8.737 -11.79341,-11.01491c-0.81297,-0.7593 -0.55149,-1.95439 0.42884,-1.96001c19.60738,-0.11236 47.72065,-0.27347 50.24147,-0.28792c0.84027,-0.00481 2.80374,0.48683 3.22018,0.80632c1.24931,0.95848 9.83695,7.54695 16.1331,12.37739c1.13033,0.8672 0.64356,2.2342 -0.33334,2.23946c0,0 -46.6966,0.25119 -51.31815,0.27605c-1.54052,0.00829 -5.55179,-1.47727 -6.5787,-2.43638z" data-paper-data="{&quot;origPos&quot;:null}" fill="url(#color-5)" stroke="#000000" stroke-width="2" stroke-linecap="butt"/><path d="M17.63121,152.47717l11.02304,-41.84254l8.09856,14.84735l7.75748,-26.79343l16.09284,35.42982l8.54391,-6.83672l13.49759,27.44511c0,0 -24.19379,3.71184 -31.83183,3.71184c0,0 -9.72128,0.02358 -18.97839,-1.74163c-3.0857,-0.5884 -14.20319,-4.21981 -14.20319,-4.21981z" data-paper-data="{&quot;origPos&quot;:null}" fill="#997c46" stroke="#000000" stroke-width="2" stroke-linecap="butt"/><path d="M40.80208,156.52645c-9.73364,-7.32433 -5.42575,-25.20664 -4.25989,-28.86204c0.38862,-1.21847 -3.42749,-2.74931 -3.83866,-5.33186c-0.41118,-2.58255 1.77034,-7.65903 1.77034,-7.65903l-4.55887,-1.97463l0.57975,-5.83939l13.26252,4.77804l1.98209,6.45875l10.58735,20.81905c0,0 18.21638,-4.18811 26.31792,2.31384c8.10154,6.50195 -0.44992,18.44671 -0.44992,18.44671c0,0 -28.32562,6.68315 -41.39262,-3.14944z" data-paper-data="{&quot;origPos&quot;:null}" fill="#f2c435" stroke="#000000" stroke-width="2" stroke-linecap="butt"/><path d="M62.50001,167.45317l27.5,39" data-paper-data="{&quot;origPos&quot;:null}" fill="none" stroke="#c7e4ff" stroke-width="2" stroke-linecap="round"/><path d="M27.53199,156.70556l0.05391,-16.54313l4.75478,3.36346l19.86198,-0.61053l-0.62722,18.06389c0,0 -18.4535,0.55553 -19.43867,0.58519c-0.32839,0.00988 -4.60478,-4.85888 -4.60478,-4.85888z" data-paper-data="{&quot;origPos&quot;:null}" fill="#fffe86" stroke="#000000" stroke-width="2" stroke-linecap="butt"/><path d="M28.57737,145.01993l-3.9724,-3.66316l4.80869,-6.71579l20.07105,-0.61053l5.43591,10.37895z" data-paper-data="{&quot;origPos&quot;:null}" fill="#ce1c1c" stroke="#000000" stroke-width="2" stroke-linecap="butt"/><path d="M40.28548,161.19889v-9.1579l4.39054,-0.2035v9.36141z" data-paper-data="{&quot;origPos&quot;:null}" fill="#cf951d" stroke="#000000" stroke-width="1.5" stroke-linecap="butt"/><path d="M34.08296,151.93924c0,-1.51733 0.84245,-2.74737 1.88166,-2.74737c1.03921,0 1.88166,1.23004 1.88166,2.74737c0,1.51733 -0.84245,2.74737 -1.88166,2.74737c-1.03921,0 -1.88166,-1.23004 -1.88166,-2.74737z" data-paper-data="{&quot;origPos&quot;:null}" fill="#e2feff" stroke="#000000" stroke-width="1" stroke-linecap="butt"/><path d="M46.4183,151.63397c0,-1.51733 0.84245,-2.74737 1.88166,-2.74737c1.03922,0 1.88166,1.23004 1.88166,2.74737c0,1.51733 -0.84245,2.74737 -1.88166,2.74737c-1.03922,0 -1.88166,-1.23004 -1.88166,-2.74737z" data-paper-data="{&quot;origPos&quot;:null}" fill="#e2feff" stroke="#000000" stroke-width="1" stroke-linecap="butt"/><path d="M28.43798,150.31116v-3.45965l1.88166,1.42456l-0.06969,3.5614z" data-paper-data="{&quot;origPos&quot;:null}" fill="#e2feff" stroke="#000000" stroke-width="0.75" stroke-linecap="butt"/><path d="M29.44161,112.65927l0.44992,-5.96144l14.50991,4.83664l1.46224,7.08624z" data-paper-data="{&quot;origPos&quot;:null}" fill="#9e88ce" stroke="#000000" stroke-width="2" stroke-linecap="butt"/><path d="M36.24116,119.46209c0.315,-1.01365 1.04627,-1.65782 1.63329,-1.43876c0.58704,0.21905 0.80756,1.21837 0.49255,2.23203c-0.31501,1.01366 -1.04628,1.65782 -1.6333,1.43877c-0.58704,-0.21905 -0.80756,-1.21837 -0.49255,-2.23203z" data-paper-data="{&quot;origPos&quot;:null,&quot;origRot&quot;:0,&quot;index&quot;:null}" fill="#000000" stroke="none" stroke-width="0" stroke-linecap="butt"/><path d="M40.75431,122.79558c0,0 -0.21866,1.25773 -0.98256,1.5828c-0.61154,0.26023 -2.54181,-0.08306 -2.54181,-0.08306" data-paper-data="{&quot;origPos&quot;:null}" fill="none" stroke="#000000" stroke-width="1" stroke-linecap="round"/><path d="M34.16743,119.55556c0.20732,-0.66715 0.68862,-1.09113 1.07498,-0.94695c0.38637,0.14417 0.53151,0.8019 0.32418,1.46905c-0.20733,0.66716 -0.68862,1.09113 -1.07499,0.94696c-0.38637,-0.14417 -0.53151,-0.8019 -0.32418,-1.46905z" data-paper-data="{&quot;origPos&quot;:null,&quot;origRot&quot;:0,&quot;index&quot;:null}" fill="#000000" stroke="none" stroke-width="0" stroke-linecap="butt"/><path d="M86.15652,211.14221l7.70296,7.33319l25.97577,-1.74705l-1.16756,4.34674l-1.42002,3.02464l-3.36311,3.54655l-3.02985,3.61587l-2.09356,3.25684l-2.86846,3.37056l-2.05674,3.923l-3.77594,-2.85029l-2.08859,-1.94773l-1.70978,-4.78027l-3.33955,-4.42091l-1.52162,-3.46813l-2.46094,-5.36136z" data-paper-data="{&quot;origPos&quot;:null}" fill="url(#color-6)" stroke="#000000" stroke-width="1.5" stroke-linecap="butt"/><path d="M97.66168,205.45667c6.92263,-0.04524 15.7732,3.90275 15.99893,4.10026c0.22573,0.19751 3.04576,2.37926 6.45851,5.36542c3.41276,2.98616 -6.01318,6.22477 -12.27382,6.26318c-5.26102,0.03228 -15.50729,-2.36193 -16.58726,-3.51234c0,0 -7.66051,-6.36479 -5.1531,-8.76799c0,0 9.2492,-3.43346 11.55674,-3.44854z" data-paper-data="{&quot;origPos&quot;:null}" fill="url(#color-7)" stroke="#000000" stroke-width="1.5" stroke-linecap="butt"/><path d="M172.28179,173.45666c2.30754,0.01508 11.55674,3.44854 11.55674,3.44854c2.50741,2.4032 -5.1531,10.51799 -5.1531,10.51799c-1.07997,1.15041 -11.32624,1.79462 -16.58726,1.76234c-6.26064,-0.03841 -12.18658,-2.52702 -12.27382,-6.01318c3.41275,-2.98616 3.73278,-7.41791 3.95851,-7.61542c0.22573,-0.19751 11.5763,-2.1455 18.49893,-2.10026z" data-paper-data="{&quot;origPos&quot;:null,&quot;index&quot;:null}" fill="url(#color-8)" stroke="#000000" stroke-width="1.5" stroke-linecap="butt"/><text transform="translate(100.50002,196.95811) scale(0.30591,0.30591)" font-size="40" xml:space="preserve" data-paper-data="{&quot;origPos&quot;:null}" fill="#ffffff" fill-rule="nonzero" stroke="none" stroke-width="1" stroke-linecap="butt" stroke-linejoin="miter" stroke-miterlimit="10" stroke-dasharray="" stroke-dashoffset="0" font-family="Sans Serif" font-weight="normal" text-anchor="start" style="mix-blend-mode: normal"><tspan x="0" dy="0">1</tspan></text><path d="M211.75394,267.48386l-3.71094,4.86136l-3.77162,5.46813l-2.79933,6.20118l-2.08859,1.94773l-1.77594,2.85029l-4.05674,-3.923l-1.86846,-4.37056l-6.12341,-5.87271l-3.53313,-6.32119l-2.41756,-4.59674l25.97577,1.74705l7.70296,-7.33319z" data-paper-data="{&quot;origPos&quot;:null,&quot;index&quot;:null}" fill="url(#color-9)" stroke="#000000" stroke-width="1.5" stroke-linecap="butt"/><path d="M201.78179,252.45666c2.30754,0.01508 11.55674,3.44854 11.55674,3.44854c2.50741,2.4032 -5.1531,10.51799 -5.1531,10.51799c-1.07997,1.15041 -11.32624,1.79462 -16.58726,1.76234c-6.26064,-0.03841 -12.18658,-2.52702 -12.27382,-6.01318c3.41275,-2.98616 3.73278,-7.41791 3.95851,-7.61542c0.22573,-0.19751 11.5763,-2.1455 18.49893,-2.10026z" data-paper-data="{&quot;origPos&quot;:null,&quot;index&quot;:null}" fill="url(#color-10)" stroke="#000000" stroke-width="1.5" stroke-linecap="butt"/><path d="M187.5,253l-18,-63.5" data-paper-data="{&quot;origPos&quot;:null}" fill="none" stroke="#c7e4ff" stroke-width="2" stroke-linecap="round"/><text transform="translate(163.83335,161.62478) scale(0.30591,0.30591)" font-size="40" xml:space="preserve" data-paper-data="{&quot;origPos&quot;:null}" fill="#ffffff" fill-rule="nonzero" stroke="none" stroke-width="1" stroke-linecap="butt" stroke-linejoin="miter" stroke-miterlimit="10" stroke-dasharray="" stroke-dashoffset="0" font-family="Sans Serif" font-weight="normal" text-anchor="start" style="mix-blend-mode: normal"><tspan x="0" dy="0">2</tspan></text><path d="M263.21342,210.47554l7.70296,7.33319l25.97577,-1.74705l-2.41756,4.59674l-3.53313,6.32119l-6.12341,5.87271l-1.86846,4.37056l-4.05674,3.923l-1.77594,-2.85029l-2.08859,-1.94773l-2.79933,-6.20118l-3.77162,-5.46813l-3.71094,-4.86136z" data-paper-data="{&quot;origPos&quot;:null,&quot;index&quot;:null}" fill="url(#color-11)" stroke="#000000" stroke-width="1.5" stroke-linecap="butt"/><path d="M274.71859,204.79c6.92263,-0.04524 18.2732,1.90275 18.49893,2.10026c0.22573,0.19751 0.54576,4.62926 3.95851,7.61542c-0.08724,3.48616 -6.01318,5.97477 -12.27382,6.01318c-5.26102,0.03228 -15.50729,-0.61193 -16.58726,-1.76234c0,0 -7.66051,-8.11479 -5.1531,-10.51799c0,0 9.2492,-3.43346 11.55674,-3.44854z" data-paper-data="{&quot;origPos&quot;:null,&quot;index&quot;:null}" fill="url(#color-12)" stroke="#000000" stroke-width="1.5" stroke-linecap="butt"/><path d="M268.83333,218.83333l-54.66667,37.5" data-paper-data="{&quot;origPos&quot;:null}" fill="none" stroke="#c7e4ff" stroke-width="2" stroke-linecap="round"/><text transform="translate(193.16668,241.95811) scale(0.30591,0.30591)" font-size="40" xml:space="preserve" data-paper-data="{&quot;origPos&quot;:null}" fill="#ffffff" fill-rule="nonzero" stroke="none" stroke-width="1" stroke-linecap="butt" stroke-linejoin="miter" stroke-miterlimit="10" stroke-dasharray="" stroke-dashoffset="0" font-family="Sans Serif" font-weight="normal" text-anchor="start" style="mix-blend-mode: normal"><tspan x="0" dy="0">3</tspan></text><path d="M340.08727,294.15053l-3.71094,4.86136l-3.77162,5.46813l-2.79933,6.20118l-2.08859,1.94773l-1.77594,2.85029l-4.05674,-3.923l-1.86846,-4.37056l-6.12341,-5.87271l-3.53313,-6.32119l-2.41756,-4.59674l25.97577,1.74705l7.70296,-7.33319z" data-paper-data="{&quot;origPos&quot;:null,&quot;index&quot;:null}" fill="url(#color-13)" stroke="#000000" stroke-width="1.5" stroke-linecap="butt"/><path d="M330.11512,279.12333c2.30754,0.01508 11.55674,3.44854 11.55674,3.44854c2.50741,2.4032 -5.1531,10.51799 -5.1531,10.51799c-1.07997,1.15041 -11.32624,1.79462 -16.58726,1.76234c-6.26064,-0.03841 -12.18658,-2.52702 -12.27382,-6.01318c3.41275,-2.98616 3.73278,-7.41791 3.95851,-7.61542c0.22573,-0.19751 11.5763,-2.1455 18.49893,-2.10026z" data-paper-data="{&quot;origPos&quot;:null,&quot;index&quot;:null}" fill="url(#color-14)" stroke="#000000" stroke-width="1.5" stroke-linecap="butt"/><text transform="translate(277.16667,192.95811) scale(0.30591,0.30591)" font-size="40" xml:space="preserve" data-paper-data="{&quot;origPos&quot;:null}" fill="#ffffff" fill-rule="nonzero" stroke="none" stroke-width="1" stroke-linecap="butt" stroke-linejoin="miter" stroke-miterlimit="10" stroke-dasharray="" stroke-dashoffset="0" font-family="Sans Serif" font-weight="normal" text-anchor="start" style="mix-blend-mode: normal"><tspan x="0" dy="0">4</tspan></text><path d="M311.16666,279.83333l-31.33333,-58.5" data-paper-data="{&quot;origPos&quot;:null}" fill="none" stroke="#c7e4ff" stroke-width="2" stroke-linecap="round"/><text transform="translate(321.66667,267.45812) scale(0.30591,0.30591)" font-size="40" xml:space="preserve" data-paper-data="{&quot;origPos&quot;:null}" fill="#ffffff" fill-rule="nonzero" stroke="none" stroke-width="1" stroke-linecap="butt" stroke-linejoin="miter" stroke-miterlimit="10" stroke-dasharray="" stroke-dashoffset="0" font-family="Sans Serif" font-weight="normal" text-anchor="start" style="mix-blend-mode: normal"><tspan x="0" dy="0">5</tspan></text><path d="M342.5,280.90625l30.5,-81.5" fill="none" stroke="#c7e4ff" stroke-width="2" stroke-linecap="round"/><path d="M491.84271,206.83338c-25.12896,0 -45.5,-20.37105 -45.5,-45.5c0,-25.12896 20.37104,-45.5 45.5,-45.5c25.12896,0 45.5,20.37104 45.5,45.5c0,25.12895 -20.37104,45.5 -45.5,45.5z" data-paper-data="{&quot;index&quot;:null}" fill="url(#color-15)" stroke="none" stroke-width="0" stroke-linecap="butt"/><path d="M491.84271,192.62209c-17.28028,0 -31.28871,-14.00843 -31.28871,-31.28871c0,-17.28028 14.00843,-31.28872 31.28871,-31.28872c17.28028,0 31.28871,14.00844 31.28871,31.28872c0,17.28028 -14.00843,31.28871 -31.28871,31.28871z" data-paper-data="{&quot;index&quot;:null}" fill="url(#color-16)" stroke="none" stroke-width="0" stroke-linecap="butt"/><path d="M491.84271,174.94755c-7.51889,0 -13.61417,-6.09527 -13.61417,-13.61417c0,-7.5189 6.09527,-13.61418 13.61417,-13.61418c7.5189,0 13.61417,6.09528 13.61417,13.61418c0,7.5189 -6.09527,13.61417 -13.61417,13.61417z" data-paper-data="{&quot;index&quot;:null}" fill="url(#color-17)" stroke="none" stroke-width="0" stroke-linecap="butt"/><path d="M491.84271,166.82682c-3.03394,0 -5.49344,-2.4595 -5.49344,-5.49344c0,-3.03394 2.4595,-5.49344 5.49344,-5.49344c3.03394,0 5.49344,2.4595 5.49344,5.49344c0,3.03394 -2.4595,5.49344 -5.49344,5.49344z" data-paper-data="{&quot;index&quot;:null}" fill="url(#color-18)" stroke="none" stroke-width="0" stroke-linecap="butt"/><path d="M470.97312,181.76609l3.75527,-4.41042l-0.7259,-5.7469l4.77992,1.42559l-3.90465,4.36586l0.87527,5.79146z" data-paper-data="{&quot;origRot&quot;:0,&quot;index&quot;:null}" fill="#7d8dc5" stroke="#313c82" stroke-width="1" stroke-linecap="butt"/><path d="M473.21108,171.53536l0.31185,-1.04561l6.27364,1.87109l-0.31185,1.0456z" data-paper-data="{&quot;origRot&quot;:0,&quot;index&quot;:null}" fill="#4d64b7" stroke="#313c82" stroke-width="0.5" stroke-linecap="butt"/><path d="M470.01885,182.28984l0.31185,-1.0456l6.27364,1.87108l-0.31185,1.04561z" data-paper-data="{&quot;origRot&quot;:0,&quot;index&quot;:null}" fill="#4d64b7" stroke="#313c82" stroke-width="0.5" stroke-linecap="butt"/><path d="M516.67976,228.63051l-7.31411,15.9344l-4.52238,10.30756l-9.92542,13.13931l-5.08161,14.20736l-6.20746,5.78881l-11.2224,8.47129l-6.1128,-11.65948l-8.5253,-10.01758l-6.22223,-9.6796l-9.00496,-10.74667l-9.99544,-10.54064l-4.22042,-8.98947l-3.47008,-12.91887l77.20213,5.19237l22.89383,-21.79485z" data-paper-data="{&quot;index&quot;:null}" fill="url(#color-19)" stroke="#000000" stroke-width="2.5" stroke-linecap="butt"/><path d="M491.25683,187.42657c6.8582,0.04482 34.34758,10.24935 34.34758,10.24935c7.45223,7.14251 -15.31543,26.05918 -15.31543,26.05918c-3.20976,3.41911 -33.66251,10.5349 -49.2987,10.43896c-18.60714,-0.11416 -46.62182,-9.73957 -36.47881,-18.61468c10.14297,-8.87511 18.52433,-15.35945 19.19522,-15.94647c0.67089,-0.58702 26.97551,-12.32077 47.55014,-12.18631z" data-paper-data="{&quot;index&quot;:null}" fill="url(#color-20)" stroke="#000000" stroke-width="2.5" stroke-linecap="butt"/><text transform="translate(474.19384,193.16668) scale(0.36999,0.36999)" font-size="40" xml:space="preserve" data-paper-data="{&quot;index&quot;:null}" fill="#ffffff" fill-rule="nonzero" stroke="none" stroke-width="1" stroke-linecap="butt" stroke-linejoin="miter" stroke-miterlimit="10" stroke-dasharray="" stroke-dashoffset="0" font-family="Sans Serif" font-weight="normal" text-anchor="start" style="mix-blend-mode: normal"><tspan x="0" dy="0">7</tspan></text><path d="M428.35728,209.3272l-39,-17.5" fill="none" stroke="#c7e4ff" stroke-width="2" stroke-linecap="round"/><g data-paper-data="{&quot;index&quot;:null,&quot;origRot&quot;:0}" stroke-linecap="butt"><path d="M461.60637,175.8718l-1.31712,-3.59586l8.3047,-3.0419l1.31712,3.59586z" data-paper-data="{&quot;origPos&quot;:null}" fill="#c07a00" stroke="#000000" stroke-width="2"/><path d="M457.97471,181.86295l-3.13598,-8.56156l8.3047,-3.0419l3.13598,8.56156z" data-paper-data="{&quot;origPos&quot;:null}" fill="#c07a00" stroke="#000000" stroke-width="2"/><path d="M455.95537,163.31036c3.08824,-1.13119 6.41988,0.21266 7.44142,3.00156c1.02154,2.7889 -0.65386,5.96676 -3.7421,7.09794c-3.08824,1.13119 -6.41988,-0.21266 -7.44142,-3.00156c-1.02154,-2.7889 0.65386,-5.96676 3.7421,-7.09794z" data-paper-data="{&quot;origPos&quot;:null}" fill="#b2b2b2" stroke="#000000" stroke-width="2"/><path d="M458.03928,165.02316c0.57627,-0.21108 1.25404,0.19278 1.51384,0.90204c0.25979,0.70926 0.00324,1.45535 -0.57304,1.66643c-0.57627,0.21108 -1.25404,-0.19278 -1.51384,-0.90204c-0.25979,-0.70926 -0.00324,-1.45535 0.57304,-1.66643z" data-paper-data="{&quot;origPos&quot;:null}" fill="#ff0000" stroke="none" stroke-width="0"/><path d="M460.58733,164.30831c0.50239,-0.18403 1.09833,0.18187 1.33107,0.81726c0.23273,0.63538 0.01413,1.29964 -0.48827,1.48365c-0.50239,0.18403 -1.09833,-0.18187 -1.33107,-0.81726c-0.23273,-0.63538 -0.01413,-1.29964 0.48827,-1.48365z" data-paper-data="{&quot;origPos&quot;:null}" fill="#ff0000" stroke="none" stroke-width="0"/><path d="M465.4517,187.96052l-2.7283,-7.44856l3.42462,-1.25439l2.7283,7.44856z" data-paper-data="{&quot;origPos&quot;:null}" fill="#4c517f" stroke="#000000" stroke-width="2"/><path d="M461.17092,189.52851l-2.75966,-7.53417l3.42462,-1.25439l2.75966,7.53417z" data-paper-data="{&quot;origPos&quot;:null}" fill="#4c517f" stroke="#000000" stroke-width="2"/><path d="M459.61431,176.79567l-1.31712,-3.59586l8.3047,-3.0419l1.31712,3.59586z" data-paper-data="{&quot;origPos&quot;:null}" fill="#c07a00" stroke="#000000" stroke-width="2"/><path d="M450.60782,168.57609l-0.18296,-1.27464c0,0 0.91439,-0.78812 0.79662,-1.26715c-0.37335,-1.51871 -1.88659,-7.67401 -3.0941,-12.58576c-0.06085,-0.24754 0.16272,-0.28124 0.31162,-0.14602c3.79811,3.44907 8.84296,7.97733 9.76138,8.8056c0.31756,0.28639 1.34904,-0.15616 1.34904,-0.15616l0.78625,0.82008z" data-paper-data="{&quot;origPos&quot;:null,&quot;origRot&quot;:0}" fill="url(#color-21)" stroke="#000000" stroke-width="2"/></g><g stroke-linecap="butt"><path d="M491.9,210.11737v-3.79061h8.75451v3.79061z" fill="#c07a00" stroke="#000000" stroke-width="2"/><path d="M497.31516,214.4495v-9.02527h8.75451v9.02527z" fill="#c07a00" stroke="#000000" stroke-width="2"/><path d="M507.525,201.84138c0,2.93995 -2.63912,5.32326 -5.89463,5.32326c-3.25551,0 -5.89463,-2.38331 -5.89463,-5.32326c0,-2.93995 2.63912,-5.32326 5.89463,-5.32326c3.25551,0 5.89463,2.38331 5.89463,5.32326z" fill="#b2b2b2" stroke="#000000" stroke-width="2"/><path d="M501.37653,200.17335c0,0.74768 -0.49247,1.35379 -1.09995,1.35379c-0.60749,0 -1.09995,-0.60611 -1.09995,-1.35379c0,-0.74768 0.49247,-1.35379 1.09995,-1.35379c0.60749,0 1.09995,0.60611 1.09995,1.35379z" fill="#ff0000" stroke="none" stroke-width="0"/><path d="M498.62383,200.2354c0,0.6698 -0.42933,1.21277 -0.95894,1.21277c-0.52961,0 -0.95894,-0.54297 -0.95894,-1.21277c0,-0.6698 0.42933,-1.21277 0.95894,-1.21277c0.52961,0 0.95894,0.54297 0.95894,1.21277z" fill="#ff0000" stroke="none" stroke-width="0"/><path d="M497.58592,222.6625v-7.85199h3.61011v7.85199z" fill="#4c517f" stroke="#000000" stroke-width="2"/><path d="M502.09856,222.6625v-7.94224h3.61011v7.94224z" fill="#4c517f" stroke="#000000" stroke-width="2"/><path d="M494.06606,210.29787v-3.79061h8.75451v3.79061z" fill="#c07a00" stroke="#000000" stroke-width="2"/><path d="M496.15446,198.63621l0.85659,-12.32394c0,0 2.61129,-0.41207 4.28265,-0.4266c1.82356,-0.01586 4.67266,0.34873 4.67266,0.34873l0.93447,12.40181c0,0 -3.41868,0.46723 -5.60681,0.46723c-2.00579,0 -5.13957,-0.46723 -5.13957,-0.46723z" fill="url(#color-22)" stroke="#000000" stroke-width="2"/></g></g></g></svg>