<svg version="1.1" xmlns="http://www.w3.org/2000/svg" xmlns:xlink="http://www.w3.org/1999/xlink" width="90.23253" height="57.77065" viewBox="0,0,90.23253,57.77065"><defs><radialGradient cx="247.51747" cy="195.98307" r="9.52076" gradientUnits="userSpaceOnUse" id="color-1"><stop offset="0" stop-color="#a26e2a"/><stop offset="1" stop-color="#472b00"/></radialGradient><linearGradient x1="236.89022" y1="193.81834" x2="263.64306" y2="193.81834" gradientUnits="userSpaceOnUse" id="color-2"><stop offset="0" stop-color="#24b400"/><stop offset="1" stop-color="#217700"/></linearGradient><radialGradient cx="225.31032" cy="161.19635" r="34.81049" gradientUnits="userSpaceOnUse" id="color-3"><stop offset="0" stop-color="#ffb554"/><stop offset="1" stop-color="#885200"/></radialGradient><radialGradient cx="227.16738" cy="197.22826" r="10.56812" gradientUnits="userSpaceOnUse" id="color-4"><stop offset="0" stop-color="#c08231"/><stop offset="1" stop-color="#5e3800"/></radialGradient><linearGradient x1="215.37104" y1="194.82539" x2="245.06693" y2="194.82539" gradientUnits="userSpaceOnUse" id="color-5"><stop offset="0" stop-color="#2fe500"/><stop offset="1" stop-color="#16bb00"/></linearGradient></defs><g transform="translate(-187.82915,-151.02572)"><g data-paper-data="{&quot;isPaintingLayer&quot;:true}" fill-rule="nonzero" stroke-linecap="butt" stroke-linejoin="miter" stroke-miterlimit="10" stroke-dasharray="" stroke-dashoffset="0" style="mix-blend-mode: normal"><path d="M222.391,163.61243c0,0 -6.48353,-8.88664 -13.59754,-8.59855c-4.3719,0.17706 -5.5991,4.04069 -10.49354,5.04345c-4.78717,0.98078 -9.18694,-3.57185 -9.18694,-3.57185l3.20008,-1.42535c0,0 3.1192,1.98188 6.28648,2.14096c3.47711,0.17464 6.67947,-5.93819 11.22371,-5.28084c6.26453,0.9062 12.86357,8.18357 12.86357,8.18357z" fill="#c29557" stroke="#000000" stroke-width="1.5"/><path d="M237.9967,195.98307c0,-5.25817 4.2626,-9.52076 9.52076,-9.52076c5.25817,0 9.52076,4.26259 9.52076,9.52076c0,5.25817 -4.26259,9.52076 -9.52076,9.52076c-5.25817,0 -9.52076,-4.26259 -9.52076,-9.52076z" fill="url(#color-1)" stroke="#000000" stroke-width="2"/><path d="M263.64306,203.67285c0,0 -0.89912,1.57559 -9.4934,-6.85792c-1.67395,-1.64263 -3.60597,-10.06991 -5.61281,-9.93444c-12.13454,0.81916 -12.26272,13.33016 -11.26991,11.21281c0.51029,-1.0883 -1.58815,-7.26194 2.24057,-11.0842c3.62025,-3.61415 11.93857,-4.13836 15.517,-1.52937c3.77601,2.75306 2.15722,6.77979 4.13259,12.56337c1.09191,3.19695 4.48595,5.62975 4.48595,5.62975z" data-paper-data="{&quot;origRot&quot;:0,&quot;index&quot;:null}" fill="url(#color-2)" stroke="#000000" stroke-width="2"/><path d="M276.33329,183.41079c0,0 -16.20725,13.83657 -35.60001,15.12403c-9.48141,0.62946 -17.21973,2.02879 -22.25236,-1.63432c-5.26083,-3.82921 -8.1131,-9.72515 -8.60305,-17.10527c-0.25853,-3.89439 0.29192,-12.40304 3.17795,-17.7535c2.66721,-4.94475 7.67818,-6.89973 7.67818,-6.89973l-2.17817,3.90283l12.14226,-6.74895l1.77431,2.06392c0,0 4.77564,-0.0586 5.69133,-0.11938c10.27527,-0.58759 21.63531,3.63834 21.63531,3.63834l9.05774,-0.84151c0,0 4.54947,5.00869 6.31527,11.72651c2.32062,8.82862 1.16123,14.64707 1.16123,14.64707z" fill="url(#color-3)" stroke="#000000" stroke-width="2"/><path d="M238.01039,169.95074c0.47813,-3.0233 11.42646,-1.29178 10.94833,1.73152c-0.47813,3.0233 -3.31662,5.08655 -6.33991,4.6084c-3.0233,-0.47813 -5.08655,-3.31663 -4.60841,-6.33991z" fill="#ffffff" stroke="#000000" stroke-width="1"/><path d="M216.59926,197.22826c0,-5.83662 4.73151,-10.56812 10.56813,-10.56812c5.83662,0 10.56812,4.7315 10.56812,10.56812c0,5.83662 -4.7315,10.56812 -10.56812,10.56812c-5.83662,0 -10.56813,-4.73151 -10.56813,-10.56812z" fill="url(#color-4)" stroke="#000000" stroke-width="2"/><path d="M224.39617,192.01109c0,-0.71781 0.58189,-1.29969 1.29969,-1.29969c0.71781,0 1.29969,0.58189 1.29969,1.29969c0,0.71781 -0.58189,1.29969 -1.29969,1.29969c-0.71781,0 -1.29969,-0.58189 -1.29969,-1.29969z" fill="#000000" stroke="none" stroke-width="0.5"/><path d="M229.75472,193.88392c0,-0.86136 0.69827,-1.55963 1.55963,-1.55963c0.86136,0 1.55963,0.69827 1.55963,1.55963c0,0.86136 -0.69827,1.55963 -1.55963,1.55963c-0.86136,0 -1.55963,-0.69827 -1.55963,-1.55963z" fill="#000000" stroke="none" stroke-width="0.5"/><path d="M224.94648,196.55938c0,-1.00492 0.81465,-1.81957 1.81957,-1.81957c1.00492,0 1.81957,0.81465 1.81957,1.81957c0,1.00492 -0.81465,1.81957 -1.81957,1.81957c-1.00492,0 -1.81957,-0.81465 -1.81957,-1.81957z" fill="#000000" stroke="none" stroke-width="0.5"/><path d="M245.06693,205.76398c0,0 -0.99802,1.74892 -10.53774,-7.61233c-1.8581,-1.82334 -4.00264,-11.17769 -6.23027,-11.02731c-13.46944,0.90928 -13.61171,14.79658 -12.50969,12.4463c0.56643,-1.20802 -1.76287,-8.06081 2.48704,-12.30356c4.01852,-4.01173 13.25191,-4.59361 17.224,-1.6976c4.1914,3.0559 2.39454,7.52561 4.58721,13.94543c1.21202,3.54863 4.97944,6.24906 4.97944,6.24906z" data-paper-data="{&quot;origRot&quot;:0,&quot;index&quot;:null}" fill="url(#color-5)" stroke="#000000" stroke-width="2"/><path d="M266.14122,172.63496c-1.8022,-7.19476 -1.16976,-13.55162 1.41256,-14.19847c2.58233,-0.64682 6.13667,4.66132 7.93886,11.85608c1.8022,7.19476 1.16976,13.55162 -1.41256,14.19845c-2.58233,0.64682 -6.13669,-4.66131 -7.93886,-11.85607z" fill="#ffffff" stroke="#000000" stroke-width="2"/><path d="M243.8996,171.70939c-0.08993,-0.64242 0.35797,-1.23611 1.00039,-1.32603c0.64242,-0.08993 1.23611,0.35797 1.32603,1.00039c0.08993,0.64242 -0.35797,1.23611 -1.00039,1.32603c-0.64242,0.08993 -1.23611,-0.35797 -1.32603,-1.00039z" fill="#000000" stroke="none" stroke-width="0.5"/><path d="M237.48896,168.7626l0.67887,-2.9236l1.47292,-1.01637l5.6831,0.71408l2.43827,-0.87369l-0.33814,1.14141l2.40523,0.32378l-0.4329,4.67041l-6.70354,-0.14299z" fill="#5a390a" stroke="#000000" stroke-width="1"/></g></g></svg>