<svg version="1.1" xmlns="http://www.w3.org/2000/svg" xmlns:xlink="http://www.w3.org/1999/xlink" width="19.0761" height="18.92604" viewBox="0,0,19.0761,18.92604"><g transform="translate(-230.46195,-170.53698)"><g data-paper-data="{&quot;isPaintingLayer&quot;:true}" fill-rule="nonzero" stroke-linecap="butt" stroke-linejoin="miter" stroke-miterlimit="10" stroke-dasharray="" stroke-dashoffset="0" style="mix-blend-mode: normal"><path d="M248.53805,180c0,4.67399 -3.82262,8.46302 -8.53805,8.46302c-4.71544,0 -8.53805,-3.78902 -8.53805,-8.46302c0,-4.67399 3.82262,-8.46302 8.53805,-8.46302c4.71544,0 8.53805,3.78902 8.53805,8.46302z" data-paper-data="{&quot;origPos&quot;:null}" fill="#b2b2b2" stroke="#000000" stroke-width="2"/><path d="M239.63233,177.87548c0,1.36342 -0.71331,2.46869 -1.59323,2.46869c-0.87991,0 -1.59323,-1.10527 -1.59323,-2.46869c0,-1.36342 0.71331,-2.46869 1.59323,-2.46869c0.87991,0 1.59323,1.10527 1.59323,2.46869z" data-paper-data="{&quot;origPos&quot;:null}" fill="#ff0000" stroke="none" stroke-width="0"/><path d="M235.85612,177.98864c0,1.22139 -0.62186,2.21153 -1.38897,2.21153c-0.76711,0 -1.38897,-0.99013 -1.38897,-2.21153c0,-1.22139 0.62186,-2.21153 1.38897,-2.21153c0.76711,0 1.38897,0.99013 1.38897,2.21153z" data-paper-data="{&quot;origPos&quot;:null}" fill="#ff0000" stroke="none" stroke-width="0"/></g></g></svg>