<svg version="1.1" xmlns="http://www.w3.org/2000/svg" xmlns:xlink="http://www.w3.org/1999/xlink" width="60.63157" height="38.15113" viewBox="0,0,60.63157,38.15113"><defs><linearGradient x1="239.79181" y1="162.83335" x2="239.79181" y2="198.83335" gradientUnits="userSpaceOnUse" id="color-1"><stop offset="0" stop-color="#efb640"/><stop offset="1" stop-color="#fff6b4"/></linearGradient><linearGradient x1="257.25712" y1="184.25642" x2="224.08296" y2="190.7029" gradientUnits="userSpaceOnUse" id="color-2"><stop offset="0" stop-color="#6fe640"/><stop offset="1" stop-color="#dfffd2"/></linearGradient><linearGradient x1="257.20087" y1="185.67911" x2="250.07017" y2="187.06476" gradientUnits="userSpaceOnUse" id="color-3"><stop offset="0" stop-color="#389920"/><stop offset="1" stop-color="#48c42a"/></linearGradient><linearGradient x1="254.96066" y1="184.88399" x2="251.47535" y2="185.56127" gradientUnits="userSpaceOnUse" id="color-4"><stop offset="0" stop-color="#3faa24"/><stop offset="1" stop-color="#50ca3f"/></linearGradient><linearGradient x1="216.32644" y1="191.76484" x2="235.79231" y2="191.76484" gradientUnits="userSpaceOnUse" id="color-5"><stop offset="0" stop-color="#6fe640"/><stop offset="1" stop-color="#dfffd2"/></linearGradient><linearGradient x1="233.34318" y1="166.30886" x2="233.34318" y2="182.48093" gradientUnits="userSpaceOnUse" id="color-6"><stop offset="0" stop-color="#26a200"/><stop offset="1" stop-color="#a3b196"/></linearGradient><linearGradient x1="233.21154" y1="163.73218" x2="233.21154" y2="179.90426" gradientUnits="userSpaceOnUse" id="color-7"><stop offset="0" stop-color="#34e000"/><stop offset="1" stop-color="#c9dab9"/></linearGradient><radialGradient cx="235.91338" cy="187.00924" r="10.80999" gradientUnits="userSpaceOnUse" id="color-8"><stop offset="0" stop-color="#e5ffd9"/><stop offset="1" stop-color="#d7ffca"/></radialGradient><linearGradient x1="225.83298" y1="187.54439" x2="244.123" y2="187.54439" gradientUnits="userSpaceOnUse" id="color-9"><stop offset="0" stop-color="#b1e49c" stop-opacity="0"/><stop offset="1" stop-color="#b1e49c"/></linearGradient><linearGradient x1="233.06121" y1="163.32355" x2="233.06121" y2="176.42507" gradientUnits="userSpaceOnUse" id="color-10"><stop offset="0" stop-color="#3dff00"/><stop offset="1" stop-color="#ebffd8"/></linearGradient><linearGradient x1="216.51457" y1="192.56308" x2="220.69868" y2="192.56308" gradientUnits="userSpaceOnUse" id="color-11"><stop offset="0" stop-color="#389920"/><stop offset="1" stop-color="#48c42a"/></linearGradient><linearGradient x1="217.69384" y1="191.86737" x2="219.73896" y2="191.86737" gradientUnits="userSpaceOnUse" id="color-12"><stop offset="0" stop-color="#3faa24"/><stop offset="1" stop-color="#50ca3f"/></linearGradient></defs><g transform="translate(-209.2429,-161.85145)"><g data-paper-data="{&quot;isPaintingLayer&quot;:true}" fill-rule="nonzero" stroke-linejoin="miter" stroke-miterlimit="10" stroke-dasharray="" stroke-dashoffset="0" style="mix-blend-mode: normal"><path d="M210.50015,195.77118c0,-7.18645 0,-25.25324 0,-29.5c0,-1.72983 1.95533,-3.43783 4.10049,-3.43783c6.49354,0 39.77537,0 50.875,0c2.26628,0 3.60783,1.47996 3.60783,3.81283c0,7.50898 0,23.85448 0,28.125c0,1.9962 -1.8827,4.06217 -3.73283,4.06217c-5.36167,0 -31.34965,0 -31.34965,0c-3.50551,-0.20254 -7.07398,-0.45211 -10.3325,-0.0711c-0.25664,0.03001 -0.52182,0.05168 -0.79121,0.0711c0,0 -6.49221,0 -8.77664,0c-1.46318,0 -3.60049,-1.2397 -3.60049,-3.06217z" data-paper-data="{&quot;origPos&quot;:null}" fill="url(#color-1)" stroke="none" stroke-width="0" stroke-linecap="butt"/><path d="M267.97119,181.7933v15.64249h-18.91108z" data-paper-data="{&quot;origPos&quot;:null,&quot;origRot&quot;:0}" fill="#cdcdcd" stroke="none" stroke-width="0" stroke-linecap="butt"/><path d="M247.5364,195.24579c-7.32488,2.76524 -10.09661,2.49094 -10.09661,2.49094l0.67102,-1.15113c0,0 3.56775,-0.02729 7.67962,-1.49246c4.24606,-1.51298 4.07845,-6.70658 4.07845,-6.70658l-4.45298,-6.58787c0,0 0.39673,-3.50543 1.39704,-4.39581c0.39712,-0.35347 1.43583,0.02065 1.84485,-0.31897c0.84908,-0.70499 -0.31739,-3.44387 3.14513,-0.64493c0.7314,0.59123 1.54011,1.68976 2.04577,2.48273c0.22102,0.34658 -0.63601,0.83012 -0.63601,0.83012c0,0 0.82788,-0.63277 1.07624,-0.25826c0.54983,0.82911 1.04455,1.19478 1.51838,2.06954c0.68353,1.26191 1.46355,3.39483 1.46355,3.39483c0,0 1.73228,2.10631 -3.62638,5.63475c0.19998,-1.57922 -2.23653,3.19153 -6.10809,4.6531z" data-paper-data="{&quot;origPos&quot;:null,&quot;origRot&quot;:0,&quot;index&quot;:null}" fill="url(#color-2)" stroke="#244b00" stroke-width="0.5" stroke-linecap="butt"/><path d="M250.99575,185.55794l1.91583,-3.2849c2.16214,-0.42016 3.64522,0.09149 4.19513,2.92137c0.54991,2.82987 -1.70361,5.07362 -3.86576,5.49378c-2.16214,0.42016 -2.66123,-1.00127 -3.21114,-3.83115c-0.54991,-2.82987 0.96593,-1.29909 0.96593,-1.29909z" data-paper-data="{&quot;origPos&quot;:null,&quot;index&quot;:null,&quot;origRot&quot;:0}" fill="url(#color-3)" stroke="#244b00" stroke-width="0.5" stroke-linecap="butt"/><path d="M253.50366,187.88481l-2.04208,-2.3944l1.47076,-2.92995l2.16734,3.03901z" data-paper-data="{&quot;origPos&quot;:null,&quot;origRot&quot;:0,&quot;index&quot;:null}" fill="url(#color-4)" stroke="#244b00" stroke-width="0.5" stroke-linecap="butt"/><path d="M254.70135,185.46525c0.66472,-0.12917 0.62858,0.6772 0.42217,1.32213c-0.23035,0.71975 -0.43076,1.46034 -1.1726,1.60449c-0.0314,0.0061 -0.76997,-0.39227 -0.91388,-1.13283c-0.1674,-0.86148 0.88487,-1.64234 1.6643,-1.7938z" data-paper-data="{&quot;origPos&quot;:null,&quot;index&quot;:null,&quot;origRot&quot;:0}" fill="#244b00" stroke="#244b00" stroke-width="0" stroke-linecap="butt"/><path d="M249.02227,181.89165c0,0 0.60849,-1.92557 1.91676,-2.4379c0.72858,-0.28531 2.88901,0.19356 2.88901,0.19356" data-paper-data="{&quot;origPos&quot;:null,&quot;index&quot;:null,&quot;origRot&quot;:0}" fill="none" stroke="#244b00" stroke-width="0.5" stroke-linecap="round"/><path d="M219.06534,194.95059c-3.41761,-1.40629 -2.66957,-2.78758 -2.66957,-2.78758c0,0 0.20669,-1.29172 0.45453,-2.08033c0.1718,-0.54668 0.41135,-0.80779 0.63114,-1.33701c0.09928,-0.23905 0.63691,0.02777 0.63691,0.02777c0,0 -0.53771,-0.17924 -0.45083,-0.39949c0.19879,-0.50393 0.53536,-1.21391 0.88394,-1.62858c1.65026,-1.96304 1.29165,-0.28624 1.8492,0.01909c0.26859,0.14709 0.8148,-0.17858 1.07818,-0.02235c0.66344,0.39353 1.27291,2.33201 1.27291,2.33201l-1.79399,4.21422c0,0 0.28108,0.57547 0.79125,0.70747c2.3115,1.25663 3.86091,1.82939 6.42799,2.21833c2.48594,0.37665 6.39101,0.46031 6.39101,0.46031l1.22428,1.0114c0,0 -6.78655,-0.55059 -11.23205,-1.30931c-2.34967,-0.40102 -2.66161,-0.2601 -5.49491,-1.42594z" data-paper-data="{&quot;origPos&quot;:null,&quot;origRot&quot;:0}" fill="url(#color-5)" stroke="#244b00" stroke-width="0.5" stroke-linecap="butt"/><path d="M239.82574,181.27572l-8.99488,0.54914c0,0 -5.40843,-1.51443 -6.7073,-2.50039c-1.42047,-1.07826 -0.3902,-1.80257 -1.93505,-2.69356c-0.93793,-0.54095 -1.48774,0.14 -2.30054,-0.57532c-0.77737,-0.68414 -1.22905,-1.70874 0.48703,-2.72918c1.09533,-0.65132 2.27926,-0.78261 2.27926,-0.78261c0,0 -3.04824,-2.0353 0.34943,-2.4952c0.82391,-0.11153 4.39359,1.10088 4.39359,1.10088c0,0 -4.68348,-1.28546 -3.44465,-2.26317c1.56078,-1.2318 1.24443,-0.82695 3.07105,-0.52298c1.96133,0.32639 4.06634,1.46224 4.06634,1.46224c0,0 -2.01997,-1.14581 -3.42459,-2.15649c0.73325,-0.61878 1.89362,-1.0837 2.84182,-0.93728c1.57516,0.24324 3.54717,2.09898 3.54717,2.09898c0,0 -4.94695,-3.05992 -3.55121,-3.38272c0.30678,-0.07095 2.48373,0.15556 3.45222,0.59575c0.96849,0.4402 3.07186,3.29361 3.07186,3.29361c0,0 -1.14334,-0.90589 -1.95834,-1.94092c-1.58275,-2.01004 1.13289,-0.99837 2.67815,-0.33018c1.4151,0.61191 2.85318,3.54914 2.85318,3.54914l-1.64544,-2.78212c0,0 0.81162,-0.57248 1.39996,-0.18133c0.60817,0.40433 1.66596,2.21963 1.66596,2.21963l0.32476,3.71451c0,0 2.93579,-0.21441 2.93579,1.96714c0,1.86134 -1.60536,2.83857 -2.69875,3.52448c-1.16085,0.72824 -2.75681,2.19794 -2.75681,2.19794z" data-paper-data="{&quot;origPos&quot;:null}" fill="url(#color-6)" stroke="#244b00" stroke-width="0.75" stroke-linecap="butt"/><path d="M239.6941,178.69905l-8.99488,0.54914c0,0 -2.12214,-2.01201 -3.9502,-2.67092c-1.11883,-0.40328 -2.56217,-0.23843 -3.5835,-0.84778c-0.51806,-0.30908 -0.69721,-1.26271 -1.21978,-1.5641c-0.93793,-0.54095 -1.3766,0.02886 -2.1894,-0.68646c-0.77737,-0.68414 -1.22905,-1.70874 0.48703,-2.72918c1.09533,-0.65132 2.27926,-0.78261 2.27926,-0.78261c0,0 -3.04824,-2.0353 0.34943,-2.4952c0.82391,-0.11153 4.39359,1.10088 4.39359,1.10088c0,0 -4.68348,-1.28546 -3.44465,-2.26317c1.56078,-1.2318 1.24443,-0.82695 3.07105,-0.52298c1.96133,0.32639 4.06634,1.46224 4.06634,1.46224c0,0 -2.01997,-1.14581 -3.42459,-2.15649c0.73325,-0.61878 1.89362,-1.0837 2.84182,-0.93728c1.57516,0.24324 3.54717,2.09898 3.54717,2.09898c0,0 -4.94695,-3.05992 -3.55121,-3.38272c0.30678,-0.07095 2.48373,0.15556 3.45222,0.59575c0.96849,0.4402 3.07186,3.29361 3.07186,3.29361c0,0 -1.14334,-0.90589 -1.95834,-1.94092c-1.58275,-2.01004 1.13289,-0.99837 2.67815,-0.33018c1.4151,0.61191 2.85318,3.54914 2.85318,3.54914l-1.64544,-2.78213c0,0 0.81162,-0.57248 1.39996,-0.18133c0.60817,0.40433 3.2219,2.66418 3.2219,2.66418c0,0 -0.69696,2.40402 0.95417,2.46505c1.28838,0.04763 1.91663,3.08333 1.18381,4.14406c-0.59254,0.85769 -2.82938,-0.77417 -3.55862,-0.02922c-1.59097,1.62522 -2.3303,4.37963 -2.3303,4.37963z" data-paper-data="{&quot;origPos&quot;:null}" fill="url(#color-7)" stroke="#244b00" stroke-width="0.75" stroke-linecap="butt"/><path d="M237.9535,174.61572c0,0 6.48931,10.80283 6.16625,15.9731c-0.25059,4.01056 -4.37315,7.3547 -8.09854,7.3547c-4.56979,0 -9.36906,-3.19932 -9.87226,-8.1001c-0.40621,-3.95623 5.05098,-14.78283 5.05098,-14.78283z" data-paper-data="{&quot;origPos&quot;:null}" fill="url(#color-8)" stroke="#244b00" stroke-width="1" stroke-linecap="butt"/><path d="M230.21782,196.40974c-5.22429,-2.21119 -4.32605,-6.44599 -4.32605,-6.44599c0,0 0.22967,0.25471 5.05728,3.36929c4.82762,3.11459 9.3444,0.28948 10.81723,-2.33926c0.91863,-1.63959 0.83608,-2.94987 0.47139,-4.82494c-0.70901,-3.64543 -3.16173,-9.09707 -3.16173,-9.09707c0,0 4.7641,7.98355 5.04707,13.00312c0,0 -0.21506,2.04055 -0.88534,3.3118c-1.05118,1.99368 -2.2261,3.20665 -4.27035,3.83591c-3.17965,0.97876 -3.52521,1.39833 -8.74949,-0.81286z" data-paper-data="{&quot;origPos&quot;:null}" fill="url(#color-9)" stroke="#244b00" stroke-width="0" stroke-linecap="butt"/><path d="M238.31293,175.44869l-7.28705,0.44488c0,0 -4.38155,-1.22689 -5.4338,-2.02565c-1.15077,-0.87354 -0.31612,-1.46032 -1.56764,-2.18214c-0.75985,-0.43824 -1.20526,0.11342 -1.86375,-0.46609c-0.50645,-0.4457 -0.7612,-0.94631 -0.39766,-1.51462c0.22375,-0.34978 0.43532,-0.48415 0.79222,-0.69637c0.88736,-0.52766 1.8465,-0.63402 1.8465,-0.63402c0,0 -2.46948,-1.64886 0.28308,-2.02145c0.66748,-0.09035 3.55939,0.89186 3.55939,0.89186c0,0 -3.79424,-1.0414 -2.79063,-1.83347c1.26444,-0.99792 1.00816,-0.66994 2.48796,-0.42369c1.58894,0.26441 3.29427,1.18461 3.29427,1.18461c0,0 -1.63645,-0.92826 -2.77437,-1.74704c0.59403,-0.50129 1.53408,-0.87795 2.30226,-0.75932c1.27609,0.19706 2.87368,1.70046 2.87368,1.70046c0,0 -3.00745,-2.47894 -1.87671,-2.74045c1.13073,-0.26151 1.01191,0.12602 1.79652,0.48264c0.78461,0.35662 2.48861,2.66826 2.48861,2.66826c0,0 -0.92626,-0.73389 -1.58652,-1.5724c-1.28224,-1.6284 0.91779,-0.80881 2.16966,-0.26749c1.14642,0.49573 2.31146,2.87528 2.31146,2.87528l-1.33302,-2.25389c0,0 0.65752,-0.46378 1.13415,-0.1469c0.4927,0.32756 1.34965,1.7982 1.34965,1.7982c0,0 0.78591,-0.9336 2.12355,-0.88415c1.48282,0.05481 0.87807,1.24706 0.87807,3.23612c0,1.98906 -1.65823,2.72222 -2.26176,3.33875c-1.28889,1.31664 -2.5181,3.54808 -2.5181,3.54808z" data-paper-data="{&quot;origPos&quot;:null}" fill="url(#color-10)" stroke="#244b00" stroke-width="0.75" stroke-linecap="butt"/><path d="M241.04026,183.76138c0.06199,1.44109 -0.63345,2.6414 -1.5533,2.68096c-0.91985,0.03956 -1.71577,-1.0966 -1.77776,-2.53769c-0.06199,-1.44109 0.63345,-2.6414 1.5533,-2.68096c0.91985,-0.03956 1.71577,1.0966 1.77776,2.53769z" data-paper-data="{&quot;origRot&quot;:0,&quot;origPos&quot;:null}" fill="#ffffff" stroke="#244b00" stroke-width="0.5" stroke-linecap="butt"/><path d="M236.90077,183.56051c0,0 -1.15039,1.79246 -2.19385,1.85336c-1.04168,0.0608 -2.13295,-2.15787 -2.13295,-2.15787z" data-paper-data="{&quot;origPos&quot;:null}" fill="#ffffff" stroke="#244b00" stroke-width="0.5" stroke-linecap="butt"/><path d="M240.2745,180.73716c-0.7438,-0.31251 -1.71612,0.72848 -2.18789,1.38295c-0.44777,0.62117 -0.42732,1.25397 -0.42732,1.25397l-5.73079,-0.26347" data-paper-data="{&quot;origPos&quot;:null}" fill="none" stroke="#244b00" stroke-width="0.5" stroke-linecap="round"/><path d="M235.7925,183.91778c0,0.26908 -0.21813,0.48721 -0.48721,0.48721c-0.26908,0 -0.48721,-0.21813 -0.48721,-0.48721c0,-0.26908 0.21813,-0.48721 0.48721,-0.48721c0.26908,0 0.48721,0.21813 0.48721,0.48721z" data-paper-data="{&quot;origPos&quot;:null}" fill="#000000" stroke="none" stroke-width="0" stroke-linecap="butt"/><path d="M239.70144,183.68541c0,0.40362 -0.21813,0.73082 -0.48721,0.73082c-0.26908,0 -0.48721,-0.3272 -0.48721,-0.73082c0,-0.40362 0.21813,-0.73081 0.48721,-0.73081c0.26908,0 0.48721,0.3272 0.48721,0.73081z" data-paper-data="{&quot;origPos&quot;:null}" fill="#000000" stroke="none" stroke-width="0" stroke-linecap="butt"/><path d="M236.43353,189.53755c0,0 0.1218,-0.54661 0.1218,-0.97442c0,-0.47535 -0.1218,-1.15713 -0.1218,-1.15713l1.33983,0.0609c0,0 0.21051,0.59552 0.26729,1.01567c0.06206,0.45926 -0.08458,0.99408 -0.08458,0.99408z" data-paper-data="{&quot;origPos&quot;:null}" fill="#ffffff" stroke="#244b00" stroke-width="0.5" stroke-linecap="butt"/><path d="M233.26662,188.86764c0,0 1.84925,-1.27945 3.03287,-1.47469c1.12184,-0.18505 2.87457,0.50027 2.87457,0.50027" data-paper-data="{&quot;origPos&quot;:null}" fill="none" stroke="#244b00" stroke-width="0.5" stroke-linecap="round"/><path d="M220.69868,192.44119c0,1.6605 -0.12602,2.51905 -1.39472,2.51905c-1.26869,0 -2.78943,-1.02107 -2.78943,-2.68157c0,-1.6605 0.78236,-2.11276 2.05105,-2.11276l1.44419,1.64687c0,0 0.6889,-1.0321 0.6889,0.62841z" data-paper-data="{&quot;origPos&quot;:null}" fill="url(#color-11)" stroke="#244b00" stroke-width="0.5" stroke-linecap="butt"/><path d="M217.69384,192.28718l0.89156,-1.95647l1.15353,1.49507l-0.89156,1.57823z" data-paper-data="{&quot;origPos&quot;:null,&quot;origRot&quot;:0}" fill="url(#color-12)" stroke="#244b00" stroke-width="0.5" stroke-linecap="butt"/><path d="M219.0425,192.99893c0,0.43454 -0.37384,0.74094 -0.39226,0.74094c-0.43529,0 -0.62998,-0.39673 -0.83931,-0.77838c-0.18757,-0.34198 -0.2966,-0.79395 0.09344,-0.79395c0.45735,0 1.13813,0.3259 1.13813,0.8314z" data-paper-data="{&quot;origPos&quot;:null}" fill="#244b00" stroke="#244b00" stroke-width="0" stroke-linecap="butt"/><path d="M217.75892,188.78196c0,0 1.16895,-0.50814 1.61226,-0.42687c0.79601,0.14594 1.35164,1.16784 1.35164,1.16784" data-paper-data="{&quot;origPos&quot;:null}" fill="none" stroke="#244b00" stroke-width="0.5" stroke-linecap="round"/><path d="M210.24291,195.39618c0,-7.03483 0,-24.60261 0,-28.875c0,-1.82619 1.24126,-3.66973 2.85773,-3.66973c5.28449,0 41.62396,0 52.625,0c1.98825,0 3.14884,1.77216 3.14884,3.54473c0,4.20683 0,21.72647 0,28.875c0,1.89192 -1.11237,3.05741 -3.02384,3.05741c-10.61415,0 -45.86807,0 -52.125,0c-1.85553,0 -3.48273,-1.11453 -3.48273,-2.93241z" data-paper-data="{&quot;origPos&quot;:null}" fill="none" stroke="#cdcdcd" stroke-width="2" stroke-linecap="butt"/><g fill="#ffffff" stroke-linecap="butt" font-family="Sans Serif" font-weight="normal" font-size="40" text-anchor="start"><text transform="translate(247.69646,195.74549) scale(0.27944,0.27944)" font-size="40" xml:space="preserve" fill="#ffffff" fill-rule="nonzero" stroke="#000000" stroke-width="6" stroke-linecap="butt" stroke-linejoin="miter" stroke-miterlimit="10" stroke-dasharray="" stroke-dashoffset="0" font-family="Sans Serif" font-weight="normal" text-anchor="start" style="mix-blend-mode: normal"><tspan x="0" dy="0">150</tspan></text><text transform="translate(247.69646,195.74549) scale(0.27944,0.27944)" font-size="40" xml:space="preserve" fill="#ffffff" fill-rule="nonzero" stroke="none" stroke-width="1" stroke-linecap="butt" stroke-linejoin="miter" stroke-miterlimit="10" stroke-dasharray="" stroke-dashoffset="0" font-family="Sans Serif" font-weight="normal" text-anchor="start" style="mix-blend-mode: normal"><tspan x="0" dy="0">150</tspan></text></g></g></g></svg>