<svg version="1.1" xmlns="http://www.w3.org/2000/svg" xmlns:xlink="http://www.w3.org/1999/xlink" width="47.51543" height="32.03349" viewBox="0,0,47.51543,32.03349"><g transform="translate(-215.92292,-164.48327)"><g data-paper-data="{&quot;isPaintingLayer&quot;:true}" fill-rule="nonzero" stroke-linejoin="miter" stroke-miterlimit="10" stroke-dasharray="" stroke-dashoffset="0" style="mix-blend-mode: normal"><g><path d="M226.39002,185.01676l-6.02417,-17.78176l-3.9292,2.35275c0,0 6.53274,-3.84961 6.75889,-4.10447" fill="none" stroke="#666666" stroke-width="2" stroke-linecap="round"/><path d="M252.26501,185.45427c0,-1.69137 1.37113,-3.0625 3.0625,-3.0625c1.69137,0 3.0625,1.37113 3.0625,3.0625c0,1.69137 -1.37113,3.0625 -3.0625,3.0625c-1.69137,0 -3.0625,-1.37113 -3.0625,-3.0625z" fill="#666666" stroke="#000000" stroke-width="1.5" stroke-linecap="butt"/><path d="M229.26501,185.89177c0,-2.07107 1.67893,-3.75 3.75,-3.75c2.07107,0 3.75,1.67893 3.75,3.75c0,2.07107 -1.67893,3.75 -3.75,3.75c-2.07107,0 -3.75,-1.67893 -3.75,-3.75z" fill="#666666" stroke="#000000" stroke-width="1.5" stroke-linecap="butt"/><path d="M225.00524,191.70426c0,0 0.08557,-7.19088 3,-7.84406c2.91443,-0.65318 12.99684,0.01227 26.625,0c8.99131,-0.0081 7.75,7.84406 7.75,7.84406z" fill="#cc0000" stroke="#000000" stroke-width="2" stroke-linecap="butt"/><path d="M229.01501,192.01677c0,-2.07107 1.67893,-3.75 3.75,-3.75c2.07107,0 3.75,1.67893 3.75,3.75c0,2.07107 -1.67893,3.75 -3.75,3.75c-2.07107,0 -3.75,-1.67893 -3.75,-3.75z" fill="#666666" stroke="#000000" stroke-width="1.5" stroke-linecap="butt"/><path d="M252.89001,192.32927c0,-1.69137 1.37113,-3.0625 3.0625,-3.0625c1.69137,0 3.0625,1.37113 3.0625,3.0625c0,1.69137 -1.37113,3.0625 -3.0625,3.0625c-1.69137,0 -3.0625,-1.37113 -3.0625,-3.0625z" fill="#666666" stroke="#000000" stroke-width="1.5" stroke-linecap="butt"/><path d="M234.48828,184.91409l1.625,-3.39674c0,0 -0.43977,-0.77218 -0.68645,-1.2053c-0.28844,-0.50645 0.11239,-1.64796 1.13566,-1.64796c2.21431,0 10.7743,0 14.75,0c1.25311,0 1.52393,1.1974 1.28299,1.74498c-0.21426,0.48696 -0.60721,1.38002 -0.60721,1.38002l1.375,3.125c0,0 -6.15691,0.375 -9.30079,0.375c-3.14778,0 -9.57421,-0.375 -9.57421,-0.375z" fill="#838383" stroke="#000000" stroke-width="1" stroke-linecap="butt"/><path d="M236.23828,181.78909l15.625,0.125" fill="none" stroke="#000000" stroke-width="1" stroke-linecap="round"/></g></g></g></svg>